<?xml version="1.0" encoding="UTF-8" standalone="no"?>
<!-- Created with Inkscape (http://www.inkscape.org/) -->

<svg
   width="210mm"
   height="297mm"
   viewBox="0 0 210 297"
   version="1.1"
   id="svg5"
   inkscape:version="1.1.2 (1:1.1+202202050852+0a00cf5339)"
   sodipodi:docname="pbl.svg"
   xmlns:inkscape="http://www.inkscape.org/namespaces/inkscape"
   xmlns:sodipodi="http://sodipodi.sourceforge.net/DTD/sodipodi-0.dtd"
   xmlns="http://www.w3.org/2000/svg"
   xmlns:svg="http://www.w3.org/2000/svg">
  <sodipodi:namedview
     id="namedview7"
     pagecolor="#ffffff"
     bordercolor="#999999"
     borderopacity="1"
     inkscape:pageshadow="0"
     inkscape:pageopacity="0"
     inkscape:pagecheckerboard="0"
     inkscape:document-units="mm"
     showgrid="false"
     inkscape:zoom="0.75544332"
     inkscape:cx="135.02006"
     inkscape:cy="429.5491"
     inkscape:window-width="1920"
     inkscape:window-height="1019"
     inkscape:window-x="1920"
     inkscape:window-y="24"
     inkscape:window-maximized="1"
     inkscape:current-layer="layer1" />
  <defs
     id="defs2" />
  <g
     inkscape:label="Layer 1"
     inkscape:groupmode="layer"
     id="layer1">
    <path
       style="fill:#000000;stroke-width:0.264583"
       d="m 70.729416,163.15763 c -0.09827,-0.0983 -0.178665,-1.05178 -0.178665,-2.11894 v -1.94028 l -8.532813,-0.009 c -12.447122,-0.013 -15.20223,-0.35044 -19.380729,-2.37377 -4.79235,-2.32057 -6.880008,-6.07095 -6.847767,-12.30169 0.02312,-4.46778 0.900769,-6.72302 3.684247,-9.46718 1.149968,-1.13373 4.14688,-2.8615 5.147895,-2.96785 0.218281,-0.0232 0.635,-0.0668 0.926042,-0.0969 0.331385,-0.0343 -0.168422,-0.38219 -1.337245,-0.9308 -2.430729,-1.14093 -4.017194,-2.71353 -5.236108,-5.19037 -1.139671,-2.31581 -1.489958,-4.50136 -1.20298,-7.50575 0.267643,-2.80197 1.117283,-4.63386 3.086597,-6.65494 1.416954,-1.4542 5.060125,-3.2345 7.691039,-3.75837 0.386575,-0.077 10.04927,-0.21446 21.472655,-0.30553 19.745068,-0.15741 20.828534,-0.19083 21.960417,-0.67747 3.100697,-1.3331 4.721447,-2.8086 5.863614,-5.33814 0.48897,-1.08291 0.58572,-1.784666 0.59762,-4.334786 0.013,-2.78956 -0.0472,-3.17478 -0.7235,-4.63021 -1.022477,-2.20033 -3.059327,-4.11227 -5.236166,-4.91507 -1.637332,-0.60383 -2.017604,-0.62863 -11.729607,-0.76491 l -10.03741,-0.14085 0.03713,-1.85208 c 0.02043,-1.01865 0.04265,-2.00092 0.04939,-2.18282 0.0096,-0.25842 2.137947,-0.32997 9.735696,-0.32725 8.458192,0.003 10.035391,0.0679 12.12081,0.49827 4.298337,0.88713 7.117607,2.82579 9.081902,6.24513 1.4507,2.52528 1.74989,3.8824 1.74989,7.9375 0,5.420156 -0.79934,7.727556 -3.672225,10.600316 -1.71921,1.71914 -4.401627,3.20758 -6.911107,3.83488 -0.970896,0.2427 -6.81442,0.37434 -21.960416,0.49473 -20.612714,0.16384 -20.639677,0.16477 -22.449674,0.77173 -2.165416,0.72614 -3.872329,2.17557 -4.865373,4.13146 -0.531644,1.04712 -0.704416,1.85218 -0.804415,3.74829 -0.115769,2.19514 -0.06418,2.55272 0.567259,3.93197 1.234162,2.69576 4.159922,4.65219 7.708453,5.15456 1.018645,0.1442 5.900208,0.2645 10.847916,0.26732 l 8.995834,0.005 -0.03132,2.15994 -0.03132,2.15995 -7.509301,-0.0584 c -13.531529,-0.10527 -17.414994,0.58005 -20.257593,3.57488 -1.739761,1.83293 -2.279591,3.59866 -2.134133,6.98054 0.148047,3.44212 0.557759,4.45974 2.711591,6.73494 1.054256,1.11366 4.259836,2.41255 6.832166,2.76836 1.154545,0.1597 6.097284,0.28628 11.178646,0.28628 h 9.10898 v 1.69815 c 0,0.93398 0.07227,1.88648 0.160599,2.11667 0.143672,0.3744 1.650633,0.41851 14.2982,0.41851 h 14.137598 l -0.0768,2.18281 -0.0769,2.18282 -14.174969,0.0684 c -7.796242,0.0376 -14.255383,-0.012 -14.353646,-0.11025 z"
       id="path1036"
       sodipodi:nodetypes="csccssssssssscsssscsscscccssssssssssccccsssssscssscccscc" />
  </g>
</svg>
