<?xml version="1.0" encoding="UTF-8" standalone="no"?>
<!-- Created with Inkscape (http://www.inkscape.org/) -->

<svg
   width="210mm"
   height="297mm"
   viewBox="0 0 210 297"
   version="1.1"
   id="svg5"
   inkscape:version="1.1.2 (1:1.1+202202050852+0a00cf5339)"
   sodipodi:docname="zm.svg"
   xmlns:inkscape="http://www.inkscape.org/namespaces/inkscape"
   xmlns:sodipodi="http://sodipodi.sourceforge.net/DTD/sodipodi-0.dtd"
   xmlns="http://www.w3.org/2000/svg"
   xmlns:svg="http://www.w3.org/2000/svg">
  <sodipodi:namedview
     id="namedview7"
     pagecolor="#ffffff"
     bordercolor="#999999"
     borderopacity="1"
     inkscape:pageshadow="0"
     inkscape:pageopacity="0"
     inkscape:pagecheckerboard="0"
     inkscape:document-units="mm"
     showgrid="false"
     inkscape:zoom="16"
     inkscape:cx="387.75"
     inkscape:cy="465.34375"
     inkscape:window-width="1920"
     inkscape:window-height="1019"
     inkscape:window-x="1920"
     inkscape:window-y="24"
     inkscape:window-maximized="1"
     inkscape:current-layer="text1222" />
  <defs
     id="defs2" />
  <g
     inkscape:label="Layer 1"
     inkscape:groupmode="layer"
     id="layer1">
    <g
       aria-label="zm"
       id="text1222"
       style="font-size:10.5833px;line-height:1.25;letter-spacing:-0.79375px;word-spacing:0px;stroke-width:0.264583">
      <path
         d="m 100.00074,122.4716 2.21691,-3.13158 h -1.03869 v 0.80615 h -1.348747 v -2.18074 h 4.692197 v 0.93017 l -2.3306,3.03857 h 1.18856 v -1.02836 h 1.35391 v 2.41328 h -4.73354 z"
         style="font-weight:bold;font-family:Arvo;-inkscape-font-specification:'Arvo Bold'"
         id="path32130" />
      <path
         d="m 105.56524,117.96543 h 2.44946 v 0.46509 q 0.33072,-0.26355 0.74413,-0.41858 0.41342,-0.15503 0.85266,-0.15503 0.60978,0 1.04386,0.21704 0.43925,0.21187 0.6873,0.65112 0.17053,-0.1912 0.3824,-0.34623 0.21704,-0.1602 0.45992,-0.27388 0.24288,-0.11886 0.50643,-0.18087 0.26872,-0.0672 0.54777,-0.0672 0.98185,0 1.50894,0.5426 0.5271,0.5426 0.5271,1.58646 v 1.91719 h 0.75964 v 1.41593 h -2.44428 v -3.06957 q 0,-0.45475 -0.23771,-0.71313 -0.23255,-0.25838 -0.65113,-0.25838 -0.28938,0 -0.54776,0.13952 -0.25322,0.13436 -0.50643,0.47026 0.005,0.0568 0.005,0.11885 0,0.0568 0,0.11886 v 1.77766 h 0.77514 v 1.41593 h -2.44429 v -3.0799 q 0,-0.21704 -0.0672,-0.39274 -0.0672,-0.1757 -0.18603,-0.29973 -0.11886,-0.12402 -0.28422,-0.1912 -0.1602,-0.0723 -0.35657,-0.0775 -0.25838,-0.005 -0.53743,0.11369 -0.27388,0.11885 -0.5271,0.43924 v 2.07222 h 0.85783 v 1.41593 h -3.32795 v -1.41593 h 0.79581 v -2.5218 h -0.78548 z"
         style="font-weight:bold;font-family:Arvo;-inkscape-font-specification:'Arvo Bold'"
         id="path32132" />
    </g>
  </g>
</svg>
