%TF.GenerationSoftware,KiCad,Pcbnew,7.0.1*%
%TF.CreationDate,2023-04-26T14:08:55+02:00*%
%TF.ProjectId,radartof-hardware,72616461-7274-46f6-962d-686172647761,1.4*%
%TF.SameCoordinates,Original*%
%TF.FileFunction,Drillmap*%
%TF.FilePolarity,Positive*%
%FSLAX45Y45*%
G04 Gerber Fmt 4.5, Leading zero omitted, Abs format (unit mm)*
G04 Created by KiCad (PCBNEW 7.0.1) date 2023-04-26 14:08:55*
%MOMM*%
%LPD*%
G01*
G04 APERTURE LIST*
%ADD10C,0.100000*%
%ADD11C,0.200000*%
%ADD12C,0.020000*%
%ADD13C,0.040000*%
%ADD14C,0.060000*%
G04 APERTURE END LIST*
D10*
X16270000Y-6898000D02*
G75*
G03*
X16070000Y-6698000I-200000J0D01*
G01*
X13850000Y-10050000D02*
G75*
G03*
X13900000Y-10000000I0J50000D01*
G01*
X13930000Y-6698000D02*
X16070000Y-6698000D01*
X13930000Y-6698000D02*
G75*
G03*
X13730000Y-6898000I0J-200000D01*
G01*
X13730000Y-8950000D02*
X13730000Y-6898000D01*
X13730000Y-13102000D02*
X13730000Y-10050000D01*
X13730000Y-13102000D02*
G75*
G03*
X13930000Y-13302000I200000J0D01*
G01*
X16270000Y-6898000D02*
X16270000Y-13102000D01*
X13850000Y-10050000D02*
X13730000Y-10050000D01*
X16070000Y-13302000D02*
X13930000Y-13302000D01*
X13900000Y-9000000D02*
G75*
G03*
X13850000Y-8950000I-50000J0D01*
G01*
X13900000Y-9000000D02*
X13900000Y-10000000D01*
X16070000Y-13302000D02*
G75*
G03*
X16270000Y-13102000I0J200000D01*
G01*
X13850000Y-8950000D02*
X13730000Y-8950000D01*
D11*
D12*
X13780000Y-11300000D02*
X13800000Y-11320000D01*
X13800000Y-11300000D02*
X13780000Y-11320000D01*
X13790000Y-11530000D02*
X13810000Y-11550000D01*
X13810000Y-11530000D02*
X13790000Y-11550000D01*
X13790000Y-11820000D02*
X13810000Y-11840000D01*
X13810000Y-11820000D02*
X13790000Y-11840000D01*
X13790000Y-12070000D02*
X13810000Y-12090000D01*
X13810000Y-12070000D02*
X13790000Y-12090000D01*
X13790000Y-12510000D02*
X13810000Y-12530000D01*
X13810000Y-12510000D02*
X13790000Y-12530000D01*
X13790000Y-12780000D02*
X13810000Y-12800000D01*
X13810000Y-12780000D02*
X13790000Y-12800000D01*
X13840000Y-6940000D02*
X13860000Y-6960000D01*
X13860000Y-6940000D02*
X13840000Y-6960000D01*
X13840000Y-7240000D02*
X13860000Y-7260000D01*
X13860000Y-7240000D02*
X13840000Y-7260000D01*
X13856250Y-11120000D02*
X13876250Y-11140000D01*
X13876250Y-11120000D02*
X13856250Y-11140000D01*
X13870000Y-10260000D02*
X13890000Y-10280000D01*
X13890000Y-10260000D02*
X13870000Y-10280000D01*
X13890000Y-10650000D02*
X13910000Y-10670000D01*
X13910000Y-10650000D02*
X13890000Y-10670000D01*
X13890000Y-10830000D02*
X13910000Y-10850000D01*
X13910000Y-10830000D02*
X13890000Y-10850000D01*
X13940000Y-10170000D02*
X13960000Y-10190000D01*
X13960000Y-10170000D02*
X13940000Y-10190000D01*
X13960000Y-11040000D02*
X13980000Y-11060000D01*
X13980000Y-11040000D02*
X13960000Y-11060000D01*
X13974950Y-8060000D02*
X13994950Y-8080000D01*
X13994950Y-8060000D02*
X13974950Y-8080000D01*
X13975000Y-8405000D02*
X13995000Y-8425000D01*
X13995000Y-8405000D02*
X13975000Y-8425000D01*
X13990000Y-8620000D02*
X14010000Y-8640000D01*
X14010000Y-8620000D02*
X13990000Y-8640000D01*
X14010000Y-10595000D02*
X14030000Y-10615000D01*
X14030000Y-10595000D02*
X14010000Y-10615000D01*
X14010000Y-10785000D02*
X14030000Y-10805000D01*
X14030000Y-10785000D02*
X14010000Y-10805000D01*
X14020000Y-9720000D02*
X14040000Y-9740000D01*
X14040000Y-9720000D02*
X14020000Y-9740000D01*
X14040000Y-8390000D02*
X14060000Y-8410000D01*
X14060000Y-8390000D02*
X14040000Y-8410000D01*
X14040000Y-8660000D02*
X14060000Y-8680000D01*
X14060000Y-8660000D02*
X14040000Y-8680000D01*
X14040000Y-12015000D02*
X14060000Y-12035000D01*
X14060000Y-12015000D02*
X14040000Y-12035000D01*
X14040000Y-12065000D02*
X14060000Y-12085000D01*
X14060000Y-12065000D02*
X14040000Y-12085000D01*
X14040000Y-12165000D02*
X14060000Y-12185000D01*
X14060000Y-12165000D02*
X14040000Y-12185000D01*
X14050000Y-9500000D02*
X14070000Y-9520000D01*
X14070000Y-9500000D02*
X14050000Y-9520000D01*
X14050000Y-10330000D02*
X14070000Y-10350000D01*
X14070000Y-10330000D02*
X14050000Y-10350000D01*
X14050000Y-10480000D02*
X14070000Y-10500000D01*
X14070000Y-10480000D02*
X14050000Y-10500000D01*
X14050000Y-12515000D02*
X14070000Y-12535000D01*
X14070000Y-12515000D02*
X14050000Y-12535000D01*
X14090000Y-8150000D02*
X14110000Y-8170000D01*
X14110000Y-8150000D02*
X14090000Y-8170000D01*
X14090000Y-8700000D02*
X14110000Y-8720000D01*
X14110000Y-8700000D02*
X14090000Y-8720000D01*
X14090000Y-10530000D02*
X14110000Y-10550000D01*
X14110000Y-10530000D02*
X14090000Y-10550000D01*
X14090000Y-11840000D02*
X14110000Y-11860000D01*
X14110000Y-11840000D02*
X14090000Y-11860000D01*
X14140000Y-8740000D02*
X14160000Y-8760000D01*
X14160000Y-8740000D02*
X14140000Y-8760000D01*
X14140000Y-10170000D02*
X14160000Y-10190000D01*
X14160000Y-10170000D02*
X14140000Y-10190000D01*
X14140000Y-10660000D02*
X14160000Y-10680000D01*
X14160000Y-10660000D02*
X14140000Y-10680000D01*
X14140000Y-10720000D02*
X14160000Y-10740000D01*
X14160000Y-10720000D02*
X14140000Y-10740000D01*
X14140000Y-11915000D02*
X14160000Y-11935000D01*
X14160000Y-11915000D02*
X14140000Y-11935000D01*
X14190000Y-8780000D02*
X14210000Y-8800000D01*
X14210000Y-8780000D02*
X14190000Y-8800000D01*
X14190000Y-10170000D02*
X14210000Y-10190000D01*
X14210000Y-10170000D02*
X14190000Y-10190000D01*
X14210000Y-10330000D02*
X14230000Y-10350000D01*
X14230000Y-10330000D02*
X14210000Y-10350000D01*
X14210000Y-12365000D02*
X14230000Y-12385000D01*
X14230000Y-12365000D02*
X14210000Y-12385000D01*
X14215000Y-10830000D02*
X14235000Y-10850000D01*
X14235000Y-10830000D02*
X14215000Y-10850000D01*
X14250000Y-12465000D02*
X14270000Y-12485000D01*
X14270000Y-12465000D02*
X14250000Y-12485000D01*
X14260000Y-8826250D02*
X14280000Y-8846250D01*
X14280000Y-8826250D02*
X14260000Y-8846250D01*
X14270000Y-10980000D02*
X14290000Y-11000000D01*
X14290000Y-10980000D02*
X14270000Y-11000000D01*
X14290000Y-9500000D02*
X14310000Y-9520000D01*
X14310000Y-9500000D02*
X14290000Y-9520000D01*
X14290000Y-9720000D02*
X14310000Y-9740000D01*
X14310000Y-9720000D02*
X14290000Y-9740000D01*
X14290000Y-10030000D02*
X14310000Y-10050000D01*
X14310000Y-10030000D02*
X14290000Y-10050000D01*
X14290000Y-10380000D02*
X14310000Y-10400000D01*
X14310000Y-10380000D02*
X14290000Y-10400000D01*
X14290000Y-10550000D02*
X14310000Y-10570000D01*
X14310000Y-10550000D02*
X14290000Y-10570000D01*
X14290000Y-12500000D02*
X14310000Y-12520000D01*
X14310000Y-12500000D02*
X14290000Y-12520000D01*
X14330000Y-9340000D02*
X14350000Y-9360000D01*
X14350000Y-9340000D02*
X14330000Y-9360000D01*
X14330000Y-10490000D02*
X14350000Y-10510000D01*
X14350000Y-10490000D02*
X14330000Y-10510000D01*
X14330000Y-10980000D02*
X14350000Y-11000000D01*
X14350000Y-10980000D02*
X14330000Y-11000000D01*
X14330000Y-12640000D02*
X14350000Y-12660000D01*
X14350000Y-12640000D02*
X14330000Y-12660000D01*
X14345000Y-9655000D02*
X14365000Y-9675000D01*
X14365000Y-9655000D02*
X14345000Y-9675000D01*
X14365000Y-10550000D02*
X14385000Y-10570000D01*
X14385000Y-10550000D02*
X14365000Y-10570000D01*
X14365000Y-10830000D02*
X14385000Y-10850000D01*
X14385000Y-10830000D02*
X14365000Y-10850000D01*
X14370000Y-8480000D02*
X14390000Y-8500000D01*
X14390000Y-8480000D02*
X14370000Y-8500000D01*
X14370000Y-12710000D02*
X14390000Y-12730000D01*
X14390000Y-12710000D02*
X14370000Y-12730000D01*
X14380000Y-7880000D02*
X14400000Y-7900000D01*
X14400000Y-7880000D02*
X14380000Y-7900000D01*
X14390000Y-11440000D02*
X14410000Y-11460000D01*
X14410000Y-11440000D02*
X14390000Y-11460000D01*
X14390000Y-12115000D02*
X14410000Y-12135000D01*
X14410000Y-12115000D02*
X14390000Y-12135000D01*
X14430000Y-9420000D02*
X14450000Y-9440000D01*
X14450000Y-9420000D02*
X14430000Y-9440000D01*
X14430000Y-10910000D02*
X14450000Y-10930000D01*
X14450000Y-10910000D02*
X14430000Y-10930000D01*
X14440000Y-10660000D02*
X14460000Y-10680000D01*
X14460000Y-10660000D02*
X14440000Y-10680000D01*
X14440000Y-10720000D02*
X14460000Y-10740000D01*
X14460000Y-10720000D02*
X14440000Y-10740000D01*
X14450000Y-12740000D02*
X14470000Y-12760000D01*
X14470000Y-12740000D02*
X14450000Y-12760000D01*
X14470000Y-9910000D02*
X14490000Y-9930000D01*
X14490000Y-9910000D02*
X14470000Y-9930000D01*
X14470000Y-10330000D02*
X14490000Y-10350000D01*
X14490000Y-10330000D02*
X14470000Y-10350000D01*
X14490000Y-8320000D02*
X14510000Y-8340000D01*
X14510000Y-8320000D02*
X14490000Y-8340000D01*
X14490000Y-12115000D02*
X14510000Y-12135000D01*
X14510000Y-12115000D02*
X14490000Y-12135000D01*
X14490000Y-12640000D02*
X14510000Y-12660000D01*
X14510000Y-12640000D02*
X14490000Y-12660000D01*
X14490000Y-12710000D02*
X14510000Y-12730000D01*
X14510000Y-12710000D02*
X14490000Y-12730000D01*
X14510000Y-9870000D02*
X14530000Y-9890000D01*
X14530000Y-9870000D02*
X14510000Y-9890000D01*
X14515000Y-10830000D02*
X14535000Y-10850000D01*
X14535000Y-10830000D02*
X14515000Y-10850000D01*
X14530000Y-6870000D02*
X14550000Y-6890000D01*
X14550000Y-6870000D02*
X14530000Y-6890000D01*
X14530000Y-7070000D02*
X14550000Y-7090000D01*
X14550000Y-7070000D02*
X14530000Y-7090000D01*
X14530000Y-8150000D02*
X14550000Y-8170000D01*
X14550000Y-8150000D02*
X14530000Y-8170000D01*
X14550000Y-9530000D02*
X14570000Y-9550000D01*
X14570000Y-9530000D02*
X14550000Y-9550000D01*
X14570000Y-8320000D02*
X14590000Y-8340000D01*
X14590000Y-8320000D02*
X14570000Y-8340000D01*
X14570000Y-10595000D02*
X14590000Y-10615000D01*
X14590000Y-10595000D02*
X14570000Y-10615000D01*
X14570000Y-12640000D02*
X14590000Y-12660000D01*
X14590000Y-12640000D02*
X14570000Y-12660000D01*
X14590000Y-7270000D02*
X14610000Y-7290000D01*
X14610000Y-7270000D02*
X14590000Y-7290000D01*
X14590000Y-7480000D02*
X14610000Y-7500000D01*
X14610000Y-7480000D02*
X14590000Y-7500000D01*
X14590000Y-9590000D02*
X14610000Y-9610000D01*
X14610000Y-9590000D02*
X14590000Y-9610000D01*
X14590000Y-9740000D02*
X14610000Y-9760000D01*
X14610000Y-9740000D02*
X14590000Y-9760000D01*
X14610000Y-8360000D02*
X14630000Y-8380000D01*
X14630000Y-8360000D02*
X14610000Y-8380000D01*
X14630000Y-10330000D02*
X14650000Y-10350000D01*
X14650000Y-10330000D02*
X14630000Y-10350000D01*
X14650000Y-8320000D02*
X14670000Y-8340000D01*
X14670000Y-8320000D02*
X14650000Y-8340000D01*
X14650000Y-12640000D02*
X14670000Y-12660000D01*
X14670000Y-12640000D02*
X14650000Y-12660000D01*
X14650000Y-12800000D02*
X14670000Y-12820000D01*
X14670000Y-12800000D02*
X14650000Y-12820000D01*
X14670000Y-11680000D02*
X14690000Y-11700000D01*
X14690000Y-11680000D02*
X14670000Y-11700000D01*
X14670000Y-11850000D02*
X14690000Y-11870000D01*
X14690000Y-11850000D02*
X14670000Y-11870000D01*
X14680228Y-7880228D02*
X14700228Y-7900228D01*
X14700228Y-7880228D02*
X14680228Y-7900228D01*
X14690000Y-8360000D02*
X14710000Y-8380000D01*
X14710000Y-8360000D02*
X14690000Y-8380000D01*
X14690000Y-10650000D02*
X14710000Y-10670000D01*
X14710000Y-10650000D02*
X14690000Y-10670000D01*
X14690000Y-10830000D02*
X14710000Y-10850000D01*
X14710000Y-10830000D02*
X14690000Y-10850000D01*
X14710000Y-10090000D02*
X14730000Y-10110000D01*
X14730000Y-10090000D02*
X14710000Y-10110000D01*
X14720000Y-11000000D02*
X14740000Y-11020000D01*
X14740000Y-11000000D02*
X14720000Y-11020000D01*
X14720000Y-11760000D02*
X14740000Y-11780000D01*
X14740000Y-11760000D02*
X14720000Y-11780000D01*
X14720289Y-11600289D02*
X14740289Y-11620289D01*
X14740289Y-11600289D02*
X14720289Y-11620289D01*
X14730000Y-8480000D02*
X14750000Y-8500000D01*
X14750000Y-8480000D02*
X14730000Y-8500000D01*
X14740000Y-8830000D02*
X14760000Y-8850000D01*
X14760000Y-8830000D02*
X14740000Y-8850000D01*
X14760000Y-11140000D02*
X14780000Y-11160000D01*
X14780000Y-11140000D02*
X14760000Y-11160000D01*
X14770000Y-11390000D02*
X14790000Y-11410000D01*
X14790000Y-11390000D02*
X14770000Y-11410000D01*
X14790000Y-8150000D02*
X14810000Y-8170000D01*
X14810000Y-8150000D02*
X14790000Y-8170000D01*
X14820000Y-12315000D02*
X14840000Y-12335000D01*
X14840000Y-12315000D02*
X14820000Y-12335000D01*
X14840000Y-10840000D02*
X14860000Y-10860000D01*
X14860000Y-10840000D02*
X14840000Y-10860000D01*
X14850000Y-8320000D02*
X14870000Y-8340000D01*
X14870000Y-8320000D02*
X14850000Y-8340000D01*
X14850000Y-12640000D02*
X14870000Y-12660000D01*
X14870000Y-12640000D02*
X14850000Y-12660000D01*
X14850000Y-12800000D02*
X14870000Y-12820000D01*
X14870000Y-12800000D02*
X14850000Y-12820000D01*
X14863700Y-9660000D02*
X14883700Y-9680000D01*
X14883700Y-9660000D02*
X14863700Y-9680000D01*
X14890000Y-8360000D02*
X14910000Y-8380000D01*
X14910000Y-8360000D02*
X14890000Y-8380000D01*
X14890000Y-12500000D02*
X14910000Y-12520000D01*
X14910000Y-12500000D02*
X14890000Y-12520000D01*
X14910000Y-10610000D02*
X14930000Y-10630000D01*
X14930000Y-10610000D02*
X14910000Y-10630000D01*
X14930000Y-6870000D02*
X14950000Y-6890000D01*
X14950000Y-6870000D02*
X14930000Y-6890000D01*
X14930000Y-7070000D02*
X14950000Y-7090000D01*
X14950000Y-7070000D02*
X14930000Y-7090000D01*
X14930000Y-8320000D02*
X14950000Y-8340000D01*
X14950000Y-8320000D02*
X14930000Y-8340000D01*
X14930000Y-11510000D02*
X14950000Y-11530000D01*
X14950000Y-11510000D02*
X14930000Y-11530000D01*
X14950000Y-10510000D02*
X14970000Y-10530000D01*
X14970000Y-10510000D02*
X14950000Y-10530000D01*
X14964950Y-8800000D02*
X14984950Y-8820000D01*
X14984950Y-8800000D02*
X14964950Y-8820000D01*
X14970000Y-8480000D02*
X14990000Y-8500000D01*
X14990000Y-8480000D02*
X14970000Y-8500000D01*
X14970000Y-12500000D02*
X14990000Y-12520000D01*
X14990000Y-12500000D02*
X14970000Y-12520000D01*
X14980000Y-11550000D02*
X15000000Y-11570000D01*
X15000000Y-11550000D02*
X14980000Y-11570000D01*
X15010000Y-7480000D02*
X15030000Y-7500000D01*
X15030000Y-7480000D02*
X15010000Y-7500000D01*
X15010000Y-8320000D02*
X15030000Y-8340000D01*
X15030000Y-8320000D02*
X15010000Y-8340000D01*
X15010000Y-10270000D02*
X15030000Y-10290000D01*
X15030000Y-10270000D02*
X15010000Y-10290000D01*
X15050000Y-7270000D02*
X15070000Y-7290000D01*
X15070000Y-7270000D02*
X15050000Y-7290000D01*
X15050000Y-8360000D02*
X15070000Y-8380000D01*
X15070000Y-8360000D02*
X15050000Y-8380000D01*
X15050000Y-12640000D02*
X15070000Y-12660000D01*
X15070000Y-12640000D02*
X15050000Y-12660000D01*
X15050000Y-12800000D02*
X15070000Y-12820000D01*
X15070000Y-12800000D02*
X15050000Y-12820000D01*
X15100000Y-8800000D02*
X15120000Y-8820000D01*
X15120000Y-8800000D02*
X15100000Y-8820000D01*
X15120000Y-11197450D02*
X15140000Y-11217450D01*
X15140000Y-11197450D02*
X15120000Y-11217450D01*
X15140000Y-10040000D02*
X15160000Y-10060000D01*
X15160000Y-10040000D02*
X15140000Y-10060000D01*
X15145000Y-11780000D02*
X15165000Y-11800000D01*
X15165000Y-11780000D02*
X15145000Y-11800000D01*
X15150000Y-13200000D02*
X15170000Y-13220000D01*
X15170000Y-13200000D02*
X15150000Y-13220000D01*
X15160000Y-10515000D02*
X15180000Y-10535000D01*
X15180000Y-10515000D02*
X15160000Y-10535000D01*
X15160000Y-10615000D02*
X15180000Y-10635000D01*
X15180000Y-10615000D02*
X15160000Y-10635000D01*
X15160000Y-10765000D02*
X15180000Y-10785000D01*
X15180000Y-10765000D02*
X15160000Y-10785000D01*
X15160000Y-10865000D02*
X15180000Y-10885000D01*
X15180000Y-10865000D02*
X15160000Y-10885000D01*
X15170000Y-8320000D02*
X15190000Y-8340000D01*
X15190000Y-8320000D02*
X15170000Y-8340000D01*
X15200000Y-11490000D02*
X15220000Y-11510000D01*
X15220000Y-11490000D02*
X15200000Y-11510000D01*
X15200000Y-11690000D02*
X15220000Y-11710000D01*
X15220000Y-11690000D02*
X15200000Y-11710000D01*
X15215000Y-11120000D02*
X15235000Y-11140000D01*
X15235000Y-11120000D02*
X15215000Y-11140000D01*
X15230000Y-9370000D02*
X15250000Y-9390000D01*
X15250000Y-9370000D02*
X15230000Y-9390000D01*
X15240000Y-8380000D02*
X15260000Y-8400000D01*
X15260000Y-8380000D02*
X15240000Y-8400000D01*
X15275000Y-12030000D02*
X15295000Y-12050000D01*
X15295000Y-12030000D02*
X15275000Y-12050000D01*
X15300000Y-8380000D02*
X15320000Y-8400000D01*
X15320000Y-8380000D02*
X15300000Y-8400000D01*
X15300000Y-9080000D02*
X15320000Y-9100000D01*
X15320000Y-9080000D02*
X15300000Y-9100000D01*
X15315000Y-10990000D02*
X15335000Y-11010000D01*
X15335000Y-10990000D02*
X15315000Y-11010000D01*
X15315050Y-10915000D02*
X15335050Y-10935000D01*
X15335050Y-10915000D02*
X15315050Y-10935000D01*
X15320000Y-9770000D02*
X15340000Y-9790000D01*
X15340000Y-9770000D02*
X15320000Y-9790000D01*
X15320000Y-9950000D02*
X15340000Y-9970000D01*
X15340000Y-9950000D02*
X15320000Y-9970000D01*
X15320000Y-10570000D02*
X15340000Y-10590000D01*
X15340000Y-10570000D02*
X15320000Y-10590000D01*
X15320000Y-10810000D02*
X15340000Y-10830000D01*
X15340000Y-10810000D02*
X15320000Y-10830000D01*
X15330000Y-10670000D02*
X15350000Y-10690000D01*
X15350000Y-10670000D02*
X15330000Y-10690000D01*
X15330000Y-12800000D02*
X15350000Y-12820000D01*
X15350000Y-12800000D02*
X15330000Y-12820000D01*
X15340000Y-10405000D02*
X15360000Y-10425000D01*
X15360000Y-10405000D02*
X15340000Y-10425000D01*
X15340000Y-12025910D02*
X15360000Y-12045910D01*
X15360000Y-12025910D02*
X15340000Y-12045910D01*
X15365000Y-10915000D02*
X15385000Y-10935000D01*
X15385000Y-10915000D02*
X15365000Y-10935000D01*
X15370000Y-7500000D02*
X15390000Y-7520000D01*
X15390000Y-7500000D02*
X15370000Y-7520000D01*
X15370000Y-7560000D02*
X15390000Y-7580000D01*
X15390000Y-7560000D02*
X15370000Y-7580000D01*
X15370000Y-7620000D02*
X15390000Y-7640000D01*
X15390000Y-7620000D02*
X15370000Y-7640000D01*
X15370000Y-7680000D02*
X15390000Y-7700000D01*
X15390000Y-7680000D02*
X15370000Y-7700000D01*
X15370000Y-8620000D02*
X15390000Y-8640000D01*
X15390000Y-8620000D02*
X15370000Y-8640000D01*
X15380000Y-13030000D02*
X15400000Y-13050000D01*
X15400000Y-13030000D02*
X15380000Y-13050000D01*
X15390000Y-7860000D02*
X15410000Y-7880000D01*
X15410000Y-7860000D02*
X15390000Y-7880000D01*
X15400000Y-8800000D02*
X15420000Y-8820000D01*
X15420000Y-8800000D02*
X15400000Y-8820000D01*
X15405000Y-12020000D02*
X15425000Y-12040000D01*
X15425000Y-12020000D02*
X15405000Y-12040000D01*
X15410000Y-8180000D02*
X15430000Y-8200000D01*
X15430000Y-8180000D02*
X15410000Y-8200000D01*
X15415000Y-10570000D02*
X15435000Y-10590000D01*
X15435000Y-10570000D02*
X15415000Y-10590000D01*
X15415000Y-10815000D02*
X15435000Y-10835000D01*
X15435000Y-10815000D02*
X15415000Y-10835000D01*
X15445000Y-11030000D02*
X15465000Y-11050000D01*
X15465000Y-11030000D02*
X15445000Y-11050000D01*
X15450000Y-8140000D02*
X15470000Y-8160000D01*
X15470000Y-8140000D02*
X15450000Y-8160000D01*
X15450000Y-10050000D02*
X15470000Y-10070000D01*
X15470000Y-10050000D02*
X15450000Y-10070000D01*
X15465050Y-10815000D02*
X15485050Y-10835000D01*
X15485050Y-10815000D02*
X15465050Y-10835000D01*
X15490000Y-11490000D02*
X15510000Y-11510000D01*
X15510000Y-11490000D02*
X15490000Y-11510000D01*
X15490000Y-11690000D02*
X15510000Y-11710000D01*
X15510000Y-11690000D02*
X15490000Y-11710000D01*
X15500000Y-11200000D02*
X15520000Y-11220000D01*
X15520000Y-11200000D02*
X15500000Y-11220000D01*
X15510000Y-13130000D02*
X15530000Y-13150000D01*
X15530000Y-13130000D02*
X15510000Y-13150000D01*
X15515000Y-10460000D02*
X15535000Y-10480000D01*
X15535000Y-10460000D02*
X15515000Y-10480000D01*
X15515000Y-10570000D02*
X15535000Y-10590000D01*
X15535000Y-10570000D02*
X15515000Y-10590000D01*
X15515000Y-10815000D02*
X15535000Y-10835000D01*
X15535000Y-10815000D02*
X15515000Y-10835000D01*
X15535000Y-9860000D02*
X15555000Y-9880000D01*
X15555000Y-9860000D02*
X15535000Y-9880000D01*
X15565000Y-10460000D02*
X15585000Y-10480000D01*
X15585000Y-10460000D02*
X15565000Y-10480000D01*
X15570000Y-12640000D02*
X15590000Y-12660000D01*
X15590000Y-12640000D02*
X15570000Y-12660000D01*
X15570000Y-12800000D02*
X15590000Y-12820000D01*
X15590000Y-12800000D02*
X15570000Y-12820000D01*
X15590000Y-11670000D02*
X15610000Y-11690000D01*
X15610000Y-11670000D02*
X15590000Y-11690000D01*
X15615000Y-10565000D02*
X15635000Y-10585000D01*
X15635000Y-10565000D02*
X15615000Y-10585000D01*
X15615000Y-10810000D02*
X15635000Y-10830000D01*
X15635000Y-10810000D02*
X15615000Y-10830000D01*
X15620000Y-9950000D02*
X15640000Y-9970000D01*
X15640000Y-9950000D02*
X15620000Y-9970000D01*
X15630000Y-10050000D02*
X15650000Y-10070000D01*
X15650000Y-10050000D02*
X15630000Y-10070000D01*
X15640000Y-6940000D02*
X15660000Y-6960000D01*
X15660000Y-6940000D02*
X15640000Y-6960000D01*
X15640000Y-7240000D02*
X15660000Y-7260000D01*
X15660000Y-7240000D02*
X15640000Y-7260000D01*
X15640000Y-11120000D02*
X15660000Y-11140000D01*
X15660000Y-11120000D02*
X15640000Y-11140000D01*
X15640000Y-11420000D02*
X15660000Y-11440000D01*
X15660000Y-11420000D02*
X15640000Y-11440000D01*
X15650000Y-8365000D02*
X15670000Y-8385000D01*
X15670000Y-8365000D02*
X15650000Y-8385000D01*
X15689950Y-8320000D02*
X15709950Y-8340000D01*
X15709950Y-8320000D02*
X15689950Y-8340000D01*
X15715000Y-10570000D02*
X15735000Y-10590000D01*
X15735000Y-10570000D02*
X15715000Y-10590000D01*
X15730000Y-8180000D02*
X15750000Y-8200000D01*
X15750000Y-8180000D02*
X15730000Y-8200000D01*
X15740000Y-10405000D02*
X15760000Y-10425000D01*
X15760000Y-10405000D02*
X15740000Y-10425000D01*
X15740000Y-10960000D02*
X15760000Y-10980000D01*
X15760000Y-10960000D02*
X15740000Y-10980000D01*
X15745000Y-11780000D02*
X15765000Y-11800000D01*
X15765000Y-11780000D02*
X15745000Y-11800000D01*
X15758519Y-11461481D02*
X15778519Y-11481481D01*
X15778519Y-11461481D02*
X15758519Y-11481481D01*
X15770000Y-8140000D02*
X15790000Y-8160000D01*
X15790000Y-8140000D02*
X15770000Y-8160000D01*
X15800000Y-10198750D02*
X15820000Y-10218750D01*
X15820000Y-10198750D02*
X15800000Y-10218750D01*
X15800000Y-11510000D02*
X15820000Y-11530000D01*
X15820000Y-11510000D02*
X15800000Y-11530000D01*
X15800000Y-11690000D02*
X15820000Y-11710000D01*
X15820000Y-11690000D02*
X15800000Y-11710000D01*
X15800272Y-7590272D02*
X15820272Y-7610272D01*
X15820272Y-7590272D02*
X15800272Y-7610272D01*
X15810000Y-6800000D02*
X15830000Y-6820000D01*
X15830000Y-6800000D02*
X15810000Y-6820000D01*
X15810000Y-6970000D02*
X15830000Y-6990000D01*
X15830000Y-6970000D02*
X15810000Y-6990000D01*
X15810000Y-7140000D02*
X15830000Y-7160000D01*
X15830000Y-7140000D02*
X15810000Y-7160000D01*
X15820000Y-10510000D02*
X15840000Y-10530000D01*
X15840000Y-10510000D02*
X15820000Y-10530000D01*
X15820000Y-10610000D02*
X15840000Y-10630000D01*
X15840000Y-10610000D02*
X15820000Y-10630000D01*
X15820000Y-10770000D02*
X15840000Y-10790000D01*
X15840000Y-10770000D02*
X15820000Y-10790000D01*
X15821000Y-10899000D02*
X15841000Y-10919000D01*
X15841000Y-10899000D02*
X15821000Y-10919000D01*
X15840000Y-13085000D02*
X15860000Y-13105000D01*
X15860000Y-13085000D02*
X15840000Y-13105000D01*
X15840000Y-13175000D02*
X15860000Y-13195000D01*
X15860000Y-13175000D02*
X15840000Y-13195000D01*
X15850000Y-7240000D02*
X15870000Y-7260000D01*
X15870000Y-7240000D02*
X15850000Y-7260000D01*
X15870000Y-8590000D02*
X15890000Y-8610000D01*
X15890000Y-8590000D02*
X15870000Y-8610000D01*
X15870000Y-8710000D02*
X15890000Y-8730000D01*
X15890000Y-8710000D02*
X15870000Y-8730000D01*
X15870000Y-8840000D02*
X15890000Y-8860000D01*
X15890000Y-8840000D02*
X15870000Y-8860000D01*
X15870000Y-9090000D02*
X15890000Y-9110000D01*
X15890000Y-9090000D02*
X15870000Y-9110000D01*
X15870000Y-9220000D02*
X15890000Y-9240000D01*
X15890000Y-9220000D02*
X15870000Y-9240000D01*
X15870000Y-9860000D02*
X15890000Y-9880000D01*
X15890000Y-9860000D02*
X15870000Y-9880000D01*
X15875300Y-11980300D02*
X15895300Y-12000300D01*
X15895300Y-11980300D02*
X15875300Y-12000300D01*
X15940000Y-11980000D02*
X15960000Y-12000000D01*
X15960000Y-11980000D02*
X15940000Y-12000000D01*
X15960000Y-10200000D02*
X15980000Y-10220000D01*
X15980000Y-10200000D02*
X15960000Y-10220000D01*
X15963000Y-10545000D02*
X15983000Y-10565000D01*
X15983000Y-10545000D02*
X15963000Y-10565000D01*
X15963000Y-10885000D02*
X15983000Y-10905000D01*
X15983000Y-10885000D02*
X15963000Y-10905000D01*
X15965000Y-10420000D02*
X15985000Y-10440000D01*
X15985000Y-10420000D02*
X15965000Y-10440000D01*
X15970000Y-8590000D02*
X15990000Y-8610000D01*
X15990000Y-8590000D02*
X15970000Y-8610000D01*
X15970000Y-8710000D02*
X15990000Y-8730000D01*
X15990000Y-8710000D02*
X15970000Y-8730000D01*
X15970000Y-8840000D02*
X15990000Y-8860000D01*
X15990000Y-8840000D02*
X15970000Y-8860000D01*
X15970000Y-9090000D02*
X15990000Y-9110000D01*
X15990000Y-9090000D02*
X15970000Y-9110000D01*
X15970000Y-9220000D02*
X15990000Y-9240000D01*
X15990000Y-9220000D02*
X15970000Y-9240000D01*
X15990000Y-9670000D02*
X16010000Y-9690000D01*
X16010000Y-9670000D02*
X15990000Y-9690000D01*
X16005000Y-11780000D02*
X16025000Y-11800000D01*
X16025000Y-11780000D02*
X16005000Y-11800000D01*
X16020000Y-11065000D02*
X16040000Y-11085000D01*
X16040000Y-11065000D02*
X16020000Y-11085000D01*
X16032500Y-6890000D02*
X16052500Y-6910000D01*
X16052500Y-6890000D02*
X16032500Y-6910000D01*
X16035000Y-10840000D02*
X16055000Y-10860000D01*
X16055000Y-10840000D02*
X16035000Y-10860000D01*
X16070000Y-8030000D02*
X16090000Y-8050000D01*
X16090000Y-8030000D02*
X16070000Y-8050000D01*
X16090000Y-11510000D02*
X16110000Y-11530000D01*
X16110000Y-11510000D02*
X16090000Y-11530000D01*
X16090000Y-11690000D02*
X16110000Y-11710000D01*
X16110000Y-11690000D02*
X16090000Y-11710000D01*
X16110000Y-10920000D02*
X16130000Y-10940000D01*
X16130000Y-10920000D02*
X16110000Y-10940000D01*
X16140000Y-9720000D02*
X16160000Y-9740000D01*
X16160000Y-9720000D02*
X16140000Y-9740000D01*
X16140000Y-13085000D02*
X16160000Y-13105000D01*
X16160000Y-13085000D02*
X16140000Y-13105000D01*
X16140000Y-13175000D02*
X16160000Y-13195000D01*
X16160000Y-13175000D02*
X16140000Y-13195000D01*
X16150000Y-8280000D02*
X16170000Y-8300000D01*
X16170000Y-8280000D02*
X16150000Y-8300000D01*
X16157500Y-10230000D02*
X16177500Y-10250000D01*
X16177500Y-10230000D02*
X16157500Y-10250000D01*
X16190000Y-10390000D02*
X16210000Y-10410000D01*
X16210000Y-10390000D02*
X16190000Y-10410000D01*
X16190000Y-10940000D02*
X16210000Y-10960000D01*
X16210000Y-10940000D02*
X16190000Y-10960000D01*
X16190000Y-11290000D02*
X16210000Y-11310000D01*
X16210000Y-11290000D02*
X16190000Y-11310000D01*
X16200000Y-10665000D02*
X16220000Y-10685000D01*
X16220000Y-10665000D02*
X16200000Y-10685000D01*
X16200000Y-10785000D02*
X16220000Y-10805000D01*
X16220000Y-10785000D02*
X16200000Y-10805000D01*
X16220000Y-9830000D02*
X16240000Y-9850000D01*
X16240000Y-9830000D02*
X16220000Y-9850000D01*
D13*
X16032675Y-7327500D02*
G75*
G03*
X16032675Y-7327500I-20000J0D01*
G01*
X16032675Y-7417500D02*
G75*
G03*
X16032675Y-7417500I-20000J0D01*
G01*
X16032675Y-7507500D02*
G75*
G03*
X16032675Y-7507500I-20000J0D01*
G01*
X16032675Y-7597500D02*
G75*
G03*
X16032675Y-7597500I-20000J0D01*
G01*
X16032675Y-7687500D02*
G75*
G03*
X16032675Y-7687500I-20000J0D01*
G01*
X16032675Y-7777500D02*
G75*
G03*
X16032675Y-7777500I-20000J0D01*
G01*
X16032675Y-7867500D02*
G75*
G03*
X16032675Y-7867500I-20000J0D01*
G01*
X16110675Y-7372500D02*
G75*
G03*
X16110675Y-7372500I-20000J0D01*
G01*
X16110675Y-7462500D02*
G75*
G03*
X16110675Y-7462500I-20000J0D01*
G01*
X16110675Y-7552500D02*
G75*
G03*
X16110675Y-7552500I-20000J0D01*
G01*
X16110675Y-7642500D02*
G75*
G03*
X16110675Y-7642500I-20000J0D01*
G01*
X16110675Y-7732500D02*
G75*
G03*
X16110675Y-7732500I-20000J0D01*
G01*
X16110675Y-7822500D02*
G75*
G03*
X16110675Y-7822500I-20000J0D01*
G01*
X16110675Y-7912500D02*
G75*
G03*
X16110675Y-7912500I-20000J0D01*
G01*
D14*
X15908675Y-7347500D02*
X15908675Y-7407500D01*
X15878675Y-7377500D02*
X15938675Y-7377500D01*
D11*
X15938675Y-7427500D02*
X15938675Y-7327500D01*
X15938675Y-7327500D02*
G75*
G03*
X15878675Y-7327500I-30000J0D01*
G01*
X15878675Y-7327500D02*
X15878675Y-7427500D01*
X15878675Y-7427500D02*
G75*
G03*
X15938675Y-7427500I30000J0D01*
G01*
D14*
X15908675Y-7827500D02*
X15908675Y-7887500D01*
X15878675Y-7857500D02*
X15938675Y-7857500D01*
D11*
X15938675Y-7907500D02*
X15938675Y-7807500D01*
X15938675Y-7807500D02*
G75*
G03*
X15878675Y-7807500I-30000J0D01*
G01*
X15878675Y-7807500D02*
X15878675Y-7907500D01*
X15878675Y-7907500D02*
G75*
G03*
X15938675Y-7907500I30000J0D01*
G01*
D14*
X16194675Y-7347500D02*
X16194675Y-7407500D01*
X16164675Y-7377500D02*
X16224675Y-7377500D01*
D11*
X16224675Y-7427500D02*
X16224675Y-7327500D01*
X16224675Y-7327500D02*
G75*
G03*
X16164675Y-7327500I-30000J0D01*
G01*
X16164675Y-7327500D02*
X16164675Y-7427500D01*
X16164675Y-7427500D02*
G75*
G03*
X16224675Y-7427500I30000J0D01*
G01*
D14*
X16194675Y-7827500D02*
X16194675Y-7887500D01*
X16164675Y-7857500D02*
X16224675Y-7857500D01*
D11*
X16224675Y-7907500D02*
X16224675Y-7807500D01*
X16224675Y-7807500D02*
G75*
G03*
X16164675Y-7807500I-30000J0D01*
G01*
X16164675Y-7807500D02*
X16164675Y-7907500D01*
X16164675Y-7907500D02*
G75*
G03*
X16224675Y-7907500I30000J0D01*
G01*
X13972619Y-13619524D02*
X13972619Y-13419524D01*
X13972619Y-13419524D02*
X14020238Y-13419524D01*
X14020238Y-13419524D02*
X14048809Y-13429048D01*
X14048809Y-13429048D02*
X14067857Y-13448095D01*
X14067857Y-13448095D02*
X14077381Y-13467143D01*
X14077381Y-13467143D02*
X14086905Y-13505238D01*
X14086905Y-13505238D02*
X14086905Y-13533809D01*
X14086905Y-13533809D02*
X14077381Y-13571905D01*
X14077381Y-13571905D02*
X14067857Y-13590952D01*
X14067857Y-13590952D02*
X14048809Y-13610000D01*
X14048809Y-13610000D02*
X14020238Y-13619524D01*
X14020238Y-13619524D02*
X13972619Y-13619524D01*
X14172619Y-13619524D02*
X14172619Y-13486190D01*
X14172619Y-13524286D02*
X14182143Y-13505238D01*
X14182143Y-13505238D02*
X14191667Y-13495714D01*
X14191667Y-13495714D02*
X14210714Y-13486190D01*
X14210714Y-13486190D02*
X14229762Y-13486190D01*
X14296428Y-13619524D02*
X14296428Y-13486190D01*
X14296428Y-13419524D02*
X14286905Y-13429048D01*
X14286905Y-13429048D02*
X14296428Y-13438571D01*
X14296428Y-13438571D02*
X14305952Y-13429048D01*
X14305952Y-13429048D02*
X14296428Y-13419524D01*
X14296428Y-13419524D02*
X14296428Y-13438571D01*
X14420238Y-13619524D02*
X14401190Y-13610000D01*
X14401190Y-13610000D02*
X14391667Y-13590952D01*
X14391667Y-13590952D02*
X14391667Y-13419524D01*
X14525000Y-13619524D02*
X14505952Y-13610000D01*
X14505952Y-13610000D02*
X14496428Y-13590952D01*
X14496428Y-13590952D02*
X14496428Y-13419524D01*
X14753571Y-13619524D02*
X14753571Y-13419524D01*
X14753571Y-13419524D02*
X14820238Y-13562381D01*
X14820238Y-13562381D02*
X14886905Y-13419524D01*
X14886905Y-13419524D02*
X14886905Y-13619524D01*
X15067857Y-13619524D02*
X15067857Y-13514762D01*
X15067857Y-13514762D02*
X15058333Y-13495714D01*
X15058333Y-13495714D02*
X15039286Y-13486190D01*
X15039286Y-13486190D02*
X15001190Y-13486190D01*
X15001190Y-13486190D02*
X14982143Y-13495714D01*
X15067857Y-13610000D02*
X15048809Y-13619524D01*
X15048809Y-13619524D02*
X15001190Y-13619524D01*
X15001190Y-13619524D02*
X14982143Y-13610000D01*
X14982143Y-13610000D02*
X14972619Y-13590952D01*
X14972619Y-13590952D02*
X14972619Y-13571905D01*
X14972619Y-13571905D02*
X14982143Y-13552857D01*
X14982143Y-13552857D02*
X15001190Y-13543333D01*
X15001190Y-13543333D02*
X15048809Y-13543333D01*
X15048809Y-13543333D02*
X15067857Y-13533809D01*
X15163095Y-13486190D02*
X15163095Y-13686190D01*
X15163095Y-13495714D02*
X15182143Y-13486190D01*
X15182143Y-13486190D02*
X15220238Y-13486190D01*
X15220238Y-13486190D02*
X15239286Y-13495714D01*
X15239286Y-13495714D02*
X15248809Y-13505238D01*
X15248809Y-13505238D02*
X15258333Y-13524286D01*
X15258333Y-13524286D02*
X15258333Y-13581428D01*
X15258333Y-13581428D02*
X15248809Y-13600476D01*
X15248809Y-13600476D02*
X15239286Y-13610000D01*
X15239286Y-13610000D02*
X15220238Y-13619524D01*
X15220238Y-13619524D02*
X15182143Y-13619524D01*
X15182143Y-13619524D02*
X15163095Y-13610000D01*
X15344048Y-13600476D02*
X15353571Y-13610000D01*
X15353571Y-13610000D02*
X15344048Y-13619524D01*
X15344048Y-13619524D02*
X15334524Y-13610000D01*
X15334524Y-13610000D02*
X15344048Y-13600476D01*
X15344048Y-13600476D02*
X15344048Y-13619524D01*
X15344048Y-13495714D02*
X15353571Y-13505238D01*
X15353571Y-13505238D02*
X15344048Y-13514762D01*
X15344048Y-13514762D02*
X15334524Y-13505238D01*
X15334524Y-13505238D02*
X15344048Y-13495714D01*
X15344048Y-13495714D02*
X15344048Y-13514762D01*
D12*
X13705000Y-13937000D02*
X13725000Y-13957000D01*
X13725000Y-13937000D02*
X13705000Y-13957000D01*
D11*
X14010714Y-13839524D02*
X14029762Y-13839524D01*
X14029762Y-13839524D02*
X14048809Y-13849048D01*
X14048809Y-13849048D02*
X14058333Y-13858571D01*
X14058333Y-13858571D02*
X14067857Y-13877619D01*
X14067857Y-13877619D02*
X14077381Y-13915714D01*
X14077381Y-13915714D02*
X14077381Y-13963333D01*
X14077381Y-13963333D02*
X14067857Y-14001428D01*
X14067857Y-14001428D02*
X14058333Y-14020476D01*
X14058333Y-14020476D02*
X14048809Y-14030000D01*
X14048809Y-14030000D02*
X14029762Y-14039524D01*
X14029762Y-14039524D02*
X14010714Y-14039524D01*
X14010714Y-14039524D02*
X13991667Y-14030000D01*
X13991667Y-14030000D02*
X13982143Y-14020476D01*
X13982143Y-14020476D02*
X13972619Y-14001428D01*
X13972619Y-14001428D02*
X13963095Y-13963333D01*
X13963095Y-13963333D02*
X13963095Y-13915714D01*
X13963095Y-13915714D02*
X13972619Y-13877619D01*
X13972619Y-13877619D02*
X13982143Y-13858571D01*
X13982143Y-13858571D02*
X13991667Y-13849048D01*
X13991667Y-13849048D02*
X14010714Y-13839524D01*
X14163095Y-14020476D02*
X14172619Y-14030000D01*
X14172619Y-14030000D02*
X14163095Y-14039524D01*
X14163095Y-14039524D02*
X14153571Y-14030000D01*
X14153571Y-14030000D02*
X14163095Y-14020476D01*
X14163095Y-14020476D02*
X14163095Y-14039524D01*
X14248809Y-13858571D02*
X14258333Y-13849048D01*
X14258333Y-13849048D02*
X14277381Y-13839524D01*
X14277381Y-13839524D02*
X14325000Y-13839524D01*
X14325000Y-13839524D02*
X14344048Y-13849048D01*
X14344048Y-13849048D02*
X14353571Y-13858571D01*
X14353571Y-13858571D02*
X14363095Y-13877619D01*
X14363095Y-13877619D02*
X14363095Y-13896667D01*
X14363095Y-13896667D02*
X14353571Y-13925238D01*
X14353571Y-13925238D02*
X14239286Y-14039524D01*
X14239286Y-14039524D02*
X14363095Y-14039524D01*
X14486905Y-13839524D02*
X14505952Y-13839524D01*
X14505952Y-13839524D02*
X14525000Y-13849048D01*
X14525000Y-13849048D02*
X14534524Y-13858571D01*
X14534524Y-13858571D02*
X14544048Y-13877619D01*
X14544048Y-13877619D02*
X14553571Y-13915714D01*
X14553571Y-13915714D02*
X14553571Y-13963333D01*
X14553571Y-13963333D02*
X14544048Y-14001428D01*
X14544048Y-14001428D02*
X14534524Y-14020476D01*
X14534524Y-14020476D02*
X14525000Y-14030000D01*
X14525000Y-14030000D02*
X14505952Y-14039524D01*
X14505952Y-14039524D02*
X14486905Y-14039524D01*
X14486905Y-14039524D02*
X14467857Y-14030000D01*
X14467857Y-14030000D02*
X14458333Y-14020476D01*
X14458333Y-14020476D02*
X14448809Y-14001428D01*
X14448809Y-14001428D02*
X14439286Y-13963333D01*
X14439286Y-13963333D02*
X14439286Y-13915714D01*
X14439286Y-13915714D02*
X14448809Y-13877619D01*
X14448809Y-13877619D02*
X14458333Y-13858571D01*
X14458333Y-13858571D02*
X14467857Y-13849048D01*
X14467857Y-13849048D02*
X14486905Y-13839524D01*
X14677381Y-13839524D02*
X14696429Y-13839524D01*
X14696429Y-13839524D02*
X14715476Y-13849048D01*
X14715476Y-13849048D02*
X14725000Y-13858571D01*
X14725000Y-13858571D02*
X14734524Y-13877619D01*
X14734524Y-13877619D02*
X14744048Y-13915714D01*
X14744048Y-13915714D02*
X14744048Y-13963333D01*
X14744048Y-13963333D02*
X14734524Y-14001428D01*
X14734524Y-14001428D02*
X14725000Y-14020476D01*
X14725000Y-14020476D02*
X14715476Y-14030000D01*
X14715476Y-14030000D02*
X14696429Y-14039524D01*
X14696429Y-14039524D02*
X14677381Y-14039524D01*
X14677381Y-14039524D02*
X14658333Y-14030000D01*
X14658333Y-14030000D02*
X14648809Y-14020476D01*
X14648809Y-14020476D02*
X14639286Y-14001428D01*
X14639286Y-14001428D02*
X14629762Y-13963333D01*
X14629762Y-13963333D02*
X14629762Y-13915714D01*
X14629762Y-13915714D02*
X14639286Y-13877619D01*
X14639286Y-13877619D02*
X14648809Y-13858571D01*
X14648809Y-13858571D02*
X14658333Y-13849048D01*
X14658333Y-13849048D02*
X14677381Y-13839524D01*
X14829762Y-14039524D02*
X14829762Y-13906190D01*
X14829762Y-13925238D02*
X14839286Y-13915714D01*
X14839286Y-13915714D02*
X14858333Y-13906190D01*
X14858333Y-13906190D02*
X14886905Y-13906190D01*
X14886905Y-13906190D02*
X14905952Y-13915714D01*
X14905952Y-13915714D02*
X14915476Y-13934762D01*
X14915476Y-13934762D02*
X14915476Y-14039524D01*
X14915476Y-13934762D02*
X14925000Y-13915714D01*
X14925000Y-13915714D02*
X14944048Y-13906190D01*
X14944048Y-13906190D02*
X14972619Y-13906190D01*
X14972619Y-13906190D02*
X14991667Y-13915714D01*
X14991667Y-13915714D02*
X15001190Y-13934762D01*
X15001190Y-13934762D02*
X15001190Y-14039524D01*
X15096429Y-14039524D02*
X15096429Y-13906190D01*
X15096429Y-13925238D02*
X15105952Y-13915714D01*
X15105952Y-13915714D02*
X15125000Y-13906190D01*
X15125000Y-13906190D02*
X15153571Y-13906190D01*
X15153571Y-13906190D02*
X15172619Y-13915714D01*
X15172619Y-13915714D02*
X15182143Y-13934762D01*
X15182143Y-13934762D02*
X15182143Y-14039524D01*
X15182143Y-13934762D02*
X15191667Y-13915714D01*
X15191667Y-13915714D02*
X15210714Y-13906190D01*
X15210714Y-13906190D02*
X15239286Y-13906190D01*
X15239286Y-13906190D02*
X15258333Y-13915714D01*
X15258333Y-13915714D02*
X15267857Y-13934762D01*
X15267857Y-13934762D02*
X15267857Y-14039524D01*
X15658333Y-13830000D02*
X15486905Y-14087143D01*
X15915476Y-13839524D02*
X15934524Y-13839524D01*
X15934524Y-13839524D02*
X15953572Y-13849048D01*
X15953572Y-13849048D02*
X15963095Y-13858571D01*
X15963095Y-13858571D02*
X15972619Y-13877619D01*
X15972619Y-13877619D02*
X15982143Y-13915714D01*
X15982143Y-13915714D02*
X15982143Y-13963333D01*
X15982143Y-13963333D02*
X15972619Y-14001428D01*
X15972619Y-14001428D02*
X15963095Y-14020476D01*
X15963095Y-14020476D02*
X15953572Y-14030000D01*
X15953572Y-14030000D02*
X15934524Y-14039524D01*
X15934524Y-14039524D02*
X15915476Y-14039524D01*
X15915476Y-14039524D02*
X15896429Y-14030000D01*
X15896429Y-14030000D02*
X15886905Y-14020476D01*
X15886905Y-14020476D02*
X15877381Y-14001428D01*
X15877381Y-14001428D02*
X15867857Y-13963333D01*
X15867857Y-13963333D02*
X15867857Y-13915714D01*
X15867857Y-13915714D02*
X15877381Y-13877619D01*
X15877381Y-13877619D02*
X15886905Y-13858571D01*
X15886905Y-13858571D02*
X15896429Y-13849048D01*
X15896429Y-13849048D02*
X15915476Y-13839524D01*
X16067857Y-14020476D02*
X16077381Y-14030000D01*
X16077381Y-14030000D02*
X16067857Y-14039524D01*
X16067857Y-14039524D02*
X16058333Y-14030000D01*
X16058333Y-14030000D02*
X16067857Y-14020476D01*
X16067857Y-14020476D02*
X16067857Y-14039524D01*
X16201191Y-13839524D02*
X16220238Y-13839524D01*
X16220238Y-13839524D02*
X16239286Y-13849048D01*
X16239286Y-13849048D02*
X16248810Y-13858571D01*
X16248810Y-13858571D02*
X16258333Y-13877619D01*
X16258333Y-13877619D02*
X16267857Y-13915714D01*
X16267857Y-13915714D02*
X16267857Y-13963333D01*
X16267857Y-13963333D02*
X16258333Y-14001428D01*
X16258333Y-14001428D02*
X16248810Y-14020476D01*
X16248810Y-14020476D02*
X16239286Y-14030000D01*
X16239286Y-14030000D02*
X16220238Y-14039524D01*
X16220238Y-14039524D02*
X16201191Y-14039524D01*
X16201191Y-14039524D02*
X16182143Y-14030000D01*
X16182143Y-14030000D02*
X16172619Y-14020476D01*
X16172619Y-14020476D02*
X16163095Y-14001428D01*
X16163095Y-14001428D02*
X16153572Y-13963333D01*
X16153572Y-13963333D02*
X16153572Y-13915714D01*
X16153572Y-13915714D02*
X16163095Y-13877619D01*
X16163095Y-13877619D02*
X16172619Y-13858571D01*
X16172619Y-13858571D02*
X16182143Y-13849048D01*
X16182143Y-13849048D02*
X16201191Y-13839524D01*
X16391667Y-13839524D02*
X16410714Y-13839524D01*
X16410714Y-13839524D02*
X16429762Y-13849048D01*
X16429762Y-13849048D02*
X16439286Y-13858571D01*
X16439286Y-13858571D02*
X16448810Y-13877619D01*
X16448810Y-13877619D02*
X16458333Y-13915714D01*
X16458333Y-13915714D02*
X16458333Y-13963333D01*
X16458333Y-13963333D02*
X16448810Y-14001428D01*
X16448810Y-14001428D02*
X16439286Y-14020476D01*
X16439286Y-14020476D02*
X16429762Y-14030000D01*
X16429762Y-14030000D02*
X16410714Y-14039524D01*
X16410714Y-14039524D02*
X16391667Y-14039524D01*
X16391667Y-14039524D02*
X16372619Y-14030000D01*
X16372619Y-14030000D02*
X16363095Y-14020476D01*
X16363095Y-14020476D02*
X16353572Y-14001428D01*
X16353572Y-14001428D02*
X16344048Y-13963333D01*
X16344048Y-13963333D02*
X16344048Y-13915714D01*
X16344048Y-13915714D02*
X16353572Y-13877619D01*
X16353572Y-13877619D02*
X16363095Y-13858571D01*
X16363095Y-13858571D02*
X16372619Y-13849048D01*
X16372619Y-13849048D02*
X16391667Y-13839524D01*
X16525000Y-13839524D02*
X16658333Y-13839524D01*
X16658333Y-13839524D02*
X16572619Y-14039524D01*
X16744048Y-14039524D02*
X16782143Y-14039524D01*
X16782143Y-14039524D02*
X16801191Y-14030000D01*
X16801191Y-14030000D02*
X16810715Y-14020476D01*
X16810715Y-14020476D02*
X16829762Y-13991905D01*
X16829762Y-13991905D02*
X16839286Y-13953809D01*
X16839286Y-13953809D02*
X16839286Y-13877619D01*
X16839286Y-13877619D02*
X16829762Y-13858571D01*
X16829762Y-13858571D02*
X16820238Y-13849048D01*
X16820238Y-13849048D02*
X16801191Y-13839524D01*
X16801191Y-13839524D02*
X16763095Y-13839524D01*
X16763095Y-13839524D02*
X16744048Y-13849048D01*
X16744048Y-13849048D02*
X16734524Y-13858571D01*
X16734524Y-13858571D02*
X16725000Y-13877619D01*
X16725000Y-13877619D02*
X16725000Y-13925238D01*
X16725000Y-13925238D02*
X16734524Y-13944286D01*
X16734524Y-13944286D02*
X16744048Y-13953809D01*
X16744048Y-13953809D02*
X16763095Y-13963333D01*
X16763095Y-13963333D02*
X16801191Y-13963333D01*
X16801191Y-13963333D02*
X16820238Y-13953809D01*
X16820238Y-13953809D02*
X16829762Y-13944286D01*
X16829762Y-13944286D02*
X16839286Y-13925238D01*
X16915476Y-13839524D02*
X16915476Y-13877619D01*
X16991667Y-13839524D02*
X16991667Y-13877619D01*
X17286905Y-14115714D02*
X17277381Y-14106190D01*
X17277381Y-14106190D02*
X17258334Y-14077619D01*
X17258334Y-14077619D02*
X17248810Y-14058571D01*
X17248810Y-14058571D02*
X17239286Y-14030000D01*
X17239286Y-14030000D02*
X17229762Y-13982381D01*
X17229762Y-13982381D02*
X17229762Y-13944286D01*
X17229762Y-13944286D02*
X17239286Y-13896667D01*
X17239286Y-13896667D02*
X17248810Y-13868095D01*
X17248810Y-13868095D02*
X17258334Y-13849048D01*
X17258334Y-13849048D02*
X17277381Y-13820476D01*
X17277381Y-13820476D02*
X17286905Y-13810952D01*
X17353572Y-13858571D02*
X17363096Y-13849048D01*
X17363096Y-13849048D02*
X17382143Y-13839524D01*
X17382143Y-13839524D02*
X17429762Y-13839524D01*
X17429762Y-13839524D02*
X17448810Y-13849048D01*
X17448810Y-13849048D02*
X17458334Y-13858571D01*
X17458334Y-13858571D02*
X17467857Y-13877619D01*
X17467857Y-13877619D02*
X17467857Y-13896667D01*
X17467857Y-13896667D02*
X17458334Y-13925238D01*
X17458334Y-13925238D02*
X17344048Y-14039524D01*
X17344048Y-14039524D02*
X17467857Y-14039524D01*
X17648810Y-13839524D02*
X17553572Y-13839524D01*
X17553572Y-13839524D02*
X17544048Y-13934762D01*
X17544048Y-13934762D02*
X17553572Y-13925238D01*
X17553572Y-13925238D02*
X17572619Y-13915714D01*
X17572619Y-13915714D02*
X17620238Y-13915714D01*
X17620238Y-13915714D02*
X17639286Y-13925238D01*
X17639286Y-13925238D02*
X17648810Y-13934762D01*
X17648810Y-13934762D02*
X17658334Y-13953809D01*
X17658334Y-13953809D02*
X17658334Y-14001428D01*
X17658334Y-14001428D02*
X17648810Y-14020476D01*
X17648810Y-14020476D02*
X17639286Y-14030000D01*
X17639286Y-14030000D02*
X17620238Y-14039524D01*
X17620238Y-14039524D02*
X17572619Y-14039524D01*
X17572619Y-14039524D02*
X17553572Y-14030000D01*
X17553572Y-14030000D02*
X17544048Y-14020476D01*
X17772619Y-13925238D02*
X17753572Y-13915714D01*
X17753572Y-13915714D02*
X17744048Y-13906190D01*
X17744048Y-13906190D02*
X17734524Y-13887143D01*
X17734524Y-13887143D02*
X17734524Y-13877619D01*
X17734524Y-13877619D02*
X17744048Y-13858571D01*
X17744048Y-13858571D02*
X17753572Y-13849048D01*
X17753572Y-13849048D02*
X17772619Y-13839524D01*
X17772619Y-13839524D02*
X17810715Y-13839524D01*
X17810715Y-13839524D02*
X17829762Y-13849048D01*
X17829762Y-13849048D02*
X17839286Y-13858571D01*
X17839286Y-13858571D02*
X17848810Y-13877619D01*
X17848810Y-13877619D02*
X17848810Y-13887143D01*
X17848810Y-13887143D02*
X17839286Y-13906190D01*
X17839286Y-13906190D02*
X17829762Y-13915714D01*
X17829762Y-13915714D02*
X17810715Y-13925238D01*
X17810715Y-13925238D02*
X17772619Y-13925238D01*
X17772619Y-13925238D02*
X17753572Y-13934762D01*
X17753572Y-13934762D02*
X17744048Y-13944286D01*
X17744048Y-13944286D02*
X17734524Y-13963333D01*
X17734524Y-13963333D02*
X17734524Y-14001428D01*
X17734524Y-14001428D02*
X17744048Y-14020476D01*
X17744048Y-14020476D02*
X17753572Y-14030000D01*
X17753572Y-14030000D02*
X17772619Y-14039524D01*
X17772619Y-14039524D02*
X17810715Y-14039524D01*
X17810715Y-14039524D02*
X17829762Y-14030000D01*
X17829762Y-14030000D02*
X17839286Y-14020476D01*
X17839286Y-14020476D02*
X17848810Y-14001428D01*
X17848810Y-14001428D02*
X17848810Y-13963333D01*
X17848810Y-13963333D02*
X17839286Y-13944286D01*
X17839286Y-13944286D02*
X17829762Y-13934762D01*
X17829762Y-13934762D02*
X17810715Y-13925238D01*
X18086905Y-14039524D02*
X18086905Y-13839524D01*
X18172619Y-14039524D02*
X18172619Y-13934762D01*
X18172619Y-13934762D02*
X18163096Y-13915714D01*
X18163096Y-13915714D02*
X18144048Y-13906190D01*
X18144048Y-13906190D02*
X18115477Y-13906190D01*
X18115477Y-13906190D02*
X18096429Y-13915714D01*
X18096429Y-13915714D02*
X18086905Y-13925238D01*
X18296429Y-14039524D02*
X18277381Y-14030000D01*
X18277381Y-14030000D02*
X18267858Y-14020476D01*
X18267858Y-14020476D02*
X18258334Y-14001428D01*
X18258334Y-14001428D02*
X18258334Y-13944286D01*
X18258334Y-13944286D02*
X18267858Y-13925238D01*
X18267858Y-13925238D02*
X18277381Y-13915714D01*
X18277381Y-13915714D02*
X18296429Y-13906190D01*
X18296429Y-13906190D02*
X18325000Y-13906190D01*
X18325000Y-13906190D02*
X18344048Y-13915714D01*
X18344048Y-13915714D02*
X18353572Y-13925238D01*
X18353572Y-13925238D02*
X18363096Y-13944286D01*
X18363096Y-13944286D02*
X18363096Y-14001428D01*
X18363096Y-14001428D02*
X18353572Y-14020476D01*
X18353572Y-14020476D02*
X18344048Y-14030000D01*
X18344048Y-14030000D02*
X18325000Y-14039524D01*
X18325000Y-14039524D02*
X18296429Y-14039524D01*
X18477381Y-14039524D02*
X18458334Y-14030000D01*
X18458334Y-14030000D02*
X18448810Y-14010952D01*
X18448810Y-14010952D02*
X18448810Y-13839524D01*
X18629762Y-14030000D02*
X18610715Y-14039524D01*
X18610715Y-14039524D02*
X18572619Y-14039524D01*
X18572619Y-14039524D02*
X18553572Y-14030000D01*
X18553572Y-14030000D02*
X18544048Y-14010952D01*
X18544048Y-14010952D02*
X18544048Y-13934762D01*
X18544048Y-13934762D02*
X18553572Y-13915714D01*
X18553572Y-13915714D02*
X18572619Y-13906190D01*
X18572619Y-13906190D02*
X18610715Y-13906190D01*
X18610715Y-13906190D02*
X18629762Y-13915714D01*
X18629762Y-13915714D02*
X18639286Y-13934762D01*
X18639286Y-13934762D02*
X18639286Y-13953809D01*
X18639286Y-13953809D02*
X18544048Y-13972857D01*
X18715477Y-14030000D02*
X18734524Y-14039524D01*
X18734524Y-14039524D02*
X18772619Y-14039524D01*
X18772619Y-14039524D02*
X18791667Y-14030000D01*
X18791667Y-14030000D02*
X18801191Y-14010952D01*
X18801191Y-14010952D02*
X18801191Y-14001428D01*
X18801191Y-14001428D02*
X18791667Y-13982381D01*
X18791667Y-13982381D02*
X18772619Y-13972857D01*
X18772619Y-13972857D02*
X18744048Y-13972857D01*
X18744048Y-13972857D02*
X18725000Y-13963333D01*
X18725000Y-13963333D02*
X18715477Y-13944286D01*
X18715477Y-13944286D02*
X18715477Y-13934762D01*
X18715477Y-13934762D02*
X18725000Y-13915714D01*
X18725000Y-13915714D02*
X18744048Y-13906190D01*
X18744048Y-13906190D02*
X18772619Y-13906190D01*
X18772619Y-13906190D02*
X18791667Y-13915714D01*
X18867858Y-14115714D02*
X18877381Y-14106190D01*
X18877381Y-14106190D02*
X18896429Y-14077619D01*
X18896429Y-14077619D02*
X18905953Y-14058571D01*
X18905953Y-14058571D02*
X18915477Y-14030000D01*
X18915477Y-14030000D02*
X18925000Y-13982381D01*
X18925000Y-13982381D02*
X18925000Y-13944286D01*
X18925000Y-13944286D02*
X18915477Y-13896667D01*
X18915477Y-13896667D02*
X18905953Y-13868095D01*
X18905953Y-13868095D02*
X18896429Y-13849048D01*
X18896429Y-13849048D02*
X18877381Y-13820476D01*
X18877381Y-13820476D02*
X18867858Y-13810952D01*
D13*
X13725000Y-14211000D02*
G75*
G03*
X13725000Y-14211000I-20000J0D01*
G01*
D11*
X14010714Y-14103524D02*
X14029762Y-14103524D01*
X14029762Y-14103524D02*
X14048809Y-14113048D01*
X14048809Y-14113048D02*
X14058333Y-14122571D01*
X14058333Y-14122571D02*
X14067857Y-14141619D01*
X14067857Y-14141619D02*
X14077381Y-14179714D01*
X14077381Y-14179714D02*
X14077381Y-14227333D01*
X14077381Y-14227333D02*
X14067857Y-14265428D01*
X14067857Y-14265428D02*
X14058333Y-14284476D01*
X14058333Y-14284476D02*
X14048809Y-14294000D01*
X14048809Y-14294000D02*
X14029762Y-14303524D01*
X14029762Y-14303524D02*
X14010714Y-14303524D01*
X14010714Y-14303524D02*
X13991667Y-14294000D01*
X13991667Y-14294000D02*
X13982143Y-14284476D01*
X13982143Y-14284476D02*
X13972619Y-14265428D01*
X13972619Y-14265428D02*
X13963095Y-14227333D01*
X13963095Y-14227333D02*
X13963095Y-14179714D01*
X13963095Y-14179714D02*
X13972619Y-14141619D01*
X13972619Y-14141619D02*
X13982143Y-14122571D01*
X13982143Y-14122571D02*
X13991667Y-14113048D01*
X13991667Y-14113048D02*
X14010714Y-14103524D01*
X14163095Y-14284476D02*
X14172619Y-14294000D01*
X14172619Y-14294000D02*
X14163095Y-14303524D01*
X14163095Y-14303524D02*
X14153571Y-14294000D01*
X14153571Y-14294000D02*
X14163095Y-14284476D01*
X14163095Y-14284476D02*
X14163095Y-14303524D01*
X14344048Y-14170190D02*
X14344048Y-14303524D01*
X14296428Y-14094000D02*
X14248809Y-14236857D01*
X14248809Y-14236857D02*
X14372619Y-14236857D01*
X14486905Y-14103524D02*
X14505952Y-14103524D01*
X14505952Y-14103524D02*
X14525000Y-14113048D01*
X14525000Y-14113048D02*
X14534524Y-14122571D01*
X14534524Y-14122571D02*
X14544048Y-14141619D01*
X14544048Y-14141619D02*
X14553571Y-14179714D01*
X14553571Y-14179714D02*
X14553571Y-14227333D01*
X14553571Y-14227333D02*
X14544048Y-14265428D01*
X14544048Y-14265428D02*
X14534524Y-14284476D01*
X14534524Y-14284476D02*
X14525000Y-14294000D01*
X14525000Y-14294000D02*
X14505952Y-14303524D01*
X14505952Y-14303524D02*
X14486905Y-14303524D01*
X14486905Y-14303524D02*
X14467857Y-14294000D01*
X14467857Y-14294000D02*
X14458333Y-14284476D01*
X14458333Y-14284476D02*
X14448809Y-14265428D01*
X14448809Y-14265428D02*
X14439286Y-14227333D01*
X14439286Y-14227333D02*
X14439286Y-14179714D01*
X14439286Y-14179714D02*
X14448809Y-14141619D01*
X14448809Y-14141619D02*
X14458333Y-14122571D01*
X14458333Y-14122571D02*
X14467857Y-14113048D01*
X14467857Y-14113048D02*
X14486905Y-14103524D01*
X14677381Y-14103524D02*
X14696429Y-14103524D01*
X14696429Y-14103524D02*
X14715476Y-14113048D01*
X14715476Y-14113048D02*
X14725000Y-14122571D01*
X14725000Y-14122571D02*
X14734524Y-14141619D01*
X14734524Y-14141619D02*
X14744048Y-14179714D01*
X14744048Y-14179714D02*
X14744048Y-14227333D01*
X14744048Y-14227333D02*
X14734524Y-14265428D01*
X14734524Y-14265428D02*
X14725000Y-14284476D01*
X14725000Y-14284476D02*
X14715476Y-14294000D01*
X14715476Y-14294000D02*
X14696429Y-14303524D01*
X14696429Y-14303524D02*
X14677381Y-14303524D01*
X14677381Y-14303524D02*
X14658333Y-14294000D01*
X14658333Y-14294000D02*
X14648809Y-14284476D01*
X14648809Y-14284476D02*
X14639286Y-14265428D01*
X14639286Y-14265428D02*
X14629762Y-14227333D01*
X14629762Y-14227333D02*
X14629762Y-14179714D01*
X14629762Y-14179714D02*
X14639286Y-14141619D01*
X14639286Y-14141619D02*
X14648809Y-14122571D01*
X14648809Y-14122571D02*
X14658333Y-14113048D01*
X14658333Y-14113048D02*
X14677381Y-14103524D01*
X14829762Y-14303524D02*
X14829762Y-14170190D01*
X14829762Y-14189238D02*
X14839286Y-14179714D01*
X14839286Y-14179714D02*
X14858333Y-14170190D01*
X14858333Y-14170190D02*
X14886905Y-14170190D01*
X14886905Y-14170190D02*
X14905952Y-14179714D01*
X14905952Y-14179714D02*
X14915476Y-14198762D01*
X14915476Y-14198762D02*
X14915476Y-14303524D01*
X14915476Y-14198762D02*
X14925000Y-14179714D01*
X14925000Y-14179714D02*
X14944048Y-14170190D01*
X14944048Y-14170190D02*
X14972619Y-14170190D01*
X14972619Y-14170190D02*
X14991667Y-14179714D01*
X14991667Y-14179714D02*
X15001190Y-14198762D01*
X15001190Y-14198762D02*
X15001190Y-14303524D01*
X15096429Y-14303524D02*
X15096429Y-14170190D01*
X15096429Y-14189238D02*
X15105952Y-14179714D01*
X15105952Y-14179714D02*
X15125000Y-14170190D01*
X15125000Y-14170190D02*
X15153571Y-14170190D01*
X15153571Y-14170190D02*
X15172619Y-14179714D01*
X15172619Y-14179714D02*
X15182143Y-14198762D01*
X15182143Y-14198762D02*
X15182143Y-14303524D01*
X15182143Y-14198762D02*
X15191667Y-14179714D01*
X15191667Y-14179714D02*
X15210714Y-14170190D01*
X15210714Y-14170190D02*
X15239286Y-14170190D01*
X15239286Y-14170190D02*
X15258333Y-14179714D01*
X15258333Y-14179714D02*
X15267857Y-14198762D01*
X15267857Y-14198762D02*
X15267857Y-14303524D01*
X15658333Y-14094000D02*
X15486905Y-14351143D01*
X15915476Y-14103524D02*
X15934524Y-14103524D01*
X15934524Y-14103524D02*
X15953572Y-14113048D01*
X15953572Y-14113048D02*
X15963095Y-14122571D01*
X15963095Y-14122571D02*
X15972619Y-14141619D01*
X15972619Y-14141619D02*
X15982143Y-14179714D01*
X15982143Y-14179714D02*
X15982143Y-14227333D01*
X15982143Y-14227333D02*
X15972619Y-14265428D01*
X15972619Y-14265428D02*
X15963095Y-14284476D01*
X15963095Y-14284476D02*
X15953572Y-14294000D01*
X15953572Y-14294000D02*
X15934524Y-14303524D01*
X15934524Y-14303524D02*
X15915476Y-14303524D01*
X15915476Y-14303524D02*
X15896429Y-14294000D01*
X15896429Y-14294000D02*
X15886905Y-14284476D01*
X15886905Y-14284476D02*
X15877381Y-14265428D01*
X15877381Y-14265428D02*
X15867857Y-14227333D01*
X15867857Y-14227333D02*
X15867857Y-14179714D01*
X15867857Y-14179714D02*
X15877381Y-14141619D01*
X15877381Y-14141619D02*
X15886905Y-14122571D01*
X15886905Y-14122571D02*
X15896429Y-14113048D01*
X15896429Y-14113048D02*
X15915476Y-14103524D01*
X16067857Y-14284476D02*
X16077381Y-14294000D01*
X16077381Y-14294000D02*
X16067857Y-14303524D01*
X16067857Y-14303524D02*
X16058333Y-14294000D01*
X16058333Y-14294000D02*
X16067857Y-14284476D01*
X16067857Y-14284476D02*
X16067857Y-14303524D01*
X16201191Y-14103524D02*
X16220238Y-14103524D01*
X16220238Y-14103524D02*
X16239286Y-14113048D01*
X16239286Y-14113048D02*
X16248810Y-14122571D01*
X16248810Y-14122571D02*
X16258333Y-14141619D01*
X16258333Y-14141619D02*
X16267857Y-14179714D01*
X16267857Y-14179714D02*
X16267857Y-14227333D01*
X16267857Y-14227333D02*
X16258333Y-14265428D01*
X16258333Y-14265428D02*
X16248810Y-14284476D01*
X16248810Y-14284476D02*
X16239286Y-14294000D01*
X16239286Y-14294000D02*
X16220238Y-14303524D01*
X16220238Y-14303524D02*
X16201191Y-14303524D01*
X16201191Y-14303524D02*
X16182143Y-14294000D01*
X16182143Y-14294000D02*
X16172619Y-14284476D01*
X16172619Y-14284476D02*
X16163095Y-14265428D01*
X16163095Y-14265428D02*
X16153572Y-14227333D01*
X16153572Y-14227333D02*
X16153572Y-14179714D01*
X16153572Y-14179714D02*
X16163095Y-14141619D01*
X16163095Y-14141619D02*
X16172619Y-14122571D01*
X16172619Y-14122571D02*
X16182143Y-14113048D01*
X16182143Y-14113048D02*
X16201191Y-14103524D01*
X16458333Y-14303524D02*
X16344048Y-14303524D01*
X16401191Y-14303524D02*
X16401191Y-14103524D01*
X16401191Y-14103524D02*
X16382143Y-14132095D01*
X16382143Y-14132095D02*
X16363095Y-14151143D01*
X16363095Y-14151143D02*
X16344048Y-14160667D01*
X16639286Y-14103524D02*
X16544048Y-14103524D01*
X16544048Y-14103524D02*
X16534524Y-14198762D01*
X16534524Y-14198762D02*
X16544048Y-14189238D01*
X16544048Y-14189238D02*
X16563095Y-14179714D01*
X16563095Y-14179714D02*
X16610714Y-14179714D01*
X16610714Y-14179714D02*
X16629762Y-14189238D01*
X16629762Y-14189238D02*
X16639286Y-14198762D01*
X16639286Y-14198762D02*
X16648810Y-14217809D01*
X16648810Y-14217809D02*
X16648810Y-14265428D01*
X16648810Y-14265428D02*
X16639286Y-14284476D01*
X16639286Y-14284476D02*
X16629762Y-14294000D01*
X16629762Y-14294000D02*
X16610714Y-14303524D01*
X16610714Y-14303524D02*
X16563095Y-14303524D01*
X16563095Y-14303524D02*
X16544048Y-14294000D01*
X16544048Y-14294000D02*
X16534524Y-14284476D01*
X16715476Y-14103524D02*
X16848810Y-14103524D01*
X16848810Y-14103524D02*
X16763095Y-14303524D01*
X16915476Y-14103524D02*
X16915476Y-14141619D01*
X16991667Y-14103524D02*
X16991667Y-14141619D01*
X17286905Y-14379714D02*
X17277381Y-14370190D01*
X17277381Y-14370190D02*
X17258334Y-14341619D01*
X17258334Y-14341619D02*
X17248810Y-14322571D01*
X17248810Y-14322571D02*
X17239286Y-14294000D01*
X17239286Y-14294000D02*
X17229762Y-14246381D01*
X17229762Y-14246381D02*
X17229762Y-14208286D01*
X17229762Y-14208286D02*
X17239286Y-14160667D01*
X17239286Y-14160667D02*
X17248810Y-14132095D01*
X17248810Y-14132095D02*
X17258334Y-14113048D01*
X17258334Y-14113048D02*
X17277381Y-14084476D01*
X17277381Y-14084476D02*
X17286905Y-14074952D01*
X17467857Y-14303524D02*
X17353572Y-14303524D01*
X17410715Y-14303524D02*
X17410715Y-14103524D01*
X17410715Y-14103524D02*
X17391667Y-14132095D01*
X17391667Y-14132095D02*
X17372619Y-14151143D01*
X17372619Y-14151143D02*
X17353572Y-14160667D01*
X17639286Y-14170190D02*
X17639286Y-14303524D01*
X17591667Y-14094000D02*
X17544048Y-14236857D01*
X17544048Y-14236857D02*
X17667857Y-14236857D01*
X17896429Y-14303524D02*
X17896429Y-14103524D01*
X17982143Y-14303524D02*
X17982143Y-14198762D01*
X17982143Y-14198762D02*
X17972619Y-14179714D01*
X17972619Y-14179714D02*
X17953572Y-14170190D01*
X17953572Y-14170190D02*
X17925000Y-14170190D01*
X17925000Y-14170190D02*
X17905953Y-14179714D01*
X17905953Y-14179714D02*
X17896429Y-14189238D01*
X18105953Y-14303524D02*
X18086905Y-14294000D01*
X18086905Y-14294000D02*
X18077381Y-14284476D01*
X18077381Y-14284476D02*
X18067858Y-14265428D01*
X18067858Y-14265428D02*
X18067858Y-14208286D01*
X18067858Y-14208286D02*
X18077381Y-14189238D01*
X18077381Y-14189238D02*
X18086905Y-14179714D01*
X18086905Y-14179714D02*
X18105953Y-14170190D01*
X18105953Y-14170190D02*
X18134524Y-14170190D01*
X18134524Y-14170190D02*
X18153572Y-14179714D01*
X18153572Y-14179714D02*
X18163096Y-14189238D01*
X18163096Y-14189238D02*
X18172619Y-14208286D01*
X18172619Y-14208286D02*
X18172619Y-14265428D01*
X18172619Y-14265428D02*
X18163096Y-14284476D01*
X18163096Y-14284476D02*
X18153572Y-14294000D01*
X18153572Y-14294000D02*
X18134524Y-14303524D01*
X18134524Y-14303524D02*
X18105953Y-14303524D01*
X18286905Y-14303524D02*
X18267858Y-14294000D01*
X18267858Y-14294000D02*
X18258334Y-14274952D01*
X18258334Y-14274952D02*
X18258334Y-14103524D01*
X18439286Y-14294000D02*
X18420239Y-14303524D01*
X18420239Y-14303524D02*
X18382143Y-14303524D01*
X18382143Y-14303524D02*
X18363096Y-14294000D01*
X18363096Y-14294000D02*
X18353572Y-14274952D01*
X18353572Y-14274952D02*
X18353572Y-14198762D01*
X18353572Y-14198762D02*
X18363096Y-14179714D01*
X18363096Y-14179714D02*
X18382143Y-14170190D01*
X18382143Y-14170190D02*
X18420239Y-14170190D01*
X18420239Y-14170190D02*
X18439286Y-14179714D01*
X18439286Y-14179714D02*
X18448810Y-14198762D01*
X18448810Y-14198762D02*
X18448810Y-14217809D01*
X18448810Y-14217809D02*
X18353572Y-14236857D01*
X18525000Y-14294000D02*
X18544048Y-14303524D01*
X18544048Y-14303524D02*
X18582143Y-14303524D01*
X18582143Y-14303524D02*
X18601191Y-14294000D01*
X18601191Y-14294000D02*
X18610715Y-14274952D01*
X18610715Y-14274952D02*
X18610715Y-14265428D01*
X18610715Y-14265428D02*
X18601191Y-14246381D01*
X18601191Y-14246381D02*
X18582143Y-14236857D01*
X18582143Y-14236857D02*
X18553572Y-14236857D01*
X18553572Y-14236857D02*
X18534524Y-14227333D01*
X18534524Y-14227333D02*
X18525000Y-14208286D01*
X18525000Y-14208286D02*
X18525000Y-14198762D01*
X18525000Y-14198762D02*
X18534524Y-14179714D01*
X18534524Y-14179714D02*
X18553572Y-14170190D01*
X18553572Y-14170190D02*
X18582143Y-14170190D01*
X18582143Y-14170190D02*
X18601191Y-14179714D01*
X18677381Y-14379714D02*
X18686905Y-14370190D01*
X18686905Y-14370190D02*
X18705953Y-14341619D01*
X18705953Y-14341619D02*
X18715477Y-14322571D01*
X18715477Y-14322571D02*
X18725000Y-14294000D01*
X18725000Y-14294000D02*
X18734524Y-14246381D01*
X18734524Y-14246381D02*
X18734524Y-14208286D01*
X18734524Y-14208286D02*
X18725000Y-14160667D01*
X18725000Y-14160667D02*
X18715477Y-14132095D01*
X18715477Y-14132095D02*
X18705953Y-14113048D01*
X18705953Y-14113048D02*
X18686905Y-14084476D01*
X18686905Y-14084476D02*
X18677381Y-14074952D01*
D14*
X13695000Y-14445000D02*
X13695000Y-14505000D01*
X13665000Y-14475000D02*
X13725000Y-14475000D01*
D11*
X14010714Y-14367524D02*
X14029762Y-14367524D01*
X14029762Y-14367524D02*
X14048809Y-14377048D01*
X14048809Y-14377048D02*
X14058333Y-14386571D01*
X14058333Y-14386571D02*
X14067857Y-14405619D01*
X14067857Y-14405619D02*
X14077381Y-14443714D01*
X14077381Y-14443714D02*
X14077381Y-14491333D01*
X14077381Y-14491333D02*
X14067857Y-14529428D01*
X14067857Y-14529428D02*
X14058333Y-14548476D01*
X14058333Y-14548476D02*
X14048809Y-14558000D01*
X14048809Y-14558000D02*
X14029762Y-14567524D01*
X14029762Y-14567524D02*
X14010714Y-14567524D01*
X14010714Y-14567524D02*
X13991667Y-14558000D01*
X13991667Y-14558000D02*
X13982143Y-14548476D01*
X13982143Y-14548476D02*
X13972619Y-14529428D01*
X13972619Y-14529428D02*
X13963095Y-14491333D01*
X13963095Y-14491333D02*
X13963095Y-14443714D01*
X13963095Y-14443714D02*
X13972619Y-14405619D01*
X13972619Y-14405619D02*
X13982143Y-14386571D01*
X13982143Y-14386571D02*
X13991667Y-14377048D01*
X13991667Y-14377048D02*
X14010714Y-14367524D01*
X14163095Y-14548476D02*
X14172619Y-14558000D01*
X14172619Y-14558000D02*
X14163095Y-14567524D01*
X14163095Y-14567524D02*
X14153571Y-14558000D01*
X14153571Y-14558000D02*
X14163095Y-14548476D01*
X14163095Y-14548476D02*
X14163095Y-14567524D01*
X14344048Y-14367524D02*
X14305952Y-14367524D01*
X14305952Y-14367524D02*
X14286905Y-14377048D01*
X14286905Y-14377048D02*
X14277381Y-14386571D01*
X14277381Y-14386571D02*
X14258333Y-14415143D01*
X14258333Y-14415143D02*
X14248809Y-14453238D01*
X14248809Y-14453238D02*
X14248809Y-14529428D01*
X14248809Y-14529428D02*
X14258333Y-14548476D01*
X14258333Y-14548476D02*
X14267857Y-14558000D01*
X14267857Y-14558000D02*
X14286905Y-14567524D01*
X14286905Y-14567524D02*
X14325000Y-14567524D01*
X14325000Y-14567524D02*
X14344048Y-14558000D01*
X14344048Y-14558000D02*
X14353571Y-14548476D01*
X14353571Y-14548476D02*
X14363095Y-14529428D01*
X14363095Y-14529428D02*
X14363095Y-14481809D01*
X14363095Y-14481809D02*
X14353571Y-14462762D01*
X14353571Y-14462762D02*
X14344048Y-14453238D01*
X14344048Y-14453238D02*
X14325000Y-14443714D01*
X14325000Y-14443714D02*
X14286905Y-14443714D01*
X14286905Y-14443714D02*
X14267857Y-14453238D01*
X14267857Y-14453238D02*
X14258333Y-14462762D01*
X14258333Y-14462762D02*
X14248809Y-14481809D01*
X14486905Y-14367524D02*
X14505952Y-14367524D01*
X14505952Y-14367524D02*
X14525000Y-14377048D01*
X14525000Y-14377048D02*
X14534524Y-14386571D01*
X14534524Y-14386571D02*
X14544048Y-14405619D01*
X14544048Y-14405619D02*
X14553571Y-14443714D01*
X14553571Y-14443714D02*
X14553571Y-14491333D01*
X14553571Y-14491333D02*
X14544048Y-14529428D01*
X14544048Y-14529428D02*
X14534524Y-14548476D01*
X14534524Y-14548476D02*
X14525000Y-14558000D01*
X14525000Y-14558000D02*
X14505952Y-14567524D01*
X14505952Y-14567524D02*
X14486905Y-14567524D01*
X14486905Y-14567524D02*
X14467857Y-14558000D01*
X14467857Y-14558000D02*
X14458333Y-14548476D01*
X14458333Y-14548476D02*
X14448809Y-14529428D01*
X14448809Y-14529428D02*
X14439286Y-14491333D01*
X14439286Y-14491333D02*
X14439286Y-14443714D01*
X14439286Y-14443714D02*
X14448809Y-14405619D01*
X14448809Y-14405619D02*
X14458333Y-14386571D01*
X14458333Y-14386571D02*
X14467857Y-14377048D01*
X14467857Y-14377048D02*
X14486905Y-14367524D01*
X14677381Y-14367524D02*
X14696429Y-14367524D01*
X14696429Y-14367524D02*
X14715476Y-14377048D01*
X14715476Y-14377048D02*
X14725000Y-14386571D01*
X14725000Y-14386571D02*
X14734524Y-14405619D01*
X14734524Y-14405619D02*
X14744048Y-14443714D01*
X14744048Y-14443714D02*
X14744048Y-14491333D01*
X14744048Y-14491333D02*
X14734524Y-14529428D01*
X14734524Y-14529428D02*
X14725000Y-14548476D01*
X14725000Y-14548476D02*
X14715476Y-14558000D01*
X14715476Y-14558000D02*
X14696429Y-14567524D01*
X14696429Y-14567524D02*
X14677381Y-14567524D01*
X14677381Y-14567524D02*
X14658333Y-14558000D01*
X14658333Y-14558000D02*
X14648809Y-14548476D01*
X14648809Y-14548476D02*
X14639286Y-14529428D01*
X14639286Y-14529428D02*
X14629762Y-14491333D01*
X14629762Y-14491333D02*
X14629762Y-14443714D01*
X14629762Y-14443714D02*
X14639286Y-14405619D01*
X14639286Y-14405619D02*
X14648809Y-14386571D01*
X14648809Y-14386571D02*
X14658333Y-14377048D01*
X14658333Y-14377048D02*
X14677381Y-14367524D01*
X14829762Y-14567524D02*
X14829762Y-14434190D01*
X14829762Y-14453238D02*
X14839286Y-14443714D01*
X14839286Y-14443714D02*
X14858333Y-14434190D01*
X14858333Y-14434190D02*
X14886905Y-14434190D01*
X14886905Y-14434190D02*
X14905952Y-14443714D01*
X14905952Y-14443714D02*
X14915476Y-14462762D01*
X14915476Y-14462762D02*
X14915476Y-14567524D01*
X14915476Y-14462762D02*
X14925000Y-14443714D01*
X14925000Y-14443714D02*
X14944048Y-14434190D01*
X14944048Y-14434190D02*
X14972619Y-14434190D01*
X14972619Y-14434190D02*
X14991667Y-14443714D01*
X14991667Y-14443714D02*
X15001190Y-14462762D01*
X15001190Y-14462762D02*
X15001190Y-14567524D01*
X15096429Y-14567524D02*
X15096429Y-14434190D01*
X15096429Y-14453238D02*
X15105952Y-14443714D01*
X15105952Y-14443714D02*
X15125000Y-14434190D01*
X15125000Y-14434190D02*
X15153571Y-14434190D01*
X15153571Y-14434190D02*
X15172619Y-14443714D01*
X15172619Y-14443714D02*
X15182143Y-14462762D01*
X15182143Y-14462762D02*
X15182143Y-14567524D01*
X15182143Y-14462762D02*
X15191667Y-14443714D01*
X15191667Y-14443714D02*
X15210714Y-14434190D01*
X15210714Y-14434190D02*
X15239286Y-14434190D01*
X15239286Y-14434190D02*
X15258333Y-14443714D01*
X15258333Y-14443714D02*
X15267857Y-14462762D01*
X15267857Y-14462762D02*
X15267857Y-14567524D01*
X15658333Y-14358000D02*
X15486905Y-14615143D01*
X15915476Y-14367524D02*
X15934524Y-14367524D01*
X15934524Y-14367524D02*
X15953572Y-14377048D01*
X15953572Y-14377048D02*
X15963095Y-14386571D01*
X15963095Y-14386571D02*
X15972619Y-14405619D01*
X15972619Y-14405619D02*
X15982143Y-14443714D01*
X15982143Y-14443714D02*
X15982143Y-14491333D01*
X15982143Y-14491333D02*
X15972619Y-14529428D01*
X15972619Y-14529428D02*
X15963095Y-14548476D01*
X15963095Y-14548476D02*
X15953572Y-14558000D01*
X15953572Y-14558000D02*
X15934524Y-14567524D01*
X15934524Y-14567524D02*
X15915476Y-14567524D01*
X15915476Y-14567524D02*
X15896429Y-14558000D01*
X15896429Y-14558000D02*
X15886905Y-14548476D01*
X15886905Y-14548476D02*
X15877381Y-14529428D01*
X15877381Y-14529428D02*
X15867857Y-14491333D01*
X15867857Y-14491333D02*
X15867857Y-14443714D01*
X15867857Y-14443714D02*
X15877381Y-14405619D01*
X15877381Y-14405619D02*
X15886905Y-14386571D01*
X15886905Y-14386571D02*
X15896429Y-14377048D01*
X15896429Y-14377048D02*
X15915476Y-14367524D01*
X16067857Y-14548476D02*
X16077381Y-14558000D01*
X16077381Y-14558000D02*
X16067857Y-14567524D01*
X16067857Y-14567524D02*
X16058333Y-14558000D01*
X16058333Y-14558000D02*
X16067857Y-14548476D01*
X16067857Y-14548476D02*
X16067857Y-14567524D01*
X16201191Y-14367524D02*
X16220238Y-14367524D01*
X16220238Y-14367524D02*
X16239286Y-14377048D01*
X16239286Y-14377048D02*
X16248810Y-14386571D01*
X16248810Y-14386571D02*
X16258333Y-14405619D01*
X16258333Y-14405619D02*
X16267857Y-14443714D01*
X16267857Y-14443714D02*
X16267857Y-14491333D01*
X16267857Y-14491333D02*
X16258333Y-14529428D01*
X16258333Y-14529428D02*
X16248810Y-14548476D01*
X16248810Y-14548476D02*
X16239286Y-14558000D01*
X16239286Y-14558000D02*
X16220238Y-14567524D01*
X16220238Y-14567524D02*
X16201191Y-14567524D01*
X16201191Y-14567524D02*
X16182143Y-14558000D01*
X16182143Y-14558000D02*
X16172619Y-14548476D01*
X16172619Y-14548476D02*
X16163095Y-14529428D01*
X16163095Y-14529428D02*
X16153572Y-14491333D01*
X16153572Y-14491333D02*
X16153572Y-14443714D01*
X16153572Y-14443714D02*
X16163095Y-14405619D01*
X16163095Y-14405619D02*
X16172619Y-14386571D01*
X16172619Y-14386571D02*
X16182143Y-14377048D01*
X16182143Y-14377048D02*
X16201191Y-14367524D01*
X16344048Y-14386571D02*
X16353572Y-14377048D01*
X16353572Y-14377048D02*
X16372619Y-14367524D01*
X16372619Y-14367524D02*
X16420238Y-14367524D01*
X16420238Y-14367524D02*
X16439286Y-14377048D01*
X16439286Y-14377048D02*
X16448810Y-14386571D01*
X16448810Y-14386571D02*
X16458333Y-14405619D01*
X16458333Y-14405619D02*
X16458333Y-14424667D01*
X16458333Y-14424667D02*
X16448810Y-14453238D01*
X16448810Y-14453238D02*
X16334524Y-14567524D01*
X16334524Y-14567524D02*
X16458333Y-14567524D01*
X16525000Y-14367524D02*
X16648810Y-14367524D01*
X16648810Y-14367524D02*
X16582143Y-14443714D01*
X16582143Y-14443714D02*
X16610714Y-14443714D01*
X16610714Y-14443714D02*
X16629762Y-14453238D01*
X16629762Y-14453238D02*
X16639286Y-14462762D01*
X16639286Y-14462762D02*
X16648810Y-14481809D01*
X16648810Y-14481809D02*
X16648810Y-14529428D01*
X16648810Y-14529428D02*
X16639286Y-14548476D01*
X16639286Y-14548476D02*
X16629762Y-14558000D01*
X16629762Y-14558000D02*
X16610714Y-14567524D01*
X16610714Y-14567524D02*
X16553572Y-14567524D01*
X16553572Y-14567524D02*
X16534524Y-14558000D01*
X16534524Y-14558000D02*
X16525000Y-14548476D01*
X16820238Y-14367524D02*
X16782143Y-14367524D01*
X16782143Y-14367524D02*
X16763095Y-14377048D01*
X16763095Y-14377048D02*
X16753572Y-14386571D01*
X16753572Y-14386571D02*
X16734524Y-14415143D01*
X16734524Y-14415143D02*
X16725000Y-14453238D01*
X16725000Y-14453238D02*
X16725000Y-14529428D01*
X16725000Y-14529428D02*
X16734524Y-14548476D01*
X16734524Y-14548476D02*
X16744048Y-14558000D01*
X16744048Y-14558000D02*
X16763095Y-14567524D01*
X16763095Y-14567524D02*
X16801191Y-14567524D01*
X16801191Y-14567524D02*
X16820238Y-14558000D01*
X16820238Y-14558000D02*
X16829762Y-14548476D01*
X16829762Y-14548476D02*
X16839286Y-14529428D01*
X16839286Y-14529428D02*
X16839286Y-14481809D01*
X16839286Y-14481809D02*
X16829762Y-14462762D01*
X16829762Y-14462762D02*
X16820238Y-14453238D01*
X16820238Y-14453238D02*
X16801191Y-14443714D01*
X16801191Y-14443714D02*
X16763095Y-14443714D01*
X16763095Y-14443714D02*
X16744048Y-14453238D01*
X16744048Y-14453238D02*
X16734524Y-14462762D01*
X16734524Y-14462762D02*
X16725000Y-14481809D01*
X16915476Y-14367524D02*
X16915476Y-14405619D01*
X16991667Y-14367524D02*
X16991667Y-14405619D01*
X17286905Y-14643714D02*
X17277381Y-14634190D01*
X17277381Y-14634190D02*
X17258334Y-14605619D01*
X17258334Y-14605619D02*
X17248810Y-14586571D01*
X17248810Y-14586571D02*
X17239286Y-14558000D01*
X17239286Y-14558000D02*
X17229762Y-14510381D01*
X17229762Y-14510381D02*
X17229762Y-14472286D01*
X17229762Y-14472286D02*
X17239286Y-14424667D01*
X17239286Y-14424667D02*
X17248810Y-14396095D01*
X17248810Y-14396095D02*
X17258334Y-14377048D01*
X17258334Y-14377048D02*
X17277381Y-14348476D01*
X17277381Y-14348476D02*
X17286905Y-14338952D01*
X17401191Y-14367524D02*
X17420238Y-14367524D01*
X17420238Y-14367524D02*
X17439286Y-14377048D01*
X17439286Y-14377048D02*
X17448810Y-14386571D01*
X17448810Y-14386571D02*
X17458334Y-14405619D01*
X17458334Y-14405619D02*
X17467857Y-14443714D01*
X17467857Y-14443714D02*
X17467857Y-14491333D01*
X17467857Y-14491333D02*
X17458334Y-14529428D01*
X17458334Y-14529428D02*
X17448810Y-14548476D01*
X17448810Y-14548476D02*
X17439286Y-14558000D01*
X17439286Y-14558000D02*
X17420238Y-14567524D01*
X17420238Y-14567524D02*
X17401191Y-14567524D01*
X17401191Y-14567524D02*
X17382143Y-14558000D01*
X17382143Y-14558000D02*
X17372619Y-14548476D01*
X17372619Y-14548476D02*
X17363096Y-14529428D01*
X17363096Y-14529428D02*
X17353572Y-14491333D01*
X17353572Y-14491333D02*
X17353572Y-14443714D01*
X17353572Y-14443714D02*
X17363096Y-14405619D01*
X17363096Y-14405619D02*
X17372619Y-14386571D01*
X17372619Y-14386571D02*
X17382143Y-14377048D01*
X17382143Y-14377048D02*
X17401191Y-14367524D01*
X17705953Y-14567524D02*
X17705953Y-14367524D01*
X17791667Y-14567524D02*
X17791667Y-14462762D01*
X17791667Y-14462762D02*
X17782143Y-14443714D01*
X17782143Y-14443714D02*
X17763096Y-14434190D01*
X17763096Y-14434190D02*
X17734524Y-14434190D01*
X17734524Y-14434190D02*
X17715477Y-14443714D01*
X17715477Y-14443714D02*
X17705953Y-14453238D01*
X17915477Y-14567524D02*
X17896429Y-14558000D01*
X17896429Y-14558000D02*
X17886905Y-14548476D01*
X17886905Y-14548476D02*
X17877381Y-14529428D01*
X17877381Y-14529428D02*
X17877381Y-14472286D01*
X17877381Y-14472286D02*
X17886905Y-14453238D01*
X17886905Y-14453238D02*
X17896429Y-14443714D01*
X17896429Y-14443714D02*
X17915477Y-14434190D01*
X17915477Y-14434190D02*
X17944048Y-14434190D01*
X17944048Y-14434190D02*
X17963096Y-14443714D01*
X17963096Y-14443714D02*
X17972619Y-14453238D01*
X17972619Y-14453238D02*
X17982143Y-14472286D01*
X17982143Y-14472286D02*
X17982143Y-14529428D01*
X17982143Y-14529428D02*
X17972619Y-14548476D01*
X17972619Y-14548476D02*
X17963096Y-14558000D01*
X17963096Y-14558000D02*
X17944048Y-14567524D01*
X17944048Y-14567524D02*
X17915477Y-14567524D01*
X18096429Y-14567524D02*
X18077381Y-14558000D01*
X18077381Y-14558000D02*
X18067858Y-14538952D01*
X18067858Y-14538952D02*
X18067858Y-14367524D01*
X18248810Y-14558000D02*
X18229762Y-14567524D01*
X18229762Y-14567524D02*
X18191667Y-14567524D01*
X18191667Y-14567524D02*
X18172619Y-14558000D01*
X18172619Y-14558000D02*
X18163096Y-14538952D01*
X18163096Y-14538952D02*
X18163096Y-14462762D01*
X18163096Y-14462762D02*
X18172619Y-14443714D01*
X18172619Y-14443714D02*
X18191667Y-14434190D01*
X18191667Y-14434190D02*
X18229762Y-14434190D01*
X18229762Y-14434190D02*
X18248810Y-14443714D01*
X18248810Y-14443714D02*
X18258334Y-14462762D01*
X18258334Y-14462762D02*
X18258334Y-14481809D01*
X18258334Y-14481809D02*
X18163096Y-14500857D01*
X18334524Y-14558000D02*
X18353572Y-14567524D01*
X18353572Y-14567524D02*
X18391667Y-14567524D01*
X18391667Y-14567524D02*
X18410715Y-14558000D01*
X18410715Y-14558000D02*
X18420239Y-14538952D01*
X18420239Y-14538952D02*
X18420239Y-14529428D01*
X18420239Y-14529428D02*
X18410715Y-14510381D01*
X18410715Y-14510381D02*
X18391667Y-14500857D01*
X18391667Y-14500857D02*
X18363096Y-14500857D01*
X18363096Y-14500857D02*
X18344048Y-14491333D01*
X18344048Y-14491333D02*
X18334524Y-14472286D01*
X18334524Y-14472286D02*
X18334524Y-14462762D01*
X18334524Y-14462762D02*
X18344048Y-14443714D01*
X18344048Y-14443714D02*
X18363096Y-14434190D01*
X18363096Y-14434190D02*
X18391667Y-14434190D01*
X18391667Y-14434190D02*
X18410715Y-14443714D01*
X18658334Y-14491333D02*
X18810715Y-14491333D01*
X18734524Y-14567524D02*
X18734524Y-14415143D01*
X19144048Y-14434190D02*
X19144048Y-14567524D01*
X19096429Y-14358000D02*
X19048810Y-14500857D01*
X19048810Y-14500857D02*
X19172620Y-14500857D01*
X19391667Y-14558000D02*
X19410715Y-14567524D01*
X19410715Y-14567524D02*
X19448810Y-14567524D01*
X19448810Y-14567524D02*
X19467858Y-14558000D01*
X19467858Y-14558000D02*
X19477382Y-14538952D01*
X19477382Y-14538952D02*
X19477382Y-14529428D01*
X19477382Y-14529428D02*
X19467858Y-14510381D01*
X19467858Y-14510381D02*
X19448810Y-14500857D01*
X19448810Y-14500857D02*
X19420239Y-14500857D01*
X19420239Y-14500857D02*
X19401191Y-14491333D01*
X19401191Y-14491333D02*
X19391667Y-14472286D01*
X19391667Y-14472286D02*
X19391667Y-14462762D01*
X19391667Y-14462762D02*
X19401191Y-14443714D01*
X19401191Y-14443714D02*
X19420239Y-14434190D01*
X19420239Y-14434190D02*
X19448810Y-14434190D01*
X19448810Y-14434190D02*
X19467858Y-14443714D01*
X19591667Y-14567524D02*
X19572620Y-14558000D01*
X19572620Y-14558000D02*
X19563096Y-14538952D01*
X19563096Y-14538952D02*
X19563096Y-14367524D01*
X19696429Y-14567524D02*
X19677382Y-14558000D01*
X19677382Y-14558000D02*
X19667858Y-14548476D01*
X19667858Y-14548476D02*
X19658334Y-14529428D01*
X19658334Y-14529428D02*
X19658334Y-14472286D01*
X19658334Y-14472286D02*
X19667858Y-14453238D01*
X19667858Y-14453238D02*
X19677382Y-14443714D01*
X19677382Y-14443714D02*
X19696429Y-14434190D01*
X19696429Y-14434190D02*
X19725001Y-14434190D01*
X19725001Y-14434190D02*
X19744048Y-14443714D01*
X19744048Y-14443714D02*
X19753572Y-14453238D01*
X19753572Y-14453238D02*
X19763096Y-14472286D01*
X19763096Y-14472286D02*
X19763096Y-14529428D01*
X19763096Y-14529428D02*
X19753572Y-14548476D01*
X19753572Y-14548476D02*
X19744048Y-14558000D01*
X19744048Y-14558000D02*
X19725001Y-14567524D01*
X19725001Y-14567524D02*
X19696429Y-14567524D01*
X19820239Y-14434190D02*
X19896429Y-14434190D01*
X19848810Y-14367524D02*
X19848810Y-14538952D01*
X19848810Y-14538952D02*
X19858334Y-14558000D01*
X19858334Y-14558000D02*
X19877382Y-14567524D01*
X19877382Y-14567524D02*
X19896429Y-14567524D01*
X19953572Y-14558000D02*
X19972620Y-14567524D01*
X19972620Y-14567524D02*
X20010715Y-14567524D01*
X20010715Y-14567524D02*
X20029763Y-14558000D01*
X20029763Y-14558000D02*
X20039286Y-14538952D01*
X20039286Y-14538952D02*
X20039286Y-14529428D01*
X20039286Y-14529428D02*
X20029763Y-14510381D01*
X20029763Y-14510381D02*
X20010715Y-14500857D01*
X20010715Y-14500857D02*
X19982143Y-14500857D01*
X19982143Y-14500857D02*
X19963096Y-14491333D01*
X19963096Y-14491333D02*
X19953572Y-14472286D01*
X19953572Y-14472286D02*
X19953572Y-14462762D01*
X19953572Y-14462762D02*
X19963096Y-14443714D01*
X19963096Y-14443714D02*
X19982143Y-14434190D01*
X19982143Y-14434190D02*
X20010715Y-14434190D01*
X20010715Y-14434190D02*
X20029763Y-14443714D01*
X20105953Y-14643714D02*
X20115477Y-14634190D01*
X20115477Y-14634190D02*
X20134524Y-14605619D01*
X20134524Y-14605619D02*
X20144048Y-14586571D01*
X20144048Y-14586571D02*
X20153572Y-14558000D01*
X20153572Y-14558000D02*
X20163096Y-14510381D01*
X20163096Y-14510381D02*
X20163096Y-14472286D01*
X20163096Y-14472286D02*
X20153572Y-14424667D01*
X20153572Y-14424667D02*
X20144048Y-14396095D01*
X20144048Y-14396095D02*
X20134524Y-14377048D01*
X20134524Y-14377048D02*
X20115477Y-14348476D01*
X20115477Y-14348476D02*
X20105953Y-14338952D01*
M02*
