%TF.GenerationSoftware,KiCad,Pcbnew,7.0.1-3b83917a11~172~ubuntu20.04.1*%
%TF.CreationDate,2023-04-27T15:55:01+02:00*%
%TF.ProjectId,radartof-hardware,72616461-7274-46f6-962d-686172647761,1.4*%
%TF.SameCoordinates,Original*%
%TF.FileFunction,Soldermask,Bot*%
%TF.FilePolarity,Negative*%
%FSLAX46Y46*%
G04 Gerber Fmt 4.6, Leading zero omitted, Abs format (unit mm)*
G04 Created by KiCad (PCBNEW 7.0.1-3b83917a11~172~ubuntu20.04.1) date 2023-04-27 15:55:01*
%MOMM*%
%LPD*%
G01*
G04 APERTURE LIST*
G04 Aperture macros list*
%AMRoundRect*
0 Rectangle with rounded corners*
0 $1 Rounding radius*
0 $2 $3 $4 $5 $6 $7 $8 $9 X,Y pos of 4 corners*
0 Add a 4 corners polygon primitive as box body*
4,1,4,$2,$3,$4,$5,$6,$7,$8,$9,$2,$3,0*
0 Add four circle primitives for the rounded corners*
1,1,$1+$1,$2,$3*
1,1,$1+$1,$4,$5*
1,1,$1+$1,$6,$7*
1,1,$1+$1,$8,$9*
0 Add four rect primitives between the rounded corners*
20,1,$1+$1,$2,$3,$4,$5,0*
20,1,$1+$1,$4,$5,$6,$7,0*
20,1,$1+$1,$6,$7,$8,$9,0*
20,1,$1+$1,$8,$9,$2,$3,0*%
%AMFreePoly0*
4,1,19,0.500000,-0.750000,0.000000,-0.750000,0.000000,-0.744911,-0.071157,-0.744911,-0.207708,-0.704816,-0.327430,-0.627875,-0.420627,-0.520320,-0.479746,-0.390866,-0.500000,-0.250000,-0.500000,0.250000,-0.479746,0.390866,-0.420627,0.520320,-0.327430,0.627875,-0.207708,0.704816,-0.071157,0.744911,0.000000,0.744911,0.000000,0.750000,0.500000,0.750000,0.500000,-0.750000,0.500000,-0.750000,
$1*%
%AMFreePoly1*
4,1,19,0.000000,0.744911,0.071157,0.744911,0.207708,0.704816,0.327430,0.627875,0.420627,0.520320,0.479746,0.390866,0.500000,0.250000,0.500000,-0.250000,0.479746,-0.390866,0.420627,-0.520320,0.327430,-0.627875,0.207708,-0.704816,0.071157,-0.744911,0.000000,-0.744911,0.000000,-0.750000,-0.500000,-0.750000,-0.500000,0.750000,0.000000,0.750000,0.000000,0.744911,0.000000,0.744911,
$1*%
G04 Aperture macros list end*
%ADD10C,0.105833*%
%ADD11C,0.200000*%
%ADD12C,0.600000*%
%ADD13O,0.900000X1.900000*%
%ADD14C,3.300000*%
%ADD15RoundRect,0.225000X-0.225000X-0.250000X0.225000X-0.250000X0.225000X0.250000X-0.225000X0.250000X0*%
%ADD16RoundRect,0.140000X-0.170000X0.140000X-0.170000X-0.140000X0.170000X-0.140000X0.170000X0.140000X0*%
%ADD17RoundRect,0.200000X0.200000X0.275000X-0.200000X0.275000X-0.200000X-0.275000X0.200000X-0.275000X0*%
%ADD18RoundRect,0.200000X-0.275000X0.200000X-0.275000X-0.200000X0.275000X-0.200000X0.275000X0.200000X0*%
%ADD19RoundRect,0.225000X0.225000X0.250000X-0.225000X0.250000X-0.225000X-0.250000X0.225000X-0.250000X0*%
%ADD20RoundRect,0.100000X0.100000X-0.637500X0.100000X0.637500X-0.100000X0.637500X-0.100000X-0.637500X0*%
%ADD21RoundRect,0.200000X-0.200000X-0.275000X0.200000X-0.275000X0.200000X0.275000X-0.200000X0.275000X0*%
%ADD22RoundRect,0.150000X0.512500X0.150000X-0.512500X0.150000X-0.512500X-0.150000X0.512500X-0.150000X0*%
%ADD23R,1.400000X0.800000*%
%ADD24R,1.500000X1.500000*%
%ADD25R,1.500000X1.300000*%
%ADD26R,1.500000X0.800000*%
%ADD27R,1.000000X1.450000*%
%ADD28R,1.550000X1.000000*%
%ADD29R,1.750000X0.700000*%
%ADD30RoundRect,0.225000X0.250000X-0.225000X0.250000X0.225000X-0.250000X0.225000X-0.250000X-0.225000X0*%
%ADD31R,0.200000X0.700000*%
%ADD32RoundRect,0.225000X-0.250000X0.225000X-0.250000X-0.225000X0.250000X-0.225000X0.250000X0.225000X0*%
%ADD33RoundRect,0.147500X-0.172500X0.147500X-0.172500X-0.147500X0.172500X-0.147500X0.172500X0.147500X0*%
%ADD34R,3.400000X1.350000*%
%ADD35RoundRect,0.147500X-0.147500X-0.172500X0.147500X-0.172500X0.147500X0.172500X-0.147500X0.172500X0*%
%ADD36FreePoly0,0.000000*%
%ADD37FreePoly1,0.000000*%
%ADD38RoundRect,0.200000X0.275000X-0.200000X0.275000X0.200000X-0.275000X0.200000X-0.275000X-0.200000X0*%
%ADD39C,1.000000*%
G04 APERTURE END LIST*
D10*
X155576221Y-93899572D02*
X155603932Y-93900832D01*
X155631514Y-93902932D01*
X155658967Y-93905872D01*
X155686291Y-93909652D01*
X155713486Y-93914272D01*
X155740552Y-93919732D01*
X155767488Y-93926032D01*
X155793714Y-93932589D01*
X155819681Y-93939856D01*
X155845391Y-93947834D01*
X155870842Y-93956522D01*
X155896034Y-93965920D01*
X155920968Y-93976030D01*
X155945644Y-93986850D01*
X155970061Y-93998380D01*
X155994188Y-94010038D01*
X156017991Y-94022278D01*
X156041472Y-94035100D01*
X156064630Y-94048503D01*
X156087465Y-94062488D01*
X156109976Y-94077054D01*
X156132165Y-94092202D01*
X156154030Y-94107932D01*
X156174958Y-94123661D01*
X156195370Y-94139843D01*
X156215265Y-94156476D01*
X156234644Y-94173562D01*
X156253506Y-94191099D01*
X156271851Y-94209089D01*
X156289679Y-94227530D01*
X156306990Y-94246424D01*
X156319692Y-94224816D01*
X156332991Y-94203919D01*
X156346887Y-94183733D01*
X156361381Y-94164257D01*
X156376472Y-94145492D01*
X156392161Y-94127437D01*
X156408447Y-94110093D01*
X156425331Y-94093460D01*
X156442812Y-94077537D01*
X156460891Y-94062325D01*
X156479568Y-94047823D01*
X156498841Y-94034032D01*
X156518713Y-94020952D01*
X156539181Y-94008582D01*
X156560247Y-93996923D01*
X156581911Y-93985975D01*
X156603890Y-93975462D01*
X156626418Y-93965627D01*
X156649495Y-93956471D01*
X156673120Y-93947993D01*
X156697295Y-93940193D01*
X156722019Y-93933071D01*
X156747292Y-93926628D01*
X156773114Y-93920863D01*
X156799485Y-93915776D01*
X156826405Y-93911367D01*
X156853875Y-93907637D01*
X156881893Y-93904584D01*
X156910460Y-93902211D01*
X156939576Y-93900515D01*
X156969241Y-93899497D01*
X156999456Y-93899158D01*
X157021377Y-93899401D01*
X157043218Y-93900127D01*
X157064978Y-93901338D01*
X157086658Y-93903034D01*
X157108257Y-93905214D01*
X157129775Y-93907878D01*
X157151213Y-93911027D01*
X157172570Y-93914661D01*
X157193846Y-93918779D01*
X157215041Y-93923381D01*
X157236156Y-93928468D01*
X157257191Y-93934039D01*
X157278144Y-93940095D01*
X157299017Y-93946636D01*
X157319809Y-93953661D01*
X157340520Y-93961170D01*
X157361062Y-93969091D01*
X157381345Y-93977352D01*
X157401370Y-93985951D01*
X157421136Y-93994889D01*
X157440644Y-94004167D01*
X157459893Y-94013784D01*
X157478884Y-94023740D01*
X157497616Y-94034035D01*
X157516090Y-94044669D01*
X157534306Y-94055642D01*
X157552263Y-94066954D01*
X157569962Y-94078605D01*
X157587402Y-94090596D01*
X157604584Y-94102925D01*
X157621508Y-94115594D01*
X157638173Y-94128602D01*
X157638173Y-93942566D01*
X158617958Y-93942566D01*
X158618029Y-94508939D01*
X158303838Y-94508939D01*
X158303838Y-95517658D01*
X158622161Y-95517658D01*
X158622161Y-96084031D01*
X157290981Y-96084031D01*
X157290981Y-95517658D01*
X157634111Y-95517658D01*
X157634111Y-94688770D01*
X157621418Y-94673066D01*
X157608660Y-94657991D01*
X157595838Y-94643546D01*
X157582951Y-94629731D01*
X157569999Y-94616545D01*
X157556983Y-94603990D01*
X157543902Y-94592064D01*
X157530757Y-94580768D01*
X157517547Y-94570102D01*
X157504273Y-94560066D01*
X157490934Y-94550659D01*
X157477531Y-94541882D01*
X157464063Y-94533736D01*
X157450530Y-94526219D01*
X157436933Y-94519332D01*
X157423272Y-94513074D01*
X157409351Y-94507333D01*
X157395495Y-94501979D01*
X157381704Y-94497010D01*
X157367978Y-94492429D01*
X157354316Y-94488233D01*
X157340718Y-94484425D01*
X157327186Y-94481003D01*
X157313718Y-94477967D01*
X157300314Y-94475318D01*
X157286975Y-94473055D01*
X157273701Y-94471179D01*
X157260491Y-94469689D01*
X157247347Y-94468586D01*
X157234266Y-94467870D01*
X157221251Y-94467540D01*
X157208300Y-94467597D01*
X157198538Y-94467962D01*
X157188889Y-94468536D01*
X157179353Y-94469320D01*
X157169930Y-94470314D01*
X157160621Y-94471517D01*
X157151424Y-94472931D01*
X157142340Y-94474553D01*
X157133370Y-94476386D01*
X157124512Y-94478428D01*
X157115768Y-94480680D01*
X157107136Y-94483142D01*
X157098617Y-94485814D01*
X157090212Y-94488695D01*
X157081919Y-94491786D01*
X157073739Y-94495086D01*
X157065673Y-94498597D01*
X157057478Y-94502044D01*
X157049428Y-94505670D01*
X157041523Y-94509473D01*
X157033764Y-94513453D01*
X157026150Y-94517612D01*
X157018681Y-94521948D01*
X157011357Y-94526461D01*
X157004179Y-94531153D01*
X156997147Y-94536021D01*
X156990259Y-94541068D01*
X156983517Y-94546292D01*
X156976920Y-94551694D01*
X156970468Y-94557273D01*
X156964162Y-94563030D01*
X156958001Y-94568965D01*
X156951986Y-94575077D01*
X156946125Y-94581359D01*
X156940426Y-94587803D01*
X156934888Y-94594408D01*
X156929511Y-94601175D01*
X156924296Y-94608103D01*
X156919242Y-94615192D01*
X156914349Y-94622443D01*
X156909618Y-94629856D01*
X156905048Y-94637429D01*
X156900639Y-94645165D01*
X156896391Y-94653062D01*
X156892305Y-94661120D01*
X156888381Y-94669340D01*
X156884617Y-94677721D01*
X156881015Y-94686264D01*
X156877575Y-94694968D01*
X156874320Y-94703818D01*
X156871275Y-94712797D01*
X156868440Y-94721905D01*
X156865815Y-94731142D01*
X156863400Y-94740508D01*
X156861195Y-94750004D01*
X156859200Y-94759628D01*
X156857415Y-94769382D01*
X156855840Y-94779265D01*
X156854475Y-94789278D01*
X156853320Y-94799419D01*
X156852375Y-94809690D01*
X156851115Y-94830618D01*
X156850695Y-94852064D01*
X156850695Y-96084025D01*
X155872979Y-96084025D01*
X155872979Y-95517652D01*
X156183034Y-95517652D01*
X156183034Y-94759046D01*
X156183065Y-94752874D01*
X156183159Y-94746767D01*
X156183315Y-94740726D01*
X156183533Y-94734751D01*
X156183814Y-94728841D01*
X156184158Y-94722997D01*
X156184564Y-94717218D01*
X156185033Y-94711506D01*
X156172372Y-94695026D01*
X156159712Y-94679176D01*
X156147051Y-94663955D01*
X156134391Y-94649365D01*
X156121730Y-94635404D01*
X156109069Y-94622073D01*
X156096409Y-94609372D01*
X156083748Y-94597301D01*
X156071087Y-94585859D01*
X156058426Y-94575047D01*
X156045765Y-94564865D01*
X156033105Y-94555313D01*
X156020444Y-94546390D01*
X156007783Y-94538098D01*
X155995122Y-94530435D01*
X155982460Y-94523401D01*
X155969493Y-94516644D01*
X155956429Y-94510322D01*
X155943268Y-94504436D01*
X155930010Y-94498986D01*
X155916656Y-94493972D01*
X155903204Y-94489394D01*
X155889655Y-94485252D01*
X155876010Y-94481546D01*
X155862267Y-94478276D01*
X155848428Y-94475442D01*
X155834492Y-94473044D01*
X155820458Y-94471082D01*
X155806328Y-94469556D01*
X155792101Y-94468466D01*
X155777777Y-94467812D01*
X155763356Y-94467594D01*
X155742718Y-94467998D01*
X155722661Y-94469209D01*
X155703186Y-94471227D01*
X155684291Y-94474054D01*
X155665978Y-94477687D01*
X155648247Y-94482128D01*
X155631097Y-94487376D01*
X155614528Y-94493432D01*
X155598540Y-94500295D01*
X155583134Y-94507966D01*
X155568309Y-94516444D01*
X155554066Y-94525729D01*
X155540403Y-94535822D01*
X155527322Y-94546722D01*
X155514823Y-94558430D01*
X155502904Y-94570945D01*
X155491390Y-94584170D01*
X155480619Y-94598009D01*
X155470591Y-94612462D01*
X155461305Y-94627529D01*
X155452763Y-94643209D01*
X155444963Y-94659503D01*
X155437906Y-94676411D01*
X155431592Y-94693932D01*
X155426020Y-94712067D01*
X155421192Y-94730816D01*
X155417106Y-94750178D01*
X155413763Y-94770154D01*
X155411163Y-94790744D01*
X155409306Y-94811948D01*
X155408192Y-94833765D01*
X155407820Y-94856196D01*
X155407820Y-96084025D01*
X154430107Y-96084025D01*
X154430107Y-95517652D01*
X154733965Y-95517652D01*
X154733965Y-94750776D01*
X154734788Y-94699366D01*
X154737259Y-94649523D01*
X154741377Y-94601247D01*
X154747142Y-94554537D01*
X154754555Y-94509393D01*
X154763614Y-94465815D01*
X154774321Y-94423804D01*
X154786674Y-94383359D01*
X154800676Y-94344481D01*
X154816324Y-94307169D01*
X154833619Y-94271424D01*
X154852562Y-94237245D01*
X154873152Y-94204632D01*
X154895389Y-94173586D01*
X154919273Y-94144106D01*
X154944805Y-94116193D01*
X154971870Y-94089911D01*
X155000356Y-94065324D01*
X155030264Y-94042434D01*
X155061592Y-94021238D01*
X155094342Y-94001738D01*
X155128513Y-93983934D01*
X155164105Y-93967826D01*
X155201118Y-93953413D01*
X155239552Y-93940696D01*
X155279407Y-93929674D01*
X155320683Y-93920348D01*
X155363381Y-93912717D01*
X155407499Y-93906783D01*
X155453039Y-93902543D01*
X155500000Y-93900000D01*
X155548381Y-93899152D01*
X155576221Y-93899572D01*
G36*
X155576221Y-93899572D02*
G01*
X155603932Y-93900832D01*
X155631514Y-93902932D01*
X155658967Y-93905872D01*
X155686291Y-93909652D01*
X155713486Y-93914272D01*
X155740552Y-93919732D01*
X155767488Y-93926032D01*
X155793714Y-93932589D01*
X155819681Y-93939856D01*
X155845391Y-93947834D01*
X155870842Y-93956522D01*
X155896034Y-93965920D01*
X155920968Y-93976030D01*
X155945644Y-93986850D01*
X155970061Y-93998380D01*
X155994188Y-94010038D01*
X156017991Y-94022278D01*
X156041472Y-94035100D01*
X156064630Y-94048503D01*
X156087465Y-94062488D01*
X156109976Y-94077054D01*
X156132165Y-94092202D01*
X156154030Y-94107932D01*
X156174958Y-94123661D01*
X156195370Y-94139843D01*
X156215265Y-94156476D01*
X156234644Y-94173562D01*
X156253506Y-94191099D01*
X156271851Y-94209089D01*
X156289679Y-94227530D01*
X156306990Y-94246424D01*
X156319692Y-94224816D01*
X156332991Y-94203919D01*
X156346887Y-94183733D01*
X156361381Y-94164257D01*
X156376472Y-94145492D01*
X156392161Y-94127437D01*
X156408447Y-94110093D01*
X156425331Y-94093460D01*
X156442812Y-94077537D01*
X156460891Y-94062325D01*
X156479568Y-94047823D01*
X156498841Y-94034032D01*
X156518713Y-94020952D01*
X156539181Y-94008582D01*
X156560247Y-93996923D01*
X156581911Y-93985975D01*
X156603890Y-93975462D01*
X156626418Y-93965627D01*
X156649495Y-93956471D01*
X156673120Y-93947993D01*
X156697295Y-93940193D01*
X156722019Y-93933071D01*
X156747292Y-93926628D01*
X156773114Y-93920863D01*
X156799485Y-93915776D01*
X156826405Y-93911367D01*
X156853875Y-93907637D01*
X156881893Y-93904584D01*
X156910460Y-93902211D01*
X156939576Y-93900515D01*
X156969241Y-93899497D01*
X156999456Y-93899158D01*
X157021377Y-93899401D01*
X157043218Y-93900127D01*
X157064978Y-93901338D01*
X157086658Y-93903034D01*
X157108257Y-93905214D01*
X157129775Y-93907878D01*
X157151213Y-93911027D01*
X157172570Y-93914661D01*
X157193846Y-93918779D01*
X157215041Y-93923381D01*
X157236156Y-93928468D01*
X157257191Y-93934039D01*
X157278144Y-93940095D01*
X157299017Y-93946636D01*
X157319809Y-93953661D01*
X157340520Y-93961170D01*
X157361062Y-93969091D01*
X157381345Y-93977352D01*
X157401370Y-93985951D01*
X157421136Y-93994889D01*
X157440644Y-94004167D01*
X157459893Y-94013784D01*
X157478884Y-94023740D01*
X157497616Y-94034035D01*
X157516090Y-94044669D01*
X157534306Y-94055642D01*
X157552263Y-94066954D01*
X157569962Y-94078605D01*
X157587402Y-94090596D01*
X157604584Y-94102925D01*
X157621508Y-94115594D01*
X157638173Y-94128602D01*
X157638173Y-93942566D01*
X158617958Y-93942566D01*
X158618029Y-94508939D01*
X158303838Y-94508939D01*
X158303838Y-95517658D01*
X158622161Y-95517658D01*
X158622161Y-96084031D01*
X157290981Y-96084031D01*
X157290981Y-95517658D01*
X157634111Y-95517658D01*
X157634111Y-94688770D01*
X157621418Y-94673066D01*
X157608660Y-94657991D01*
X157595838Y-94643546D01*
X157582951Y-94629731D01*
X157569999Y-94616545D01*
X157556983Y-94603990D01*
X157543902Y-94592064D01*
X157530757Y-94580768D01*
X157517547Y-94570102D01*
X157504273Y-94560066D01*
X157490934Y-94550659D01*
X157477531Y-94541882D01*
X157464063Y-94533736D01*
X157450530Y-94526219D01*
X157436933Y-94519332D01*
X157423272Y-94513074D01*
X157409351Y-94507333D01*
X157395495Y-94501979D01*
X157381704Y-94497010D01*
X157367978Y-94492429D01*
X157354316Y-94488233D01*
X157340718Y-94484425D01*
X157327186Y-94481003D01*
X157313718Y-94477967D01*
X157300314Y-94475318D01*
X157286975Y-94473055D01*
X157273701Y-94471179D01*
X157260491Y-94469689D01*
X157247347Y-94468586D01*
X157234266Y-94467870D01*
X157221251Y-94467540D01*
X157208300Y-94467597D01*
X157198538Y-94467962D01*
X157188889Y-94468536D01*
X157179353Y-94469320D01*
X157169930Y-94470314D01*
X157160621Y-94471517D01*
X157151424Y-94472931D01*
X157142340Y-94474553D01*
X157133370Y-94476386D01*
X157124512Y-94478428D01*
X157115768Y-94480680D01*
X157107136Y-94483142D01*
X157098617Y-94485814D01*
X157090212Y-94488695D01*
X157081919Y-94491786D01*
X157073739Y-94495086D01*
X157065673Y-94498597D01*
X157057478Y-94502044D01*
X157049428Y-94505670D01*
X157041523Y-94509473D01*
X157033764Y-94513453D01*
X157026150Y-94517612D01*
X157018681Y-94521948D01*
X157011357Y-94526461D01*
X157004179Y-94531153D01*
X156997147Y-94536021D01*
X156990259Y-94541068D01*
X156983517Y-94546292D01*
X156976920Y-94551694D01*
X156970468Y-94557273D01*
X156964162Y-94563030D01*
X156958001Y-94568965D01*
X156951986Y-94575077D01*
X156946125Y-94581359D01*
X156940426Y-94587803D01*
X156934888Y-94594408D01*
X156929511Y-94601175D01*
X156924296Y-94608103D01*
X156919242Y-94615192D01*
X156914349Y-94622443D01*
X156909618Y-94629856D01*
X156905048Y-94637429D01*
X156900639Y-94645165D01*
X156896391Y-94653062D01*
X156892305Y-94661120D01*
X156888381Y-94669340D01*
X156884617Y-94677721D01*
X156881015Y-94686264D01*
X156877575Y-94694968D01*
X156874320Y-94703818D01*
X156871275Y-94712797D01*
X156868440Y-94721905D01*
X156865815Y-94731142D01*
X156863400Y-94740508D01*
X156861195Y-94750004D01*
X156859200Y-94759628D01*
X156857415Y-94769382D01*
X156855840Y-94779265D01*
X156854475Y-94789278D01*
X156853320Y-94799419D01*
X156852375Y-94809690D01*
X156851115Y-94830618D01*
X156850695Y-94852064D01*
X156850695Y-96084025D01*
X155872979Y-96084025D01*
X155872979Y-95517652D01*
X156183034Y-95517652D01*
X156183034Y-94759046D01*
X156183065Y-94752874D01*
X156183159Y-94746767D01*
X156183315Y-94740726D01*
X156183533Y-94734751D01*
X156183814Y-94728841D01*
X156184158Y-94722997D01*
X156184564Y-94717218D01*
X156185033Y-94711506D01*
X156172372Y-94695026D01*
X156159712Y-94679176D01*
X156147051Y-94663955D01*
X156134391Y-94649365D01*
X156121730Y-94635404D01*
X156109069Y-94622073D01*
X156096409Y-94609372D01*
X156083748Y-94597301D01*
X156071087Y-94585859D01*
X156058426Y-94575047D01*
X156045765Y-94564865D01*
X156033105Y-94555313D01*
X156020444Y-94546390D01*
X156007783Y-94538098D01*
X155995122Y-94530435D01*
X155982460Y-94523401D01*
X155969493Y-94516644D01*
X155956429Y-94510322D01*
X155943268Y-94504436D01*
X155930010Y-94498986D01*
X155916656Y-94493972D01*
X155903204Y-94489394D01*
X155889655Y-94485252D01*
X155876010Y-94481546D01*
X155862267Y-94478276D01*
X155848428Y-94475442D01*
X155834492Y-94473044D01*
X155820458Y-94471082D01*
X155806328Y-94469556D01*
X155792101Y-94468466D01*
X155777777Y-94467812D01*
X155763356Y-94467594D01*
X155742718Y-94467998D01*
X155722661Y-94469209D01*
X155703186Y-94471227D01*
X155684291Y-94474054D01*
X155665978Y-94477687D01*
X155648247Y-94482128D01*
X155631097Y-94487376D01*
X155614528Y-94493432D01*
X155598540Y-94500295D01*
X155583134Y-94507966D01*
X155568309Y-94516444D01*
X155554066Y-94525729D01*
X155540403Y-94535822D01*
X155527322Y-94546722D01*
X155514823Y-94558430D01*
X155502904Y-94570945D01*
X155491390Y-94584170D01*
X155480619Y-94598009D01*
X155470591Y-94612462D01*
X155461305Y-94627529D01*
X155452763Y-94643209D01*
X155444963Y-94659503D01*
X155437906Y-94676411D01*
X155431592Y-94693932D01*
X155426020Y-94712067D01*
X155421192Y-94730816D01*
X155417106Y-94750178D01*
X155413763Y-94770154D01*
X155411163Y-94790744D01*
X155409306Y-94811948D01*
X155408192Y-94833765D01*
X155407820Y-94856196D01*
X155407820Y-96084025D01*
X154430107Y-96084025D01*
X154430107Y-95517652D01*
X154733965Y-95517652D01*
X154733965Y-94750776D01*
X154734788Y-94699366D01*
X154737259Y-94649523D01*
X154741377Y-94601247D01*
X154747142Y-94554537D01*
X154754555Y-94509393D01*
X154763614Y-94465815D01*
X154774321Y-94423804D01*
X154786674Y-94383359D01*
X154800676Y-94344481D01*
X154816324Y-94307169D01*
X154833619Y-94271424D01*
X154852562Y-94237245D01*
X154873152Y-94204632D01*
X154895389Y-94173586D01*
X154919273Y-94144106D01*
X154944805Y-94116193D01*
X154971870Y-94089911D01*
X155000356Y-94065324D01*
X155030264Y-94042434D01*
X155061592Y-94021238D01*
X155094342Y-94001738D01*
X155128513Y-93983934D01*
X155164105Y-93967826D01*
X155201118Y-93953413D01*
X155239552Y-93940696D01*
X155279407Y-93929674D01*
X155320683Y-93920348D01*
X155363381Y-93912717D01*
X155407499Y-93906783D01*
X155453039Y-93902543D01*
X155500000Y-93900000D01*
X155548381Y-93899152D01*
X155576221Y-93899572D01*
G37*
X160911968Y-94814866D02*
X160372469Y-94814866D01*
X160372469Y-94492405D01*
X159956993Y-94492405D01*
X160843758Y-95745035D01*
X160843755Y-96084031D01*
X158950338Y-96084031D01*
X158950338Y-95118720D01*
X159491903Y-95118720D01*
X159491903Y-95530063D01*
X159967327Y-95530063D01*
X159035088Y-94314637D01*
X159035088Y-93942570D01*
X160911968Y-93942570D01*
X160911968Y-94814866D01*
G36*
X160911968Y-94814866D02*
G01*
X160372469Y-94814866D01*
X160372469Y-94492405D01*
X159956993Y-94492405D01*
X160843758Y-95745035D01*
X160843755Y-96084031D01*
X158950338Y-96084031D01*
X158950338Y-95118720D01*
X159491903Y-95118720D01*
X159491903Y-95530063D01*
X159967327Y-95530063D01*
X159035088Y-94314637D01*
X159035088Y-93942570D01*
X160911968Y-93942570D01*
X160911968Y-94814866D01*
G37*
D11*
G36*
X154660885Y-131715000D02*
G01*
X154671006Y-131713946D01*
X154680364Y-131710786D01*
X154688958Y-131705520D01*
X154696789Y-131698147D01*
X154702943Y-131690435D01*
X154708583Y-131682045D01*
X154713709Y-131672977D01*
X154718321Y-131663231D01*
X154720725Y-131657358D01*
X154724457Y-131646886D01*
X154727744Y-131636414D01*
X154730587Y-131625942D01*
X154732987Y-131615471D01*
X154734158Y-131609487D01*
X154735776Y-131599482D01*
X154737139Y-131589193D01*
X154738051Y-131579078D01*
X154738310Y-131571385D01*
X154737964Y-131560979D01*
X154736925Y-131550920D01*
X154735380Y-131542076D01*
X154732188Y-131532268D01*
X154727677Y-131523048D01*
X154722303Y-131513978D01*
X154716636Y-131505460D01*
X154715596Y-131503974D01*
X154252756Y-130831573D01*
X154188031Y-130970792D01*
X154653802Y-130970792D01*
X154663842Y-130970049D01*
X154675691Y-130966748D01*
X154685785Y-130960806D01*
X154694124Y-130952223D01*
X154700707Y-130940999D01*
X154704492Y-130930848D01*
X154707290Y-130919212D01*
X154709101Y-130906090D01*
X154709923Y-130891483D01*
X154709978Y-130886284D01*
X154709978Y-130814720D01*
X154709759Y-130804487D01*
X154708607Y-130790375D01*
X154706467Y-130777748D01*
X154703340Y-130766607D01*
X154699226Y-130756951D01*
X154692204Y-130746388D01*
X154683426Y-130738465D01*
X154672893Y-130733183D01*
X154660605Y-130730542D01*
X154653802Y-130730212D01*
X154068597Y-130730212D01*
X154058384Y-130731266D01*
X154048996Y-130734426D01*
X154040432Y-130739692D01*
X154032693Y-130747065D01*
X154026455Y-130754777D01*
X154020778Y-130763167D01*
X154015663Y-130772235D01*
X154011108Y-130781980D01*
X154008757Y-130787854D01*
X154005037Y-130798326D01*
X154001785Y-130808797D01*
X153999000Y-130819269D01*
X153996682Y-130829741D01*
X153995568Y-130835725D01*
X153993855Y-130845730D01*
X153992412Y-130856018D01*
X153991446Y-130866133D01*
X153991172Y-130873827D01*
X153991518Y-130884262D01*
X153992557Y-130894407D01*
X153994102Y-130903381D01*
X153997165Y-130913060D01*
X154001607Y-130922211D01*
X154006947Y-130931245D01*
X154012602Y-130939752D01*
X154013642Y-130941238D01*
X154476482Y-131613639D01*
X154541206Y-131474420D01*
X154047347Y-131474420D01*
X154037308Y-131475163D01*
X154025459Y-131478464D01*
X154015364Y-131484406D01*
X154007026Y-131492989D01*
X154000443Y-131504213D01*
X153996657Y-131514364D01*
X153993860Y-131526000D01*
X153992049Y-131539122D01*
X153991226Y-131553729D01*
X153991172Y-131558928D01*
X153991172Y-131630491D01*
X153991391Y-131640725D01*
X153992543Y-131654837D01*
X153994683Y-131667464D01*
X153997810Y-131678605D01*
X154001924Y-131688261D01*
X154008946Y-131698824D01*
X154017723Y-131706747D01*
X154028256Y-131712029D01*
X154040545Y-131714669D01*
X154047347Y-131715000D01*
X154660885Y-131715000D01*
G37*
G36*
X153574759Y-130967956D02*
G01*
X153585846Y-130968240D01*
X153596762Y-130968715D01*
X153607508Y-130969380D01*
X153618084Y-130970234D01*
X153628489Y-130971278D01*
X153638724Y-130972512D01*
X153648789Y-130973936D01*
X153658683Y-130975550D01*
X153668408Y-130977354D01*
X153687345Y-130981531D01*
X153705601Y-130986467D01*
X153723176Y-130992163D01*
X153740070Y-130998618D01*
X153756282Y-131005833D01*
X153771814Y-131013807D01*
X153786664Y-131022540D01*
X153800833Y-131032034D01*
X153814321Y-131042286D01*
X153827127Y-131053298D01*
X153839253Y-131065069D01*
X153850669Y-131077531D01*
X153861349Y-131090677D01*
X153871292Y-131104505D01*
X153880499Y-131119016D01*
X153888969Y-131134211D01*
X153896703Y-131150089D01*
X153903700Y-131166650D01*
X153909961Y-131183893D01*
X153915485Y-131201820D01*
X153920272Y-131220431D01*
X153922390Y-131229992D01*
X153924323Y-131239724D01*
X153926073Y-131249627D01*
X153927638Y-131259700D01*
X153929019Y-131269945D01*
X153930216Y-131280360D01*
X153931229Y-131290946D01*
X153932057Y-131301702D01*
X153932702Y-131312630D01*
X153933162Y-131323728D01*
X153933438Y-131334997D01*
X153933530Y-131346437D01*
X153933438Y-131357788D01*
X153933162Y-131368974D01*
X153932702Y-131379995D01*
X153932057Y-131390851D01*
X153931229Y-131401542D01*
X153930216Y-131412068D01*
X153929019Y-131422429D01*
X153927638Y-131432624D01*
X153926073Y-131442655D01*
X153924323Y-131452520D01*
X153920272Y-131471757D01*
X153915485Y-131490332D01*
X153909961Y-131508248D01*
X153903700Y-131525503D01*
X153896703Y-131542098D01*
X153888969Y-131558033D01*
X153880499Y-131573308D01*
X153871292Y-131587923D01*
X153861349Y-131601877D01*
X153850669Y-131615171D01*
X153839253Y-131627805D01*
X153827127Y-131639724D01*
X153814321Y-131650874D01*
X153800833Y-131661256D01*
X153786664Y-131670868D01*
X153771814Y-131679711D01*
X153756282Y-131687786D01*
X153740070Y-131695091D01*
X153723176Y-131701627D01*
X153705601Y-131707395D01*
X153687345Y-131712393D01*
X153668408Y-131716622D01*
X153658683Y-131718449D01*
X153648789Y-131720083D01*
X153638724Y-131721525D01*
X153628489Y-131722774D01*
X153618084Y-131723832D01*
X153607508Y-131724697D01*
X153596762Y-131725370D01*
X153585846Y-131725850D01*
X153574759Y-131726139D01*
X153563502Y-131726235D01*
X153552246Y-131726139D01*
X153541162Y-131725850D01*
X153530249Y-131725370D01*
X153519508Y-131724697D01*
X153508939Y-131723832D01*
X153498541Y-131722774D01*
X153488316Y-131721525D01*
X153478262Y-131720083D01*
X153468379Y-131718449D01*
X153458669Y-131716622D01*
X153439763Y-131712393D01*
X153421544Y-131707395D01*
X153404012Y-131701627D01*
X153387167Y-131695091D01*
X153371008Y-131687786D01*
X153355537Y-131679711D01*
X153340753Y-131670868D01*
X153326655Y-131661256D01*
X153313245Y-131650874D01*
X153300521Y-131639724D01*
X153288485Y-131627805D01*
X153282730Y-131621570D01*
X153271767Y-131608606D01*
X153261536Y-131594982D01*
X153252035Y-131580698D01*
X153243265Y-131565753D01*
X153235226Y-131550148D01*
X153227918Y-131533883D01*
X153221341Y-131516958D01*
X153215494Y-131499373D01*
X153210378Y-131481127D01*
X153205994Y-131462221D01*
X153204075Y-131452520D01*
X153202339Y-131442655D01*
X153200786Y-131432624D01*
X153199416Y-131422429D01*
X153198229Y-131412068D01*
X153197224Y-131401542D01*
X153196402Y-131390851D01*
X153195762Y-131379995D01*
X153195305Y-131368974D01*
X153195031Y-131357788D01*
X153194940Y-131346437D01*
X153453837Y-131346437D01*
X153453937Y-131358007D01*
X153454234Y-131369148D01*
X153454730Y-131379859D01*
X153455425Y-131390141D01*
X153456318Y-131399994D01*
X153458030Y-131413968D01*
X153460188Y-131426976D01*
X153462792Y-131439018D01*
X153465843Y-131450094D01*
X153469341Y-131460204D01*
X153473285Y-131469348D01*
X153479239Y-131480038D01*
X153482516Y-131484800D01*
X153489866Y-131493402D01*
X153498277Y-131500775D01*
X153507749Y-131506919D01*
X153518282Y-131511834D01*
X153529876Y-131515521D01*
X153542531Y-131517979D01*
X153552718Y-131519015D01*
X153563502Y-131519361D01*
X153570936Y-131519207D01*
X153581573Y-131518401D01*
X153591590Y-131516903D01*
X153603986Y-131513831D01*
X153615282Y-131509530D01*
X153625479Y-131504000D01*
X153634577Y-131497242D01*
X153642576Y-131489254D01*
X153649476Y-131480038D01*
X153655372Y-131469348D01*
X153659278Y-131460204D01*
X153662742Y-131450094D01*
X153665764Y-131439018D01*
X153668344Y-131426976D01*
X153670481Y-131413968D01*
X153672176Y-131399994D01*
X153673061Y-131390141D01*
X153673748Y-131379859D01*
X153674240Y-131369148D01*
X153674535Y-131358007D01*
X153674633Y-131346437D01*
X153674608Y-131340689D01*
X153674412Y-131329505D01*
X153674019Y-131318739D01*
X153673429Y-131308391D01*
X153672176Y-131293653D01*
X153670481Y-131279855D01*
X153668344Y-131266997D01*
X153665764Y-131255079D01*
X153662742Y-131244102D01*
X153659278Y-131234065D01*
X153655372Y-131224968D01*
X153649476Y-131214302D01*
X153644404Y-131207231D01*
X153636680Y-131198884D01*
X153627857Y-131191775D01*
X153617934Y-131185901D01*
X153606913Y-131181264D01*
X153594792Y-131177864D01*
X153584980Y-131176125D01*
X153574551Y-131175082D01*
X153563502Y-131174734D01*
X153556247Y-131174889D01*
X153545860Y-131175700D01*
X153536071Y-131177207D01*
X153523946Y-131180298D01*
X153512883Y-131184626D01*
X153502881Y-131190190D01*
X153493939Y-131196991D01*
X153486058Y-131205028D01*
X153479239Y-131214302D01*
X153476163Y-131219426D01*
X153470606Y-131230928D01*
X153466960Y-131240652D01*
X153463760Y-131251316D01*
X153461006Y-131262920D01*
X153458699Y-131275464D01*
X153456839Y-131288949D01*
X153455425Y-131303374D01*
X153454730Y-131313513D01*
X153454234Y-131324070D01*
X153453937Y-131335044D01*
X153453837Y-131346437D01*
X153194940Y-131346437D01*
X153195031Y-131334997D01*
X153195305Y-131323728D01*
X153195762Y-131312630D01*
X153196402Y-131301702D01*
X153197224Y-131290946D01*
X153198229Y-131280360D01*
X153199416Y-131269945D01*
X153200786Y-131259700D01*
X153202339Y-131249627D01*
X153204075Y-131239724D01*
X153205994Y-131229992D01*
X153208095Y-131220431D01*
X153212845Y-131201820D01*
X153218326Y-131183893D01*
X153224538Y-131166650D01*
X153231481Y-131150089D01*
X153239155Y-131134211D01*
X153247559Y-131119016D01*
X153256694Y-131104505D01*
X153266560Y-131090677D01*
X153277157Y-131077531D01*
X153288485Y-131065069D01*
X153300521Y-131053298D01*
X153313245Y-131042286D01*
X153326655Y-131032034D01*
X153340753Y-131022540D01*
X153355537Y-131013807D01*
X153371008Y-131005833D01*
X153387167Y-130998618D01*
X153404012Y-130992163D01*
X153421544Y-130986467D01*
X153439763Y-130981531D01*
X153458669Y-130977354D01*
X153468379Y-130975550D01*
X153478262Y-130973936D01*
X153488316Y-130972512D01*
X153498541Y-130971278D01*
X153508939Y-130970234D01*
X153519508Y-130969380D01*
X153530249Y-130968715D01*
X153541162Y-130968240D01*
X153552246Y-130967956D01*
X153563502Y-130967861D01*
X153574759Y-130967956D01*
G37*
G36*
X152885484Y-131726235D02*
G01*
X152898233Y-131725988D01*
X152910652Y-131725247D01*
X152922740Y-131724013D01*
X152934497Y-131722285D01*
X152945924Y-131720063D01*
X152957020Y-131717347D01*
X152967785Y-131714138D01*
X152978220Y-131710435D01*
X152988325Y-131706238D01*
X152998098Y-131701548D01*
X153004430Y-131698147D01*
X153013571Y-131692676D01*
X153022308Y-131686798D01*
X153030641Y-131680512D01*
X153038571Y-131673818D01*
X153046097Y-131666716D01*
X153053220Y-131659206D01*
X153059939Y-131651289D01*
X153066254Y-131642963D01*
X153072166Y-131634230D01*
X153077675Y-131625089D01*
X153081123Y-131618768D01*
X153085880Y-131608927D01*
X153090170Y-131598729D01*
X153093992Y-131588176D01*
X153097346Y-131577266D01*
X153100232Y-131565999D01*
X153102649Y-131554376D01*
X153104599Y-131542397D01*
X153106081Y-131530062D01*
X153107095Y-131517370D01*
X153107641Y-131504322D01*
X153107745Y-131495425D01*
X153107745Y-130713360D01*
X153106861Y-130702801D01*
X153104207Y-130693290D01*
X153098876Y-130683517D01*
X153091138Y-130675171D01*
X153082588Y-130669152D01*
X153071981Y-130664088D01*
X153061488Y-130660669D01*
X153049493Y-130657978D01*
X153038815Y-130656348D01*
X153027176Y-130655184D01*
X153014574Y-130654486D01*
X153004492Y-130654267D01*
X153001011Y-130654253D01*
X152961444Y-130654253D01*
X152951183Y-130654384D01*
X152938351Y-130654966D01*
X152926488Y-130656013D01*
X152915595Y-130657526D01*
X152905670Y-130659505D01*
X152894628Y-130662633D01*
X152885100Y-130666489D01*
X152880111Y-130669152D01*
X152871478Y-130675171D01*
X152864632Y-130682238D01*
X152858902Y-130691806D01*
X152855925Y-130701143D01*
X152854734Y-130711527D01*
X152854710Y-130713360D01*
X152854710Y-131467337D01*
X152854301Y-131478343D01*
X152852831Y-131489090D01*
X152849901Y-131498845D01*
X152846161Y-131505439D01*
X152838204Y-131512286D01*
X152828195Y-131515786D01*
X152818073Y-131516674D01*
X152807874Y-131516054D01*
X152797427Y-131513939D01*
X152787787Y-131510324D01*
X152778605Y-131506454D01*
X152768655Y-131504029D01*
X152767271Y-131503974D01*
X152758273Y-131507838D01*
X152751879Y-131515583D01*
X152748464Y-131521559D01*
X152744007Y-131530749D01*
X152739915Y-131540732D01*
X152736636Y-131550119D01*
X152733638Y-131560113D01*
X152732832Y-131563080D01*
X152730159Y-131573424D01*
X152727697Y-131583510D01*
X152725444Y-131593339D01*
X152723402Y-131602911D01*
X152722330Y-131608265D01*
X152720513Y-131617882D01*
X152718863Y-131628215D01*
X152718178Y-131636109D01*
X152719323Y-131646452D01*
X152722759Y-131656539D01*
X152728486Y-131666368D01*
X152735218Y-131674588D01*
X152742114Y-131681294D01*
X152749939Y-131687637D01*
X152758457Y-131693540D01*
X152767666Y-131699000D01*
X152777567Y-131704020D01*
X152788160Y-131708598D01*
X152799444Y-131712735D01*
X152804151Y-131714267D01*
X152813704Y-131717072D01*
X152823431Y-131719503D01*
X152833335Y-131721560D01*
X152843413Y-131723243D01*
X152853668Y-131724552D01*
X152864098Y-131725487D01*
X152874703Y-131726048D01*
X152885484Y-131726235D01*
G37*
G36*
X152442183Y-131726235D02*
G01*
X152454932Y-131725988D01*
X152467351Y-131725247D01*
X152479439Y-131724013D01*
X152491196Y-131722285D01*
X152502623Y-131720063D01*
X152513719Y-131717347D01*
X152524484Y-131714138D01*
X152534919Y-131710435D01*
X152545024Y-131706238D01*
X152554798Y-131701548D01*
X152561130Y-131698147D01*
X152570270Y-131692676D01*
X152579007Y-131686798D01*
X152587340Y-131680512D01*
X152595270Y-131673818D01*
X152602796Y-131666716D01*
X152609919Y-131659206D01*
X152616638Y-131651289D01*
X152622954Y-131642963D01*
X152628866Y-131634230D01*
X152634374Y-131625089D01*
X152637822Y-131618768D01*
X152642580Y-131608927D01*
X152646869Y-131598729D01*
X152650691Y-131588176D01*
X152654045Y-131577266D01*
X152656931Y-131565999D01*
X152659349Y-131554376D01*
X152661299Y-131542397D01*
X152662781Y-131530062D01*
X152663794Y-131517370D01*
X152664340Y-131504322D01*
X152664444Y-131495425D01*
X152664444Y-131200136D01*
X152692532Y-131200136D01*
X152702615Y-131199393D01*
X152714516Y-131196092D01*
X152724654Y-131190150D01*
X152733029Y-131181567D01*
X152739641Y-131170343D01*
X152743443Y-131160192D01*
X152746253Y-131148556D01*
X152748071Y-131135434D01*
X152748897Y-131120827D01*
X152748952Y-131115628D01*
X152748952Y-131063604D01*
X152748732Y-131053400D01*
X152747575Y-131039329D01*
X152745426Y-131026738D01*
X152742286Y-131015629D01*
X152738153Y-131006002D01*
X152731101Y-130995469D01*
X152722285Y-130987569D01*
X152711706Y-130982302D01*
X152699364Y-130979669D01*
X152692532Y-130979340D01*
X152664444Y-130979340D01*
X152633426Y-130855509D01*
X152630363Y-130844547D01*
X152626304Y-130834924D01*
X152620310Y-130825390D01*
X152612961Y-130817680D01*
X152605582Y-130812522D01*
X152595210Y-130807859D01*
X152584609Y-130804773D01*
X152574567Y-130802845D01*
X152563428Y-130801501D01*
X152551192Y-130800741D01*
X152540613Y-130800554D01*
X152509839Y-130800554D01*
X152497226Y-130800787D01*
X152485521Y-130801485D01*
X152474725Y-130802649D01*
X152464837Y-130804279D01*
X152453754Y-130806971D01*
X152444091Y-130810390D01*
X152434368Y-130815453D01*
X152426482Y-130821472D01*
X152419345Y-130829819D01*
X152414428Y-130839591D01*
X152411980Y-130849102D01*
X152411165Y-130859661D01*
X152411165Y-130979340D01*
X152352058Y-130979340D01*
X152342019Y-130980081D01*
X152330169Y-130983372D01*
X152320075Y-130989297D01*
X152311736Y-130997855D01*
X152305153Y-131009046D01*
X152301368Y-131019168D01*
X152298570Y-131030771D01*
X152296760Y-131043855D01*
X152295937Y-131058420D01*
X152295882Y-131063604D01*
X152295882Y-131115628D01*
X152296101Y-131125861D01*
X152297253Y-131139973D01*
X152299393Y-131152600D01*
X152302520Y-131163741D01*
X152306634Y-131173397D01*
X152313656Y-131183960D01*
X152322434Y-131191883D01*
X152332967Y-131197165D01*
X152345255Y-131199805D01*
X152352058Y-131200136D01*
X152411165Y-131200136D01*
X152411165Y-131467337D01*
X152410767Y-131478343D01*
X152409340Y-131489090D01*
X152406493Y-131498845D01*
X152402860Y-131505439D01*
X152394903Y-131512286D01*
X152384894Y-131515786D01*
X152374772Y-131516674D01*
X152364540Y-131516054D01*
X152354331Y-131513939D01*
X152345219Y-131510324D01*
X152335585Y-131506212D01*
X152325609Y-131504029D01*
X152323970Y-131503974D01*
X152314972Y-131507999D01*
X152308578Y-131516067D01*
X152305163Y-131522292D01*
X152300706Y-131531894D01*
X152297106Y-131541022D01*
X152293787Y-131550827D01*
X152290748Y-131561311D01*
X152289532Y-131566011D01*
X152286859Y-131576795D01*
X152284396Y-131587136D01*
X152282144Y-131597031D01*
X152279827Y-131607797D01*
X152279029Y-131611685D01*
X152277022Y-131621813D01*
X152275283Y-131631940D01*
X152274877Y-131636109D01*
X152276022Y-131646452D01*
X152279459Y-131656539D01*
X152285185Y-131666368D01*
X152291917Y-131674588D01*
X152298813Y-131681294D01*
X152306568Y-131687637D01*
X152315027Y-131693540D01*
X152324190Y-131699000D01*
X152334056Y-131704020D01*
X152344626Y-131708598D01*
X152355900Y-131712735D01*
X152360606Y-131714267D01*
X152370162Y-131717072D01*
X152379902Y-131719503D01*
X152389824Y-131721560D01*
X152399929Y-131723243D01*
X152410218Y-131724552D01*
X152420690Y-131725487D01*
X152431345Y-131726048D01*
X152442183Y-131726235D01*
G37*
G36*
X151928109Y-130967960D02*
G01*
X151939394Y-130968258D01*
X151950916Y-130968754D01*
X151962674Y-130969448D01*
X151974668Y-130970341D01*
X151986900Y-130971433D01*
X151999367Y-130972723D01*
X152012072Y-130974211D01*
X152024818Y-130975875D01*
X152037412Y-130977691D01*
X152049853Y-130979661D01*
X152062142Y-130981782D01*
X152074277Y-130984057D01*
X152086261Y-130986484D01*
X152098091Y-130989064D01*
X152109769Y-130991796D01*
X152112652Y-130992503D01*
X152123842Y-130995415D01*
X152134481Y-130998464D01*
X152144572Y-131001651D01*
X152154112Y-131004975D01*
X152165265Y-131009323D01*
X152175560Y-131013886D01*
X152184996Y-131018663D01*
X152188486Y-131020598D01*
X152197605Y-131026540D01*
X152205682Y-131033733D01*
X152211537Y-131042297D01*
X152213816Y-131052369D01*
X152213653Y-131058463D01*
X152212851Y-131069034D01*
X152211729Y-131079071D01*
X152210397Y-131089005D01*
X152209239Y-131096521D01*
X152207317Y-131107163D01*
X152205045Y-131117945D01*
X152202422Y-131128868D01*
X152199895Y-131138342D01*
X152198996Y-131141454D01*
X152195640Y-131151836D01*
X152191957Y-131161423D01*
X152187347Y-131171407D01*
X152182309Y-131180352D01*
X152176920Y-131187725D01*
X152169062Y-131194423D01*
X152159106Y-131197205D01*
X152152660Y-131196887D01*
X152142249Y-131195475D01*
X152131437Y-131193313D01*
X152120904Y-131190771D01*
X152111234Y-131188168D01*
X152107122Y-131187008D01*
X152096391Y-131184119D01*
X152085016Y-131181241D01*
X152075453Y-131178948D01*
X152065477Y-131176662D01*
X152055089Y-131174383D01*
X152044289Y-131172113D01*
X152033077Y-131169849D01*
X152024431Y-131168234D01*
X152012650Y-131166328D01*
X152000579Y-131164704D01*
X151988219Y-131163363D01*
X151975567Y-131162304D01*
X151962626Y-131161527D01*
X151952730Y-131161130D01*
X151942671Y-131160892D01*
X151932449Y-131160812D01*
X151929662Y-131160819D01*
X151918953Y-131160968D01*
X151908947Y-131161315D01*
X151897426Y-131162028D01*
X151887003Y-131163051D01*
X151875944Y-131164688D01*
X151865038Y-131167163D01*
X151858373Y-131169268D01*
X151849199Y-131173454D01*
X151841067Y-131179368D01*
X151834751Y-131187435D01*
X151832500Y-131192029D01*
X151829142Y-131202218D01*
X151827424Y-131212531D01*
X151826936Y-131222606D01*
X151826936Y-131249228D01*
X151844148Y-131249322D01*
X151860920Y-131249602D01*
X151877251Y-131250070D01*
X151893141Y-131250724D01*
X151908590Y-131251566D01*
X151923599Y-131252594D01*
X151938166Y-131253810D01*
X151952293Y-131255212D01*
X151965980Y-131256802D01*
X151979225Y-131258578D01*
X151992030Y-131260542D01*
X152004393Y-131262692D01*
X152016316Y-131265030D01*
X152027799Y-131267554D01*
X152038840Y-131270266D01*
X152049441Y-131273164D01*
X152059632Y-131276212D01*
X152069507Y-131279369D01*
X152079065Y-131282638D01*
X152088306Y-131286017D01*
X152101574Y-131291294D01*
X152114129Y-131296819D01*
X152125971Y-131302594D01*
X152137101Y-131308618D01*
X152147518Y-131314890D01*
X152157223Y-131321412D01*
X152166214Y-131328182D01*
X152174493Y-131335202D01*
X152179665Y-131339954D01*
X152187012Y-131347158D01*
X152193865Y-131354451D01*
X152202234Y-131364316D01*
X152209725Y-131374342D01*
X152216339Y-131384527D01*
X152222075Y-131394873D01*
X152226933Y-131405380D01*
X152230913Y-131416046D01*
X152234176Y-131426736D01*
X152237004Y-131437311D01*
X152239397Y-131447771D01*
X152241355Y-131458117D01*
X152242877Y-131468349D01*
X152243965Y-131478466D01*
X152244618Y-131488468D01*
X152244835Y-131498356D01*
X152244622Y-131511023D01*
X152243980Y-131523380D01*
X152242912Y-131535425D01*
X152241416Y-131547159D01*
X152239492Y-131558582D01*
X152237142Y-131569694D01*
X152234363Y-131580495D01*
X152231158Y-131590985D01*
X152227525Y-131601164D01*
X152223464Y-131611032D01*
X152218976Y-131620589D01*
X152214061Y-131629835D01*
X152208718Y-131638770D01*
X152202948Y-131647394D01*
X152196750Y-131655707D01*
X152190125Y-131663709D01*
X152183058Y-131671280D01*
X152175596Y-131678363D01*
X152167739Y-131684958D01*
X152159488Y-131691064D01*
X152150841Y-131696681D01*
X152141799Y-131701810D01*
X152132362Y-131706451D01*
X152122531Y-131710603D01*
X152112304Y-131714267D01*
X152101682Y-131717442D01*
X152090666Y-131720129D01*
X152079254Y-131722327D01*
X152067447Y-131724036D01*
X152055246Y-131725258D01*
X152042649Y-131725990D01*
X152029657Y-131726235D01*
X152022144Y-131726183D01*
X152011092Y-131725913D01*
X152000302Y-131725410D01*
X151989774Y-131724676D01*
X151979508Y-131723710D01*
X151969504Y-131722512D01*
X151959762Y-131721083D01*
X151947180Y-131718816D01*
X151935063Y-131716137D01*
X151923412Y-131713046D01*
X151917763Y-131711342D01*
X151906825Y-131707785D01*
X151896368Y-131704030D01*
X151886393Y-131700076D01*
X151876898Y-131695924D01*
X151867884Y-131691573D01*
X151857292Y-131685856D01*
X151847452Y-131679829D01*
X151845576Y-131678596D01*
X151836713Y-131672564D01*
X151828708Y-131666747D01*
X151820236Y-131660049D01*
X151811915Y-131652626D01*
X151804465Y-131644658D01*
X151802385Y-131651973D01*
X151799690Y-131661407D01*
X151796769Y-131671582D01*
X151793963Y-131681294D01*
X151790887Y-131690175D01*
X151786235Y-131699402D01*
X151780041Y-131707428D01*
X151773501Y-131712194D01*
X151763701Y-131715582D01*
X151753907Y-131716465D01*
X151747084Y-131716442D01*
X151736448Y-131716322D01*
X151725331Y-131716099D01*
X151713733Y-131715772D01*
X151703701Y-131715422D01*
X151693335Y-131715000D01*
X151689132Y-131714803D01*
X151678717Y-131714195D01*
X151668434Y-131713420D01*
X151658281Y-131712477D01*
X151648260Y-131711368D01*
X151638369Y-131710092D01*
X151628611Y-131708649D01*
X151617356Y-131706671D01*
X151606858Y-131704402D01*
X151597115Y-131701840D01*
X151586703Y-131698482D01*
X151577320Y-131694727D01*
X151573653Y-131692921D01*
X151564817Y-131686702D01*
X151558807Y-131678387D01*
X151556803Y-131668593D01*
X151557013Y-131661522D01*
X151557902Y-131651435D01*
X151559276Y-131641528D01*
X151561199Y-131630736D01*
X151562503Y-131623250D01*
X151564083Y-131613243D01*
X151565680Y-131602121D01*
X151567024Y-131591999D01*
X151568380Y-131581103D01*
X151569748Y-131569431D01*
X151570003Y-131566980D01*
X151570944Y-131556699D01*
X151571755Y-131545654D01*
X151572436Y-131533847D01*
X151572988Y-131521276D01*
X151573316Y-131511347D01*
X151573572Y-131500988D01*
X151573754Y-131490201D01*
X151573864Y-131478984D01*
X151573900Y-131467337D01*
X151573900Y-131404078D01*
X151826936Y-131404078D01*
X151826936Y-131505439D01*
X151832238Y-131507987D01*
X151841962Y-131512331D01*
X151851919Y-131516367D01*
X151862107Y-131520094D01*
X151867795Y-131522013D01*
X151877855Y-131525136D01*
X151887682Y-131527834D01*
X151897278Y-131530108D01*
X151899385Y-131530522D01*
X151909952Y-131532191D01*
X151920566Y-131533193D01*
X151931227Y-131533527D01*
X151935876Y-131533467D01*
X151946762Y-131532791D01*
X151956598Y-131531363D01*
X151967017Y-131528658D01*
X151977261Y-131524135D01*
X151985449Y-131518140D01*
X151988330Y-131515112D01*
X151994627Y-131506094D01*
X151998484Y-131497077D01*
X152000798Y-131487007D01*
X152001569Y-131475886D01*
X152001494Y-131472234D01*
X152000367Y-131461975D01*
X151997529Y-131451800D01*
X151993021Y-131442913D01*
X151990063Y-131438840D01*
X151982431Y-131431446D01*
X151973604Y-131425648D01*
X151964200Y-131421175D01*
X151961587Y-131420124D01*
X151951674Y-131416715D01*
X151942229Y-131414127D01*
X151931908Y-131411849D01*
X151920711Y-131409880D01*
X151910711Y-131408475D01*
X151906520Y-131407942D01*
X151895432Y-131406762D01*
X151883474Y-131405796D01*
X151873281Y-131405177D01*
X151862530Y-131404697D01*
X151851223Y-131404353D01*
X151839358Y-131404147D01*
X151826936Y-131404078D01*
X151573900Y-131404078D01*
X151573900Y-131219675D01*
X151574029Y-131209490D01*
X151574415Y-131199451D01*
X151575059Y-131189557D01*
X151575961Y-131179810D01*
X151577564Y-131167041D01*
X151579625Y-131154531D01*
X151582143Y-131142281D01*
X151585120Y-131130290D01*
X151588555Y-131118558D01*
X151592573Y-131107155D01*
X151597302Y-131096149D01*
X151602740Y-131085540D01*
X151608888Y-131075327D01*
X151615746Y-131065512D01*
X151623313Y-131056093D01*
X151631591Y-131047072D01*
X151640578Y-131038447D01*
X151642944Y-131036340D01*
X151652996Y-131028219D01*
X151661156Y-131022449D01*
X151669848Y-131016953D01*
X151679073Y-131011733D01*
X151688831Y-131006787D01*
X151699120Y-131002116D01*
X151709942Y-130997719D01*
X151721297Y-130993598D01*
X151733184Y-130989751D01*
X151745603Y-130986179D01*
X151754172Y-130983961D01*
X151767563Y-130980902D01*
X151781598Y-130978165D01*
X151791313Y-130976519D01*
X151801313Y-130975016D01*
X151811600Y-130973657D01*
X151822173Y-130972440D01*
X151833032Y-130971367D01*
X151844178Y-130970437D01*
X151855609Y-130969650D01*
X151867327Y-130969006D01*
X151879332Y-130968505D01*
X151891622Y-130968147D01*
X151904198Y-130967932D01*
X151917061Y-130967861D01*
X151928109Y-130967960D01*
G37*
G36*
X151802824Y-130704868D02*
G01*
X151814388Y-130705040D01*
X151825234Y-130705326D01*
X151835362Y-130705727D01*
X151847014Y-130706389D01*
X151857544Y-130707230D01*
X151868701Y-130708475D01*
X151879968Y-130710251D01*
X151889832Y-130712589D01*
X151899388Y-130715947D01*
X151908757Y-130721175D01*
X151912590Y-130724226D01*
X151919898Y-130731687D01*
X151926068Y-130739952D01*
X151931227Y-130748531D01*
X151987403Y-130849891D01*
X151987752Y-130850501D01*
X151992532Y-130859356D01*
X151996684Y-130868210D01*
X151998631Y-130873774D01*
X152000104Y-130883597D01*
X151998458Y-130891559D01*
X151992138Y-130899161D01*
X151983251Y-130903869D01*
X151981056Y-130904638D01*
X151970500Y-130907218D01*
X151960720Y-130908632D01*
X151949342Y-130909599D01*
X151938641Y-130910064D01*
X151926831Y-130910219D01*
X151924573Y-130910216D01*
X151913768Y-130910099D01*
X151903774Y-130909815D01*
X151892852Y-130909254D01*
X151881585Y-130908296D01*
X151870655Y-130906800D01*
X151865801Y-130905800D01*
X151855548Y-130902936D01*
X151846223Y-130899223D01*
X151836950Y-130894099D01*
X151828769Y-130888378D01*
X151821140Y-130882223D01*
X151813175Y-130875060D01*
X151805931Y-130867965D01*
X151734123Y-130793471D01*
X151732912Y-130792255D01*
X151725010Y-130784007D01*
X151718113Y-130776226D01*
X151711461Y-130767907D01*
X151705547Y-130759277D01*
X151702393Y-130753862D01*
X151698042Y-130744062D01*
X151696266Y-130734364D01*
X151697516Y-130726958D01*
X151703641Y-130718486D01*
X151712217Y-130713494D01*
X151722400Y-130710429D01*
X151727398Y-130709425D01*
X151738257Y-130707713D01*
X151748186Y-130706589D01*
X151758913Y-130705738D01*
X151770439Y-130705162D01*
X151780236Y-130704899D01*
X151790544Y-130704811D01*
X151802824Y-130704868D01*
G37*
G36*
X151344068Y-131717930D02*
G01*
X151354330Y-131717802D01*
X151367172Y-131717229D01*
X151379052Y-131716199D01*
X151389970Y-131714710D01*
X151399927Y-131712764D01*
X151411021Y-131709687D01*
X151420611Y-131705895D01*
X151425645Y-131703276D01*
X151434194Y-131697174D01*
X151440975Y-131690041D01*
X151446650Y-131680417D01*
X151449598Y-131671052D01*
X151450777Y-131660656D01*
X151450802Y-131658824D01*
X151450802Y-131224071D01*
X151450834Y-131211466D01*
X151450931Y-131199479D01*
X151451092Y-131188110D01*
X151451317Y-131177360D01*
X151451607Y-131167228D01*
X151452093Y-131154680D01*
X151452694Y-131143231D01*
X151453410Y-131132881D01*
X151454465Y-131121489D01*
X151455540Y-131111315D01*
X151456845Y-131100256D01*
X151458167Y-131090450D01*
X151459732Y-131080594D01*
X151461548Y-131071420D01*
X151463352Y-131061392D01*
X151464487Y-131051460D01*
X151464954Y-131041624D01*
X151464968Y-131039668D01*
X151463693Y-131029866D01*
X151459285Y-131020154D01*
X151452626Y-131012473D01*
X151448848Y-131009382D01*
X151440025Y-131003764D01*
X151431252Y-130999450D01*
X151421498Y-130995697D01*
X151410763Y-130992504D01*
X151405861Y-130991308D01*
X151395749Y-130989073D01*
X151385379Y-130987129D01*
X151374752Y-130985478D01*
X151363867Y-130984118D01*
X151352724Y-130983050D01*
X151348952Y-130982759D01*
X151337621Y-130982012D01*
X151326341Y-130981420D01*
X151315112Y-130980982D01*
X151303935Y-130980699D01*
X151292810Y-130980570D01*
X151289113Y-130980561D01*
X151279027Y-130980752D01*
X151268105Y-130981485D01*
X151256990Y-130983034D01*
X151246434Y-130985721D01*
X151240020Y-130988377D01*
X151231157Y-130994502D01*
X151224730Y-131002136D01*
X151219771Y-131011779D01*
X151218038Y-131016709D01*
X151215365Y-131026420D01*
X151213241Y-131036083D01*
X151211272Y-131046982D01*
X151209749Y-131057009D01*
X151208334Y-131067895D01*
X151207536Y-131074839D01*
X151199697Y-131066222D01*
X151191691Y-131057956D01*
X151183516Y-131050041D01*
X151175174Y-131042477D01*
X151166663Y-131035264D01*
X151157985Y-131028402D01*
X151149139Y-131021892D01*
X151140125Y-131015732D01*
X151130889Y-131009935D01*
X151121501Y-131004512D01*
X151111961Y-130999463D01*
X151102267Y-130994788D01*
X151092421Y-130990487D01*
X151082422Y-130986560D01*
X151072271Y-130983008D01*
X151061967Y-130979829D01*
X151051510Y-130977024D01*
X151040901Y-130974593D01*
X151030139Y-130972536D01*
X151019225Y-130970853D01*
X151008157Y-130969544D01*
X150996937Y-130968609D01*
X150985565Y-130968048D01*
X150974040Y-130967861D01*
X150962564Y-130968071D01*
X150951402Y-130968702D01*
X150940554Y-130969754D01*
X150930019Y-130971227D01*
X150919797Y-130973120D01*
X150909889Y-130975434D01*
X150900294Y-130978169D01*
X150891012Y-130981325D01*
X150879125Y-130986186D01*
X150867794Y-130991796D01*
X150857005Y-130998089D01*
X150846865Y-131005001D01*
X150837374Y-131012530D01*
X150828532Y-131020678D01*
X150820338Y-131029444D01*
X150812794Y-131038828D01*
X150805898Y-131048831D01*
X150799650Y-131059452D01*
X150794040Y-131070588D01*
X150789178Y-131082258D01*
X150785064Y-131094462D01*
X150782470Y-131103966D01*
X150780296Y-131113771D01*
X150778543Y-131123876D01*
X150777210Y-131134282D01*
X150776299Y-131144988D01*
X150775808Y-131155994D01*
X150775714Y-131163499D01*
X150775714Y-131658824D01*
X150776608Y-131669391D01*
X150779287Y-131678928D01*
X150784669Y-131688752D01*
X150791218Y-131696056D01*
X150799553Y-131702330D01*
X150801116Y-131703276D01*
X150811640Y-131708256D01*
X150822077Y-131711619D01*
X150834027Y-131714267D01*
X150844679Y-131715870D01*
X150856299Y-131717015D01*
X150868889Y-131717701D01*
X150878968Y-131717916D01*
X150882449Y-131717930D01*
X150922016Y-131717930D01*
X150932278Y-131717802D01*
X150945120Y-131717229D01*
X150957000Y-131716199D01*
X150967919Y-131714710D01*
X150977876Y-131712764D01*
X150988969Y-131709687D01*
X150998560Y-131705895D01*
X151003593Y-131703276D01*
X151012143Y-131697174D01*
X151018923Y-131690041D01*
X151024598Y-131680417D01*
X151027546Y-131671052D01*
X151028726Y-131660656D01*
X151028750Y-131658824D01*
X151028750Y-131233841D01*
X151029274Y-131223282D01*
X151031209Y-131212288D01*
X151034570Y-131202719D01*
X151040157Y-131193530D01*
X151043649Y-131189633D01*
X151051999Y-131183115D01*
X151060983Y-131178939D01*
X151071534Y-131176189D01*
X151081823Y-131174967D01*
X151089322Y-131174734D01*
X151099684Y-131175179D01*
X151110162Y-131176512D01*
X151120756Y-131178734D01*
X151126691Y-131180352D01*
X151136064Y-131183435D01*
X151145376Y-131187069D01*
X151154627Y-131191251D01*
X151163816Y-131195983D01*
X151172808Y-131201128D01*
X151181463Y-131206791D01*
X151189782Y-131212974D01*
X151197766Y-131219675D01*
X151197766Y-131658824D01*
X151198659Y-131669391D01*
X151201338Y-131678928D01*
X151206721Y-131688752D01*
X151213270Y-131696056D01*
X151221605Y-131702330D01*
X151223167Y-131703276D01*
X151233692Y-131708256D01*
X151244128Y-131711619D01*
X151256079Y-131714267D01*
X151266730Y-131715870D01*
X151278351Y-131717015D01*
X151290941Y-131717701D01*
X151301020Y-131717916D01*
X151304500Y-131717930D01*
X151344068Y-131717930D01*
G37*
G36*
X150212735Y-131717930D02*
G01*
X150223534Y-131717789D01*
X150233766Y-131717364D01*
X150246528Y-131716356D01*
X150258282Y-131714845D01*
X150269029Y-131712830D01*
X150278768Y-131710311D01*
X150289525Y-131706454D01*
X150298708Y-131701810D01*
X150307756Y-131695262D01*
X150314931Y-131687889D01*
X150320937Y-131678245D01*
X150324395Y-131667479D01*
X150325331Y-131657358D01*
X150325331Y-130787854D01*
X150324395Y-130777741D01*
X150320937Y-130767007D01*
X150314931Y-130757419D01*
X150307756Y-130750111D01*
X150298708Y-130743646D01*
X150289525Y-130738931D01*
X150278768Y-130735016D01*
X150269029Y-130732459D01*
X150258282Y-130730414D01*
X150246528Y-130728879D01*
X150233766Y-130727857D01*
X150223534Y-130727425D01*
X150212735Y-130727281D01*
X150164863Y-130727281D01*
X150152598Y-130727480D01*
X150141080Y-130728075D01*
X150130310Y-130729067D01*
X150120289Y-130730457D01*
X150108814Y-130732751D01*
X150098507Y-130735666D01*
X150089370Y-130739201D01*
X150087682Y-130739982D01*
X150077856Y-130745440D01*
X150068528Y-130752290D01*
X150061136Y-130759060D01*
X150054089Y-130766796D01*
X150047387Y-130775499D01*
X150041032Y-130785167D01*
X149841486Y-131111475D01*
X149835807Y-131120818D01*
X149830938Y-131129293D01*
X149826163Y-131138048D01*
X149821482Y-131147084D01*
X149819504Y-131151043D01*
X149815143Y-131159823D01*
X149810731Y-131168857D01*
X149806498Y-131177742D01*
X149803384Y-131184504D01*
X149799129Y-131175346D01*
X149794893Y-131166363D01*
X149790229Y-131156585D01*
X149785798Y-131147379D01*
X149781238Y-131138161D01*
X149776113Y-131128342D01*
X149771079Y-131119286D01*
X149765526Y-131110010D01*
X149571353Y-130786388D01*
X149564986Y-130776772D01*
X149558249Y-130768075D01*
X149551142Y-130760295D01*
X149543666Y-130753434D01*
X149535820Y-130747492D01*
X149525916Y-130741573D01*
X149524214Y-130740715D01*
X149514927Y-130736845D01*
X149504317Y-130733631D01*
X149492383Y-130731073D01*
X149481882Y-130729498D01*
X149470534Y-130728344D01*
X149458339Y-130727609D01*
X149445297Y-130727295D01*
X149441904Y-130727281D01*
X149392567Y-130727281D01*
X149381770Y-130727425D01*
X149371544Y-130727857D01*
X149358798Y-130728879D01*
X149347067Y-130730414D01*
X149336350Y-130732459D01*
X149326649Y-130735016D01*
X149315951Y-130738931D01*
X149306838Y-130743646D01*
X149297708Y-130750111D01*
X149290466Y-130757419D01*
X149284405Y-130767007D01*
X149280916Y-130777741D01*
X149279971Y-130787854D01*
X149279971Y-131657358D01*
X149280916Y-131667479D01*
X149284405Y-131678245D01*
X149290466Y-131687889D01*
X149297708Y-131695262D01*
X149306838Y-131701810D01*
X149315951Y-131706454D01*
X149326649Y-131710311D01*
X149336350Y-131712830D01*
X149347067Y-131714845D01*
X149358798Y-131716356D01*
X149371544Y-131717364D01*
X149381770Y-131717789D01*
X149392567Y-131717930D01*
X149412351Y-131717930D01*
X149423150Y-131717789D01*
X149433383Y-131717364D01*
X149446144Y-131716356D01*
X149457898Y-131714845D01*
X149468645Y-131712830D01*
X149478384Y-131710311D01*
X149489141Y-131706454D01*
X149498324Y-131701810D01*
X149507372Y-131695262D01*
X149514547Y-131687889D01*
X149520553Y-131678245D01*
X149524011Y-131667479D01*
X149524947Y-131657358D01*
X149524947Y-131288796D01*
X149524893Y-131276859D01*
X149524732Y-131264863D01*
X149524464Y-131252807D01*
X149524088Y-131240691D01*
X149523605Y-131228516D01*
X149523142Y-131218733D01*
X149522749Y-131211371D01*
X149522050Y-131199488D01*
X149521327Y-131188416D01*
X149520581Y-131178155D01*
X149519653Y-131166912D01*
X149518691Y-131156837D01*
X149517864Y-131149333D01*
X149523481Y-131148112D01*
X149527613Y-131157457D01*
X149532391Y-131166969D01*
X149537482Y-131176300D01*
X149541067Y-131182550D01*
X149546128Y-131191127D01*
X149551482Y-131200214D01*
X149556958Y-131209524D01*
X149561339Y-131216988D01*
X149692253Y-131430701D01*
X149698702Y-131440226D01*
X149705408Y-131448653D01*
X149712372Y-131455980D01*
X149720822Y-131463139D01*
X149729622Y-131468803D01*
X149739076Y-131473180D01*
X149749698Y-131476483D01*
X149759733Y-131478458D01*
X149770627Y-131479643D01*
X149782379Y-131480038D01*
X149823167Y-131480038D01*
X149834347Y-131479643D01*
X149844806Y-131478458D01*
X149854543Y-131476483D01*
X149864992Y-131473180D01*
X149874458Y-131468803D01*
X149883176Y-131463139D01*
X149891589Y-131455980D01*
X149898558Y-131448653D01*
X149905305Y-131440226D01*
X149911828Y-131430701D01*
X150043963Y-131216988D01*
X150048984Y-131208537D01*
X150054430Y-131199119D01*
X150059628Y-131189937D01*
X150063747Y-131182550D01*
X150068463Y-131173890D01*
X150073367Y-131164765D01*
X150078264Y-131155485D01*
X150082065Y-131148112D01*
X150087682Y-131149333D01*
X150086447Y-131160065D01*
X150085462Y-131170530D01*
X150084546Y-131182162D01*
X150083836Y-131192747D01*
X150083172Y-131204144D01*
X150082798Y-131211371D01*
X150082282Y-131221182D01*
X150081836Y-131230956D01*
X150081374Y-131243119D01*
X150081020Y-131255223D01*
X150080773Y-131267267D01*
X150080634Y-131279251D01*
X150080599Y-131288796D01*
X150080599Y-131657358D01*
X150081544Y-131667479D01*
X150085033Y-131678245D01*
X150091094Y-131687889D01*
X150098336Y-131695262D01*
X150107466Y-131701810D01*
X150116579Y-131706454D01*
X150127277Y-131710311D01*
X150136978Y-131712830D01*
X150147695Y-131714845D01*
X150159426Y-131716356D01*
X150172172Y-131717364D01*
X150182398Y-131717789D01*
X150193195Y-131717930D01*
X150212735Y-131717930D01*
G37*
G36*
X148869212Y-130967960D02*
G01*
X148880497Y-130968258D01*
X148892018Y-130968754D01*
X148903776Y-130969448D01*
X148915771Y-130970341D01*
X148928002Y-130971433D01*
X148940470Y-130972723D01*
X148953174Y-130974211D01*
X148965921Y-130975875D01*
X148978515Y-130977691D01*
X148990956Y-130979661D01*
X149003244Y-130981782D01*
X149015380Y-130984057D01*
X149027363Y-130986484D01*
X149039194Y-130989064D01*
X149050872Y-130991796D01*
X149053755Y-130992503D01*
X149064944Y-130995415D01*
X149075584Y-130998464D01*
X149085674Y-131001651D01*
X149095215Y-131004975D01*
X149106368Y-131009323D01*
X149116663Y-131013886D01*
X149126098Y-131018663D01*
X149129588Y-131020598D01*
X149138707Y-131026540D01*
X149146785Y-131033733D01*
X149152639Y-131042297D01*
X149154919Y-131052369D01*
X149154755Y-131058463D01*
X149153954Y-131069034D01*
X149152832Y-131079071D01*
X149151500Y-131089005D01*
X149150342Y-131096521D01*
X149148420Y-131107163D01*
X149146147Y-131117945D01*
X149143524Y-131128868D01*
X149140997Y-131138342D01*
X149140098Y-131141454D01*
X149136742Y-131151836D01*
X149133059Y-131161423D01*
X149128449Y-131171407D01*
X149123412Y-131180352D01*
X149118023Y-131187725D01*
X149110165Y-131194423D01*
X149100209Y-131197205D01*
X149093763Y-131196887D01*
X149083352Y-131195475D01*
X149072539Y-131193313D01*
X149062006Y-131190771D01*
X149052337Y-131188168D01*
X149048225Y-131187008D01*
X149037494Y-131184119D01*
X149026119Y-131181241D01*
X149016555Y-131178948D01*
X149006580Y-131176662D01*
X148996192Y-131174383D01*
X148985392Y-131172113D01*
X148974179Y-131169849D01*
X148965534Y-131168234D01*
X148953753Y-131166328D01*
X148941682Y-131164704D01*
X148929321Y-131163363D01*
X148916670Y-131162304D01*
X148903729Y-131161527D01*
X148893833Y-131161130D01*
X148883774Y-131160892D01*
X148873551Y-131160812D01*
X148870764Y-131160819D01*
X148860056Y-131160968D01*
X148850050Y-131161315D01*
X148838529Y-131162028D01*
X148828106Y-131163051D01*
X148817046Y-131164688D01*
X148806140Y-131167163D01*
X148799476Y-131169268D01*
X148790302Y-131173454D01*
X148782170Y-131179368D01*
X148775854Y-131187435D01*
X148773602Y-131192029D01*
X148770244Y-131202218D01*
X148768527Y-131212531D01*
X148768038Y-131222606D01*
X148768038Y-131249228D01*
X148785251Y-131249322D01*
X148802022Y-131249602D01*
X148818353Y-131250070D01*
X148834243Y-131250724D01*
X148849693Y-131251566D01*
X148864701Y-131252594D01*
X148879269Y-131253810D01*
X148893396Y-131255212D01*
X148907082Y-131256802D01*
X148920328Y-131258578D01*
X148933132Y-131260542D01*
X148945496Y-131262692D01*
X148957419Y-131265030D01*
X148968901Y-131267554D01*
X148979943Y-131270266D01*
X148990544Y-131273164D01*
X149000735Y-131276212D01*
X149010610Y-131279369D01*
X149020168Y-131282638D01*
X149029409Y-131286017D01*
X149042676Y-131291294D01*
X149055232Y-131296819D01*
X149067074Y-131302594D01*
X149078204Y-131308618D01*
X149088621Y-131314890D01*
X149098325Y-131321412D01*
X149107317Y-131328182D01*
X149115596Y-131335202D01*
X149120768Y-131339954D01*
X149128114Y-131347158D01*
X149134967Y-131354451D01*
X149143337Y-131364316D01*
X149150828Y-131374342D01*
X149157442Y-131384527D01*
X149163177Y-131394873D01*
X149168036Y-131405380D01*
X149172016Y-131416046D01*
X149175279Y-131426736D01*
X149178107Y-131437311D01*
X149180500Y-131447771D01*
X149182457Y-131458117D01*
X149183980Y-131468349D01*
X149185068Y-131478466D01*
X149185720Y-131488468D01*
X149185938Y-131498356D01*
X149185724Y-131511023D01*
X149185083Y-131523380D01*
X149184014Y-131535425D01*
X149182518Y-131547159D01*
X149180595Y-131558582D01*
X149178244Y-131569694D01*
X149175466Y-131580495D01*
X149172260Y-131590985D01*
X149168627Y-131601164D01*
X149164567Y-131611032D01*
X149160079Y-131620589D01*
X149155163Y-131629835D01*
X149149820Y-131638770D01*
X149144050Y-131647394D01*
X149137852Y-131655707D01*
X149131227Y-131663709D01*
X149124161Y-131671280D01*
X149116699Y-131678363D01*
X149108842Y-131684958D01*
X149100590Y-131691064D01*
X149091943Y-131696681D01*
X149082902Y-131701810D01*
X149073465Y-131706451D01*
X149063633Y-131710603D01*
X149053406Y-131714267D01*
X149042785Y-131717442D01*
X149031768Y-131720129D01*
X149020356Y-131722327D01*
X149008550Y-131724036D01*
X148996348Y-131725258D01*
X148983751Y-131725990D01*
X148970760Y-131726235D01*
X148963247Y-131726183D01*
X148952195Y-131725913D01*
X148941405Y-131725410D01*
X148930877Y-131724676D01*
X148920611Y-131723710D01*
X148910607Y-131722512D01*
X148900864Y-131721083D01*
X148888282Y-131718816D01*
X148876165Y-131716137D01*
X148864514Y-131713046D01*
X148858865Y-131711342D01*
X148847928Y-131707785D01*
X148837471Y-131704030D01*
X148827495Y-131700076D01*
X148818000Y-131695924D01*
X148808986Y-131691573D01*
X148798395Y-131685856D01*
X148788555Y-131679829D01*
X148786679Y-131678596D01*
X148777816Y-131672564D01*
X148769811Y-131666747D01*
X148761339Y-131660049D01*
X148753017Y-131652626D01*
X148745568Y-131644658D01*
X148743487Y-131651973D01*
X148740793Y-131661407D01*
X148737871Y-131671582D01*
X148735066Y-131681294D01*
X148731989Y-131690175D01*
X148727338Y-131699402D01*
X148721144Y-131707428D01*
X148714603Y-131712194D01*
X148704803Y-131715582D01*
X148695010Y-131716465D01*
X148688186Y-131716442D01*
X148677550Y-131716322D01*
X148666433Y-131716099D01*
X148654836Y-131715772D01*
X148644803Y-131715422D01*
X148634437Y-131715000D01*
X148630235Y-131714803D01*
X148619820Y-131714195D01*
X148609536Y-131713420D01*
X148599384Y-131712477D01*
X148589362Y-131711368D01*
X148579472Y-131710092D01*
X148569713Y-131708649D01*
X148558459Y-131706671D01*
X148547960Y-131704402D01*
X148538217Y-131701840D01*
X148527805Y-131698482D01*
X148518422Y-131694727D01*
X148514756Y-131692921D01*
X148505920Y-131686702D01*
X148499909Y-131678387D01*
X148497906Y-131668593D01*
X148498116Y-131661522D01*
X148499005Y-131651435D01*
X148500379Y-131641528D01*
X148502302Y-131630736D01*
X148503606Y-131623250D01*
X148505186Y-131613243D01*
X148506783Y-131602121D01*
X148508127Y-131591999D01*
X148509483Y-131581103D01*
X148510851Y-131569431D01*
X148511106Y-131566980D01*
X148512047Y-131556699D01*
X148512858Y-131545654D01*
X148513539Y-131533847D01*
X148514090Y-131521276D01*
X148514419Y-131511347D01*
X148514674Y-131500988D01*
X148514857Y-131490201D01*
X148514966Y-131478984D01*
X148515003Y-131467337D01*
X148515003Y-131404078D01*
X148768038Y-131404078D01*
X148768038Y-131505439D01*
X148773341Y-131507987D01*
X148783065Y-131512331D01*
X148793021Y-131516367D01*
X148803209Y-131520094D01*
X148808898Y-131522013D01*
X148818957Y-131525136D01*
X148828785Y-131527834D01*
X148838380Y-131530108D01*
X148840488Y-131530522D01*
X148851054Y-131532191D01*
X148861668Y-131533193D01*
X148872330Y-131533527D01*
X148876978Y-131533467D01*
X148887864Y-131532791D01*
X148897701Y-131531363D01*
X148908119Y-131528658D01*
X148918364Y-131524135D01*
X148926552Y-131518140D01*
X148929433Y-131515112D01*
X148935730Y-131506094D01*
X148939586Y-131497077D01*
X148941901Y-131487007D01*
X148942672Y-131475886D01*
X148942597Y-131472234D01*
X148941470Y-131461975D01*
X148938631Y-131451800D01*
X148934123Y-131442913D01*
X148931166Y-131438840D01*
X148923533Y-131431446D01*
X148914706Y-131425648D01*
X148905303Y-131421175D01*
X148902690Y-131420124D01*
X148892777Y-131416715D01*
X148883332Y-131414127D01*
X148873010Y-131411849D01*
X148861813Y-131409880D01*
X148851814Y-131408475D01*
X148847622Y-131407942D01*
X148836535Y-131406762D01*
X148824577Y-131405796D01*
X148814383Y-131405177D01*
X148803633Y-131404697D01*
X148792325Y-131404353D01*
X148780460Y-131404147D01*
X148768038Y-131404078D01*
X148515003Y-131404078D01*
X148515003Y-131219675D01*
X148515131Y-131209490D01*
X148515518Y-131199451D01*
X148516162Y-131189557D01*
X148517063Y-131179810D01*
X148518666Y-131167041D01*
X148520727Y-131154531D01*
X148523246Y-131142281D01*
X148526223Y-131130290D01*
X148529657Y-131118558D01*
X148533676Y-131107155D01*
X148538404Y-131096149D01*
X148543842Y-131085540D01*
X148549990Y-131075327D01*
X148556848Y-131065512D01*
X148564416Y-131056093D01*
X148572694Y-131047072D01*
X148581681Y-131038447D01*
X148584046Y-131036340D01*
X148594098Y-131028219D01*
X148602258Y-131022449D01*
X148610951Y-131016953D01*
X148620176Y-131011733D01*
X148629933Y-131006787D01*
X148640223Y-131002116D01*
X148651045Y-130997719D01*
X148662399Y-130993598D01*
X148674286Y-130989751D01*
X148686705Y-130986179D01*
X148695275Y-130983961D01*
X148708666Y-130980902D01*
X148722701Y-130978165D01*
X148732415Y-130976519D01*
X148742416Y-130975016D01*
X148752703Y-130973657D01*
X148763276Y-130972440D01*
X148774135Y-130971367D01*
X148785280Y-130970437D01*
X148796712Y-130969650D01*
X148808430Y-130969006D01*
X148820434Y-130968505D01*
X148832724Y-130968147D01*
X148845301Y-130967932D01*
X148858164Y-130967861D01*
X148869212Y-130967960D01*
G37*
G36*
X148285170Y-131717930D02*
G01*
X148295433Y-131717802D01*
X148308275Y-131717229D01*
X148320155Y-131716199D01*
X148331073Y-131714710D01*
X148341030Y-131712764D01*
X148352123Y-131709687D01*
X148361714Y-131705895D01*
X148366747Y-131703276D01*
X148375297Y-131697174D01*
X148382077Y-131690041D01*
X148387752Y-131680417D01*
X148390701Y-131671052D01*
X148391880Y-131660656D01*
X148391904Y-131658824D01*
X148391904Y-131224071D01*
X148391937Y-131211466D01*
X148392033Y-131199479D01*
X148392194Y-131188110D01*
X148392420Y-131177360D01*
X148392709Y-131167228D01*
X148393196Y-131154680D01*
X148393797Y-131143231D01*
X148394513Y-131132881D01*
X148395568Y-131121489D01*
X148396642Y-131111315D01*
X148397948Y-131100256D01*
X148399270Y-131090450D01*
X148400834Y-131080594D01*
X148402651Y-131071420D01*
X148404454Y-131061392D01*
X148405590Y-131051460D01*
X148406057Y-131041624D01*
X148406070Y-131039668D01*
X148404795Y-131029866D01*
X148400387Y-131020154D01*
X148393728Y-131012473D01*
X148389950Y-131009382D01*
X148381127Y-131003764D01*
X148372355Y-130999450D01*
X148362601Y-130995697D01*
X148351865Y-130992504D01*
X148346964Y-130991308D01*
X148336851Y-130989073D01*
X148326482Y-130987129D01*
X148315854Y-130985478D01*
X148304969Y-130984118D01*
X148293826Y-130983050D01*
X148290055Y-130982759D01*
X148278724Y-130982012D01*
X148267443Y-130981420D01*
X148256215Y-130980982D01*
X148245038Y-130980699D01*
X148233913Y-130980570D01*
X148230216Y-130980561D01*
X148218635Y-130980862D01*
X148208257Y-130981763D01*
X148197668Y-130983575D01*
X148187570Y-130986647D01*
X148182344Y-130989110D01*
X148174288Y-130995017D01*
X148167429Y-131003398D01*
X148162338Y-131012923D01*
X148159141Y-131021350D01*
X148156287Y-131031167D01*
X148153588Y-131042668D01*
X148151457Y-131053537D01*
X148149433Y-131065575D01*
X148147891Y-131076047D01*
X148146418Y-131087267D01*
X148145708Y-131093157D01*
X148141716Y-131084132D01*
X148136318Y-131073225D01*
X148130467Y-131062737D01*
X148124163Y-131052665D01*
X148117406Y-131043011D01*
X148110195Y-131033774D01*
X148105652Y-131028433D01*
X148097841Y-131019948D01*
X148089828Y-131012047D01*
X148081613Y-131004730D01*
X148073194Y-130997998D01*
X148064573Y-130991850D01*
X148055749Y-130986287D01*
X148052163Y-130984225D01*
X148043245Y-130979511D01*
X148032781Y-130974908D01*
X148022575Y-130971456D01*
X148012625Y-130969155D01*
X148001344Y-130967925D01*
X147998185Y-130967861D01*
X147986656Y-130968410D01*
X147976432Y-130970059D01*
X147966154Y-130973371D01*
X147956582Y-130978989D01*
X147951779Y-130983492D01*
X147945581Y-130992422D01*
X147941611Y-131002265D01*
X147939287Y-131012208D01*
X147937958Y-131023543D01*
X147937613Y-131034050D01*
X147937899Y-131044741D01*
X147938540Y-131055938D01*
X147939261Y-131065878D01*
X147940189Y-131077141D01*
X147940544Y-131081189D01*
X147941490Y-131091583D01*
X147942652Y-131102155D01*
X147944028Y-131112906D01*
X147945619Y-131123836D01*
X147947425Y-131134945D01*
X147949445Y-131146233D01*
X147950313Y-131150799D01*
X147952593Y-131162009D01*
X147955160Y-131172742D01*
X147958013Y-131182999D01*
X147961152Y-131192778D01*
X147964577Y-131202080D01*
X147969065Y-131212613D01*
X147969853Y-131214302D01*
X147974864Y-131223349D01*
X147981341Y-131231539D01*
X147989573Y-131237778D01*
X147999892Y-131240820D01*
X148002337Y-131240924D01*
X148012197Y-131239597D01*
X148021661Y-131236086D01*
X148030587Y-131231049D01*
X148032623Y-131229689D01*
X148041172Y-131224774D01*
X148050697Y-131221263D01*
X148061199Y-131219156D01*
X148071191Y-131218465D01*
X148072679Y-131218454D01*
X148083655Y-131219385D01*
X148094111Y-131222178D01*
X148104049Y-131226834D01*
X148112319Y-131232436D01*
X148113467Y-131233353D01*
X148120944Y-131240208D01*
X148127345Y-131247952D01*
X148132672Y-131256584D01*
X148136922Y-131266104D01*
X148138869Y-131271943D01*
X148138869Y-131658824D01*
X148139762Y-131669391D01*
X148142441Y-131678928D01*
X148147824Y-131688752D01*
X148154372Y-131696056D01*
X148162707Y-131702330D01*
X148164270Y-131703276D01*
X148174794Y-131708256D01*
X148185231Y-131711619D01*
X148197182Y-131714267D01*
X148207833Y-131715870D01*
X148219454Y-131717015D01*
X148232044Y-131717701D01*
X148242122Y-131717916D01*
X148245603Y-131717930D01*
X148285170Y-131717930D01*
G37*
G36*
X147555373Y-131726235D02*
G01*
X147566546Y-131726141D01*
X147577566Y-131725862D01*
X147588433Y-131725395D01*
X147599145Y-131724742D01*
X147609705Y-131723903D01*
X147620110Y-131722877D01*
X147630362Y-131721665D01*
X147640461Y-131720266D01*
X147650405Y-131718681D01*
X147660197Y-131716909D01*
X147669834Y-131714950D01*
X147688649Y-131710474D01*
X147706848Y-131705251D01*
X147724434Y-131699282D01*
X147741405Y-131692568D01*
X147757762Y-131685107D01*
X147773504Y-131676900D01*
X147788632Y-131667947D01*
X147803145Y-131658248D01*
X147817044Y-131647802D01*
X147830328Y-131636611D01*
X147836740Y-131630736D01*
X147848985Y-131618405D01*
X147860440Y-131605350D01*
X147871104Y-131591569D01*
X147880979Y-131577063D01*
X147890063Y-131561833D01*
X147898358Y-131545877D01*
X147905863Y-131529196D01*
X147912578Y-131511789D01*
X147918503Y-131493658D01*
X147923637Y-131474802D01*
X147925909Y-131465102D01*
X147927982Y-131455221D01*
X147929858Y-131445158D01*
X147931537Y-131434914D01*
X147933018Y-131424489D01*
X147934302Y-131413882D01*
X147935388Y-131403095D01*
X147936277Y-131392126D01*
X147936968Y-131380975D01*
X147937462Y-131369644D01*
X147937758Y-131358131D01*
X147937857Y-131346437D01*
X147937759Y-131334744D01*
X147937465Y-131323233D01*
X147936975Y-131311905D01*
X147936288Y-131300760D01*
X147935406Y-131289797D01*
X147934328Y-131279017D01*
X147933053Y-131268420D01*
X147931583Y-131258006D01*
X147929916Y-131247774D01*
X147928054Y-131237725D01*
X147925995Y-131227859D01*
X147923740Y-131218175D01*
X147921290Y-131208674D01*
X147915800Y-131190221D01*
X147909526Y-131172498D01*
X147902468Y-131155506D01*
X147894625Y-131139244D01*
X147885998Y-131123714D01*
X147876587Y-131108914D01*
X147866392Y-131094846D01*
X147855413Y-131081508D01*
X147843649Y-131068901D01*
X147837473Y-131062871D01*
X147824551Y-131051366D01*
X147810942Y-131040603D01*
X147796646Y-131030582D01*
X147781664Y-131021304D01*
X147765994Y-131012768D01*
X147749637Y-131004974D01*
X147732594Y-130997923D01*
X147714863Y-130991613D01*
X147696446Y-130986046D01*
X147686979Y-130983541D01*
X147677341Y-130981221D01*
X147667532Y-130979087D01*
X147657550Y-130977139D01*
X147647397Y-130975376D01*
X147637072Y-130973799D01*
X147626575Y-130972407D01*
X147615907Y-130971201D01*
X147605066Y-130970180D01*
X147594055Y-130969345D01*
X147582871Y-130968696D01*
X147571515Y-130968232D01*
X147559988Y-130967953D01*
X147548290Y-130967861D01*
X147538401Y-130967960D01*
X147528521Y-130968258D01*
X147518648Y-130968754D01*
X147508783Y-130969448D01*
X147498926Y-130970341D01*
X147489076Y-130971433D01*
X147479234Y-130972723D01*
X147469399Y-130974211D01*
X147459656Y-130975867D01*
X147447724Y-130978131D01*
X147436067Y-130980609D01*
X147424683Y-130983302D01*
X147413574Y-130986209D01*
X147402740Y-130989332D01*
X147396370Y-130991308D01*
X147386095Y-130994679D01*
X147376488Y-130998230D01*
X147365840Y-131002726D01*
X147356154Y-131007480D01*
X147347430Y-131012492D01*
X147342149Y-131015976D01*
X147334154Y-131022208D01*
X147327422Y-131029672D01*
X147322914Y-131038508D01*
X147321632Y-131046751D01*
X147322166Y-131057696D01*
X147323510Y-131069001D01*
X147325314Y-131079975D01*
X147327275Y-131090025D01*
X147329655Y-131100898D01*
X147330181Y-131103171D01*
X147333001Y-131114359D01*
X147336120Y-131125177D01*
X147339537Y-131135625D01*
X147343251Y-131145704D01*
X147347265Y-131155413D01*
X147351576Y-131164752D01*
X147353384Y-131168384D01*
X147359060Y-131178179D01*
X147365096Y-131185947D01*
X147372594Y-131192448D01*
X147381765Y-131196501D01*
X147387822Y-131197205D01*
X147397650Y-131196541D01*
X147407323Y-131195010D01*
X147417154Y-131192904D01*
X147422504Y-131191587D01*
X147432354Y-131189129D01*
X147442881Y-131186672D01*
X147452443Y-131184565D01*
X147462504Y-131182459D01*
X147473063Y-131180352D01*
X147484094Y-131178443D01*
X147495571Y-131176929D01*
X147505477Y-131175969D01*
X147515693Y-131175283D01*
X147526218Y-131174871D01*
X147537054Y-131174734D01*
X147551133Y-131175063D01*
X147564426Y-131176048D01*
X147576933Y-131177690D01*
X147588654Y-131179989D01*
X147599590Y-131182945D01*
X147609740Y-131186558D01*
X147619105Y-131190828D01*
X147627684Y-131195754D01*
X147637900Y-131203345D01*
X147646719Y-131212103D01*
X147654276Y-131222324D01*
X147659282Y-131231221D01*
X147663721Y-131241174D01*
X147667594Y-131252184D01*
X147670899Y-131264249D01*
X147673639Y-131277371D01*
X147675811Y-131291549D01*
X147676944Y-131301588D01*
X147677826Y-131312096D01*
X147678456Y-131323074D01*
X147678833Y-131334521D01*
X147678959Y-131346437D01*
X147678842Y-131357164D01*
X147678490Y-131367545D01*
X147677903Y-131377581D01*
X147676583Y-131391987D01*
X147674735Y-131405616D01*
X147672358Y-131418468D01*
X147669454Y-131430543D01*
X147666021Y-131441841D01*
X147662061Y-131452362D01*
X147657572Y-131462106D01*
X147652555Y-131471072D01*
X147648918Y-131476618D01*
X147640674Y-131486636D01*
X147631088Y-131495318D01*
X147623016Y-131500953D01*
X147614189Y-131505837D01*
X147604607Y-131509969D01*
X147594268Y-131513350D01*
X147583174Y-131515980D01*
X147571325Y-131517858D01*
X147558719Y-131518985D01*
X147545359Y-131519361D01*
X147534631Y-131519220D01*
X147524186Y-131518796D01*
X147514023Y-131518090D01*
X147504143Y-131517102D01*
X147492189Y-131515469D01*
X147480677Y-131513395D01*
X147469606Y-131510880D01*
X147467445Y-131510324D01*
X147456839Y-131507430D01*
X147446699Y-131504547D01*
X147437023Y-131501677D01*
X147426027Y-131498248D01*
X147415700Y-131494836D01*
X147407606Y-131492006D01*
X147397030Y-131488485D01*
X147387530Y-131485828D01*
X147376895Y-131483684D01*
X147368038Y-131482969D01*
X147357530Y-131485249D01*
X147349001Y-131491103D01*
X147342164Y-131499180D01*
X147336769Y-131508299D01*
X147335066Y-131511789D01*
X147331029Y-131520969D01*
X147327314Y-131530494D01*
X147323921Y-131540365D01*
X147320850Y-131550582D01*
X147318101Y-131561145D01*
X147315674Y-131572054D01*
X147314793Y-131576514D01*
X147312753Y-131587370D01*
X147311058Y-131597499D01*
X147309481Y-131608693D01*
X147308402Y-131618839D01*
X147307773Y-131629353D01*
X147307710Y-131633422D01*
X147309069Y-131643131D01*
X147313145Y-131652473D01*
X147318940Y-131660347D01*
X147326816Y-131667941D01*
X147329448Y-131670059D01*
X147338098Y-131676233D01*
X147347743Y-131682114D01*
X147356542Y-131686793D01*
X147366033Y-131691269D01*
X147376215Y-131695542D01*
X147387089Y-131699612D01*
X147398500Y-131703374D01*
X147407903Y-131706194D01*
X147417551Y-131708846D01*
X147427443Y-131711331D01*
X147437579Y-131713647D01*
X147447959Y-131715796D01*
X147458584Y-131717776D01*
X147466712Y-131719152D01*
X147477608Y-131720812D01*
X147488557Y-131722250D01*
X147499559Y-131723468D01*
X147510615Y-131724464D01*
X147521724Y-131725239D01*
X147532887Y-131725792D01*
X147544103Y-131726124D01*
X147555373Y-131726235D01*
G37*
G36*
X147001430Y-131726235D02*
G01*
X147012757Y-131726147D01*
X147024144Y-131725884D01*
X147035593Y-131725445D01*
X147047103Y-131724830D01*
X147058674Y-131724040D01*
X147070306Y-131723075D01*
X147081999Y-131721934D01*
X147093754Y-131720617D01*
X147105374Y-131719113D01*
X147116789Y-131717411D01*
X147127997Y-131715511D01*
X147139000Y-131713412D01*
X147149796Y-131711115D01*
X147160386Y-131708619D01*
X147170770Y-131705924D01*
X147180948Y-131703032D01*
X147190722Y-131699963D01*
X147200014Y-131696742D01*
X147210954Y-131692501D01*
X147221142Y-131688022D01*
X147230579Y-131683304D01*
X147239265Y-131678348D01*
X147245673Y-131674211D01*
X147253973Y-131667694D01*
X147261486Y-131659591D01*
X147266662Y-131650951D01*
X147269715Y-131640418D01*
X147270097Y-131634888D01*
X147269805Y-131623612D01*
X147268928Y-131612682D01*
X147267467Y-131602098D01*
X147265422Y-131591859D01*
X147262792Y-131581967D01*
X147259578Y-131572420D01*
X147258129Y-131568698D01*
X147253495Y-131558036D01*
X147248569Y-131548216D01*
X147243351Y-131539237D01*
X147237842Y-131531100D01*
X147231045Y-131522670D01*
X147230041Y-131521559D01*
X147222103Y-131513866D01*
X147213465Y-131507838D01*
X147204230Y-131504403D01*
X147199755Y-131503974D01*
X147189446Y-131504880D01*
X147178985Y-131507246D01*
X147168746Y-131510581D01*
X147161897Y-131513255D01*
X147151564Y-131517255D01*
X147141907Y-131520759D01*
X147131511Y-131524331D01*
X147120377Y-131527971D01*
X147110535Y-131531058D01*
X147106454Y-131532306D01*
X147095853Y-131535120D01*
X147084811Y-131537458D01*
X147073328Y-131539318D01*
X147061403Y-131540702D01*
X147051545Y-131541465D01*
X147041405Y-131541923D01*
X147030983Y-131542076D01*
X147020915Y-131541837D01*
X147010062Y-131540921D01*
X146999092Y-131538984D01*
X146988788Y-131535626D01*
X146982623Y-131532306D01*
X146974766Y-131525236D01*
X146969819Y-131516545D01*
X146967782Y-131506231D01*
X146967724Y-131503974D01*
X146968961Y-131493425D01*
X146972670Y-131484035D01*
X146978853Y-131475805D01*
X146983356Y-131471734D01*
X146991538Y-131465521D01*
X147000697Y-131459583D01*
X147009513Y-131454612D01*
X147019076Y-131449852D01*
X147021946Y-131448531D01*
X147032261Y-131443735D01*
X147041363Y-131439476D01*
X147050705Y-131435080D01*
X147060288Y-131430546D01*
X147070111Y-131425875D01*
X147071772Y-131425083D01*
X147081531Y-131419787D01*
X147091421Y-131414431D01*
X147101442Y-131409015D01*
X147111595Y-131403540D01*
X147121878Y-131398005D01*
X147132293Y-131392411D01*
X147136496Y-131390157D01*
X147146880Y-131384241D01*
X147156966Y-131377944D01*
X147166753Y-131371266D01*
X147176243Y-131364206D01*
X147185434Y-131356764D01*
X147194327Y-131348941D01*
X147197801Y-131345704D01*
X147206111Y-131337287D01*
X147213944Y-131328369D01*
X147221300Y-131318950D01*
X147228179Y-131309030D01*
X147233338Y-131300733D01*
X147238193Y-131292116D01*
X147242742Y-131283178D01*
X147246863Y-131273779D01*
X147250435Y-131263898D01*
X147253458Y-131253537D01*
X147255931Y-131242695D01*
X147257854Y-131231372D01*
X147259228Y-131219568D01*
X147260052Y-131207283D01*
X147260327Y-131194518D01*
X147260018Y-131181241D01*
X147259091Y-131168337D01*
X147257545Y-131155807D01*
X147255381Y-131143651D01*
X147252599Y-131131868D01*
X147249199Y-131120458D01*
X147245180Y-131109422D01*
X147240544Y-131098760D01*
X147235288Y-131088471D01*
X147229415Y-131078555D01*
X147225156Y-131072152D01*
X147218328Y-131062839D01*
X147211031Y-131053951D01*
X147203267Y-131045489D01*
X147195034Y-131037451D01*
X147186334Y-131029838D01*
X147177165Y-131022650D01*
X147167529Y-131015888D01*
X147157425Y-131009550D01*
X147146852Y-131003637D01*
X147135812Y-130998150D01*
X147128192Y-130994727D01*
X147116401Y-130989926D01*
X147104292Y-130985597D01*
X147091866Y-130981740D01*
X147079122Y-130978355D01*
X147066060Y-130975443D01*
X147052681Y-130973003D01*
X147038984Y-130971035D01*
X147024969Y-130969540D01*
X147010636Y-130968517D01*
X146995986Y-130967966D01*
X146986042Y-130967861D01*
X146974445Y-130967968D01*
X146962548Y-130968290D01*
X146950354Y-130968827D01*
X146940384Y-130969411D01*
X146930223Y-130970132D01*
X146919872Y-130970990D01*
X146909329Y-130971987D01*
X146906664Y-130972257D01*
X146895963Y-130973387D01*
X146885353Y-130974699D01*
X146874836Y-130976195D01*
X146864410Y-130977875D01*
X146854075Y-130979737D01*
X146843832Y-130981782D01*
X146833681Y-130984011D01*
X146823621Y-130986423D01*
X146813783Y-130988953D01*
X146802150Y-130992363D01*
X146791257Y-130996047D01*
X146781103Y-131000005D01*
X146771689Y-131004238D01*
X146763014Y-131008744D01*
X146758164Y-131011580D01*
X146749531Y-131017608D01*
X146741718Y-131025292D01*
X146736335Y-131033676D01*
X146733160Y-131044118D01*
X146732763Y-131049682D01*
X146732989Y-131059691D01*
X146733669Y-131069570D01*
X146734802Y-131079317D01*
X146736760Y-131090840D01*
X146739370Y-131102174D01*
X146742044Y-131111475D01*
X146745587Y-131122163D01*
X146749440Y-131132061D01*
X146753602Y-131141168D01*
X146758847Y-131150795D01*
X146764514Y-131159347D01*
X146771078Y-131167361D01*
X146779197Y-131174159D01*
X146788814Y-131177594D01*
X146790404Y-131177665D01*
X146800350Y-131177219D01*
X146811138Y-131175879D01*
X146820770Y-131174081D01*
X146830987Y-131171662D01*
X146841789Y-131168623D01*
X146853174Y-131164965D01*
X146862711Y-131161988D01*
X146872760Y-131159408D01*
X146883319Y-131157225D01*
X146894390Y-131155439D01*
X146905973Y-131154050D01*
X146918067Y-131153058D01*
X146930672Y-131152462D01*
X146940461Y-131152276D01*
X146943788Y-131152264D01*
X146953898Y-131152455D01*
X146964912Y-131153188D01*
X146974706Y-131154470D01*
X146984592Y-131156660D01*
X146993858Y-131160080D01*
X147002359Y-131166005D01*
X147007711Y-131174315D01*
X147009915Y-131185010D01*
X147009978Y-131187435D01*
X147008645Y-131197179D01*
X147004037Y-131206691D01*
X146997075Y-131214069D01*
X146993126Y-131216988D01*
X146983905Y-131222652D01*
X146974535Y-131227682D01*
X146965537Y-131232050D01*
X146955645Y-131236469D01*
X146946719Y-131240191D01*
X146937275Y-131244152D01*
X146927414Y-131248554D01*
X146917135Y-131253397D01*
X146906438Y-131258681D01*
X146897581Y-131263227D01*
X146888456Y-131268054D01*
X146879064Y-131273164D01*
X146869003Y-131278597D01*
X146858788Y-131284270D01*
X146850157Y-131289181D01*
X146841419Y-131294259D01*
X146832574Y-131299504D01*
X146823621Y-131304916D01*
X146814651Y-131310584D01*
X146805909Y-131316598D01*
X146797392Y-131322958D01*
X146789103Y-131329664D01*
X146781039Y-131336716D01*
X146773203Y-131344114D01*
X146770132Y-131347170D01*
X146762649Y-131355117D01*
X146755620Y-131363542D01*
X146749044Y-131372443D01*
X146742922Y-131381822D01*
X146737252Y-131391677D01*
X146732036Y-131402010D01*
X146730076Y-131406277D01*
X146725573Y-131417366D01*
X146722520Y-131426711D01*
X146719955Y-131436475D01*
X146717879Y-131446658D01*
X146716292Y-131457262D01*
X146715192Y-131468285D01*
X146714582Y-131479729D01*
X146714444Y-131488586D01*
X146714743Y-131501365D01*
X146715638Y-131513874D01*
X146717130Y-131526112D01*
X146719219Y-131538080D01*
X146721904Y-131549777D01*
X146725186Y-131561204D01*
X146729065Y-131572360D01*
X146733541Y-131583246D01*
X146738614Y-131593861D01*
X146744283Y-131604206D01*
X146748394Y-131610952D01*
X146754980Y-131620784D01*
X146762098Y-131630221D01*
X146769749Y-131639262D01*
X146777932Y-131647909D01*
X146786648Y-131656161D01*
X146795896Y-131664018D01*
X146805676Y-131671479D01*
X146815988Y-131678546D01*
X146826833Y-131685218D01*
X146838211Y-131691495D01*
X146846091Y-131695460D01*
X146858330Y-131700960D01*
X146871050Y-131705919D01*
X146884250Y-131710336D01*
X146897932Y-131714213D01*
X146912094Y-131717549D01*
X146921803Y-131719473D01*
X146931725Y-131721156D01*
X146941861Y-131722598D01*
X146952211Y-131723800D01*
X146962775Y-131724762D01*
X146973552Y-131725483D01*
X146984543Y-131725964D01*
X146995747Y-131726205D01*
X147001430Y-131726235D01*
G37*
G36*
X146332480Y-130968040D02*
G01*
X146346191Y-130968578D01*
X146359660Y-130969475D01*
X146372886Y-130970730D01*
X146385870Y-130972345D01*
X146398612Y-130974318D01*
X146411111Y-130976650D01*
X146423368Y-130979340D01*
X146435383Y-130982389D01*
X146447155Y-130985797D01*
X146458685Y-130989564D01*
X146469973Y-130993689D01*
X146481018Y-130998173D01*
X146491821Y-131003016D01*
X146502382Y-131008218D01*
X146512700Y-131013778D01*
X146522749Y-131019639D01*
X146532503Y-131025803D01*
X146541960Y-131032271D01*
X146551122Y-131039042D01*
X146559988Y-131046117D01*
X146568559Y-131053494D01*
X146576834Y-131061176D01*
X146584813Y-131069160D01*
X146592496Y-131077448D01*
X146599883Y-131086040D01*
X146606975Y-131094935D01*
X146613771Y-131104133D01*
X146620271Y-131113634D01*
X146626475Y-131123440D01*
X146632384Y-131133548D01*
X146637996Y-131143960D01*
X146643261Y-131154625D01*
X146648186Y-131165556D01*
X146652771Y-131176752D01*
X146657017Y-131188213D01*
X146660923Y-131199940D01*
X146664489Y-131211932D01*
X146667716Y-131224189D01*
X146670603Y-131236711D01*
X146673150Y-131249498D01*
X146675358Y-131262551D01*
X146677226Y-131275869D01*
X146678754Y-131289452D01*
X146679943Y-131303301D01*
X146680792Y-131317414D01*
X146681302Y-131331793D01*
X146681472Y-131346437D01*
X146681381Y-131357952D01*
X146681109Y-131369295D01*
X146680656Y-131380465D01*
X146680021Y-131391462D01*
X146679206Y-131402286D01*
X146678209Y-131412938D01*
X146677030Y-131423417D01*
X146675671Y-131433723D01*
X146674130Y-131443857D01*
X146672408Y-131453818D01*
X146670505Y-131463606D01*
X146668420Y-131473222D01*
X146663707Y-131491935D01*
X146658269Y-131509958D01*
X146652105Y-131527289D01*
X146645217Y-131543930D01*
X146637603Y-131559880D01*
X146629265Y-131575140D01*
X146620201Y-131589709D01*
X146610412Y-131603587D01*
X146599898Y-131616774D01*
X146588659Y-131629270D01*
X146576684Y-131641012D01*
X146563960Y-131651996D01*
X146550489Y-131662223D01*
X146536269Y-131671692D01*
X146521302Y-131680404D01*
X146505586Y-131688358D01*
X146489123Y-131695555D01*
X146471911Y-131701994D01*
X146453952Y-131707675D01*
X146435244Y-131712599D01*
X146425610Y-131714777D01*
X146415789Y-131716765D01*
X146405781Y-131718565D01*
X146395585Y-131720174D01*
X146385203Y-131721595D01*
X146374634Y-131722826D01*
X146363878Y-131723867D01*
X146352934Y-131724720D01*
X146341804Y-131725382D01*
X146330487Y-131725856D01*
X146318983Y-131726140D01*
X146307292Y-131726235D01*
X146299237Y-131726207D01*
X146287292Y-131726062D01*
X146275510Y-131725792D01*
X146263890Y-131725398D01*
X146252434Y-131724879D01*
X146241141Y-131724236D01*
X146230012Y-131723468D01*
X146219045Y-131722576D01*
X146208242Y-131721559D01*
X146197601Y-131720417D01*
X146187124Y-131719152D01*
X146180221Y-131718245D01*
X146170086Y-131716807D01*
X146160212Y-131715274D01*
X146147454Y-131713084D01*
X146135161Y-131710725D01*
X146123335Y-131708199D01*
X146111974Y-131705505D01*
X146101078Y-131702642D01*
X146090648Y-131699612D01*
X146085621Y-131698008D01*
X146075996Y-131694703D01*
X146064771Y-131690390D01*
X146054439Y-131685874D01*
X146045002Y-131681154D01*
X146036460Y-131676233D01*
X146027389Y-131670059D01*
X146024668Y-131667941D01*
X146016527Y-131660347D01*
X146010537Y-131652473D01*
X146006323Y-131643131D01*
X146004919Y-131633422D01*
X146005453Y-131622706D01*
X146006797Y-131611977D01*
X146008600Y-131601776D01*
X146011005Y-131590648D01*
X146013467Y-131580666D01*
X146014531Y-131576566D01*
X146017416Y-131566509D01*
X146020623Y-131556726D01*
X146024152Y-131547218D01*
X146028003Y-131537984D01*
X146032176Y-131529024D01*
X146036671Y-131520338D01*
X146038521Y-131516996D01*
X146044303Y-131508263D01*
X146051483Y-131500528D01*
X146060260Y-131494922D01*
X146070865Y-131492739D01*
X146076795Y-131493039D01*
X146086626Y-131494375D01*
X146097031Y-131496420D01*
X146107289Y-131498824D01*
X146116782Y-131501287D01*
X146126908Y-131503906D01*
X146137595Y-131506573D01*
X146148843Y-131509287D01*
X146160650Y-131512049D01*
X146170500Y-131514293D01*
X146180709Y-131516567D01*
X146191276Y-131518872D01*
X146202118Y-131520991D01*
X146213151Y-131522826D01*
X146224375Y-131524379D01*
X146235790Y-131525650D01*
X146247395Y-131526639D01*
X146259191Y-131527345D01*
X146271178Y-131527768D01*
X146283356Y-131527909D01*
X146296198Y-131527570D01*
X146308711Y-131526551D01*
X146320897Y-131524853D01*
X146332754Y-131522475D01*
X146344283Y-131519418D01*
X146355484Y-131515682D01*
X146366356Y-131511267D01*
X146376901Y-131506172D01*
X146379455Y-131504766D01*
X146388863Y-131498503D01*
X146396972Y-131491218D01*
X146403784Y-131482910D01*
X146409299Y-131473579D01*
X146413516Y-131463226D01*
X146416435Y-131451849D01*
X146418057Y-131439450D01*
X146418422Y-131429480D01*
X146086496Y-131429480D01*
X146081153Y-131429205D01*
X146070284Y-131427007D01*
X146060574Y-131423280D01*
X146050676Y-131417870D01*
X146042044Y-131411894D01*
X146039171Y-131409664D01*
X146030885Y-131402582D01*
X146023097Y-131394917D01*
X146015807Y-131386668D01*
X146009015Y-131377836D01*
X146002721Y-131368419D01*
X145997242Y-131358696D01*
X145992898Y-131349128D01*
X145989686Y-131339714D01*
X145987372Y-131328926D01*
X145986601Y-131318349D01*
X145986747Y-131303909D01*
X145987185Y-131289777D01*
X145987907Y-131276095D01*
X146229867Y-131276095D01*
X146418422Y-131276095D01*
X146417892Y-131263849D01*
X146417033Y-131252388D01*
X146415846Y-131241714D01*
X146414331Y-131231826D01*
X146411976Y-131220572D01*
X146409107Y-131210545D01*
X146404989Y-131200136D01*
X146401856Y-131194052D01*
X146395693Y-131184692D01*
X146388665Y-131176969D01*
X146380773Y-131170881D01*
X146372016Y-131166430D01*
X146363839Y-131163525D01*
X146353539Y-131160895D01*
X146342421Y-131159084D01*
X146332240Y-131158182D01*
X146321458Y-131157882D01*
X146310230Y-131158256D01*
X146299751Y-131159378D01*
X146290019Y-131161248D01*
X146278906Y-131164637D01*
X146268963Y-131169195D01*
X146260188Y-131174922D01*
X146252581Y-131181817D01*
X146248522Y-131186713D01*
X146242644Y-131196686D01*
X146238740Y-131206295D01*
X146235545Y-131217355D01*
X146233061Y-131229865D01*
X146231663Y-131240199D01*
X146230665Y-131251348D01*
X146230066Y-131263314D01*
X146229867Y-131276095D01*
X145987907Y-131276095D01*
X145987915Y-131275951D01*
X145988936Y-131262433D01*
X145990250Y-131249222D01*
X145991856Y-131236318D01*
X145993753Y-131223721D01*
X145995943Y-131211432D01*
X145998425Y-131199450D01*
X146001198Y-131187775D01*
X146004264Y-131176407D01*
X146007621Y-131165346D01*
X146011270Y-131154593D01*
X146015212Y-131144147D01*
X146019445Y-131134008D01*
X146023970Y-131124176D01*
X146028755Y-131114647D01*
X146033827Y-131105415D01*
X146039188Y-131096481D01*
X146044837Y-131087845D01*
X146050775Y-131079506D01*
X146057000Y-131071465D01*
X146063513Y-131063722D01*
X146070315Y-131056277D01*
X146077405Y-131049129D01*
X146084783Y-131042278D01*
X146092449Y-131035726D01*
X146100403Y-131029471D01*
X146108645Y-131023514D01*
X146117175Y-131017854D01*
X146125994Y-131012492D01*
X146135100Y-131007428D01*
X146144461Y-131002637D01*
X146154102Y-130998154D01*
X146164023Y-130993981D01*
X146174225Y-130990117D01*
X146184707Y-130986562D01*
X146195470Y-130983317D01*
X146206514Y-130980380D01*
X146217838Y-130977752D01*
X146229442Y-130975434D01*
X146241327Y-130973425D01*
X146253492Y-130971725D01*
X146265938Y-130970334D01*
X146278665Y-130969252D01*
X146291672Y-130968479D01*
X146304959Y-130968015D01*
X146318527Y-130967861D01*
X146332480Y-130968040D01*
G37*
G36*
X145790962Y-131717930D02*
G01*
X145801225Y-131717802D01*
X145814067Y-131717229D01*
X145825947Y-131716199D01*
X145836865Y-131714710D01*
X145846822Y-131712764D01*
X145857915Y-131709687D01*
X145867506Y-131705895D01*
X145872539Y-131703276D01*
X145881089Y-131697174D01*
X145887869Y-131690041D01*
X145893544Y-131680417D01*
X145896493Y-131671052D01*
X145897672Y-131660656D01*
X145897696Y-131658824D01*
X145897696Y-130711894D01*
X145896812Y-130701335D01*
X145894159Y-130691824D01*
X145888828Y-130682052D01*
X145881089Y-130673705D01*
X145872539Y-130667686D01*
X145861932Y-130662623D01*
X145851440Y-130659204D01*
X145839444Y-130656512D01*
X145828766Y-130654883D01*
X145817127Y-130653719D01*
X145804525Y-130653020D01*
X145794443Y-130652802D01*
X145790962Y-130652787D01*
X145751395Y-130652787D01*
X145741135Y-130652918D01*
X145728302Y-130653500D01*
X145716439Y-130654548D01*
X145705546Y-130656061D01*
X145695621Y-130658040D01*
X145684579Y-130661168D01*
X145675052Y-130665024D01*
X145670062Y-130667686D01*
X145661430Y-130673705D01*
X145654583Y-130680772D01*
X145648853Y-130690341D01*
X145645876Y-130699677D01*
X145644686Y-130710062D01*
X145644661Y-130711894D01*
X145644661Y-131249228D01*
X145637578Y-131249228D01*
X145499581Y-131020129D01*
X145493871Y-131011550D01*
X145487230Y-131003285D01*
X145479578Y-130995824D01*
X145475645Y-130992773D01*
X145466967Y-130987545D01*
X145457893Y-130983818D01*
X145447622Y-130981019D01*
X145442672Y-130980073D01*
X145431681Y-130978470D01*
X145420862Y-130977443D01*
X145410695Y-130976842D01*
X145399704Y-130976499D01*
X145389915Y-130976409D01*
X145315421Y-130976409D01*
X145304456Y-130976546D01*
X145294456Y-130976958D01*
X145283731Y-130977814D01*
X145272977Y-130979311D01*
X145263005Y-130981681D01*
X145261932Y-130982027D01*
X145253045Y-130986492D01*
X145246725Y-130994369D01*
X145245079Y-131003032D01*
X145246393Y-131013112D01*
X145249232Y-131021594D01*
X145253706Y-131030937D01*
X145258881Y-131040211D01*
X145261932Y-131045286D01*
X145477110Y-131387226D01*
X145477110Y-131231154D01*
X145228227Y-131647588D01*
X145223224Y-131656690D01*
X145218501Y-131666008D01*
X145216259Y-131670792D01*
X145212577Y-131679886D01*
X145211130Y-131688377D01*
X145213294Y-131697975D01*
X145219788Y-131705610D01*
X145228321Y-131710397D01*
X145229448Y-131710847D01*
X145239752Y-131713946D01*
X145250646Y-131715931D01*
X145261380Y-131717093D01*
X145271308Y-131717681D01*
X145282131Y-131717923D01*
X145284403Y-131717930D01*
X145358897Y-131717930D01*
X145369434Y-131717825D01*
X145379430Y-131717510D01*
X145391917Y-131716762D01*
X145403442Y-131715640D01*
X145414006Y-131714144D01*
X145423608Y-131712274D01*
X145434257Y-131709410D01*
X145443405Y-131705963D01*
X145453148Y-131700659D01*
X145462410Y-131693724D01*
X145469761Y-131686698D01*
X145476778Y-131678540D01*
X145483461Y-131669248D01*
X145489811Y-131658824D01*
X145637578Y-131404078D01*
X145644661Y-131404078D01*
X145644661Y-131658824D01*
X145645554Y-131669391D01*
X145648233Y-131678928D01*
X145653616Y-131688752D01*
X145660164Y-131696056D01*
X145668499Y-131702330D01*
X145670062Y-131703276D01*
X145680586Y-131708256D01*
X145691023Y-131711619D01*
X145702974Y-131714267D01*
X145713625Y-131715870D01*
X145725246Y-131717015D01*
X145737836Y-131717701D01*
X145747914Y-131717916D01*
X145751395Y-131717930D01*
X145790962Y-131717930D01*
G37*
D12*
%TO.C,J4*%
X160906750Y-73725000D03*
X160906750Y-74625000D03*
X160906750Y-75525000D03*
X160906750Y-76425000D03*
X160906750Y-77325000D03*
X160906750Y-78225000D03*
X160906750Y-79125000D03*
X160126750Y-78675000D03*
X160126750Y-77775000D03*
X160126750Y-76875000D03*
X160126750Y-75975000D03*
X160126750Y-75075000D03*
X160126750Y-74175000D03*
X160126750Y-73275000D03*
D13*
X161946750Y-78575000D03*
X161946750Y-73775000D03*
X159086750Y-78575000D03*
X159086750Y-73775000D03*
%TD*%
D14*
%TO.C,J5*%
X153850000Y-71000000D03*
X141150000Y-71000000D03*
%TD*%
D15*
%TO.C,C21*%
X158925000Y-104500000D03*
X160475000Y-104500000D03*
%TD*%
D16*
%TO.C,C20*%
X157500000Y-108120000D03*
X157500000Y-109080000D03*
%TD*%
D17*
%TO.C,R9*%
X148225000Y-72800000D03*
X146575000Y-72800000D03*
%TD*%
D18*
%TO.C,R24*%
X139500000Y-102675000D03*
X139500000Y-104325000D03*
%TD*%
D15*
%TO.C,C16*%
X158925000Y-106100000D03*
X160475000Y-106100000D03*
%TD*%
D19*
%TO.C,C54*%
X160375000Y-68100000D03*
X158825000Y-68100000D03*
%TD*%
D17*
%TO.C,R18*%
X148225000Y-70800000D03*
X146575000Y-70800000D03*
%TD*%
D15*
%TO.C,C48*%
X144725000Y-118200000D03*
X146275000Y-118200000D03*
%TD*%
D20*
%TO.C,U6*%
X161450000Y-118862500D03*
X160800000Y-118862500D03*
X160150000Y-118862500D03*
X159500000Y-118862500D03*
X158850000Y-118862500D03*
X158200000Y-118862500D03*
X157550000Y-118862500D03*
X157550000Y-113137500D03*
X158200000Y-113137500D03*
X158850000Y-113137500D03*
X159500000Y-113137500D03*
X160150000Y-113137500D03*
X160800000Y-113137500D03*
X161450000Y-113137500D03*
%TD*%
D21*
%TO.C,R16*%
X158775000Y-71500000D03*
X160425000Y-71500000D03*
%TD*%
%TO.C,R25*%
X156175000Y-131900000D03*
X157825000Y-131900000D03*
%TD*%
D19*
%TO.C,C34*%
X148175000Y-74900000D03*
X146625000Y-74900000D03*
%TD*%
%TO.C,C53*%
X156075000Y-78700000D03*
X154525000Y-78700000D03*
%TD*%
D22*
%TO.C,U11*%
X147137500Y-113050000D03*
X147137500Y-114000000D03*
X147137500Y-114950000D03*
X144862500Y-114950000D03*
X144862500Y-113050000D03*
%TD*%
D23*
%TO.C,J3*%
X149937500Y-89050000D03*
D24*
X141687500Y-89375000D03*
D25*
X141687500Y-100725000D03*
D26*
X149287500Y-100975000D03*
D27*
X150787500Y-100650000D03*
D28*
X152362500Y-89450000D03*
D29*
X141562500Y-99525000D03*
X141562500Y-98425000D03*
X141562500Y-97325000D03*
X141562500Y-96225000D03*
X141562500Y-95125000D03*
X141562500Y-94025000D03*
X141562500Y-92925000D03*
X141562500Y-91825000D03*
%TD*%
D30*
%TO.C,C18*%
X152600000Y-106875000D03*
X152600000Y-105325000D03*
%TD*%
D21*
%TO.C,R5*%
X138175000Y-85000000D03*
X139825000Y-85000000D03*
%TD*%
D15*
%TO.C,C47*%
X144725000Y-116600000D03*
X146275000Y-116600000D03*
%TD*%
D21*
%TO.C,R11*%
X147975000Y-106200000D03*
X149625000Y-106200000D03*
%TD*%
D31*
%TO.C,U1*%
X157800000Y-82580000D03*
X157800000Y-85660000D03*
X157400000Y-82580000D03*
X157400000Y-85660000D03*
X157000000Y-82580000D03*
X157000000Y-85660000D03*
X156600000Y-82580000D03*
X156600000Y-85660000D03*
X156200000Y-82580000D03*
X156200000Y-85660000D03*
X155800000Y-82580000D03*
X155800000Y-85660000D03*
X155400000Y-82580000D03*
X155400000Y-85660000D03*
X155000000Y-82580000D03*
X155000000Y-85660000D03*
X154600000Y-82580000D03*
X154600000Y-85660000D03*
X154200000Y-82580000D03*
X154200000Y-85660000D03*
X153800000Y-82580000D03*
X153800000Y-85660000D03*
X153400000Y-82580000D03*
X153400000Y-85660000D03*
X153000000Y-82580000D03*
X153000000Y-85660000D03*
X152600000Y-82580000D03*
X152600000Y-85660000D03*
X152200000Y-82580000D03*
X152200000Y-85660000D03*
X151800000Y-82580000D03*
X151800000Y-85660000D03*
X151400000Y-82580000D03*
X151400000Y-85660000D03*
X151000000Y-82580000D03*
X151000000Y-85660000D03*
X150600000Y-82580000D03*
X150600000Y-85660000D03*
X150200000Y-82580000D03*
X150200000Y-85660000D03*
X149800000Y-82580000D03*
X149800000Y-85660000D03*
X149400000Y-82580000D03*
X149400000Y-85660000D03*
X149000000Y-82580000D03*
X149000000Y-85660000D03*
X148600000Y-82580000D03*
X148600000Y-85660000D03*
X148200000Y-82580000D03*
X148200000Y-85660000D03*
X147800000Y-82580000D03*
X147800000Y-85660000D03*
X147400000Y-82580000D03*
X147400000Y-85660000D03*
X147000000Y-82580000D03*
X147000000Y-85660000D03*
X146600000Y-82580000D03*
X146600000Y-85660000D03*
X146200000Y-82580000D03*
X146200000Y-85660000D03*
X145800000Y-82580000D03*
X145800000Y-85660000D03*
X145400000Y-82580000D03*
X145400000Y-85660000D03*
X145000000Y-82580000D03*
X145000000Y-85660000D03*
X144600000Y-82580000D03*
X144600000Y-85660000D03*
X144200000Y-82580000D03*
X144200000Y-85660000D03*
X143800000Y-82580000D03*
X143800000Y-85660000D03*
X143400000Y-82580000D03*
X143400000Y-85660000D03*
X143000000Y-82580000D03*
X143000000Y-85660000D03*
X142600000Y-82580000D03*
X142600000Y-85660000D03*
X142200000Y-82580000D03*
X142200000Y-85660000D03*
X142200000Y-128840000D03*
X142200000Y-125760000D03*
X142600000Y-128840000D03*
X142600000Y-125760000D03*
X143000000Y-128840000D03*
X143000000Y-125760000D03*
X143400000Y-128840000D03*
X143400000Y-125760000D03*
X143800000Y-128840000D03*
X143800000Y-125760000D03*
X144200000Y-128840000D03*
X144200000Y-125760000D03*
X144600000Y-128840000D03*
X144600000Y-125760000D03*
X145000000Y-128840000D03*
X145000000Y-125760000D03*
X145400000Y-128840000D03*
X145400000Y-125760000D03*
X145800000Y-128840000D03*
X145800000Y-125760000D03*
X146200000Y-128840000D03*
X146200000Y-125760000D03*
X146600000Y-128840000D03*
X146600000Y-125760000D03*
X147000000Y-128840000D03*
X147000000Y-125760000D03*
X147400000Y-128840000D03*
X147400000Y-125760000D03*
X147800000Y-128840000D03*
X147800000Y-125760000D03*
X148200000Y-128840000D03*
X148200000Y-125760000D03*
X148600000Y-128840000D03*
X148600000Y-125760000D03*
X149000000Y-128840000D03*
X149000000Y-125760000D03*
X149400000Y-128840000D03*
X149400000Y-125760000D03*
X149800000Y-128840000D03*
X149800000Y-125760000D03*
X150200000Y-128840000D03*
X150200000Y-125760000D03*
X150600000Y-128840000D03*
X150600000Y-125760000D03*
X151000000Y-128840000D03*
X151000000Y-125760000D03*
X151400000Y-128840000D03*
X151400000Y-125760000D03*
X151800000Y-128840000D03*
X151800000Y-125760000D03*
X152200000Y-128840000D03*
X152200000Y-125760000D03*
X152600000Y-128840000D03*
X152600000Y-125760000D03*
X153000000Y-128840000D03*
X153000000Y-125760000D03*
X153400000Y-128840000D03*
X153400000Y-125760000D03*
X153800000Y-128840000D03*
X153800000Y-125760000D03*
X154200000Y-128840000D03*
X154200000Y-125760000D03*
X154600000Y-128840000D03*
X154600000Y-125760000D03*
X155000000Y-128840000D03*
X155000000Y-125760000D03*
X155400000Y-128840000D03*
X155400000Y-125760000D03*
X155800000Y-128840000D03*
X155800000Y-125760000D03*
X156200000Y-128840000D03*
X156200000Y-125760000D03*
X156600000Y-128840000D03*
X156600000Y-125760000D03*
X157000000Y-128840000D03*
X157000000Y-125760000D03*
X157400000Y-128840000D03*
X157400000Y-125760000D03*
X157800000Y-128840000D03*
X157800000Y-125760000D03*
%TD*%
D32*
%TO.C,C46*%
X149000000Y-113225000D03*
X149000000Y-114775000D03*
%TD*%
D17*
%TO.C,R20*%
X160425000Y-69800000D03*
X158775000Y-69800000D03*
%TD*%
D33*
%TO.C,L5*%
X161800000Y-104915000D03*
X161800000Y-105885000D03*
%TD*%
D34*
%TO.C,L8*%
X141700000Y-112925000D03*
X141700000Y-115075000D03*
%TD*%
D30*
%TO.C,C19*%
X157300000Y-106875000D03*
X157300000Y-105325000D03*
%TD*%
D21*
%TO.C,R10*%
X147975000Y-104500000D03*
X149625000Y-104500000D03*
%TD*%
D35*
%TO.C,L6*%
X154415000Y-106800000D03*
X155385000Y-106800000D03*
%TD*%
D18*
%TO.C,R22*%
X149000000Y-109975000D03*
X149000000Y-111625000D03*
%TD*%
D21*
%TO.C,R21*%
X144575000Y-78900000D03*
X146225000Y-78900000D03*
%TD*%
D15*
%TO.C,C14*%
X158925000Y-107700000D03*
X160475000Y-107700000D03*
%TD*%
D21*
%TO.C,R27*%
X159775000Y-130300000D03*
X161425000Y-130300000D03*
%TD*%
D36*
%TO.C,JP2*%
X140550000Y-109900000D03*
D37*
X141850000Y-109900000D03*
%TD*%
D22*
%TO.C,U12*%
X157137500Y-75050000D03*
X157137500Y-76000000D03*
X157137500Y-76950000D03*
X154862500Y-76950000D03*
X154862500Y-76000000D03*
X154862500Y-75050000D03*
%TD*%
D21*
%TO.C,R26*%
X156175000Y-130300000D03*
X157825000Y-130300000D03*
%TD*%
%TO.C,R23*%
X159975000Y-98400000D03*
X161625000Y-98400000D03*
%TD*%
D38*
%TO.C,R17*%
X161600000Y-82325000D03*
X161600000Y-80675000D03*
%TD*%
D20*
%TO.C,U3*%
X155450000Y-118862500D03*
X154800000Y-118862500D03*
X154150000Y-118862500D03*
X153500000Y-118862500D03*
X152850000Y-118862500D03*
X152200000Y-118862500D03*
X151550000Y-118862500D03*
X151550000Y-113137500D03*
X152200000Y-113137500D03*
X152850000Y-113137500D03*
X153500000Y-113137500D03*
X154150000Y-113137500D03*
X154800000Y-113137500D03*
X155450000Y-113137500D03*
%TD*%
D21*
%TO.C,R8*%
X147975000Y-102800000D03*
X149625000Y-102800000D03*
%TD*%
D17*
%TO.C,R19*%
X148225000Y-68800000D03*
X146575000Y-68800000D03*
%TD*%
D39*
%TO.C,TP1*%
X142500000Y-118500000D03*
%TD*%
D17*
%TO.C,R7*%
X139825000Y-81600000D03*
X138175000Y-81600000D03*
%TD*%
D15*
%TO.C,C2*%
X158925000Y-109300000D03*
X160475000Y-109300000D03*
%TD*%
D33*
%TO.C,L7*%
X158900000Y-102115000D03*
X158900000Y-103085000D03*
%TD*%
D21*
%TO.C,R4*%
X138175000Y-83300000D03*
X139825000Y-83300000D03*
%TD*%
M02*
