%TF.GenerationSoftware,KiCad,Pcbnew,7.0.1-3b83917a11~172~ubuntu20.04.1*%
%TF.CreationDate,2023-04-27T15:55:00+02:00*%
%TF.ProjectId,radartof-hardware,72616461-7274-46f6-962d-686172647761,1.4*%
%TF.SameCoordinates,Original*%
%TF.FileFunction,Copper,L1,Top*%
%TF.FilePolarity,Positive*%
%FSLAX46Y46*%
G04 Gerber Fmt 4.6, Leading zero omitted, Abs format (unit mm)*
G04 Created by KiCad (PCBNEW 7.0.1-3b83917a11~172~ubuntu20.04.1) date 2023-04-27 15:55:00*
%MOMM*%
%LPD*%
G01*
G04 APERTURE LIST*
G04 Aperture macros list*
%AMRoundRect*
0 Rectangle with rounded corners*
0 $1 Rounding radius*
0 $2 $3 $4 $5 $6 $7 $8 $9 X,Y pos of 4 corners*
0 Add a 4 corners polygon primitive as box body*
4,1,4,$2,$3,$4,$5,$6,$7,$8,$9,$2,$3,0*
0 Add four circle primitives for the rounded corners*
1,1,$1+$1,$2,$3*
1,1,$1+$1,$4,$5*
1,1,$1+$1,$6,$7*
1,1,$1+$1,$8,$9*
0 Add four rect primitives between the rounded corners*
20,1,$1+$1,$2,$3,$4,$5,0*
20,1,$1+$1,$4,$5,$6,$7,0*
20,1,$1+$1,$6,$7,$8,$9,0*
20,1,$1+$1,$8,$9,$2,$3,0*%
%AMFreePoly0*
4,1,86,1.253536,1.953536,1.255000,1.950000,1.255000,-1.950000,1.253536,-1.953536,1.250000,-1.955000,-1.250000,-1.955000,-1.253536,-1.953536,-1.255000,-1.950000,-1.255000,-1.260000,-1.254936,-1.259846,-1.254991,-1.259688,-1.254213,-1.258099,-1.253536,-1.256464,-1.253380,-1.256399,-1.253308,-1.256251,-1.219350,-1.226288,-1.184402,-1.194335,-1.149507,-1.161435,-1.116668,-1.127600,-1.084775,-1.091721,
-1.053789,-1.055737,-1.022902,-1.018871,-0.994013,-0.981016,-0.966077,-0.942105,-0.939177,-0.903250,-0.914240,-0.863350,-0.889327,-0.822492,-0.866409,-0.780642,-0.844483,-0.737785,-0.823523,-0.694868,-0.803588,-0.652009,-0.785646,-0.608151,-0.768698,-0.563290,-0.752748,-0.518429,-0.738809,-0.472629,-0.725829,-0.426705,-0.713870,-0.380862,-0.703899,-0.333999,-0.694918,-0.287098,-0.686947,-0.240271,
-0.680965,-0.193410,-0.675983,-0.145580,-0.672992,-0.097727,-0.670998,-0.050863,-0.670000,0.000000,-0.670998,0.050863,-0.672992,0.097727,-0.675983,0.145580,-0.680965,0.193410,-0.686947,0.240271,-0.694918,0.287098,-0.703899,0.333999,-0.713870,0.380862,-0.725829,0.426705,-0.738812,0.472640,-0.752748,0.518429,-0.768698,0.563290,-0.785646,0.608151,-0.803588,0.652009,-0.823523,0.694868,
-0.844493,0.737806,-0.866409,0.780642,-0.889327,0.822492,-0.914269,0.863397,-0.939177,0.903250,-0.966077,0.942105,-0.994013,0.981016,-1.022902,1.018871,-1.053804,1.055755,-1.084789,1.091737,-1.116668,1.127600,-1.149507,1.161435,-1.184402,1.194335,-1.219350,1.226288,-1.253308,1.256251,-1.253380,1.256399,-1.253536,1.256464,-1.254213,1.258099,-1.254991,1.259688,-1.254936,1.259846,
-1.255000,1.260000,-1.255000,1.950000,-1.253536,1.953536,-1.250000,1.955000,1.250000,1.955000,1.253536,1.953536,1.253536,1.953536,$1*%
%AMFreePoly1*
4,1,86,1.253536,1.953536,1.255000,1.950000,1.255000,1.260000,1.254936,1.259846,1.254991,1.259688,1.254213,1.258099,1.253536,1.256464,1.253380,1.256399,1.253308,1.256251,1.219350,1.226288,1.184402,1.194335,1.149519,1.161445,1.116668,1.127600,1.084789,1.091737,1.053804,1.055755,1.022902,1.018871,0.994008,0.981011,0.966077,0.942105,0.939177,0.903250,0.914269,0.863397,
0.889327,0.822492,0.866423,0.780669,0.844493,0.737806,0.823514,0.694849,0.803584,0.651998,0.785646,0.608151,0.768698,0.563290,0.752748,0.518429,0.738805,0.472617,0.725821,0.426671,0.713870,0.380862,0.703897,0.333989,0.694918,0.287098,0.686948,0.240274,0.680965,0.193410,0.675983,0.145580,0.672992,0.097725,0.670998,0.050863,0.670000,0.000000,0.670998,-0.050863,
0.672992,-0.097725,0.675983,-0.145580,0.680965,-0.193410,0.686948,-0.240274,0.694918,-0.287098,0.703897,-0.333989,0.713870,-0.380862,0.725821,-0.426671,0.738805,-0.472617,0.752748,-0.518429,0.768698,-0.563290,0.785646,-0.608151,0.803584,-0.651998,0.823514,-0.694849,0.844483,-0.737785,0.866423,-0.780669,0.889327,-0.822492,0.914240,-0.863350,0.939177,-0.903250,0.966077,-0.942105,
0.994008,-0.981011,1.022902,-1.018871,1.053789,-1.055737,1.084775,-1.091721,1.116668,-1.127600,1.149519,-1.161445,1.184402,-1.194335,1.219350,-1.226288,1.253308,-1.256251,1.253380,-1.256399,1.253536,-1.256464,1.254213,-1.258099,1.254991,-1.259688,1.254936,-1.259846,1.255000,-1.260000,1.255000,-1.950000,1.253536,-1.953536,1.250000,-1.955000,-1.250000,-1.955000,-1.253536,-1.953536,
-1.255000,-1.950000,-1.255000,1.950000,-1.253536,1.953536,-1.250000,1.955000,1.250000,1.955000,1.253536,1.953536,1.253536,1.953536,$1*%
G04 Aperture macros list end*
%TA.AperFunction,ComponentPad*%
%ADD10C,0.600000*%
%TD*%
%TA.AperFunction,ComponentPad*%
%ADD11O,0.900000X1.900000*%
%TD*%
%TA.AperFunction,SMDPad,CuDef*%
%ADD12C,1.000000*%
%TD*%
%TA.AperFunction,SMDPad,CuDef*%
%ADD13RoundRect,0.225000X-0.250000X0.225000X-0.250000X-0.225000X0.250000X-0.225000X0.250000X0.225000X0*%
%TD*%
%TA.AperFunction,SMDPad,CuDef*%
%ADD14RoundRect,0.225000X0.225000X0.250000X-0.225000X0.250000X-0.225000X-0.250000X0.225000X-0.250000X0*%
%TD*%
%TA.AperFunction,SMDPad,CuDef*%
%ADD15RoundRect,0.140000X-0.140000X-0.170000X0.140000X-0.170000X0.140000X0.170000X-0.140000X0.170000X0*%
%TD*%
%TA.AperFunction,SMDPad,CuDef*%
%ADD16RoundRect,0.225000X-0.225000X-0.250000X0.225000X-0.250000X0.225000X0.250000X-0.225000X0.250000X0*%
%TD*%
%TA.AperFunction,SMDPad,CuDef*%
%ADD17RoundRect,0.140000X0.170000X-0.140000X0.170000X0.140000X-0.170000X0.140000X-0.170000X-0.140000X0*%
%TD*%
%TA.AperFunction,SMDPad,CuDef*%
%ADD18RoundRect,0.150000X0.512500X0.150000X-0.512500X0.150000X-0.512500X-0.150000X0.512500X-0.150000X0*%
%TD*%
%TA.AperFunction,SMDPad,CuDef*%
%ADD19RoundRect,0.147500X-0.172500X0.147500X-0.172500X-0.147500X0.172500X-0.147500X0.172500X0.147500X0*%
%TD*%
%TA.AperFunction,SMDPad,CuDef*%
%ADD20RoundRect,0.200000X-0.275000X0.200000X-0.275000X-0.200000X0.275000X-0.200000X0.275000X0.200000X0*%
%TD*%
%TA.AperFunction,SMDPad,CuDef*%
%ADD21C,0.275000*%
%TD*%
%TA.AperFunction,SMDPad,CuDef*%
%ADD22RoundRect,0.147500X0.147500X0.172500X-0.147500X0.172500X-0.147500X-0.172500X0.147500X-0.172500X0*%
%TD*%
%TA.AperFunction,SMDPad,CuDef*%
%ADD23R,2.400000X0.740000*%
%TD*%
%TA.AperFunction,SMDPad,CuDef*%
%ADD24RoundRect,0.225000X0.250000X-0.225000X0.250000X0.225000X-0.250000X0.225000X-0.250000X-0.225000X0*%
%TD*%
%TA.AperFunction,SMDPad,CuDef*%
%ADD25RoundRect,0.140000X-0.170000X0.140000X-0.170000X-0.140000X0.170000X-0.140000X0.170000X0.140000X0*%
%TD*%
%TA.AperFunction,SMDPad,CuDef*%
%ADD26RoundRect,0.147500X0.172500X-0.147500X0.172500X0.147500X-0.172500X0.147500X-0.172500X-0.147500X0*%
%TD*%
%TA.AperFunction,SMDPad,CuDef*%
%ADD27RoundRect,0.060000X-0.240000X-0.340000X0.240000X-0.340000X0.240000X0.340000X-0.240000X0.340000X0*%
%TD*%
%TA.AperFunction,SMDPad,CuDef*%
%ADD28R,4.000000X2.000000*%
%TD*%
%TA.AperFunction,SMDPad,CuDef*%
%ADD29R,1.250000X0.275000*%
%TD*%
%TA.AperFunction,SMDPad,CuDef*%
%ADD30RoundRect,0.060000X0.340000X-0.240000X0.340000X0.240000X-0.340000X0.240000X-0.340000X-0.240000X0*%
%TD*%
%TA.AperFunction,SMDPad,CuDef*%
%ADD31RoundRect,0.150000X-0.150000X0.512500X-0.150000X-0.512500X0.150000X-0.512500X0.150000X0.512500X0*%
%TD*%
%TA.AperFunction,SMDPad,CuDef*%
%ADD32RoundRect,0.200000X-0.200000X-0.275000X0.200000X-0.275000X0.200000X0.275000X-0.200000X0.275000X0*%
%TD*%
%TA.AperFunction,SMDPad,CuDef*%
%ADD33RoundRect,0.140000X0.140000X0.170000X-0.140000X0.170000X-0.140000X-0.170000X0.140000X-0.170000X0*%
%TD*%
%TA.AperFunction,SMDPad,CuDef*%
%ADD34RoundRect,0.200000X0.275000X-0.200000X0.275000X0.200000X-0.275000X0.200000X-0.275000X-0.200000X0*%
%TD*%
%TA.AperFunction,SMDPad,CuDef*%
%ADD35RoundRect,0.200000X0.200000X0.275000X-0.200000X0.275000X-0.200000X-0.275000X0.200000X-0.275000X0*%
%TD*%
%TA.AperFunction,SMDPad,CuDef*%
%ADD36RoundRect,0.147500X-0.147500X-0.172500X0.147500X-0.172500X0.147500X0.172500X-0.147500X0.172500X0*%
%TD*%
%TA.AperFunction,SMDPad,CuDef*%
%ADD37R,0.810000X4.600000*%
%TD*%
%TA.AperFunction,SMDPad,CuDef*%
%ADD38R,0.610000X4.600000*%
%TD*%
%TA.AperFunction,SMDPad,CuDef*%
%ADD39FreePoly0,180.000000*%
%TD*%
%TA.AperFunction,SMDPad,CuDef*%
%ADD40FreePoly1,180.000000*%
%TD*%
%TA.AperFunction,SMDPad,CuDef*%
%ADD41RoundRect,0.135000X0.135000X0.185000X-0.135000X0.185000X-0.135000X-0.185000X0.135000X-0.185000X0*%
%TD*%
%TA.AperFunction,SMDPad,CuDef*%
%ADD42RoundRect,0.050000X-0.350000X-0.200000X0.350000X-0.200000X0.350000X0.200000X-0.350000X0.200000X0*%
%TD*%
%TA.AperFunction,SMDPad,CuDef*%
%ADD43R,0.533400X0.508000*%
%TD*%
%TA.AperFunction,SMDPad,CuDef*%
%ADD44R,0.508000X0.533400*%
%TD*%
%TA.AperFunction,SMDPad,CuDef*%
%ADD45R,2.311400X1.193800*%
%TD*%
%TA.AperFunction,SMDPad,CuDef*%
%ADD46RoundRect,0.150000X-0.512500X-0.150000X0.512500X-0.150000X0.512500X0.150000X-0.512500X0.150000X0*%
%TD*%
%TA.AperFunction,ViaPad*%
%ADD47C,0.400000*%
%TD*%
%TA.AperFunction,Conductor*%
%ADD48C,0.100000*%
%TD*%
%TA.AperFunction,Conductor*%
%ADD49C,0.150000*%
%TD*%
%TA.AperFunction,Conductor*%
%ADD50C,0.250000*%
%TD*%
%TA.AperFunction,Conductor*%
%ADD51C,0.500000*%
%TD*%
%TA.AperFunction,Conductor*%
%ADD52C,0.200000*%
%TD*%
G04 APERTURE END LIST*
D10*
%TO.P,J4,A1,GND*%
%TO.N,GND*%
X160906750Y-73725000D03*
%TO.P,J4,A4,VBUS*%
%TO.N,unconnected-(J4-VBUS-PadA4)*%
X160906750Y-74625000D03*
%TO.P,J4,A5,CC1*%
%TO.N,Net-(J4-CC1)*%
X160906750Y-75525000D03*
%TO.P,J4,A6,D+*%
%TO.N,/Connectors/conn_USB-*%
X160906750Y-76425000D03*
%TO.P,J4,A7,D-*%
%TO.N,/Connectors/conn_USB+*%
X160906750Y-77325000D03*
%TO.P,J4,A9,VBUS*%
%TO.N,unconnected-(J4-VBUS-PadA4)*%
X160906750Y-78225000D03*
%TO.P,J4,A12,GND*%
%TO.N,GND*%
X160906750Y-79125000D03*
%TO.P,J4,B1,GND*%
X160126750Y-78675000D03*
%TO.P,J4,B4,VBUS*%
%TO.N,unconnected-(J4-VBUS-PadA4)*%
X160126750Y-77775000D03*
%TO.P,J4,B5,CC2*%
%TO.N,Net-(J4-CC2)*%
X160126750Y-76875000D03*
%TO.P,J4,B6,D+*%
%TO.N,/Connectors/conn_USB-*%
X160126750Y-75975000D03*
%TO.P,J4,B7,D-*%
%TO.N,/Connectors/conn_USB+*%
X160126750Y-75075000D03*
%TO.P,J4,B9,VBUS*%
%TO.N,unconnected-(J4-VBUS-PadA4)*%
X160126750Y-74175000D03*
%TO.P,J4,B12,GND*%
%TO.N,GND*%
X160126750Y-73275000D03*
D11*
%TO.P,J4,S1,SHIELD*%
%TO.N,/Connectors/USB_Shield*%
X161946750Y-78575000D03*
X161946750Y-73775000D03*
X159086750Y-78575000D03*
X159086750Y-73775000D03*
%TD*%
D12*
%TO.P,TP15,1,1*%
%TO.N,/Camera/I2C1_SDA*%
X149900000Y-103800000D03*
%TD*%
D13*
%TO.P,C11,1*%
%TO.N,+1V8*%
X156500000Y-115225000D03*
%TO.P,C11,2*%
%TO.N,GND*%
X156500000Y-116775000D03*
%TD*%
D14*
%TO.P,C57,1*%
%TO.N,Vradar*%
X154275000Y-117000000D03*
%TO.P,C57,2*%
%TO.N,GND*%
X152725000Y-117000000D03*
%TD*%
D13*
%TO.P,C37,1*%
%TO.N,+2V8*%
X142800000Y-112325000D03*
%TO.P,C37,2*%
%TO.N,GND*%
X142800000Y-113875000D03*
%TD*%
D12*
%TO.P,TP5,1,1*%
%TO.N,/Portenta/SPI2_SCK*%
X153500000Y-118900000D03*
%TD*%
D15*
%TO.P,C3,1*%
%TO.N,/Radar/VDD_LF*%
X158770000Y-109550000D03*
%TO.P,C3,2*%
%TO.N,GND*%
X159730000Y-109550000D03*
%TD*%
D16*
%TO.P,C9,1*%
%TO.N,/Radar/V_OSC*%
X160125000Y-103100000D03*
%TO.P,C9,2*%
%TO.N,GND*%
X161675000Y-103100000D03*
%TD*%
D14*
%TO.P,C27,1*%
%TO.N,+1V8*%
X155475000Y-97800000D03*
%TO.P,C27,2*%
%TO.N,GND*%
X153925000Y-97800000D03*
%TD*%
D17*
%TO.P,C40,1*%
%TO.N,+1V5*%
X138000000Y-122380000D03*
%TO.P,C40,2*%
%TO.N,GND*%
X138000000Y-121420000D03*
%TD*%
D12*
%TO.P,TP2,1,1*%
%TO.N,/Camera/Vmotor*%
X149000000Y-131500000D03*
%TD*%
D18*
%TO.P,U4,1,IN*%
%TO.N,Vradar*%
X159637500Y-99650000D03*
%TO.P,U4,2,GND*%
%TO.N,GND*%
X159637500Y-98700000D03*
%TO.P,U4,3,EN*%
%TO.N,Vradar*%
X159637500Y-97750000D03*
%TO.P,U4,4,NC*%
%TO.N,unconnected-(U4-NC-Pad4)*%
X157362500Y-97750000D03*
%TO.P,U4,5,OUT*%
%TO.N,+1V8*%
X157362500Y-99650000D03*
%TD*%
D17*
%TO.P,C39,1*%
%TO.N,+2V8*%
X138000000Y-119880000D03*
%TO.P,C39,2*%
%TO.N,GND*%
X138000000Y-118920000D03*
%TD*%
D19*
%TO.P,L3,1,1*%
%TO.N,+1V8*%
X158800000Y-102115000D03*
%TO.P,L3,2,2*%
%TO.N,/Radar/V_OSC*%
X158800000Y-103085000D03*
%TD*%
D20*
%TO.P,R6,1*%
%TO.N,VTOF*%
X146400000Y-102675000D03*
%TO.P,R6,2*%
%TO.N,/ToF Sensor/RSVD6*%
X146400000Y-104325000D03*
%TD*%
%TO.P,R2,1*%
%TO.N,+3.3V*%
X142200000Y-102675000D03*
%TO.P,R2,2*%
%TO.N,/Portenta/I2C3_SCL*%
X142200000Y-104325000D03*
%TD*%
D14*
%TO.P,C58,1*%
%TO.N,+1V8*%
X154275000Y-115000000D03*
%TO.P,C58,2*%
%TO.N,GND*%
X152725000Y-115000000D03*
%TD*%
D15*
%TO.P,C25,1*%
%TO.N,/Radar/V_AREF*%
X158770000Y-110750000D03*
%TO.P,C25,2*%
%TO.N,GND*%
X159730000Y-110750000D03*
%TD*%
D21*
%TO.P,U5,A1,VSS_{RF}*%
%TO.N,GND*%
X152250000Y-108750000D03*
%TO.P,U5,A2,VSS_{D}*%
X152250000Y-108250000D03*
%TO.P,U5,A3,VSS_{D}*%
X152250000Y-107750000D03*
%TO.P,U5,A4,VSS_{RF}*%
X152250000Y-107250000D03*
%TO.P,U5,A5,VSS_{RF}*%
X152250000Y-106750000D03*
%TO.P,U5,A6,VSS_{RF}*%
X152250000Y-106250000D03*
%TO.P,U5,A7,VSS_{RF}*%
X152250000Y-105750000D03*
%TO.P,U5,A8,VSS_{RF}*%
X152250000Y-105250000D03*
%TO.P,U5,B1,CLK*%
%TO.N,/Radar/SCK_1V8*%
X152750000Y-108750000D03*
%TO.P,U5,B2,VSS_{RF}*%
%TO.N,GND*%
X152750000Y-108250000D03*
%TO.P,U5,B7,VSS_{RF}*%
X152750000Y-105750000D03*
%TO.P,U5,B8,VSS_{RF}*%
X152750000Y-105250000D03*
%TO.P,U5,C1,IRQ*%
%TO.N,/Radar/INT_1V8*%
X153250000Y-108750000D03*
%TO.P,U5,C8,VSS_{RF}*%
%TO.N,GND*%
X153250000Y-105250000D03*
%TO.P,U5,D1,MOSI*%
%TO.N,/Radar/MOSI_1V8*%
X153750000Y-108750000D03*
%TO.P,U5,D8,VSS_{RF}*%
%TO.N,GND*%
X153750000Y-105250000D03*
%TO.P,U5,E1,MISO*%
%TO.N,/Radar/MISO_1V8*%
X154250000Y-108750000D03*
%TO.P,U5,E8,VSS_{RF}*%
%TO.N,GND*%
X154250000Y-105250000D03*
%TO.P,U5,F1,RST*%
%TO.N,/Radar/RST_1V8*%
X154750000Y-108750000D03*
%TO.P,U5,F8,VSS_{RF}*%
%TO.N,GND*%
X154750000Y-105250000D03*
%TO.P,U5,G1,~{CS}*%
%TO.N,/Radar/NSS_1V8*%
X155250000Y-108750000D03*
%TO.P,U5,G8,VDD_{RF}*%
%TO.N,/Radar/VDD_RF*%
X155250000Y-105250000D03*
%TO.P,U5,H1,VDD_{D}*%
%TO.N,/Radar/VDD_D*%
X155750000Y-108750000D03*
%TO.P,U5,H8,VDD_{RF}*%
%TO.N,/Radar/VDD_RF*%
X155750000Y-105250000D03*
%TO.P,U5,J1,VDD_{A}*%
%TO.N,/Radar/VDD_A*%
X156250000Y-108750000D03*
%TO.P,U5,J8,VSS_{RF}*%
%TO.N,GND*%
X156250000Y-105250000D03*
%TO.P,U5,K1,VSS_{A}*%
X156750000Y-108750000D03*
%TO.P,U5,K8,VSS_{RF}*%
X156750000Y-105250000D03*
%TO.P,U5,L1,V_{AREF}*%
%TO.N,/Radar/V_AREF*%
X157250000Y-108750000D03*
%TO.P,U5,L8,VSS_{RF}*%
%TO.N,GND*%
X157250000Y-105250000D03*
%TO.P,U5,M1,VSS_{RF}*%
X157750000Y-108750000D03*
%TO.P,U5,M2,VDD_{LF}*%
%TO.N,/Radar/VDD_LF*%
X157750000Y-108250000D03*
%TO.P,U5,M3,VDD_{PLL}*%
%TO.N,/Radar/VDD_PLL*%
X157750000Y-107750000D03*
%TO.P,U5,M4,OSC_CLK*%
%TO.N,/Radar/OSC_CLK*%
X157750000Y-107250000D03*
%TO.P,U5,M5,VDD_{RF}*%
%TO.N,/Radar/VDD_RF*%
X157750000Y-106750000D03*
%TO.P,U5,M6,DIV*%
%TO.N,unconnected-(U5-DIV-PadM6)*%
X157750000Y-106250000D03*
%TO.P,U5,M7,VDD_{VCO}*%
%TO.N,/Radar/VDD_VCO*%
X157750000Y-105750000D03*
%TO.P,U5,M8,VSS_{RF}*%
%TO.N,GND*%
X157750000Y-105250000D03*
%TD*%
D22*
%TO.P,L1,1,1*%
%TO.N,Vradar*%
X161685000Y-110000000D03*
%TO.P,L1,2,2*%
%TO.N,/Radar/VDD_LF*%
X160715000Y-110000000D03*
%TD*%
D23*
%TO.P,J1,1,NC*%
%TO.N,unconnected-(J1-NC-Pad1)*%
X157350000Y-84690000D03*
%TO.P,J1,2,NC*%
%TO.N,unconnected-(J1-NC-Pad2)*%
X161250000Y-84690000D03*
%TO.P,J1,3,VCC*%
%TO.N,+3.3V*%
X157350000Y-85960000D03*
%TO.P,J1,4,JTMS/SWDIO*%
%TO.N,/Portenta/SWDIO*%
X161250000Y-85960000D03*
%TO.P,J1,5,GND*%
%TO.N,GND*%
X157350000Y-87230000D03*
%TO.P,J1,6,JCLK/SWCLK*%
%TO.N,/Portenta/SWCLK*%
X161250000Y-87230000D03*
%TO.P,J1,7,GND*%
%TO.N,GND*%
X157350000Y-88500000D03*
%TO.P,J1,8,JTDO/SWO*%
%TO.N,/Portenta/SWO*%
X161250000Y-88500000D03*
%TO.P,J1,9,JRCLK/NC*%
%TO.N,unconnected-(J1-JRCLK{slash}NC-Pad9)*%
X157350000Y-89770000D03*
%TO.P,J1,10,JTDI/NC*%
%TO.N,unconnected-(J1-JTDI{slash}NC-Pad10)*%
X161250000Y-89770000D03*
%TO.P,J1,11,GNDDetect*%
%TO.N,GND*%
X157350000Y-91040000D03*
%TO.P,J1,12,~{RST}*%
%TO.N,/Portenta/nRST*%
X161250000Y-91040000D03*
%TO.P,J1,13,VCP_RX*%
%TO.N,/Portenta/UART4_TX*%
X157350000Y-92310000D03*
%TO.P,J1,14,VCP_TX*%
%TO.N,/Portenta/UART4_RX*%
X161250000Y-92310000D03*
%TD*%
D12*
%TO.P,TP9,1,1*%
%TO.N,/Portenta/SPI2_MISO*%
X157500000Y-118900000D03*
%TD*%
D24*
%TO.P,C45,1*%
%TO.N,+1V5*%
X149900000Y-117675000D03*
%TO.P,C45,2*%
%TO.N,GND*%
X149900000Y-116125000D03*
%TD*%
D25*
%TO.P,C35,1*%
%TO.N,/Camera/CAM_CK*%
X138000000Y-126320000D03*
%TO.P,C35,2*%
%TO.N,GND*%
X138000000Y-127280000D03*
%TD*%
D26*
%TO.P,L4,1,1*%
%TO.N,+1V8*%
X156500000Y-113385000D03*
%TO.P,L4,2,2*%
%TO.N,/Radar/VDD_A*%
X156500000Y-112415000D03*
%TD*%
D16*
%TO.P,C49,1*%
%TO.N,+3.3V*%
X142025000Y-96100000D03*
%TO.P,C49,2*%
%TO.N,GND*%
X143575000Y-96100000D03*
%TD*%
D15*
%TO.P,C22,1*%
%TO.N,/Radar/VDD_VCO*%
X158770000Y-105000000D03*
%TO.P,C22,2*%
%TO.N,GND*%
X159730000Y-105000000D03*
%TD*%
D12*
%TO.P,TP7,1,1*%
%TO.N,/Portenta/SPI2_NSS*%
X161500000Y-118900000D03*
%TD*%
D27*
%TO.P,U8,1,INH*%
%TO.N,VCAM*%
X152900000Y-132100000D03*
%TO.P,U8,2,GND*%
%TO.N,GND*%
X151100000Y-132095599D03*
%TO.P,U8,3,CLK*%
%TO.N,/Camera/XCLK*%
X151100000Y-130895599D03*
%TO.P,U8,4,VCC*%
%TO.N,VCAM*%
X152900000Y-130895599D03*
%TD*%
D28*
%TO.P,J2,*%
%TO.N,*%
X141710000Y-131510000D03*
X141710000Y-116400000D03*
D29*
%TO.P,J2,1,Pin_1*%
%TO.N,/Camera/STROBE*%
X139520000Y-118250000D03*
%TO.P,J2,2,Pin_2*%
%TO.N,GNDA*%
X139520000Y-118750000D03*
%TO.P,J2,3,Pin_3*%
%TO.N,/Camera/I2C1_SDA*%
X139520000Y-119250000D03*
%TO.P,J2,4,Pin_4*%
%TO.N,+2V8*%
X139520000Y-119750000D03*
%TO.P,J2,5,Pin_5*%
%TO.N,/Camera/I2C1_SCL*%
X139520000Y-120250000D03*
%TO.P,J2,6,Pin_6*%
%TO.N,/Camera/CAM_nRST*%
X139520000Y-120750000D03*
%TO.P,J2,7,Pin_7*%
%TO.N,/Camera/CAM_VS*%
X139520000Y-121250000D03*
%TO.P,J2,8,Pin_8*%
%TO.N,/Camera/CAM_PWDN*%
X139520000Y-121750000D03*
%TO.P,J2,9,Pin_9*%
%TO.N,/Camera/CAM_HS*%
X139520000Y-122250000D03*
%TO.P,J2,10,Pin_10*%
%TO.N,+1V5*%
X139520000Y-122750000D03*
%TO.P,J2,11,Pin_11*%
%TO.N,VCAM*%
X139520000Y-123250000D03*
%TO.P,J2,12,Pin_12*%
%TO.N,/Camera/CAM_D7*%
X139520000Y-123750000D03*
%TO.P,J2,13,Pin_13*%
%TO.N,/Camera/XCLK*%
X139520000Y-124250000D03*
%TO.P,J2,14,Pin_14*%
%TO.N,/Camera/CAM_D6*%
X139520000Y-124750000D03*
%TO.P,J2,15,Pin_15*%
%TO.N,GND*%
X139520000Y-125250000D03*
%TO.P,J2,16,Pin_16*%
%TO.N,/Camera/CAM_D5*%
X139520000Y-125750000D03*
%TO.P,J2,17,Pin_17*%
%TO.N,/Camera/CAM_CK*%
X139520000Y-126250000D03*
%TO.P,J2,18,Pin_18*%
%TO.N,/Camera/CAM_D4*%
X139520000Y-126750000D03*
%TO.P,J2,19,Pin_19*%
%TO.N,/Camera/CAM_D0*%
X139520000Y-127250000D03*
%TO.P,J2,20,Pin_20*%
%TO.N,/Camera/CAM_D3*%
X139520000Y-127750000D03*
%TO.P,J2,21,Pin_21*%
%TO.N,/Camera/CAM_D1*%
X139520000Y-128250000D03*
%TO.P,J2,22,Pin_22*%
%TO.N,/Camera/CAM_D2*%
X139520000Y-128750000D03*
%TO.P,J2,23,Pin_23*%
%TO.N,/Camera/Vmotor*%
X139520000Y-129250000D03*
%TO.P,J2,24,Pin_24*%
%TO.N,/Camera/GNDMotor*%
X139520000Y-129750000D03*
%TD*%
D12*
%TO.P,TP6,1,1*%
%TO.N,/Portenta/RADAR_INT*%
X151500000Y-118900000D03*
%TD*%
%TO.P,TP14,1,1*%
%TO.N,/Portenta/TOF_RST*%
X140200000Y-98500000D03*
%TD*%
D30*
%TO.P,U2,1,INH*%
%TO.N,/Radar/V_OSC*%
X162100000Y-105500000D03*
%TO.P,U2,2,GND*%
%TO.N,GND*%
X162095599Y-107300000D03*
%TO.P,U2,3,CLK*%
%TO.N,/Radar/80mhz*%
X160895599Y-107300000D03*
%TO.P,U2,4,VCC*%
%TO.N,/Radar/V_OSC*%
X160895599Y-105500000D03*
%TD*%
D15*
%TO.P,C31,1*%
%TO.N,VTOF*%
X143020000Y-109200000D03*
%TO.P,C31,2*%
%TO.N,GND*%
X143980000Y-109200000D03*
%TD*%
D12*
%TO.P,TP16,1,1*%
%TO.N,/Camera/I2C1_SCL*%
X149900000Y-106800000D03*
%TD*%
D25*
%TO.P,C41,1*%
%TO.N,VCAM*%
X138000000Y-123620000D03*
%TO.P,C41,2*%
%TO.N,GND*%
X138000000Y-124580000D03*
%TD*%
D31*
%TO.P,U10,1,IN*%
%TO.N,VCAM*%
X148450000Y-111962500D03*
%TO.P,U10,2,GND*%
%TO.N,GND*%
X147500000Y-111962500D03*
%TO.P,U10,3,EN*%
%TO.N,VCAM*%
X146550000Y-111962500D03*
%TO.P,U10,4,NC*%
%TO.N,unconnected-(U10-NC-Pad4)*%
X146550000Y-114237500D03*
%TO.P,U10,5,OUT*%
%TO.N,+1V5*%
X148450000Y-114237500D03*
%TD*%
D13*
%TO.P,C4,1*%
%TO.N,+1V8*%
X151500000Y-111325000D03*
%TO.P,C4,2*%
%TO.N,GND*%
X151500000Y-112875000D03*
%TD*%
D32*
%TO.P,R12,1*%
%TO.N,+3.3V*%
X141975000Y-94400000D03*
%TO.P,R12,2*%
%TO.N,/Connectors/ETH_A+*%
X143625000Y-94400000D03*
%TD*%
D33*
%TO.P,C6,1*%
%TO.N,/Radar/VDD_D*%
X155480000Y-109850000D03*
%TO.P,C6,2*%
%TO.N,GND*%
X154520000Y-109850000D03*
%TD*%
D25*
%TO.P,C13,1*%
%TO.N,/Radar/VDD_A*%
X156500000Y-109820000D03*
%TO.P,C13,2*%
%TO.N,GND*%
X156500000Y-110780000D03*
%TD*%
D34*
%TO.P,R14,1*%
%TO.N,+3.3V*%
X148600000Y-96025000D03*
%TO.P,R14,2*%
%TO.N,/Connectors/ETH_B+*%
X148600000Y-94375000D03*
%TD*%
D13*
%TO.P,C38,1*%
%TO.N,+2V8*%
X144400000Y-112325000D03*
%TO.P,C38,2*%
%TO.N,GND*%
X144400000Y-113875000D03*
%TD*%
D35*
%TO.P,R13,1*%
%TO.N,+3.3V*%
X147025000Y-94400000D03*
%TO.P,R13,2*%
%TO.N,/Connectors/ETH_A-*%
X145375000Y-94400000D03*
%TD*%
D12*
%TO.P,TP10,1,1*%
%TO.N,/Portenta/TOF_LPn*%
X138400000Y-101800000D03*
%TD*%
D36*
%TO.P,L2,1,1*%
%TO.N,+1V8*%
X152815000Y-111300000D03*
%TO.P,L2,2,2*%
%TO.N,/Radar/VDD_D*%
X153785000Y-111300000D03*
%TD*%
D24*
%TO.P,C23,1*%
%TO.N,/Radar/VDD_RF*%
X156400000Y-102775000D03*
%TO.P,C23,2*%
%TO.N,GND*%
X156400000Y-101225000D03*
%TD*%
D15*
%TO.P,C24,1*%
%TO.N,/Radar/VDD_RF*%
X156020000Y-104150000D03*
%TO.P,C24,2*%
%TO.N,GND*%
X156980000Y-104150000D03*
%TD*%
D14*
%TO.P,C44,1*%
%TO.N,+1V5*%
X148275000Y-117700000D03*
%TO.P,C44,2*%
%TO.N,GND*%
X146725000Y-117700000D03*
%TD*%
D19*
%TO.P,L9,1,1*%
%TO.N,GND*%
X138000000Y-116015000D03*
%TO.P,L9,2,2*%
%TO.N,GNDA*%
X138000000Y-116985000D03*
%TD*%
D24*
%TO.P,C7,1*%
%TO.N,/Radar/VDD_RF*%
X154600000Y-102775000D03*
%TO.P,C7,2*%
%TO.N,GND*%
X154600000Y-101225000D03*
%TD*%
D12*
%TO.P,TP13,1,1*%
%TO.N,/Portenta/TOF_INT*%
X138400000Y-103900000D03*
%TD*%
D13*
%TO.P,C5,1*%
%TO.N,/Radar/VDD_D*%
X155100000Y-111325000D03*
%TO.P,C5,2*%
%TO.N,GND*%
X155100000Y-112875000D03*
%TD*%
D17*
%TO.P,C55,1*%
%TO.N,+3.3V*%
X143500000Y-104480000D03*
%TO.P,C55,2*%
%TO.N,GND*%
X143500000Y-103520000D03*
%TD*%
D15*
%TO.P,C17,1*%
%TO.N,/Radar/VDD_RF*%
X158770000Y-106150000D03*
%TO.P,C17,2*%
%TO.N,GND*%
X159730000Y-106150000D03*
%TD*%
D25*
%TO.P,C29,1*%
%TO.N,VTOF*%
X147000000Y-107020000D03*
%TO.P,C29,2*%
%TO.N,GND*%
X147000000Y-107980000D03*
%TD*%
D12*
%TO.P,TP12,1,1*%
%TO.N,/Portenta/I2C3_SDA*%
X142000000Y-99600000D03*
%TD*%
%TO.P,TP3,1,1*%
%TO.N,/Camera/GNDMotor*%
X146000000Y-131500000D03*
%TD*%
D15*
%TO.P,C33,1*%
%TO.N,VCAM*%
X152920000Y-129900000D03*
%TO.P,C33,2*%
%TO.N,GND*%
X153880000Y-129900000D03*
%TD*%
%TO.P,C10,1*%
%TO.N,/Radar/V_OSC*%
X161020000Y-104500000D03*
%TO.P,C10,2*%
%TO.N,GND*%
X161980000Y-104500000D03*
%TD*%
D12*
%TO.P,TP4,1,1*%
%TO.N,/Portenta/SPI2_MOSI*%
X155500000Y-118900000D03*
%TD*%
D37*
%TO.P,J5,1*%
%TO.N,Net-(J5-Pad1)*%
X140890000Y-90920000D03*
%TO.P,J5,2*%
%TO.N,GND*%
X142730000Y-90920000D03*
D38*
%TO.P,J5,3,TD+*%
%TO.N,/Connectors/ETH_A+*%
X143930000Y-90920000D03*
%TO.P,J5,4,TD-*%
%TO.N,/Connectors/ETH_A-*%
X144950000Y-90920000D03*
%TO.P,J5,5,TCT*%
%TO.N,+3.3V*%
X145970000Y-90920000D03*
%TO.P,J5,6,RCT*%
X146990000Y-90920000D03*
%TO.P,J5,7,RD+*%
%TO.N,/Connectors/ETH_B+*%
X148010000Y-90920000D03*
%TO.P,J5,8,RD-*%
%TO.N,/Connectors/ETH_B-*%
X149030000Y-90920000D03*
%TO.P,J5,9,NC*%
%TO.N,unconnected-(J5-NC-Pad9)*%
X150050000Y-90920000D03*
%TO.P,J5,10,10*%
%TO.N,GND*%
X151070000Y-90920000D03*
D37*
%TO.P,J5,11*%
%TO.N,Net-(J5-Pad11)*%
X152270000Y-90920000D03*
%TO.P,J5,12*%
%TO.N,+3.3V*%
X154110000Y-90920000D03*
D39*
%TO.P,J5,S1,SHIELD*%
%TO.N,GND*%
X138830000Y-71000000D03*
D40*
%TO.P,J5,S2,SHIELD*%
X156170000Y-71000000D03*
%TD*%
D16*
%TO.P,C50,1*%
%TO.N,+3.3V*%
X142032182Y-97807182D03*
%TO.P,C50,2*%
%TO.N,GND*%
X143582182Y-97807182D03*
%TD*%
D12*
%TO.P,TP11,1,1*%
%TO.N,/Portenta/I2C3_SCL*%
X140200000Y-100700000D03*
%TD*%
D41*
%TO.P,R1,1*%
%TO.N,/Radar/80mhz*%
X159810000Y-107250000D03*
%TO.P,R1,2*%
%TO.N,/Radar/OSC_CLK*%
X158790000Y-107250000D03*
%TD*%
D33*
%TO.P,C8,1*%
%TO.N,/Radar/VDD_RF*%
X154980000Y-104150000D03*
%TO.P,C8,2*%
%TO.N,GND*%
X154020000Y-104150000D03*
%TD*%
D14*
%TO.P,C42,1*%
%TO.N,VCAM*%
X148275000Y-110100000D03*
%TO.P,C42,2*%
%TO.N,GND*%
X146725000Y-110100000D03*
%TD*%
D12*
%TO.P,TP8,1,1*%
%TO.N,/Portenta/RADAR_nRST*%
X159500000Y-118900000D03*
%TD*%
D14*
%TO.P,C61,1*%
%TO.N,+1V8*%
X155475000Y-99600000D03*
%TO.P,C61,2*%
%TO.N,GND*%
X153925000Y-99600000D03*
%TD*%
%TO.P,C1,1*%
%TO.N,Vradar*%
X160275000Y-113650000D03*
%TO.P,C1,2*%
%TO.N,GND*%
X158725000Y-113650000D03*
%TD*%
D15*
%TO.P,C15,1*%
%TO.N,/Radar/VDD_PLL*%
X158770000Y-108350000D03*
%TO.P,C15,2*%
%TO.N,GND*%
X159730000Y-108350000D03*
%TD*%
D16*
%TO.P,C36,1*%
%TO.N,VCAM*%
X138725000Y-110500000D03*
%TO.P,C36,2*%
%TO.N,GND*%
X140275000Y-110500000D03*
%TD*%
D24*
%TO.P,C26,1*%
%TO.N,Vradar*%
X161500000Y-99475000D03*
%TO.P,C26,2*%
%TO.N,GND*%
X161500000Y-97925000D03*
%TD*%
D42*
%TO.P,D1,1,RK*%
%TO.N,/Portenta/CATR*%
X159200000Y-131850000D03*
%TO.P,D1,2,GK*%
%TO.N,/Portenta/CATG*%
X159200000Y-130950000D03*
%TO.P,D1,3,BK*%
%TO.N,/Portenta/CATB*%
X160800000Y-130950000D03*
%TO.P,D1,4,A*%
%TO.N,+3.3V*%
X160800000Y-131850000D03*
%TD*%
D13*
%TO.P,C51,1*%
%TO.N,+3.3V*%
X146900000Y-95925000D03*
%TO.P,C51,2*%
%TO.N,GND*%
X146900000Y-97475000D03*
%TD*%
D35*
%TO.P,R15,1*%
%TO.N,+3.3V*%
X151825000Y-94400000D03*
%TO.P,R15,2*%
%TO.N,/Connectors/ETH_B-*%
X150175000Y-94400000D03*
%TD*%
D43*
%TO.P,U7,A1,I2C_RST*%
%TO.N,/Portenta/TOF_RST*%
X145250001Y-107952500D03*
%TO.P,U7,A2,RSVD4*%
%TO.N,GND*%
X144500000Y-107952500D03*
%TO.P,U7,A3,INT*%
%TO.N,/Portenta/TOF_INT*%
X143750001Y-107952500D03*
%TO.P,U7,A4,IOVDD*%
%TO.N,VTOF*%
X143000000Y-107952500D03*
%TO.P,U7,A5,LPn*%
%TO.N,/Portenta/TOF_LPn*%
X142249999Y-107952500D03*
%TO.P,U7,A6,RSVD1*%
%TO.N,GND*%
X141500000Y-107952500D03*
%TO.P,U7,A7,RSVD2*%
X140749999Y-107952500D03*
D44*
%TO.P,U7,B1,AVDD*%
%TO.N,VTOF*%
X145451100Y-107000000D03*
D45*
%TO.P,U7,B4,THERMAL_PAD*%
%TO.N,GND*%
X143000000Y-107000000D03*
D44*
%TO.P,U7,B7,AVDD*%
%TO.N,VTOF*%
X140548900Y-107000000D03*
D43*
%TO.P,U7,C1,GND*%
%TO.N,GND*%
X145250001Y-106047500D03*
%TO.P,U7,C2,RSVD6*%
%TO.N,/ToF Sensor/RSVD6*%
X144500000Y-106047500D03*
%TO.P,U7,C3,SDA*%
%TO.N,/Portenta/I2C3_SDA*%
X143750001Y-106047500D03*
%TO.P,U7,C4,SCL*%
%TO.N,/Portenta/I2C3_SCL*%
X143000000Y-106047500D03*
%TO.P,U7,C5,RSVD5*%
%TO.N,unconnected-(U7-RSVD5-PadC5)*%
X142249999Y-106047500D03*
%TO.P,U7,C6,RSVD3*%
%TO.N,GND*%
X141500000Y-106047500D03*
%TO.P,U7,C7,GND*%
X140749999Y-106047500D03*
%TD*%
D14*
%TO.P,C59,1*%
%TO.N,Vradar*%
X160275000Y-117000000D03*
%TO.P,C59,2*%
%TO.N,GND*%
X158725000Y-117000000D03*
%TD*%
D25*
%TO.P,C30,1*%
%TO.N,VTOF*%
X139000000Y-107020000D03*
%TO.P,C30,2*%
%TO.N,GND*%
X139000000Y-107980000D03*
%TD*%
D16*
%TO.P,C32,1*%
%TO.N,VCAM*%
X154225000Y-131400000D03*
%TO.P,C32,2*%
%TO.N,GND*%
X155775000Y-131400000D03*
%TD*%
D20*
%TO.P,R3,1*%
%TO.N,+3.3V*%
X144800000Y-102675000D03*
%TO.P,R3,2*%
%TO.N,/Portenta/I2C3_SDA*%
X144800000Y-104325000D03*
%TD*%
D46*
%TO.P,U9,1,IN*%
%TO.N,VCAM*%
X138662500Y-112150000D03*
%TO.P,U9,2,GND*%
%TO.N,GND*%
X138662500Y-113100000D03*
%TO.P,U9,3,EN*%
%TO.N,VCAM*%
X138662500Y-114050000D03*
%TO.P,U9,4,NC*%
%TO.N,unconnected-(U9-NC-Pad4)*%
X140937500Y-114050000D03*
%TO.P,U9,5,OUT*%
%TO.N,+2V8*%
X140937500Y-112150000D03*
%TD*%
D14*
%TO.P,C60,1*%
%TO.N,+1V8*%
X160275000Y-115200000D03*
%TO.P,C60,2*%
%TO.N,GND*%
X158725000Y-115200000D03*
%TD*%
D24*
%TO.P,C28,1*%
%TO.N,VTOF*%
X140600000Y-104275000D03*
%TO.P,C28,2*%
%TO.N,GND*%
X140600000Y-102725000D03*
%TD*%
D16*
%TO.P,C12,1*%
%TO.N,/Radar/VDD_A*%
X157825000Y-112100000D03*
%TO.P,C12,2*%
%TO.N,GND*%
X159375000Y-112100000D03*
%TD*%
D14*
%TO.P,C43,1*%
%TO.N,+1V5*%
X148275000Y-116100000D03*
%TO.P,C43,2*%
%TO.N,GND*%
X146725000Y-116100000D03*
%TD*%
D47*
%TO.N,+1V8*%
X160900000Y-103100000D03*
%TO.N,GND*%
X162000000Y-104000000D03*
X151900000Y-83900000D03*
X161000000Y-123300000D03*
X161000000Y-124300000D03*
X161000000Y-125300000D03*
X161000000Y-127300000D03*
X161000000Y-126300000D03*
X161000000Y-120300000D03*
X161000000Y-121300000D03*
X161000000Y-122300000D03*
X162000000Y-127300000D03*
X162000000Y-126300000D03*
X162000000Y-125300000D03*
X162000000Y-124300000D03*
X162000000Y-123300000D03*
X162000000Y-122300000D03*
X162000000Y-121300000D03*
X162000000Y-120300000D03*
%TO.N,/Camera/CAM_nRST*%
X150200000Y-102800000D03*
X150200000Y-83300000D03*
X140500000Y-120750000D03*
X150200000Y-74900000D03*
%TO.N,+3.3V*%
X150600000Y-128100000D03*
X139850000Y-84150000D03*
X158800000Y-86000000D03*
X143000000Y-95100000D03*
X148600000Y-126500000D03*
X142800000Y-109900000D03*
X138800000Y-102700000D03*
X154100000Y-88100000D03*
X160000000Y-96800000D03*
X148737000Y-96700000D03*
X140600000Y-95100000D03*
X142200000Y-103400000D03*
X147500000Y-88400000D03*
X161500000Y-131850000D03*
X146600000Y-128100000D03*
X144800000Y-103400000D03*
X155800000Y-128300000D03*
X152400000Y-93800000D03*
X143800000Y-84900000D03*
X143400000Y-105000000D03*
%TO.N,Vradar*%
X162000000Y-113000000D03*
X155000000Y-117000000D03*
X162000000Y-109500000D03*
X161000000Y-117000000D03*
X162300000Y-98400000D03*
%TO.N,GND*%
X153900000Y-130400000D03*
X152100000Y-117000000D03*
X141500000Y-106700000D03*
X148600000Y-128100000D03*
X153300000Y-105800000D03*
X138500000Y-72500000D03*
X158800000Y-87200000D03*
X161500000Y-97300000D03*
X153500000Y-104150000D03*
X140200000Y-107950000D03*
X151700000Y-107750000D03*
X158800000Y-91000000D03*
X153800000Y-76900000D03*
X143550000Y-96650000D03*
X144500000Y-107300000D03*
X142700000Y-88362500D03*
X151100000Y-88100000D03*
X155100000Y-112100000D03*
X147800000Y-114000000D03*
X151600000Y-132100000D03*
X156500000Y-111300000D03*
X143000000Y-100400000D03*
X138000000Y-118300000D03*
X146800000Y-118600000D03*
X156500000Y-72500000D03*
X139000000Y-108400000D03*
X151800000Y-83300000D03*
X160450000Y-108500000D03*
X151700000Y-108750000D03*
X144400000Y-109200000D03*
X151500000Y-100500000D03*
X150600000Y-126500000D03*
X143000000Y-103900000D03*
X158200000Y-68100000D03*
X151300000Y-112074500D03*
X144000000Y-114500000D03*
X138000000Y-127900000D03*
X158800000Y-98700000D03*
X149400000Y-115200000D03*
X157250000Y-105800000D03*
X153300000Y-108200000D03*
X137900000Y-113100000D03*
X159730000Y-108950000D03*
X156400000Y-100600000D03*
X151550000Y-117900000D03*
X157550000Y-117900000D03*
X156500000Y-69500000D03*
X147200000Y-101000000D03*
X147302886Y-116102886D03*
X147400000Y-84900000D03*
X146000000Y-74900000D03*
X147300000Y-117700000D03*
X141500000Y-107300000D03*
X138500000Y-69500000D03*
X138000000Y-115400000D03*
X157500000Y-104150000D03*
X138000000Y-125200000D03*
X146800000Y-116900000D03*
X144500000Y-106700000D03*
X155800000Y-126500000D03*
X158100000Y-117000000D03*
X143000000Y-97300000D03*
X157685188Y-114714812D03*
X161600000Y-82900000D03*
X140600000Y-103400000D03*
X158800000Y-88500000D03*
X138000000Y-120800000D03*
X147700000Y-111500000D03*
X140600000Y-125250000D03*
X149900000Y-115600000D03*
X156250000Y-105750000D03*
X153800000Y-86300000D03*
X145800000Y-106050000D03*
X158200000Y-69800000D03*
X155200000Y-131400000D03*
X156000000Y-116800000D03*
X162100000Y-107950000D03*
X154550000Y-110400000D03*
X153400000Y-128300000D03*
X153300000Y-99600000D03*
X146000000Y-97500000D03*
X154600000Y-100600000D03*
X159750000Y-104300000D03*
X146600000Y-126500000D03*
X147300000Y-110100000D03*
X161675000Y-102400000D03*
X146000000Y-72800000D03*
X162100000Y-106750000D03*
X154000000Y-78700000D03*
X156250000Y-108200000D03*
X149749500Y-88100000D03*
X154250000Y-105800000D03*
X151700000Y-106250000D03*
X152100000Y-115000000D03*
X159730000Y-105550000D03*
X158102720Y-76002720D03*
X160300000Y-110750000D03*
X149800000Y-84900000D03*
X153300000Y-97800000D03*
X157500000Y-109700000D03*
X153800000Y-75100000D03*
X161200000Y-109300000D03*
X139700000Y-110500000D03*
X158200000Y-71500000D03*
X158100000Y-115200000D03*
X151700000Y-105250000D03*
X139849500Y-80700000D03*
X147000000Y-108400000D03*
X148600000Y-83300000D03*
X140200000Y-106050000D03*
X155250000Y-105800000D03*
%TO.N,/Connectors/USB_Shield*%
X160425000Y-69000000D03*
%TO.N,+1V8*%
X156500000Y-114300000D03*
X161000000Y-115200000D03*
X159500000Y-102115000D03*
X152250000Y-111300000D03*
X153400000Y-106800000D03*
X158100000Y-102087500D03*
X156300000Y-99600000D03*
X155000000Y-115000000D03*
X155450000Y-98700000D03*
%TO.N,/Radar/VDD_LF*%
X158310000Y-109090000D03*
%TO.N,/Radar/VDD_RF*%
X155250000Y-104700000D03*
X158300000Y-106200000D03*
X155750000Y-104700000D03*
%TO.N,Net-(J5-Pad11)*%
X145400000Y-68800000D03*
X153100000Y-90900000D03*
%TO.N,/Portenta/SDC_D2*%
X143900000Y-78900000D03*
X145400000Y-81600000D03*
%TO.N,/Portenta/SDC_D3*%
X145000000Y-83300000D03*
X143400000Y-93500000D03*
%TO.N,/Radar/VDD_PLL*%
X158385000Y-107965000D03*
%TO.N,/Radar/VDD_VCO*%
X158300000Y-105200000D03*
%TO.N,/Portenta/SWDIO*%
X159800000Y-86000000D03*
%TO.N,/Portenta/SWCLK*%
X159800000Y-87200000D03*
%TO.N,/Portenta/SWO*%
X159800000Y-88500000D03*
%TO.N,/Portenta/nRST*%
X159800000Y-91000000D03*
%TO.N,/Portenta/UART4_TX*%
X158800000Y-92300000D03*
%TO.N,/Portenta/UART4_RX*%
X159800000Y-92300000D03*
%TO.N,/Portenta/SDC_CMD*%
X145600000Y-95400000D03*
X146600000Y-83300000D03*
%TO.N,/Connectors/USB_FS+*%
X153100000Y-83900000D03*
X153800000Y-76300000D03*
%TO.N,/Connectors/USB_FS-*%
X152500000Y-83900000D03*
X153800000Y-75700000D03*
%TO.N,/Camera/CAM_D7*%
X142200000Y-123750000D03*
%TO.N,/Camera/CAM_D6*%
X142600000Y-124750000D03*
%TO.N,/Camera/CAM_D5*%
X143000000Y-125100000D03*
%TO.N,/Camera/CAM_D4*%
X143400000Y-126500000D03*
%TO.N,/Camera/CAM_D3*%
X143800000Y-127200000D03*
%TO.N,/Camera/CAM_D2*%
X144600000Y-127500000D03*
%TO.N,/Camera/CAM_D1*%
X145000000Y-127200000D03*
%TO.N,/Camera/CAM_D0*%
X145000000Y-126500000D03*
%TO.N,/Camera/CAM_VS*%
X144000000Y-121250000D03*
%TO.N,/Camera/CAM_CK*%
X145800000Y-126500000D03*
%TO.N,/Camera/CAM_HS*%
X145000000Y-121250000D03*
%TO.N,/Connectors/ETH_A+*%
X157800000Y-81500000D03*
%TO.N,/Connectors/ETH_A-*%
X157400000Y-81900000D03*
%TO.N,VTOF*%
X146400000Y-103400000D03*
X143400000Y-109900000D03*
X139000000Y-106600000D03*
X147000000Y-106600000D03*
X140600000Y-104900000D03*
%TO.N,VCAM*%
X138662500Y-111300000D03*
X148300000Y-123250000D03*
%TO.N,/Connectors/ETH_B+*%
X156999500Y-83300000D03*
%TO.N,/Connectors/ETH_B-*%
X156600000Y-83750000D03*
%TO.N,/Connectors/ETH_LED1*%
X149400000Y-68800000D03*
X154600000Y-81500000D03*
%TO.N,/Connectors/ETH_LED2*%
X154200000Y-81900000D03*
X149400000Y-70800000D03*
%TO.N,/Portenta/TOF_RST*%
X145250000Y-108400000D03*
X141000000Y-81600000D03*
X140300000Y-97300000D03*
X141000000Y-87100000D03*
%TO.N,/Portenta/TOF_LPn*%
X140000000Y-86300000D03*
X139500000Y-101800000D03*
X142250000Y-108400000D03*
%TO.N,/Portenta/TOF_INT*%
X140500000Y-84000000D03*
X140500000Y-86700000D03*
X143750000Y-108400000D03*
X141000000Y-105400000D03*
%TO.N,/Portenta/I2C3_SDA*%
X142000000Y-101800000D03*
X142000000Y-87900000D03*
X143750000Y-105600000D03*
%TO.N,/Portenta/I2C3_SCL*%
X141500000Y-101800000D03*
X141500000Y-87500000D03*
X143000000Y-105600000D03*
%TO.N,/Camera/CAM_PWDN*%
X140500000Y-121750000D03*
X150600000Y-72800000D03*
X150600000Y-83700000D03*
%TO.N,/Camera/STROBE*%
X141000000Y-118500000D03*
%TO.N,/Camera/I2C1_SDA*%
X149400000Y-83300000D03*
X141500000Y-119250000D03*
X149600000Y-105200000D03*
%TO.N,/Camera/I2C1_SCL*%
X149000000Y-83700000D03*
X149200000Y-106200000D03*
X140500000Y-120250000D03*
%TO.N,/Portenta/RADAR_INT*%
X152850000Y-119700000D03*
%TO.N,/Portenta/SPI2_NSS*%
X160150000Y-117900000D03*
X149000000Y-125100000D03*
%TO.N,/Portenta/SPI2_SCK*%
X153500000Y-119700000D03*
%TO.N,/Portenta/SPI2_MISO*%
X149800000Y-125100000D03*
X158853003Y-119700000D03*
%TO.N,/Portenta/SPI2_MOSI*%
X154150000Y-119700000D03*
%TO.N,/Radar/SCK_1V8*%
X153250000Y-110000000D03*
%TO.N,/Radar/INT_1V8*%
X153250497Y-109250000D03*
%TO.N,/Radar/MOSI_1V8*%
X153750000Y-109250000D03*
%TO.N,/Radar/MISO_1V8*%
X154250000Y-108250000D03*
%TO.N,/Radar/RST_1V8*%
X154750497Y-108250000D03*
%TO.N,/Radar/NSS_1V8*%
X155250000Y-108250000D03*
%TO.N,/Portenta/SDC_CLK*%
X147000000Y-83700000D03*
X146000000Y-96000000D03*
%TO.N,/Portenta/SDC_D0*%
X146200000Y-83700000D03*
X145200000Y-98800000D03*
%TO.N,/Portenta/CATR*%
X158500000Y-131850000D03*
%TO.N,+5V*%
X148000000Y-81600000D03*
X148500000Y-108500000D03*
%TO.N,/Portenta/SDC_D1*%
X144800000Y-99200000D03*
X145800000Y-83300000D03*
%TO.N,Net-(J4-CC1)*%
X158600000Y-72500000D03*
%TO.N,Net-(J4-CC2)*%
X160800000Y-80400000D03*
%TO.N,Net-(J5-Pad1)*%
X139750000Y-76450000D03*
%TO.N,/Portenta/RADAR_nRST*%
X159500000Y-119700000D03*
%TO.N,/Portenta/CATG*%
X158500000Y-130950000D03*
%TO.N,/Portenta/CATB*%
X161500000Y-130950000D03*
%TO.N,Net-(J3-DAT2)*%
X146902277Y-78902277D03*
X144400000Y-94300000D03*
%TD*%
D48*
%TO.N,Net-(J5-Pad1)*%
X139750000Y-76450000D02*
X139500000Y-76700000D01*
X139500000Y-76700000D02*
X139500000Y-90500000D01*
X139920000Y-90920000D02*
X140890000Y-90920000D01*
X139500000Y-90500000D02*
X139920000Y-90920000D01*
%TO.N,/Portenta/RADAR_INT*%
X152850000Y-119700000D02*
X152300000Y-119700000D01*
X152300000Y-119700000D02*
X151500000Y-118900000D01*
%TO.N,/Portenta/SPI2_SCK*%
X153500000Y-118900000D02*
X153500000Y-119700000D01*
%TO.N,/Portenta/SPI2_MOSI*%
X154150000Y-119700000D02*
X154700000Y-119700000D01*
X154700000Y-119700000D02*
X155500000Y-118900000D01*
%TO.N,/Portenta/SPI2_MISO*%
X158300000Y-119700000D02*
X157500000Y-118900000D01*
X158853003Y-119700000D02*
X158300000Y-119700000D01*
%TO.N,/Portenta/RADAR_nRST*%
X159500000Y-118900000D02*
X159500000Y-119700000D01*
%TO.N,/Camera/CAM_nRST*%
X139520000Y-120750000D02*
X140500000Y-120750000D01*
D49*
%TO.N,+3.3V*%
X160800000Y-131850000D02*
X161500000Y-131850000D01*
X151825000Y-94375000D02*
X152400000Y-93800000D01*
X146990000Y-90920000D02*
X146990000Y-94365000D01*
D50*
X140600000Y-95500000D02*
X140600000Y-95100000D01*
D49*
X157350000Y-85960000D02*
X158760000Y-85960000D01*
X154110000Y-88110000D02*
X154100000Y-88100000D01*
X147500000Y-88400000D02*
X146990000Y-88910000D01*
X144800000Y-102675000D02*
X144800000Y-103400000D01*
X146990000Y-94365000D02*
X147025000Y-94400000D01*
D50*
X146900000Y-95925000D02*
X146990000Y-95835000D01*
D49*
X154110000Y-90920000D02*
X154110000Y-88110000D01*
X143500000Y-104900000D02*
X143400000Y-105000000D01*
X146990000Y-88910000D02*
X146990000Y-90920000D01*
X141975000Y-94400000D02*
X141975000Y-94475000D01*
D50*
X142025000Y-96100000D02*
X141200000Y-96100000D01*
D49*
X142600000Y-95100000D02*
X143000000Y-95100000D01*
X143500000Y-104480000D02*
X143500000Y-104900000D01*
D50*
X146990000Y-95835000D02*
X146990000Y-90920000D01*
X141200000Y-96100000D02*
X140600000Y-95500000D01*
X145970000Y-90920000D02*
X146990000Y-90920000D01*
X142032182Y-97807182D02*
X142032182Y-96107182D01*
X142032182Y-96107182D02*
X142025000Y-96100000D01*
D49*
X141975000Y-94475000D02*
X142600000Y-95100000D01*
X148737000Y-96162000D02*
X148600000Y-96025000D01*
X148737000Y-96700000D02*
X148737000Y-96162000D01*
X142200000Y-102675000D02*
X142200000Y-103400000D01*
X151825000Y-94400000D02*
X151825000Y-94375000D01*
X158760000Y-85960000D02*
X158800000Y-86000000D01*
%TO.N,Vradar*%
X162000000Y-109700000D02*
X162000000Y-109500000D01*
X160700000Y-98000000D02*
X160700000Y-99650000D01*
D50*
X161325000Y-99650000D02*
X161500000Y-99475000D01*
D49*
X160450000Y-97750000D02*
X160700000Y-98000000D01*
X160925000Y-113000000D02*
X161400000Y-113000000D01*
D50*
X159637500Y-99650000D02*
X160700000Y-99650000D01*
X161000000Y-117000000D02*
X160275000Y-117000000D01*
X162300000Y-98675000D02*
X161500000Y-99475000D01*
D49*
X161685000Y-110000000D02*
X161700000Y-110000000D01*
D50*
X162300000Y-98400000D02*
X162300000Y-98675000D01*
D49*
X161400000Y-113000000D02*
X162000000Y-113000000D01*
X161700000Y-110000000D02*
X162000000Y-109700000D01*
X160275000Y-113650000D02*
X160925000Y-113000000D01*
X159637500Y-97750000D02*
X160450000Y-97750000D01*
D50*
X155000000Y-117000000D02*
X154275000Y-117000000D01*
X160700000Y-99650000D02*
X161325000Y-99650000D01*
%TO.N,GND*%
X140275000Y-110500000D02*
X139700000Y-110500000D01*
X159730000Y-105550000D02*
X159730000Y-105000000D01*
X146725000Y-116100000D02*
X147300000Y-116100000D01*
D49*
X144000000Y-114500000D02*
X143375000Y-113875000D01*
D50*
X138000000Y-121420000D02*
X138000000Y-120800000D01*
X146025000Y-97475000D02*
X146000000Y-97500000D01*
D49*
X162095599Y-106754401D02*
X162100000Y-106750000D01*
X156500000Y-111300000D02*
X156500000Y-110780000D01*
D50*
X159730000Y-110750000D02*
X160300000Y-110750000D01*
X151300000Y-112675000D02*
X151500000Y-112875000D01*
X151070000Y-90920000D02*
X151070000Y-88130000D01*
X140600000Y-102725000D02*
X140600000Y-103400000D01*
X138000000Y-118920000D02*
X138000000Y-118300000D01*
D49*
X145250001Y-106047500D02*
X145797500Y-106047500D01*
X162095599Y-107300000D02*
X162095599Y-107945599D01*
D50*
X159730000Y-108950000D02*
X159730000Y-108350000D01*
D49*
X157350000Y-87230000D02*
X158770000Y-87230000D01*
D50*
X153880000Y-130380000D02*
X153900000Y-130400000D01*
D49*
X161980000Y-104500000D02*
X161980000Y-104020000D01*
X162095599Y-107300000D02*
X162095599Y-106754401D01*
X154020000Y-104150000D02*
X153500000Y-104150000D01*
X140749999Y-106047500D02*
X140202500Y-106047500D01*
X157685188Y-114714812D02*
X157685188Y-114689812D01*
D50*
X143575000Y-96100000D02*
X143575000Y-96625000D01*
X156025000Y-116775000D02*
X156000000Y-116800000D01*
D49*
X157350000Y-91040000D02*
X158760000Y-91040000D01*
X143380000Y-103520000D02*
X143000000Y-103900000D01*
X157350000Y-88500000D02*
X158800000Y-88500000D01*
D50*
X138662500Y-113100000D02*
X137900000Y-113100000D01*
X138000000Y-124580000D02*
X138000000Y-125200000D01*
X152725000Y-117000000D02*
X152100000Y-117000000D01*
X144400000Y-114100000D02*
X144400000Y-113875000D01*
X139000000Y-107980000D02*
X139000000Y-108400000D01*
X158725000Y-117000000D02*
X158100000Y-117000000D01*
X146725000Y-110100000D02*
X147300000Y-110100000D01*
D49*
X140202500Y-106047500D02*
X140200000Y-106050000D01*
D50*
X159730000Y-105550000D02*
X159730000Y-106150000D01*
X161500000Y-97925000D02*
X161500000Y-97300000D01*
D49*
X144500000Y-107300000D02*
X141500000Y-107300000D01*
X140749999Y-107952500D02*
X140202500Y-107952500D01*
D50*
X143980000Y-109200000D02*
X144400000Y-109200000D01*
D49*
X143375000Y-113875000D02*
X142800000Y-113875000D01*
D50*
X143575000Y-96625000D02*
X143550000Y-96650000D01*
X143582182Y-97807182D02*
X143507182Y-97807182D01*
X151100000Y-132095599D02*
X151595599Y-132095599D01*
X153880000Y-129900000D02*
X153880000Y-130380000D01*
D49*
X140202500Y-107952500D02*
X140200000Y-107950000D01*
X142730000Y-88392500D02*
X142730000Y-90920000D01*
D50*
X155775000Y-131400000D02*
X155200000Y-131400000D01*
X147300000Y-116100000D02*
X147302886Y-116102886D01*
D49*
X154520000Y-109850000D02*
X154520000Y-110370000D01*
X142700000Y-88362500D02*
X142730000Y-88392500D01*
D50*
X155100000Y-112100000D02*
X155100000Y-112875000D01*
D49*
X154520000Y-110370000D02*
X154550000Y-110400000D01*
X141500000Y-106047500D02*
X141500000Y-106700000D01*
D50*
X159637500Y-98700000D02*
X158800000Y-98700000D01*
X146900000Y-97475000D02*
X146025000Y-97475000D01*
D49*
X161980000Y-104020000D02*
X162000000Y-104000000D01*
X158770000Y-87230000D02*
X158800000Y-87200000D01*
X158760000Y-91040000D02*
X158800000Y-91000000D01*
D50*
X151300000Y-112074500D02*
X151300000Y-112675000D01*
X138000000Y-116015000D02*
X138000000Y-115400000D01*
X158725000Y-115200000D02*
X158100000Y-115200000D01*
D49*
X156980000Y-104150000D02*
X157500000Y-104150000D01*
X156750000Y-108750000D02*
X156750000Y-108950000D01*
D50*
X153925000Y-99600000D02*
X153300000Y-99600000D01*
X144000000Y-114500000D02*
X144400000Y-114100000D01*
X138000000Y-127280000D02*
X138000000Y-127900000D01*
X156400000Y-101225000D02*
X156400000Y-100600000D01*
X147000000Y-107980000D02*
X147000000Y-108400000D01*
X146725000Y-117700000D02*
X147300000Y-117700000D01*
X149900000Y-116125000D02*
X149900000Y-115600000D01*
X156500000Y-116775000D02*
X156025000Y-116775000D01*
D49*
X156750000Y-108950000D02*
X157500000Y-109700000D01*
D50*
X151595599Y-132095599D02*
X151600000Y-132100000D01*
D49*
X145797500Y-106047500D02*
X145800000Y-106050000D01*
X141500000Y-106700000D02*
X144500000Y-106700000D01*
D50*
X152725000Y-115000000D02*
X152100000Y-115000000D01*
X153925000Y-97800000D02*
X153300000Y-97800000D01*
X154600000Y-101225000D02*
X154600000Y-100600000D01*
X159730000Y-108950000D02*
X159730000Y-109550000D01*
X143507182Y-97807182D02*
X143000000Y-97300000D01*
D49*
X157685188Y-114689812D02*
X158725000Y-113650000D01*
X161675000Y-102400000D02*
X161675000Y-103100000D01*
D50*
X159730000Y-111745000D02*
X159375000Y-112100000D01*
X159730000Y-110750000D02*
X159730000Y-111745000D01*
X151070000Y-88130000D02*
X151100000Y-88100000D01*
X139520000Y-125250000D02*
X140600000Y-125250000D01*
D49*
X144500000Y-107952500D02*
X144500000Y-107300000D01*
X141500000Y-107952500D02*
X141500000Y-107300000D01*
X143500000Y-103520000D02*
X143380000Y-103520000D01*
X162095599Y-107945599D02*
X162100000Y-107950000D01*
D50*
%TO.N,+1V5*%
X148275000Y-121725000D02*
X147250000Y-122750000D01*
D51*
X148275000Y-117700000D02*
X149875000Y-117700000D01*
D50*
X138370000Y-122750000D02*
X138000000Y-122380000D01*
D51*
X148450000Y-117525000D02*
X148275000Y-117700000D01*
X149875000Y-117700000D02*
X149900000Y-117675000D01*
D50*
X147250000Y-122750000D02*
X139520000Y-122750000D01*
X139520000Y-122750000D02*
X138370000Y-122750000D01*
X148275000Y-117700000D02*
X148275000Y-121725000D01*
D51*
X148450000Y-114237500D02*
X148450000Y-117525000D01*
D50*
%TO.N,+2V8*%
X139520000Y-119750000D02*
X138030000Y-119750000D01*
X144400000Y-112325000D02*
X145350000Y-113275000D01*
X145350000Y-113275000D02*
X145350000Y-119150000D01*
X144100000Y-119750000D02*
X139520000Y-119750000D01*
X144750000Y-119750000D02*
X144100000Y-119750000D01*
D51*
X140937500Y-112150000D02*
X144225000Y-112150000D01*
D50*
X138030000Y-119850000D02*
X138000000Y-119880000D01*
D51*
X144225000Y-112150000D02*
X144400000Y-112325000D01*
D50*
X145350000Y-119150000D02*
X144750000Y-119750000D01*
%TO.N,/Connectors/USB_Shield*%
X160400000Y-72500000D02*
X161300000Y-72500000D01*
X161946750Y-78575000D02*
X161946750Y-73775000D01*
X161300000Y-72500000D02*
X161946750Y-73146750D01*
X161946750Y-79153250D02*
X161946750Y-78575000D01*
X159086750Y-73013250D02*
X159600000Y-72500000D01*
X159600000Y-72500000D02*
X160400000Y-72500000D01*
X159086750Y-78575000D02*
X159086750Y-79186750D01*
X160400000Y-69025000D02*
X160425000Y-69000000D01*
X161946750Y-73146750D02*
X161946750Y-73775000D01*
X159086750Y-73775000D02*
X159086750Y-73013250D01*
X161300000Y-79800000D02*
X161946750Y-79153250D01*
X159700000Y-79800000D02*
X161300000Y-79800000D01*
X159086750Y-79186750D02*
X159700000Y-79800000D01*
X160400000Y-72500000D02*
X160400000Y-69025000D01*
D49*
%TO.N,/Radar/V_OSC*%
X160895599Y-105500000D02*
X160895599Y-104624401D01*
X160895599Y-104624401D02*
X161020000Y-104500000D01*
X160125000Y-103100000D02*
X158815000Y-103100000D01*
X160895599Y-105500000D02*
X162100000Y-105500000D01*
X161020000Y-103995000D02*
X160125000Y-103100000D01*
X158815000Y-103100000D02*
X158800000Y-103085000D01*
X161020000Y-104500000D02*
X161020000Y-103995000D01*
D50*
%TO.N,+1V8*%
X161000000Y-115200000D02*
X160275000Y-115200000D01*
X152225000Y-111325000D02*
X151500000Y-111325000D01*
X155475000Y-99600000D02*
X156300000Y-99600000D01*
X156500000Y-114300000D02*
X156500000Y-115225000D01*
X155450000Y-98700000D02*
X155475000Y-98725000D01*
D49*
X158100000Y-102087500D02*
X158112500Y-102100000D01*
X158112500Y-102100000D02*
X158800000Y-102100000D01*
D50*
X155475000Y-98675000D02*
X155450000Y-98700000D01*
X155475000Y-97800000D02*
X155475000Y-98675000D01*
X152250000Y-111300000D02*
X152225000Y-111325000D01*
X156300000Y-99600000D02*
X157312500Y-99600000D01*
X155000000Y-115000000D02*
X154275000Y-115000000D01*
X152250000Y-111300000D02*
X152815000Y-111300000D01*
X156500000Y-114300000D02*
X156500000Y-113385000D01*
X155475000Y-98725000D02*
X155475000Y-99600000D01*
X157312500Y-99600000D02*
X157362500Y-99650000D01*
D49*
%TO.N,/Radar/VDD_LF*%
X160565000Y-110150000D02*
X160715000Y-110000000D01*
X158770000Y-109550000D02*
X159370000Y-110150000D01*
X158310000Y-109090000D02*
X158310000Y-108810000D01*
X159370000Y-110150000D02*
X160565000Y-110150000D01*
X158310000Y-109090000D02*
X158770000Y-109550000D01*
X158310000Y-108810000D02*
X157750000Y-108250000D01*
%TO.N,/Radar/VDD_A*%
X156250000Y-109200000D02*
X156250000Y-109820000D01*
D50*
X156500000Y-112415000D02*
X157510000Y-112415000D01*
X157825000Y-111145000D02*
X157825000Y-112100000D01*
D49*
X156250000Y-109820000D02*
X156500000Y-109820000D01*
D50*
X156500000Y-109820000D02*
X157825000Y-111145000D01*
X157510000Y-112415000D02*
X157825000Y-112100000D01*
D49*
X156250000Y-108750000D02*
X156250000Y-109200000D01*
%TO.N,/Radar/VDD_RF*%
X155250000Y-104700000D02*
X155250000Y-104420000D01*
X155750000Y-105250000D02*
X155750000Y-104700000D01*
X155750000Y-104700000D02*
X155750000Y-104420000D01*
X155250000Y-105250000D02*
X155250000Y-104700000D01*
X158720000Y-106200000D02*
X158770000Y-106150000D01*
X158300000Y-106200000D02*
X158720000Y-106200000D01*
X155750000Y-104420000D02*
X156020000Y-104150000D01*
X158300000Y-106200000D02*
X157750000Y-106750000D01*
X155250000Y-104420000D02*
X154980000Y-104150000D01*
D50*
X154980000Y-104150000D02*
X154980000Y-103155000D01*
X156020000Y-103155000D02*
X156400000Y-102775000D01*
X154980000Y-103155000D02*
X154600000Y-102775000D01*
X156020000Y-104150000D02*
X156020000Y-103155000D01*
D48*
%TO.N,Net-(J5-Pad11)*%
X152270000Y-90920000D02*
X153080000Y-90920000D01*
X153080000Y-90920000D02*
X153100000Y-90900000D01*
D50*
%TO.N,/Radar/VDD_D*%
X153810000Y-111325000D02*
X155100000Y-111325000D01*
X155480000Y-109850000D02*
X155480000Y-110320000D01*
X155480000Y-110320000D02*
X155100000Y-110700000D01*
X155100000Y-110700000D02*
X155100000Y-111325000D01*
D49*
X155750000Y-109200000D02*
X155750000Y-109850000D01*
X155750000Y-109850000D02*
X155480000Y-109850000D01*
D50*
X153785000Y-111300000D02*
X153810000Y-111325000D01*
D49*
X155750000Y-108750000D02*
X155750000Y-109200000D01*
%TO.N,/Radar/VDD_PLL*%
X158385000Y-107965000D02*
X158170000Y-107750000D01*
X158170000Y-107750000D02*
X157750000Y-107750000D01*
X158385000Y-107965000D02*
X158770000Y-108350000D01*
%TO.N,/Radar/VDD_VCO*%
X157750000Y-105750000D02*
X158300000Y-105200000D01*
X158570000Y-105200000D02*
X158770000Y-105000000D01*
X158300000Y-105200000D02*
X158570000Y-105200000D01*
%TO.N,/Radar/V_AREF*%
X157250000Y-108750000D02*
X157250000Y-108900000D01*
X158770000Y-110420000D02*
X158770000Y-110750000D01*
X157250000Y-108900000D02*
X158770000Y-110420000D01*
D50*
%TO.N,GNDA*%
X139520000Y-118750000D02*
X138750000Y-118750000D01*
X138600000Y-118600000D02*
X138600000Y-117585000D01*
X138600000Y-117585000D02*
X138000000Y-116985000D01*
X138750000Y-118750000D02*
X138600000Y-118600000D01*
D48*
%TO.N,/Portenta/SWDIO*%
X159840000Y-85960000D02*
X159800000Y-86000000D01*
X161250000Y-85960000D02*
X159840000Y-85960000D01*
%TO.N,/Portenta/SWCLK*%
X159830000Y-87230000D02*
X159800000Y-87200000D01*
X161250000Y-87230000D02*
X159830000Y-87230000D01*
%TO.N,/Portenta/SWO*%
X161250000Y-88500000D02*
X159800000Y-88500000D01*
%TO.N,/Portenta/nRST*%
X159840000Y-91040000D02*
X159800000Y-91000000D01*
X161250000Y-91040000D02*
X159840000Y-91040000D01*
%TO.N,/Portenta/UART4_TX*%
X157350000Y-92310000D02*
X158790000Y-92310000D01*
X158790000Y-92310000D02*
X158800000Y-92300000D01*
%TO.N,/Portenta/UART4_RX*%
X161250000Y-92310000D02*
X159810000Y-92310000D01*
X159810000Y-92310000D02*
X159800000Y-92300000D01*
D52*
%TO.N,/Connectors/USB_FS+*%
X153100000Y-83900000D02*
X152965001Y-83765001D01*
X153666691Y-76300000D02*
X153800000Y-76300000D01*
X152965001Y-77001690D02*
X153666691Y-76300000D01*
X152965001Y-83765001D02*
X152965001Y-77001690D01*
%TO.N,/Connectors/USB_FS-*%
X152634999Y-76865001D02*
X153800000Y-75700000D01*
X152634999Y-83765001D02*
X152634999Y-76865001D01*
X152500000Y-83900000D02*
X152634999Y-83765001D01*
D48*
%TO.N,/Camera/CAM_D7*%
X142200000Y-123750000D02*
X139520000Y-123750000D01*
%TO.N,/Camera/CAM_D6*%
X142600000Y-124750000D02*
X139520000Y-124750000D01*
%TO.N,/Camera/CAM_D5*%
X143000000Y-125500000D02*
X142750000Y-125750000D01*
X142750000Y-125750000D02*
X139520000Y-125750000D01*
X143000000Y-125100000D02*
X143000000Y-125500000D01*
%TO.N,/Camera/CAM_D4*%
X143150000Y-126750000D02*
X139520000Y-126750000D01*
X143400000Y-126500000D02*
X143150000Y-126750000D01*
%TO.N,/Camera/CAM_D3*%
X143250000Y-127750000D02*
X139520000Y-127750000D01*
X143800000Y-127200000D02*
X143250000Y-127750000D01*
%TO.N,/Camera/CAM_D2*%
X139520000Y-128750000D02*
X143350000Y-128750000D01*
X143350000Y-128750000D02*
X144600000Y-127500000D01*
%TO.N,/Camera/CAM_D1*%
X144455025Y-127150000D02*
X143355025Y-128250000D01*
X144950000Y-127150000D02*
X144455025Y-127150000D01*
X143355025Y-128250000D02*
X139520000Y-128250000D01*
X145000000Y-127200000D02*
X144950000Y-127150000D01*
%TO.N,/Camera/CAM_D0*%
X143950000Y-126500000D02*
X143200000Y-127250000D01*
X143200000Y-127250000D02*
X139520000Y-127250000D01*
X145000000Y-126500000D02*
X143950000Y-126500000D01*
%TO.N,/Camera/CAM_VS*%
X144000000Y-121250000D02*
X139520000Y-121250000D01*
%TO.N,/Camera/CAM_CK*%
X145250000Y-125950000D02*
X143200000Y-125950000D01*
X138070000Y-126250000D02*
X138000000Y-126320000D01*
X145800000Y-126500000D02*
X145250000Y-125950000D01*
X142900000Y-126250000D02*
X139520000Y-126250000D01*
X143200000Y-125950000D02*
X142900000Y-126250000D01*
X139520000Y-126250000D02*
X138070000Y-126250000D01*
%TO.N,/Camera/CAM_HS*%
X145000000Y-121250000D02*
X144000000Y-122250000D01*
X144000000Y-122250000D02*
X139520000Y-122250000D01*
D52*
%TO.N,/Connectors/ETH_A+*%
X143930000Y-90920000D02*
X143930000Y-94095000D01*
X145631654Y-86035000D02*
X151731654Y-86035000D01*
X143930000Y-94095000D02*
X143625000Y-94400000D01*
X156266654Y-81500000D02*
X157800000Y-81500000D01*
X144275000Y-88580000D02*
X144275000Y-87391654D01*
X151731654Y-86035000D02*
X156266654Y-81500000D01*
X143930000Y-88925000D02*
X144275000Y-88580000D01*
X144275000Y-87391654D02*
X145631654Y-86035000D01*
X143930000Y-90920000D02*
X143930000Y-88925000D01*
%TO.N,/Connectors/ETH_A-*%
X144950000Y-93975000D02*
X145375000Y-94400000D01*
X157330000Y-81830000D02*
X157400000Y-81900000D01*
X144950000Y-88925000D02*
X144605000Y-88580000D01*
X144605000Y-88580000D02*
X144605000Y-87528346D01*
X144950000Y-90920000D02*
X144950000Y-93975000D01*
X144950000Y-90920000D02*
X144950000Y-88925000D01*
X144605000Y-87528346D02*
X145768346Y-86365000D01*
X156403346Y-81830000D02*
X157330000Y-81830000D01*
X151868346Y-86365000D02*
X156403346Y-81830000D01*
X145768346Y-86365000D02*
X151868346Y-86365000D01*
D50*
%TO.N,VTOF*%
X140000000Y-107000000D02*
X139020000Y-107000000D01*
X140548900Y-107000000D02*
X140000000Y-107000000D01*
X139000000Y-107020000D02*
X139000000Y-106600000D01*
X139020000Y-107000000D02*
X139000000Y-107020000D01*
X147000000Y-107020000D02*
X147000000Y-106600000D01*
X143000000Y-108400000D02*
X143000000Y-107952500D01*
X145451100Y-107000000D02*
X146000000Y-107000000D01*
X146980000Y-107000000D02*
X147000000Y-107020000D01*
X140600000Y-104275000D02*
X140600000Y-104900000D01*
X143000000Y-109320000D02*
X143000000Y-108400000D01*
X143400000Y-109580000D02*
X143400000Y-109900000D01*
X146000000Y-107000000D02*
X146980000Y-107000000D01*
D49*
X146400000Y-102675000D02*
X146400000Y-103400000D01*
D50*
X143020000Y-109200000D02*
X143400000Y-109580000D01*
%TO.N,VCAM*%
X148300000Y-123250000D02*
X151550000Y-123250000D01*
D49*
X138662500Y-112150000D02*
X139550000Y-112150000D01*
X146550000Y-111962500D02*
X146550000Y-112850000D01*
D50*
X141600000Y-111000000D02*
X141300000Y-111300000D01*
D49*
X146800000Y-113100000D02*
X148200000Y-113100000D01*
D50*
X138370000Y-123250000D02*
X138000000Y-123620000D01*
D51*
X138662500Y-111300000D02*
X138662500Y-110562500D01*
D50*
X141300000Y-111300000D02*
X138662500Y-111300000D01*
D49*
X138662500Y-114050000D02*
X139550000Y-114050000D01*
D50*
X152900000Y-124600000D02*
X152900000Y-130895599D01*
D51*
X148450000Y-110275000D02*
X148275000Y-110100000D01*
D49*
X146550000Y-112850000D02*
X146800000Y-113100000D01*
X139550000Y-112150000D02*
X139800000Y-112400000D01*
D50*
X153720599Y-130895599D02*
X154225000Y-131400000D01*
X151550000Y-123250000D02*
X152900000Y-124600000D01*
D51*
X138662500Y-110562500D02*
X138725000Y-110500000D01*
X148450000Y-111962500D02*
X148450000Y-111000000D01*
D49*
X148450000Y-111962500D02*
X148450000Y-112850000D01*
X152900000Y-130895599D02*
X152900000Y-132100000D01*
X139800000Y-112400000D02*
X139800000Y-113800000D01*
X139550000Y-114050000D02*
X139800000Y-113800000D01*
D50*
X148450000Y-111000000D02*
X141600000Y-111000000D01*
D51*
X148450000Y-111000000D02*
X148450000Y-110275000D01*
D49*
X148450000Y-112850000D02*
X148200000Y-113100000D01*
D50*
X139520000Y-123250000D02*
X138370000Y-123250000D01*
D51*
X138662500Y-112150000D02*
X138662500Y-111300000D01*
D50*
X139520000Y-123250000D02*
X148300000Y-123250000D01*
X152900000Y-130895599D02*
X153720599Y-130895599D01*
D52*
%TO.N,/Connectors/ETH_B+*%
X148355000Y-88211654D02*
X149525669Y-87040985D01*
X149525669Y-87040985D02*
X151925669Y-87040985D01*
X148010000Y-90920000D02*
X148010000Y-88925000D01*
X148600000Y-94375000D02*
X148010000Y-93785000D01*
X151925669Y-87040985D02*
X155666654Y-83300000D01*
X148355000Y-88580000D02*
X148355000Y-88211654D01*
X155666654Y-83300000D02*
X156999500Y-83300000D01*
X148010000Y-88925000D02*
X148355000Y-88580000D01*
X148010000Y-93785000D02*
X148010000Y-90920000D01*
%TO.N,/Connectors/ETH_B-*%
X148685000Y-88348346D02*
X149662361Y-87370985D01*
X149030000Y-88925000D02*
X148685000Y-88580000D01*
X149030000Y-90920000D02*
X149030000Y-88925000D01*
X155803346Y-83630000D02*
X156480000Y-83630000D01*
X149662361Y-87370985D02*
X152062361Y-87370985D01*
X156480000Y-83630000D02*
X156600000Y-83750000D01*
X152062361Y-87370985D02*
X155803346Y-83630000D01*
X149030000Y-93255000D02*
X149030000Y-90920000D01*
X148685000Y-88580000D02*
X148685000Y-88348346D01*
X150175000Y-94400000D02*
X149030000Y-93255000D01*
D48*
%TO.N,/Portenta/TOF_RST*%
X145250001Y-107952500D02*
X145250001Y-108399999D01*
X140200000Y-97400000D02*
X140300000Y-97300000D01*
X140200000Y-98500000D02*
X140200000Y-97400000D01*
%TO.N,/Portenta/TOF_LPn*%
X138400000Y-101800000D02*
X139500000Y-101800000D01*
X142249999Y-107952500D02*
X142249999Y-108399999D01*
X142249999Y-108399999D02*
X142250000Y-108400000D01*
%TO.N,/Portenta/TOF_INT*%
X139900000Y-105400000D02*
X141000000Y-105400000D01*
X143750001Y-108399999D02*
X143750000Y-108400000D01*
X143750001Y-107952500D02*
X143750001Y-108399999D01*
X138400000Y-103900000D02*
X139900000Y-105400000D01*
%TO.N,/Portenta/I2C3_SDA*%
X143750001Y-105600001D02*
X143750000Y-105600000D01*
X143750000Y-105350000D02*
X144775000Y-104325000D01*
X143750001Y-106047500D02*
X143750001Y-105600001D01*
X144775000Y-104325000D02*
X144800000Y-104325000D01*
X142000000Y-99600000D02*
X142000000Y-101800000D01*
X143750000Y-105600000D02*
X143750000Y-105350000D01*
%TO.N,/Portenta/I2C3_SCL*%
X141300000Y-101800000D02*
X141500000Y-101800000D01*
X142200000Y-104800000D02*
X143000000Y-105600000D01*
X142200000Y-104325000D02*
X142200000Y-104800000D01*
X143000000Y-106047500D02*
X143000000Y-105600000D01*
X140200000Y-100700000D02*
X141300000Y-101800000D01*
%TO.N,/Camera/CAM_PWDN*%
X139520000Y-121750000D02*
X140500000Y-121750000D01*
%TO.N,/Radar/OSC_CLK*%
X157750000Y-107250000D02*
X158790000Y-107250000D01*
%TO.N,/Camera/Vmotor*%
X139520000Y-129250000D02*
X146750000Y-129250000D01*
X146750000Y-129250000D02*
X149000000Y-131500000D01*
%TO.N,/Camera/GNDMotor*%
X139520000Y-129750000D02*
X144250000Y-129750000D01*
X144250000Y-129750000D02*
X146000000Y-131500000D01*
%TO.N,/Camera/STROBE*%
X139520000Y-118250000D02*
X140750000Y-118250000D01*
X140750000Y-118250000D02*
X141000000Y-118500000D01*
%TO.N,/Camera/I2C1_SDA*%
X149900000Y-103800000D02*
X149900000Y-104900000D01*
X149900000Y-104900000D02*
X149600000Y-105200000D01*
X139520000Y-119250000D02*
X141500000Y-119250000D01*
%TO.N,/Camera/I2C1_SCL*%
X149900000Y-106800000D02*
X149800000Y-106800000D01*
X139520000Y-120250000D02*
X140500000Y-120250000D01*
X149800000Y-106800000D02*
X149200000Y-106200000D01*
%TO.N,/Radar/80mhz*%
X160845599Y-107250000D02*
X160895599Y-107300000D01*
X159810000Y-107250000D02*
X160845599Y-107250000D01*
%TO.N,/Portenta/SPI2_NSS*%
X160500000Y-117900000D02*
X160150000Y-117900000D01*
X161500000Y-118900000D02*
X160500000Y-117900000D01*
%TO.N,/Radar/SCK_1V8*%
X153250000Y-110000000D02*
X152750000Y-109500000D01*
X152750000Y-109500000D02*
X152750000Y-108750000D01*
%TO.N,/Radar/INT_1V8*%
X153250000Y-108750000D02*
X153250000Y-109249503D01*
%TO.N,/Radar/MOSI_1V8*%
X153750000Y-108750000D02*
X153750000Y-109250000D01*
%TO.N,/Radar/MISO_1V8*%
X154250000Y-108750000D02*
X154250000Y-108250000D01*
%TO.N,/Radar/RST_1V8*%
X154750000Y-108250497D02*
X154750497Y-108250000D01*
X154750000Y-108750000D02*
X154750000Y-108250497D01*
%TO.N,/Radar/NSS_1V8*%
X155250000Y-108750000D02*
X155250000Y-108250000D01*
%TO.N,/Camera/XCLK*%
X151100000Y-125200000D02*
X151100000Y-130895599D01*
X139520000Y-124250000D02*
X150150000Y-124250000D01*
X150150000Y-124250000D02*
X151100000Y-125200000D01*
%TO.N,/Portenta/CATR*%
X159200000Y-131850000D02*
X158500000Y-131850000D01*
%TO.N,Net-(J4-CC1)*%
X158300000Y-72800000D02*
X158300000Y-75000000D01*
X158300000Y-75000000D02*
X158825000Y-75525000D01*
X158600000Y-72500000D02*
X158300000Y-72800000D01*
X158825000Y-75525000D02*
X160906750Y-75525000D01*
%TO.N,Net-(J4-CC2)*%
X158300000Y-77300000D02*
X158725000Y-76875000D01*
X159300000Y-80400000D02*
X158300000Y-79400000D01*
X160800000Y-80400000D02*
X159300000Y-80400000D01*
X158300000Y-79400000D02*
X158300000Y-77300000D01*
X158725000Y-76875000D02*
X160126750Y-76875000D01*
%TO.N,/ToF Sensor/RSVD6*%
X144500000Y-106047500D02*
X144500000Y-105700000D01*
X145875000Y-104325000D02*
X146400000Y-104325000D01*
X144500000Y-105700000D02*
X145875000Y-104325000D01*
%TO.N,/Portenta/CATG*%
X159200000Y-130950000D02*
X158500000Y-130950000D01*
%TO.N,/Portenta/CATB*%
X160800000Y-130950000D02*
X161500000Y-130950000D01*
%TD*%
%TA.AperFunction,Conductor*%
%TO.N,GND*%
G36*
X154145000Y-104670184D02*
G01*
X154245796Y-104670925D01*
X154858190Y-104675427D01*
X154902323Y-104686173D01*
X154937014Y-104715500D01*
X154954955Y-104757232D01*
X154964409Y-104810847D01*
X154959943Y-104861899D01*
X154930549Y-104903877D01*
X154884105Y-104925535D01*
X154833053Y-104921069D01*
X154809510Y-104912500D01*
X154690490Y-104912500D01*
X154616284Y-104939507D01*
X154750000Y-105073224D01*
X154750000Y-105073223D01*
X155031336Y-105354559D01*
X155043648Y-105369562D01*
X155078411Y-105421589D01*
X155157137Y-105474191D01*
X155250000Y-105492663D01*
X155342863Y-105474191D01*
X155421589Y-105421589D01*
X155421590Y-105421587D01*
X155431265Y-105415123D01*
X155453330Y-105395124D01*
X155500000Y-105383433D01*
X155546670Y-105395124D01*
X155568734Y-105415123D01*
X155578410Y-105421588D01*
X155578411Y-105421589D01*
X155657137Y-105474191D01*
X155750000Y-105492663D01*
X155842863Y-105474191D01*
X155921589Y-105421589D01*
X155956358Y-105369551D01*
X155968664Y-105354557D01*
X156073222Y-105250000D01*
X156426778Y-105250000D01*
X156500000Y-105323222D01*
X156573222Y-105250000D01*
X156926778Y-105250000D01*
X157000000Y-105323222D01*
X157073222Y-105250000D01*
X157426778Y-105250000D01*
X157500000Y-105323222D01*
X157573222Y-105250000D01*
X157500000Y-105176778D01*
X157426778Y-105250000D01*
X157073222Y-105250000D01*
X157000000Y-105176778D01*
X156926778Y-105250000D01*
X156573222Y-105250000D01*
X156500000Y-105176778D01*
X156426778Y-105250000D01*
X156073222Y-105250000D01*
X156250000Y-105073223D01*
X156249999Y-105073223D01*
X156250000Y-105073222D01*
X156250000Y-105073223D01*
X156383713Y-104939508D01*
X156383710Y-104939507D01*
X156616285Y-104939507D01*
X156750000Y-105073222D01*
X156883713Y-104939508D01*
X156883710Y-104939507D01*
X157116285Y-104939507D01*
X157250000Y-105073222D01*
X157383713Y-104939508D01*
X157383710Y-104939507D01*
X157616285Y-104939507D01*
X157750000Y-105073222D01*
X157871783Y-104951438D01*
X157884793Y-104944374D01*
X157883714Y-104939508D01*
X157809508Y-104912500D01*
X157690490Y-104912500D01*
X157616285Y-104939507D01*
X157383710Y-104939507D01*
X157309508Y-104912500D01*
X157190490Y-104912500D01*
X157116285Y-104939507D01*
X156883710Y-104939507D01*
X156809508Y-104912500D01*
X156690490Y-104912500D01*
X156616285Y-104939507D01*
X156383710Y-104939507D01*
X156309508Y-104912500D01*
X156190489Y-104912500D01*
X156166945Y-104921069D01*
X156115894Y-104925535D01*
X156069449Y-104903877D01*
X156040056Y-104861898D01*
X156035590Y-104810847D01*
X156036733Y-104804364D01*
X156036734Y-104804363D01*
X156043380Y-104766667D01*
X156061611Y-104724548D01*
X156096879Y-104695175D01*
X156141601Y-104684864D01*
X157942139Y-104698103D01*
X157961339Y-104700128D01*
X158027747Y-104713783D01*
X158063183Y-104728690D01*
X158111180Y-104761080D01*
X158138268Y-104788369D01*
X158155436Y-104814218D01*
X158171474Y-104859110D01*
X158164671Y-104906294D01*
X158136605Y-104944828D01*
X158052881Y-105015082D01*
X158051262Y-105013152D01*
X158038575Y-105024905D01*
X158027524Y-105070939D01*
X158013265Y-105095636D01*
X158004154Y-105147303D01*
X157976663Y-105200112D01*
X157750000Y-105426777D01*
X157749999Y-105426778D01*
X157645440Y-105531335D01*
X157630439Y-105543646D01*
X157578410Y-105578410D01*
X157574284Y-105584587D01*
X157533014Y-105619676D01*
X157520030Y-105621643D01*
X157523312Y-105669690D01*
X157509426Y-105739500D01*
X157507337Y-105750000D01*
X157525809Y-105842863D01*
X157574494Y-105915727D01*
X157584878Y-105931267D01*
X157604876Y-105953332D01*
X157616566Y-106000000D01*
X157604876Y-106046668D01*
X157584878Y-106068732D01*
X157525809Y-106157136D01*
X157525808Y-106157137D01*
X157525809Y-106157137D01*
X157507337Y-106250000D01*
X157525809Y-106342863D01*
X157553959Y-106384994D01*
X157584878Y-106431267D01*
X157604876Y-106453332D01*
X157616566Y-106500000D01*
X157604876Y-106546668D01*
X157584878Y-106568732D01*
X157525809Y-106657136D01*
X157518131Y-106695737D01*
X157507337Y-106750000D01*
X157525809Y-106842863D01*
X157553959Y-106884994D01*
X157584877Y-106931266D01*
X157604873Y-106953325D01*
X157616566Y-106999993D01*
X157604879Y-107046661D01*
X157584879Y-107068730D01*
X157525809Y-107157136D01*
X157525808Y-107157137D01*
X157525809Y-107157137D01*
X157507337Y-107250000D01*
X157525809Y-107342863D01*
X157553959Y-107384994D01*
X157584878Y-107431267D01*
X157604876Y-107453332D01*
X157616566Y-107500000D01*
X157604876Y-107546668D01*
X157584878Y-107568732D01*
X157525809Y-107657136D01*
X157525808Y-107657137D01*
X157525809Y-107657137D01*
X157507337Y-107750000D01*
X157525809Y-107842863D01*
X157553959Y-107884994D01*
X157584878Y-107931267D01*
X157604876Y-107953332D01*
X157616566Y-108000000D01*
X157604876Y-108046668D01*
X157584878Y-108068732D01*
X157525809Y-108157136D01*
X157508710Y-108243095D01*
X157507337Y-108250000D01*
X157525809Y-108342863D01*
X157578411Y-108421589D01*
X157630436Y-108456350D01*
X157645439Y-108468662D01*
X157856773Y-108679996D01*
X157882396Y-108724377D01*
X157882396Y-108775623D01*
X157856773Y-108820004D01*
X157820004Y-108856773D01*
X157775623Y-108882396D01*
X157724377Y-108882396D01*
X157679996Y-108856773D01*
X157468662Y-108645439D01*
X157456350Y-108630436D01*
X157421589Y-108578411D01*
X157342863Y-108525809D01*
X157250000Y-108507337D01*
X157157136Y-108525809D01*
X157078409Y-108578412D01*
X157043646Y-108630439D01*
X157031335Y-108645440D01*
X156926777Y-108750000D01*
X157031336Y-108854560D01*
X157043647Y-108869562D01*
X157060143Y-108894250D01*
X157072346Y-108919800D01*
X157079981Y-108944303D01*
X157081584Y-108950053D01*
X157089952Y-108984000D01*
X157089953Y-108984001D01*
X157091682Y-108987296D01*
X157092139Y-108988399D01*
X157092685Y-108989368D01*
X157093385Y-108990319D01*
X157095312Y-108993506D01*
X157095314Y-108993508D01*
X157095315Y-108993510D01*
X157113149Y-109011344D01*
X157120056Y-109018251D01*
X157124138Y-109022588D01*
X157147321Y-109048756D01*
X157147323Y-109048756D01*
X157150371Y-109050861D01*
X157164139Y-109062334D01*
X157225115Y-109123310D01*
X157252244Y-109174179D01*
X157246435Y-109231536D01*
X157209658Y-109275931D01*
X157154383Y-109292311D01*
X157133094Y-109292154D01*
X156523767Y-109287673D01*
X156474580Y-109274171D01*
X156438642Y-109237968D01*
X156425500Y-109188678D01*
X156425500Y-109130593D01*
X156441004Y-109077401D01*
X156482659Y-109040869D01*
X156537420Y-109032440D01*
X156561446Y-109043010D01*
X156562243Y-109040822D01*
X156690488Y-109087500D01*
X156809511Y-109087500D01*
X156883714Y-109060491D01*
X156468662Y-108645439D01*
X156456350Y-108630436D01*
X156421589Y-108578411D01*
X156342863Y-108525809D01*
X156250000Y-108507337D01*
X156157136Y-108525809D01*
X156068732Y-108584878D01*
X156046668Y-108604876D01*
X156000000Y-108616566D01*
X155953332Y-108604876D01*
X155931267Y-108584878D01*
X155921589Y-108578411D01*
X155842863Y-108525809D01*
X155750000Y-108507337D01*
X155657136Y-108525809D01*
X155652991Y-108528579D01*
X155603170Y-108545126D01*
X155551894Y-108533875D01*
X155513579Y-108497988D01*
X155498999Y-108447557D01*
X155501100Y-108439507D01*
X156616285Y-108439507D01*
X156750000Y-108573222D01*
X156883713Y-108439508D01*
X156809508Y-108412500D01*
X156690490Y-108412500D01*
X156616285Y-108439507D01*
X155501100Y-108439507D01*
X155512254Y-108396763D01*
X155536734Y-108354363D01*
X155555136Y-108250000D01*
X155536734Y-108145637D01*
X155483748Y-108053862D01*
X155402568Y-107985744D01*
X155302986Y-107949500D01*
X155197014Y-107949500D01*
X155097432Y-107985744D01*
X155071699Y-108007337D01*
X155063883Y-108013895D01*
X155023078Y-108034387D01*
X154977417Y-108034386D01*
X154936613Y-108013894D01*
X154903066Y-107985745D01*
X154903065Y-107985744D01*
X154803483Y-107949500D01*
X154697511Y-107949500D01*
X154597929Y-107985743D01*
X154597929Y-107985744D01*
X154563883Y-108014312D01*
X154523078Y-108034804D01*
X154477417Y-108034803D01*
X154436613Y-108014311D01*
X154402569Y-107985745D01*
X154402568Y-107985744D01*
X154302986Y-107949500D01*
X154197014Y-107949500D01*
X154097432Y-107985743D01*
X154097432Y-107985744D01*
X154016252Y-108053862D01*
X153963265Y-108145638D01*
X153944864Y-108250000D01*
X153963265Y-108354363D01*
X153987745Y-108396763D01*
X154001000Y-108447558D01*
X153986419Y-108497990D01*
X153948104Y-108533876D01*
X153896827Y-108545126D01*
X153847007Y-108528578D01*
X153842863Y-108525809D01*
X153750000Y-108507337D01*
X153657136Y-108525809D01*
X153568732Y-108584878D01*
X153546668Y-108604876D01*
X153500000Y-108616566D01*
X153453332Y-108604876D01*
X153431267Y-108584878D01*
X153421589Y-108578411D01*
X153342863Y-108525809D01*
X153342862Y-108525808D01*
X153249999Y-108507336D01*
X153171850Y-108522882D01*
X153116151Y-108517856D01*
X153072063Y-108483448D01*
X153053655Y-108430640D01*
X153066801Y-108376282D01*
X153072038Y-108367211D01*
X153092705Y-108249999D01*
X153072038Y-108132789D01*
X153061770Y-108115004D01*
X152750000Y-108426777D01*
X152749999Y-108426778D01*
X152645440Y-108531335D01*
X152630439Y-108543646D01*
X152578410Y-108578410D01*
X152543646Y-108630439D01*
X152531335Y-108645440D01*
X152426777Y-108750000D01*
X152531336Y-108854560D01*
X152543647Y-108869562D01*
X152582815Y-108928181D01*
X152599500Y-108983182D01*
X152599500Y-109159090D01*
X152586115Y-109208800D01*
X152549579Y-109245068D01*
X152499772Y-109258086D01*
X152472270Y-109257884D01*
X152403490Y-109257378D01*
X152351263Y-109242027D01*
X152315047Y-109201386D01*
X152305792Y-109147743D01*
X152326296Y-109097316D01*
X152370359Y-109065351D01*
X152383714Y-109060490D01*
X152250000Y-108926777D01*
X152116284Y-109060490D01*
X152116284Y-109060491D01*
X152123281Y-109063038D01*
X152167524Y-109095232D01*
X152187909Y-109146009D01*
X152178209Y-109199858D01*
X152141388Y-109240331D01*
X152088693Y-109255064D01*
X151657866Y-109251896D01*
X151638660Y-109249870D01*
X151572253Y-109236216D01*
X151536813Y-109221308D01*
X151518278Y-109208800D01*
X151488819Y-109188919D01*
X151461733Y-109161634D01*
X151429694Y-109113397D01*
X151415050Y-109077857D01*
X151401883Y-109011344D01*
X151400000Y-108992128D01*
X151400000Y-108750000D01*
X151907294Y-108750000D01*
X151927961Y-108867212D01*
X151938227Y-108884993D01*
X151938228Y-108884994D01*
X152073222Y-108750000D01*
X151938227Y-108615005D01*
X151927961Y-108632788D01*
X151907294Y-108750000D01*
X151400000Y-108750000D01*
X151400000Y-108500000D01*
X152176778Y-108500000D01*
X152250000Y-108573222D01*
X152323222Y-108500000D01*
X152250000Y-108426778D01*
X152176778Y-108500000D01*
X151400000Y-108500000D01*
X151400000Y-108250000D01*
X151907294Y-108250000D01*
X151927961Y-108367212D01*
X151938227Y-108384993D01*
X151938228Y-108384994D01*
X152073222Y-108250000D01*
X152426778Y-108250000D01*
X152500000Y-108323222D01*
X152573222Y-108250000D01*
X152500000Y-108176778D01*
X152426778Y-108250000D01*
X152073222Y-108250000D01*
X151938227Y-108115005D01*
X151927961Y-108132788D01*
X151907294Y-108250000D01*
X151400000Y-108250000D01*
X151400000Y-108000000D01*
X152176778Y-108000000D01*
X152250000Y-108073222D01*
X152323222Y-108000000D01*
X152250000Y-107926778D01*
X152176778Y-108000000D01*
X151400000Y-108000000D01*
X151400000Y-107750000D01*
X151907294Y-107750000D01*
X151927961Y-107867212D01*
X151938227Y-107884993D01*
X151938228Y-107884994D01*
X152073222Y-107750000D01*
X152073221Y-107749999D01*
X152426777Y-107749999D01*
X152750000Y-108073222D01*
X152883713Y-107939508D01*
X152809508Y-107912500D01*
X152682036Y-107912500D01*
X152627635Y-107896213D01*
X152591133Y-107852712D01*
X152584540Y-107796308D01*
X152592705Y-107749999D01*
X152572038Y-107632789D01*
X152561770Y-107615005D01*
X152426777Y-107749999D01*
X152073221Y-107749999D01*
X151938227Y-107615005D01*
X151927961Y-107632788D01*
X151907294Y-107750000D01*
X151400000Y-107750000D01*
X151400000Y-107500000D01*
X152176778Y-107500000D01*
X152250000Y-107573222D01*
X152323222Y-107500000D01*
X152250000Y-107426778D01*
X152176778Y-107500000D01*
X151400000Y-107500000D01*
X151400000Y-107250000D01*
X151907294Y-107250000D01*
X151927961Y-107367212D01*
X151938227Y-107384993D01*
X151938228Y-107384994D01*
X152073222Y-107250000D01*
X152073221Y-107249999D01*
X152426777Y-107249999D01*
X152561771Y-107384993D01*
X152572037Y-107367213D01*
X152592705Y-107249999D01*
X152572038Y-107132789D01*
X152561770Y-107115005D01*
X152426777Y-107249999D01*
X152073221Y-107249999D01*
X151938227Y-107115005D01*
X151927961Y-107132788D01*
X151907294Y-107250000D01*
X151400000Y-107250000D01*
X151400000Y-107000000D01*
X152176778Y-107000000D01*
X152250000Y-107073222D01*
X152323222Y-107000000D01*
X152250000Y-106926778D01*
X152176778Y-107000000D01*
X151400000Y-107000000D01*
X151400000Y-106750000D01*
X151907294Y-106750000D01*
X151927961Y-106867212D01*
X151938227Y-106884993D01*
X151938228Y-106884994D01*
X152073222Y-106750000D01*
X152073221Y-106749999D01*
X152426777Y-106749999D01*
X152561771Y-106884993D01*
X152572037Y-106867213D01*
X152583888Y-106800000D01*
X153094864Y-106800000D01*
X153113265Y-106904361D01*
X153113265Y-106904362D01*
X153113266Y-106904363D01*
X153166252Y-106996138D01*
X153247432Y-107064256D01*
X153347014Y-107100500D01*
X153452985Y-107100500D01*
X153452986Y-107100500D01*
X153552568Y-107064256D01*
X153633748Y-106996138D01*
X153686734Y-106904363D01*
X153705136Y-106800000D01*
X153686734Y-106695637D01*
X153633748Y-106603862D01*
X153552568Y-106535744D01*
X153452986Y-106499500D01*
X153347014Y-106499500D01*
X153274729Y-106525809D01*
X153247432Y-106535744D01*
X153166252Y-106603862D01*
X153113265Y-106695638D01*
X153094864Y-106800000D01*
X152583888Y-106800000D01*
X152592705Y-106749999D01*
X152572038Y-106632789D01*
X152561770Y-106615005D01*
X152426777Y-106749999D01*
X152073221Y-106749999D01*
X151938227Y-106615005D01*
X151927961Y-106632788D01*
X151907294Y-106750000D01*
X151400000Y-106750000D01*
X151400000Y-106500000D01*
X152176778Y-106500000D01*
X152250000Y-106573222D01*
X152323222Y-106500000D01*
X152250000Y-106426778D01*
X152176778Y-106500000D01*
X151400000Y-106500000D01*
X151400000Y-106250000D01*
X151907294Y-106250000D01*
X151927961Y-106367212D01*
X151938227Y-106384993D01*
X151938228Y-106384994D01*
X152073222Y-106250000D01*
X152073221Y-106249999D01*
X152426777Y-106249999D01*
X152561771Y-106384993D01*
X152572037Y-106367213D01*
X152592705Y-106250000D01*
X152584540Y-106203692D01*
X152591133Y-106147288D01*
X152627635Y-106103787D01*
X152682036Y-106087500D01*
X152809511Y-106087500D01*
X152883714Y-106060491D01*
X152883714Y-106060490D01*
X152750000Y-105926777D01*
X152577879Y-106098896D01*
X152426777Y-106249999D01*
X152073221Y-106249999D01*
X151938227Y-106115005D01*
X151927961Y-106132788D01*
X151907294Y-106250000D01*
X151400000Y-106250000D01*
X151400000Y-106000000D01*
X152176778Y-106000000D01*
X152250000Y-106073222D01*
X152323222Y-106000000D01*
X152250000Y-105926778D01*
X152176778Y-106000000D01*
X151400000Y-106000000D01*
X151400000Y-105750000D01*
X151907294Y-105750000D01*
X151927961Y-105867212D01*
X151938227Y-105884993D01*
X151938228Y-105884994D01*
X152073222Y-105750000D01*
X152426778Y-105750000D01*
X152500000Y-105823222D01*
X152573222Y-105750000D01*
X152573221Y-105749999D01*
X152926777Y-105749999D01*
X153061771Y-105884993D01*
X153072037Y-105867213D01*
X153092705Y-105750000D01*
X153084540Y-105703692D01*
X153091133Y-105647288D01*
X153127635Y-105603787D01*
X153182036Y-105587500D01*
X153309511Y-105587500D01*
X153383714Y-105560491D01*
X153616284Y-105560491D01*
X153690489Y-105587500D01*
X153809511Y-105587500D01*
X153883714Y-105560491D01*
X154116284Y-105560491D01*
X154190489Y-105587500D01*
X154309511Y-105587500D01*
X154383714Y-105560491D01*
X154616284Y-105560491D01*
X154690489Y-105587500D01*
X154809511Y-105587500D01*
X154883714Y-105560491D01*
X156116284Y-105560491D01*
X156190489Y-105587500D01*
X156309511Y-105587500D01*
X156383714Y-105560491D01*
X156616284Y-105560491D01*
X156690489Y-105587500D01*
X156809511Y-105587500D01*
X156883714Y-105560491D01*
X157116284Y-105560491D01*
X157190489Y-105587500D01*
X157309511Y-105587500D01*
X157383714Y-105560491D01*
X157250000Y-105426777D01*
X157116284Y-105560490D01*
X157116284Y-105560491D01*
X156883714Y-105560491D01*
X156883714Y-105560490D01*
X156750000Y-105426777D01*
X156616284Y-105560490D01*
X156616284Y-105560491D01*
X156383714Y-105560491D01*
X156383714Y-105560490D01*
X156250000Y-105426777D01*
X156116284Y-105560490D01*
X156116284Y-105560491D01*
X154883714Y-105560491D01*
X154883714Y-105560490D01*
X154750000Y-105426777D01*
X154616284Y-105560490D01*
X154616284Y-105560491D01*
X154383714Y-105560491D01*
X154383714Y-105560490D01*
X154250000Y-105426777D01*
X154116284Y-105560490D01*
X154116284Y-105560491D01*
X153883714Y-105560491D01*
X153883714Y-105560490D01*
X153750000Y-105426777D01*
X153616284Y-105560490D01*
X153616284Y-105560491D01*
X153383714Y-105560491D01*
X153383714Y-105560490D01*
X153250000Y-105426777D01*
X153077879Y-105598896D01*
X152926777Y-105749999D01*
X152573221Y-105749999D01*
X152500000Y-105676778D01*
X152426778Y-105750000D01*
X152073222Y-105750000D01*
X151938227Y-105615005D01*
X151927961Y-105632788D01*
X151907294Y-105750000D01*
X151400000Y-105750000D01*
X151400000Y-105500000D01*
X152176778Y-105500000D01*
X152250000Y-105573222D01*
X152323222Y-105500000D01*
X152676778Y-105500000D01*
X152750000Y-105573222D01*
X152823222Y-105500000D01*
X152750000Y-105426778D01*
X152676778Y-105500000D01*
X152323222Y-105500000D01*
X152250000Y-105426778D01*
X152176778Y-105500000D01*
X151400000Y-105500000D01*
X151400000Y-105250000D01*
X151907294Y-105250000D01*
X151927961Y-105367212D01*
X151938227Y-105384993D01*
X151938228Y-105384994D01*
X152073222Y-105250000D01*
X152426778Y-105250000D01*
X152500000Y-105323222D01*
X152573222Y-105250000D01*
X152926778Y-105250000D01*
X153000000Y-105323222D01*
X153073222Y-105250000D01*
X153426778Y-105250000D01*
X153500000Y-105323222D01*
X153573222Y-105250000D01*
X153926778Y-105250000D01*
X154000000Y-105323222D01*
X154073222Y-105250000D01*
X154426778Y-105250000D01*
X154500000Y-105323222D01*
X154573222Y-105250000D01*
X154500000Y-105176778D01*
X154426778Y-105250000D01*
X154073222Y-105250000D01*
X154000000Y-105176778D01*
X153926778Y-105250000D01*
X153573222Y-105250000D01*
X153500000Y-105176778D01*
X153426778Y-105250000D01*
X153073222Y-105250000D01*
X153000000Y-105176778D01*
X152926778Y-105250000D01*
X152573222Y-105250000D01*
X152500000Y-105176778D01*
X152426778Y-105250000D01*
X152073222Y-105250000D01*
X151938227Y-105115005D01*
X151927961Y-105132788D01*
X151907294Y-105250000D01*
X151400000Y-105250000D01*
X151400000Y-104939507D01*
X152116285Y-104939507D01*
X152250000Y-105073222D01*
X152383713Y-104939508D01*
X152383710Y-104939507D01*
X152616285Y-104939507D01*
X152750000Y-105073222D01*
X152883713Y-104939508D01*
X152883710Y-104939507D01*
X153116285Y-104939507D01*
X153250000Y-105073222D01*
X153383713Y-104939508D01*
X153383710Y-104939507D01*
X153616285Y-104939507D01*
X153750000Y-105073222D01*
X153883713Y-104939508D01*
X153883710Y-104939507D01*
X154116285Y-104939507D01*
X154250000Y-105073222D01*
X154383713Y-104939508D01*
X154309508Y-104912500D01*
X154190490Y-104912500D01*
X154116285Y-104939507D01*
X153883710Y-104939507D01*
X153809508Y-104912500D01*
X153690490Y-104912500D01*
X153616285Y-104939507D01*
X153383710Y-104939507D01*
X153309508Y-104912500D01*
X153190490Y-104912500D01*
X153116285Y-104939507D01*
X152883710Y-104939507D01*
X152809508Y-104912500D01*
X152690490Y-104912500D01*
X152616285Y-104939507D01*
X152383710Y-104939507D01*
X152309508Y-104912500D01*
X152190490Y-104912500D01*
X152116285Y-104939507D01*
X151400000Y-104939507D01*
X151400000Y-104911642D01*
X151401920Y-104892240D01*
X151415328Y-104825152D01*
X151430242Y-104789330D01*
X151462838Y-104740837D01*
X151490370Y-104713506D01*
X151539106Y-104681264D01*
X151575033Y-104666616D01*
X151618346Y-104658290D01*
X151642221Y-104653701D01*
X151661635Y-104651924D01*
X154145000Y-104670184D01*
G37*
%TD.AperFunction*%
%TD*%
%TA.AperFunction,Conductor*%
%TO.N,GND*%
G36*
X154076615Y-120000500D02*
G01*
X154097014Y-120000500D01*
X154202986Y-120000500D01*
X154223385Y-120000500D01*
X154226221Y-120000000D01*
X158776782Y-120000000D01*
X158779618Y-120000500D01*
X158800017Y-120000500D01*
X158905989Y-120000500D01*
X158926388Y-120000500D01*
X158929224Y-120000000D01*
X159423779Y-120000000D01*
X159426615Y-120000500D01*
X159447014Y-120000500D01*
X159552986Y-120000500D01*
X159573385Y-120000500D01*
X159576221Y-120000000D01*
X162437789Y-120000000D01*
X162461980Y-120002383D01*
X162499691Y-120009884D01*
X162550986Y-120033125D01*
X162586712Y-120076657D01*
X162599500Y-120131501D01*
X162599500Y-127868499D01*
X162586712Y-127923343D01*
X162550986Y-127966875D01*
X162499691Y-127990116D01*
X162461980Y-127997617D01*
X162437789Y-128000000D01*
X155876221Y-128000000D01*
X155873385Y-127999500D01*
X155852986Y-127999500D01*
X155747014Y-127999500D01*
X155726615Y-127999500D01*
X155723779Y-128000000D01*
X153462211Y-128000000D01*
X153438020Y-127997617D01*
X153423189Y-127994667D01*
X153378518Y-127985781D01*
X153333822Y-127967267D01*
X153293727Y-127940477D01*
X153259522Y-127906272D01*
X153232730Y-127866175D01*
X153214218Y-127821480D01*
X153202383Y-127761980D01*
X153200000Y-127737789D01*
X153200000Y-120262211D01*
X153202381Y-120238028D01*
X153214219Y-120178514D01*
X153232729Y-120133826D01*
X153259524Y-120093724D01*
X153293724Y-120059524D01*
X153333826Y-120032729D01*
X153378514Y-120014219D01*
X153435515Y-120002881D01*
X153459697Y-120000500D01*
X153573385Y-120000500D01*
X153576221Y-120000000D01*
X154073779Y-120000000D01*
X154076615Y-120000500D01*
G37*
%TD.AperFunction*%
%TD*%
%TA.AperFunction,Conductor*%
%TO.N,GND*%
G36*
X157819365Y-67093288D02*
G01*
X157862897Y-67129014D01*
X157886137Y-67180305D01*
X157897618Y-67238028D01*
X157900000Y-67262211D01*
X157900000Y-74537789D01*
X157897617Y-74561982D01*
X157885781Y-74621482D01*
X157867267Y-74666179D01*
X157840481Y-74706268D01*
X157806269Y-74740479D01*
X157771975Y-74763394D01*
X157766179Y-74767267D01*
X157721482Y-74785781D01*
X157687857Y-74792469D01*
X157661978Y-74797617D01*
X157637789Y-74800000D01*
X152249998Y-74800000D01*
X152154329Y-74819029D01*
X152073222Y-74873222D01*
X152019029Y-74954329D01*
X152000000Y-75049998D01*
X152000000Y-84537789D01*
X151997617Y-84561982D01*
X151985781Y-84621482D01*
X151967267Y-84666179D01*
X151940481Y-84706268D01*
X151906269Y-84740479D01*
X151871975Y-84763394D01*
X151866179Y-84767267D01*
X151821482Y-84785781D01*
X151787857Y-84792469D01*
X151761978Y-84797617D01*
X151737789Y-84800000D01*
X144160845Y-84800000D01*
X144098845Y-84783387D01*
X144053458Y-84738000D01*
X144033749Y-84703864D01*
X144033748Y-84703862D01*
X143952568Y-84635744D01*
X143952566Y-84635743D01*
X143852986Y-84599500D01*
X143747014Y-84599500D01*
X143647433Y-84635743D01*
X143566250Y-84703864D01*
X143546542Y-84738000D01*
X143501155Y-84783387D01*
X143439155Y-84800000D01*
X139850000Y-84800000D01*
X139817565Y-84806451D01*
X139798690Y-84810206D01*
X139744370Y-84808872D01*
X139695835Y-84784441D01*
X139662405Y-84741605D01*
X139650500Y-84688588D01*
X139650500Y-84574263D01*
X139664519Y-84516991D01*
X139703405Y-84472668D01*
X139758367Y-84451317D01*
X139775150Y-84453163D01*
X139775150Y-84450500D01*
X139902986Y-84450500D01*
X140002568Y-84414256D01*
X140083748Y-84346138D01*
X140127761Y-84269904D01*
X140164022Y-84230333D01*
X140213613Y-84209791D01*
X140267240Y-84212132D01*
X140314851Y-84236917D01*
X140347432Y-84264256D01*
X140447014Y-84300500D01*
X140552986Y-84300500D01*
X140652568Y-84264256D01*
X140733748Y-84196138D01*
X140786734Y-84104363D01*
X140805136Y-84000000D01*
X140786734Y-83895637D01*
X140759625Y-83848683D01*
X140733749Y-83803863D01*
X140708896Y-83783009D01*
X140652568Y-83735744D01*
X140652566Y-83735743D01*
X140552986Y-83699500D01*
X140447014Y-83699500D01*
X140347433Y-83735743D01*
X140347431Y-83735744D01*
X140347432Y-83735744D01*
X140276055Y-83795637D01*
X140266250Y-83803864D01*
X140222240Y-83880092D01*
X140185976Y-83919667D01*
X140136385Y-83940208D01*
X140082759Y-83937867D01*
X140035147Y-83913081D01*
X140002568Y-83885744D01*
X139902986Y-83849500D01*
X139797014Y-83849500D01*
X139775150Y-83849500D01*
X139775150Y-83846837D01*
X139758367Y-83848683D01*
X139703405Y-83827332D01*
X139664519Y-83783009D01*
X139650500Y-83725737D01*
X139650500Y-83300000D01*
X144694863Y-83300000D01*
X144713266Y-83404363D01*
X144766250Y-83496136D01*
X144766251Y-83496137D01*
X144766252Y-83496138D01*
X144847432Y-83564256D01*
X144947014Y-83600500D01*
X145052986Y-83600500D01*
X145152568Y-83564256D01*
X145233748Y-83496138D01*
X145286734Y-83404363D01*
X145286734Y-83404362D01*
X145292613Y-83394180D01*
X145338000Y-83348793D01*
X145400000Y-83332180D01*
X145462000Y-83348793D01*
X145507387Y-83394180D01*
X145566250Y-83496136D01*
X145566251Y-83496137D01*
X145566252Y-83496138D01*
X145647432Y-83564256D01*
X145747014Y-83600500D01*
X145773271Y-83600500D01*
X145828922Y-83613689D01*
X145872734Y-83650452D01*
X145895387Y-83702967D01*
X145913266Y-83804363D01*
X145966250Y-83896136D01*
X145966251Y-83896137D01*
X145966252Y-83896138D01*
X146047432Y-83964256D01*
X146147014Y-84000500D01*
X146252986Y-84000500D01*
X146352568Y-83964256D01*
X146433748Y-83896138D01*
X146486734Y-83804363D01*
X146486734Y-83804362D01*
X146492613Y-83794180D01*
X146538000Y-83748793D01*
X146600000Y-83732180D01*
X146662000Y-83748793D01*
X146707387Y-83794180D01*
X146766250Y-83896136D01*
X146766251Y-83896137D01*
X146766252Y-83896138D01*
X146847432Y-83964256D01*
X146947014Y-84000500D01*
X147052986Y-84000500D01*
X147152568Y-83964256D01*
X147233748Y-83896138D01*
X147286734Y-83804363D01*
X147305136Y-83700000D01*
X147305136Y-83699999D01*
X148694863Y-83699999D01*
X148713266Y-83804363D01*
X148766250Y-83896136D01*
X148766251Y-83896137D01*
X148766252Y-83896138D01*
X148847432Y-83964256D01*
X148947014Y-84000500D01*
X149052986Y-84000500D01*
X149152568Y-83964256D01*
X149233748Y-83896138D01*
X149286734Y-83804363D01*
X149304612Y-83702967D01*
X149327266Y-83650452D01*
X149371078Y-83613689D01*
X149426729Y-83600500D01*
X149452986Y-83600500D01*
X149552568Y-83564256D01*
X149633748Y-83496138D01*
X149686734Y-83404363D01*
X149686734Y-83404362D01*
X149692613Y-83394180D01*
X149738000Y-83348793D01*
X149800000Y-83332180D01*
X149862000Y-83348793D01*
X149907387Y-83394180D01*
X149966250Y-83496136D01*
X149966251Y-83496137D01*
X149966252Y-83496138D01*
X150047432Y-83564256D01*
X150147014Y-83600500D01*
X150173271Y-83600500D01*
X150228922Y-83613689D01*
X150272734Y-83650452D01*
X150295387Y-83702967D01*
X150313266Y-83804363D01*
X150366250Y-83896136D01*
X150366251Y-83896137D01*
X150366252Y-83896138D01*
X150447432Y-83964256D01*
X150547014Y-84000500D01*
X150652986Y-84000500D01*
X150752568Y-83964256D01*
X150833748Y-83896138D01*
X150886734Y-83804363D01*
X150905136Y-83700000D01*
X150886734Y-83595637D01*
X150833748Y-83503862D01*
X150752568Y-83435744D01*
X150752566Y-83435743D01*
X150652986Y-83399500D01*
X150626729Y-83399500D01*
X150571078Y-83386311D01*
X150527266Y-83349548D01*
X150504613Y-83297033D01*
X150488529Y-83205819D01*
X150486734Y-83195637D01*
X150440011Y-83114710D01*
X150433749Y-83103863D01*
X150431553Y-83102020D01*
X150352568Y-83035744D01*
X150352566Y-83035743D01*
X150252986Y-82999500D01*
X150147014Y-82999500D01*
X150047433Y-83035743D01*
X150047431Y-83035744D01*
X150047432Y-83035744D01*
X149968448Y-83102020D01*
X149966250Y-83103864D01*
X149907387Y-83205819D01*
X149862000Y-83251206D01*
X149800000Y-83267819D01*
X149738000Y-83251206D01*
X149692613Y-83205819D01*
X149633749Y-83103864D01*
X149633748Y-83103862D01*
X149552568Y-83035744D01*
X149552566Y-83035743D01*
X149452986Y-82999500D01*
X149347014Y-82999500D01*
X149247433Y-83035743D01*
X149166250Y-83103863D01*
X149113266Y-83195636D01*
X149095387Y-83297033D01*
X149072734Y-83349548D01*
X149028922Y-83386311D01*
X148973271Y-83399500D01*
X148947014Y-83399500D01*
X148847433Y-83435743D01*
X148766250Y-83503863D01*
X148713266Y-83595636D01*
X148694863Y-83699999D01*
X147305136Y-83699999D01*
X147286734Y-83595637D01*
X147233748Y-83503862D01*
X147152568Y-83435744D01*
X147152566Y-83435743D01*
X147052986Y-83399500D01*
X147026729Y-83399500D01*
X146971078Y-83386311D01*
X146927266Y-83349548D01*
X146904613Y-83297033D01*
X146888529Y-83205819D01*
X146886734Y-83195637D01*
X146840011Y-83114710D01*
X146833749Y-83103863D01*
X146831553Y-83102020D01*
X146752568Y-83035744D01*
X146752566Y-83035743D01*
X146652986Y-82999500D01*
X146547014Y-82999500D01*
X146447433Y-83035743D01*
X146447431Y-83035744D01*
X146447432Y-83035744D01*
X146368448Y-83102020D01*
X146366250Y-83103864D01*
X146307387Y-83205819D01*
X146262000Y-83251206D01*
X146200000Y-83267819D01*
X146138000Y-83251206D01*
X146092613Y-83205819D01*
X146033749Y-83103864D01*
X146033748Y-83103862D01*
X145952568Y-83035744D01*
X145952566Y-83035743D01*
X145852986Y-82999500D01*
X145747014Y-82999500D01*
X145647433Y-83035743D01*
X145647431Y-83035744D01*
X145647432Y-83035744D01*
X145568448Y-83102020D01*
X145566250Y-83103864D01*
X145507387Y-83205819D01*
X145462000Y-83251206D01*
X145400000Y-83267819D01*
X145338000Y-83251206D01*
X145292613Y-83205819D01*
X145233749Y-83103864D01*
X145233748Y-83103862D01*
X145152568Y-83035744D01*
X145152566Y-83035743D01*
X145052986Y-82999500D01*
X144947014Y-82999500D01*
X144847433Y-83035743D01*
X144766250Y-83103863D01*
X144713266Y-83195636D01*
X144694863Y-83300000D01*
X139650500Y-83300000D01*
X139650500Y-81599999D01*
X140694863Y-81599999D01*
X140713266Y-81704363D01*
X140766250Y-81796136D01*
X140766251Y-81796137D01*
X140766252Y-81796138D01*
X140847432Y-81864256D01*
X140947014Y-81900500D01*
X141052986Y-81900500D01*
X141152568Y-81864256D01*
X141233748Y-81796138D01*
X141286734Y-81704363D01*
X141305136Y-81600000D01*
X141305136Y-81599999D01*
X145094863Y-81599999D01*
X145113266Y-81704363D01*
X145166250Y-81796136D01*
X145166251Y-81796137D01*
X145166252Y-81796138D01*
X145247432Y-81864256D01*
X145347014Y-81900500D01*
X145452986Y-81900500D01*
X145552568Y-81864256D01*
X145633748Y-81796138D01*
X145686734Y-81704363D01*
X145705136Y-81600000D01*
X145705136Y-81599999D01*
X147694863Y-81599999D01*
X147713266Y-81704363D01*
X147766250Y-81796136D01*
X147766251Y-81796137D01*
X147766252Y-81796138D01*
X147847432Y-81864256D01*
X147947014Y-81900500D01*
X148052986Y-81900500D01*
X148152568Y-81864256D01*
X148233748Y-81796138D01*
X148286734Y-81704363D01*
X148305136Y-81600000D01*
X148286734Y-81495637D01*
X148233748Y-81403862D01*
X148152568Y-81335744D01*
X148152566Y-81335743D01*
X148052986Y-81299500D01*
X147947014Y-81299500D01*
X147847433Y-81335743D01*
X147766250Y-81403863D01*
X147713266Y-81495636D01*
X147694863Y-81599999D01*
X145705136Y-81599999D01*
X145686734Y-81495637D01*
X145633748Y-81403862D01*
X145552568Y-81335744D01*
X145552566Y-81335743D01*
X145452986Y-81299500D01*
X145347014Y-81299500D01*
X145247433Y-81335743D01*
X145166250Y-81403863D01*
X145113266Y-81495636D01*
X145094863Y-81599999D01*
X141305136Y-81599999D01*
X141286734Y-81495637D01*
X141233748Y-81403862D01*
X141152568Y-81335744D01*
X141152566Y-81335743D01*
X141052986Y-81299500D01*
X140947014Y-81299500D01*
X140847433Y-81335743D01*
X140766250Y-81403863D01*
X140713266Y-81495636D01*
X140694863Y-81599999D01*
X139650500Y-81599999D01*
X139650500Y-78900000D01*
X143594863Y-78900000D01*
X143613266Y-79004363D01*
X143666250Y-79096136D01*
X143666251Y-79096137D01*
X143666252Y-79096138D01*
X143747432Y-79164256D01*
X143847014Y-79200500D01*
X143952986Y-79200500D01*
X144052568Y-79164256D01*
X144133748Y-79096138D01*
X144186734Y-79004363D01*
X144204735Y-78902277D01*
X146597140Y-78902277D01*
X146615543Y-79006640D01*
X146668527Y-79098413D01*
X146668528Y-79098414D01*
X146668529Y-79098415D01*
X146749709Y-79166533D01*
X146849291Y-79202777D01*
X146955263Y-79202777D01*
X147054845Y-79166533D01*
X147136025Y-79098415D01*
X147189011Y-79006640D01*
X147207413Y-78902277D01*
X147189011Y-78797914D01*
X147136025Y-78706139D01*
X147054845Y-78638021D01*
X147054843Y-78638020D01*
X146955263Y-78601777D01*
X146849291Y-78601777D01*
X146749710Y-78638020D01*
X146668527Y-78706140D01*
X146615543Y-78797913D01*
X146597140Y-78902277D01*
X144204735Y-78902277D01*
X144205136Y-78900000D01*
X144186734Y-78795637D01*
X144160241Y-78749749D01*
X144133749Y-78703863D01*
X144133748Y-78703862D01*
X144052568Y-78635744D01*
X144052566Y-78635743D01*
X143952986Y-78599500D01*
X143847014Y-78599500D01*
X143747433Y-78635743D01*
X143666250Y-78703863D01*
X143613266Y-78795636D01*
X143594863Y-78900000D01*
X139650500Y-78900000D01*
X139650500Y-76874500D01*
X139667113Y-76812500D01*
X139712500Y-76767113D01*
X139774500Y-76750500D01*
X139802986Y-76750500D01*
X139902568Y-76714256D01*
X139983748Y-76646138D01*
X140036734Y-76554363D01*
X140055136Y-76450000D01*
X140036734Y-76345637D01*
X139983748Y-76253862D01*
X139902568Y-76185744D01*
X139902566Y-76185743D01*
X139802986Y-76149500D01*
X139697014Y-76149500D01*
X139597433Y-76185743D01*
X139516250Y-76253863D01*
X139463266Y-76345636D01*
X139444863Y-76449999D01*
X139447490Y-76464896D01*
X139443633Y-76523714D01*
X139413054Y-76574106D01*
X139365065Y-76622094D01*
X139363980Y-76626145D01*
X139351596Y-76656042D01*
X139349500Y-76659671D01*
X139349499Y-76659674D01*
X139349499Y-76754758D01*
X139349500Y-76754767D01*
X139349500Y-89376000D01*
X139332887Y-89438000D01*
X139287500Y-89483387D01*
X139225500Y-89500000D01*
X138874053Y-89500000D01*
X138820251Y-89487720D01*
X138699587Y-89429610D01*
X138567661Y-89399500D01*
X138567660Y-89399500D01*
X138515917Y-89399500D01*
X137524500Y-89399500D01*
X137462500Y-89382887D01*
X137417113Y-89337500D01*
X137400500Y-89275500D01*
X137400500Y-74900000D01*
X149894863Y-74900000D01*
X149913266Y-75004363D01*
X149966250Y-75096136D01*
X149966251Y-75096137D01*
X149966252Y-75096138D01*
X150047432Y-75164256D01*
X150147014Y-75200500D01*
X150252986Y-75200500D01*
X150352568Y-75164256D01*
X150433748Y-75096138D01*
X150486734Y-75004363D01*
X150505136Y-74900000D01*
X150486734Y-74795637D01*
X150433748Y-74703862D01*
X150352568Y-74635744D01*
X150352566Y-74635743D01*
X150252986Y-74599500D01*
X150147014Y-74599500D01*
X150047433Y-74635743D01*
X149966250Y-74703863D01*
X149913266Y-74795636D01*
X149894863Y-74900000D01*
X137400500Y-74900000D01*
X137400500Y-73172763D01*
X137412404Y-73119748D01*
X137445832Y-73076912D01*
X137494365Y-73052481D01*
X137548684Y-73051144D01*
X137583343Y-73058035D01*
X137594282Y-73056959D01*
X140065718Y-73056959D01*
X140076657Y-73058036D01*
X140119005Y-73049615D01*
X140122837Y-73048028D01*
X140145897Y-73034715D01*
X140164715Y-73015897D01*
X140178029Y-72992836D01*
X140179612Y-72989014D01*
X140188035Y-72946660D01*
X140186959Y-72935724D01*
X140186959Y-72800000D01*
X150294863Y-72800000D01*
X150313266Y-72904363D01*
X150366250Y-72996136D01*
X150366251Y-72996137D01*
X150366252Y-72996138D01*
X150447432Y-73064256D01*
X150547014Y-73100500D01*
X150652986Y-73100500D01*
X150752568Y-73064256D01*
X150833748Y-72996138D01*
X150886734Y-72904363D01*
X150905136Y-72800000D01*
X150886734Y-72695637D01*
X150841948Y-72618065D01*
X150833749Y-72603863D01*
X150807179Y-72581568D01*
X150752568Y-72535744D01*
X150752566Y-72535743D01*
X150652986Y-72499500D01*
X150547014Y-72499500D01*
X150447433Y-72535743D01*
X150366250Y-72603863D01*
X150313266Y-72695636D01*
X150294863Y-72800000D01*
X140186959Y-72800000D01*
X140186959Y-72680065D01*
X140203572Y-72618065D01*
X140248958Y-72572678D01*
X140310957Y-72556065D01*
X140372957Y-72572677D01*
X140388357Y-72581568D01*
X140632584Y-72677420D01*
X140888370Y-72735802D01*
X140944408Y-72740001D01*
X141084501Y-72750500D01*
X141084506Y-72750500D01*
X141215494Y-72750500D01*
X141215499Y-72750500D01*
X141338078Y-72741313D01*
X141411630Y-72735802D01*
X141667416Y-72677420D01*
X141911643Y-72581568D01*
X142138857Y-72450386D01*
X142343981Y-72286805D01*
X142443273Y-72179792D01*
X142522428Y-72094485D01*
X142522429Y-72094482D01*
X142522433Y-72094479D01*
X142670228Y-71877704D01*
X142784063Y-71641323D01*
X142861396Y-71390615D01*
X142900500Y-71131182D01*
X152099500Y-71131182D01*
X152138604Y-71390615D01*
X152215937Y-71641323D01*
X152329772Y-71877704D01*
X152465766Y-72077170D01*
X152477571Y-72094485D01*
X152608641Y-72235744D01*
X152656019Y-72286805D01*
X152861143Y-72450386D01*
X153088357Y-72581568D01*
X153332584Y-72677420D01*
X153588370Y-72735802D01*
X153644408Y-72740001D01*
X153784501Y-72750500D01*
X153784506Y-72750500D01*
X153915494Y-72750500D01*
X153915499Y-72750500D01*
X154038078Y-72741313D01*
X154111630Y-72735802D01*
X154367416Y-72677420D01*
X154611643Y-72581568D01*
X154627042Y-72572677D01*
X154689043Y-72556065D01*
X154751042Y-72572678D01*
X154796428Y-72618065D01*
X154813041Y-72680065D01*
X154813041Y-72935724D01*
X154811964Y-72946660D01*
X154820387Y-72989014D01*
X154821970Y-72992836D01*
X154835284Y-73015897D01*
X154854102Y-73034715D01*
X154877162Y-73048028D01*
X154880994Y-73049615D01*
X154923342Y-73058036D01*
X154934282Y-73056959D01*
X157405718Y-73056959D01*
X157416657Y-73058036D01*
X157459005Y-73049615D01*
X157462837Y-73048028D01*
X157485897Y-73034715D01*
X157504715Y-73015897D01*
X157518029Y-72992836D01*
X157519612Y-72989014D01*
X157528035Y-72946660D01*
X157526959Y-72935724D01*
X157526959Y-69064282D01*
X157528036Y-69053342D01*
X157519615Y-69010994D01*
X157518028Y-69007162D01*
X157504715Y-68984102D01*
X157485897Y-68965284D01*
X157462836Y-68951970D01*
X157459014Y-68950387D01*
X157416660Y-68941964D01*
X157405724Y-68943041D01*
X154934276Y-68943041D01*
X154923339Y-68941964D01*
X154880985Y-68950387D01*
X154877163Y-68951970D01*
X154854102Y-68965284D01*
X154835284Y-68984102D01*
X154821971Y-69007162D01*
X154820384Y-69010994D01*
X154811963Y-69053342D01*
X154813041Y-69064282D01*
X154813041Y-69319935D01*
X154796428Y-69381935D01*
X154751042Y-69427322D01*
X154689043Y-69443935D01*
X154627043Y-69427323D01*
X154623232Y-69425123D01*
X154611643Y-69418432D01*
X154518650Y-69381935D01*
X154367418Y-69322580D01*
X154111627Y-69264197D01*
X153915499Y-69249500D01*
X153915494Y-69249500D01*
X153784506Y-69249500D01*
X153784501Y-69249500D01*
X153588372Y-69264197D01*
X153332581Y-69322580D01*
X153088358Y-69418431D01*
X152861143Y-69549613D01*
X152656015Y-69713198D01*
X152477571Y-69905514D01*
X152377070Y-70052922D01*
X152329772Y-70122296D01*
X152215937Y-70358677D01*
X152138604Y-70609385D01*
X152099500Y-70868818D01*
X152099500Y-71131182D01*
X142900500Y-71131182D01*
X142900500Y-70868818D01*
X142890127Y-70799999D01*
X149094863Y-70799999D01*
X149113266Y-70904363D01*
X149166250Y-70996136D01*
X149166251Y-70996137D01*
X149166252Y-70996138D01*
X149247432Y-71064256D01*
X149347014Y-71100500D01*
X149452986Y-71100500D01*
X149552568Y-71064256D01*
X149633748Y-70996138D01*
X149686734Y-70904363D01*
X149705136Y-70800000D01*
X149686734Y-70695637D01*
X149633748Y-70603862D01*
X149552568Y-70535744D01*
X149552566Y-70535743D01*
X149452986Y-70499500D01*
X149347014Y-70499500D01*
X149247433Y-70535743D01*
X149166250Y-70603863D01*
X149113266Y-70695636D01*
X149094863Y-70799999D01*
X142890127Y-70799999D01*
X142861396Y-70609385D01*
X142784063Y-70358677D01*
X142670228Y-70122296D01*
X142522433Y-69905521D01*
X142522432Y-69905520D01*
X142522428Y-69905514D01*
X142343984Y-69713198D01*
X142343983Y-69713197D01*
X142343981Y-69713195D01*
X142138857Y-69549614D01*
X142138856Y-69549613D01*
X141972522Y-69453580D01*
X141911643Y-69418432D01*
X141911642Y-69418431D01*
X141911641Y-69418431D01*
X141667418Y-69322580D01*
X141411627Y-69264197D01*
X141215499Y-69249500D01*
X141215494Y-69249500D01*
X141084506Y-69249500D01*
X141084501Y-69249500D01*
X140888372Y-69264197D01*
X140632581Y-69322580D01*
X140388357Y-69418432D01*
X140372957Y-69427323D01*
X140310957Y-69443935D01*
X140248958Y-69427322D01*
X140203572Y-69381935D01*
X140186959Y-69319935D01*
X140186959Y-69064282D01*
X140188036Y-69053342D01*
X140179615Y-69010994D01*
X140178028Y-69007162D01*
X140164715Y-68984102D01*
X140145897Y-68965284D01*
X140122836Y-68951970D01*
X140119014Y-68950387D01*
X140076660Y-68941964D01*
X140065724Y-68943041D01*
X137594276Y-68943041D01*
X137583337Y-68941963D01*
X137559101Y-68946784D01*
X137502817Y-68944940D01*
X137453154Y-68918393D01*
X137420353Y-68872618D01*
X137411179Y-68817059D01*
X137412297Y-68799999D01*
X145094863Y-68799999D01*
X145113266Y-68904363D01*
X145166250Y-68996136D01*
X145166251Y-68996137D01*
X145166252Y-68996138D01*
X145247432Y-69064256D01*
X145347014Y-69100500D01*
X145452986Y-69100500D01*
X145552568Y-69064256D01*
X145633748Y-68996138D01*
X145686734Y-68904363D01*
X145705136Y-68800000D01*
X145705136Y-68799999D01*
X149094863Y-68799999D01*
X149113266Y-68904363D01*
X149166250Y-68996136D01*
X149166251Y-68996137D01*
X149166252Y-68996138D01*
X149247432Y-69064256D01*
X149347014Y-69100500D01*
X149452986Y-69100500D01*
X149552568Y-69064256D01*
X149633748Y-68996138D01*
X149686734Y-68904363D01*
X149705136Y-68800000D01*
X149686734Y-68695637D01*
X149633748Y-68603862D01*
X149552568Y-68535744D01*
X149552566Y-68535743D01*
X149452986Y-68499500D01*
X149347014Y-68499500D01*
X149247433Y-68535743D01*
X149166250Y-68603863D01*
X149113266Y-68695636D01*
X149094863Y-68799999D01*
X145705136Y-68799999D01*
X145686734Y-68695637D01*
X145633748Y-68603862D01*
X145552568Y-68535744D01*
X145552566Y-68535743D01*
X145452986Y-68499500D01*
X145347014Y-68499500D01*
X145247433Y-68535743D01*
X145166250Y-68603863D01*
X145113266Y-68695636D01*
X145094863Y-68799999D01*
X137412297Y-68799999D01*
X137416219Y-68740158D01*
X137418334Y-68724101D01*
X137463640Y-68496333D01*
X137467833Y-68480686D01*
X137542482Y-68260776D01*
X137548679Y-68245816D01*
X137651393Y-68037533D01*
X137659500Y-68023493D01*
X137788509Y-67830416D01*
X137798374Y-67817558D01*
X137951497Y-67642955D01*
X137962955Y-67631497D01*
X138137558Y-67478374D01*
X138150411Y-67468512D01*
X138343491Y-67339500D01*
X138357533Y-67331393D01*
X138565816Y-67228679D01*
X138580776Y-67222482D01*
X138800686Y-67147833D01*
X138816333Y-67143640D01*
X139044101Y-67098334D01*
X139060158Y-67096219D01*
X139273768Y-67082219D01*
X139295958Y-67080765D01*
X139304067Y-67080500D01*
X157764521Y-67080500D01*
X157819365Y-67093288D01*
G37*
%TD.AperFunction*%
%TD*%
M02*
