%TF.GenerationSoftware,KiCad,Pcbnew,7.0.1-3b83917a11~172~ubuntu20.04.1*%
%TF.CreationDate,2023-04-27T15:55:01+02:00*%
%TF.ProjectId,radartof-hardware,72616461-7274-46f6-962d-686172647761,1.4*%
%TF.SameCoordinates,Original*%
%TF.FileFunction,Paste,Bot*%
%TF.FilePolarity,Positive*%
%FSLAX46Y46*%
G04 Gerber Fmt 4.6, Leading zero omitted, Abs format (unit mm)*
G04 Created by KiCad (PCBNEW 7.0.1-3b83917a11~172~ubuntu20.04.1) date 2023-04-27 15:55:01*
%MOMM*%
%LPD*%
G01*
G04 APERTURE LIST*
G04 Aperture macros list*
%AMRoundRect*
0 Rectangle with rounded corners*
0 $1 Rounding radius*
0 $2 $3 $4 $5 $6 $7 $8 $9 X,Y pos of 4 corners*
0 Add a 4 corners polygon primitive as box body*
4,1,4,$2,$3,$4,$5,$6,$7,$8,$9,$2,$3,0*
0 Add four circle primitives for the rounded corners*
1,1,$1+$1,$2,$3*
1,1,$1+$1,$4,$5*
1,1,$1+$1,$6,$7*
1,1,$1+$1,$8,$9*
0 Add four rect primitives between the rounded corners*
20,1,$1+$1,$2,$3,$4,$5,0*
20,1,$1+$1,$4,$5,$6,$7,0*
20,1,$1+$1,$6,$7,$8,$9,0*
20,1,$1+$1,$8,$9,$2,$3,0*%
G04 Aperture macros list end*
%ADD10RoundRect,0.225000X-0.225000X-0.250000X0.225000X-0.250000X0.225000X0.250000X-0.225000X0.250000X0*%
%ADD11RoundRect,0.140000X-0.170000X0.140000X-0.170000X-0.140000X0.170000X-0.140000X0.170000X0.140000X0*%
%ADD12RoundRect,0.200000X0.200000X0.275000X-0.200000X0.275000X-0.200000X-0.275000X0.200000X-0.275000X0*%
%ADD13RoundRect,0.200000X-0.275000X0.200000X-0.275000X-0.200000X0.275000X-0.200000X0.275000X0.200000X0*%
%ADD14RoundRect,0.225000X0.225000X0.250000X-0.225000X0.250000X-0.225000X-0.250000X0.225000X-0.250000X0*%
%ADD15RoundRect,0.100000X0.100000X-0.637500X0.100000X0.637500X-0.100000X0.637500X-0.100000X-0.637500X0*%
%ADD16RoundRect,0.200000X-0.200000X-0.275000X0.200000X-0.275000X0.200000X0.275000X-0.200000X0.275000X0*%
%ADD17RoundRect,0.150000X0.512500X0.150000X-0.512500X0.150000X-0.512500X-0.150000X0.512500X-0.150000X0*%
%ADD18R,1.400000X0.800000*%
%ADD19R,1.500000X1.500000*%
%ADD20R,1.500000X1.300000*%
%ADD21R,1.500000X0.800000*%
%ADD22R,1.000000X1.450000*%
%ADD23R,1.550000X1.000000*%
%ADD24R,1.750000X0.700000*%
%ADD25RoundRect,0.225000X0.250000X-0.225000X0.250000X0.225000X-0.250000X0.225000X-0.250000X-0.225000X0*%
%ADD26R,0.200000X0.700000*%
%ADD27RoundRect,0.225000X-0.250000X0.225000X-0.250000X-0.225000X0.250000X-0.225000X0.250000X0.225000X0*%
%ADD28RoundRect,0.147500X-0.172500X0.147500X-0.172500X-0.147500X0.172500X-0.147500X0.172500X0.147500X0*%
%ADD29R,3.400000X1.350000*%
%ADD30RoundRect,0.147500X-0.147500X-0.172500X0.147500X-0.172500X0.147500X0.172500X-0.147500X0.172500X0*%
%ADD31RoundRect,0.200000X0.275000X-0.200000X0.275000X0.200000X-0.275000X0.200000X-0.275000X-0.200000X0*%
G04 APERTURE END LIST*
D10*
%TO.C,C21*%
X158925000Y-104500000D03*
X160475000Y-104500000D03*
%TD*%
D11*
%TO.C,C20*%
X157500000Y-108120000D03*
X157500000Y-109080000D03*
%TD*%
D12*
%TO.C,R9*%
X148225000Y-72800000D03*
X146575000Y-72800000D03*
%TD*%
D13*
%TO.C,R24*%
X139500000Y-102675000D03*
X139500000Y-104325000D03*
%TD*%
D10*
%TO.C,C16*%
X158925000Y-106100000D03*
X160475000Y-106100000D03*
%TD*%
D14*
%TO.C,C54*%
X160375000Y-68100000D03*
X158825000Y-68100000D03*
%TD*%
D12*
%TO.C,R18*%
X148225000Y-70800000D03*
X146575000Y-70800000D03*
%TD*%
D10*
%TO.C,C48*%
X144725000Y-118200000D03*
X146275000Y-118200000D03*
%TD*%
D15*
%TO.C,U6*%
X161450000Y-118862500D03*
X160800000Y-118862500D03*
X160150000Y-118862500D03*
X159500000Y-118862500D03*
X158850000Y-118862500D03*
X158200000Y-118862500D03*
X157550000Y-118862500D03*
X157550000Y-113137500D03*
X158200000Y-113137500D03*
X158850000Y-113137500D03*
X159500000Y-113137500D03*
X160150000Y-113137500D03*
X160800000Y-113137500D03*
X161450000Y-113137500D03*
%TD*%
D16*
%TO.C,R16*%
X158775000Y-71500000D03*
X160425000Y-71500000D03*
%TD*%
%TO.C,R25*%
X156175000Y-131900000D03*
X157825000Y-131900000D03*
%TD*%
D14*
%TO.C,C34*%
X148175000Y-74900000D03*
X146625000Y-74900000D03*
%TD*%
%TO.C,C53*%
X156075000Y-78700000D03*
X154525000Y-78700000D03*
%TD*%
D17*
%TO.C,U11*%
X147137500Y-113050000D03*
X147137500Y-114000000D03*
X147137500Y-114950000D03*
X144862500Y-114950000D03*
X144862500Y-113050000D03*
%TD*%
D18*
%TO.C,J3*%
X149937500Y-89050000D03*
D19*
X141687500Y-89375000D03*
D20*
X141687500Y-100725000D03*
D21*
X149287500Y-100975000D03*
D22*
X150787500Y-100650000D03*
D23*
X152362500Y-89450000D03*
D24*
X141562500Y-99525000D03*
X141562500Y-98425000D03*
X141562500Y-97325000D03*
X141562500Y-96225000D03*
X141562500Y-95125000D03*
X141562500Y-94025000D03*
X141562500Y-92925000D03*
X141562500Y-91825000D03*
%TD*%
D25*
%TO.C,C18*%
X152600000Y-106875000D03*
X152600000Y-105325000D03*
%TD*%
D16*
%TO.C,R5*%
X138175000Y-85000000D03*
X139825000Y-85000000D03*
%TD*%
D10*
%TO.C,C47*%
X144725000Y-116600000D03*
X146275000Y-116600000D03*
%TD*%
D16*
%TO.C,R11*%
X147975000Y-106200000D03*
X149625000Y-106200000D03*
%TD*%
D26*
%TO.C,U1*%
X157800000Y-82580000D03*
X157800000Y-85660000D03*
X157400000Y-82580000D03*
X157400000Y-85660000D03*
X157000000Y-82580000D03*
X157000000Y-85660000D03*
X156600000Y-82580000D03*
X156600000Y-85660000D03*
X156200000Y-82580000D03*
X156200000Y-85660000D03*
X155800000Y-82580000D03*
X155800000Y-85660000D03*
X155400000Y-82580000D03*
X155400000Y-85660000D03*
X155000000Y-82580000D03*
X155000000Y-85660000D03*
X154600000Y-82580000D03*
X154600000Y-85660000D03*
X154200000Y-82580000D03*
X154200000Y-85660000D03*
X153800000Y-82580000D03*
X153800000Y-85660000D03*
X153400000Y-82580000D03*
X153400000Y-85660000D03*
X153000000Y-82580000D03*
X153000000Y-85660000D03*
X152600000Y-82580000D03*
X152600000Y-85660000D03*
X152200000Y-82580000D03*
X152200000Y-85660000D03*
X151800000Y-82580000D03*
X151800000Y-85660000D03*
X151400000Y-82580000D03*
X151400000Y-85660000D03*
X151000000Y-82580000D03*
X151000000Y-85660000D03*
X150600000Y-82580000D03*
X150600000Y-85660000D03*
X150200000Y-82580000D03*
X150200000Y-85660000D03*
X149800000Y-82580000D03*
X149800000Y-85660000D03*
X149400000Y-82580000D03*
X149400000Y-85660000D03*
X149000000Y-82580000D03*
X149000000Y-85660000D03*
X148600000Y-82580000D03*
X148600000Y-85660000D03*
X148200000Y-82580000D03*
X148200000Y-85660000D03*
X147800000Y-82580000D03*
X147800000Y-85660000D03*
X147400000Y-82580000D03*
X147400000Y-85660000D03*
X147000000Y-82580000D03*
X147000000Y-85660000D03*
X146600000Y-82580000D03*
X146600000Y-85660000D03*
X146200000Y-82580000D03*
X146200000Y-85660000D03*
X145800000Y-82580000D03*
X145800000Y-85660000D03*
X145400000Y-82580000D03*
X145400000Y-85660000D03*
X145000000Y-82580000D03*
X145000000Y-85660000D03*
X144600000Y-82580000D03*
X144600000Y-85660000D03*
X144200000Y-82580000D03*
X144200000Y-85660000D03*
X143800000Y-82580000D03*
X143800000Y-85660000D03*
X143400000Y-82580000D03*
X143400000Y-85660000D03*
X143000000Y-82580000D03*
X143000000Y-85660000D03*
X142600000Y-82580000D03*
X142600000Y-85660000D03*
X142200000Y-82580000D03*
X142200000Y-85660000D03*
X142200000Y-128840000D03*
X142200000Y-125760000D03*
X142600000Y-128840000D03*
X142600000Y-125760000D03*
X143000000Y-128840000D03*
X143000000Y-125760000D03*
X143400000Y-128840000D03*
X143400000Y-125760000D03*
X143800000Y-128840000D03*
X143800000Y-125760000D03*
X144200000Y-128840000D03*
X144200000Y-125760000D03*
X144600000Y-128840000D03*
X144600000Y-125760000D03*
X145000000Y-128840000D03*
X145000000Y-125760000D03*
X145400000Y-128840000D03*
X145400000Y-125760000D03*
X145800000Y-128840000D03*
X145800000Y-125760000D03*
X146200000Y-128840000D03*
X146200000Y-125760000D03*
X146600000Y-128840000D03*
X146600000Y-125760000D03*
X147000000Y-128840000D03*
X147000000Y-125760000D03*
X147400000Y-128840000D03*
X147400000Y-125760000D03*
X147800000Y-128840000D03*
X147800000Y-125760000D03*
X148200000Y-128840000D03*
X148200000Y-125760000D03*
X148600000Y-128840000D03*
X148600000Y-125760000D03*
X149000000Y-128840000D03*
X149000000Y-125760000D03*
X149400000Y-128840000D03*
X149400000Y-125760000D03*
X149800000Y-128840000D03*
X149800000Y-125760000D03*
X150200000Y-128840000D03*
X150200000Y-125760000D03*
X150600000Y-128840000D03*
X150600000Y-125760000D03*
X151000000Y-128840000D03*
X151000000Y-125760000D03*
X151400000Y-128840000D03*
X151400000Y-125760000D03*
X151800000Y-128840000D03*
X151800000Y-125760000D03*
X152200000Y-128840000D03*
X152200000Y-125760000D03*
X152600000Y-128840000D03*
X152600000Y-125760000D03*
X153000000Y-128840000D03*
X153000000Y-125760000D03*
X153400000Y-128840000D03*
X153400000Y-125760000D03*
X153800000Y-128840000D03*
X153800000Y-125760000D03*
X154200000Y-128840000D03*
X154200000Y-125760000D03*
X154600000Y-128840000D03*
X154600000Y-125760000D03*
X155000000Y-128840000D03*
X155000000Y-125760000D03*
X155400000Y-128840000D03*
X155400000Y-125760000D03*
X155800000Y-128840000D03*
X155800000Y-125760000D03*
X156200000Y-128840000D03*
X156200000Y-125760000D03*
X156600000Y-128840000D03*
X156600000Y-125760000D03*
X157000000Y-128840000D03*
X157000000Y-125760000D03*
X157400000Y-128840000D03*
X157400000Y-125760000D03*
X157800000Y-128840000D03*
X157800000Y-125760000D03*
%TD*%
D27*
%TO.C,C46*%
X149000000Y-113225000D03*
X149000000Y-114775000D03*
%TD*%
D12*
%TO.C,R20*%
X160425000Y-69800000D03*
X158775000Y-69800000D03*
%TD*%
D28*
%TO.C,L5*%
X161800000Y-104915000D03*
X161800000Y-105885000D03*
%TD*%
D29*
%TO.C,L8*%
X141700000Y-112925000D03*
X141700000Y-115075000D03*
%TD*%
D25*
%TO.C,C19*%
X157300000Y-106875000D03*
X157300000Y-105325000D03*
%TD*%
D16*
%TO.C,R10*%
X147975000Y-104500000D03*
X149625000Y-104500000D03*
%TD*%
D30*
%TO.C,L6*%
X154415000Y-106800000D03*
X155385000Y-106800000D03*
%TD*%
D13*
%TO.C,R22*%
X149000000Y-109975000D03*
X149000000Y-111625000D03*
%TD*%
D16*
%TO.C,R21*%
X144575000Y-78900000D03*
X146225000Y-78900000D03*
%TD*%
D10*
%TO.C,C14*%
X158925000Y-107700000D03*
X160475000Y-107700000D03*
%TD*%
D16*
%TO.C,R27*%
X159775000Y-130300000D03*
X161425000Y-130300000D03*
%TD*%
D17*
%TO.C,U12*%
X157137500Y-75050000D03*
X157137500Y-76000000D03*
X157137500Y-76950000D03*
X154862500Y-76950000D03*
X154862500Y-76000000D03*
X154862500Y-75050000D03*
%TD*%
D16*
%TO.C,R26*%
X156175000Y-130300000D03*
X157825000Y-130300000D03*
%TD*%
%TO.C,R23*%
X159975000Y-98400000D03*
X161625000Y-98400000D03*
%TD*%
D31*
%TO.C,R17*%
X161600000Y-82325000D03*
X161600000Y-80675000D03*
%TD*%
D15*
%TO.C,U3*%
X155450000Y-118862500D03*
X154800000Y-118862500D03*
X154150000Y-118862500D03*
X153500000Y-118862500D03*
X152850000Y-118862500D03*
X152200000Y-118862500D03*
X151550000Y-118862500D03*
X151550000Y-113137500D03*
X152200000Y-113137500D03*
X152850000Y-113137500D03*
X153500000Y-113137500D03*
X154150000Y-113137500D03*
X154800000Y-113137500D03*
X155450000Y-113137500D03*
%TD*%
D16*
%TO.C,R8*%
X147975000Y-102800000D03*
X149625000Y-102800000D03*
%TD*%
D12*
%TO.C,R19*%
X148225000Y-68800000D03*
X146575000Y-68800000D03*
%TD*%
%TO.C,R7*%
X139825000Y-81600000D03*
X138175000Y-81600000D03*
%TD*%
D10*
%TO.C,C2*%
X158925000Y-109300000D03*
X160475000Y-109300000D03*
%TD*%
D28*
%TO.C,L7*%
X158900000Y-102115000D03*
X158900000Y-103085000D03*
%TD*%
D16*
%TO.C,R4*%
X138175000Y-83300000D03*
X139825000Y-83300000D03*
%TD*%
M02*
