%TF.GenerationSoftware,KiCad,Pcbnew,7.0.1-3b83917a11~172~ubuntu20.04.1*%
%TF.CreationDate,2023-04-27T15:55:01+02:00*%
%TF.ProjectId,radartof-hardware,72616461-7274-46f6-962d-686172647761,1.4*%
%TF.SameCoordinates,Original*%
%TF.FileFunction,Soldermask,Top*%
%TF.FilePolarity,Negative*%
%FSLAX46Y46*%
G04 Gerber Fmt 4.6, Leading zero omitted, Abs format (unit mm)*
G04 Created by KiCad (PCBNEW 7.0.1-3b83917a11~172~ubuntu20.04.1) date 2023-04-27 15:55:01*
%MOMM*%
%LPD*%
G01*
G04 APERTURE LIST*
G04 Aperture macros list*
%AMRoundRect*
0 Rectangle with rounded corners*
0 $1 Rounding radius*
0 $2 $3 $4 $5 $6 $7 $8 $9 X,Y pos of 4 corners*
0 Add a 4 corners polygon primitive as box body*
4,1,4,$2,$3,$4,$5,$6,$7,$8,$9,$2,$3,0*
0 Add four circle primitives for the rounded corners*
1,1,$1+$1,$2,$3*
1,1,$1+$1,$4,$5*
1,1,$1+$1,$6,$7*
1,1,$1+$1,$8,$9*
0 Add four rect primitives between the rounded corners*
20,1,$1+$1,$2,$3,$4,$5,0*
20,1,$1+$1,$4,$5,$6,$7,0*
20,1,$1+$1,$6,$7,$8,$9,0*
20,1,$1+$1,$8,$9,$2,$3,0*%
G04 Aperture macros list end*
%ADD10C,0.010000*%
%ADD11C,0.600000*%
%ADD12O,0.900000X1.900000*%
%ADD13C,1.000000*%
%ADD14RoundRect,0.225000X-0.250000X0.225000X-0.250000X-0.225000X0.250000X-0.225000X0.250000X0.225000X0*%
%ADD15RoundRect,0.225000X0.225000X0.250000X-0.225000X0.250000X-0.225000X-0.250000X0.225000X-0.250000X0*%
%ADD16RoundRect,0.140000X-0.140000X-0.170000X0.140000X-0.170000X0.140000X0.170000X-0.140000X0.170000X0*%
%ADD17RoundRect,0.225000X-0.225000X-0.250000X0.225000X-0.250000X0.225000X0.250000X-0.225000X0.250000X0*%
%ADD18RoundRect,0.140000X0.170000X-0.140000X0.170000X0.140000X-0.170000X0.140000X-0.170000X-0.140000X0*%
%ADD19RoundRect,0.150000X0.512500X0.150000X-0.512500X0.150000X-0.512500X-0.150000X0.512500X-0.150000X0*%
%ADD20RoundRect,0.147500X-0.172500X0.147500X-0.172500X-0.147500X0.172500X-0.147500X0.172500X0.147500X0*%
%ADD21RoundRect,0.200000X-0.275000X0.200000X-0.275000X-0.200000X0.275000X-0.200000X0.275000X0.200000X0*%
%ADD22C,0.275000*%
%ADD23RoundRect,0.147500X0.147500X0.172500X-0.147500X0.172500X-0.147500X-0.172500X0.147500X-0.172500X0*%
%ADD24R,2.400000X0.740000*%
%ADD25RoundRect,0.225000X0.250000X-0.225000X0.250000X0.225000X-0.250000X0.225000X-0.250000X-0.225000X0*%
%ADD26RoundRect,0.140000X-0.170000X0.140000X-0.170000X-0.140000X0.170000X-0.140000X0.170000X0.140000X0*%
%ADD27RoundRect,0.147500X0.172500X-0.147500X0.172500X0.147500X-0.172500X0.147500X-0.172500X-0.147500X0*%
%ADD28RoundRect,0.060000X-0.240000X-0.340000X0.240000X-0.340000X0.240000X0.340000X-0.240000X0.340000X0*%
%ADD29RoundRect,0.050800X2.000000X1.000000X-2.000000X1.000000X-2.000000X-1.000000X2.000000X-1.000000X0*%
%ADD30RoundRect,0.050800X-0.625000X0.137500X-0.625000X-0.137500X0.625000X-0.137500X0.625000X0.137500X0*%
%ADD31RoundRect,0.060000X0.340000X-0.240000X0.340000X0.240000X-0.340000X0.240000X-0.340000X-0.240000X0*%
%ADD32RoundRect,0.150000X-0.150000X0.512500X-0.150000X-0.512500X0.150000X-0.512500X0.150000X0.512500X0*%
%ADD33RoundRect,0.200000X-0.200000X-0.275000X0.200000X-0.275000X0.200000X0.275000X-0.200000X0.275000X0*%
%ADD34RoundRect,0.140000X0.140000X0.170000X-0.140000X0.170000X-0.140000X-0.170000X0.140000X-0.170000X0*%
%ADD35RoundRect,0.200000X0.275000X-0.200000X0.275000X0.200000X-0.275000X0.200000X-0.275000X-0.200000X0*%
%ADD36RoundRect,0.200000X0.200000X0.275000X-0.200000X0.275000X-0.200000X-0.275000X0.200000X-0.275000X0*%
%ADD37RoundRect,0.147500X-0.147500X-0.172500X0.147500X-0.172500X0.147500X0.172500X-0.147500X0.172500X0*%
%ADD38C,3.300000*%
%ADD39R,0.810000X4.600000*%
%ADD40R,0.610000X4.600000*%
%ADD41RoundRect,0.135000X0.135000X0.185000X-0.135000X0.185000X-0.135000X-0.185000X0.135000X-0.185000X0*%
%ADD42RoundRect,0.050000X-0.350000X-0.200000X0.350000X-0.200000X0.350000X0.200000X-0.350000X0.200000X0*%
%ADD43R,0.533400X0.508000*%
%ADD44R,0.508000X0.533400*%
%ADD45R,2.311400X1.193800*%
%ADD46RoundRect,0.150000X-0.512500X-0.150000X0.512500X-0.150000X0.512500X0.150000X-0.512500X0.150000X0*%
G04 APERTURE END LIST*
%TO.C,J5*%
D10*
X157520000Y-73050000D02*
X154820000Y-73050000D01*
X154820000Y-68950000D01*
X157520000Y-68950000D01*
X157520000Y-73050000D01*
G36*
X157520000Y-73050000D02*
G01*
X154820000Y-73050000D01*
X154820000Y-68950000D01*
X157520000Y-68950000D01*
X157520000Y-73050000D01*
G37*
X140180000Y-73050000D02*
X137480000Y-73050000D01*
X137480000Y-68950000D01*
X140180000Y-68950000D01*
X140180000Y-73050000D01*
G36*
X140180000Y-73050000D02*
G01*
X137480000Y-73050000D01*
X137480000Y-68950000D01*
X140180000Y-68950000D01*
X140180000Y-73050000D01*
G37*
%TD*%
D11*
%TO.C,J4*%
X160906750Y-73725000D03*
X160906750Y-74625000D03*
X160906750Y-75525000D03*
X160906750Y-76425000D03*
X160906750Y-77325000D03*
X160906750Y-78225000D03*
X160906750Y-79125000D03*
X160126750Y-78675000D03*
X160126750Y-77775000D03*
X160126750Y-76875000D03*
X160126750Y-75975000D03*
X160126750Y-75075000D03*
X160126750Y-74175000D03*
X160126750Y-73275000D03*
D12*
X161946750Y-78575000D03*
X161946750Y-73775000D03*
X159086750Y-78575000D03*
X159086750Y-73775000D03*
%TD*%
D13*
%TO.C,TP15*%
X149900000Y-103800000D03*
%TD*%
D14*
%TO.C,C11*%
X156500000Y-115225000D03*
X156500000Y-116775000D03*
%TD*%
D15*
%TO.C,C57*%
X154275000Y-117000000D03*
X152725000Y-117000000D03*
%TD*%
D14*
%TO.C,C37*%
X142800000Y-112325000D03*
X142800000Y-113875000D03*
%TD*%
D13*
%TO.C,TP5*%
X153500000Y-118900000D03*
%TD*%
D16*
%TO.C,C3*%
X158770000Y-109550000D03*
X159730000Y-109550000D03*
%TD*%
D17*
%TO.C,C9*%
X160125000Y-103100000D03*
X161675000Y-103100000D03*
%TD*%
D15*
%TO.C,C27*%
X155475000Y-97800000D03*
X153925000Y-97800000D03*
%TD*%
D18*
%TO.C,C40*%
X138000000Y-122380000D03*
X138000000Y-121420000D03*
%TD*%
D13*
%TO.C,TP2*%
X149000000Y-131500000D03*
%TD*%
D19*
%TO.C,U4*%
X159637500Y-99650000D03*
X159637500Y-98700000D03*
X159637500Y-97750000D03*
X157362500Y-97750000D03*
X157362500Y-99650000D03*
%TD*%
D18*
%TO.C,C39*%
X138000000Y-119880000D03*
X138000000Y-118920000D03*
%TD*%
D20*
%TO.C,L3*%
X158800000Y-102115000D03*
X158800000Y-103085000D03*
%TD*%
D21*
%TO.C,R6*%
X146400000Y-102675000D03*
X146400000Y-104325000D03*
%TD*%
%TO.C,R2*%
X142200000Y-102675000D03*
X142200000Y-104325000D03*
%TD*%
D15*
%TO.C,C58*%
X154275000Y-115000000D03*
X152725000Y-115000000D03*
%TD*%
D16*
%TO.C,C25*%
X158770000Y-110750000D03*
X159730000Y-110750000D03*
%TD*%
D22*
%TO.C,U5*%
X152250000Y-108750000D03*
X152250000Y-108250000D03*
X152250000Y-107750000D03*
X152250000Y-107250000D03*
X152250000Y-106750000D03*
X152250000Y-106250000D03*
X152250000Y-105750000D03*
X152250000Y-105250000D03*
X152750000Y-108750000D03*
X152750000Y-108250000D03*
X152750000Y-105750000D03*
X152750000Y-105250000D03*
X153250000Y-108750000D03*
X153250000Y-105250000D03*
X153750000Y-108750000D03*
X153750000Y-105250000D03*
X154250000Y-108750000D03*
X154250000Y-105250000D03*
X154750000Y-108750000D03*
X154750000Y-105250000D03*
X155250000Y-108750000D03*
X155250000Y-105250000D03*
X155750000Y-108750000D03*
X155750000Y-105250000D03*
X156250000Y-108750000D03*
X156250000Y-105250000D03*
X156750000Y-108750000D03*
X156750000Y-105250000D03*
X157250000Y-108750000D03*
X157250000Y-105250000D03*
X157750000Y-108750000D03*
X157750000Y-108250000D03*
X157750000Y-107750000D03*
X157750000Y-107250000D03*
X157750000Y-106750000D03*
X157750000Y-106250000D03*
X157750000Y-105750000D03*
X157750000Y-105250000D03*
%TD*%
D23*
%TO.C,L1*%
X161685000Y-110000000D03*
X160715000Y-110000000D03*
%TD*%
D24*
%TO.C,J1*%
X157350000Y-84690000D03*
X161250000Y-84690000D03*
X157350000Y-85960000D03*
X161250000Y-85960000D03*
X157350000Y-87230000D03*
X161250000Y-87230000D03*
X157350000Y-88500000D03*
X161250000Y-88500000D03*
X157350000Y-89770000D03*
X161250000Y-89770000D03*
X157350000Y-91040000D03*
X161250000Y-91040000D03*
X157350000Y-92310000D03*
X161250000Y-92310000D03*
%TD*%
D13*
%TO.C,TP9*%
X157500000Y-118900000D03*
%TD*%
D25*
%TO.C,C45*%
X149900000Y-117675000D03*
X149900000Y-116125000D03*
%TD*%
D26*
%TO.C,C35*%
X138000000Y-126320000D03*
X138000000Y-127280000D03*
%TD*%
D27*
%TO.C,L4*%
X156500000Y-113385000D03*
X156500000Y-112415000D03*
%TD*%
D17*
%TO.C,C49*%
X142025000Y-96100000D03*
X143575000Y-96100000D03*
%TD*%
D16*
%TO.C,C22*%
X158770000Y-105000000D03*
X159730000Y-105000000D03*
%TD*%
D13*
%TO.C,TP7*%
X161500000Y-118900000D03*
%TD*%
D28*
%TO.C,U8*%
X152900000Y-132100000D03*
X151100000Y-132095599D03*
X151100000Y-130895599D03*
X152900000Y-130895599D03*
%TD*%
D29*
%TO.C,J2*%
X141710000Y-131510000D03*
X141710000Y-116400000D03*
D30*
X139520000Y-118250000D03*
X139520000Y-118750000D03*
X139520000Y-119250000D03*
X139520000Y-119750000D03*
X139520000Y-120250000D03*
X139520000Y-120750000D03*
X139520000Y-121250000D03*
X139520000Y-121750000D03*
X139520000Y-122250000D03*
X139520000Y-122750000D03*
X139520000Y-123250000D03*
X139520000Y-123750000D03*
X139520000Y-124250000D03*
X139520000Y-124750000D03*
X139520000Y-125250000D03*
X139520000Y-125750000D03*
X139520000Y-126250000D03*
X139520000Y-126750000D03*
X139520000Y-127250000D03*
X139520000Y-127750000D03*
X139520000Y-128250000D03*
X139520000Y-128750000D03*
X139520000Y-129250000D03*
X139520000Y-129750000D03*
%TD*%
D13*
%TO.C,TP6*%
X151500000Y-118900000D03*
%TD*%
%TO.C,TP14*%
X140200000Y-98500000D03*
%TD*%
D31*
%TO.C,U2*%
X162100000Y-105500000D03*
X162095599Y-107300000D03*
X160895599Y-107300000D03*
X160895599Y-105500000D03*
%TD*%
D16*
%TO.C,C31*%
X143020000Y-109200000D03*
X143980000Y-109200000D03*
%TD*%
D13*
%TO.C,TP16*%
X149900000Y-106800000D03*
%TD*%
D26*
%TO.C,C41*%
X138000000Y-123620000D03*
X138000000Y-124580000D03*
%TD*%
D32*
%TO.C,U10*%
X148450000Y-111962500D03*
X147500000Y-111962500D03*
X146550000Y-111962500D03*
X146550000Y-114237500D03*
X148450000Y-114237500D03*
%TD*%
D14*
%TO.C,C4*%
X151500000Y-111325000D03*
X151500000Y-112875000D03*
%TD*%
D33*
%TO.C,R12*%
X141975000Y-94400000D03*
X143625000Y-94400000D03*
%TD*%
D34*
%TO.C,C6*%
X155480000Y-109850000D03*
X154520000Y-109850000D03*
%TD*%
D26*
%TO.C,C13*%
X156500000Y-109820000D03*
X156500000Y-110780000D03*
%TD*%
D35*
%TO.C,R14*%
X148600000Y-96025000D03*
X148600000Y-94375000D03*
%TD*%
D14*
%TO.C,C38*%
X144400000Y-112325000D03*
X144400000Y-113875000D03*
%TD*%
D36*
%TO.C,R13*%
X147025000Y-94400000D03*
X145375000Y-94400000D03*
%TD*%
D13*
%TO.C,TP10*%
X138400000Y-101800000D03*
%TD*%
D37*
%TO.C,L2*%
X152815000Y-111300000D03*
X153785000Y-111300000D03*
%TD*%
D25*
%TO.C,C23*%
X156400000Y-102775000D03*
X156400000Y-101225000D03*
%TD*%
D16*
%TO.C,C24*%
X156020000Y-104150000D03*
X156980000Y-104150000D03*
%TD*%
D15*
%TO.C,C44*%
X148275000Y-117700000D03*
X146725000Y-117700000D03*
%TD*%
D20*
%TO.C,L9*%
X138000000Y-116015000D03*
X138000000Y-116985000D03*
%TD*%
D25*
%TO.C,C7*%
X154600000Y-102775000D03*
X154600000Y-101225000D03*
%TD*%
D13*
%TO.C,TP13*%
X138400000Y-103900000D03*
%TD*%
D14*
%TO.C,C5*%
X155100000Y-111325000D03*
X155100000Y-112875000D03*
%TD*%
D18*
%TO.C,C55*%
X143500000Y-104480000D03*
X143500000Y-103520000D03*
%TD*%
D16*
%TO.C,C17*%
X158770000Y-106150000D03*
X159730000Y-106150000D03*
%TD*%
D26*
%TO.C,C29*%
X147000000Y-107020000D03*
X147000000Y-107980000D03*
%TD*%
D13*
%TO.C,TP12*%
X142000000Y-99600000D03*
%TD*%
%TO.C,TP3*%
X146000000Y-131500000D03*
%TD*%
D16*
%TO.C,C33*%
X152920000Y-129900000D03*
X153880000Y-129900000D03*
%TD*%
%TO.C,C10*%
X161020000Y-104500000D03*
X161980000Y-104500000D03*
%TD*%
D13*
%TO.C,TP4*%
X155500000Y-118900000D03*
%TD*%
D38*
%TO.C,J5*%
X153850000Y-71000000D03*
X141150000Y-71000000D03*
D39*
X140890000Y-90920000D03*
X142730000Y-90920000D03*
D40*
X143930000Y-90920000D03*
X144950000Y-90920000D03*
X145970000Y-90920000D03*
X146990000Y-90920000D03*
X148010000Y-90920000D03*
X149030000Y-90920000D03*
X150050000Y-90920000D03*
X151070000Y-90920000D03*
D39*
X152270000Y-90920000D03*
X154110000Y-90920000D03*
%TD*%
D17*
%TO.C,C50*%
X142032182Y-97807182D03*
X143582182Y-97807182D03*
%TD*%
D13*
%TO.C,TP11*%
X140200000Y-100700000D03*
%TD*%
D41*
%TO.C,R1*%
X159810000Y-107250000D03*
X158790000Y-107250000D03*
%TD*%
D34*
%TO.C,C8*%
X154980000Y-104150000D03*
X154020000Y-104150000D03*
%TD*%
D15*
%TO.C,C42*%
X148275000Y-110100000D03*
X146725000Y-110100000D03*
%TD*%
D13*
%TO.C,TP8*%
X159500000Y-118900000D03*
%TD*%
D15*
%TO.C,C61*%
X155475000Y-99600000D03*
X153925000Y-99600000D03*
%TD*%
%TO.C,C1*%
X160275000Y-113650000D03*
X158725000Y-113650000D03*
%TD*%
D16*
%TO.C,C15*%
X158770000Y-108350000D03*
X159730000Y-108350000D03*
%TD*%
D17*
%TO.C,C36*%
X138725000Y-110500000D03*
X140275000Y-110500000D03*
%TD*%
D25*
%TO.C,C26*%
X161500000Y-99475000D03*
X161500000Y-97925000D03*
%TD*%
D42*
%TO.C,D1*%
X159200000Y-131850000D03*
X159200000Y-130950000D03*
X160800000Y-130950000D03*
X160800000Y-131850000D03*
%TD*%
D14*
%TO.C,C51*%
X146900000Y-95925000D03*
X146900000Y-97475000D03*
%TD*%
D36*
%TO.C,R15*%
X151825000Y-94400000D03*
X150175000Y-94400000D03*
%TD*%
D43*
%TO.C,U7*%
X145250001Y-107952500D03*
X144500000Y-107952500D03*
X143750001Y-107952500D03*
X143000000Y-107952500D03*
X142249999Y-107952500D03*
X141500000Y-107952500D03*
X140749999Y-107952500D03*
D44*
X145451100Y-107000000D03*
D45*
X143000000Y-107000000D03*
D44*
X140548900Y-107000000D03*
D43*
X145250001Y-106047500D03*
X144500000Y-106047500D03*
X143750001Y-106047500D03*
X143000000Y-106047500D03*
X142249999Y-106047500D03*
X141500000Y-106047500D03*
X140749999Y-106047500D03*
%TD*%
D15*
%TO.C,C59*%
X160275000Y-117000000D03*
X158725000Y-117000000D03*
%TD*%
D26*
%TO.C,C30*%
X139000000Y-107020000D03*
X139000000Y-107980000D03*
%TD*%
D17*
%TO.C,C32*%
X154225000Y-131400000D03*
X155775000Y-131400000D03*
%TD*%
D21*
%TO.C,R3*%
X144800000Y-102675000D03*
X144800000Y-104325000D03*
%TD*%
D46*
%TO.C,U9*%
X138662500Y-112150000D03*
X138662500Y-113100000D03*
X138662500Y-114050000D03*
X140937500Y-114050000D03*
X140937500Y-112150000D03*
%TD*%
D15*
%TO.C,C60*%
X160275000Y-115200000D03*
X158725000Y-115200000D03*
%TD*%
D25*
%TO.C,C28*%
X140600000Y-104275000D03*
X140600000Y-102725000D03*
%TD*%
D17*
%TO.C,C12*%
X157825000Y-112100000D03*
X159375000Y-112100000D03*
%TD*%
D15*
%TO.C,C43*%
X148275000Y-116100000D03*
X146725000Y-116100000D03*
%TD*%
M02*
