%TF.GenerationSoftware,KiCad,Pcbnew,7.0.1*%
%TF.CreationDate,2023-04-26T14:08:09+02:00*%
%TF.ProjectId,radartof-hardware,72616461-7274-46f6-962d-686172647761,1.4*%
%TF.SameCoordinates,Original*%
%TF.FileFunction,Legend,Bot*%
%TF.FilePolarity,Positive*%
%FSLAX46Y46*%
G04 Gerber Fmt 4.6, Leading zero omitted, Abs format (unit mm)*
G04 Created by KiCad (PCBNEW 7.0.1) date 2023-04-26 14:08:09*
%MOMM*%
%LPD*%
G01*
G04 APERTURE LIST*
G04 Aperture macros list*
%AMRoundRect*
0 Rectangle with rounded corners*
0 $1 Rounding radius*
0 $2 $3 $4 $5 $6 $7 $8 $9 X,Y pos of 4 corners*
0 Add a 4 corners polygon primitive as box body*
4,1,4,$2,$3,$4,$5,$6,$7,$8,$9,$2,$3,0*
0 Add four circle primitives for the rounded corners*
1,1,$1+$1,$2,$3*
1,1,$1+$1,$4,$5*
1,1,$1+$1,$6,$7*
1,1,$1+$1,$8,$9*
0 Add four rect primitives between the rounded corners*
20,1,$1+$1,$2,$3,$4,$5,0*
20,1,$1+$1,$4,$5,$6,$7,0*
20,1,$1+$1,$6,$7,$8,$9,0*
20,1,$1+$1,$8,$9,$2,$3,0*%
%AMFreePoly0*
4,1,19,0.500000,-0.750000,0.000000,-0.750000,0.000000,-0.744911,-0.071157,-0.744911,-0.207708,-0.704816,-0.327430,-0.627875,-0.420627,-0.520320,-0.479746,-0.390866,-0.500000,-0.250000,-0.500000,0.250000,-0.479746,0.390866,-0.420627,0.520320,-0.327430,0.627875,-0.207708,0.704816,-0.071157,0.744911,0.000000,0.744911,0.000000,0.750000,0.500000,0.750000,0.500000,-0.750000,0.500000,-0.750000,
$1*%
%AMFreePoly1*
4,1,19,0.000000,0.744911,0.071157,0.744911,0.207708,0.704816,0.327430,0.627875,0.420627,0.520320,0.479746,0.390866,0.500000,0.250000,0.500000,-0.250000,0.479746,-0.390866,0.420627,-0.520320,0.327430,-0.627875,0.207708,-0.704816,0.071157,-0.744911,0.000000,-0.744911,0.000000,-0.750000,-0.500000,-0.750000,-0.500000,0.750000,0.000000,0.750000,0.000000,0.744911,0.000000,0.744911,
$1*%
G04 Aperture macros list end*
%ADD10C,0.150000*%
%ADD11C,0.120000*%
%ADD12C,0.127000*%
%ADD13C,0.200000*%
%ADD14C,0.100000*%
%ADD15C,0.600000*%
%ADD16O,0.900000X1.900000*%
%ADD17C,3.300000*%
%ADD18RoundRect,0.225000X-0.225000X-0.250000X0.225000X-0.250000X0.225000X0.250000X-0.225000X0.250000X0*%
%ADD19RoundRect,0.140000X-0.170000X0.140000X-0.170000X-0.140000X0.170000X-0.140000X0.170000X0.140000X0*%
%ADD20RoundRect,0.200000X0.200000X0.275000X-0.200000X0.275000X-0.200000X-0.275000X0.200000X-0.275000X0*%
%ADD21RoundRect,0.200000X-0.275000X0.200000X-0.275000X-0.200000X0.275000X-0.200000X0.275000X0.200000X0*%
%ADD22RoundRect,0.225000X0.225000X0.250000X-0.225000X0.250000X-0.225000X-0.250000X0.225000X-0.250000X0*%
%ADD23RoundRect,0.100000X0.100000X-0.637500X0.100000X0.637500X-0.100000X0.637500X-0.100000X-0.637500X0*%
%ADD24RoundRect,0.200000X-0.200000X-0.275000X0.200000X-0.275000X0.200000X0.275000X-0.200000X0.275000X0*%
%ADD25RoundRect,0.150000X0.512500X0.150000X-0.512500X0.150000X-0.512500X-0.150000X0.512500X-0.150000X0*%
%ADD26R,1.750000X0.700000*%
%ADD27R,1.550000X1.000000*%
%ADD28R,1.000000X1.450000*%
%ADD29R,1.500000X0.800000*%
%ADD30R,1.500000X1.300000*%
%ADD31R,1.500000X1.500000*%
%ADD32R,1.400000X0.800000*%
%ADD33RoundRect,0.225000X0.250000X-0.225000X0.250000X0.225000X-0.250000X0.225000X-0.250000X-0.225000X0*%
%ADD34R,0.200000X0.700000*%
%ADD35RoundRect,0.225000X-0.250000X0.225000X-0.250000X-0.225000X0.250000X-0.225000X0.250000X0.225000X0*%
%ADD36RoundRect,0.147500X-0.172500X0.147500X-0.172500X-0.147500X0.172500X-0.147500X0.172500X0.147500X0*%
%ADD37R,3.400000X1.350000*%
%ADD38RoundRect,0.147500X-0.147500X-0.172500X0.147500X-0.172500X0.147500X0.172500X-0.147500X0.172500X0*%
%ADD39FreePoly0,0.000000*%
%ADD40FreePoly1,0.000000*%
%ADD41RoundRect,0.200000X0.275000X-0.200000X0.275000X0.200000X-0.275000X0.200000X-0.275000X-0.200000X0*%
%ADD42C,1.000000*%
G04 APERTURE END LIST*
D10*
%TO.C,U6*%
X160261904Y-119962619D02*
X160261904Y-120772142D01*
X160261904Y-120772142D02*
X160214285Y-120867380D01*
X160214285Y-120867380D02*
X160166666Y-120915000D01*
X160166666Y-120915000D02*
X160071428Y-120962619D01*
X160071428Y-120962619D02*
X159880952Y-120962619D01*
X159880952Y-120962619D02*
X159785714Y-120915000D01*
X159785714Y-120915000D02*
X159738095Y-120867380D01*
X159738095Y-120867380D02*
X159690476Y-120772142D01*
X159690476Y-120772142D02*
X159690476Y-119962619D01*
X158785714Y-119962619D02*
X158976190Y-119962619D01*
X158976190Y-119962619D02*
X159071428Y-120010238D01*
X159071428Y-120010238D02*
X159119047Y-120057857D01*
X159119047Y-120057857D02*
X159214285Y-120200714D01*
X159214285Y-120200714D02*
X159261904Y-120391190D01*
X159261904Y-120391190D02*
X159261904Y-120772142D01*
X159261904Y-120772142D02*
X159214285Y-120867380D01*
X159214285Y-120867380D02*
X159166666Y-120915000D01*
X159166666Y-120915000D02*
X159071428Y-120962619D01*
X159071428Y-120962619D02*
X158880952Y-120962619D01*
X158880952Y-120962619D02*
X158785714Y-120915000D01*
X158785714Y-120915000D02*
X158738095Y-120867380D01*
X158738095Y-120867380D02*
X158690476Y-120772142D01*
X158690476Y-120772142D02*
X158690476Y-120534047D01*
X158690476Y-120534047D02*
X158738095Y-120438809D01*
X158738095Y-120438809D02*
X158785714Y-120391190D01*
X158785714Y-120391190D02*
X158880952Y-120343571D01*
X158880952Y-120343571D02*
X159071428Y-120343571D01*
X159071428Y-120343571D02*
X159166666Y-120391190D01*
X159166666Y-120391190D02*
X159214285Y-120438809D01*
X159214285Y-120438809D02*
X159261904Y-120534047D01*
%TO.C,U11*%
X147238094Y-111062619D02*
X147238094Y-111872142D01*
X147238094Y-111872142D02*
X147190475Y-111967380D01*
X147190475Y-111967380D02*
X147142856Y-112015000D01*
X147142856Y-112015000D02*
X147047618Y-112062619D01*
X147047618Y-112062619D02*
X146857142Y-112062619D01*
X146857142Y-112062619D02*
X146761904Y-112015000D01*
X146761904Y-112015000D02*
X146714285Y-111967380D01*
X146714285Y-111967380D02*
X146666666Y-111872142D01*
X146666666Y-111872142D02*
X146666666Y-111062619D01*
X145666666Y-112062619D02*
X146238094Y-112062619D01*
X145952380Y-112062619D02*
X145952380Y-111062619D01*
X145952380Y-111062619D02*
X146047618Y-111205476D01*
X146047618Y-111205476D02*
X146142856Y-111300714D01*
X146142856Y-111300714D02*
X146238094Y-111348333D01*
X144714285Y-112062619D02*
X145285713Y-112062619D01*
X144999999Y-112062619D02*
X144999999Y-111062619D01*
X144999999Y-111062619D02*
X145095237Y-111205476D01*
X145095237Y-111205476D02*
X145190475Y-111300714D01*
X145190475Y-111300714D02*
X145285713Y-111348333D01*
%TO.C,J3*%
X142033333Y-101862619D02*
X142033333Y-102576904D01*
X142033333Y-102576904D02*
X142080952Y-102719761D01*
X142080952Y-102719761D02*
X142176190Y-102815000D01*
X142176190Y-102815000D02*
X142319047Y-102862619D01*
X142319047Y-102862619D02*
X142414285Y-102862619D01*
X141652380Y-101862619D02*
X141033333Y-101862619D01*
X141033333Y-101862619D02*
X141366666Y-102243571D01*
X141366666Y-102243571D02*
X141223809Y-102243571D01*
X141223809Y-102243571D02*
X141128571Y-102291190D01*
X141128571Y-102291190D02*
X141080952Y-102338809D01*
X141080952Y-102338809D02*
X141033333Y-102434047D01*
X141033333Y-102434047D02*
X141033333Y-102672142D01*
X141033333Y-102672142D02*
X141080952Y-102767380D01*
X141080952Y-102767380D02*
X141128571Y-102815000D01*
X141128571Y-102815000D02*
X141223809Y-102862619D01*
X141223809Y-102862619D02*
X141509523Y-102862619D01*
X141509523Y-102862619D02*
X141604761Y-102815000D01*
X141604761Y-102815000D02*
X141652380Y-102767380D01*
%TO.C,L8*%
X139462619Y-113833333D02*
X139462619Y-113357143D01*
X139462619Y-113357143D02*
X138462619Y-113357143D01*
X138891190Y-114309524D02*
X138843571Y-114214286D01*
X138843571Y-114214286D02*
X138795952Y-114166667D01*
X138795952Y-114166667D02*
X138700714Y-114119048D01*
X138700714Y-114119048D02*
X138653095Y-114119048D01*
X138653095Y-114119048D02*
X138557857Y-114166667D01*
X138557857Y-114166667D02*
X138510238Y-114214286D01*
X138510238Y-114214286D02*
X138462619Y-114309524D01*
X138462619Y-114309524D02*
X138462619Y-114500000D01*
X138462619Y-114500000D02*
X138510238Y-114595238D01*
X138510238Y-114595238D02*
X138557857Y-114642857D01*
X138557857Y-114642857D02*
X138653095Y-114690476D01*
X138653095Y-114690476D02*
X138700714Y-114690476D01*
X138700714Y-114690476D02*
X138795952Y-114642857D01*
X138795952Y-114642857D02*
X138843571Y-114595238D01*
X138843571Y-114595238D02*
X138891190Y-114500000D01*
X138891190Y-114500000D02*
X138891190Y-114309524D01*
X138891190Y-114309524D02*
X138938809Y-114214286D01*
X138938809Y-114214286D02*
X138986428Y-114166667D01*
X138986428Y-114166667D02*
X139081666Y-114119048D01*
X139081666Y-114119048D02*
X139272142Y-114119048D01*
X139272142Y-114119048D02*
X139367380Y-114166667D01*
X139367380Y-114166667D02*
X139415000Y-114214286D01*
X139415000Y-114214286D02*
X139462619Y-114309524D01*
X139462619Y-114309524D02*
X139462619Y-114500000D01*
X139462619Y-114500000D02*
X139415000Y-114595238D01*
X139415000Y-114595238D02*
X139367380Y-114642857D01*
X139367380Y-114642857D02*
X139272142Y-114690476D01*
X139272142Y-114690476D02*
X139081666Y-114690476D01*
X139081666Y-114690476D02*
X138986428Y-114642857D01*
X138986428Y-114642857D02*
X138938809Y-114595238D01*
X138938809Y-114595238D02*
X138891190Y-114500000D01*
%TO.C,JP2*%
X142033333Y-111162619D02*
X142033333Y-111876904D01*
X142033333Y-111876904D02*
X142080952Y-112019761D01*
X142080952Y-112019761D02*
X142176190Y-112115000D01*
X142176190Y-112115000D02*
X142319047Y-112162619D01*
X142319047Y-112162619D02*
X142414285Y-112162619D01*
X141557142Y-112162619D02*
X141557142Y-111162619D01*
X141557142Y-111162619D02*
X141176190Y-111162619D01*
X141176190Y-111162619D02*
X141080952Y-111210238D01*
X141080952Y-111210238D02*
X141033333Y-111257857D01*
X141033333Y-111257857D02*
X140985714Y-111353095D01*
X140985714Y-111353095D02*
X140985714Y-111495952D01*
X140985714Y-111495952D02*
X141033333Y-111591190D01*
X141033333Y-111591190D02*
X141080952Y-111638809D01*
X141080952Y-111638809D02*
X141176190Y-111686428D01*
X141176190Y-111686428D02*
X141557142Y-111686428D01*
X140604761Y-111257857D02*
X140557142Y-111210238D01*
X140557142Y-111210238D02*
X140461904Y-111162619D01*
X140461904Y-111162619D02*
X140223809Y-111162619D01*
X140223809Y-111162619D02*
X140128571Y-111210238D01*
X140128571Y-111210238D02*
X140080952Y-111257857D01*
X140080952Y-111257857D02*
X140033333Y-111353095D01*
X140033333Y-111353095D02*
X140033333Y-111448333D01*
X140033333Y-111448333D02*
X140080952Y-111591190D01*
X140080952Y-111591190D02*
X140652380Y-112162619D01*
X140652380Y-112162619D02*
X140033333Y-112162619D01*
%TO.C,U12*%
X157238094Y-73062619D02*
X157238094Y-73872142D01*
X157238094Y-73872142D02*
X157190475Y-73967380D01*
X157190475Y-73967380D02*
X157142856Y-74015000D01*
X157142856Y-74015000D02*
X157047618Y-74062619D01*
X157047618Y-74062619D02*
X156857142Y-74062619D01*
X156857142Y-74062619D02*
X156761904Y-74015000D01*
X156761904Y-74015000D02*
X156714285Y-73967380D01*
X156714285Y-73967380D02*
X156666666Y-73872142D01*
X156666666Y-73872142D02*
X156666666Y-73062619D01*
X155666666Y-74062619D02*
X156238094Y-74062619D01*
X155952380Y-74062619D02*
X155952380Y-73062619D01*
X155952380Y-73062619D02*
X156047618Y-73205476D01*
X156047618Y-73205476D02*
X156142856Y-73300714D01*
X156142856Y-73300714D02*
X156238094Y-73348333D01*
X155285713Y-73157857D02*
X155238094Y-73110238D01*
X155238094Y-73110238D02*
X155142856Y-73062619D01*
X155142856Y-73062619D02*
X154904761Y-73062619D01*
X154904761Y-73062619D02*
X154809523Y-73110238D01*
X154809523Y-73110238D02*
X154761904Y-73157857D01*
X154761904Y-73157857D02*
X154714285Y-73253095D01*
X154714285Y-73253095D02*
X154714285Y-73348333D01*
X154714285Y-73348333D02*
X154761904Y-73491190D01*
X154761904Y-73491190D02*
X155333332Y-74062619D01*
X155333332Y-74062619D02*
X154714285Y-74062619D01*
%TO.C,U3*%
X154261904Y-119962619D02*
X154261904Y-120772142D01*
X154261904Y-120772142D02*
X154214285Y-120867380D01*
X154214285Y-120867380D02*
X154166666Y-120915000D01*
X154166666Y-120915000D02*
X154071428Y-120962619D01*
X154071428Y-120962619D02*
X153880952Y-120962619D01*
X153880952Y-120962619D02*
X153785714Y-120915000D01*
X153785714Y-120915000D02*
X153738095Y-120867380D01*
X153738095Y-120867380D02*
X153690476Y-120772142D01*
X153690476Y-120772142D02*
X153690476Y-119962619D01*
X153309523Y-119962619D02*
X152690476Y-119962619D01*
X152690476Y-119962619D02*
X153023809Y-120343571D01*
X153023809Y-120343571D02*
X152880952Y-120343571D01*
X152880952Y-120343571D02*
X152785714Y-120391190D01*
X152785714Y-120391190D02*
X152738095Y-120438809D01*
X152738095Y-120438809D02*
X152690476Y-120534047D01*
X152690476Y-120534047D02*
X152690476Y-120772142D01*
X152690476Y-120772142D02*
X152738095Y-120867380D01*
X152738095Y-120867380D02*
X152785714Y-120915000D01*
X152785714Y-120915000D02*
X152880952Y-120962619D01*
X152880952Y-120962619D02*
X153166666Y-120962619D01*
X153166666Y-120962619D02*
X153261904Y-120915000D01*
X153261904Y-120915000D02*
X153309523Y-120867380D01*
%TO.C,TP1*%
X143761904Y-119562619D02*
X143190476Y-119562619D01*
X143476190Y-120562619D02*
X143476190Y-119562619D01*
X142857142Y-120562619D02*
X142857142Y-119562619D01*
X142857142Y-119562619D02*
X142476190Y-119562619D01*
X142476190Y-119562619D02*
X142380952Y-119610238D01*
X142380952Y-119610238D02*
X142333333Y-119657857D01*
X142333333Y-119657857D02*
X142285714Y-119753095D01*
X142285714Y-119753095D02*
X142285714Y-119895952D01*
X142285714Y-119895952D02*
X142333333Y-119991190D01*
X142333333Y-119991190D02*
X142380952Y-120038809D01*
X142380952Y-120038809D02*
X142476190Y-120086428D01*
X142476190Y-120086428D02*
X142857142Y-120086428D01*
X141333333Y-120562619D02*
X141904761Y-120562619D01*
X141619047Y-120562619D02*
X141619047Y-119562619D01*
X141619047Y-119562619D02*
X141714285Y-119705476D01*
X141714285Y-119705476D02*
X141809523Y-119800714D01*
X141809523Y-119800714D02*
X141904761Y-119848333D01*
D11*
%TO.C,C21*%
X159559420Y-103990000D02*
X159840580Y-103990000D01*
X159559420Y-105010000D02*
X159840580Y-105010000D01*
%TO.C,C20*%
X157860000Y-108492164D02*
X157860000Y-108707836D01*
X157140000Y-108492164D02*
X157140000Y-108707836D01*
%TO.C,R9*%
X147637258Y-73322500D02*
X147162742Y-73322500D01*
X147637258Y-72277500D02*
X147162742Y-72277500D01*
%TO.C,R24*%
X140022500Y-103262742D02*
X140022500Y-103737258D01*
X138977500Y-103262742D02*
X138977500Y-103737258D01*
%TO.C,C16*%
X159559420Y-105590000D02*
X159840580Y-105590000D01*
X159559420Y-106610000D02*
X159840580Y-106610000D01*
%TO.C,C54*%
X159740580Y-68610000D02*
X159459420Y-68610000D01*
X159740580Y-67590000D02*
X159459420Y-67590000D01*
%TO.C,R18*%
X147637258Y-71322500D02*
X147162742Y-71322500D01*
X147637258Y-70277500D02*
X147162742Y-70277500D01*
%TO.C,C48*%
X145359420Y-117690000D02*
X145640580Y-117690000D01*
X145359420Y-118710000D02*
X145640580Y-118710000D01*
%TO.C,U6*%
X156890000Y-116000000D02*
X156890000Y-118200000D01*
X156890000Y-116000000D02*
X156890000Y-113800000D01*
X162110000Y-116000000D02*
X162110000Y-119600000D01*
X162110000Y-116000000D02*
X162110000Y-113800000D01*
%TO.C,R16*%
X159362742Y-70977500D02*
X159837258Y-70977500D01*
X159362742Y-72022500D02*
X159837258Y-72022500D01*
%TO.C,R25*%
X156762742Y-131377500D02*
X157237258Y-131377500D01*
X156762742Y-132422500D02*
X157237258Y-132422500D01*
%TO.C,C34*%
X147540580Y-75410000D02*
X147259420Y-75410000D01*
X147540580Y-74390000D02*
X147259420Y-74390000D01*
%TO.C,C53*%
X155440580Y-79210000D02*
X155159420Y-79210000D01*
X155440580Y-78190000D02*
X155159420Y-78190000D01*
%TO.C,U11*%
X146000000Y-115560000D02*
X146800000Y-115560000D01*
X146000000Y-115560000D02*
X145200000Y-115560000D01*
X146000000Y-112440000D02*
X147800000Y-112440000D01*
X146000000Y-112440000D02*
X145200000Y-112440000D01*
D12*
%TO.C,J3*%
X148217500Y-101000000D02*
X142757500Y-101000000D01*
X152637500Y-101000000D02*
X151607500Y-101000000D01*
X152637500Y-90245000D02*
X152637500Y-101000000D01*
X142757500Y-89050000D02*
X148917500Y-89050000D01*
D13*
X140037500Y-91825000D02*
G75*
G03*
X140037500Y-91825000I-100000J0D01*
G01*
D11*
%TO.C,C18*%
X152090000Y-106240580D02*
X152090000Y-105959420D01*
X153110000Y-106240580D02*
X153110000Y-105959420D01*
%TO.C,R5*%
X138762742Y-84477500D02*
X139237258Y-84477500D01*
X138762742Y-85522500D02*
X139237258Y-85522500D01*
%TO.C,C47*%
X145359420Y-116090000D02*
X145640580Y-116090000D01*
X145359420Y-117110000D02*
X145640580Y-117110000D01*
%TO.C,R11*%
X148562742Y-105677500D02*
X149037258Y-105677500D01*
X148562742Y-106722500D02*
X149037258Y-106722500D01*
D14*
%TO.C,U1*%
X159300000Y-125800000D02*
X140700000Y-125800000D01*
X140700000Y-125800000D02*
X140700000Y-128800000D01*
X140700000Y-128800000D02*
X159300000Y-128800000D01*
X159300000Y-128800000D02*
X159300000Y-125800000D01*
X159300000Y-82600000D02*
X140700000Y-82600000D01*
X140700000Y-82600000D02*
X140700000Y-85600000D01*
X140700000Y-85600000D02*
X159300000Y-85600000D01*
X159300000Y-85600000D02*
X159300000Y-82600000D01*
D11*
%TO.C,C46*%
X149510000Y-113859420D02*
X149510000Y-114140580D01*
X148490000Y-113859420D02*
X148490000Y-114140580D01*
%TO.C,R20*%
X159837258Y-70322500D02*
X159362742Y-70322500D01*
X159837258Y-69277500D02*
X159362742Y-69277500D01*
%TO.C,L8*%
X143300000Y-113800000D02*
X143300000Y-114200000D01*
X140100000Y-113800000D02*
X140100000Y-114200000D01*
%TO.C,C19*%
X156790000Y-106240580D02*
X156790000Y-105959420D01*
X157810000Y-106240580D02*
X157810000Y-105959420D01*
%TO.C,R10*%
X148562742Y-103977500D02*
X149037258Y-103977500D01*
X148562742Y-105022500D02*
X149037258Y-105022500D01*
%TO.C,R22*%
X149522500Y-110562742D02*
X149522500Y-111037258D01*
X148477500Y-110562742D02*
X148477500Y-111037258D01*
%TO.C,R21*%
X145162742Y-78377500D02*
X145637258Y-78377500D01*
X145162742Y-79422500D02*
X145637258Y-79422500D01*
%TO.C,C14*%
X159559420Y-107190000D02*
X159840580Y-107190000D01*
X159559420Y-108210000D02*
X159840580Y-108210000D01*
%TO.C,R27*%
X160362742Y-129777500D02*
X160837258Y-129777500D01*
X160362742Y-130822500D02*
X160837258Y-130822500D01*
%TO.C,JP2*%
X139800000Y-109600000D02*
X139800000Y-110200000D01*
X140500000Y-110900000D02*
X141900000Y-110900000D01*
X141900000Y-108900000D02*
X140500000Y-108900000D01*
X142600000Y-110200000D02*
X142600000Y-109600000D01*
X140500000Y-108900000D02*
G75*
G03*
X139800000Y-109600000I-1J-699999D01*
G01*
X139800000Y-110200000D02*
G75*
G03*
X140500000Y-110900000I699999J-1D01*
G01*
X142600000Y-109600000D02*
G75*
G03*
X141900000Y-108900000I-700000J0D01*
G01*
X141900000Y-110900000D02*
G75*
G03*
X142600000Y-110200000I0J700000D01*
G01*
%TO.C,U12*%
X156000000Y-77560000D02*
X156800000Y-77560000D01*
X156000000Y-77560000D02*
X155200000Y-77560000D01*
X156000000Y-74440000D02*
X157800000Y-74440000D01*
X156000000Y-74440000D02*
X155200000Y-74440000D01*
%TO.C,R26*%
X156762742Y-129777500D02*
X157237258Y-129777500D01*
X156762742Y-130822500D02*
X157237258Y-130822500D01*
%TO.C,R23*%
X160562742Y-97877500D02*
X161037258Y-97877500D01*
X160562742Y-98922500D02*
X161037258Y-98922500D01*
%TO.C,R17*%
X161077500Y-81737258D02*
X161077500Y-81262742D01*
X162122500Y-81737258D02*
X162122500Y-81262742D01*
%TO.C,U3*%
X150890000Y-116000000D02*
X150890000Y-118200000D01*
X150890000Y-116000000D02*
X150890000Y-113800000D01*
X156110000Y-116000000D02*
X156110000Y-119600000D01*
X156110000Y-116000000D02*
X156110000Y-113800000D01*
%TO.C,R8*%
X148562742Y-102277500D02*
X149037258Y-102277500D01*
X148562742Y-103322500D02*
X149037258Y-103322500D01*
%TO.C,R19*%
X147637258Y-69322500D02*
X147162742Y-69322500D01*
X147637258Y-68277500D02*
X147162742Y-68277500D01*
%TO.C,TP1*%
X143200000Y-118500000D02*
G75*
G03*
X143200000Y-118500000I-700000J0D01*
G01*
%TO.C,R7*%
X139237258Y-82122500D02*
X138762742Y-82122500D01*
X139237258Y-81077500D02*
X138762742Y-81077500D01*
%TO.C,C2*%
X159559420Y-108790000D02*
X159840580Y-108790000D01*
X159559420Y-109810000D02*
X159840580Y-109810000D01*
%TO.C,R4*%
X138762742Y-82777500D02*
X139237258Y-82777500D01*
X138762742Y-83822500D02*
X139237258Y-83822500D01*
%TD*%
%LPC*%
D15*
%TO.C,J4*%
X160906750Y-73725000D03*
X160906750Y-74625000D03*
X160906750Y-75525000D03*
X160906750Y-76425000D03*
X160906750Y-77325000D03*
X160906750Y-78225000D03*
X160906750Y-79125000D03*
X160126750Y-78675000D03*
X160126750Y-77775000D03*
X160126750Y-76875000D03*
X160126750Y-75975000D03*
X160126750Y-75075000D03*
X160126750Y-74175000D03*
X160126750Y-73275000D03*
D16*
X161946750Y-78575000D03*
X161946750Y-73775000D03*
X159086750Y-78575000D03*
X159086750Y-73775000D03*
%TD*%
D17*
%TO.C,J5*%
X153850000Y-71000000D03*
X141150000Y-71000000D03*
%TD*%
D18*
%TO.C,C21*%
X158925000Y-104500000D03*
X160475000Y-104500000D03*
%TD*%
D19*
%TO.C,C20*%
X157500000Y-108120000D03*
X157500000Y-109080000D03*
%TD*%
D20*
%TO.C,R9*%
X148225000Y-72800000D03*
X146575000Y-72800000D03*
%TD*%
D21*
%TO.C,R24*%
X139500000Y-102675000D03*
X139500000Y-104325000D03*
%TD*%
D18*
%TO.C,C16*%
X158925000Y-106100000D03*
X160475000Y-106100000D03*
%TD*%
D22*
%TO.C,C54*%
X160375000Y-68100000D03*
X158825000Y-68100000D03*
%TD*%
D20*
%TO.C,R18*%
X148225000Y-70800000D03*
X146575000Y-70800000D03*
%TD*%
D18*
%TO.C,C48*%
X144725000Y-118200000D03*
X146275000Y-118200000D03*
%TD*%
D23*
%TO.C,U6*%
X161450000Y-118862500D03*
X160800000Y-118862500D03*
X160150000Y-118862500D03*
X159500000Y-118862500D03*
X158850000Y-118862500D03*
X158200000Y-118862500D03*
X157550000Y-118862500D03*
X157550000Y-113137500D03*
X158200000Y-113137500D03*
X158850000Y-113137500D03*
X159500000Y-113137500D03*
X160150000Y-113137500D03*
X160800000Y-113137500D03*
X161450000Y-113137500D03*
%TD*%
D24*
%TO.C,R16*%
X158775000Y-71500000D03*
X160425000Y-71500000D03*
%TD*%
%TO.C,R25*%
X156175000Y-131900000D03*
X157825000Y-131900000D03*
%TD*%
D22*
%TO.C,C34*%
X148175000Y-74900000D03*
X146625000Y-74900000D03*
%TD*%
%TO.C,C53*%
X156075000Y-78700000D03*
X154525000Y-78700000D03*
%TD*%
D25*
%TO.C,U11*%
X147137500Y-113050000D03*
X147137500Y-114000000D03*
X147137500Y-114950000D03*
X144862500Y-114950000D03*
X144862500Y-113050000D03*
%TD*%
D26*
%TO.C,J3*%
X141562500Y-91825000D03*
X141562500Y-92925000D03*
X141562500Y-94025000D03*
X141562500Y-95125000D03*
X141562500Y-96225000D03*
X141562500Y-97325000D03*
X141562500Y-98425000D03*
X141562500Y-99525000D03*
D27*
X152362500Y-89450000D03*
D28*
X150787500Y-100650000D03*
D29*
X149287500Y-100975000D03*
D30*
X141687500Y-100725000D03*
D31*
X141687500Y-89375000D03*
D32*
X149937500Y-89050000D03*
%TD*%
D33*
%TO.C,C18*%
X152600000Y-106875000D03*
X152600000Y-105325000D03*
%TD*%
D24*
%TO.C,R5*%
X138175000Y-85000000D03*
X139825000Y-85000000D03*
%TD*%
D18*
%TO.C,C47*%
X144725000Y-116600000D03*
X146275000Y-116600000D03*
%TD*%
D24*
%TO.C,R11*%
X147975000Y-106200000D03*
X149625000Y-106200000D03*
%TD*%
D34*
%TO.C,U1*%
X157800000Y-82580000D03*
X157800000Y-85660000D03*
X157400000Y-82580000D03*
X157400000Y-85660000D03*
X157000000Y-82580000D03*
X157000000Y-85660000D03*
X156600000Y-82580000D03*
X156600000Y-85660000D03*
X156200000Y-82580000D03*
X156200000Y-85660000D03*
X155800000Y-82580000D03*
X155800000Y-85660000D03*
X155400000Y-82580000D03*
X155400000Y-85660000D03*
X155000000Y-82580000D03*
X155000000Y-85660000D03*
X154600000Y-82580000D03*
X154600000Y-85660000D03*
X154200000Y-82580000D03*
X154200000Y-85660000D03*
X153800000Y-82580000D03*
X153800000Y-85660000D03*
X153400000Y-82580000D03*
X153400000Y-85660000D03*
X153000000Y-82580000D03*
X153000000Y-85660000D03*
X152600000Y-82580000D03*
X152600000Y-85660000D03*
X152200000Y-82580000D03*
X152200000Y-85660000D03*
X151800000Y-82580000D03*
X151800000Y-85660000D03*
X151400000Y-82580000D03*
X151400000Y-85660000D03*
X151000000Y-82580000D03*
X151000000Y-85660000D03*
X150600000Y-82580000D03*
X150600000Y-85660000D03*
X150200000Y-82580000D03*
X150200000Y-85660000D03*
X149800000Y-82580000D03*
X149800000Y-85660000D03*
X149400000Y-82580000D03*
X149400000Y-85660000D03*
X149000000Y-82580000D03*
X149000000Y-85660000D03*
X148600000Y-82580000D03*
X148600000Y-85660000D03*
X148200000Y-82580000D03*
X148200000Y-85660000D03*
X147800000Y-82580000D03*
X147800000Y-85660000D03*
X147400000Y-82580000D03*
X147400000Y-85660000D03*
X147000000Y-82580000D03*
X147000000Y-85660000D03*
X146600000Y-82580000D03*
X146600000Y-85660000D03*
X146200000Y-82580000D03*
X146200000Y-85660000D03*
X145800000Y-82580000D03*
X145800000Y-85660000D03*
X145400000Y-82580000D03*
X145400000Y-85660000D03*
X145000000Y-82580000D03*
X145000000Y-85660000D03*
X144600000Y-82580000D03*
X144600000Y-85660000D03*
X144200000Y-82580000D03*
X144200000Y-85660000D03*
X143800000Y-82580000D03*
X143800000Y-85660000D03*
X143400000Y-82580000D03*
X143400000Y-85660000D03*
X143000000Y-82580000D03*
X143000000Y-85660000D03*
X142600000Y-82580000D03*
X142600000Y-85660000D03*
X142200000Y-82580000D03*
X142200000Y-85660000D03*
X142200000Y-128840000D03*
X142200000Y-125760000D03*
X142600000Y-128840000D03*
X142600000Y-125760000D03*
X143000000Y-128840000D03*
X143000000Y-125760000D03*
X143400000Y-128840000D03*
X143400000Y-125760000D03*
X143800000Y-128840000D03*
X143800000Y-125760000D03*
X144200000Y-128840000D03*
X144200000Y-125760000D03*
X144600000Y-128840000D03*
X144600000Y-125760000D03*
X145000000Y-128840000D03*
X145000000Y-125760000D03*
X145400000Y-128840000D03*
X145400000Y-125760000D03*
X145800000Y-128840000D03*
X145800000Y-125760000D03*
X146200000Y-128840000D03*
X146200000Y-125760000D03*
X146600000Y-128840000D03*
X146600000Y-125760000D03*
X147000000Y-128840000D03*
X147000000Y-125760000D03*
X147400000Y-128840000D03*
X147400000Y-125760000D03*
X147800000Y-128840000D03*
X147800000Y-125760000D03*
X148200000Y-128840000D03*
X148200000Y-125760000D03*
X148600000Y-128840000D03*
X148600000Y-125760000D03*
X149000000Y-128840000D03*
X149000000Y-125760000D03*
X149400000Y-128840000D03*
X149400000Y-125760000D03*
X149800000Y-128840000D03*
X149800000Y-125760000D03*
X150200000Y-128840000D03*
X150200000Y-125760000D03*
X150600000Y-128840000D03*
X150600000Y-125760000D03*
X151000000Y-128840000D03*
X151000000Y-125760000D03*
X151400000Y-128840000D03*
X151400000Y-125760000D03*
X151800000Y-128840000D03*
X151800000Y-125760000D03*
X152200000Y-128840000D03*
X152200000Y-125760000D03*
X152600000Y-128840000D03*
X152600000Y-125760000D03*
X153000000Y-128840000D03*
X153000000Y-125760000D03*
X153400000Y-128840000D03*
X153400000Y-125760000D03*
X153800000Y-128840000D03*
X153800000Y-125760000D03*
X154200000Y-128840000D03*
X154200000Y-125760000D03*
X154600000Y-128840000D03*
X154600000Y-125760000D03*
X155000000Y-128840000D03*
X155000000Y-125760000D03*
X155400000Y-128840000D03*
X155400000Y-125760000D03*
X155800000Y-128840000D03*
X155800000Y-125760000D03*
X156200000Y-128840000D03*
X156200000Y-125760000D03*
X156600000Y-128840000D03*
X156600000Y-125760000D03*
X157000000Y-128840000D03*
X157000000Y-125760000D03*
X157400000Y-128840000D03*
X157400000Y-125760000D03*
X157800000Y-128840000D03*
X157800000Y-125760000D03*
%TD*%
D35*
%TO.C,C46*%
X149000000Y-113225000D03*
X149000000Y-114775000D03*
%TD*%
D20*
%TO.C,R20*%
X160425000Y-69800000D03*
X158775000Y-69800000D03*
%TD*%
D36*
%TO.C,L5*%
X160500000Y-102115000D03*
X160500000Y-103085000D03*
%TD*%
D37*
%TO.C,L8*%
X141700000Y-112925000D03*
X141700000Y-115075000D03*
%TD*%
D33*
%TO.C,C19*%
X157300000Y-106875000D03*
X157300000Y-105325000D03*
%TD*%
D24*
%TO.C,R10*%
X147975000Y-104500000D03*
X149625000Y-104500000D03*
%TD*%
D38*
%TO.C,L6*%
X154415000Y-106800000D03*
X155385000Y-106800000D03*
%TD*%
D21*
%TO.C,R22*%
X149000000Y-109975000D03*
X149000000Y-111625000D03*
%TD*%
D24*
%TO.C,R21*%
X144575000Y-78900000D03*
X146225000Y-78900000D03*
%TD*%
D18*
%TO.C,C14*%
X158925000Y-107700000D03*
X160475000Y-107700000D03*
%TD*%
D24*
%TO.C,R27*%
X159775000Y-130300000D03*
X161425000Y-130300000D03*
%TD*%
D39*
%TO.C,JP2*%
X140550000Y-109900000D03*
D40*
X141850000Y-109900000D03*
%TD*%
D25*
%TO.C,U12*%
X157137500Y-75050000D03*
X157137500Y-76000000D03*
X157137500Y-76950000D03*
X154862500Y-76950000D03*
X154862500Y-76000000D03*
X154862500Y-75050000D03*
%TD*%
D24*
%TO.C,R26*%
X156175000Y-130300000D03*
X157825000Y-130300000D03*
%TD*%
%TO.C,R23*%
X159975000Y-98400000D03*
X161625000Y-98400000D03*
%TD*%
D41*
%TO.C,R17*%
X161600000Y-82325000D03*
X161600000Y-80675000D03*
%TD*%
D23*
%TO.C,U3*%
X155450000Y-118862500D03*
X154800000Y-118862500D03*
X154150000Y-118862500D03*
X153500000Y-118862500D03*
X152850000Y-118862500D03*
X152200000Y-118862500D03*
X151550000Y-118862500D03*
X151550000Y-113137500D03*
X152200000Y-113137500D03*
X152850000Y-113137500D03*
X153500000Y-113137500D03*
X154150000Y-113137500D03*
X154800000Y-113137500D03*
X155450000Y-113137500D03*
%TD*%
D24*
%TO.C,R8*%
X147975000Y-102800000D03*
X149625000Y-102800000D03*
%TD*%
D20*
%TO.C,R19*%
X148225000Y-68800000D03*
X146575000Y-68800000D03*
%TD*%
D42*
%TO.C,TP1*%
X142500000Y-118500000D03*
%TD*%
D20*
%TO.C,R7*%
X139825000Y-81600000D03*
X138175000Y-81600000D03*
%TD*%
D18*
%TO.C,C2*%
X158925000Y-109300000D03*
X160475000Y-109300000D03*
%TD*%
D36*
%TO.C,L7*%
X158900000Y-102115000D03*
X158900000Y-103085000D03*
%TD*%
D24*
%TO.C,R4*%
X138175000Y-83300000D03*
X139825000Y-83300000D03*
%TD*%
M02*
