%TF.GenerationSoftware,KiCad,Pcbnew,7.0.1*%
%TF.CreationDate,2023-04-26T14:08:08+02:00*%
%TF.ProjectId,radartof-hardware,72616461-7274-46f6-962d-686172647761,1.4*%
%TF.SameCoordinates,Original*%
%TF.FileFunction,Copper,L3,Inr*%
%TF.FilePolarity,Positive*%
%FSLAX46Y46*%
G04 Gerber Fmt 4.6, Leading zero omitted, Abs format (unit mm)*
G04 Created by KiCad (PCBNEW 7.0.1) date 2023-04-26 14:08:08*
%MOMM*%
%LPD*%
G01*
G04 APERTURE LIST*
%TA.AperFunction,ComponentPad*%
%ADD10C,0.600000*%
%TD*%
%TA.AperFunction,ComponentPad*%
%ADD11O,0.900000X1.900000*%
%TD*%
%TA.AperFunction,ViaPad*%
%ADD12C,0.400000*%
%TD*%
%TA.AperFunction,Conductor*%
%ADD13C,0.100000*%
%TD*%
%TA.AperFunction,Conductor*%
%ADD14C,0.250000*%
%TD*%
G04 APERTURE END LIST*
D10*
%TO.N,GND*%
%TO.C,J4*%
X160906750Y-73725000D03*
%TO.N,unconnected-(J4-VBUS-PadA4)*%
X160906750Y-74625000D03*
%TO.N,Net-(J4-CC1)*%
X160906750Y-75525000D03*
%TO.N,/Connectors/conn_USB-*%
X160906750Y-76425000D03*
%TO.N,/Connectors/conn_USB+*%
X160906750Y-77325000D03*
%TO.N,unconnected-(J4-VBUS-PadA4)*%
X160906750Y-78225000D03*
%TO.N,GND*%
X160906750Y-79125000D03*
X160126750Y-78675000D03*
%TO.N,unconnected-(J4-VBUS-PadA4)*%
X160126750Y-77775000D03*
%TO.N,Net-(J4-CC2)*%
X160126750Y-76875000D03*
%TO.N,/Connectors/conn_USB-*%
X160126750Y-75975000D03*
%TO.N,/Connectors/conn_USB+*%
X160126750Y-75075000D03*
%TO.N,unconnected-(J4-VBUS-PadA4)*%
X160126750Y-74175000D03*
%TO.N,GND*%
X160126750Y-73275000D03*
D11*
%TO.N,/Connectors/USB_Shield*%
X161946750Y-78575000D03*
X161946750Y-73775000D03*
X159086750Y-78575000D03*
X159086750Y-73775000D03*
%TD*%
D12*
%TO.N,/Camera/CAM_nRST*%
X150200000Y-102800000D03*
X150200000Y-83300000D03*
X140500000Y-120750000D03*
X150200000Y-74900000D03*
%TO.N,+3.3V*%
X150600000Y-128100000D03*
X139850000Y-84150000D03*
X158800000Y-86000000D03*
X143000000Y-95100000D03*
X148600000Y-126500000D03*
X142800000Y-109900000D03*
X138800000Y-102700000D03*
X154100000Y-88100000D03*
X160000000Y-96800000D03*
X148737000Y-96700000D03*
X140600000Y-95100000D03*
X142200000Y-103400000D03*
X147500000Y-88400000D03*
X161500000Y-131850000D03*
X146600000Y-128100000D03*
X144800000Y-103400000D03*
X155800000Y-128100000D03*
X152400000Y-93800000D03*
X143800000Y-84900000D03*
X143400000Y-105000000D03*
%TO.N,Vradar*%
X162000000Y-113000000D03*
X155000000Y-117000000D03*
X162000000Y-109500000D03*
X161000000Y-117000000D03*
X162300000Y-98400000D03*
%TO.N,GND*%
X153900000Y-130400000D03*
X152100000Y-117000000D03*
X141500000Y-106700000D03*
X148600000Y-128100000D03*
X153300000Y-105800000D03*
X138500000Y-72500000D03*
X158800000Y-87200000D03*
X161500000Y-97300000D03*
X153500000Y-104150000D03*
X140200000Y-107950000D03*
X151700000Y-107750000D03*
X158800000Y-91000000D03*
X153800000Y-76900000D03*
X143550000Y-96650000D03*
X144500000Y-107300000D03*
X142700000Y-88362500D03*
X151100000Y-88100000D03*
X155100000Y-112100000D03*
X147800000Y-114000000D03*
X151600000Y-132100000D03*
X156500000Y-111300000D03*
X143000000Y-100400000D03*
X138000000Y-118300000D03*
X146800000Y-118600000D03*
X156500000Y-72500000D03*
X139000000Y-108400000D03*
X151800000Y-83300000D03*
X160450000Y-108500000D03*
X151700000Y-108750000D03*
X144400000Y-109200000D03*
X151500000Y-100500000D03*
X150600000Y-126500000D03*
X143000000Y-103900000D03*
X158200000Y-68100000D03*
X151300000Y-112074500D03*
X144000000Y-114500000D03*
X138000000Y-127900000D03*
X158800000Y-98700000D03*
X149400000Y-115200000D03*
X157250000Y-105800000D03*
X153300000Y-108200000D03*
X137900000Y-113100000D03*
X159730000Y-108950000D03*
X156400000Y-100600000D03*
X151550000Y-117900000D03*
X157550000Y-117900000D03*
X156500000Y-69500000D03*
X147200000Y-101000000D03*
X147302886Y-116102886D03*
X147400000Y-84900000D03*
X146000000Y-74900000D03*
X147300000Y-117700000D03*
X141500000Y-107300000D03*
X138500000Y-69500000D03*
X138000000Y-115400000D03*
X157500000Y-104150000D03*
X138000000Y-125200000D03*
X146800000Y-116900000D03*
X144500000Y-106700000D03*
X155800000Y-126500000D03*
X158100000Y-117000000D03*
X143000000Y-97300000D03*
X157685188Y-114714812D03*
X161600000Y-82900000D03*
X140600000Y-103400000D03*
X158800000Y-88500000D03*
X138000000Y-120800000D03*
X147700000Y-111500000D03*
X140600000Y-125250000D03*
X149900000Y-115600000D03*
X156250000Y-105750000D03*
X153800000Y-86300000D03*
X145800000Y-106050000D03*
X158200000Y-69800000D03*
X155200000Y-131400000D03*
X156000000Y-116800000D03*
X162100000Y-107950000D03*
X154550000Y-110400000D03*
X153400000Y-128100000D03*
X153300000Y-99600000D03*
X146000000Y-97500000D03*
X154600000Y-100600000D03*
X159750000Y-104300000D03*
X146600000Y-126500000D03*
X147300000Y-110100000D03*
X161675000Y-102400000D03*
X146000000Y-72800000D03*
X162100000Y-106750000D03*
X154000000Y-78700000D03*
X156250000Y-108200000D03*
X149749500Y-88100000D03*
X154250000Y-105800000D03*
X151700000Y-106250000D03*
X152100000Y-115000000D03*
X162000000Y-104000000D03*
X159730000Y-105550000D03*
X158102720Y-76002720D03*
X160300000Y-110750000D03*
X149800000Y-84900000D03*
X153300000Y-97800000D03*
X157500000Y-109700000D03*
X153800000Y-75100000D03*
X161200000Y-109300000D03*
X139700000Y-110500000D03*
X158200000Y-71500000D03*
X158100000Y-115200000D03*
X151700000Y-105250000D03*
X139849500Y-80700000D03*
X147000000Y-108400000D03*
X148600000Y-83300000D03*
X140200000Y-106050000D03*
X155250000Y-105800000D03*
%TO.N,/Connectors/USB_Shield*%
X160425000Y-69000000D03*
%TO.N,+1V8*%
X156500000Y-114300000D03*
X161000000Y-115200000D03*
X159700000Y-102100000D03*
X152250000Y-111300000D03*
X153400000Y-106800000D03*
X158100000Y-102087500D03*
X156300000Y-99600000D03*
X155000000Y-115000000D03*
X155450000Y-98700000D03*
%TO.N,/Radar/VDD_LF*%
X158310000Y-109090000D03*
%TO.N,/Radar/VDD_RF*%
X155250000Y-104700000D03*
X158300000Y-106200000D03*
X155750000Y-104700000D03*
%TO.N,Net-(J5-Pad11)*%
X145400000Y-68800000D03*
X153100000Y-90900000D03*
%TO.N,/Portenta/SDC_D2*%
X143900000Y-78900000D03*
X145400000Y-81600000D03*
%TO.N,/Portenta/SDC_D3*%
X145000000Y-83300000D03*
X143400000Y-93500000D03*
%TO.N,/Radar/VDD_PLL*%
X158300000Y-107800000D03*
%TO.N,/Radar/VDD_VCO*%
X158300000Y-105200000D03*
%TO.N,/Portenta/SWDIO*%
X159800000Y-86000000D03*
%TO.N,/Portenta/SWCLK*%
X159800000Y-87200000D03*
%TO.N,/Portenta/SWO*%
X159800000Y-88500000D03*
%TO.N,/Portenta/nRST*%
X159800000Y-91000000D03*
%TO.N,/Portenta/UART4_TX*%
X158800000Y-92300000D03*
%TO.N,/Portenta/UART4_RX*%
X159800000Y-92300000D03*
%TO.N,/Portenta/SDC_CMD*%
X145600000Y-95400000D03*
X146600000Y-83300000D03*
%TO.N,/Connectors/USB_FS+*%
X153100000Y-83900000D03*
X153800000Y-76300000D03*
%TO.N,/Connectors/USB_FS-*%
X152500000Y-83900000D03*
X153800000Y-75700000D03*
%TO.N,/Camera/CAM_D7*%
X142200000Y-123750000D03*
%TO.N,/Camera/CAM_D6*%
X142600000Y-124750000D03*
%TO.N,/Camera/CAM_D5*%
X143000000Y-125100000D03*
%TO.N,/Camera/CAM_D4*%
X143400000Y-126500000D03*
%TO.N,/Camera/CAM_D3*%
X143800000Y-127200000D03*
%TO.N,/Camera/CAM_D2*%
X144600000Y-127500000D03*
%TO.N,/Camera/CAM_D1*%
X145000000Y-127200000D03*
%TO.N,/Camera/CAM_D0*%
X145000000Y-126500000D03*
%TO.N,/Camera/CAM_VS*%
X144000000Y-121250000D03*
%TO.N,/Camera/CAM_CK*%
X145800000Y-126500000D03*
%TO.N,/Camera/CAM_HS*%
X145000000Y-121250000D03*
%TO.N,/Connectors/ETH_A+*%
X157800000Y-81500000D03*
%TO.N,/Connectors/ETH_A-*%
X157400000Y-81900000D03*
%TO.N,VTOF*%
X146400000Y-103400000D03*
X143400000Y-109900000D03*
X139000000Y-106600000D03*
X147000000Y-106600000D03*
X140600000Y-104900000D03*
%TO.N,VCAM*%
X138662500Y-111300000D03*
X148300000Y-123250000D03*
%TO.N,/Connectors/ETH_B+*%
X156999500Y-83300000D03*
%TO.N,/Connectors/ETH_B-*%
X156600000Y-83750000D03*
%TO.N,/Connectors/ETH_LED1*%
X149400000Y-68800000D03*
X154600000Y-81500000D03*
%TO.N,/Connectors/ETH_LED2*%
X154200000Y-81900000D03*
X149400000Y-70800000D03*
%TO.N,/Portenta/TOF_RST*%
X145250000Y-108400000D03*
X141000000Y-81600000D03*
X140300000Y-97300000D03*
X141000000Y-87100000D03*
%TO.N,/Portenta/TOF_LPn*%
X140000000Y-86300000D03*
X139500000Y-101800000D03*
X142250000Y-108400000D03*
%TO.N,/Portenta/TOF_INT*%
X140500000Y-84000000D03*
X140500000Y-86700000D03*
X143750000Y-108400000D03*
X141000000Y-105400000D03*
%TO.N,/Portenta/I2C3_SDA*%
X142000000Y-101800000D03*
X142000000Y-87900000D03*
X143750000Y-105600000D03*
%TO.N,/Portenta/I2C3_SCL*%
X141500000Y-101800000D03*
X141500000Y-87500000D03*
X143000000Y-105600000D03*
%TO.N,/Camera/CAM_PWDN*%
X140500000Y-121750000D03*
X150600000Y-72800000D03*
X150600000Y-83700000D03*
%TO.N,/Camera/STROBE*%
X141000000Y-118500000D03*
%TO.N,/Camera/I2C1_SDA*%
X149400000Y-83300000D03*
X141500000Y-119250000D03*
X149600000Y-105200000D03*
%TO.N,/Camera/I2C1_SCL*%
X149000000Y-83700000D03*
X149200000Y-106200000D03*
X140500000Y-120250000D03*
%TO.N,/Portenta/RADAR_INT*%
X152850000Y-120400000D03*
%TO.N,/Portenta/SPI2_NSS*%
X160150000Y-117900000D03*
X149000000Y-125100000D03*
%TO.N,/Portenta/SPI2_SCK*%
X153500000Y-120359099D03*
%TO.N,/Portenta/SPI2_MISO*%
X149800000Y-125100000D03*
X158853003Y-119903003D03*
%TO.N,/Portenta/SPI2_MOSI*%
X154150000Y-120300000D03*
%TO.N,/Radar/SCK_1V8*%
X153250000Y-110000000D03*
%TO.N,/Radar/INT_1V8*%
X153250497Y-109250000D03*
%TO.N,/Radar/MOSI_1V8*%
X153750000Y-109250000D03*
%TO.N,/Radar/MISO_1V8*%
X154250000Y-108250000D03*
%TO.N,/Radar/RST_1V8*%
X154750497Y-108250000D03*
%TO.N,/Radar/NSS_1V8*%
X155250000Y-108250000D03*
%TO.N,/Portenta/SDC_CLK*%
X147000000Y-83700000D03*
X146000000Y-96000000D03*
%TO.N,/Portenta/SDC_D0*%
X146200000Y-83700000D03*
X145200000Y-98800000D03*
%TO.N,/Portenta/CATR*%
X158500000Y-131850000D03*
%TO.N,+5V*%
X148000000Y-81600000D03*
X148500000Y-108500000D03*
%TO.N,/Portenta/SDC_D1*%
X144800000Y-99200000D03*
X145800000Y-83300000D03*
%TO.N,Net-(J4-CC1)*%
X158600000Y-72500000D03*
%TO.N,Net-(J4-CC2)*%
X160800000Y-80400000D03*
%TO.N,Net-(J5-Pad1)*%
X145400000Y-70800000D03*
%TO.N,/Portenta/RADAR_nRST*%
X159500000Y-119900000D03*
%TO.N,/Portenta/CATG*%
X158500000Y-130950000D03*
%TO.N,/Portenta/CATB*%
X161500000Y-130950000D03*
%TO.N,Net-(J3-DAT2)*%
X146902277Y-78902277D03*
X144400000Y-94300000D03*
%TD*%
D13*
%TO.N,/Camera/CAM_nRST*%
X140500000Y-120750000D02*
X150200000Y-111050000D01*
X150200000Y-102800000D02*
X150200000Y-83300000D01*
X150200000Y-111050000D02*
X150200000Y-102800000D01*
X150200000Y-83300000D02*
X150200000Y-74900000D01*
D14*
%TO.N,Vradar*%
X162000000Y-108800000D02*
X162000000Y-113000000D01*
X156000000Y-116000000D02*
X159448959Y-116000000D01*
X162300000Y-98400000D02*
X162300000Y-102600000D01*
X161575000Y-103325000D02*
X161575000Y-108375000D01*
X160448959Y-117000000D02*
X161000000Y-117000000D01*
X159448959Y-116000000D02*
X160448959Y-117000000D01*
X162300000Y-102600000D02*
X161575000Y-103325000D01*
X161575000Y-108375000D02*
X162000000Y-108800000D01*
X162000000Y-116000000D02*
X161000000Y-117000000D01*
X155000000Y-117000000D02*
X156000000Y-116000000D01*
X162000000Y-113000000D02*
X162000000Y-116000000D01*
D13*
%TO.N,Net-(J5-Pad11)*%
X153100000Y-90900000D02*
X153100000Y-89100000D01*
X153100000Y-89100000D02*
X151000000Y-87000000D01*
X151000000Y-87000000D02*
X151000000Y-71900000D01*
X150400000Y-71300000D02*
X147900000Y-71300000D01*
X147900000Y-71300000D02*
X145400000Y-68800000D01*
X151000000Y-71900000D02*
X150400000Y-71300000D01*
%TO.N,/Portenta/SDC_D2*%
X145400000Y-81600000D02*
X145400000Y-80400000D01*
X145400000Y-80400000D02*
X143900000Y-78900000D01*
%TO.N,/Portenta/SDC_D3*%
X143500000Y-93500000D02*
X145000000Y-92000000D01*
X145000000Y-92000000D02*
X145000000Y-83300000D01*
X143400000Y-93500000D02*
X143500000Y-93500000D01*
%TO.N,/Portenta/SDC_CMD*%
X145600000Y-93900000D02*
X146600000Y-92900000D01*
X146600000Y-92900000D02*
X146600000Y-83300000D01*
X145600000Y-95400000D02*
X145600000Y-93900000D01*
%TO.N,/Connectors/ETH_LED1*%
X154600000Y-81500000D02*
X151900000Y-78800000D01*
X151900000Y-71300000D02*
X149400000Y-68800000D01*
X151900000Y-78800000D02*
X151900000Y-71300000D01*
%TO.N,/Connectors/ETH_LED2*%
X151400000Y-71600000D02*
X150600000Y-70800000D01*
X151400000Y-79100000D02*
X151400000Y-71600000D01*
X150600000Y-70800000D02*
X149400000Y-70800000D01*
X154200000Y-81900000D02*
X151400000Y-79100000D01*
%TO.N,/Portenta/TOF_RST*%
X144600000Y-108400000D02*
X145250000Y-108400000D01*
X141400000Y-102755025D02*
X141400000Y-105200000D01*
X141000000Y-87100000D02*
X141000000Y-81600000D01*
X141000000Y-97300000D02*
X141000000Y-102355025D01*
X141000000Y-87100000D02*
X141000000Y-97300000D01*
X141400000Y-105200000D02*
X144600000Y-108400000D01*
X141000000Y-102355025D02*
X141400000Y-102755025D01*
X140300000Y-97300000D02*
X141000000Y-97300000D01*
%TO.N,/Portenta/TOF_LPn*%
X140000000Y-86300000D02*
X139600000Y-86700000D01*
X139600000Y-86700000D02*
X139600000Y-106100000D01*
X141900000Y-108400000D02*
X142250000Y-108400000D01*
X139600000Y-106100000D02*
X141900000Y-108400000D01*
%TO.N,/Portenta/TOF_INT*%
X141000000Y-105400000D02*
X140800000Y-105600000D01*
X139900000Y-104900000D02*
X140600000Y-105600000D01*
X140800000Y-105600000D02*
X141000000Y-105600000D01*
X143750000Y-108350000D02*
X143750000Y-108400000D01*
X139900000Y-87300000D02*
X139900000Y-104900000D01*
X141000000Y-105600000D02*
X143750000Y-108350000D01*
X140500000Y-86700000D02*
X139900000Y-87300000D01*
X140500000Y-86700000D02*
X140500000Y-84000000D01*
X140600000Y-105600000D02*
X140800000Y-105600000D01*
%TO.N,/Portenta/I2C3_SDA*%
X142000000Y-102100000D02*
X143750000Y-103850000D01*
X142000000Y-87900000D02*
X142000000Y-101800000D01*
X143750000Y-103850000D02*
X143750000Y-105600000D01*
X142000000Y-101800000D02*
X142000000Y-102100000D01*
%TO.N,/Portenta/I2C3_SCL*%
X141500000Y-87500000D02*
X141500000Y-101800000D01*
X141500000Y-101800000D02*
X141500000Y-102200000D01*
X141800000Y-104400000D02*
X143000000Y-105600000D01*
X141800000Y-102500000D02*
X141800000Y-104400000D01*
X141500000Y-102200000D02*
X141800000Y-102500000D01*
%TO.N,/Camera/CAM_PWDN*%
X150600000Y-83700000D02*
X150600000Y-72800000D01*
X146450000Y-121750000D02*
X140500000Y-121750000D01*
X150600000Y-117600000D02*
X146450000Y-121750000D01*
X150600000Y-83700000D02*
X150600000Y-117600000D01*
%TO.N,/Camera/I2C1_SDA*%
X149400000Y-83300000D02*
X149400000Y-94900000D01*
X149600000Y-95100000D02*
X149600000Y-105200000D01*
X149600000Y-111150000D02*
X149600000Y-105200000D01*
X149400000Y-94900000D02*
X149600000Y-95100000D01*
X141500000Y-119250000D02*
X149600000Y-111150000D01*
%TO.N,/Camera/I2C1_SCL*%
X149000000Y-83700000D02*
X149000000Y-95100000D01*
X149000000Y-95100000D02*
X149200000Y-95300000D01*
X149200000Y-111000000D02*
X140500000Y-119700000D01*
X149200000Y-106200000D02*
X149200000Y-111000000D01*
X140500000Y-119700000D02*
X140500000Y-120250000D01*
X149200000Y-95300000D02*
X149200000Y-106200000D01*
%TO.N,/Portenta/SPI2_NSS*%
X149350000Y-124750000D02*
X153300000Y-124750000D01*
X153300000Y-124750000D02*
X160150000Y-117900000D01*
X149000000Y-125100000D02*
X149350000Y-124750000D01*
%TO.N,/Portenta/SPI2_MISO*%
X153656006Y-125100000D02*
X158853003Y-119903003D01*
X149800000Y-125100000D02*
X153656006Y-125100000D01*
%TO.N,/Portenta/SDC_CLK*%
X147000000Y-93100000D02*
X147000000Y-83700000D01*
X146000000Y-96000000D02*
X146000000Y-94100000D01*
X146000000Y-94100000D02*
X147000000Y-93100000D01*
%TO.N,/Portenta/SDC_D0*%
X146200000Y-92700000D02*
X146200000Y-83700000D01*
X145200000Y-98800000D02*
X145200000Y-93700000D01*
X145200000Y-93700000D02*
X146200000Y-92700000D01*
D14*
%TO.N,+5V*%
X148176041Y-87676041D02*
X148176041Y-99476041D01*
X148500000Y-99800000D02*
X148500000Y-108500000D01*
X148000000Y-81600000D02*
X148000000Y-87500000D01*
X148176041Y-99476041D02*
X148500000Y-99800000D01*
X148000000Y-87500000D02*
X148176041Y-87676041D01*
D13*
%TO.N,/Portenta/SDC_D1*%
X144800000Y-99200000D02*
X144800000Y-93400000D01*
X145800000Y-92400000D02*
X145800000Y-83300000D01*
X144800000Y-93400000D02*
X145800000Y-92400000D01*
%TO.N,Net-(J3-DAT2)*%
X144400000Y-94300000D02*
X144400000Y-93200000D01*
X145400000Y-82400000D02*
X146200000Y-81600000D01*
X146200000Y-81600000D02*
X146902277Y-80897723D01*
X144400000Y-93200000D02*
X145400000Y-92200000D01*
X145400000Y-92200000D02*
X145400000Y-83700000D01*
X145400000Y-83700000D02*
X145400000Y-82400000D01*
X146902277Y-80897723D02*
X146902277Y-78902277D01*
%TD*%
%TA.AperFunction,Conductor*%
%TO.N,+1V8*%
G36*
X161250500Y-98013263D02*
G01*
X161286737Y-98049500D01*
X161300000Y-98099000D01*
X161300000Y-108900500D01*
X161286737Y-108950000D01*
X161250500Y-108986237D01*
X161201000Y-108999500D01*
X161147014Y-108999500D01*
X161051163Y-109034386D01*
X161047432Y-109035744D01*
X160966252Y-109103862D01*
X160913265Y-109195638D01*
X160894864Y-109300000D01*
X160913265Y-109404361D01*
X160913265Y-109404362D01*
X160913266Y-109404363D01*
X160966252Y-109496138D01*
X161047432Y-109564256D01*
X161147014Y-109600500D01*
X161147015Y-109600500D01*
X161201000Y-109600500D01*
X161250500Y-109613763D01*
X161286737Y-109650000D01*
X161300000Y-109699500D01*
X161300000Y-115901000D01*
X161286737Y-115950500D01*
X161250500Y-115986737D01*
X161201000Y-116000000D01*
X159808872Y-116000000D01*
X159770986Y-115992464D01*
X159738868Y-115971004D01*
X159614414Y-115846550D01*
X159610865Y-115842810D01*
X159584466Y-115813491D01*
X159584465Y-115813490D01*
X159564007Y-115804382D01*
X159550355Y-115796969D01*
X159543409Y-115792458D01*
X159531577Y-115784774D01*
X159531576Y-115784773D01*
X159531575Y-115784773D01*
X159526419Y-115783956D01*
X159501652Y-115776619D01*
X159496892Y-115774500D01*
X159496891Y-115774500D01*
X159474499Y-115774500D01*
X159459012Y-115773281D01*
X159436894Y-115769777D01*
X159431859Y-115771127D01*
X159406237Y-115774500D01*
X156008502Y-115774500D01*
X156003320Y-115774364D01*
X155963935Y-115772299D01*
X155943024Y-115780326D01*
X155928134Y-115784737D01*
X155906229Y-115789393D01*
X155902011Y-115792458D01*
X155879315Y-115804781D01*
X155874442Y-115806651D01*
X155858605Y-115822489D01*
X155846796Y-115832575D01*
X155828676Y-115845739D01*
X155826071Y-115850253D01*
X155810341Y-115870751D01*
X155710090Y-115971003D01*
X155677972Y-115992464D01*
X155640086Y-116000000D01*
X151099000Y-116000000D01*
X151049500Y-115986737D01*
X151013263Y-115950500D01*
X151000000Y-115901000D01*
X151000000Y-114999999D01*
X151794864Y-114999999D01*
X151813265Y-115104361D01*
X151813265Y-115104362D01*
X151813266Y-115104363D01*
X151866252Y-115196138D01*
X151947432Y-115264256D01*
X152047014Y-115300500D01*
X152152985Y-115300500D01*
X152152986Y-115300500D01*
X152252568Y-115264256D01*
X152333748Y-115196138D01*
X152386734Y-115104363D01*
X152405136Y-115000000D01*
X152386734Y-114895637D01*
X152333748Y-114803862D01*
X152252568Y-114735744D01*
X152195056Y-114714812D01*
X157380052Y-114714812D01*
X157398453Y-114819173D01*
X157398453Y-114819174D01*
X157398454Y-114819175D01*
X157451440Y-114910950D01*
X157532620Y-114979068D01*
X157632202Y-115015312D01*
X157632203Y-115015312D01*
X157709446Y-115015312D01*
X157763847Y-115031599D01*
X157800349Y-115075100D01*
X157806942Y-115131503D01*
X157794864Y-115200000D01*
X157813265Y-115304361D01*
X157813265Y-115304362D01*
X157813266Y-115304363D01*
X157866252Y-115396138D01*
X157947432Y-115464256D01*
X158047014Y-115500500D01*
X158152985Y-115500500D01*
X158152986Y-115500500D01*
X158252568Y-115464256D01*
X158333748Y-115396138D01*
X158386734Y-115304363D01*
X158405136Y-115200000D01*
X158386734Y-115095637D01*
X158333748Y-115003862D01*
X158252568Y-114935744D01*
X158152986Y-114899500D01*
X158075742Y-114899500D01*
X158021341Y-114883213D01*
X157984839Y-114839712D01*
X157978246Y-114783309D01*
X157990324Y-114714812D01*
X157971922Y-114610449D01*
X157918936Y-114518674D01*
X157837756Y-114450556D01*
X157738174Y-114414312D01*
X157632202Y-114414312D01*
X157532619Y-114450556D01*
X157532620Y-114450556D01*
X157451440Y-114518674D01*
X157398453Y-114610450D01*
X157380052Y-114714812D01*
X152195056Y-114714812D01*
X152152986Y-114699500D01*
X152047014Y-114699500D01*
X152004944Y-114714812D01*
X151947432Y-114735744D01*
X151866252Y-114803862D01*
X151813265Y-114895638D01*
X151794864Y-114999999D01*
X151000000Y-114999999D01*
X151000000Y-112426481D01*
X151011186Y-112380768D01*
X151042216Y-112345385D01*
X151086078Y-112328328D01*
X151132860Y-112333451D01*
X151147429Y-112338753D01*
X151147432Y-112338756D01*
X151247014Y-112375000D01*
X151352985Y-112375000D01*
X151352986Y-112375000D01*
X151452568Y-112338756D01*
X151533748Y-112270638D01*
X151586734Y-112178863D01*
X151600640Y-112100000D01*
X154794864Y-112100000D01*
X154813265Y-112204361D01*
X154813265Y-112204362D01*
X154813266Y-112204363D01*
X154866252Y-112296138D01*
X154947432Y-112364256D01*
X155047014Y-112400500D01*
X155152985Y-112400500D01*
X155152986Y-112400500D01*
X155252568Y-112364256D01*
X155333748Y-112296138D01*
X155386734Y-112204363D01*
X155405136Y-112100000D01*
X155386734Y-111995637D01*
X155333748Y-111903862D01*
X155252568Y-111835744D01*
X155152986Y-111799500D01*
X155047014Y-111799500D01*
X155002919Y-111815549D01*
X154947432Y-111835744D01*
X154866252Y-111903862D01*
X154813265Y-111995638D01*
X154794864Y-112100000D01*
X151600640Y-112100000D01*
X151605136Y-112074500D01*
X151586734Y-111970137D01*
X151533748Y-111878362D01*
X151452568Y-111810244D01*
X151352986Y-111774000D01*
X151247014Y-111774000D01*
X151147432Y-111810244D01*
X151147429Y-111810246D01*
X151132860Y-111815549D01*
X151086078Y-111820672D01*
X151042216Y-111803615D01*
X151011186Y-111768232D01*
X151000000Y-111722519D01*
X151000000Y-111299999D01*
X156194864Y-111299999D01*
X156213265Y-111404361D01*
X156213265Y-111404362D01*
X156213266Y-111404363D01*
X156266252Y-111496138D01*
X156347432Y-111564256D01*
X156447014Y-111600500D01*
X156552985Y-111600500D01*
X156552986Y-111600500D01*
X156652568Y-111564256D01*
X156733748Y-111496138D01*
X156786734Y-111404363D01*
X156805136Y-111300000D01*
X156786734Y-111195637D01*
X156733748Y-111103862D01*
X156652568Y-111035744D01*
X156552986Y-110999500D01*
X156447014Y-110999500D01*
X156347431Y-111035744D01*
X156347432Y-111035744D01*
X156266252Y-111103862D01*
X156213265Y-111195638D01*
X156194864Y-111299999D01*
X151000000Y-111299999D01*
X151000000Y-110749999D01*
X159994864Y-110749999D01*
X160013265Y-110854361D01*
X160013265Y-110854362D01*
X160013266Y-110854363D01*
X160066252Y-110946138D01*
X160147432Y-111014256D01*
X160247014Y-111050500D01*
X160352985Y-111050500D01*
X160352986Y-111050500D01*
X160452568Y-111014256D01*
X160533748Y-110946138D01*
X160586734Y-110854363D01*
X160605136Y-110750000D01*
X160586734Y-110645637D01*
X160533748Y-110553862D01*
X160452568Y-110485744D01*
X160352986Y-110449500D01*
X160247014Y-110449500D01*
X160147431Y-110485744D01*
X160147432Y-110485744D01*
X160066252Y-110553862D01*
X160013265Y-110645638D01*
X159994864Y-110749999D01*
X151000000Y-110749999D01*
X151000000Y-110400000D01*
X154244864Y-110400000D01*
X154263265Y-110504361D01*
X154263265Y-110504362D01*
X154263266Y-110504363D01*
X154316252Y-110596138D01*
X154397432Y-110664256D01*
X154497014Y-110700500D01*
X154602985Y-110700500D01*
X154602986Y-110700500D01*
X154702568Y-110664256D01*
X154783748Y-110596138D01*
X154836734Y-110504363D01*
X154855136Y-110400000D01*
X154836734Y-110295637D01*
X154783748Y-110203862D01*
X154702568Y-110135744D01*
X154602986Y-110099500D01*
X154497014Y-110099500D01*
X154397432Y-110135743D01*
X154397432Y-110135744D01*
X154316252Y-110203862D01*
X154263265Y-110295638D01*
X154244864Y-110400000D01*
X151000000Y-110400000D01*
X151000000Y-110000000D01*
X152944864Y-110000000D01*
X152963265Y-110104361D01*
X152963265Y-110104362D01*
X152963266Y-110104363D01*
X153016252Y-110196138D01*
X153097432Y-110264256D01*
X153197014Y-110300500D01*
X153302985Y-110300500D01*
X153302986Y-110300500D01*
X153402568Y-110264256D01*
X153483748Y-110196138D01*
X153536734Y-110104363D01*
X153555136Y-110000000D01*
X153536734Y-109895637D01*
X153483748Y-109803862D01*
X153402568Y-109735744D01*
X153354142Y-109718119D01*
X153330530Y-109700000D01*
X157194864Y-109700000D01*
X157213265Y-109804361D01*
X157213265Y-109804362D01*
X157213266Y-109804363D01*
X157266252Y-109896138D01*
X157347432Y-109964256D01*
X157447014Y-110000500D01*
X157552985Y-110000500D01*
X157552986Y-110000500D01*
X157652568Y-109964256D01*
X157733748Y-109896138D01*
X157786734Y-109804363D01*
X157805136Y-109700000D01*
X157786734Y-109595637D01*
X157733748Y-109503862D01*
X157652568Y-109435744D01*
X157552986Y-109399500D01*
X157447014Y-109399500D01*
X157395036Y-109418418D01*
X157347432Y-109435744D01*
X157266252Y-109503862D01*
X157213265Y-109595638D01*
X157194864Y-109700000D01*
X153330530Y-109700000D01*
X153306908Y-109681874D01*
X153289004Y-109625089D01*
X153306908Y-109568305D01*
X153354142Y-109532061D01*
X153403065Y-109514256D01*
X153436614Y-109486104D01*
X153477417Y-109465613D01*
X153523078Y-109465612D01*
X153563881Y-109486103D01*
X153597432Y-109514256D01*
X153697014Y-109550500D01*
X153802985Y-109550500D01*
X153802986Y-109550500D01*
X153902568Y-109514256D01*
X153983748Y-109446138D01*
X154036734Y-109354363D01*
X154055136Y-109250000D01*
X154036734Y-109145637D01*
X154004612Y-109089999D01*
X158004864Y-109089999D01*
X158023265Y-109194361D01*
X158023265Y-109194362D01*
X158023266Y-109194363D01*
X158076252Y-109286138D01*
X158157432Y-109354256D01*
X158257014Y-109390500D01*
X158362985Y-109390500D01*
X158362986Y-109390500D01*
X158462568Y-109354256D01*
X158543748Y-109286138D01*
X158596734Y-109194363D01*
X158615136Y-109090000D01*
X158596734Y-108985637D01*
X158576159Y-108949999D01*
X159424864Y-108949999D01*
X159443265Y-109054361D01*
X159443265Y-109054362D01*
X159443266Y-109054363D01*
X159496252Y-109146138D01*
X159577432Y-109214256D01*
X159677014Y-109250500D01*
X159782985Y-109250500D01*
X159782986Y-109250500D01*
X159882568Y-109214256D01*
X159963748Y-109146138D01*
X160016734Y-109054363D01*
X160035136Y-108950000D01*
X160016734Y-108845637D01*
X159963748Y-108753862D01*
X159882568Y-108685744D01*
X159782986Y-108649500D01*
X159677014Y-108649500D01*
X159577431Y-108685744D01*
X159577432Y-108685744D01*
X159496252Y-108753862D01*
X159443265Y-108845638D01*
X159424864Y-108949999D01*
X158576159Y-108949999D01*
X158543748Y-108893862D01*
X158462568Y-108825744D01*
X158362986Y-108789500D01*
X158257014Y-108789500D01*
X158157432Y-108825743D01*
X158157432Y-108825744D01*
X158076252Y-108893862D01*
X158023265Y-108985638D01*
X158004864Y-109089999D01*
X154004612Y-109089999D01*
X153983748Y-109053862D01*
X153902568Y-108985744D01*
X153802986Y-108949500D01*
X153697014Y-108949500D01*
X153597726Y-108985637D01*
X153597432Y-108985744D01*
X153563883Y-109013895D01*
X153523078Y-109034387D01*
X153477417Y-109034386D01*
X153436613Y-109013894D01*
X153419459Y-108999500D01*
X153403065Y-108985744D01*
X153303483Y-108949500D01*
X153197511Y-108949500D01*
X153098223Y-108985637D01*
X153097929Y-108985744D01*
X153016749Y-109053862D01*
X152963762Y-109145638D01*
X152945361Y-109249999D01*
X152963762Y-109354361D01*
X152963762Y-109354362D01*
X152963763Y-109354363D01*
X153016749Y-109446138D01*
X153097929Y-109514256D01*
X153146352Y-109531880D01*
X153193588Y-109568124D01*
X153211492Y-109624908D01*
X153193588Y-109681693D01*
X153146352Y-109717938D01*
X153097435Y-109735742D01*
X153097433Y-109735743D01*
X153097432Y-109735744D01*
X153016252Y-109803861D01*
X153016252Y-109803862D01*
X152963265Y-109895638D01*
X152944864Y-110000000D01*
X151000000Y-110000000D01*
X151000000Y-108750000D01*
X151394864Y-108750000D01*
X151413265Y-108854361D01*
X151413265Y-108854362D01*
X151413266Y-108854363D01*
X151466252Y-108946138D01*
X151547432Y-109014256D01*
X151647014Y-109050500D01*
X151752985Y-109050500D01*
X151752986Y-109050500D01*
X151852568Y-109014256D01*
X151933748Y-108946138D01*
X151986734Y-108854363D01*
X152005136Y-108750000D01*
X151986734Y-108645637D01*
X151933748Y-108553862D01*
X151852568Y-108485744D01*
X151752986Y-108449500D01*
X151647014Y-108449500D01*
X151553526Y-108483526D01*
X151547432Y-108485744D01*
X151466252Y-108553862D01*
X151413265Y-108645638D01*
X151394864Y-108750000D01*
X151000000Y-108750000D01*
X151000000Y-108199999D01*
X152994864Y-108199999D01*
X153013265Y-108304361D01*
X153013265Y-108304362D01*
X153013266Y-108304363D01*
X153066252Y-108396138D01*
X153147432Y-108464256D01*
X153247014Y-108500500D01*
X153352985Y-108500500D01*
X153352986Y-108500500D01*
X153452568Y-108464256D01*
X153533748Y-108396138D01*
X153586734Y-108304363D01*
X153596320Y-108250000D01*
X153944864Y-108250000D01*
X153963265Y-108354361D01*
X153963265Y-108354362D01*
X153963266Y-108354363D01*
X154016252Y-108446138D01*
X154097432Y-108514256D01*
X154197014Y-108550500D01*
X154302985Y-108550500D01*
X154302986Y-108550500D01*
X154402568Y-108514256D01*
X154436614Y-108485687D01*
X154477417Y-108465196D01*
X154523078Y-108465195D01*
X154563881Y-108485686D01*
X154597929Y-108514256D01*
X154697511Y-108550500D01*
X154803482Y-108550500D01*
X154803483Y-108550500D01*
X154903065Y-108514256D01*
X154936614Y-108486104D01*
X154977417Y-108465613D01*
X155023078Y-108465612D01*
X155063881Y-108486103D01*
X155097432Y-108514256D01*
X155197014Y-108550500D01*
X155302985Y-108550500D01*
X155302986Y-108550500D01*
X155402568Y-108514256D01*
X155483748Y-108446138D01*
X155536734Y-108354363D01*
X155555136Y-108250000D01*
X155546319Y-108199999D01*
X155944864Y-108199999D01*
X155963265Y-108304361D01*
X155963265Y-108304362D01*
X155963266Y-108304363D01*
X156016252Y-108396138D01*
X156097432Y-108464256D01*
X156197014Y-108500500D01*
X156302985Y-108500500D01*
X156302986Y-108500500D01*
X156304360Y-108500000D01*
X160144864Y-108500000D01*
X160163265Y-108604361D01*
X160163265Y-108604362D01*
X160163266Y-108604363D01*
X160216252Y-108696138D01*
X160297432Y-108764256D01*
X160397014Y-108800500D01*
X160502985Y-108800500D01*
X160502986Y-108800500D01*
X160602568Y-108764256D01*
X160683748Y-108696138D01*
X160736734Y-108604363D01*
X160755136Y-108500000D01*
X160736734Y-108395637D01*
X160683748Y-108303862D01*
X160602568Y-108235744D01*
X160502986Y-108199500D01*
X160397014Y-108199500D01*
X160297432Y-108235743D01*
X160297432Y-108235744D01*
X160216252Y-108303862D01*
X160163265Y-108395638D01*
X160144864Y-108500000D01*
X156304360Y-108500000D01*
X156402568Y-108464256D01*
X156483748Y-108396138D01*
X156536734Y-108304363D01*
X156555136Y-108200000D01*
X156536734Y-108095637D01*
X156483748Y-108003862D01*
X156402568Y-107935744D01*
X156302986Y-107899500D01*
X156197014Y-107899500D01*
X156146083Y-107918037D01*
X156097432Y-107935744D01*
X156016252Y-108003862D01*
X155963265Y-108095638D01*
X155944864Y-108199999D01*
X155546319Y-108199999D01*
X155536734Y-108145637D01*
X155483748Y-108053862D01*
X155402568Y-107985744D01*
X155302986Y-107949500D01*
X155197014Y-107949500D01*
X155097432Y-107985743D01*
X155097432Y-107985744D01*
X155063883Y-108013895D01*
X155023078Y-108034387D01*
X154977417Y-108034386D01*
X154936613Y-108013894D01*
X154903066Y-107985745D01*
X154903065Y-107985744D01*
X154803483Y-107949500D01*
X154697511Y-107949500D01*
X154597929Y-107985743D01*
X154597929Y-107985744D01*
X154563883Y-108014312D01*
X154523078Y-108034804D01*
X154477417Y-108034803D01*
X154436613Y-108014311D01*
X154402569Y-107985745D01*
X154402568Y-107985744D01*
X154302986Y-107949500D01*
X154197014Y-107949500D01*
X154097432Y-107985743D01*
X154097432Y-107985744D01*
X154016252Y-108053862D01*
X153963265Y-108145638D01*
X153944864Y-108250000D01*
X153596320Y-108250000D01*
X153605136Y-108200000D01*
X153586734Y-108095637D01*
X153533748Y-108003862D01*
X153452568Y-107935744D01*
X153352986Y-107899500D01*
X153247014Y-107899500D01*
X153196083Y-107918037D01*
X153147432Y-107935744D01*
X153066252Y-108003862D01*
X153013265Y-108095638D01*
X152994864Y-108199999D01*
X151000000Y-108199999D01*
X151000000Y-107750000D01*
X151394864Y-107750000D01*
X151413265Y-107854361D01*
X151413265Y-107854362D01*
X151413266Y-107854363D01*
X151466252Y-107946138D01*
X151547432Y-108014256D01*
X151647014Y-108050500D01*
X151752985Y-108050500D01*
X151752986Y-108050500D01*
X151852568Y-108014256D01*
X151933748Y-107946138D01*
X151986734Y-107854363D01*
X151996320Y-107800000D01*
X157994864Y-107800000D01*
X158013265Y-107904361D01*
X158013265Y-107904362D01*
X158013266Y-107904363D01*
X158066252Y-107996138D01*
X158147432Y-108064256D01*
X158247014Y-108100500D01*
X158352985Y-108100500D01*
X158352986Y-108100500D01*
X158452568Y-108064256D01*
X158533748Y-107996138D01*
X158586734Y-107904363D01*
X158605136Y-107800000D01*
X158586734Y-107695637D01*
X158533748Y-107603862D01*
X158452568Y-107535744D01*
X158352986Y-107499500D01*
X158247014Y-107499500D01*
X158147432Y-107535743D01*
X158147432Y-107535744D01*
X158066252Y-107603862D01*
X158013265Y-107695638D01*
X157994864Y-107800000D01*
X151996320Y-107800000D01*
X152005136Y-107750000D01*
X151986734Y-107645637D01*
X151933748Y-107553862D01*
X151852568Y-107485744D01*
X151752986Y-107449500D01*
X151647014Y-107449500D01*
X151547431Y-107485744D01*
X151547432Y-107485744D01*
X151466252Y-107553862D01*
X151413265Y-107645638D01*
X151394864Y-107750000D01*
X151000000Y-107750000D01*
X151000000Y-106249999D01*
X151394864Y-106249999D01*
X151413265Y-106354361D01*
X151413265Y-106354362D01*
X151413266Y-106354363D01*
X151466252Y-106446138D01*
X151547432Y-106514256D01*
X151647014Y-106550500D01*
X151752985Y-106550500D01*
X151752986Y-106550500D01*
X151852568Y-106514256D01*
X151933748Y-106446138D01*
X151986734Y-106354363D01*
X152005136Y-106250000D01*
X151996319Y-106199999D01*
X157994864Y-106199999D01*
X158013265Y-106304361D01*
X158013265Y-106304362D01*
X158013266Y-106304363D01*
X158066252Y-106396138D01*
X158147432Y-106464256D01*
X158247014Y-106500500D01*
X158352985Y-106500500D01*
X158352986Y-106500500D01*
X158452568Y-106464256D01*
X158533748Y-106396138D01*
X158586734Y-106304363D01*
X158605136Y-106200000D01*
X158586734Y-106095637D01*
X158533748Y-106003862D01*
X158452568Y-105935744D01*
X158352986Y-105899500D01*
X158247014Y-105899500D01*
X158147431Y-105935744D01*
X158147432Y-105935744D01*
X158066252Y-106003862D01*
X158013265Y-106095638D01*
X157994864Y-106199999D01*
X151996319Y-106199999D01*
X151986734Y-106145637D01*
X151933748Y-106053862D01*
X151852568Y-105985744D01*
X151752986Y-105949500D01*
X151647014Y-105949500D01*
X151547432Y-105985743D01*
X151547432Y-105985744D01*
X151466252Y-106053862D01*
X151413265Y-106145638D01*
X151394864Y-106249999D01*
X151000000Y-106249999D01*
X151000000Y-105799999D01*
X152994864Y-105799999D01*
X153013265Y-105904361D01*
X153013265Y-105904362D01*
X153013266Y-105904363D01*
X153066252Y-105996138D01*
X153147432Y-106064256D01*
X153247014Y-106100500D01*
X153352985Y-106100500D01*
X153352986Y-106100500D01*
X153452568Y-106064256D01*
X153533748Y-105996138D01*
X153586734Y-105904363D01*
X153605136Y-105800000D01*
X153605136Y-105799999D01*
X153944864Y-105799999D01*
X153963265Y-105904361D01*
X153963265Y-105904362D01*
X153963266Y-105904363D01*
X154016252Y-105996138D01*
X154097432Y-106064256D01*
X154197014Y-106100500D01*
X154302985Y-106100500D01*
X154302986Y-106100500D01*
X154402568Y-106064256D01*
X154483748Y-105996138D01*
X154536734Y-105904363D01*
X154555136Y-105800000D01*
X154555136Y-105799999D01*
X154944864Y-105799999D01*
X154963265Y-105904361D01*
X154963265Y-105904362D01*
X154963266Y-105904363D01*
X155016252Y-105996138D01*
X155097432Y-106064256D01*
X155197014Y-106100500D01*
X155302985Y-106100500D01*
X155302986Y-106100500D01*
X155402568Y-106064256D01*
X155483748Y-105996138D01*
X155536734Y-105904363D01*
X155555136Y-105800000D01*
X155546320Y-105750000D01*
X155944864Y-105750000D01*
X155963265Y-105854361D01*
X155963265Y-105854362D01*
X155963266Y-105854363D01*
X156016252Y-105946138D01*
X156097432Y-106014256D01*
X156197014Y-106050500D01*
X156302985Y-106050500D01*
X156302986Y-106050500D01*
X156402568Y-106014256D01*
X156483748Y-105946138D01*
X156536734Y-105854363D01*
X156546320Y-105799999D01*
X156944864Y-105799999D01*
X156963265Y-105904361D01*
X156963265Y-105904362D01*
X156963266Y-105904363D01*
X157016252Y-105996138D01*
X157097432Y-106064256D01*
X157197014Y-106100500D01*
X157302985Y-106100500D01*
X157302986Y-106100500D01*
X157402568Y-106064256D01*
X157483748Y-105996138D01*
X157536734Y-105904363D01*
X157555136Y-105800000D01*
X157536734Y-105695637D01*
X157483748Y-105603862D01*
X157419556Y-105549999D01*
X159424864Y-105549999D01*
X159443265Y-105654361D01*
X159443265Y-105654362D01*
X159443266Y-105654363D01*
X159496252Y-105746138D01*
X159577432Y-105814256D01*
X159677014Y-105850500D01*
X159782985Y-105850500D01*
X159782986Y-105850500D01*
X159882568Y-105814256D01*
X159963748Y-105746138D01*
X160016734Y-105654363D01*
X160035136Y-105550000D01*
X160016734Y-105445637D01*
X159963748Y-105353862D01*
X159882568Y-105285744D01*
X159782986Y-105249500D01*
X159677014Y-105249500D01*
X159577431Y-105285744D01*
X159577432Y-105285744D01*
X159496252Y-105353862D01*
X159443265Y-105445638D01*
X159424864Y-105549999D01*
X157419556Y-105549999D01*
X157402568Y-105535744D01*
X157302986Y-105499500D01*
X157197014Y-105499500D01*
X157097432Y-105535743D01*
X157097432Y-105535744D01*
X157016252Y-105603862D01*
X156963265Y-105695638D01*
X156944864Y-105799999D01*
X156546320Y-105799999D01*
X156555136Y-105750000D01*
X156536734Y-105645637D01*
X156483748Y-105553862D01*
X156402568Y-105485744D01*
X156302986Y-105449500D01*
X156197014Y-105449500D01*
X156097432Y-105485743D01*
X156097432Y-105485744D01*
X156016252Y-105553862D01*
X155963265Y-105645638D01*
X155944864Y-105750000D01*
X155546320Y-105750000D01*
X155536734Y-105695637D01*
X155483748Y-105603862D01*
X155402568Y-105535744D01*
X155302986Y-105499500D01*
X155197014Y-105499500D01*
X155097432Y-105535743D01*
X155097432Y-105535744D01*
X155016252Y-105603862D01*
X154963265Y-105695638D01*
X154944864Y-105799999D01*
X154555136Y-105799999D01*
X154536734Y-105695637D01*
X154483748Y-105603862D01*
X154402568Y-105535744D01*
X154302986Y-105499500D01*
X154197014Y-105499500D01*
X154097432Y-105535743D01*
X154097432Y-105535744D01*
X154016252Y-105603862D01*
X153963265Y-105695638D01*
X153944864Y-105799999D01*
X153605136Y-105799999D01*
X153586734Y-105695637D01*
X153533748Y-105603862D01*
X153452568Y-105535744D01*
X153352986Y-105499500D01*
X153247014Y-105499500D01*
X153147432Y-105535743D01*
X153147432Y-105535744D01*
X153066252Y-105603862D01*
X153013265Y-105695638D01*
X152994864Y-105799999D01*
X151000000Y-105799999D01*
X151000000Y-105250000D01*
X151394864Y-105250000D01*
X151413265Y-105354361D01*
X151413265Y-105354362D01*
X151413266Y-105354363D01*
X151466252Y-105446138D01*
X151547432Y-105514256D01*
X151647014Y-105550500D01*
X151752985Y-105550500D01*
X151752986Y-105550500D01*
X151852568Y-105514256D01*
X151933748Y-105446138D01*
X151986734Y-105354363D01*
X152005136Y-105250000D01*
X151996320Y-105200000D01*
X157994864Y-105200000D01*
X158013265Y-105304361D01*
X158013265Y-105304362D01*
X158013266Y-105304363D01*
X158066252Y-105396138D01*
X158147432Y-105464256D01*
X158247014Y-105500500D01*
X158352985Y-105500500D01*
X158352986Y-105500500D01*
X158452568Y-105464256D01*
X158533748Y-105396138D01*
X158586734Y-105304363D01*
X158605136Y-105200000D01*
X158586734Y-105095637D01*
X158533748Y-105003862D01*
X158452568Y-104935744D01*
X158352986Y-104899500D01*
X158247014Y-104899500D01*
X158147431Y-104935744D01*
X158147432Y-104935744D01*
X158066252Y-105003862D01*
X158013265Y-105095638D01*
X157994864Y-105200000D01*
X151996320Y-105200000D01*
X151986734Y-105145637D01*
X151933748Y-105053862D01*
X151852568Y-104985744D01*
X151752986Y-104949500D01*
X151647014Y-104949500D01*
X151547432Y-104985743D01*
X151547432Y-104985744D01*
X151466252Y-105053862D01*
X151413265Y-105145638D01*
X151394864Y-105250000D01*
X151000000Y-105250000D01*
X151000000Y-104699000D01*
X151013263Y-104649500D01*
X151049500Y-104613263D01*
X151099000Y-104600000D01*
X154844513Y-104600000D01*
X154898906Y-104616281D01*
X154935408Y-104659769D01*
X154938182Y-104683452D01*
X154941833Y-104682809D01*
X154963265Y-104804361D01*
X154963265Y-104804362D01*
X154963266Y-104804363D01*
X155016252Y-104896138D01*
X155097432Y-104964256D01*
X155197014Y-105000500D01*
X155302985Y-105000500D01*
X155302986Y-105000500D01*
X155402568Y-104964256D01*
X155436366Y-104935895D01*
X155477169Y-104915404D01*
X155522831Y-104915404D01*
X155563633Y-104935895D01*
X155597432Y-104964256D01*
X155697014Y-105000500D01*
X155802985Y-105000500D01*
X155802986Y-105000500D01*
X155902568Y-104964256D01*
X155983748Y-104896138D01*
X156036734Y-104804363D01*
X156055136Y-104700000D01*
X156036734Y-104595637D01*
X155983748Y-104503862D01*
X155902568Y-104435744D01*
X155802986Y-104399500D01*
X155697014Y-104399500D01*
X155597432Y-104435744D01*
X155563633Y-104464104D01*
X155522831Y-104484595D01*
X155477169Y-104484595D01*
X155436366Y-104464104D01*
X155402568Y-104435744D01*
X155302986Y-104399500D01*
X155197014Y-104399500D01*
X155132859Y-104422850D01*
X155086077Y-104427973D01*
X155042216Y-104410916D01*
X155011186Y-104375533D01*
X155000000Y-104329820D01*
X155000000Y-104149999D01*
X157194864Y-104149999D01*
X157213265Y-104254361D01*
X157213265Y-104254362D01*
X157213266Y-104254363D01*
X157266252Y-104346138D01*
X157347432Y-104414256D01*
X157447014Y-104450500D01*
X157552985Y-104450500D01*
X157552986Y-104450500D01*
X157652568Y-104414256D01*
X157733748Y-104346138D01*
X157760386Y-104300000D01*
X159444864Y-104300000D01*
X159463265Y-104404361D01*
X159463265Y-104404362D01*
X159463266Y-104404363D01*
X159516252Y-104496138D01*
X159597432Y-104564256D01*
X159697014Y-104600500D01*
X159802985Y-104600500D01*
X159802986Y-104600500D01*
X159902568Y-104564256D01*
X159983748Y-104496138D01*
X160036734Y-104404363D01*
X160055136Y-104300000D01*
X160036734Y-104195637D01*
X159983748Y-104103862D01*
X159902568Y-104035744D01*
X159802986Y-103999500D01*
X159697014Y-103999500D01*
X159597431Y-104035744D01*
X159597432Y-104035744D01*
X159516252Y-104103862D01*
X159463265Y-104195638D01*
X159444864Y-104300000D01*
X157760386Y-104300000D01*
X157786734Y-104254363D01*
X157805136Y-104150000D01*
X157786734Y-104045637D01*
X157733748Y-103953862D01*
X157652568Y-103885744D01*
X157552986Y-103849500D01*
X157447014Y-103849500D01*
X157347432Y-103885743D01*
X157347432Y-103885744D01*
X157266252Y-103953862D01*
X157213265Y-104045638D01*
X157194864Y-104149999D01*
X155000000Y-104149999D01*
X155000000Y-100600000D01*
X156094864Y-100600000D01*
X156113265Y-100704361D01*
X156113265Y-100704362D01*
X156113266Y-100704363D01*
X156166252Y-100796138D01*
X156247432Y-100864256D01*
X156347014Y-100900500D01*
X156452985Y-100900500D01*
X156452986Y-100900500D01*
X156552568Y-100864256D01*
X156633748Y-100796138D01*
X156686734Y-100704363D01*
X156705136Y-100600000D01*
X156686734Y-100495637D01*
X156633748Y-100403862D01*
X156552568Y-100335744D01*
X156452986Y-100299500D01*
X156347014Y-100299500D01*
X156247432Y-100335743D01*
X156247432Y-100335744D01*
X156166252Y-100403862D01*
X156113265Y-100495638D01*
X156094864Y-100600000D01*
X155000000Y-100600000D01*
X155000000Y-98699999D01*
X158494864Y-98699999D01*
X158513265Y-98804361D01*
X158513265Y-98804362D01*
X158513266Y-98804363D01*
X158566252Y-98896138D01*
X158647432Y-98964256D01*
X158747014Y-99000500D01*
X158852985Y-99000500D01*
X158852986Y-99000500D01*
X158952568Y-98964256D01*
X159033748Y-98896138D01*
X159086734Y-98804363D01*
X159105136Y-98700000D01*
X159086734Y-98595637D01*
X159033748Y-98503862D01*
X158952568Y-98435744D01*
X158852986Y-98399500D01*
X158747014Y-98399500D01*
X158647431Y-98435744D01*
X158647432Y-98435744D01*
X158566252Y-98503862D01*
X158513265Y-98595638D01*
X158494864Y-98699999D01*
X155000000Y-98699999D01*
X155000000Y-98099000D01*
X155013263Y-98049500D01*
X155049500Y-98013263D01*
X155099000Y-98000000D01*
X161201000Y-98000000D01*
X161250500Y-98013263D01*
G37*
%TD.AperFunction*%
%TD*%
M02*
