%TF.GenerationSoftware,KiCad,Pcbnew,7.0.1*%
%TF.CreationDate,2023-04-26T14:08:08+02:00*%
%TF.ProjectId,radartof-hardware,72616461-7274-46f6-962d-686172647761,1.4*%
%TF.SameCoordinates,Original*%
%TF.FileFunction,Copper,L2,Inr*%
%TF.FilePolarity,Positive*%
%FSLAX46Y46*%
G04 Gerber Fmt 4.6, Leading zero omitted, Abs format (unit mm)*
G04 Created by KiCad (PCBNEW 7.0.1) date 2023-04-26 14:08:08*
%MOMM*%
%LPD*%
G01*
G04 APERTURE LIST*
%TA.AperFunction,ComponentPad*%
%ADD10C,0.600000*%
%TD*%
%TA.AperFunction,ComponentPad*%
%ADD11O,0.900000X1.900000*%
%TD*%
%TA.AperFunction,ViaPad*%
%ADD12C,0.400000*%
%TD*%
G04 APERTURE END LIST*
D10*
%TO.N,GND*%
%TO.C,J4*%
X160906750Y-73725000D03*
%TO.N,unconnected-(J4-VBUS-PadA4)*%
X160906750Y-74625000D03*
%TO.N,Net-(J4-CC1)*%
X160906750Y-75525000D03*
%TO.N,/Connectors/conn_USB-*%
X160906750Y-76425000D03*
%TO.N,/Connectors/conn_USB+*%
X160906750Y-77325000D03*
%TO.N,unconnected-(J4-VBUS-PadA4)*%
X160906750Y-78225000D03*
%TO.N,GND*%
X160906750Y-79125000D03*
X160126750Y-78675000D03*
%TO.N,unconnected-(J4-VBUS-PadA4)*%
X160126750Y-77775000D03*
%TO.N,Net-(J4-CC2)*%
X160126750Y-76875000D03*
%TO.N,/Connectors/conn_USB-*%
X160126750Y-75975000D03*
%TO.N,/Connectors/conn_USB+*%
X160126750Y-75075000D03*
%TO.N,unconnected-(J4-VBUS-PadA4)*%
X160126750Y-74175000D03*
%TO.N,GND*%
X160126750Y-73275000D03*
D11*
%TO.N,/Connectors/USB_Shield*%
X161946750Y-78575000D03*
X161946750Y-73775000D03*
X159086750Y-78575000D03*
X159086750Y-73775000D03*
%TD*%
D12*
%TO.N,/Camera/CAM_nRST*%
X150200000Y-102800000D03*
X150200000Y-83300000D03*
X140500000Y-120750000D03*
X150200000Y-74900000D03*
%TO.N,+3.3V*%
X150600000Y-128100000D03*
X139850000Y-84150000D03*
X158800000Y-86000000D03*
X143000000Y-95100000D03*
X148600000Y-126500000D03*
X142800000Y-109900000D03*
X138800000Y-102700000D03*
X154100000Y-88100000D03*
X160000000Y-96800000D03*
X148737000Y-96700000D03*
X140600000Y-95100000D03*
X142200000Y-103400000D03*
X147500000Y-88400000D03*
X161500000Y-131850000D03*
X146600000Y-128100000D03*
X144800000Y-103400000D03*
X155800000Y-128100000D03*
X152400000Y-93800000D03*
X143800000Y-84900000D03*
X143400000Y-105000000D03*
%TO.N,Vradar*%
X162000000Y-113000000D03*
X155000000Y-117000000D03*
X162000000Y-109500000D03*
X161000000Y-117000000D03*
X162300000Y-98400000D03*
%TO.N,GND*%
X153900000Y-130400000D03*
X152100000Y-117000000D03*
X141500000Y-106700000D03*
X148600000Y-128100000D03*
X153300000Y-105800000D03*
X138500000Y-72500000D03*
X158800000Y-87200000D03*
X161500000Y-97300000D03*
X153500000Y-104150000D03*
X140200000Y-107950000D03*
X151700000Y-107750000D03*
X158800000Y-91000000D03*
X153800000Y-76900000D03*
X143550000Y-96650000D03*
X144500000Y-107300000D03*
X142700000Y-88362500D03*
X151100000Y-88100000D03*
X155100000Y-112100000D03*
X147800000Y-114000000D03*
X151600000Y-132100000D03*
X156500000Y-111300000D03*
X143000000Y-100400000D03*
X138000000Y-118300000D03*
X146800000Y-118600000D03*
X156500000Y-72500000D03*
X139000000Y-108400000D03*
X151800000Y-83300000D03*
X160450000Y-108500000D03*
X151700000Y-108750000D03*
X144400000Y-109200000D03*
X151500000Y-100500000D03*
X150600000Y-126500000D03*
X143000000Y-103900000D03*
X158200000Y-68100000D03*
X151300000Y-112074500D03*
X144000000Y-114500000D03*
X138000000Y-127900000D03*
X158800000Y-98700000D03*
X149400000Y-115200000D03*
X157250000Y-105800000D03*
X153300000Y-108200000D03*
X137900000Y-113100000D03*
X159730000Y-108950000D03*
X156400000Y-100600000D03*
X151550000Y-117900000D03*
X157550000Y-117900000D03*
X156500000Y-69500000D03*
X147200000Y-101000000D03*
X147302886Y-116102886D03*
X147400000Y-84900000D03*
X146000000Y-74900000D03*
X147300000Y-117700000D03*
X141500000Y-107300000D03*
X138500000Y-69500000D03*
X138000000Y-115400000D03*
X157500000Y-104150000D03*
X138000000Y-125200000D03*
X146800000Y-116900000D03*
X144500000Y-106700000D03*
X155800000Y-126500000D03*
X158100000Y-117000000D03*
X143000000Y-97300000D03*
X157685188Y-114714812D03*
X161600000Y-82900000D03*
X140600000Y-103400000D03*
X158800000Y-88500000D03*
X138000000Y-120800000D03*
X147700000Y-111500000D03*
X140600000Y-125250000D03*
X149900000Y-115600000D03*
X156250000Y-105750000D03*
X153800000Y-86300000D03*
X145800000Y-106050000D03*
X158200000Y-69800000D03*
X155200000Y-131400000D03*
X156000000Y-116800000D03*
X162100000Y-107950000D03*
X154550000Y-110400000D03*
X153400000Y-128100000D03*
X153300000Y-99600000D03*
X146000000Y-97500000D03*
X154600000Y-100600000D03*
X159750000Y-104300000D03*
X146600000Y-126500000D03*
X147300000Y-110100000D03*
X161675000Y-102400000D03*
X146000000Y-72800000D03*
X162100000Y-106750000D03*
X154000000Y-78700000D03*
X156250000Y-108200000D03*
X149749500Y-88100000D03*
X154250000Y-105800000D03*
X151700000Y-106250000D03*
X152100000Y-115000000D03*
X162000000Y-104000000D03*
X159730000Y-105550000D03*
X158102720Y-76002720D03*
X160300000Y-110750000D03*
X149800000Y-84900000D03*
X153300000Y-97800000D03*
X157500000Y-109700000D03*
X153800000Y-75100000D03*
X161200000Y-109300000D03*
X139700000Y-110500000D03*
X158200000Y-71500000D03*
X158100000Y-115200000D03*
X151700000Y-105250000D03*
X139849500Y-80700000D03*
X147000000Y-108400000D03*
X148600000Y-83300000D03*
X140200000Y-106050000D03*
X155250000Y-105800000D03*
%TO.N,/Connectors/USB_Shield*%
X160425000Y-69000000D03*
%TO.N,+1V8*%
X156500000Y-114300000D03*
X161000000Y-115200000D03*
X159700000Y-102100000D03*
X152250000Y-111300000D03*
X153400000Y-106800000D03*
X158100000Y-102087500D03*
X156300000Y-99600000D03*
X155000000Y-115000000D03*
X155450000Y-98700000D03*
%TO.N,/Radar/VDD_LF*%
X158310000Y-109090000D03*
%TO.N,/Radar/VDD_RF*%
X155250000Y-104700000D03*
X158300000Y-106200000D03*
X155750000Y-104700000D03*
%TO.N,Net-(J5-Pad11)*%
X145400000Y-68800000D03*
X153100000Y-90900000D03*
%TO.N,/Portenta/SDC_D2*%
X143900000Y-78900000D03*
X145400000Y-81600000D03*
%TO.N,/Portenta/SDC_D3*%
X145000000Y-83300000D03*
X143400000Y-93500000D03*
%TO.N,/Radar/VDD_PLL*%
X158300000Y-107800000D03*
%TO.N,/Radar/VDD_VCO*%
X158300000Y-105200000D03*
%TO.N,/Portenta/SWDIO*%
X159800000Y-86000000D03*
%TO.N,/Portenta/SWCLK*%
X159800000Y-87200000D03*
%TO.N,/Portenta/SWO*%
X159800000Y-88500000D03*
%TO.N,/Portenta/nRST*%
X159800000Y-91000000D03*
%TO.N,/Portenta/UART4_TX*%
X158800000Y-92300000D03*
%TO.N,/Portenta/UART4_RX*%
X159800000Y-92300000D03*
%TO.N,/Portenta/SDC_CMD*%
X145600000Y-95400000D03*
X146600000Y-83300000D03*
%TO.N,/Connectors/USB_FS+*%
X153100000Y-83900000D03*
X153800000Y-76300000D03*
%TO.N,/Connectors/USB_FS-*%
X152500000Y-83900000D03*
X153800000Y-75700000D03*
%TO.N,/Camera/CAM_D7*%
X142200000Y-123750000D03*
%TO.N,/Camera/CAM_D6*%
X142600000Y-124750000D03*
%TO.N,/Camera/CAM_D5*%
X143000000Y-125100000D03*
%TO.N,/Camera/CAM_D4*%
X143400000Y-126500000D03*
%TO.N,/Camera/CAM_D3*%
X143800000Y-127200000D03*
%TO.N,/Camera/CAM_D2*%
X144600000Y-127500000D03*
%TO.N,/Camera/CAM_D1*%
X145000000Y-127200000D03*
%TO.N,/Camera/CAM_D0*%
X145000000Y-126500000D03*
%TO.N,/Camera/CAM_VS*%
X144000000Y-121250000D03*
%TO.N,/Camera/CAM_CK*%
X145800000Y-126500000D03*
%TO.N,/Camera/CAM_HS*%
X145000000Y-121250000D03*
%TO.N,/Connectors/ETH_A+*%
X157800000Y-81500000D03*
%TO.N,/Connectors/ETH_A-*%
X157400000Y-81900000D03*
%TO.N,VTOF*%
X146400000Y-103400000D03*
X143400000Y-109900000D03*
X139000000Y-106600000D03*
X147000000Y-106600000D03*
X140600000Y-104900000D03*
%TO.N,VCAM*%
X138662500Y-111300000D03*
X148300000Y-123250000D03*
%TO.N,/Connectors/ETH_B+*%
X156999500Y-83300000D03*
%TO.N,/Connectors/ETH_B-*%
X156600000Y-83750000D03*
%TO.N,/Connectors/ETH_LED1*%
X149400000Y-68800000D03*
X154600000Y-81500000D03*
%TO.N,/Connectors/ETH_LED2*%
X154200000Y-81900000D03*
X149400000Y-70800000D03*
%TO.N,/Portenta/TOF_RST*%
X145250000Y-108400000D03*
X141000000Y-81600000D03*
X140300000Y-97300000D03*
X141000000Y-87100000D03*
%TO.N,/Portenta/TOF_LPn*%
X140000000Y-86300000D03*
X139500000Y-101800000D03*
X142250000Y-108400000D03*
%TO.N,/Portenta/TOF_INT*%
X140500000Y-84000000D03*
X140500000Y-86700000D03*
X143750000Y-108400000D03*
X141000000Y-105400000D03*
%TO.N,/Portenta/I2C3_SDA*%
X142000000Y-101800000D03*
X142000000Y-87900000D03*
X143750000Y-105600000D03*
%TO.N,/Portenta/I2C3_SCL*%
X141500000Y-101800000D03*
X141500000Y-87500000D03*
X143000000Y-105600000D03*
%TO.N,/Camera/CAM_PWDN*%
X140500000Y-121750000D03*
X150600000Y-72800000D03*
X150600000Y-83700000D03*
%TO.N,/Camera/STROBE*%
X141000000Y-118500000D03*
%TO.N,/Camera/I2C1_SDA*%
X149400000Y-83300000D03*
X141500000Y-119250000D03*
X149600000Y-105200000D03*
%TO.N,/Camera/I2C1_SCL*%
X149000000Y-83700000D03*
X149200000Y-106200000D03*
X140500000Y-120250000D03*
%TO.N,/Portenta/RADAR_INT*%
X152850000Y-120400000D03*
%TO.N,/Portenta/SPI2_NSS*%
X160150000Y-117900000D03*
X149000000Y-125100000D03*
%TO.N,/Portenta/SPI2_SCK*%
X153500000Y-120359099D03*
%TO.N,/Portenta/SPI2_MISO*%
X149800000Y-125100000D03*
X158853003Y-119903003D03*
%TO.N,/Portenta/SPI2_MOSI*%
X154150000Y-120300000D03*
%TO.N,/Radar/SCK_1V8*%
X153250000Y-110000000D03*
%TO.N,/Radar/INT_1V8*%
X153250497Y-109250000D03*
%TO.N,/Radar/MOSI_1V8*%
X153750000Y-109250000D03*
%TO.N,/Radar/MISO_1V8*%
X154250000Y-108250000D03*
%TO.N,/Radar/RST_1V8*%
X154750497Y-108250000D03*
%TO.N,/Radar/NSS_1V8*%
X155250000Y-108250000D03*
%TO.N,/Portenta/SDC_CLK*%
X147000000Y-83700000D03*
X146000000Y-96000000D03*
%TO.N,/Portenta/SDC_D0*%
X146200000Y-83700000D03*
X145200000Y-98800000D03*
%TO.N,/Portenta/CATR*%
X158500000Y-131850000D03*
%TO.N,+5V*%
X148000000Y-81600000D03*
X148500000Y-108500000D03*
%TO.N,/Portenta/SDC_D1*%
X144800000Y-99200000D03*
X145800000Y-83300000D03*
%TO.N,Net-(J4-CC1)*%
X158600000Y-72500000D03*
%TO.N,Net-(J4-CC2)*%
X160800000Y-80400000D03*
%TO.N,Net-(J5-Pad1)*%
X145400000Y-70800000D03*
%TO.N,/Portenta/RADAR_nRST*%
X159500000Y-119900000D03*
%TO.N,/Portenta/CATG*%
X158500000Y-130950000D03*
%TO.N,/Portenta/CATB*%
X161500000Y-130950000D03*
%TO.N,Net-(J3-DAT2)*%
X146902277Y-78902277D03*
X144400000Y-94300000D03*
%TD*%
%TA.AperFunction,Conductor*%
%TO.N,GND*%
G36*
X160703234Y-67080711D02*
G01*
X160941463Y-67096325D01*
X160954291Y-67098014D01*
X161185268Y-67143959D01*
X161197768Y-67147308D01*
X161312899Y-67186390D01*
X161420764Y-67223006D01*
X161432727Y-67227962D01*
X161643927Y-67332114D01*
X161655142Y-67338588D01*
X161850948Y-67469421D01*
X161861222Y-67477305D01*
X162038270Y-67632572D01*
X162047427Y-67641729D01*
X162202694Y-67818777D01*
X162210578Y-67829051D01*
X162341411Y-68024857D01*
X162347885Y-68036072D01*
X162452037Y-68247272D01*
X162456993Y-68259235D01*
X162532689Y-68482226D01*
X162536041Y-68494735D01*
X162581984Y-68725703D01*
X162583674Y-68738542D01*
X162599288Y-68976765D01*
X162599500Y-68983240D01*
X162599500Y-72926474D01*
X162581380Y-72983565D01*
X162533653Y-73019758D01*
X162473790Y-73021803D01*
X162423705Y-72988952D01*
X162326029Y-72868893D01*
X162202396Y-72781622D01*
X162059805Y-72730945D01*
X161908828Y-72720618D01*
X161760665Y-72751407D01*
X161626305Y-72821027D01*
X161515704Y-72924322D01*
X161437078Y-73053615D01*
X161414049Y-73135810D01*
X161399199Y-73188812D01*
X161396250Y-73199336D01*
X161396250Y-73206594D01*
X161381321Y-73258872D01*
X161341037Y-73295384D01*
X161287547Y-73305117D01*
X161236983Y-73285137D01*
X161184121Y-73244575D01*
X161050328Y-73189156D01*
X160906749Y-73170254D01*
X160765787Y-73188812D01*
X160723095Y-73185077D01*
X160685981Y-73163649D01*
X160661400Y-73128544D01*
X160651254Y-73104049D01*
X160480304Y-73275000D01*
X160501333Y-73296029D01*
X160596329Y-73201033D01*
X160640710Y-73175409D01*
X160691956Y-73175409D01*
X160736337Y-73201033D01*
X161190299Y-73654996D01*
X161215922Y-73699376D01*
X161215922Y-73750622D01*
X161190299Y-73795003D01*
X160976753Y-74008549D01*
X160932372Y-74034172D01*
X160881126Y-74034172D01*
X160836745Y-74008549D01*
X160532166Y-73703970D01*
X160437170Y-73798966D01*
X160392789Y-73824589D01*
X160341543Y-73824589D01*
X160297162Y-73798965D01*
X159830935Y-73332737D01*
X159830932Y-73332735D01*
X159634006Y-73135810D01*
X159613206Y-73105250D01*
X159561530Y-72986280D01*
X159466028Y-72868892D01*
X159388331Y-72814047D01*
X159342396Y-72781622D01*
X159254808Y-72750493D01*
X159955798Y-72750493D01*
X160126750Y-72921445D01*
X160297701Y-72750493D01*
X160270329Y-72739156D01*
X160126750Y-72720254D01*
X159983171Y-72739157D01*
X159955798Y-72750493D01*
X159254808Y-72750493D01*
X159199805Y-72730945D01*
X159048827Y-72720618D01*
X159002290Y-72730289D01*
X158954535Y-72728431D01*
X158913215Y-72704418D01*
X158887959Y-72663845D01*
X158884652Y-72616169D01*
X158886822Y-72603862D01*
X158905136Y-72500000D01*
X158886734Y-72395637D01*
X158833748Y-72303862D01*
X158752568Y-72235744D01*
X158652986Y-72199500D01*
X158547014Y-72199500D01*
X158447431Y-72235744D01*
X158447432Y-72235744D01*
X158366252Y-72303862D01*
X158313265Y-72395638D01*
X158294864Y-72500000D01*
X158313265Y-72604361D01*
X158313265Y-72604362D01*
X158313266Y-72604363D01*
X158366252Y-72696138D01*
X158447432Y-72764256D01*
X158547014Y-72800500D01*
X158547015Y-72800500D01*
X158554931Y-72800500D01*
X158604918Y-72814047D01*
X158641225Y-72850979D01*
X158653917Y-72901191D01*
X158639518Y-72950939D01*
X158577078Y-73053615D01*
X158554049Y-73135810D01*
X158536250Y-73199335D01*
X158536250Y-74312658D01*
X158551680Y-74424920D01*
X158581824Y-74494319D01*
X158611970Y-74563721D01*
X158707470Y-74681106D01*
X158707472Y-74681108D01*
X158831103Y-74768377D01*
X158973694Y-74819054D01*
X159124671Y-74829381D01*
X159272835Y-74798592D01*
X159407197Y-74728971D01*
X159517794Y-74625680D01*
X159584830Y-74515445D01*
X159596422Y-74496383D01*
X159614785Y-74430842D01*
X159646462Y-74381725D01*
X159700323Y-74359035D01*
X159757597Y-74370680D01*
X159798321Y-74412601D01*
X159798696Y-74413337D01*
X159798698Y-74413339D01*
X159798700Y-74413342D01*
X159888408Y-74503050D01*
X159954628Y-74536790D01*
X159994093Y-74573273D01*
X160008682Y-74625000D01*
X159994093Y-74676727D01*
X159954628Y-74713209D01*
X159924105Y-74728761D01*
X159888409Y-74746949D01*
X159798699Y-74836659D01*
X159741103Y-74949697D01*
X159721258Y-75074998D01*
X159741103Y-75200302D01*
X159741103Y-75200303D01*
X159741104Y-75200304D01*
X159798700Y-75313342D01*
X159888408Y-75403050D01*
X159954628Y-75436790D01*
X159994093Y-75473273D01*
X160008682Y-75525000D01*
X159994093Y-75576727D01*
X159954628Y-75613209D01*
X159924105Y-75628761D01*
X159888409Y-75646949D01*
X159798699Y-75736659D01*
X159741103Y-75849697D01*
X159721257Y-75974999D01*
X159741103Y-76100302D01*
X159741103Y-76100303D01*
X159741104Y-76100304D01*
X159798700Y-76213342D01*
X159888408Y-76303050D01*
X159954628Y-76336790D01*
X159994093Y-76373273D01*
X160008682Y-76425000D01*
X159994093Y-76476727D01*
X159954628Y-76513209D01*
X159924105Y-76528761D01*
X159888409Y-76546949D01*
X159798699Y-76636659D01*
X159741103Y-76749697D01*
X159721257Y-76874999D01*
X159741103Y-77000302D01*
X159741103Y-77000303D01*
X159741104Y-77000304D01*
X159798700Y-77113342D01*
X159888408Y-77203050D01*
X159954628Y-77236790D01*
X159994093Y-77273273D01*
X160008682Y-77325000D01*
X159994093Y-77376727D01*
X159954628Y-77413209D01*
X159924105Y-77428761D01*
X159888409Y-77446949D01*
X159798699Y-77536659D01*
X159741103Y-77649697D01*
X159728411Y-77729831D01*
X159704238Y-77780546D01*
X159656361Y-77809941D01*
X159600198Y-77808550D01*
X159553835Y-77776821D01*
X159466029Y-77668893D01*
X159438833Y-77649696D01*
X159342397Y-77581623D01*
X159342396Y-77581622D01*
X159199805Y-77530945D01*
X159048828Y-77520618D01*
X158900665Y-77551407D01*
X158766305Y-77621027D01*
X158655704Y-77724322D01*
X158577078Y-77853615D01*
X158563997Y-77900304D01*
X158536250Y-77999335D01*
X158536250Y-79112658D01*
X158549792Y-79211187D01*
X158551680Y-79224919D01*
X158611970Y-79363721D01*
X158662378Y-79425680D01*
X158707472Y-79481108D01*
X158831103Y-79568377D01*
X158973694Y-79619054D01*
X159124671Y-79629381D01*
X159272835Y-79598592D01*
X159407197Y-79528971D01*
X159517794Y-79425680D01*
X159584830Y-79315445D01*
X159596421Y-79296384D01*
X159596543Y-79295951D01*
X159623566Y-79199505D01*
X159955798Y-79199505D01*
X159983170Y-79210843D01*
X160126749Y-79229745D01*
X160267710Y-79211187D01*
X160310403Y-79214922D01*
X160347517Y-79236350D01*
X160372098Y-79271456D01*
X160382243Y-79295951D01*
X160553195Y-79124999D01*
X160532167Y-79103969D01*
X160437170Y-79198966D01*
X160392789Y-79224589D01*
X160341543Y-79224589D01*
X160297162Y-79198966D01*
X160126750Y-79028554D01*
X159955798Y-79199505D01*
X159623566Y-79199505D01*
X159637250Y-79150665D01*
X159637250Y-78851953D01*
X159644786Y-78814067D01*
X159666246Y-78781949D01*
X160056745Y-78391450D01*
X160101126Y-78365827D01*
X160152372Y-78365827D01*
X160196752Y-78391450D01*
X160501332Y-78696029D01*
X160596329Y-78601033D01*
X160640710Y-78575409D01*
X160691956Y-78575409D01*
X160736337Y-78601033D01*
X160982930Y-78847627D01*
X160982930Y-78847626D01*
X160982931Y-78847627D01*
X160982930Y-78847627D01*
X161437888Y-79302584D01*
X161458688Y-79333145D01*
X161471968Y-79363719D01*
X161565393Y-79478553D01*
X161567472Y-79481108D01*
X161691103Y-79568377D01*
X161833694Y-79619054D01*
X161984671Y-79629381D01*
X162132835Y-79598592D01*
X162267197Y-79528971D01*
X162377794Y-79425680D01*
X162414496Y-79365327D01*
X162415913Y-79362997D01*
X162452570Y-79327812D01*
X162501853Y-79315445D01*
X162550779Y-79329154D01*
X162586461Y-79365327D01*
X162599500Y-79414436D01*
X162599500Y-98047837D01*
X162588314Y-98093550D01*
X162557284Y-98128933D01*
X162513422Y-98145990D01*
X162466640Y-98140867D01*
X162452570Y-98135746D01*
X162452568Y-98135744D01*
X162352986Y-98099500D01*
X162247014Y-98099500D01*
X162166146Y-98128933D01*
X162147432Y-98135744D01*
X162066252Y-98203862D01*
X162013265Y-98295638D01*
X161994864Y-98399999D01*
X162013265Y-98504361D01*
X162013265Y-98504362D01*
X162013266Y-98504363D01*
X162066252Y-98596138D01*
X162147432Y-98664256D01*
X162247014Y-98700500D01*
X162352985Y-98700500D01*
X162352986Y-98700500D01*
X162452568Y-98664256D01*
X162452570Y-98664253D01*
X162466640Y-98659133D01*
X162513422Y-98654010D01*
X162557284Y-98671067D01*
X162588314Y-98706450D01*
X162599500Y-98752163D01*
X162599500Y-131016760D01*
X162599288Y-131023235D01*
X162583674Y-131261457D01*
X162581984Y-131274296D01*
X162536041Y-131505264D01*
X162532689Y-131517773D01*
X162456993Y-131740764D01*
X162452037Y-131752727D01*
X162347885Y-131963927D01*
X162341411Y-131975142D01*
X162210578Y-132170948D01*
X162202694Y-132181222D01*
X162047427Y-132358270D01*
X162038270Y-132367427D01*
X161861222Y-132522694D01*
X161850948Y-132530578D01*
X161655142Y-132661411D01*
X161643927Y-132667885D01*
X161432727Y-132772037D01*
X161420764Y-132776993D01*
X161197773Y-132852689D01*
X161185264Y-132856041D01*
X160954296Y-132901984D01*
X160941457Y-132903674D01*
X160703235Y-132919288D01*
X160696760Y-132919500D01*
X139303240Y-132919500D01*
X139296765Y-132919288D01*
X139058542Y-132903674D01*
X139045703Y-132901984D01*
X138814735Y-132856041D01*
X138802226Y-132852689D01*
X138579235Y-132776993D01*
X138567272Y-132772037D01*
X138356072Y-132667885D01*
X138344857Y-132661411D01*
X138149051Y-132530578D01*
X138138777Y-132522694D01*
X137961729Y-132367427D01*
X137952572Y-132358270D01*
X137797305Y-132181222D01*
X137789421Y-132170948D01*
X137658588Y-131975142D01*
X137652114Y-131963927D01*
X137595931Y-131849999D01*
X158194864Y-131849999D01*
X158213265Y-131954361D01*
X158213265Y-131954362D01*
X158213266Y-131954363D01*
X158266252Y-132046138D01*
X158347432Y-132114256D01*
X158447014Y-132150500D01*
X158552985Y-132150500D01*
X158552986Y-132150500D01*
X158652568Y-132114256D01*
X158733748Y-132046138D01*
X158786734Y-131954363D01*
X158805136Y-131850000D01*
X158805136Y-131849999D01*
X161194864Y-131849999D01*
X161213265Y-131954361D01*
X161213265Y-131954362D01*
X161213266Y-131954363D01*
X161266252Y-132046138D01*
X161347432Y-132114256D01*
X161447014Y-132150500D01*
X161552985Y-132150500D01*
X161552986Y-132150500D01*
X161652568Y-132114256D01*
X161733748Y-132046138D01*
X161786734Y-131954363D01*
X161805136Y-131850000D01*
X161786734Y-131745637D01*
X161733748Y-131653862D01*
X161652568Y-131585744D01*
X161552986Y-131549500D01*
X161447014Y-131549500D01*
X161347431Y-131585744D01*
X161347432Y-131585744D01*
X161266252Y-131653862D01*
X161213265Y-131745638D01*
X161194864Y-131849999D01*
X158805136Y-131849999D01*
X158786734Y-131745637D01*
X158733748Y-131653862D01*
X158652568Y-131585744D01*
X158552986Y-131549500D01*
X158447014Y-131549500D01*
X158347431Y-131585744D01*
X158347432Y-131585744D01*
X158266252Y-131653862D01*
X158213265Y-131745638D01*
X158194864Y-131849999D01*
X137595931Y-131849999D01*
X137547962Y-131752727D01*
X137543006Y-131740764D01*
X137467310Y-131517773D01*
X137463958Y-131505264D01*
X137449119Y-131430666D01*
X137418014Y-131274291D01*
X137416325Y-131261457D01*
X137413231Y-131214256D01*
X137400711Y-131023234D01*
X137400500Y-131016760D01*
X137400500Y-130949999D01*
X158194864Y-130949999D01*
X158213265Y-131054361D01*
X158213265Y-131054362D01*
X158213266Y-131054363D01*
X158266252Y-131146138D01*
X158347432Y-131214256D01*
X158447014Y-131250500D01*
X158552985Y-131250500D01*
X158552986Y-131250500D01*
X158652568Y-131214256D01*
X158733748Y-131146138D01*
X158786734Y-131054363D01*
X158805136Y-130950000D01*
X158805136Y-130949999D01*
X161194864Y-130949999D01*
X161213265Y-131054361D01*
X161213265Y-131054362D01*
X161213266Y-131054363D01*
X161266252Y-131146138D01*
X161347432Y-131214256D01*
X161447014Y-131250500D01*
X161552985Y-131250500D01*
X161552986Y-131250500D01*
X161652568Y-131214256D01*
X161733748Y-131146138D01*
X161786734Y-131054363D01*
X161805136Y-130950000D01*
X161786734Y-130845637D01*
X161733748Y-130753862D01*
X161652568Y-130685744D01*
X161552986Y-130649500D01*
X161447014Y-130649500D01*
X161347431Y-130685744D01*
X161347432Y-130685744D01*
X161266252Y-130753862D01*
X161213265Y-130845638D01*
X161194864Y-130949999D01*
X158805136Y-130949999D01*
X158786734Y-130845637D01*
X158733748Y-130753862D01*
X158652568Y-130685744D01*
X158552986Y-130649500D01*
X158447014Y-130649500D01*
X158347431Y-130685744D01*
X158347432Y-130685744D01*
X158266252Y-130753862D01*
X158213265Y-130845638D01*
X158194864Y-130949999D01*
X137400500Y-130949999D01*
X137400500Y-128100000D01*
X146294864Y-128100000D01*
X146313265Y-128204361D01*
X146313265Y-128204362D01*
X146313266Y-128204363D01*
X146366252Y-128296138D01*
X146447432Y-128364256D01*
X146547014Y-128400500D01*
X146652985Y-128400500D01*
X146652986Y-128400500D01*
X146752568Y-128364256D01*
X146833748Y-128296138D01*
X146886734Y-128204363D01*
X146905136Y-128100000D01*
X150294864Y-128100000D01*
X150313265Y-128204361D01*
X150313265Y-128204362D01*
X150313266Y-128204363D01*
X150366252Y-128296138D01*
X150447432Y-128364256D01*
X150547014Y-128400500D01*
X150652985Y-128400500D01*
X150652986Y-128400500D01*
X150752568Y-128364256D01*
X150833748Y-128296138D01*
X150886734Y-128204363D01*
X150905136Y-128100000D01*
X155494864Y-128100000D01*
X155513265Y-128204361D01*
X155513265Y-128204362D01*
X155513266Y-128204363D01*
X155566252Y-128296138D01*
X155647432Y-128364256D01*
X155747014Y-128400500D01*
X155852985Y-128400500D01*
X155852986Y-128400500D01*
X155952568Y-128364256D01*
X156033748Y-128296138D01*
X156086734Y-128204363D01*
X156105136Y-128100000D01*
X156086734Y-127995637D01*
X156033748Y-127903862D01*
X155952568Y-127835744D01*
X155852986Y-127799500D01*
X155747014Y-127799500D01*
X155647432Y-127835743D01*
X155647432Y-127835744D01*
X155566252Y-127903862D01*
X155513265Y-127995638D01*
X155494864Y-128100000D01*
X150905136Y-128100000D01*
X150886734Y-127995637D01*
X150833748Y-127903862D01*
X150752568Y-127835744D01*
X150652986Y-127799500D01*
X150547014Y-127799500D01*
X150447432Y-127835743D01*
X150447432Y-127835744D01*
X150366252Y-127903862D01*
X150313265Y-127995638D01*
X150294864Y-128100000D01*
X146905136Y-128100000D01*
X146886734Y-127995637D01*
X146833748Y-127903862D01*
X146752568Y-127835744D01*
X146652986Y-127799500D01*
X146547014Y-127799500D01*
X146447432Y-127835743D01*
X146447432Y-127835744D01*
X146366252Y-127903862D01*
X146313265Y-127995638D01*
X146294864Y-128100000D01*
X137400500Y-128100000D01*
X137400500Y-127200000D01*
X143494864Y-127200000D01*
X143513265Y-127304361D01*
X143513265Y-127304362D01*
X143513266Y-127304363D01*
X143566252Y-127396138D01*
X143647432Y-127464256D01*
X143747014Y-127500500D01*
X143852985Y-127500500D01*
X143852986Y-127500500D01*
X143854360Y-127500000D01*
X144294864Y-127500000D01*
X144313265Y-127604361D01*
X144313265Y-127604362D01*
X144313266Y-127604363D01*
X144366252Y-127696138D01*
X144447432Y-127764256D01*
X144547014Y-127800500D01*
X144652985Y-127800500D01*
X144652986Y-127800500D01*
X144752568Y-127764256D01*
X144833748Y-127696138D01*
X144886734Y-127604363D01*
X144890623Y-127582309D01*
X144908709Y-127540381D01*
X144943688Y-127511030D01*
X144988119Y-127500500D01*
X145052985Y-127500500D01*
X145052986Y-127500500D01*
X145152568Y-127464256D01*
X145233748Y-127396138D01*
X145286734Y-127304363D01*
X145305136Y-127200000D01*
X145286734Y-127095637D01*
X145233748Y-127003862D01*
X145152568Y-126935744D01*
X145152565Y-126935742D01*
X145140762Y-126925839D01*
X145109557Y-126878394D01*
X145109557Y-126821606D01*
X145140762Y-126774161D01*
X145152564Y-126764257D01*
X145152568Y-126764256D01*
X145233748Y-126696138D01*
X145286734Y-126604363D01*
X145302504Y-126514925D01*
X145309784Y-126499999D01*
X145490215Y-126499999D01*
X145497496Y-126514926D01*
X145513265Y-126604361D01*
X145513265Y-126604362D01*
X145513266Y-126604363D01*
X145566252Y-126696138D01*
X145647432Y-126764256D01*
X145747014Y-126800500D01*
X145852985Y-126800500D01*
X145852986Y-126800500D01*
X145952568Y-126764256D01*
X146033748Y-126696138D01*
X146086734Y-126604363D01*
X146105136Y-126500000D01*
X146105136Y-126499999D01*
X148294864Y-126499999D01*
X148313265Y-126604361D01*
X148313265Y-126604362D01*
X148313266Y-126604363D01*
X148366252Y-126696138D01*
X148447432Y-126764256D01*
X148547014Y-126800500D01*
X148652985Y-126800500D01*
X148652986Y-126800500D01*
X148752568Y-126764256D01*
X148833748Y-126696138D01*
X148886734Y-126604363D01*
X148905136Y-126500000D01*
X148886734Y-126395637D01*
X148833748Y-126303862D01*
X148752568Y-126235744D01*
X148652986Y-126199500D01*
X148547014Y-126199500D01*
X148447432Y-126235743D01*
X148447432Y-126235744D01*
X148366252Y-126303862D01*
X148313265Y-126395638D01*
X148294864Y-126499999D01*
X146105136Y-126499999D01*
X146086734Y-126395637D01*
X146033748Y-126303862D01*
X145952568Y-126235744D01*
X145852986Y-126199500D01*
X145747014Y-126199500D01*
X145647432Y-126235743D01*
X145647432Y-126235744D01*
X145566252Y-126303862D01*
X145513265Y-126395638D01*
X145497496Y-126485073D01*
X145490215Y-126499999D01*
X145309784Y-126499999D01*
X145302504Y-126485073D01*
X145286734Y-126395638D01*
X145286734Y-126395637D01*
X145233748Y-126303862D01*
X145152568Y-126235744D01*
X145052986Y-126199500D01*
X144947014Y-126199500D01*
X144847432Y-126235743D01*
X144847432Y-126235744D01*
X144766252Y-126303862D01*
X144713265Y-126395638D01*
X144694864Y-126499999D01*
X144713265Y-126604361D01*
X144713265Y-126604362D01*
X144713266Y-126604363D01*
X144766251Y-126696137D01*
X144766253Y-126696139D01*
X144859237Y-126774162D01*
X144890442Y-126821606D01*
X144890442Y-126878394D01*
X144859237Y-126925838D01*
X144766253Y-127003860D01*
X144713265Y-127095638D01*
X144709377Y-127117691D01*
X144691291Y-127159619D01*
X144656312Y-127188970D01*
X144611881Y-127199500D01*
X144547014Y-127199500D01*
X144502361Y-127215752D01*
X144447432Y-127235744D01*
X144366252Y-127303862D01*
X144313265Y-127395638D01*
X144294864Y-127500000D01*
X143854360Y-127500000D01*
X143952568Y-127464256D01*
X144033748Y-127396138D01*
X144086734Y-127304363D01*
X144105136Y-127200000D01*
X144086734Y-127095637D01*
X144033748Y-127003862D01*
X143952568Y-126935744D01*
X143852986Y-126899500D01*
X143747014Y-126899500D01*
X143647435Y-126935742D01*
X143647433Y-126935743D01*
X143647432Y-126935744D01*
X143566254Y-127003860D01*
X143566252Y-127003862D01*
X143513265Y-127095638D01*
X143494864Y-127200000D01*
X137400500Y-127200000D01*
X137400500Y-126499999D01*
X143094864Y-126499999D01*
X143113265Y-126604361D01*
X143113265Y-126604362D01*
X143113266Y-126604363D01*
X143166252Y-126696138D01*
X143247432Y-126764256D01*
X143347014Y-126800500D01*
X143452985Y-126800500D01*
X143452986Y-126800500D01*
X143552568Y-126764256D01*
X143633748Y-126696138D01*
X143686734Y-126604363D01*
X143705136Y-126500000D01*
X143686734Y-126395637D01*
X143633748Y-126303862D01*
X143552568Y-126235744D01*
X143452986Y-126199500D01*
X143347014Y-126199500D01*
X143247432Y-126235743D01*
X143247432Y-126235744D01*
X143166252Y-126303862D01*
X143113265Y-126395638D01*
X143094864Y-126499999D01*
X137400500Y-126499999D01*
X137400500Y-124750000D01*
X142294864Y-124750000D01*
X142313265Y-124854361D01*
X142313265Y-124854362D01*
X142313266Y-124854363D01*
X142366252Y-124946138D01*
X142447432Y-125014256D01*
X142547014Y-125050500D01*
X142547015Y-125050500D01*
X142603065Y-125050500D01*
X142647496Y-125061030D01*
X142682475Y-125090381D01*
X142700561Y-125132309D01*
X142713265Y-125204361D01*
X142713265Y-125204362D01*
X142713266Y-125204363D01*
X142766252Y-125296138D01*
X142847432Y-125364256D01*
X142947014Y-125400500D01*
X143052985Y-125400500D01*
X143052986Y-125400500D01*
X143152568Y-125364256D01*
X143233748Y-125296138D01*
X143286734Y-125204363D01*
X143305136Y-125100000D01*
X148694864Y-125100000D01*
X148713265Y-125204361D01*
X148713265Y-125204362D01*
X148713266Y-125204363D01*
X148766252Y-125296138D01*
X148847432Y-125364256D01*
X148947014Y-125400500D01*
X149052985Y-125400500D01*
X149052986Y-125400500D01*
X149152568Y-125364256D01*
X149233748Y-125296138D01*
X149286734Y-125204363D01*
X149302504Y-125114925D01*
X149309784Y-125099999D01*
X149490215Y-125099999D01*
X149497496Y-125114926D01*
X149513265Y-125204361D01*
X149513265Y-125204362D01*
X149513266Y-125204363D01*
X149566252Y-125296138D01*
X149647432Y-125364256D01*
X149747014Y-125400500D01*
X149852985Y-125400500D01*
X149852986Y-125400500D01*
X149952568Y-125364256D01*
X150033748Y-125296138D01*
X150086734Y-125204363D01*
X150105136Y-125100000D01*
X150086734Y-124995637D01*
X150033748Y-124903862D01*
X149952568Y-124835744D01*
X149852986Y-124799500D01*
X149747014Y-124799500D01*
X149692940Y-124819181D01*
X149647432Y-124835744D01*
X149566252Y-124903862D01*
X149513265Y-124995638D01*
X149497496Y-125085073D01*
X149490215Y-125099999D01*
X149309784Y-125099999D01*
X149302504Y-125085073D01*
X149286734Y-124995638D01*
X149286734Y-124995637D01*
X149233748Y-124903862D01*
X149152568Y-124835744D01*
X149052986Y-124799500D01*
X148947014Y-124799500D01*
X148892940Y-124819181D01*
X148847432Y-124835744D01*
X148766252Y-124903862D01*
X148713265Y-124995638D01*
X148694864Y-125100000D01*
X143305136Y-125100000D01*
X143286734Y-124995637D01*
X143233748Y-124903862D01*
X143152568Y-124835744D01*
X143052986Y-124799500D01*
X142996935Y-124799500D01*
X142952504Y-124788970D01*
X142917525Y-124759619D01*
X142899439Y-124717691D01*
X142886734Y-124645638D01*
X142886734Y-124645637D01*
X142833748Y-124553862D01*
X142752568Y-124485744D01*
X142652986Y-124449500D01*
X142547014Y-124449500D01*
X142447431Y-124485744D01*
X142447432Y-124485744D01*
X142366252Y-124553862D01*
X142313265Y-124645638D01*
X142294864Y-124750000D01*
X137400500Y-124750000D01*
X137400500Y-123749999D01*
X141894864Y-123749999D01*
X141913265Y-123854361D01*
X141913265Y-123854362D01*
X141913266Y-123854363D01*
X141966252Y-123946138D01*
X142047432Y-124014256D01*
X142147014Y-124050500D01*
X142252985Y-124050500D01*
X142252986Y-124050500D01*
X142352568Y-124014256D01*
X142433748Y-123946138D01*
X142486734Y-123854363D01*
X142505136Y-123750000D01*
X142486734Y-123645637D01*
X142433748Y-123553862D01*
X142352568Y-123485744D01*
X142252986Y-123449500D01*
X142147014Y-123449500D01*
X142047431Y-123485744D01*
X142047432Y-123485744D01*
X141966252Y-123553862D01*
X141913265Y-123645638D01*
X141894864Y-123749999D01*
X137400500Y-123749999D01*
X137400500Y-123250000D01*
X147994864Y-123250000D01*
X148013265Y-123354361D01*
X148013265Y-123354362D01*
X148013266Y-123354363D01*
X148066252Y-123446138D01*
X148147432Y-123514256D01*
X148247014Y-123550500D01*
X148352985Y-123550500D01*
X148352986Y-123550500D01*
X148452568Y-123514256D01*
X148533748Y-123446138D01*
X148586734Y-123354363D01*
X148605136Y-123250000D01*
X148586734Y-123145637D01*
X148533748Y-123053862D01*
X148452568Y-122985744D01*
X148352986Y-122949500D01*
X148247014Y-122949500D01*
X148147432Y-122985743D01*
X148147432Y-122985744D01*
X148066252Y-123053862D01*
X148013265Y-123145638D01*
X147994864Y-123250000D01*
X137400500Y-123250000D01*
X137400500Y-121750000D01*
X140194864Y-121750000D01*
X140213265Y-121854361D01*
X140213265Y-121854362D01*
X140213266Y-121854363D01*
X140266252Y-121946138D01*
X140347432Y-122014256D01*
X140447014Y-122050500D01*
X140552985Y-122050500D01*
X140552986Y-122050500D01*
X140652568Y-122014256D01*
X140733748Y-121946138D01*
X140786734Y-121854363D01*
X140805136Y-121750000D01*
X140786734Y-121645637D01*
X140733748Y-121553862D01*
X140652568Y-121485744D01*
X140552986Y-121449500D01*
X140447014Y-121449500D01*
X140347432Y-121485743D01*
X140347432Y-121485744D01*
X140266252Y-121553862D01*
X140213265Y-121645638D01*
X140194864Y-121750000D01*
X137400500Y-121750000D01*
X137400500Y-121249999D01*
X143694864Y-121249999D01*
X143713265Y-121354361D01*
X143713265Y-121354362D01*
X143713266Y-121354363D01*
X143766252Y-121446138D01*
X143847432Y-121514256D01*
X143947014Y-121550500D01*
X144052985Y-121550500D01*
X144052986Y-121550500D01*
X144152568Y-121514256D01*
X144233748Y-121446138D01*
X144286734Y-121354363D01*
X144305136Y-121250000D01*
X144305136Y-121249999D01*
X144694864Y-121249999D01*
X144713265Y-121354361D01*
X144713265Y-121354362D01*
X144713266Y-121354363D01*
X144766252Y-121446138D01*
X144847432Y-121514256D01*
X144947014Y-121550500D01*
X145052985Y-121550500D01*
X145052986Y-121550500D01*
X145152568Y-121514256D01*
X145233748Y-121446138D01*
X145286734Y-121354363D01*
X145305136Y-121250000D01*
X145286734Y-121145637D01*
X145233748Y-121053862D01*
X145152568Y-120985744D01*
X145052986Y-120949500D01*
X144947014Y-120949500D01*
X144847432Y-120985743D01*
X144847432Y-120985744D01*
X144766252Y-121053862D01*
X144713265Y-121145638D01*
X144694864Y-121249999D01*
X144305136Y-121249999D01*
X144286734Y-121145637D01*
X144233748Y-121053862D01*
X144152568Y-120985744D01*
X144052986Y-120949500D01*
X143947014Y-120949500D01*
X143847432Y-120985743D01*
X143847432Y-120985744D01*
X143766252Y-121053862D01*
X143713265Y-121145638D01*
X143694864Y-121249999D01*
X137400500Y-121249999D01*
X137400500Y-120749999D01*
X140194864Y-120749999D01*
X140213265Y-120854361D01*
X140213265Y-120854362D01*
X140213266Y-120854363D01*
X140266252Y-120946138D01*
X140347432Y-121014256D01*
X140447014Y-121050500D01*
X140552985Y-121050500D01*
X140552986Y-121050500D01*
X140652568Y-121014256D01*
X140733748Y-120946138D01*
X140786734Y-120854363D01*
X140805136Y-120750000D01*
X140786734Y-120645637D01*
X140733748Y-120553862D01*
X140733745Y-120553860D01*
X140731229Y-120549501D01*
X140717965Y-120500000D01*
X140731229Y-120450499D01*
X140733745Y-120446139D01*
X140733748Y-120446138D01*
X140760386Y-120399999D01*
X152544864Y-120399999D01*
X152563265Y-120504361D01*
X152563265Y-120504362D01*
X152563266Y-120504363D01*
X152616252Y-120596138D01*
X152697432Y-120664256D01*
X152797014Y-120700500D01*
X152902985Y-120700500D01*
X152902986Y-120700500D01*
X153002568Y-120664256D01*
X153083748Y-120596138D01*
X153101071Y-120566132D01*
X153137307Y-120529898D01*
X153186807Y-120516634D01*
X153236307Y-120529897D01*
X153251760Y-120545350D01*
X153252880Y-120544016D01*
X153266251Y-120555235D01*
X153266252Y-120555237D01*
X153347432Y-120623355D01*
X153447014Y-120659599D01*
X153552985Y-120659599D01*
X153552986Y-120659599D01*
X153652568Y-120623355D01*
X153733748Y-120555237D01*
X153757303Y-120514437D01*
X153798606Y-120475470D01*
X153854531Y-120465608D01*
X153906674Y-120488100D01*
X153916250Y-120496135D01*
X153916252Y-120496138D01*
X153997432Y-120564256D01*
X154097014Y-120600500D01*
X154202985Y-120600500D01*
X154202986Y-120600500D01*
X154302568Y-120564256D01*
X154383748Y-120496138D01*
X154436734Y-120404363D01*
X154455136Y-120300000D01*
X154436734Y-120195637D01*
X154383748Y-120103862D01*
X154302568Y-120035744D01*
X154202986Y-119999500D01*
X154097014Y-119999500D01*
X153997432Y-120035744D01*
X153921451Y-120099500D01*
X153916251Y-120103863D01*
X153892697Y-120144660D01*
X153851392Y-120183629D01*
X153795468Y-120193490D01*
X153743325Y-120170998D01*
X153733749Y-120162962D01*
X153733748Y-120162961D01*
X153652568Y-120094843D01*
X153552986Y-120058599D01*
X153447014Y-120058599D01*
X153358854Y-120090686D01*
X153347432Y-120094843D01*
X153266249Y-120162963D01*
X153248927Y-120192966D01*
X153212689Y-120229202D01*
X153163187Y-120242464D01*
X153113687Y-120229197D01*
X153098239Y-120213748D01*
X153097120Y-120215083D01*
X153083748Y-120203863D01*
X153083748Y-120203862D01*
X153002568Y-120135744D01*
X152902986Y-120099500D01*
X152797014Y-120099500D01*
X152697431Y-120135744D01*
X152697432Y-120135744D01*
X152616252Y-120203862D01*
X152563265Y-120295638D01*
X152544864Y-120399999D01*
X140760386Y-120399999D01*
X140786734Y-120354363D01*
X140805136Y-120250000D01*
X140786734Y-120145637D01*
X140733748Y-120053862D01*
X140652568Y-119985744D01*
X140552986Y-119949500D01*
X140447014Y-119949500D01*
X140347431Y-119985744D01*
X140347432Y-119985744D01*
X140266252Y-120053862D01*
X140213265Y-120145638D01*
X140194864Y-120250000D01*
X140213265Y-120354363D01*
X140268770Y-120450499D01*
X140282034Y-120499999D01*
X140268771Y-120549499D01*
X140213265Y-120645638D01*
X140194864Y-120749999D01*
X137400500Y-120749999D01*
X137400500Y-119903003D01*
X158547867Y-119903003D01*
X158566268Y-120007364D01*
X158566268Y-120007365D01*
X158566269Y-120007366D01*
X158619255Y-120099141D01*
X158700435Y-120167259D01*
X158800017Y-120203503D01*
X158905988Y-120203503D01*
X158905989Y-120203503D01*
X159005571Y-120167259D01*
X159086751Y-120099141D01*
X159091633Y-120090684D01*
X159127866Y-120054450D01*
X159177367Y-120041186D01*
X159226868Y-120054449D01*
X159263103Y-120090684D01*
X159266252Y-120096138D01*
X159347432Y-120164256D01*
X159447014Y-120200500D01*
X159552985Y-120200500D01*
X159552986Y-120200500D01*
X159652568Y-120164256D01*
X159733748Y-120096138D01*
X159786734Y-120004363D01*
X159805136Y-119900000D01*
X159786734Y-119795637D01*
X159733748Y-119703862D01*
X159652568Y-119635744D01*
X159552986Y-119599500D01*
X159447014Y-119599500D01*
X159347431Y-119635744D01*
X159347432Y-119635744D01*
X159266249Y-119703864D01*
X159261369Y-119712318D01*
X159225132Y-119748554D01*
X159175632Y-119761816D01*
X159126132Y-119748552D01*
X159089897Y-119712314D01*
X159086752Y-119706866D01*
X159086751Y-119706865D01*
X159005571Y-119638747D01*
X158905989Y-119602503D01*
X158800017Y-119602503D01*
X158708686Y-119635744D01*
X158700435Y-119638747D01*
X158619255Y-119706865D01*
X158566268Y-119798641D01*
X158547867Y-119903003D01*
X137400500Y-119903003D01*
X137400500Y-119250000D01*
X141194864Y-119250000D01*
X141213265Y-119354361D01*
X141213265Y-119354362D01*
X141213266Y-119354363D01*
X141266252Y-119446138D01*
X141347432Y-119514256D01*
X141447014Y-119550500D01*
X141552985Y-119550500D01*
X141552986Y-119550500D01*
X141652568Y-119514256D01*
X141733748Y-119446138D01*
X141786734Y-119354363D01*
X141805136Y-119250000D01*
X141786734Y-119145637D01*
X141733748Y-119053862D01*
X141652568Y-118985744D01*
X141552986Y-118949500D01*
X141447014Y-118949500D01*
X141347431Y-118985744D01*
X141347432Y-118985744D01*
X141266252Y-119053862D01*
X141213265Y-119145638D01*
X141194864Y-119250000D01*
X137400500Y-119250000D01*
X137400500Y-118499999D01*
X140694864Y-118499999D01*
X140713265Y-118604361D01*
X140713265Y-118604362D01*
X140713266Y-118604363D01*
X140766252Y-118696138D01*
X140847432Y-118764256D01*
X140947014Y-118800500D01*
X141052985Y-118800500D01*
X141052986Y-118800500D01*
X141152568Y-118764256D01*
X141233748Y-118696138D01*
X141286734Y-118604363D01*
X141305136Y-118500000D01*
X141286734Y-118395637D01*
X141233748Y-118303862D01*
X141152568Y-118235744D01*
X141052986Y-118199500D01*
X140947014Y-118199500D01*
X140847431Y-118235744D01*
X140847432Y-118235744D01*
X140766252Y-118303862D01*
X140713265Y-118395638D01*
X140694864Y-118499999D01*
X137400500Y-118499999D01*
X137400500Y-117900000D01*
X159844864Y-117900000D01*
X159863265Y-118004361D01*
X159863265Y-118004362D01*
X159863266Y-118004363D01*
X159916252Y-118096138D01*
X159997432Y-118164256D01*
X160097014Y-118200500D01*
X160202985Y-118200500D01*
X160202986Y-118200500D01*
X160302568Y-118164256D01*
X160383748Y-118096138D01*
X160436734Y-118004363D01*
X160455136Y-117900000D01*
X160436734Y-117795637D01*
X160383748Y-117703862D01*
X160302568Y-117635744D01*
X160202986Y-117599500D01*
X160097014Y-117599500D01*
X159997431Y-117635744D01*
X159997432Y-117635744D01*
X159916252Y-117703862D01*
X159863265Y-117795638D01*
X159844864Y-117900000D01*
X137400500Y-117900000D01*
X137400500Y-117000000D01*
X154694864Y-117000000D01*
X154713265Y-117104361D01*
X154713265Y-117104362D01*
X154713266Y-117104363D01*
X154766252Y-117196138D01*
X154847432Y-117264256D01*
X154947014Y-117300500D01*
X155052985Y-117300500D01*
X155052986Y-117300500D01*
X155152568Y-117264256D01*
X155233748Y-117196138D01*
X155286734Y-117104363D01*
X155305136Y-117000000D01*
X160694864Y-117000000D01*
X160713265Y-117104361D01*
X160713265Y-117104362D01*
X160713266Y-117104363D01*
X160766252Y-117196138D01*
X160847432Y-117264256D01*
X160947014Y-117300500D01*
X161052985Y-117300500D01*
X161052986Y-117300500D01*
X161152568Y-117264256D01*
X161233748Y-117196138D01*
X161286734Y-117104363D01*
X161305136Y-117000000D01*
X161286734Y-116895637D01*
X161233748Y-116803862D01*
X161152568Y-116735744D01*
X161052986Y-116699500D01*
X160947014Y-116699500D01*
X160847431Y-116735744D01*
X160847432Y-116735744D01*
X160766252Y-116803862D01*
X160713265Y-116895638D01*
X160694864Y-117000000D01*
X155305136Y-117000000D01*
X155286734Y-116895637D01*
X155233748Y-116803862D01*
X155152568Y-116735744D01*
X155052986Y-116699500D01*
X154947014Y-116699500D01*
X154847431Y-116735744D01*
X154847432Y-116735744D01*
X154766252Y-116803862D01*
X154713265Y-116895638D01*
X154694864Y-117000000D01*
X137400500Y-117000000D01*
X137400500Y-114999999D01*
X154694864Y-114999999D01*
X154713265Y-115104361D01*
X154713265Y-115104362D01*
X154713266Y-115104363D01*
X154766252Y-115196138D01*
X154847432Y-115264256D01*
X154947014Y-115300500D01*
X155052985Y-115300500D01*
X155052986Y-115300500D01*
X155152568Y-115264256D01*
X155229145Y-115200000D01*
X160694864Y-115200000D01*
X160713265Y-115304361D01*
X160713265Y-115304362D01*
X160713266Y-115304363D01*
X160766252Y-115396138D01*
X160847432Y-115464256D01*
X160947014Y-115500500D01*
X161052985Y-115500500D01*
X161052986Y-115500500D01*
X161152568Y-115464256D01*
X161233748Y-115396138D01*
X161286734Y-115304363D01*
X161305136Y-115200000D01*
X161286734Y-115095637D01*
X161233748Y-115003862D01*
X161152568Y-114935744D01*
X161052986Y-114899500D01*
X160947014Y-114899500D01*
X160847432Y-114935743D01*
X160847432Y-114935744D01*
X160766252Y-115003862D01*
X160713265Y-115095638D01*
X160694864Y-115200000D01*
X155229145Y-115200000D01*
X155233748Y-115196138D01*
X155286734Y-115104363D01*
X155305136Y-115000000D01*
X155286734Y-114895637D01*
X155233748Y-114803862D01*
X155152568Y-114735744D01*
X155052986Y-114699500D01*
X154947014Y-114699500D01*
X154847432Y-114735743D01*
X154847432Y-114735744D01*
X154766252Y-114803862D01*
X154713265Y-114895638D01*
X154694864Y-114999999D01*
X137400500Y-114999999D01*
X137400500Y-114300000D01*
X156194864Y-114300000D01*
X156213265Y-114404361D01*
X156213265Y-114404362D01*
X156213266Y-114404363D01*
X156266252Y-114496138D01*
X156347432Y-114564256D01*
X156447014Y-114600500D01*
X156552985Y-114600500D01*
X156552986Y-114600500D01*
X156652568Y-114564256D01*
X156733748Y-114496138D01*
X156786734Y-114404363D01*
X156805136Y-114300000D01*
X156786734Y-114195637D01*
X156733748Y-114103862D01*
X156652568Y-114035744D01*
X156552986Y-113999500D01*
X156447014Y-113999500D01*
X156347432Y-114035743D01*
X156347432Y-114035744D01*
X156266252Y-114103862D01*
X156213265Y-114195638D01*
X156194864Y-114300000D01*
X137400500Y-114300000D01*
X137400500Y-113000000D01*
X161694864Y-113000000D01*
X161713265Y-113104361D01*
X161713265Y-113104362D01*
X161713266Y-113104363D01*
X161766252Y-113196138D01*
X161847432Y-113264256D01*
X161947014Y-113300500D01*
X162052985Y-113300500D01*
X162052986Y-113300500D01*
X162152568Y-113264256D01*
X162233748Y-113196138D01*
X162286734Y-113104363D01*
X162305136Y-113000000D01*
X162286734Y-112895637D01*
X162233748Y-112803862D01*
X162152568Y-112735744D01*
X162052986Y-112699500D01*
X161947014Y-112699500D01*
X161847431Y-112735744D01*
X161847432Y-112735744D01*
X161766252Y-112803862D01*
X161713265Y-112895638D01*
X161694864Y-113000000D01*
X137400500Y-113000000D01*
X137400500Y-111299999D01*
X138357364Y-111299999D01*
X138375765Y-111404361D01*
X138375765Y-111404362D01*
X138375766Y-111404363D01*
X138428752Y-111496138D01*
X138509932Y-111564256D01*
X138609514Y-111600500D01*
X138715485Y-111600500D01*
X138715486Y-111600500D01*
X138815068Y-111564256D01*
X138896248Y-111496138D01*
X138949234Y-111404363D01*
X138967636Y-111300000D01*
X138967636Y-111299999D01*
X151944864Y-111299999D01*
X151963265Y-111404361D01*
X151963265Y-111404362D01*
X151963266Y-111404363D01*
X152016252Y-111496138D01*
X152097432Y-111564256D01*
X152197014Y-111600500D01*
X152302985Y-111600500D01*
X152302986Y-111600500D01*
X152402568Y-111564256D01*
X152483748Y-111496138D01*
X152536734Y-111404363D01*
X152555136Y-111300000D01*
X152536734Y-111195637D01*
X152483748Y-111103862D01*
X152402568Y-111035744D01*
X152302986Y-110999500D01*
X152197014Y-110999500D01*
X152097431Y-111035744D01*
X152097432Y-111035744D01*
X152016252Y-111103862D01*
X151963265Y-111195638D01*
X151944864Y-111299999D01*
X138967636Y-111299999D01*
X138949234Y-111195637D01*
X138896248Y-111103862D01*
X138815068Y-111035744D01*
X138715486Y-110999500D01*
X138609514Y-110999500D01*
X138509931Y-111035744D01*
X138509932Y-111035744D01*
X138428752Y-111103862D01*
X138375765Y-111195638D01*
X138357364Y-111299999D01*
X137400500Y-111299999D01*
X137400500Y-109900000D01*
X142494864Y-109900000D01*
X142513265Y-110004361D01*
X142513265Y-110004362D01*
X142513266Y-110004363D01*
X142566252Y-110096138D01*
X142647432Y-110164256D01*
X142747014Y-110200500D01*
X142852985Y-110200500D01*
X142852986Y-110200500D01*
X142952568Y-110164256D01*
X143033748Y-110096138D01*
X143033749Y-110096136D01*
X143036364Y-110093942D01*
X143077169Y-110073450D01*
X143122831Y-110073450D01*
X143163636Y-110093942D01*
X143166250Y-110096136D01*
X143166252Y-110096138D01*
X143247432Y-110164256D01*
X143347014Y-110200500D01*
X143452985Y-110200500D01*
X143452986Y-110200500D01*
X143552568Y-110164256D01*
X143633748Y-110096138D01*
X143686734Y-110004363D01*
X143687503Y-110000000D01*
X152944864Y-110000000D01*
X152963265Y-110104361D01*
X152963265Y-110104362D01*
X152963266Y-110104363D01*
X153016252Y-110196138D01*
X153097432Y-110264256D01*
X153197014Y-110300500D01*
X153302985Y-110300500D01*
X153302986Y-110300500D01*
X153402568Y-110264256D01*
X153483748Y-110196138D01*
X153536734Y-110104363D01*
X153555136Y-110000000D01*
X153536734Y-109895637D01*
X153483748Y-109803862D01*
X153402568Y-109735744D01*
X153354142Y-109718119D01*
X153306908Y-109681874D01*
X153289004Y-109625089D01*
X153306908Y-109568305D01*
X153354142Y-109532061D01*
X153403065Y-109514256D01*
X153436614Y-109486104D01*
X153477417Y-109465613D01*
X153523078Y-109465612D01*
X153563881Y-109486103D01*
X153597432Y-109514256D01*
X153697014Y-109550500D01*
X153802985Y-109550500D01*
X153802986Y-109550500D01*
X153902568Y-109514256D01*
X153919559Y-109499999D01*
X161694864Y-109499999D01*
X161713265Y-109604361D01*
X161713265Y-109604362D01*
X161713266Y-109604363D01*
X161766252Y-109696138D01*
X161847432Y-109764256D01*
X161947014Y-109800500D01*
X162052985Y-109800500D01*
X162052986Y-109800500D01*
X162152568Y-109764256D01*
X162233748Y-109696138D01*
X162286734Y-109604363D01*
X162305136Y-109500000D01*
X162286734Y-109395637D01*
X162233748Y-109303862D01*
X162152568Y-109235744D01*
X162052986Y-109199500D01*
X161947014Y-109199500D01*
X161847432Y-109235743D01*
X161847432Y-109235744D01*
X161766252Y-109303862D01*
X161713265Y-109395638D01*
X161694864Y-109499999D01*
X153919559Y-109499999D01*
X153983748Y-109446138D01*
X154036734Y-109354363D01*
X154055136Y-109250000D01*
X154036734Y-109145637D01*
X154004612Y-109089999D01*
X158004864Y-109089999D01*
X158023265Y-109194361D01*
X158023265Y-109194362D01*
X158023266Y-109194363D01*
X158076252Y-109286138D01*
X158157432Y-109354256D01*
X158257014Y-109390500D01*
X158362985Y-109390500D01*
X158362986Y-109390500D01*
X158462568Y-109354256D01*
X158543748Y-109286138D01*
X158596734Y-109194363D01*
X158615136Y-109090000D01*
X158596734Y-108985637D01*
X158543748Y-108893862D01*
X158462568Y-108825744D01*
X158362986Y-108789500D01*
X158257014Y-108789500D01*
X158157432Y-108825743D01*
X158157432Y-108825744D01*
X158076252Y-108893862D01*
X158023265Y-108985638D01*
X158004864Y-109089999D01*
X154004612Y-109089999D01*
X153983748Y-109053862D01*
X153902568Y-108985744D01*
X153802986Y-108949500D01*
X153697014Y-108949500D01*
X153597726Y-108985637D01*
X153597432Y-108985744D01*
X153563883Y-109013895D01*
X153523078Y-109034387D01*
X153477417Y-109034386D01*
X153436613Y-109013894D01*
X153403066Y-108985745D01*
X153403065Y-108985744D01*
X153303483Y-108949500D01*
X153197511Y-108949500D01*
X153098223Y-108985637D01*
X153097929Y-108985744D01*
X153016749Y-109053862D01*
X152963762Y-109145638D01*
X152945361Y-109249999D01*
X152963762Y-109354361D01*
X152963762Y-109354362D01*
X152963763Y-109354363D01*
X153016749Y-109446138D01*
X153097929Y-109514256D01*
X153146352Y-109531880D01*
X153193588Y-109568124D01*
X153211492Y-109624908D01*
X153193588Y-109681693D01*
X153146352Y-109717938D01*
X153097435Y-109735742D01*
X153097433Y-109735743D01*
X153097432Y-109735744D01*
X153063454Y-109764255D01*
X153016252Y-109803862D01*
X152963265Y-109895638D01*
X152944864Y-110000000D01*
X143687503Y-110000000D01*
X143705136Y-109900000D01*
X143686734Y-109795637D01*
X143633748Y-109703862D01*
X143552568Y-109635744D01*
X143452986Y-109599500D01*
X143347014Y-109599500D01*
X143247432Y-109635744D01*
X143247431Y-109635744D01*
X143247430Y-109635745D01*
X143163635Y-109706057D01*
X143122831Y-109726550D01*
X143077169Y-109726550D01*
X143036365Y-109706057D01*
X142952569Y-109635745D01*
X142952568Y-109635744D01*
X142852986Y-109599500D01*
X142747014Y-109599500D01*
X142676707Y-109625089D01*
X142647432Y-109635744D01*
X142566252Y-109703862D01*
X142513265Y-109795638D01*
X142494864Y-109900000D01*
X137400500Y-109900000D01*
X137400500Y-108400000D01*
X141944864Y-108400000D01*
X141963265Y-108504361D01*
X141963265Y-108504362D01*
X141963266Y-108504363D01*
X142016252Y-108596138D01*
X142097432Y-108664256D01*
X142197014Y-108700500D01*
X142302985Y-108700500D01*
X142302986Y-108700500D01*
X142402568Y-108664256D01*
X142483748Y-108596138D01*
X142536734Y-108504363D01*
X142555136Y-108400000D01*
X143444864Y-108400000D01*
X143463265Y-108504361D01*
X143463265Y-108504362D01*
X143463266Y-108504363D01*
X143516252Y-108596138D01*
X143597432Y-108664256D01*
X143697014Y-108700500D01*
X143802985Y-108700500D01*
X143802986Y-108700500D01*
X143902568Y-108664256D01*
X143983748Y-108596138D01*
X144036734Y-108504363D01*
X144055136Y-108400000D01*
X144944864Y-108400000D01*
X144963265Y-108504361D01*
X144963265Y-108504362D01*
X144963266Y-108504363D01*
X145016252Y-108596138D01*
X145097432Y-108664256D01*
X145197014Y-108700500D01*
X145302985Y-108700500D01*
X145302986Y-108700500D01*
X145402568Y-108664256D01*
X145483748Y-108596138D01*
X145536734Y-108504363D01*
X145537503Y-108499999D01*
X148194864Y-108499999D01*
X148213265Y-108604361D01*
X148213265Y-108604362D01*
X148213266Y-108604363D01*
X148266252Y-108696138D01*
X148347432Y-108764256D01*
X148447014Y-108800500D01*
X148552985Y-108800500D01*
X148552986Y-108800500D01*
X148652568Y-108764256D01*
X148733748Y-108696138D01*
X148786734Y-108604363D01*
X148805136Y-108500000D01*
X148786734Y-108395637D01*
X148733748Y-108303862D01*
X148669558Y-108250000D01*
X153944864Y-108250000D01*
X153963265Y-108354361D01*
X153963265Y-108354362D01*
X153963266Y-108354363D01*
X154016252Y-108446138D01*
X154097432Y-108514256D01*
X154197014Y-108550500D01*
X154302985Y-108550500D01*
X154302986Y-108550500D01*
X154402568Y-108514256D01*
X154436614Y-108485687D01*
X154477417Y-108465196D01*
X154523078Y-108465195D01*
X154563881Y-108485686D01*
X154597929Y-108514256D01*
X154697511Y-108550500D01*
X154803482Y-108550500D01*
X154803483Y-108550500D01*
X154903065Y-108514256D01*
X154936614Y-108486104D01*
X154977417Y-108465613D01*
X155023078Y-108465612D01*
X155063881Y-108486103D01*
X155097432Y-108514256D01*
X155197014Y-108550500D01*
X155302985Y-108550500D01*
X155302986Y-108550500D01*
X155402568Y-108514256D01*
X155483748Y-108446138D01*
X155536734Y-108354363D01*
X155555136Y-108250000D01*
X155536734Y-108145637D01*
X155483748Y-108053862D01*
X155402568Y-107985744D01*
X155302986Y-107949500D01*
X155197014Y-107949500D01*
X155097432Y-107985743D01*
X155097432Y-107985744D01*
X155063883Y-108013895D01*
X155023078Y-108034387D01*
X154977417Y-108034386D01*
X154936613Y-108013894D01*
X154903066Y-107985745D01*
X154903065Y-107985744D01*
X154803483Y-107949500D01*
X154697511Y-107949500D01*
X154597929Y-107985743D01*
X154597929Y-107985744D01*
X154563883Y-108014312D01*
X154523078Y-108034804D01*
X154477417Y-108034803D01*
X154436613Y-108014311D01*
X154402569Y-107985745D01*
X154402568Y-107985744D01*
X154302986Y-107949500D01*
X154197014Y-107949500D01*
X154097432Y-107985743D01*
X154097432Y-107985744D01*
X154016252Y-108053862D01*
X153963265Y-108145638D01*
X153944864Y-108250000D01*
X148669558Y-108250000D01*
X148652568Y-108235744D01*
X148552986Y-108199500D01*
X148447014Y-108199500D01*
X148347432Y-108235743D01*
X148347432Y-108235744D01*
X148266252Y-108303862D01*
X148213265Y-108395638D01*
X148194864Y-108499999D01*
X145537503Y-108499999D01*
X145555136Y-108400000D01*
X145536734Y-108295637D01*
X145483748Y-108203862D01*
X145402568Y-108135744D01*
X145302986Y-108099500D01*
X145197014Y-108099500D01*
X145097431Y-108135744D01*
X145097432Y-108135744D01*
X145016252Y-108203862D01*
X144963265Y-108295638D01*
X144944864Y-108400000D01*
X144055136Y-108400000D01*
X144036734Y-108295637D01*
X143983748Y-108203862D01*
X143902568Y-108135744D01*
X143802986Y-108099500D01*
X143697014Y-108099500D01*
X143597431Y-108135744D01*
X143597432Y-108135744D01*
X143516252Y-108203862D01*
X143463265Y-108295638D01*
X143444864Y-108400000D01*
X142555136Y-108400000D01*
X142536734Y-108295637D01*
X142483748Y-108203862D01*
X142402568Y-108135744D01*
X142302986Y-108099500D01*
X142197014Y-108099500D01*
X142097431Y-108135744D01*
X142097432Y-108135744D01*
X142016252Y-108203862D01*
X141963265Y-108295638D01*
X141944864Y-108400000D01*
X137400500Y-108400000D01*
X137400500Y-107800000D01*
X157994864Y-107800000D01*
X158013265Y-107904361D01*
X158013265Y-107904362D01*
X158013266Y-107904363D01*
X158066252Y-107996138D01*
X158147432Y-108064256D01*
X158247014Y-108100500D01*
X158352985Y-108100500D01*
X158352986Y-108100500D01*
X158452568Y-108064256D01*
X158533748Y-107996138D01*
X158586734Y-107904363D01*
X158605136Y-107800000D01*
X158586734Y-107695637D01*
X158533748Y-107603862D01*
X158452568Y-107535744D01*
X158352986Y-107499500D01*
X158247014Y-107499500D01*
X158147432Y-107535743D01*
X158147432Y-107535744D01*
X158066252Y-107603862D01*
X158013265Y-107695638D01*
X157994864Y-107800000D01*
X137400500Y-107800000D01*
X137400500Y-106600000D01*
X138694864Y-106600000D01*
X138713265Y-106704361D01*
X138713265Y-106704362D01*
X138713266Y-106704363D01*
X138766252Y-106796138D01*
X138847432Y-106864256D01*
X138947014Y-106900500D01*
X139052985Y-106900500D01*
X139052986Y-106900500D01*
X139152568Y-106864256D01*
X139233748Y-106796138D01*
X139286734Y-106704363D01*
X139305136Y-106600000D01*
X146694864Y-106600000D01*
X146713265Y-106704361D01*
X146713265Y-106704362D01*
X146713266Y-106704363D01*
X146766252Y-106796138D01*
X146847432Y-106864256D01*
X146947014Y-106900500D01*
X147052985Y-106900500D01*
X147052986Y-106900500D01*
X147152568Y-106864256D01*
X147229145Y-106800000D01*
X153094864Y-106800000D01*
X153113265Y-106904361D01*
X153113265Y-106904362D01*
X153113266Y-106904363D01*
X153166252Y-106996138D01*
X153247432Y-107064256D01*
X153347014Y-107100500D01*
X153452985Y-107100500D01*
X153452986Y-107100500D01*
X153552568Y-107064256D01*
X153633748Y-106996138D01*
X153686734Y-106904363D01*
X153705136Y-106800000D01*
X153686734Y-106695637D01*
X153633748Y-106603862D01*
X153552568Y-106535744D01*
X153452986Y-106499500D01*
X153347014Y-106499500D01*
X153247432Y-106535743D01*
X153247432Y-106535744D01*
X153166252Y-106603862D01*
X153113265Y-106695638D01*
X153094864Y-106800000D01*
X147229145Y-106800000D01*
X147233748Y-106796138D01*
X147286734Y-106704363D01*
X147305136Y-106600000D01*
X147286734Y-106495637D01*
X147233748Y-106403862D01*
X147152568Y-106335744D01*
X147052986Y-106299500D01*
X146947014Y-106299500D01*
X146847432Y-106335743D01*
X146847432Y-106335744D01*
X146766252Y-106403862D01*
X146713265Y-106495638D01*
X146694864Y-106600000D01*
X139305136Y-106600000D01*
X139286734Y-106495637D01*
X139233748Y-106403862D01*
X139152568Y-106335744D01*
X139052986Y-106299500D01*
X138947014Y-106299500D01*
X138847432Y-106335743D01*
X138847432Y-106335744D01*
X138766252Y-106403862D01*
X138713265Y-106495638D01*
X138694864Y-106600000D01*
X137400500Y-106600000D01*
X137400500Y-106200000D01*
X148894864Y-106200000D01*
X148913265Y-106304361D01*
X148913265Y-106304362D01*
X148913266Y-106304363D01*
X148966252Y-106396138D01*
X149047432Y-106464256D01*
X149147014Y-106500500D01*
X149252985Y-106500500D01*
X149252986Y-106500500D01*
X149352568Y-106464256D01*
X149433748Y-106396138D01*
X149486734Y-106304363D01*
X149505136Y-106200000D01*
X149505136Y-106199999D01*
X157994864Y-106199999D01*
X158013265Y-106304361D01*
X158013265Y-106304362D01*
X158013266Y-106304363D01*
X158066252Y-106396138D01*
X158147432Y-106464256D01*
X158247014Y-106500500D01*
X158352985Y-106500500D01*
X158352986Y-106500500D01*
X158452568Y-106464256D01*
X158533748Y-106396138D01*
X158586734Y-106304363D01*
X158605136Y-106200000D01*
X158586734Y-106095637D01*
X158533748Y-106003862D01*
X158452568Y-105935744D01*
X158352986Y-105899500D01*
X158247014Y-105899500D01*
X158147431Y-105935744D01*
X158147432Y-105935744D01*
X158066252Y-106003862D01*
X158013265Y-106095638D01*
X157994864Y-106199999D01*
X149505136Y-106199999D01*
X149486734Y-106095637D01*
X149433748Y-106003862D01*
X149352568Y-105935744D01*
X149252986Y-105899500D01*
X149147014Y-105899500D01*
X149047431Y-105935744D01*
X149047432Y-105935744D01*
X148966252Y-106003862D01*
X148913265Y-106095638D01*
X148894864Y-106200000D01*
X137400500Y-106200000D01*
X137400500Y-104899999D01*
X140294864Y-104899999D01*
X140313265Y-105004361D01*
X140313265Y-105004362D01*
X140313266Y-105004363D01*
X140366252Y-105096138D01*
X140447432Y-105164256D01*
X140547014Y-105200500D01*
X140547015Y-105200500D01*
X140612058Y-105200500D01*
X140666459Y-105216787D01*
X140702961Y-105260288D01*
X140709554Y-105316691D01*
X140694864Y-105400000D01*
X140713265Y-105504361D01*
X140713265Y-105504362D01*
X140713266Y-105504363D01*
X140766252Y-105596138D01*
X140847432Y-105664256D01*
X140947014Y-105700500D01*
X141052985Y-105700500D01*
X141052986Y-105700500D01*
X141152568Y-105664256D01*
X141229145Y-105600000D01*
X142694864Y-105600000D01*
X142713265Y-105704361D01*
X142713265Y-105704362D01*
X142713266Y-105704363D01*
X142766252Y-105796138D01*
X142847432Y-105864256D01*
X142947014Y-105900500D01*
X143052985Y-105900500D01*
X143052986Y-105900500D01*
X143152568Y-105864256D01*
X143233748Y-105796138D01*
X143286734Y-105704363D01*
X143286734Y-105704360D01*
X143289263Y-105699981D01*
X143325500Y-105663745D01*
X143375000Y-105650481D01*
X143424500Y-105663745D01*
X143460737Y-105699981D01*
X143463265Y-105704360D01*
X143463266Y-105704363D01*
X143516252Y-105796138D01*
X143597432Y-105864256D01*
X143697014Y-105900500D01*
X143802985Y-105900500D01*
X143802986Y-105900500D01*
X143902568Y-105864256D01*
X143983748Y-105796138D01*
X144036734Y-105704363D01*
X144055136Y-105600000D01*
X144036734Y-105495637D01*
X143983748Y-105403862D01*
X143902568Y-105335744D01*
X143802986Y-105299500D01*
X143745545Y-105299500D01*
X143696045Y-105286237D01*
X143659809Y-105250000D01*
X143646545Y-105200500D01*
X143646679Y-105200000D01*
X149294864Y-105200000D01*
X149313265Y-105304361D01*
X149313265Y-105304362D01*
X149313266Y-105304363D01*
X149366252Y-105396138D01*
X149447432Y-105464256D01*
X149547014Y-105500500D01*
X149652985Y-105500500D01*
X149652986Y-105500500D01*
X149752568Y-105464256D01*
X149833748Y-105396138D01*
X149886734Y-105304363D01*
X149905136Y-105200000D01*
X157994864Y-105200000D01*
X158013265Y-105304361D01*
X158013265Y-105304362D01*
X158013266Y-105304363D01*
X158066252Y-105396138D01*
X158147432Y-105464256D01*
X158247014Y-105500500D01*
X158352985Y-105500500D01*
X158352986Y-105500500D01*
X158452568Y-105464256D01*
X158533748Y-105396138D01*
X158586734Y-105304363D01*
X158605136Y-105200000D01*
X158586734Y-105095637D01*
X158533748Y-105003862D01*
X158452568Y-104935744D01*
X158352986Y-104899500D01*
X158247014Y-104899500D01*
X158147431Y-104935744D01*
X158147432Y-104935744D01*
X158066252Y-105003862D01*
X158013265Y-105095638D01*
X157994864Y-105200000D01*
X149905136Y-105200000D01*
X149886734Y-105095637D01*
X149833748Y-105003862D01*
X149752568Y-104935744D01*
X149652986Y-104899500D01*
X149547014Y-104899500D01*
X149447431Y-104935744D01*
X149447432Y-104935744D01*
X149366252Y-105003862D01*
X149313265Y-105095638D01*
X149294864Y-105200000D01*
X143646679Y-105200000D01*
X143659808Y-105151000D01*
X143668616Y-105135744D01*
X143686734Y-105104363D01*
X143705136Y-105000000D01*
X143686734Y-104895637D01*
X143633748Y-104803862D01*
X143552568Y-104735744D01*
X143454357Y-104699999D01*
X154944864Y-104699999D01*
X154963265Y-104804361D01*
X154963265Y-104804362D01*
X154963266Y-104804363D01*
X155016252Y-104896138D01*
X155097432Y-104964256D01*
X155197014Y-105000500D01*
X155302985Y-105000500D01*
X155302986Y-105000500D01*
X155402568Y-104964256D01*
X155436366Y-104935895D01*
X155477169Y-104915404D01*
X155522831Y-104915404D01*
X155563633Y-104935895D01*
X155597432Y-104964256D01*
X155697014Y-105000500D01*
X155802985Y-105000500D01*
X155802986Y-105000500D01*
X155902568Y-104964256D01*
X155983748Y-104896138D01*
X156036734Y-104804363D01*
X156055136Y-104700000D01*
X156036734Y-104595637D01*
X155983748Y-104503862D01*
X155902568Y-104435744D01*
X155802986Y-104399500D01*
X155697014Y-104399500D01*
X155597432Y-104435744D01*
X155563633Y-104464104D01*
X155522831Y-104484595D01*
X155477169Y-104484595D01*
X155436366Y-104464104D01*
X155402568Y-104435744D01*
X155302986Y-104399500D01*
X155197014Y-104399500D01*
X155097432Y-104435743D01*
X155097432Y-104435744D01*
X155016252Y-104503862D01*
X154963265Y-104595638D01*
X154944864Y-104699999D01*
X143454357Y-104699999D01*
X143452986Y-104699500D01*
X143347014Y-104699500D01*
X143247431Y-104735744D01*
X143247432Y-104735744D01*
X143166252Y-104803862D01*
X143113265Y-104895638D01*
X143094864Y-105000000D01*
X143113265Y-105104361D01*
X143140192Y-105151000D01*
X143153455Y-105200500D01*
X143140191Y-105250000D01*
X143103955Y-105286237D01*
X143054455Y-105299500D01*
X143052986Y-105299500D01*
X142947014Y-105299500D01*
X142899781Y-105316691D01*
X142847432Y-105335744D01*
X142766252Y-105403862D01*
X142713265Y-105495638D01*
X142694864Y-105600000D01*
X141229145Y-105600000D01*
X141233748Y-105596138D01*
X141286734Y-105504363D01*
X141305136Y-105400000D01*
X141286734Y-105295637D01*
X141233748Y-105203862D01*
X141152568Y-105135744D01*
X141052986Y-105099500D01*
X140987942Y-105099500D01*
X140933541Y-105083213D01*
X140897039Y-105039712D01*
X140890446Y-104983309D01*
X140905136Y-104900000D01*
X140886734Y-104795637D01*
X140833748Y-104703862D01*
X140752568Y-104635744D01*
X140652986Y-104599500D01*
X140547014Y-104599500D01*
X140447431Y-104635744D01*
X140447432Y-104635744D01*
X140366252Y-104703862D01*
X140313265Y-104795638D01*
X140294864Y-104899999D01*
X137400500Y-104899999D01*
X137400500Y-103399999D01*
X141894864Y-103399999D01*
X141913265Y-103504361D01*
X141913265Y-103504362D01*
X141913266Y-103504363D01*
X141966252Y-103596138D01*
X142047432Y-103664256D01*
X142147014Y-103700500D01*
X142252985Y-103700500D01*
X142252986Y-103700500D01*
X142352568Y-103664256D01*
X142433748Y-103596138D01*
X142486734Y-103504363D01*
X142505136Y-103400000D01*
X142505136Y-103399999D01*
X144494864Y-103399999D01*
X144513265Y-103504361D01*
X144513265Y-103504362D01*
X144513266Y-103504363D01*
X144566252Y-103596138D01*
X144647432Y-103664256D01*
X144747014Y-103700500D01*
X144852985Y-103700500D01*
X144852986Y-103700500D01*
X144952568Y-103664256D01*
X145033748Y-103596138D01*
X145086734Y-103504363D01*
X145105136Y-103400000D01*
X145105136Y-103399999D01*
X146094864Y-103399999D01*
X146113265Y-103504361D01*
X146113265Y-103504362D01*
X146113266Y-103504363D01*
X146166252Y-103596138D01*
X146247432Y-103664256D01*
X146347014Y-103700500D01*
X146452985Y-103700500D01*
X146452986Y-103700500D01*
X146552568Y-103664256D01*
X146633748Y-103596138D01*
X146686734Y-103504363D01*
X146705136Y-103400000D01*
X146686734Y-103295637D01*
X146633748Y-103203862D01*
X146552568Y-103135744D01*
X146452986Y-103099500D01*
X146347014Y-103099500D01*
X146247431Y-103135744D01*
X146247432Y-103135744D01*
X146166252Y-103203862D01*
X146113265Y-103295638D01*
X146094864Y-103399999D01*
X145105136Y-103399999D01*
X145086734Y-103295637D01*
X145033748Y-103203862D01*
X144952568Y-103135744D01*
X144852986Y-103099500D01*
X144747014Y-103099500D01*
X144647431Y-103135744D01*
X144647432Y-103135744D01*
X144566252Y-103203862D01*
X144513265Y-103295638D01*
X144494864Y-103399999D01*
X142505136Y-103399999D01*
X142486734Y-103295637D01*
X142433748Y-103203862D01*
X142352568Y-103135744D01*
X142252986Y-103099500D01*
X142147014Y-103099500D01*
X142047431Y-103135744D01*
X142047432Y-103135744D01*
X141966252Y-103203862D01*
X141913265Y-103295638D01*
X141894864Y-103399999D01*
X137400500Y-103399999D01*
X137400500Y-102700000D01*
X138494864Y-102700000D01*
X138513265Y-102804361D01*
X138513265Y-102804362D01*
X138513266Y-102804363D01*
X138566252Y-102896138D01*
X138647432Y-102964256D01*
X138747014Y-103000500D01*
X138852985Y-103000500D01*
X138852986Y-103000500D01*
X138952568Y-102964256D01*
X139033748Y-102896138D01*
X139086734Y-102804363D01*
X139087503Y-102800000D01*
X149894864Y-102800000D01*
X149913265Y-102904361D01*
X149913265Y-102904362D01*
X149913266Y-102904363D01*
X149966252Y-102996138D01*
X150047432Y-103064256D01*
X150147014Y-103100500D01*
X150252985Y-103100500D01*
X150252986Y-103100500D01*
X150352568Y-103064256D01*
X150433748Y-102996138D01*
X150486734Y-102904363D01*
X150505136Y-102800000D01*
X150486734Y-102695637D01*
X150433748Y-102603862D01*
X150352568Y-102535744D01*
X150252986Y-102499500D01*
X150147014Y-102499500D01*
X150047431Y-102535744D01*
X150047432Y-102535744D01*
X149966252Y-102603862D01*
X149913265Y-102695638D01*
X149894864Y-102800000D01*
X139087503Y-102800000D01*
X139105136Y-102700000D01*
X139086734Y-102595637D01*
X139033748Y-102503862D01*
X138952568Y-102435744D01*
X138852986Y-102399500D01*
X138747014Y-102399500D01*
X138647432Y-102435743D01*
X138647432Y-102435744D01*
X138566252Y-102503862D01*
X138513265Y-102595638D01*
X138494864Y-102700000D01*
X137400500Y-102700000D01*
X137400500Y-101800000D01*
X139194864Y-101800000D01*
X139213265Y-101904361D01*
X139213265Y-101904362D01*
X139213266Y-101904363D01*
X139266252Y-101996138D01*
X139347432Y-102064256D01*
X139447014Y-102100500D01*
X139552985Y-102100500D01*
X139552986Y-102100500D01*
X139652568Y-102064256D01*
X139733748Y-101996138D01*
X139786734Y-101904363D01*
X139805136Y-101800000D01*
X141194864Y-101800000D01*
X141213265Y-101904361D01*
X141213265Y-101904362D01*
X141213266Y-101904363D01*
X141266252Y-101996138D01*
X141347432Y-102064256D01*
X141447014Y-102100500D01*
X141552985Y-102100500D01*
X141552986Y-102100500D01*
X141652568Y-102064256D01*
X141686366Y-102035895D01*
X141727169Y-102015404D01*
X141772831Y-102015404D01*
X141813633Y-102035895D01*
X141847432Y-102064256D01*
X141947014Y-102100500D01*
X142052985Y-102100500D01*
X142052986Y-102100500D01*
X142088704Y-102087500D01*
X157794864Y-102087500D01*
X157813265Y-102191861D01*
X157813265Y-102191862D01*
X157813266Y-102191863D01*
X157866252Y-102283638D01*
X157947432Y-102351756D01*
X158047014Y-102388000D01*
X158152985Y-102388000D01*
X158152986Y-102388000D01*
X158252568Y-102351756D01*
X158333748Y-102283638D01*
X158386734Y-102191863D01*
X158402932Y-102100000D01*
X159394864Y-102100000D01*
X159413265Y-102204361D01*
X159413265Y-102204362D01*
X159413266Y-102204363D01*
X159466252Y-102296138D01*
X159547432Y-102364256D01*
X159647014Y-102400500D01*
X159752985Y-102400500D01*
X159752986Y-102400500D01*
X159852568Y-102364256D01*
X159933748Y-102296138D01*
X159986734Y-102204363D01*
X160005136Y-102100000D01*
X159986734Y-101995637D01*
X159933748Y-101903862D01*
X159852568Y-101835744D01*
X159752986Y-101799500D01*
X159647014Y-101799500D01*
X159547431Y-101835744D01*
X159547432Y-101835744D01*
X159466252Y-101903862D01*
X159413265Y-101995638D01*
X159394864Y-102100000D01*
X158402932Y-102100000D01*
X158405136Y-102087500D01*
X158386734Y-101983137D01*
X158333748Y-101891362D01*
X158252568Y-101823244D01*
X158152986Y-101787000D01*
X158047014Y-101787000D01*
X157947431Y-101823244D01*
X157947432Y-101823244D01*
X157866252Y-101891362D01*
X157813265Y-101983138D01*
X157794864Y-102087500D01*
X142088704Y-102087500D01*
X142152568Y-102064256D01*
X142233748Y-101996138D01*
X142286734Y-101904363D01*
X142305136Y-101800000D01*
X142286734Y-101695637D01*
X142233748Y-101603862D01*
X142152568Y-101535744D01*
X142052986Y-101499500D01*
X141947014Y-101499500D01*
X141847432Y-101535744D01*
X141813633Y-101564104D01*
X141772831Y-101584595D01*
X141727169Y-101584595D01*
X141686366Y-101564104D01*
X141652568Y-101535744D01*
X141552986Y-101499500D01*
X141447014Y-101499500D01*
X141347431Y-101535744D01*
X141347432Y-101535744D01*
X141266252Y-101603862D01*
X141213265Y-101695638D01*
X141194864Y-101800000D01*
X139805136Y-101800000D01*
X139786734Y-101695637D01*
X139733748Y-101603862D01*
X139652568Y-101535744D01*
X139552986Y-101499500D01*
X139447014Y-101499500D01*
X139347431Y-101535744D01*
X139347432Y-101535744D01*
X139266252Y-101603862D01*
X139213265Y-101695638D01*
X139194864Y-101800000D01*
X137400500Y-101800000D01*
X137400500Y-100699500D01*
X137413763Y-100650000D01*
X137450000Y-100613763D01*
X137499500Y-100600500D01*
X138567660Y-100600500D01*
X138699588Y-100570389D01*
X138699589Y-100570388D01*
X138699591Y-100570388D01*
X138821503Y-100511677D01*
X138821503Y-100511676D01*
X138821507Y-100511675D01*
X138927305Y-100427305D01*
X139011675Y-100321507D01*
X139011677Y-100321503D01*
X139070388Y-100199591D01*
X139100500Y-100067660D01*
X139100500Y-99599999D01*
X155994864Y-99599999D01*
X156013265Y-99704361D01*
X156013265Y-99704362D01*
X156013266Y-99704363D01*
X156066252Y-99796138D01*
X156147432Y-99864256D01*
X156247014Y-99900500D01*
X156352985Y-99900500D01*
X156352986Y-99900500D01*
X156452568Y-99864256D01*
X156533748Y-99796138D01*
X156586734Y-99704363D01*
X156605136Y-99600000D01*
X156586734Y-99495637D01*
X156533748Y-99403862D01*
X156452568Y-99335744D01*
X156352986Y-99299500D01*
X156247014Y-99299500D01*
X156147431Y-99335744D01*
X156147432Y-99335744D01*
X156066252Y-99403862D01*
X156013265Y-99495638D01*
X155994864Y-99599999D01*
X139100500Y-99599999D01*
X139100500Y-99200000D01*
X144494864Y-99200000D01*
X144513265Y-99304361D01*
X144513265Y-99304362D01*
X144513266Y-99304363D01*
X144566252Y-99396138D01*
X144647432Y-99464256D01*
X144747014Y-99500500D01*
X144852985Y-99500500D01*
X144852986Y-99500500D01*
X144952568Y-99464256D01*
X145033748Y-99396138D01*
X145086734Y-99304363D01*
X145105136Y-99200000D01*
X145105135Y-99199999D01*
X145108167Y-99182809D01*
X145111961Y-99183478D01*
X145114680Y-99160269D01*
X145151182Y-99116781D01*
X145205575Y-99100500D01*
X145252985Y-99100500D01*
X145252986Y-99100500D01*
X145352568Y-99064256D01*
X145433748Y-98996138D01*
X145486734Y-98904363D01*
X145505136Y-98800000D01*
X145487503Y-98699999D01*
X155144864Y-98699999D01*
X155163265Y-98804361D01*
X155163265Y-98804362D01*
X155163266Y-98804363D01*
X155216252Y-98896138D01*
X155297432Y-98964256D01*
X155397014Y-99000500D01*
X155502985Y-99000500D01*
X155502986Y-99000500D01*
X155602568Y-98964256D01*
X155683748Y-98896138D01*
X155736734Y-98804363D01*
X155755136Y-98700000D01*
X155736734Y-98595637D01*
X155683748Y-98503862D01*
X155602568Y-98435744D01*
X155502986Y-98399500D01*
X155397014Y-98399500D01*
X155297431Y-98435744D01*
X155297432Y-98435744D01*
X155216252Y-98503862D01*
X155163265Y-98595638D01*
X155144864Y-98699999D01*
X145487503Y-98699999D01*
X145486734Y-98695637D01*
X145433748Y-98603862D01*
X145352568Y-98535744D01*
X145252986Y-98499500D01*
X145147014Y-98499500D01*
X145047431Y-98535744D01*
X145047432Y-98535744D01*
X144966252Y-98603862D01*
X144913265Y-98695638D01*
X144891833Y-98817191D01*
X144888038Y-98816521D01*
X144885320Y-98839731D01*
X144848818Y-98883219D01*
X144794425Y-98899500D01*
X144747014Y-98899500D01*
X144674254Y-98925982D01*
X144647432Y-98935744D01*
X144566252Y-99003862D01*
X144513265Y-99095638D01*
X144494864Y-99200000D01*
X139100500Y-99200000D01*
X139100500Y-97300000D01*
X139994864Y-97300000D01*
X140013265Y-97404361D01*
X140013265Y-97404362D01*
X140013266Y-97404363D01*
X140066252Y-97496138D01*
X140147432Y-97564256D01*
X140247014Y-97600500D01*
X140352985Y-97600500D01*
X140352986Y-97600500D01*
X140452568Y-97564256D01*
X140533748Y-97496138D01*
X140586734Y-97404363D01*
X140605136Y-97300000D01*
X140586734Y-97195637D01*
X140533748Y-97103862D01*
X140452568Y-97035744D01*
X140352986Y-96999500D01*
X140247014Y-96999500D01*
X140147432Y-97035743D01*
X140147432Y-97035744D01*
X140066252Y-97103862D01*
X140013265Y-97195638D01*
X139994864Y-97300000D01*
X139100500Y-97300000D01*
X139100500Y-96700000D01*
X148431864Y-96700000D01*
X148450265Y-96804361D01*
X148450265Y-96804362D01*
X148450266Y-96804363D01*
X148503252Y-96896138D01*
X148584432Y-96964256D01*
X148684014Y-97000500D01*
X148789985Y-97000500D01*
X148789986Y-97000500D01*
X148889568Y-96964256D01*
X148970748Y-96896138D01*
X149023734Y-96804363D01*
X149024503Y-96799999D01*
X159694864Y-96799999D01*
X159713265Y-96904361D01*
X159713265Y-96904362D01*
X159713266Y-96904363D01*
X159766252Y-96996138D01*
X159847432Y-97064256D01*
X159947014Y-97100500D01*
X160052985Y-97100500D01*
X160052986Y-97100500D01*
X160152568Y-97064256D01*
X160233748Y-96996138D01*
X160286734Y-96904363D01*
X160305136Y-96800000D01*
X160286734Y-96695637D01*
X160233748Y-96603862D01*
X160152568Y-96535744D01*
X160052986Y-96499500D01*
X159947014Y-96499500D01*
X159847432Y-96535743D01*
X159847432Y-96535744D01*
X159766252Y-96603862D01*
X159713265Y-96695638D01*
X159694864Y-96799999D01*
X149024503Y-96799999D01*
X149042136Y-96700000D01*
X149023734Y-96595637D01*
X148970748Y-96503862D01*
X148889568Y-96435744D01*
X148789986Y-96399500D01*
X148684014Y-96399500D01*
X148584432Y-96435743D01*
X148584432Y-96435744D01*
X148503252Y-96503862D01*
X148450265Y-96595638D01*
X148431864Y-96700000D01*
X139100500Y-96700000D01*
X139100500Y-95099999D01*
X140294864Y-95099999D01*
X140313265Y-95204361D01*
X140313265Y-95204362D01*
X140313266Y-95204363D01*
X140366252Y-95296138D01*
X140447432Y-95364256D01*
X140547014Y-95400500D01*
X140652985Y-95400500D01*
X140652986Y-95400500D01*
X140752568Y-95364256D01*
X140833748Y-95296138D01*
X140886734Y-95204363D01*
X140905136Y-95100000D01*
X140905136Y-95099999D01*
X142694864Y-95099999D01*
X142713265Y-95204361D01*
X142713265Y-95204362D01*
X142713266Y-95204363D01*
X142766252Y-95296138D01*
X142847432Y-95364256D01*
X142947014Y-95400500D01*
X143052985Y-95400500D01*
X143052986Y-95400500D01*
X143054360Y-95400000D01*
X145294864Y-95400000D01*
X145313265Y-95504361D01*
X145313265Y-95504362D01*
X145313266Y-95504363D01*
X145366252Y-95596138D01*
X145447432Y-95664256D01*
X145547014Y-95700500D01*
X145547015Y-95700500D01*
X145654455Y-95700500D01*
X145703955Y-95713763D01*
X145740191Y-95750000D01*
X145753455Y-95799500D01*
X145740192Y-95849000D01*
X145713265Y-95895638D01*
X145694864Y-96000000D01*
X145713265Y-96104361D01*
X145713265Y-96104362D01*
X145713266Y-96104363D01*
X145766252Y-96196138D01*
X145847432Y-96264256D01*
X145947014Y-96300500D01*
X146052985Y-96300500D01*
X146052986Y-96300500D01*
X146152568Y-96264256D01*
X146233748Y-96196138D01*
X146286734Y-96104363D01*
X146305136Y-96000000D01*
X146286734Y-95895637D01*
X146233748Y-95803862D01*
X146152568Y-95735744D01*
X146052986Y-95699500D01*
X145947014Y-95699500D01*
X145945545Y-95699500D01*
X145896045Y-95686237D01*
X145859809Y-95650000D01*
X145846545Y-95600500D01*
X145859808Y-95551000D01*
X145886734Y-95504363D01*
X145905136Y-95400000D01*
X145886734Y-95295637D01*
X145833748Y-95203862D01*
X145752568Y-95135744D01*
X145652986Y-95099500D01*
X145547014Y-95099500D01*
X145447431Y-95135744D01*
X145447432Y-95135744D01*
X145366252Y-95203862D01*
X145313265Y-95295638D01*
X145294864Y-95400000D01*
X143054360Y-95400000D01*
X143152568Y-95364256D01*
X143233748Y-95296138D01*
X143286734Y-95204363D01*
X143305136Y-95100000D01*
X143286734Y-94995637D01*
X143233748Y-94903862D01*
X143152568Y-94835744D01*
X143052986Y-94799500D01*
X142947014Y-94799500D01*
X142847431Y-94835744D01*
X142847432Y-94835744D01*
X142766252Y-94903862D01*
X142713265Y-94995638D01*
X142694864Y-95099999D01*
X140905136Y-95099999D01*
X140886734Y-94995637D01*
X140833748Y-94903862D01*
X140752568Y-94835744D01*
X140652986Y-94799500D01*
X140547014Y-94799500D01*
X140447431Y-94835744D01*
X140447432Y-94835744D01*
X140366252Y-94903862D01*
X140313265Y-94995638D01*
X140294864Y-95099999D01*
X139100500Y-95099999D01*
X139100500Y-94300000D01*
X144094864Y-94300000D01*
X144113265Y-94404361D01*
X144113265Y-94404362D01*
X144113266Y-94404363D01*
X144166252Y-94496138D01*
X144247432Y-94564256D01*
X144347014Y-94600500D01*
X144452985Y-94600500D01*
X144452986Y-94600500D01*
X144552568Y-94564256D01*
X144633748Y-94496138D01*
X144686734Y-94404363D01*
X144705136Y-94300000D01*
X144686734Y-94195637D01*
X144633748Y-94103862D01*
X144552568Y-94035744D01*
X144452986Y-93999500D01*
X144347014Y-93999500D01*
X144247432Y-94035743D01*
X144247432Y-94035744D01*
X144166252Y-94103862D01*
X144113265Y-94195638D01*
X144094864Y-94300000D01*
X139100500Y-94300000D01*
X139100500Y-93500000D01*
X143094864Y-93500000D01*
X143113265Y-93604361D01*
X143113265Y-93604362D01*
X143113266Y-93604363D01*
X143166252Y-93696138D01*
X143247432Y-93764256D01*
X143347014Y-93800500D01*
X143452985Y-93800500D01*
X143452986Y-93800500D01*
X143454363Y-93799999D01*
X152094864Y-93799999D01*
X152113265Y-93904361D01*
X152113265Y-93904362D01*
X152113266Y-93904363D01*
X152166252Y-93996138D01*
X152247432Y-94064256D01*
X152347014Y-94100500D01*
X152452985Y-94100500D01*
X152452986Y-94100500D01*
X152552568Y-94064256D01*
X152633748Y-93996138D01*
X152686734Y-93904363D01*
X152705136Y-93800000D01*
X152686734Y-93695637D01*
X152633748Y-93603862D01*
X152552568Y-93535744D01*
X152452986Y-93499500D01*
X152347014Y-93499500D01*
X152247432Y-93535743D01*
X152247432Y-93535744D01*
X152166252Y-93603862D01*
X152113265Y-93695638D01*
X152094864Y-93799999D01*
X143454363Y-93799999D01*
X143552568Y-93764256D01*
X143633748Y-93696138D01*
X143686734Y-93604363D01*
X143705136Y-93500000D01*
X143686734Y-93395637D01*
X143633748Y-93303862D01*
X143552568Y-93235744D01*
X143452986Y-93199500D01*
X143347014Y-93199500D01*
X143247431Y-93235744D01*
X143247432Y-93235744D01*
X143166252Y-93303862D01*
X143113265Y-93395638D01*
X143094864Y-93500000D01*
X139100500Y-93500000D01*
X139100500Y-92299999D01*
X158494864Y-92299999D01*
X158513265Y-92404361D01*
X158513265Y-92404362D01*
X158513266Y-92404363D01*
X158566252Y-92496138D01*
X158647432Y-92564256D01*
X158747014Y-92600500D01*
X158852985Y-92600500D01*
X158852986Y-92600500D01*
X158952568Y-92564256D01*
X159033748Y-92496138D01*
X159086734Y-92404363D01*
X159105136Y-92300000D01*
X159105136Y-92299999D01*
X159494864Y-92299999D01*
X159513265Y-92404361D01*
X159513265Y-92404362D01*
X159513266Y-92404363D01*
X159566252Y-92496138D01*
X159647432Y-92564256D01*
X159747014Y-92600500D01*
X159852985Y-92600500D01*
X159852986Y-92600500D01*
X159952568Y-92564256D01*
X160033748Y-92496138D01*
X160086734Y-92404363D01*
X160105136Y-92300000D01*
X160086734Y-92195637D01*
X160033748Y-92103862D01*
X159952568Y-92035744D01*
X159852986Y-91999500D01*
X159747014Y-91999500D01*
X159647431Y-92035744D01*
X159647432Y-92035744D01*
X159566252Y-92103862D01*
X159513265Y-92195638D01*
X159494864Y-92299999D01*
X159105136Y-92299999D01*
X159086734Y-92195637D01*
X159033748Y-92103862D01*
X158952568Y-92035744D01*
X158852986Y-91999500D01*
X158747014Y-91999500D01*
X158647431Y-92035744D01*
X158647432Y-92035744D01*
X158566252Y-92103862D01*
X158513265Y-92195638D01*
X158494864Y-92299999D01*
X139100500Y-92299999D01*
X139100500Y-90900000D01*
X152794864Y-90900000D01*
X152813265Y-91004361D01*
X152813265Y-91004362D01*
X152813266Y-91004363D01*
X152866252Y-91096138D01*
X152947432Y-91164256D01*
X153047014Y-91200500D01*
X153152985Y-91200500D01*
X153152986Y-91200500D01*
X153252568Y-91164256D01*
X153333748Y-91096138D01*
X153386734Y-91004363D01*
X153387503Y-91000000D01*
X159494864Y-91000000D01*
X159513265Y-91104361D01*
X159513265Y-91104362D01*
X159513266Y-91104363D01*
X159566252Y-91196138D01*
X159647432Y-91264256D01*
X159747014Y-91300500D01*
X159852985Y-91300500D01*
X159852986Y-91300500D01*
X159952568Y-91264256D01*
X160033748Y-91196138D01*
X160086734Y-91104363D01*
X160105136Y-91000000D01*
X160086734Y-90895637D01*
X160033748Y-90803862D01*
X159952568Y-90735744D01*
X159852986Y-90699500D01*
X159747014Y-90699500D01*
X159647431Y-90735744D01*
X159647432Y-90735744D01*
X159566252Y-90803862D01*
X159513265Y-90895638D01*
X159494864Y-91000000D01*
X153387503Y-91000000D01*
X153405136Y-90900000D01*
X153386734Y-90795637D01*
X153333748Y-90703862D01*
X153252568Y-90635744D01*
X153152986Y-90599500D01*
X153047014Y-90599500D01*
X152947431Y-90635744D01*
X152947432Y-90635744D01*
X152866252Y-90703862D01*
X152813265Y-90795638D01*
X152794864Y-90900000D01*
X139100500Y-90900000D01*
X139100500Y-89932340D01*
X139070388Y-89800408D01*
X139011677Y-89678496D01*
X138927305Y-89572694D01*
X138821503Y-89488322D01*
X138699591Y-89429611D01*
X138567660Y-89399500D01*
X138515917Y-89399500D01*
X137499500Y-89399500D01*
X137450000Y-89386237D01*
X137413763Y-89350000D01*
X137400500Y-89300500D01*
X137400500Y-88399999D01*
X147194864Y-88399999D01*
X147213265Y-88504361D01*
X147213265Y-88504362D01*
X147213266Y-88504363D01*
X147266252Y-88596138D01*
X147347432Y-88664256D01*
X147447014Y-88700500D01*
X147552985Y-88700500D01*
X147552986Y-88700500D01*
X147652568Y-88664256D01*
X147733748Y-88596138D01*
X147786734Y-88504363D01*
X147787503Y-88500000D01*
X159494864Y-88500000D01*
X159513265Y-88604361D01*
X159513265Y-88604362D01*
X159513266Y-88604363D01*
X159566252Y-88696138D01*
X159647432Y-88764256D01*
X159747014Y-88800500D01*
X159852985Y-88800500D01*
X159852986Y-88800500D01*
X159952568Y-88764256D01*
X160033748Y-88696138D01*
X160086734Y-88604363D01*
X160105136Y-88500000D01*
X160086734Y-88395637D01*
X160033748Y-88303862D01*
X159952568Y-88235744D01*
X159852986Y-88199500D01*
X159747014Y-88199500D01*
X159647431Y-88235744D01*
X159647432Y-88235744D01*
X159566252Y-88303862D01*
X159513265Y-88395638D01*
X159494864Y-88500000D01*
X147787503Y-88500000D01*
X147805136Y-88400000D01*
X147786734Y-88295637D01*
X147733748Y-88203862D01*
X147652568Y-88135744D01*
X147554357Y-88099999D01*
X153794864Y-88099999D01*
X153813265Y-88204361D01*
X153813265Y-88204362D01*
X153813266Y-88204363D01*
X153866252Y-88296138D01*
X153947432Y-88364256D01*
X154047014Y-88400500D01*
X154152985Y-88400500D01*
X154152986Y-88400500D01*
X154252568Y-88364256D01*
X154333748Y-88296138D01*
X154386734Y-88204363D01*
X154405136Y-88100000D01*
X154386734Y-87995637D01*
X154333748Y-87903862D01*
X154252568Y-87835744D01*
X154152986Y-87799500D01*
X154047014Y-87799500D01*
X153947432Y-87835743D01*
X153947432Y-87835744D01*
X153866252Y-87903862D01*
X153813265Y-87995638D01*
X153794864Y-88099999D01*
X147554357Y-88099999D01*
X147552986Y-88099500D01*
X147447014Y-88099500D01*
X147347432Y-88135743D01*
X147347432Y-88135744D01*
X147266252Y-88203862D01*
X147213265Y-88295638D01*
X147194864Y-88399999D01*
X137400500Y-88399999D01*
X137400500Y-86300000D01*
X139694864Y-86300000D01*
X139713265Y-86404361D01*
X139713265Y-86404362D01*
X139713266Y-86404363D01*
X139766252Y-86496138D01*
X139847432Y-86564256D01*
X139947014Y-86600500D01*
X140052984Y-86600500D01*
X140052986Y-86600500D01*
X140062210Y-86597142D01*
X140113257Y-86592675D01*
X140159701Y-86614330D01*
X140189096Y-86656305D01*
X140191423Y-86682881D01*
X140191833Y-86682809D01*
X140213265Y-86804361D01*
X140213265Y-86804362D01*
X140213266Y-86804363D01*
X140266252Y-86896138D01*
X140347432Y-86964256D01*
X140447014Y-87000500D01*
X140552984Y-87000500D01*
X140552986Y-87000500D01*
X140562210Y-86997142D01*
X140613257Y-86992675D01*
X140659701Y-87014330D01*
X140689096Y-87056305D01*
X140691423Y-87082881D01*
X140691833Y-87082809D01*
X140713265Y-87204361D01*
X140713265Y-87204362D01*
X140713266Y-87204363D01*
X140766252Y-87296138D01*
X140847432Y-87364256D01*
X140947014Y-87400500D01*
X141052984Y-87400500D01*
X141052986Y-87400500D01*
X141062210Y-87397142D01*
X141113257Y-87392675D01*
X141159701Y-87414330D01*
X141189096Y-87456305D01*
X141191423Y-87482881D01*
X141191833Y-87482809D01*
X141213265Y-87604361D01*
X141213265Y-87604362D01*
X141213266Y-87604363D01*
X141266252Y-87696138D01*
X141347432Y-87764256D01*
X141447014Y-87800500D01*
X141552984Y-87800500D01*
X141552986Y-87800500D01*
X141562210Y-87797142D01*
X141613257Y-87792675D01*
X141659701Y-87814330D01*
X141689096Y-87856305D01*
X141691423Y-87882881D01*
X141691833Y-87882809D01*
X141713265Y-88004361D01*
X141713265Y-88004362D01*
X141713266Y-88004363D01*
X141766252Y-88096138D01*
X141847432Y-88164256D01*
X141947014Y-88200500D01*
X142052985Y-88200500D01*
X142052986Y-88200500D01*
X142152568Y-88164256D01*
X142233748Y-88096138D01*
X142286734Y-88004363D01*
X142305136Y-87900000D01*
X142286734Y-87795637D01*
X142233748Y-87703862D01*
X142152568Y-87635744D01*
X142052986Y-87599500D01*
X141947014Y-87599500D01*
X141937787Y-87602858D01*
X141886736Y-87607322D01*
X141840292Y-87585664D01*
X141810900Y-87543685D01*
X141808575Y-87517118D01*
X141808167Y-87517191D01*
X141786999Y-87397143D01*
X141786734Y-87395637D01*
X141733748Y-87303862D01*
X141652568Y-87235744D01*
X141554357Y-87199999D01*
X159494864Y-87199999D01*
X159513265Y-87304361D01*
X159513265Y-87304362D01*
X159513266Y-87304363D01*
X159566252Y-87396138D01*
X159647432Y-87464256D01*
X159747014Y-87500500D01*
X159852985Y-87500500D01*
X159852986Y-87500500D01*
X159952568Y-87464256D01*
X160033748Y-87396138D01*
X160086734Y-87304363D01*
X160105136Y-87200000D01*
X160086734Y-87095637D01*
X160033748Y-87003862D01*
X159952568Y-86935744D01*
X159852986Y-86899500D01*
X159747014Y-86899500D01*
X159647431Y-86935744D01*
X159647432Y-86935744D01*
X159566252Y-87003862D01*
X159513265Y-87095638D01*
X159494864Y-87199999D01*
X141554357Y-87199999D01*
X141552986Y-87199500D01*
X141447014Y-87199500D01*
X141437787Y-87202858D01*
X141386736Y-87207322D01*
X141340292Y-87185664D01*
X141310900Y-87143685D01*
X141308575Y-87117118D01*
X141308167Y-87117191D01*
X141304366Y-87095637D01*
X141286734Y-86995637D01*
X141233748Y-86903862D01*
X141152568Y-86835744D01*
X141052986Y-86799500D01*
X140947014Y-86799500D01*
X140937787Y-86802858D01*
X140886736Y-86807322D01*
X140840292Y-86785664D01*
X140810900Y-86743685D01*
X140808575Y-86717118D01*
X140808167Y-86717191D01*
X140786999Y-86597143D01*
X140786734Y-86595637D01*
X140733748Y-86503862D01*
X140652568Y-86435744D01*
X140552986Y-86399500D01*
X140447014Y-86399500D01*
X140437787Y-86402858D01*
X140386736Y-86407322D01*
X140340292Y-86385664D01*
X140310900Y-86343685D01*
X140308575Y-86317118D01*
X140308167Y-86317191D01*
X140286734Y-86195638D01*
X140286734Y-86195637D01*
X140233748Y-86103862D01*
X140152568Y-86035744D01*
X140054357Y-85999999D01*
X158494864Y-85999999D01*
X158513265Y-86104361D01*
X158513265Y-86104362D01*
X158513266Y-86104363D01*
X158566252Y-86196138D01*
X158647432Y-86264256D01*
X158747014Y-86300500D01*
X158852985Y-86300500D01*
X158852986Y-86300500D01*
X158952568Y-86264256D01*
X159033748Y-86196138D01*
X159086734Y-86104363D01*
X159105136Y-86000000D01*
X159105136Y-85999999D01*
X159494864Y-85999999D01*
X159513265Y-86104361D01*
X159513265Y-86104362D01*
X159513266Y-86104363D01*
X159566252Y-86196138D01*
X159647432Y-86264256D01*
X159747014Y-86300500D01*
X159852985Y-86300500D01*
X159852986Y-86300500D01*
X159952568Y-86264256D01*
X160033748Y-86196138D01*
X160086734Y-86104363D01*
X160105136Y-86000000D01*
X160086734Y-85895637D01*
X160033748Y-85803862D01*
X159952568Y-85735744D01*
X159852986Y-85699500D01*
X159747014Y-85699500D01*
X159647431Y-85735744D01*
X159647432Y-85735744D01*
X159566252Y-85803862D01*
X159513265Y-85895638D01*
X159494864Y-85999999D01*
X159105136Y-85999999D01*
X159086734Y-85895637D01*
X159033748Y-85803862D01*
X158952568Y-85735744D01*
X158852986Y-85699500D01*
X158747014Y-85699500D01*
X158647431Y-85735744D01*
X158647432Y-85735744D01*
X158566252Y-85803862D01*
X158513265Y-85895638D01*
X158494864Y-85999999D01*
X140054357Y-85999999D01*
X140052986Y-85999500D01*
X139947014Y-85999500D01*
X139847432Y-86035743D01*
X139847432Y-86035744D01*
X139766252Y-86103862D01*
X139713265Y-86195638D01*
X139694864Y-86300000D01*
X137400500Y-86300000D01*
X137400500Y-84900000D01*
X143494864Y-84900000D01*
X143513265Y-85004361D01*
X143513265Y-85004362D01*
X143513266Y-85004363D01*
X143566252Y-85096138D01*
X143647432Y-85164256D01*
X143747014Y-85200500D01*
X143852985Y-85200500D01*
X143852986Y-85200500D01*
X143952568Y-85164256D01*
X144033748Y-85096138D01*
X144086734Y-85004363D01*
X144105136Y-84900000D01*
X144086734Y-84795637D01*
X144033748Y-84703862D01*
X143952568Y-84635744D01*
X143852986Y-84599500D01*
X143747014Y-84599500D01*
X143647431Y-84635744D01*
X143647432Y-84635744D01*
X143566252Y-84703862D01*
X143513265Y-84795638D01*
X143494864Y-84900000D01*
X137400500Y-84900000D01*
X137400500Y-84150000D01*
X139544864Y-84150000D01*
X139563265Y-84254361D01*
X139563265Y-84254362D01*
X139563266Y-84254363D01*
X139616252Y-84346138D01*
X139697432Y-84414256D01*
X139797014Y-84450500D01*
X139902985Y-84450500D01*
X139902986Y-84450500D01*
X140002568Y-84414256D01*
X140083748Y-84346138D01*
X140136734Y-84254363D01*
X140136734Y-84254360D01*
X140142655Y-84244106D01*
X140183960Y-84205136D01*
X140239885Y-84195274D01*
X140292027Y-84217766D01*
X140347432Y-84264256D01*
X140447014Y-84300500D01*
X140552985Y-84300500D01*
X140552986Y-84300500D01*
X140652568Y-84264256D01*
X140733748Y-84196138D01*
X140786734Y-84104363D01*
X140805136Y-84000000D01*
X140786734Y-83895637D01*
X140733748Y-83803862D01*
X140652568Y-83735744D01*
X140552986Y-83699500D01*
X140447014Y-83699500D01*
X140399784Y-83716690D01*
X140347432Y-83735744D01*
X140266250Y-83803863D01*
X140207343Y-83905894D01*
X140166038Y-83944864D01*
X140110114Y-83954725D01*
X140057972Y-83932233D01*
X140002569Y-83885745D01*
X140002568Y-83885744D01*
X139902986Y-83849500D01*
X139797014Y-83849500D01*
X139697431Y-83885744D01*
X139697432Y-83885744D01*
X139616252Y-83953862D01*
X139563265Y-84045638D01*
X139544864Y-84150000D01*
X137400500Y-84150000D01*
X137400500Y-83300000D01*
X144694864Y-83300000D01*
X144713265Y-83404361D01*
X144713265Y-83404362D01*
X144713266Y-83404363D01*
X144766252Y-83496138D01*
X144847432Y-83564256D01*
X144947014Y-83600500D01*
X145052985Y-83600500D01*
X145052986Y-83600500D01*
X145152568Y-83564256D01*
X145233748Y-83496138D01*
X145286734Y-83404363D01*
X145302504Y-83314925D01*
X145309784Y-83299999D01*
X145490215Y-83299999D01*
X145497496Y-83314926D01*
X145513265Y-83404361D01*
X145513265Y-83404362D01*
X145513266Y-83404363D01*
X145566252Y-83496138D01*
X145647432Y-83564256D01*
X145747014Y-83600500D01*
X145747015Y-83600500D01*
X145794425Y-83600500D01*
X145848818Y-83616781D01*
X145885320Y-83660269D01*
X145888038Y-83683478D01*
X145891833Y-83682809D01*
X145913265Y-83804361D01*
X145913265Y-83804362D01*
X145913266Y-83804363D01*
X145966252Y-83896138D01*
X146047432Y-83964256D01*
X146147014Y-84000500D01*
X146252985Y-84000500D01*
X146252986Y-84000500D01*
X146352568Y-83964256D01*
X146433748Y-83896138D01*
X146486734Y-83804363D01*
X146502504Y-83714925D01*
X146526429Y-83665873D01*
X146572712Y-83636952D01*
X146627288Y-83636952D01*
X146673571Y-83665873D01*
X146697495Y-83714925D01*
X146700386Y-83731320D01*
X146713265Y-83804361D01*
X146713265Y-83804362D01*
X146713266Y-83804363D01*
X146766252Y-83896138D01*
X146847432Y-83964256D01*
X146947014Y-84000500D01*
X147052985Y-84000500D01*
X147052986Y-84000500D01*
X147152568Y-83964256D01*
X147233748Y-83896138D01*
X147286734Y-83804363D01*
X147305136Y-83700000D01*
X148694864Y-83700000D01*
X148713265Y-83804361D01*
X148713265Y-83804362D01*
X148713266Y-83804363D01*
X148766252Y-83896138D01*
X148847432Y-83964256D01*
X148947014Y-84000500D01*
X149052985Y-84000500D01*
X149052986Y-84000500D01*
X149152568Y-83964256D01*
X149233748Y-83896138D01*
X149286734Y-83804363D01*
X149305136Y-83700000D01*
X149305135Y-83699999D01*
X149308167Y-83682809D01*
X149311961Y-83683478D01*
X149314680Y-83660269D01*
X149351182Y-83616781D01*
X149405575Y-83600500D01*
X149452985Y-83600500D01*
X149452986Y-83600500D01*
X149552568Y-83564256D01*
X149633748Y-83496138D01*
X149686734Y-83404363D01*
X149702504Y-83314925D01*
X149709784Y-83299999D01*
X149890215Y-83299999D01*
X149897496Y-83314926D01*
X149913265Y-83404361D01*
X149913265Y-83404362D01*
X149913266Y-83404363D01*
X149966252Y-83496138D01*
X150047432Y-83564256D01*
X150147014Y-83600500D01*
X150147015Y-83600500D01*
X150194425Y-83600500D01*
X150248818Y-83616781D01*
X150285320Y-83660269D01*
X150288038Y-83683478D01*
X150291833Y-83682809D01*
X150313265Y-83804361D01*
X150313265Y-83804362D01*
X150313266Y-83804363D01*
X150366252Y-83896138D01*
X150447432Y-83964256D01*
X150547014Y-84000500D01*
X150652985Y-84000500D01*
X150652986Y-84000500D01*
X150752568Y-83964256D01*
X150829147Y-83899999D01*
X152194864Y-83899999D01*
X152213265Y-84004361D01*
X152213265Y-84004362D01*
X152213266Y-84004363D01*
X152266252Y-84096138D01*
X152347432Y-84164256D01*
X152447014Y-84200500D01*
X152552985Y-84200500D01*
X152552986Y-84200500D01*
X152652568Y-84164256D01*
X152733748Y-84096138D01*
X152733749Y-84096136D01*
X152736364Y-84093942D01*
X152777169Y-84073450D01*
X152822831Y-84073450D01*
X152863636Y-84093942D01*
X152866250Y-84096136D01*
X152866252Y-84096138D01*
X152947432Y-84164256D01*
X153047014Y-84200500D01*
X153152985Y-84200500D01*
X153152986Y-84200500D01*
X153252568Y-84164256D01*
X153333748Y-84096138D01*
X153386734Y-84004363D01*
X153405136Y-83900000D01*
X153386734Y-83795637D01*
X153360385Y-83749999D01*
X156294864Y-83749999D01*
X156313265Y-83854361D01*
X156313265Y-83854362D01*
X156313266Y-83854363D01*
X156366252Y-83946138D01*
X156447432Y-84014256D01*
X156547014Y-84050500D01*
X156652985Y-84050500D01*
X156652986Y-84050500D01*
X156752568Y-84014256D01*
X156833748Y-83946138D01*
X156886734Y-83854363D01*
X156905136Y-83750000D01*
X156899263Y-83716690D01*
X156905856Y-83660288D01*
X156942358Y-83616787D01*
X156996759Y-83600500D01*
X157052485Y-83600500D01*
X157052486Y-83600500D01*
X157152068Y-83564256D01*
X157233248Y-83496138D01*
X157286234Y-83404363D01*
X157304636Y-83300000D01*
X157286234Y-83195637D01*
X157233248Y-83103862D01*
X157152068Y-83035744D01*
X157052486Y-82999500D01*
X156946514Y-82999500D01*
X156846932Y-83035743D01*
X156846932Y-83035744D01*
X156765752Y-83103862D01*
X156712765Y-83195638D01*
X156694364Y-83300000D01*
X156700237Y-83333310D01*
X156693644Y-83389712D01*
X156657142Y-83433213D01*
X156602741Y-83449500D01*
X156547014Y-83449500D01*
X156447431Y-83485744D01*
X156447432Y-83485744D01*
X156366252Y-83553862D01*
X156313265Y-83645638D01*
X156294864Y-83749999D01*
X153360385Y-83749999D01*
X153333748Y-83703862D01*
X153252568Y-83635744D01*
X153152986Y-83599500D01*
X153047014Y-83599500D01*
X152947432Y-83635744D01*
X152947431Y-83635744D01*
X152947430Y-83635745D01*
X152863635Y-83706057D01*
X152822831Y-83726550D01*
X152777169Y-83726550D01*
X152736365Y-83706057D01*
X152664358Y-83645637D01*
X152652568Y-83635744D01*
X152552986Y-83599500D01*
X152447014Y-83599500D01*
X152347432Y-83635743D01*
X152347432Y-83635744D01*
X152266252Y-83703862D01*
X152213265Y-83795638D01*
X152194864Y-83899999D01*
X150829147Y-83899999D01*
X150833748Y-83896138D01*
X150886734Y-83804363D01*
X150905136Y-83700000D01*
X150886734Y-83595637D01*
X150833748Y-83503862D01*
X150752568Y-83435744D01*
X150652986Y-83399500D01*
X150605575Y-83399500D01*
X150551182Y-83383219D01*
X150514680Y-83339731D01*
X150511961Y-83316521D01*
X150508167Y-83317191D01*
X150486734Y-83195638D01*
X150486734Y-83195637D01*
X150433748Y-83103862D01*
X150352568Y-83035744D01*
X150252986Y-82999500D01*
X150147014Y-82999500D01*
X150047432Y-83035743D01*
X150047432Y-83035744D01*
X149966252Y-83103862D01*
X149913265Y-83195638D01*
X149897496Y-83285073D01*
X149890215Y-83299999D01*
X149709784Y-83299999D01*
X149702504Y-83285073D01*
X149686734Y-83195638D01*
X149686734Y-83195637D01*
X149633748Y-83103862D01*
X149552568Y-83035744D01*
X149452986Y-82999500D01*
X149347014Y-82999500D01*
X149247432Y-83035743D01*
X149247432Y-83035744D01*
X149166252Y-83103862D01*
X149113265Y-83195638D01*
X149091833Y-83317191D01*
X149088038Y-83316521D01*
X149085320Y-83339731D01*
X149048818Y-83383219D01*
X148994425Y-83399500D01*
X148947014Y-83399500D01*
X148874254Y-83425982D01*
X148847432Y-83435744D01*
X148766252Y-83503862D01*
X148713265Y-83595638D01*
X148694864Y-83700000D01*
X147305136Y-83700000D01*
X147286734Y-83595637D01*
X147233748Y-83503862D01*
X147152568Y-83435744D01*
X147052986Y-83399500D01*
X147005575Y-83399500D01*
X146951182Y-83383219D01*
X146914680Y-83339731D01*
X146911961Y-83316521D01*
X146908167Y-83317191D01*
X146886734Y-83195638D01*
X146886734Y-83195637D01*
X146833748Y-83103862D01*
X146752568Y-83035744D01*
X146652986Y-82999500D01*
X146547014Y-82999500D01*
X146447432Y-83035743D01*
X146447432Y-83035744D01*
X146366252Y-83103862D01*
X146313265Y-83195638D01*
X146297496Y-83285073D01*
X146273571Y-83334126D01*
X146227288Y-83363047D01*
X146172712Y-83363047D01*
X146126429Y-83334126D01*
X146102504Y-83285073D01*
X146086734Y-83195638D01*
X146086734Y-83195637D01*
X146033748Y-83103862D01*
X145952568Y-83035744D01*
X145852986Y-82999500D01*
X145747014Y-82999500D01*
X145647432Y-83035743D01*
X145647432Y-83035744D01*
X145566252Y-83103862D01*
X145513265Y-83195638D01*
X145497496Y-83285073D01*
X145490215Y-83299999D01*
X145309784Y-83299999D01*
X145302504Y-83285073D01*
X145286734Y-83195638D01*
X145286734Y-83195637D01*
X145233748Y-83103862D01*
X145152568Y-83035744D01*
X145052986Y-82999500D01*
X144947014Y-82999500D01*
X144847432Y-83035743D01*
X144847432Y-83035744D01*
X144766252Y-83103862D01*
X144713265Y-83195638D01*
X144694864Y-83300000D01*
X137400500Y-83300000D01*
X137400500Y-81600000D01*
X140694864Y-81600000D01*
X140713265Y-81704361D01*
X140713265Y-81704362D01*
X140713266Y-81704363D01*
X140766252Y-81796138D01*
X140847432Y-81864256D01*
X140947014Y-81900500D01*
X141052985Y-81900500D01*
X141052986Y-81900500D01*
X141152568Y-81864256D01*
X141233748Y-81796138D01*
X141286734Y-81704363D01*
X141305136Y-81600000D01*
X145094864Y-81600000D01*
X145113265Y-81704361D01*
X145113265Y-81704362D01*
X145113266Y-81704363D01*
X145166252Y-81796138D01*
X145247432Y-81864256D01*
X145347014Y-81900500D01*
X145452985Y-81900500D01*
X145452986Y-81900500D01*
X145552568Y-81864256D01*
X145633748Y-81796138D01*
X145686734Y-81704363D01*
X145705136Y-81600000D01*
X147694864Y-81600000D01*
X147713265Y-81704361D01*
X147713265Y-81704362D01*
X147713266Y-81704363D01*
X147766252Y-81796138D01*
X147847432Y-81864256D01*
X147947014Y-81900500D01*
X148052985Y-81900500D01*
X148052986Y-81900500D01*
X148054360Y-81900000D01*
X153894864Y-81900000D01*
X153913265Y-82004361D01*
X153913265Y-82004362D01*
X153913266Y-82004363D01*
X153966252Y-82096138D01*
X154047432Y-82164256D01*
X154147014Y-82200500D01*
X154252985Y-82200500D01*
X154252986Y-82200500D01*
X154352568Y-82164256D01*
X154433748Y-82096138D01*
X154486734Y-82004363D01*
X154505136Y-81900000D01*
X157094864Y-81900000D01*
X157113265Y-82004361D01*
X157113265Y-82004362D01*
X157113266Y-82004363D01*
X157166252Y-82096138D01*
X157247432Y-82164256D01*
X157347014Y-82200500D01*
X157452985Y-82200500D01*
X157452986Y-82200500D01*
X157552568Y-82164256D01*
X157633748Y-82096138D01*
X157686734Y-82004363D01*
X157705136Y-81900000D01*
X157705135Y-81899999D01*
X157708167Y-81882809D01*
X157711961Y-81883478D01*
X157714680Y-81860269D01*
X157751182Y-81816781D01*
X157805575Y-81800500D01*
X157852985Y-81800500D01*
X157852986Y-81800500D01*
X157952568Y-81764256D01*
X158033748Y-81696138D01*
X158086734Y-81604363D01*
X158105136Y-81500000D01*
X158086734Y-81395637D01*
X158033748Y-81303862D01*
X157952568Y-81235744D01*
X157852986Y-81199500D01*
X157747014Y-81199500D01*
X157647432Y-81235743D01*
X157647432Y-81235744D01*
X157566252Y-81303862D01*
X157513265Y-81395638D01*
X157491833Y-81517191D01*
X157488038Y-81516521D01*
X157485320Y-81539731D01*
X157448818Y-81583219D01*
X157394425Y-81599500D01*
X157347014Y-81599500D01*
X157274254Y-81625982D01*
X157247432Y-81635744D01*
X157166252Y-81703862D01*
X157113265Y-81795638D01*
X157094864Y-81900000D01*
X154505136Y-81900000D01*
X154505135Y-81899999D01*
X154508167Y-81882809D01*
X154511961Y-81883478D01*
X154514680Y-81860269D01*
X154551182Y-81816781D01*
X154605575Y-81800500D01*
X154652985Y-81800500D01*
X154652986Y-81800500D01*
X154752568Y-81764256D01*
X154833748Y-81696138D01*
X154886734Y-81604363D01*
X154905136Y-81500000D01*
X154886734Y-81395637D01*
X154833748Y-81303862D01*
X154752568Y-81235744D01*
X154652986Y-81199500D01*
X154547014Y-81199500D01*
X154447432Y-81235743D01*
X154447432Y-81235744D01*
X154366252Y-81303862D01*
X154313265Y-81395638D01*
X154291833Y-81517191D01*
X154288038Y-81516521D01*
X154285320Y-81539731D01*
X154248818Y-81583219D01*
X154194425Y-81599500D01*
X154147014Y-81599500D01*
X154074254Y-81625982D01*
X154047432Y-81635744D01*
X153966252Y-81703862D01*
X153913265Y-81795638D01*
X153894864Y-81900000D01*
X148054360Y-81900000D01*
X148152568Y-81864256D01*
X148233748Y-81796138D01*
X148286734Y-81704363D01*
X148305136Y-81600000D01*
X148286734Y-81495637D01*
X148233748Y-81403862D01*
X148152568Y-81335744D01*
X148052986Y-81299500D01*
X147947014Y-81299500D01*
X147847431Y-81335744D01*
X147847432Y-81335744D01*
X147766252Y-81403862D01*
X147713265Y-81495638D01*
X147694864Y-81600000D01*
X145705136Y-81600000D01*
X145686734Y-81495637D01*
X145633748Y-81403862D01*
X145552568Y-81335744D01*
X145452986Y-81299500D01*
X145347014Y-81299500D01*
X145247431Y-81335744D01*
X145247432Y-81335744D01*
X145166252Y-81403862D01*
X145113265Y-81495638D01*
X145094864Y-81600000D01*
X141305136Y-81600000D01*
X141286734Y-81495637D01*
X141233748Y-81403862D01*
X141152568Y-81335744D01*
X141052986Y-81299500D01*
X140947014Y-81299500D01*
X140847431Y-81335744D01*
X140847432Y-81335744D01*
X140766252Y-81403862D01*
X140713265Y-81495638D01*
X140694864Y-81600000D01*
X137400500Y-81600000D01*
X137400500Y-80400000D01*
X160494864Y-80400000D01*
X160513265Y-80504361D01*
X160513265Y-80504362D01*
X160513266Y-80504363D01*
X160566252Y-80596138D01*
X160647432Y-80664256D01*
X160747014Y-80700500D01*
X160852985Y-80700500D01*
X160852986Y-80700500D01*
X160952568Y-80664256D01*
X161033748Y-80596138D01*
X161086734Y-80504363D01*
X161105136Y-80400000D01*
X161086734Y-80295637D01*
X161033748Y-80203862D01*
X160952568Y-80135744D01*
X160852986Y-80099500D01*
X160747014Y-80099500D01*
X160647431Y-80135744D01*
X160647432Y-80135744D01*
X160566252Y-80203862D01*
X160513265Y-80295638D01*
X160494864Y-80400000D01*
X137400500Y-80400000D01*
X137400500Y-79649505D01*
X160735798Y-79649505D01*
X160763170Y-79660843D01*
X160906750Y-79679745D01*
X161050327Y-79660843D01*
X161077700Y-79649504D01*
X160906750Y-79478553D01*
X160735798Y-79649505D01*
X137400500Y-79649505D01*
X137400500Y-78900000D01*
X143594864Y-78900000D01*
X143598803Y-78922340D01*
X143613265Y-79004361D01*
X143613265Y-79004362D01*
X143613266Y-79004363D01*
X143666252Y-79096138D01*
X143747432Y-79164256D01*
X143847014Y-79200500D01*
X143952985Y-79200500D01*
X143952986Y-79200500D01*
X144052568Y-79164256D01*
X144133748Y-79096138D01*
X144186734Y-79004363D01*
X144204735Y-78902276D01*
X146597141Y-78902276D01*
X146615542Y-79006638D01*
X146615542Y-79006639D01*
X146615543Y-79006640D01*
X146668529Y-79098415D01*
X146749709Y-79166533D01*
X146849291Y-79202777D01*
X146955262Y-79202777D01*
X146955263Y-79202777D01*
X147054845Y-79166533D01*
X147136025Y-79098415D01*
X147189011Y-79006640D01*
X147207413Y-78902277D01*
X147189011Y-78797914D01*
X147136025Y-78706139D01*
X147054845Y-78638021D01*
X146955263Y-78601777D01*
X146849291Y-78601777D01*
X146770395Y-78630492D01*
X146749709Y-78638021D01*
X146668529Y-78706139D01*
X146615542Y-78797915D01*
X146597141Y-78902276D01*
X144204735Y-78902276D01*
X144205136Y-78900000D01*
X144186734Y-78795637D01*
X144133748Y-78703862D01*
X144052568Y-78635744D01*
X143952986Y-78599500D01*
X143847014Y-78599500D01*
X143761862Y-78630492D01*
X143747432Y-78635744D01*
X143666252Y-78703862D01*
X143613265Y-78795638D01*
X143603336Y-78851953D01*
X143594864Y-78900000D01*
X137400500Y-78900000D01*
X137400500Y-76299999D01*
X153494864Y-76299999D01*
X153513265Y-76404361D01*
X153513265Y-76404362D01*
X153513266Y-76404363D01*
X153566252Y-76496138D01*
X153647432Y-76564256D01*
X153747014Y-76600500D01*
X153852985Y-76600500D01*
X153852986Y-76600500D01*
X153952568Y-76564256D01*
X154033748Y-76496138D01*
X154086734Y-76404363D01*
X154105136Y-76300000D01*
X154086734Y-76195637D01*
X154033748Y-76103862D01*
X154029505Y-76100302D01*
X154000351Y-76075839D01*
X153969145Y-76028394D01*
X153969145Y-75971606D01*
X154000351Y-75924161D01*
X154033748Y-75896138D01*
X154086734Y-75804363D01*
X154105136Y-75700000D01*
X154086734Y-75595637D01*
X154033748Y-75503862D01*
X153952568Y-75435744D01*
X153852986Y-75399500D01*
X153747014Y-75399500D01*
X153647432Y-75435743D01*
X153647432Y-75435744D01*
X153566252Y-75503862D01*
X153513265Y-75595638D01*
X153494864Y-75699999D01*
X153513265Y-75804361D01*
X153513265Y-75804362D01*
X153513266Y-75804363D01*
X153541375Y-75853050D01*
X153566253Y-75896139D01*
X153599649Y-75924162D01*
X153630854Y-75971607D01*
X153630854Y-76028393D01*
X153599649Y-76075838D01*
X153566253Y-76103860D01*
X153513265Y-76195638D01*
X153494864Y-76299999D01*
X137400500Y-76299999D01*
X137400500Y-74900000D01*
X149894864Y-74900000D01*
X149913265Y-75004361D01*
X149913265Y-75004362D01*
X149913266Y-75004363D01*
X149966252Y-75096138D01*
X150047432Y-75164256D01*
X150147014Y-75200500D01*
X150252985Y-75200500D01*
X150252986Y-75200500D01*
X150352568Y-75164256D01*
X150433748Y-75096138D01*
X150486734Y-75004363D01*
X150505136Y-74900000D01*
X150486734Y-74795637D01*
X150433748Y-74703862D01*
X150352568Y-74635744D01*
X150252986Y-74599500D01*
X150147014Y-74599500D01*
X150067838Y-74628317D01*
X150047432Y-74635744D01*
X149966252Y-74703862D01*
X149913265Y-74795638D01*
X149894864Y-74900000D01*
X137400500Y-74900000D01*
X137400500Y-72800000D01*
X150294864Y-72800000D01*
X150313265Y-72904361D01*
X150313265Y-72904362D01*
X150313266Y-72904363D01*
X150366252Y-72996138D01*
X150447432Y-73064256D01*
X150547014Y-73100500D01*
X150652985Y-73100500D01*
X150652986Y-73100500D01*
X150752568Y-73064256D01*
X150833748Y-72996138D01*
X150886734Y-72904363D01*
X150905136Y-72800000D01*
X150886734Y-72695637D01*
X150833748Y-72603862D01*
X150752568Y-72535744D01*
X150652986Y-72499500D01*
X150547014Y-72499500D01*
X150447431Y-72535744D01*
X150447432Y-72535744D01*
X150366252Y-72603862D01*
X150313265Y-72695638D01*
X150294864Y-72800000D01*
X137400500Y-72800000D01*
X137400500Y-71131182D01*
X139399500Y-71131182D01*
X139438604Y-71390615D01*
X139515937Y-71641323D01*
X139629772Y-71877704D01*
X139777567Y-72094479D01*
X139777570Y-72094482D01*
X139956020Y-72286807D01*
X140161137Y-72450382D01*
X140161140Y-72450384D01*
X140161143Y-72450386D01*
X140388357Y-72581568D01*
X140388358Y-72581568D01*
X140388361Y-72581570D01*
X140597995Y-72663845D01*
X140632584Y-72677420D01*
X140888370Y-72735802D01*
X140986438Y-72743151D01*
X141084504Y-72750500D01*
X141084506Y-72750500D01*
X141215494Y-72750500D01*
X141215496Y-72750500D01*
X141293948Y-72744620D01*
X141411630Y-72735802D01*
X141667416Y-72677420D01*
X141911643Y-72581568D01*
X142138857Y-72450386D01*
X142207510Y-72395637D01*
X142343979Y-72286807D01*
X142343981Y-72286805D01*
X142522433Y-72094479D01*
X142670228Y-71877704D01*
X142784063Y-71641323D01*
X142861396Y-71390615D01*
X142900500Y-71131182D01*
X152099500Y-71131182D01*
X152138604Y-71390615D01*
X152215937Y-71641323D01*
X152329772Y-71877704D01*
X152477567Y-72094479D01*
X152477570Y-72094482D01*
X152656020Y-72286807D01*
X152861137Y-72450382D01*
X152861140Y-72450384D01*
X152861143Y-72450386D01*
X153088357Y-72581568D01*
X153088358Y-72581568D01*
X153088361Y-72581570D01*
X153297995Y-72663845D01*
X153332584Y-72677420D01*
X153588370Y-72735802D01*
X153686438Y-72743151D01*
X153784504Y-72750500D01*
X153784506Y-72750500D01*
X153915494Y-72750500D01*
X153915496Y-72750500D01*
X153993948Y-72744620D01*
X154111630Y-72735802D01*
X154367416Y-72677420D01*
X154611643Y-72581568D01*
X154838857Y-72450386D01*
X154907510Y-72395637D01*
X155043979Y-72286807D01*
X155043981Y-72286805D01*
X155222433Y-72094479D01*
X155370228Y-71877704D01*
X155484063Y-71641323D01*
X155561396Y-71390615D01*
X155600500Y-71131182D01*
X155600500Y-70868818D01*
X155561396Y-70609385D01*
X155484063Y-70358677D01*
X155370228Y-70122296D01*
X155222433Y-69905521D01*
X155174401Y-69853755D01*
X155043979Y-69713192D01*
X154838862Y-69549617D01*
X154611638Y-69418429D01*
X154367420Y-69322581D01*
X154111627Y-69264197D01*
X153915496Y-69249500D01*
X153915494Y-69249500D01*
X153784506Y-69249500D01*
X153784504Y-69249500D01*
X153588372Y-69264197D01*
X153332579Y-69322581D01*
X153088361Y-69418429D01*
X152861137Y-69549617D01*
X152656020Y-69713192D01*
X152477570Y-69905517D01*
X152329770Y-70122299D01*
X152215937Y-70358675D01*
X152172499Y-70499500D01*
X152138604Y-70609385D01*
X152099500Y-70868818D01*
X152099500Y-71131182D01*
X142900500Y-71131182D01*
X142900500Y-70868818D01*
X142890127Y-70799999D01*
X145094864Y-70799999D01*
X145113265Y-70904361D01*
X145113265Y-70904362D01*
X145113266Y-70904363D01*
X145166252Y-70996138D01*
X145247432Y-71064256D01*
X145347014Y-71100500D01*
X145452985Y-71100500D01*
X145452986Y-71100500D01*
X145552568Y-71064256D01*
X145633748Y-70996138D01*
X145686734Y-70904363D01*
X145705136Y-70800000D01*
X145705136Y-70799999D01*
X149094864Y-70799999D01*
X149113265Y-70904361D01*
X149113265Y-70904362D01*
X149113266Y-70904363D01*
X149166252Y-70996138D01*
X149247432Y-71064256D01*
X149347014Y-71100500D01*
X149452985Y-71100500D01*
X149452986Y-71100500D01*
X149552568Y-71064256D01*
X149633748Y-70996138D01*
X149686734Y-70904363D01*
X149705136Y-70800000D01*
X149686734Y-70695637D01*
X149633748Y-70603862D01*
X149552568Y-70535744D01*
X149452986Y-70499500D01*
X149347014Y-70499500D01*
X149247432Y-70535743D01*
X149247432Y-70535744D01*
X149166252Y-70603862D01*
X149113265Y-70695638D01*
X149094864Y-70799999D01*
X145705136Y-70799999D01*
X145686734Y-70695637D01*
X145633748Y-70603862D01*
X145552568Y-70535744D01*
X145452986Y-70499500D01*
X145347014Y-70499500D01*
X145247432Y-70535743D01*
X145247432Y-70535744D01*
X145166252Y-70603862D01*
X145113265Y-70695638D01*
X145094864Y-70799999D01*
X142890127Y-70799999D01*
X142861396Y-70609385D01*
X142784063Y-70358677D01*
X142670228Y-70122296D01*
X142522433Y-69905521D01*
X142474401Y-69853755D01*
X142343979Y-69713192D01*
X142138862Y-69549617D01*
X141911638Y-69418429D01*
X141667420Y-69322581D01*
X141411627Y-69264197D01*
X141215496Y-69249500D01*
X141215494Y-69249500D01*
X141084506Y-69249500D01*
X141084504Y-69249500D01*
X140888372Y-69264197D01*
X140632579Y-69322581D01*
X140388361Y-69418429D01*
X140161137Y-69549617D01*
X139956020Y-69713192D01*
X139777570Y-69905517D01*
X139629770Y-70122299D01*
X139515937Y-70358675D01*
X139472499Y-70499500D01*
X139438604Y-70609385D01*
X139399500Y-70868818D01*
X139399500Y-71131182D01*
X137400500Y-71131182D01*
X137400500Y-68983240D01*
X137400712Y-68976765D01*
X137412297Y-68800000D01*
X145094864Y-68800000D01*
X145113265Y-68904361D01*
X145113265Y-68904362D01*
X145113266Y-68904363D01*
X145166252Y-68996138D01*
X145247432Y-69064256D01*
X145347014Y-69100500D01*
X145452985Y-69100500D01*
X145452986Y-69100500D01*
X145552568Y-69064256D01*
X145633748Y-68996138D01*
X145686734Y-68904363D01*
X145705136Y-68800000D01*
X145705136Y-68799999D01*
X149094864Y-68799999D01*
X149113265Y-68904361D01*
X149113265Y-68904362D01*
X149113266Y-68904363D01*
X149166252Y-68996138D01*
X149247432Y-69064256D01*
X149347014Y-69100500D01*
X149452985Y-69100500D01*
X149452986Y-69100500D01*
X149552568Y-69064256D01*
X149629147Y-68999999D01*
X160119864Y-68999999D01*
X160138265Y-69104361D01*
X160138265Y-69104362D01*
X160138266Y-69104363D01*
X160191252Y-69196138D01*
X160272432Y-69264256D01*
X160372014Y-69300500D01*
X160477985Y-69300500D01*
X160477986Y-69300500D01*
X160577568Y-69264256D01*
X160658748Y-69196138D01*
X160711734Y-69104363D01*
X160730136Y-69000000D01*
X160711734Y-68895637D01*
X160658748Y-68803862D01*
X160577568Y-68735744D01*
X160477986Y-68699500D01*
X160372014Y-68699500D01*
X160300020Y-68725703D01*
X160272432Y-68735744D01*
X160191252Y-68803862D01*
X160138265Y-68895638D01*
X160119864Y-68999999D01*
X149629147Y-68999999D01*
X149633748Y-68996138D01*
X149686734Y-68904363D01*
X149705136Y-68800000D01*
X149686734Y-68695637D01*
X149633748Y-68603862D01*
X149552568Y-68535744D01*
X149452986Y-68499500D01*
X149347014Y-68499500D01*
X149247432Y-68535743D01*
X149247432Y-68535744D01*
X149166252Y-68603862D01*
X149113265Y-68695638D01*
X149094864Y-68799999D01*
X145705136Y-68799999D01*
X145686734Y-68695637D01*
X145633748Y-68603862D01*
X145552568Y-68535744D01*
X145452986Y-68499500D01*
X145347014Y-68499500D01*
X145247432Y-68535743D01*
X145247432Y-68535744D01*
X145166252Y-68603862D01*
X145113265Y-68695638D01*
X145094864Y-68800000D01*
X137412297Y-68800000D01*
X137416325Y-68738534D01*
X137418015Y-68725703D01*
X137463959Y-68494727D01*
X137467307Y-68482234D01*
X137543006Y-68259234D01*
X137547962Y-68247272D01*
X137652114Y-68036072D01*
X137658588Y-68024857D01*
X137789425Y-67829045D01*
X137797301Y-67818781D01*
X137952580Y-67641720D01*
X137961720Y-67632580D01*
X138138781Y-67477301D01*
X138149045Y-67469425D01*
X138344862Y-67338584D01*
X138356072Y-67332114D01*
X138567272Y-67227962D01*
X138579235Y-67223006D01*
X138802234Y-67147307D01*
X138814727Y-67143959D01*
X139045710Y-67098014D01*
X139058534Y-67096325D01*
X139296765Y-67080711D01*
X139303240Y-67080500D01*
X139326929Y-67080500D01*
X160673071Y-67080500D01*
X160696760Y-67080500D01*
X160703234Y-67080711D01*
G37*
%TD.AperFunction*%
%TD*%
M02*
