%TF.GenerationSoftware,KiCad,Pcbnew,7.0.1*%
%TF.CreationDate,2023-04-26T14:08:09+02:00*%
%TF.ProjectId,radartof-hardware,72616461-7274-46f6-962d-686172647761,1.4*%
%TF.SameCoordinates,Original*%
%TF.FileFunction,Copper,L6,Bot*%
%TF.FilePolarity,Positive*%
%FSLAX46Y46*%
G04 Gerber Fmt 4.6, Leading zero omitted, Abs format (unit mm)*
G04 Created by KiCad (PCBNEW 7.0.1) date 2023-04-26 14:08:09*
%MOMM*%
%LPD*%
G01*
G04 APERTURE LIST*
G04 Aperture macros list*
%AMRoundRect*
0 Rectangle with rounded corners*
0 $1 Rounding radius*
0 $2 $3 $4 $5 $6 $7 $8 $9 X,Y pos of 4 corners*
0 Add a 4 corners polygon primitive as box body*
4,1,4,$2,$3,$4,$5,$6,$7,$8,$9,$2,$3,0*
0 Add four circle primitives for the rounded corners*
1,1,$1+$1,$2,$3*
1,1,$1+$1,$4,$5*
1,1,$1+$1,$6,$7*
1,1,$1+$1,$8,$9*
0 Add four rect primitives between the rounded corners*
20,1,$1+$1,$2,$3,$4,$5,0*
20,1,$1+$1,$4,$5,$6,$7,0*
20,1,$1+$1,$6,$7,$8,$9,0*
20,1,$1+$1,$8,$9,$2,$3,0*%
%AMFreePoly0*
4,1,19,0.500000,-0.750000,0.000000,-0.750000,0.000000,-0.744911,-0.071157,-0.744911,-0.207708,-0.704816,-0.327430,-0.627875,-0.420627,-0.520320,-0.479746,-0.390866,-0.500000,-0.250000,-0.500000,0.250000,-0.479746,0.390866,-0.420627,0.520320,-0.327430,0.627875,-0.207708,0.704816,-0.071157,0.744911,0.000000,0.744911,0.000000,0.750000,0.500000,0.750000,0.500000,-0.750000,0.500000,-0.750000,
$1*%
%AMFreePoly1*
4,1,19,0.000000,0.744911,0.071157,0.744911,0.207708,0.704816,0.327430,0.627875,0.420627,0.520320,0.479746,0.390866,0.500000,0.250000,0.500000,-0.250000,0.479746,-0.390866,0.420627,-0.520320,0.327430,-0.627875,0.207708,-0.704816,0.071157,-0.744911,0.000000,-0.744911,0.000000,-0.750000,-0.500000,-0.750000,-0.500000,0.750000,0.000000,0.750000,0.000000,0.744911,0.000000,0.744911,
$1*%
G04 Aperture macros list end*
%TA.AperFunction,ComponentPad*%
%ADD10C,0.600000*%
%TD*%
%TA.AperFunction,ComponentPad*%
%ADD11O,0.900000X1.900000*%
%TD*%
%TA.AperFunction,SMDPad,CuDef*%
%ADD12RoundRect,0.225000X-0.225000X-0.250000X0.225000X-0.250000X0.225000X0.250000X-0.225000X0.250000X0*%
%TD*%
%TA.AperFunction,SMDPad,CuDef*%
%ADD13RoundRect,0.140000X-0.170000X0.140000X-0.170000X-0.140000X0.170000X-0.140000X0.170000X0.140000X0*%
%TD*%
%TA.AperFunction,SMDPad,CuDef*%
%ADD14RoundRect,0.200000X0.200000X0.275000X-0.200000X0.275000X-0.200000X-0.275000X0.200000X-0.275000X0*%
%TD*%
%TA.AperFunction,SMDPad,CuDef*%
%ADD15RoundRect,0.200000X-0.275000X0.200000X-0.275000X-0.200000X0.275000X-0.200000X0.275000X0.200000X0*%
%TD*%
%TA.AperFunction,SMDPad,CuDef*%
%ADD16RoundRect,0.225000X0.225000X0.250000X-0.225000X0.250000X-0.225000X-0.250000X0.225000X-0.250000X0*%
%TD*%
%TA.AperFunction,SMDPad,CuDef*%
%ADD17RoundRect,0.100000X0.100000X-0.637500X0.100000X0.637500X-0.100000X0.637500X-0.100000X-0.637500X0*%
%TD*%
%TA.AperFunction,SMDPad,CuDef*%
%ADD18RoundRect,0.200000X-0.200000X-0.275000X0.200000X-0.275000X0.200000X0.275000X-0.200000X0.275000X0*%
%TD*%
%TA.AperFunction,SMDPad,CuDef*%
%ADD19RoundRect,0.150000X0.512500X0.150000X-0.512500X0.150000X-0.512500X-0.150000X0.512500X-0.150000X0*%
%TD*%
%TA.AperFunction,SMDPad,CuDef*%
%ADD20R,1.750000X0.700000*%
%TD*%
%TA.AperFunction,SMDPad,CuDef*%
%ADD21R,1.550000X1.000000*%
%TD*%
%TA.AperFunction,SMDPad,CuDef*%
%ADD22R,1.000000X1.450000*%
%TD*%
%TA.AperFunction,SMDPad,CuDef*%
%ADD23R,1.500000X0.800000*%
%TD*%
%TA.AperFunction,SMDPad,CuDef*%
%ADD24R,1.500000X1.300000*%
%TD*%
%TA.AperFunction,SMDPad,CuDef*%
%ADD25R,1.500000X1.500000*%
%TD*%
%TA.AperFunction,SMDPad,CuDef*%
%ADD26R,1.400000X0.800000*%
%TD*%
%TA.AperFunction,SMDPad,CuDef*%
%ADD27RoundRect,0.225000X0.250000X-0.225000X0.250000X0.225000X-0.250000X0.225000X-0.250000X-0.225000X0*%
%TD*%
%TA.AperFunction,SMDPad,CuDef*%
%ADD28R,0.200000X0.700000*%
%TD*%
%TA.AperFunction,SMDPad,CuDef*%
%ADD29RoundRect,0.225000X-0.250000X0.225000X-0.250000X-0.225000X0.250000X-0.225000X0.250000X0.225000X0*%
%TD*%
%TA.AperFunction,SMDPad,CuDef*%
%ADD30RoundRect,0.147500X-0.172500X0.147500X-0.172500X-0.147500X0.172500X-0.147500X0.172500X0.147500X0*%
%TD*%
%TA.AperFunction,SMDPad,CuDef*%
%ADD31R,3.400000X1.350000*%
%TD*%
%TA.AperFunction,SMDPad,CuDef*%
%ADD32RoundRect,0.147500X-0.147500X-0.172500X0.147500X-0.172500X0.147500X0.172500X-0.147500X0.172500X0*%
%TD*%
%TA.AperFunction,SMDPad,CuDef*%
%ADD33FreePoly0,0.000000*%
%TD*%
%TA.AperFunction,SMDPad,CuDef*%
%ADD34FreePoly1,0.000000*%
%TD*%
%TA.AperFunction,SMDPad,CuDef*%
%ADD35RoundRect,0.200000X0.275000X-0.200000X0.275000X0.200000X-0.275000X0.200000X-0.275000X-0.200000X0*%
%TD*%
%TA.AperFunction,SMDPad,CuDef*%
%ADD36C,1.000000*%
%TD*%
%TA.AperFunction,ViaPad*%
%ADD37C,0.400000*%
%TD*%
%TA.AperFunction,Conductor*%
%ADD38C,0.100000*%
%TD*%
%TA.AperFunction,Conductor*%
%ADD39C,0.250000*%
%TD*%
%TA.AperFunction,Conductor*%
%ADD40C,0.150000*%
%TD*%
%TA.AperFunction,Conductor*%
%ADD41C,0.200000*%
%TD*%
%TA.AperFunction,Conductor*%
%ADD42C,0.500000*%
%TD*%
G04 APERTURE END LIST*
D10*
%TO.P,J4,A1,GND*%
%TO.N,GND*%
X160906750Y-73725000D03*
%TO.P,J4,A4,VBUS*%
%TO.N,unconnected-(J4-VBUS-PadA4)*%
X160906750Y-74625000D03*
%TO.P,J4,A5,CC1*%
%TO.N,Net-(J4-CC1)*%
X160906750Y-75525000D03*
%TO.P,J4,A6,D+*%
%TO.N,/Connectors/conn_USB-*%
X160906750Y-76425000D03*
%TO.P,J4,A7,D-*%
%TO.N,/Connectors/conn_USB+*%
X160906750Y-77325000D03*
%TO.P,J4,A9,VBUS*%
%TO.N,unconnected-(J4-VBUS-PadA4)*%
X160906750Y-78225000D03*
%TO.P,J4,A12,GND*%
%TO.N,GND*%
X160906750Y-79125000D03*
%TO.P,J4,B1,GND*%
X160126750Y-78675000D03*
%TO.P,J4,B4,VBUS*%
%TO.N,unconnected-(J4-VBUS-PadA4)*%
X160126750Y-77775000D03*
%TO.P,J4,B5,CC2*%
%TO.N,Net-(J4-CC2)*%
X160126750Y-76875000D03*
%TO.P,J4,B6,D+*%
%TO.N,/Connectors/conn_USB-*%
X160126750Y-75975000D03*
%TO.P,J4,B7,D-*%
%TO.N,/Connectors/conn_USB+*%
X160126750Y-75075000D03*
%TO.P,J4,B9,VBUS*%
%TO.N,unconnected-(J4-VBUS-PadA4)*%
X160126750Y-74175000D03*
%TO.P,J4,B12,GND*%
%TO.N,GND*%
X160126750Y-73275000D03*
D11*
%TO.P,J4,S1,SHIELD*%
%TO.N,/Connectors/USB_Shield*%
X161946750Y-78575000D03*
X161946750Y-73775000D03*
X159086750Y-78575000D03*
X159086750Y-73775000D03*
%TD*%
D12*
%TO.P,C21,1*%
%TO.N,/Radar/VDD_VCO*%
X158925000Y-104500000D03*
%TO.P,C21,2*%
%TO.N,GND*%
X160475000Y-104500000D03*
%TD*%
D13*
%TO.P,C20,1*%
%TO.N,/Radar/VDD_RF*%
X157500000Y-108120000D03*
%TO.P,C20,2*%
%TO.N,GND*%
X157500000Y-109080000D03*
%TD*%
D14*
%TO.P,R9,1*%
%TO.N,/Camera/CAM_PWDN*%
X148225000Y-72800000D03*
%TO.P,R9,2*%
%TO.N,GND*%
X146575000Y-72800000D03*
%TD*%
D15*
%TO.P,R24,1*%
%TO.N,+3.3V*%
X139500000Y-102675000D03*
%TO.P,R24,2*%
%TO.N,VTOF*%
X139500000Y-104325000D03*
%TD*%
D12*
%TO.P,C16,1*%
%TO.N,/Radar/VDD_RF*%
X158925000Y-106100000D03*
%TO.P,C16,2*%
%TO.N,GND*%
X160475000Y-106100000D03*
%TD*%
D16*
%TO.P,C54,1*%
%TO.N,/Connectors/USB_Shield*%
X160375000Y-68100000D03*
%TO.P,C54,2*%
%TO.N,GND*%
X158825000Y-68100000D03*
%TD*%
D14*
%TO.P,R18,1*%
%TO.N,/Connectors/ETH_LED2*%
X148225000Y-70800000D03*
%TO.P,R18,2*%
%TO.N,Net-(J5-Pad1)*%
X146575000Y-70800000D03*
%TD*%
D12*
%TO.P,C48,1*%
%TO.N,VCAM*%
X144725000Y-118200000D03*
%TO.P,C48,2*%
%TO.N,GND*%
X146275000Y-118200000D03*
%TD*%
D17*
%TO.P,U6,1,VCCA*%
%TO.N,Vradar*%
X161450000Y-118862500D03*
%TO.P,U6,2,A1*%
%TO.N,unconnected-(U6-A1-Pad2)*%
X160800000Y-118862500D03*
%TO.P,U6,3,A2*%
%TO.N,/Portenta/SPI2_NSS*%
X160150000Y-118862500D03*
%TO.P,U6,4,A3*%
%TO.N,/Portenta/RADAR_nRST*%
X159500000Y-118862500D03*
%TO.P,U6,5,A4Y*%
%TO.N,/Portenta/SPI2_MISO*%
X158850000Y-118862500D03*
%TO.P,U6,6,NC*%
%TO.N,unconnected-(U6-NC-Pad6)*%
X158200000Y-118862500D03*
%TO.P,U6,7,GND*%
%TO.N,GND*%
X157550000Y-118862500D03*
%TO.P,U6,8,OE*%
%TO.N,+1V8*%
X157550000Y-113137500D03*
%TO.P,U6,9,NC*%
%TO.N,unconnected-(U6-NC-Pad9)*%
X158200000Y-113137500D03*
%TO.P,U6,10,B4*%
%TO.N,/Radar/MISO_1V8*%
X158850000Y-113137500D03*
%TO.P,U6,11,B3Y*%
%TO.N,/Radar/RST_1V8*%
X159500000Y-113137500D03*
%TO.P,U6,12,B2Y*%
%TO.N,/Radar/NSS_1V8*%
X160150000Y-113137500D03*
%TO.P,U6,13,B1Y*%
%TO.N,unconnected-(U6-B1Y-Pad13)*%
X160800000Y-113137500D03*
%TO.P,U6,14,VCCB*%
%TO.N,+1V8*%
X161450000Y-113137500D03*
%TD*%
D18*
%TO.P,R16,1*%
%TO.N,GND*%
X158775000Y-71500000D03*
%TO.P,R16,2*%
%TO.N,Net-(J4-CC1)*%
X160425000Y-71500000D03*
%TD*%
%TO.P,R25,1*%
%TO.N,/Portenta/nLEDR*%
X156175000Y-131900000D03*
%TO.P,R25,2*%
%TO.N,/Portenta/CATR*%
X157825000Y-131900000D03*
%TD*%
D16*
%TO.P,C34,1*%
%TO.N,/Camera/CAM_nRST*%
X148175000Y-74900000D03*
%TO.P,C34,2*%
%TO.N,GND*%
X146625000Y-74900000D03*
%TD*%
%TO.P,C53,1*%
%TO.N,Net-(U12-VBUS)*%
X156075000Y-78700000D03*
%TO.P,C53,2*%
%TO.N,GND*%
X154525000Y-78700000D03*
%TD*%
D19*
%TO.P,U11,1,Vin*%
%TO.N,/Camera/5v_tof*%
X147137500Y-113050000D03*
%TO.P,U11,2,GND*%
%TO.N,GND*%
X147137500Y-114000000D03*
%TO.P,U11,3,EN*%
%TO.N,/Camera/5v_tof*%
X147137500Y-114950000D03*
%TO.P,U11,4,FB*%
%TO.N,VCAM*%
X144862500Y-114950000D03*
%TO.P,U11,5,SW*%
%TO.N,/Camera/LX*%
X144862500Y-113050000D03*
%TD*%
D20*
%TO.P,J3,1,DAT2*%
%TO.N,Net-(J3-DAT2)*%
X141562500Y-91825000D03*
%TO.P,J3,2,DAT3/CD*%
%TO.N,/Portenta/SDC_D3*%
X141562500Y-92925000D03*
%TO.P,J3,3,CMD*%
%TO.N,/Portenta/SDC_CMD*%
X141562500Y-94025000D03*
%TO.P,J3,4,VDD*%
%TO.N,+3.3V*%
X141562500Y-95125000D03*
%TO.P,J3,5,CLK*%
%TO.N,/Portenta/SDC_CLK*%
X141562500Y-96225000D03*
%TO.P,J3,6,VSS*%
%TO.N,GND*%
X141562500Y-97325000D03*
%TO.P,J3,7,DAT0*%
%TO.N,/Portenta/SDC_D0*%
X141562500Y-98425000D03*
%TO.P,J3,8,DAT1*%
%TO.N,/Portenta/SDC_D1*%
X141562500Y-99525000D03*
D21*
%TO.P,J3,9,DET_B*%
%TO.N,/Portenta/SDC_CD*%
X152362500Y-89450000D03*
D22*
%TO.P,J3,10,DET_A*%
%TO.N,GND*%
X150787500Y-100650000D03*
D23*
%TO.P,J3,11,SHIELD*%
X149287500Y-100975000D03*
D24*
X141687500Y-100725000D03*
D25*
X141687500Y-89375000D03*
D26*
X149937500Y-89050000D03*
%TD*%
D27*
%TO.P,C18,1*%
%TO.N,+1V8*%
X152600000Y-106875000D03*
%TO.P,C18,2*%
%TO.N,GND*%
X152600000Y-105325000D03*
%TD*%
D18*
%TO.P,R5,1*%
%TO.N,+3.3V*%
X138175000Y-85000000D03*
%TO.P,R5,2*%
%TO.N,/Portenta/TOF_LPn*%
X139825000Y-85000000D03*
%TD*%
D12*
%TO.P,C47,1*%
%TO.N,VCAM*%
X144725000Y-116600000D03*
%TO.P,C47,2*%
%TO.N,GND*%
X146275000Y-116600000D03*
%TD*%
D18*
%TO.P,R11,1*%
%TO.N,VCAM*%
X147975000Y-106200000D03*
%TO.P,R11,2*%
%TO.N,/Camera/I2C1_SCL*%
X149625000Y-106200000D03*
%TD*%
D28*
%TO.P,U1,J1_1,ETH_A+*%
%TO.N,/Connectors/ETH_A+*%
X157800000Y-82580000D03*
%TO.P,U1,J1_2,NC*%
%TO.N,unconnected-(U1A-NC-PadJ1_2)*%
X157800000Y-85660000D03*
%TO.P,U1,J1_3,ETH_A-*%
%TO.N,/Connectors/ETH_A-*%
X157400000Y-82580000D03*
%TO.P,U1,J1_4,NC*%
%TO.N,unconnected-(U1A-NC-PadJ1_4)*%
X157400000Y-85660000D03*
%TO.P,U1,J1_5,ETH_B+*%
%TO.N,/Connectors/ETH_B+*%
X157000000Y-82580000D03*
%TO.P,U1,J1_6,NC*%
%TO.N,unconnected-(U1A-NC-PadJ1_6)*%
X157000000Y-85660000D03*
%TO.P,U1,J1_7,ETH_B-*%
%TO.N,/Connectors/ETH_B-*%
X156600000Y-82580000D03*
%TO.P,U1,J1_8,NC*%
%TO.N,unconnected-(U1A-NC-PadJ1_8)*%
X156600000Y-85660000D03*
%TO.P,U1,J1_9,NC*%
%TO.N,unconnected-(U1A-NC-PadJ1_9)*%
X156200000Y-82580000D03*
%TO.P,U1,J1_10,DSI_D1+*%
%TO.N,unconnected-(U1A-DSI_D1+-PadJ1_10)*%
X156200000Y-85660000D03*
%TO.P,U1,J1_11,NC*%
%TO.N,unconnected-(U1A-NC-PadJ1_11)*%
X155800000Y-82580000D03*
%TO.P,U1,J1_12,DSI_D1-*%
%TO.N,unconnected-(U1A-DSI_D1--PadJ1_12)*%
X155800000Y-85660000D03*
%TO.P,U1,J1_13,NC*%
%TO.N,unconnected-(U1A-NC-PadJ1_13)*%
X155400000Y-82580000D03*
%TO.P,U1,J1_14,DSI_D0+*%
%TO.N,unconnected-(U1A-DSI_D0+-PadJ1_14)*%
X155400000Y-85660000D03*
%TO.P,U1,J1_15,NC*%
%TO.N,unconnected-(U1A-NC-PadJ1_15)*%
X155000000Y-82580000D03*
%TO.P,U1,J1_16,DSI_D0-*%
%TO.N,unconnected-(U1A-DSI_D0--PadJ1_16)*%
X155000000Y-85660000D03*
%TO.P,U1,J1_17,ETH_L1*%
%TO.N,/Connectors/ETH_LED1*%
X154600000Y-82580000D03*
%TO.P,U1,J1_18,DSI_CK+*%
%TO.N,unconnected-(U1A-DSI_CK+-PadJ1_18)*%
X154600000Y-85660000D03*
%TO.P,U1,J1_19,ETH_L2*%
%TO.N,/Connectors/ETH_LED2*%
X154200000Y-82580000D03*
%TO.P,U1,J1_20,DSI_CK-*%
%TO.N,unconnected-(U1A-DSI_CK--PadJ1_20)*%
X154200000Y-85660000D03*
%TO.P,U1,J1_21,VIN*%
%TO.N,unconnected-(U1A-VIN-PadJ1_21)*%
X153800000Y-82580000D03*
%TO.P,U1,J1_22,GND*%
%TO.N,GND*%
X153800000Y-85660000D03*
%TO.P,U1,J1_23,USB1_VBUS*%
%TO.N,+5V*%
X153400000Y-82580000D03*
%TO.P,U1,J1_24,NC*%
%TO.N,unconnected-(U1A-NC-PadJ1_24)*%
X153400000Y-85660000D03*
%TO.P,U1,J1_25,USB1_D+*%
%TO.N,unconnected-(U1A-USB1_D+-PadJ1_25)*%
X153000000Y-82580000D03*
%TO.P,U1,J1_26,USB0_D+*%
%TO.N,/Connectors/USB_FS+*%
X153000000Y-85660000D03*
%TO.P,U1,J1_27,USB1_D-*%
%TO.N,unconnected-(U1A-USB1_D--PadJ1_27)*%
X152600000Y-82580000D03*
%TO.P,U1,J1_28,USB0_D-*%
%TO.N,/Connectors/USB_FS-*%
X152600000Y-85660000D03*
%TO.P,U1,J1_29,USB1_ID*%
%TO.N,unconnected-(U1A-USB1_ID-PadJ1_29)*%
X152200000Y-82580000D03*
%TO.P,U1,J1_30,NC*%
%TO.N,unconnected-(U1A-NC-PadJ1_30)*%
X152200000Y-85660000D03*
%TO.P,U1,J1_31,GND*%
%TO.N,GND*%
X151800000Y-82580000D03*
%TO.P,U1,J1_32,VIN*%
%TO.N,unconnected-(U1A-VIN-PadJ1_21)*%
X151800000Y-85660000D03*
%TO.P,U1,J1_33,UART1_TX*%
%TO.N,unconnected-(U1A-UART1_TX-PadJ1_33)*%
X151400000Y-82580000D03*
%TO.P,U1,J1_34,UART0_TX*%
%TO.N,/Portenta/UART4_TX*%
X151400000Y-85660000D03*
%TO.P,U1,J1_35,UART1_RX*%
%TO.N,unconnected-(U1A-UART1_RX-PadJ1_35)*%
X151000000Y-82580000D03*
%TO.P,U1,J1_36,UART0_RX*%
%TO.N,/Portenta/UART4_RX*%
X151000000Y-85660000D03*
%TO.P,U1,J1_37,UART1_RTS*%
%TO.N,/Camera/CAM_PWDN*%
X150600000Y-82580000D03*
%TO.P,U1,J1_38,UART0_RTS*%
%TO.N,/Portenta/SDC_CD*%
X150600000Y-85660000D03*
%TO.P,U1,J1_39,UART1_CTS*%
%TO.N,/Camera/CAM_nRST*%
X150200000Y-82580000D03*
%TO.P,U1,J1_40,UART0_CTS*%
%TO.N,unconnected-(U1A-UART0_CTS-PadJ1_40)*%
X150200000Y-85660000D03*
%TO.P,U1,J1_41,VIN*%
%TO.N,unconnected-(U1A-VIN-PadJ1_21)*%
X149800000Y-82580000D03*
%TO.P,U1,J1_42,GND*%
%TO.N,GND*%
X149800000Y-85660000D03*
%TO.P,U1,J1_43,I2C1_SDA*%
%TO.N,/Camera/I2C1_SDA*%
X149400000Y-82580000D03*
%TO.P,U1,J1_44,I2C0_SDA*%
%TO.N,/Portenta/I2C3_SDA*%
X149400000Y-85660000D03*
%TO.P,U1,J1_45,I2C1_SCL*%
%TO.N,/Camera/I2C1_SCL*%
X149000000Y-82580000D03*
%TO.P,U1,J1_46,I2C0_SCL*%
%TO.N,/Portenta/I2C3_SCL*%
X149000000Y-85660000D03*
%TO.P,U1,J1_47,GND*%
%TO.N,GND*%
X148600000Y-82580000D03*
%TO.P,U1,J1_48,VIN*%
%TO.N,unconnected-(U1A-VIN-PadJ1_21)*%
X148600000Y-85660000D03*
%TO.P,U1,J1_49,CAN1_TX*%
%TO.N,unconnected-(U1A-CAN1_TX-PadJ1_49)*%
X148200000Y-82580000D03*
%TO.P,U1,J1_50,NC*%
%TO.N,unconnected-(U1A-NC-PadJ1_50)*%
X148200000Y-85660000D03*
%TO.P,U1,J1_51,CAN1_RX*%
%TO.N,unconnected-(U1A-CAN1_RX-PadJ1_51)*%
X147800000Y-82580000D03*
%TO.P,U1,J1_52,NC*%
%TO.N,unconnected-(U1A-NC-PadJ1_52)*%
X147800000Y-85660000D03*
%TO.P,U1,J1_53,VSYS*%
%TO.N,unconnected-(U1A-VSYS-PadJ1_53)*%
X147400000Y-82580000D03*
%TO.P,U1,J1_54,GND*%
%TO.N,GND*%
X147400000Y-85660000D03*
%TO.P,U1,J1_55,SDC_CLK*%
%TO.N,/Portenta/SDC_CLK*%
X147000000Y-82580000D03*
%TO.P,U1,J1_56,I2S_MCK*%
%TO.N,/Portenta/TOF_RST*%
X147000000Y-85660000D03*
%TO.P,U1,J1_57,SDC_CMD*%
%TO.N,/Portenta/SDC_CMD*%
X146600000Y-82580000D03*
%TO.P,U1,J1_58,I2S_WS*%
%TO.N,/Portenta/TOF_INT*%
X146600000Y-85660000D03*
%TO.P,U1,J1_59,SDC_D0*%
%TO.N,/Portenta/SDC_D0*%
X146200000Y-82580000D03*
%TO.P,U1,J1_60,I2S_DI*%
%TO.N,/Portenta/TOF_LPn*%
X146200000Y-85660000D03*
%TO.P,U1,J1_61,SDC_D1*%
%TO.N,/Portenta/SDC_D1*%
X145800000Y-82580000D03*
%TO.P,U1,J1_62,I2S_DO*%
%TO.N,unconnected-(U1A-I2S_DO-PadJ1_62)*%
X145800000Y-85660000D03*
%TO.P,U1,J1_63,SDC_D2*%
%TO.N,/Portenta/SDC_D2*%
X145400000Y-82580000D03*
%TO.P,U1,J1_64,VSYS*%
%TO.N,unconnected-(U1A-VSYS-PadJ1_53)*%
X145400000Y-85660000D03*
%TO.P,U1,J1_65,SDC_D3*%
%TO.N,/Portenta/SDC_D3*%
X145000000Y-82580000D03*
%TO.P,U1,J1_66,DMIC_CK*%
%TO.N,unconnected-(U1A-DMIC_CK-PadJ1_66)*%
X145000000Y-85660000D03*
%TO.P,U1,J1_67,NC*%
%TO.N,unconnected-(U1A-NC-PadJ1_67)*%
X144600000Y-82580000D03*
%TO.P,U1,J1_68,DMIC_D0*%
%TO.N,unconnected-(U1A-DMIC_D0-PadJ1_68)*%
X144600000Y-85660000D03*
%TO.P,U1,J1_69,NC*%
%TO.N,unconnected-(U1A-NC-PadJ1_69)*%
X144200000Y-82580000D03*
%TO.P,U1,J1_70,NC*%
%TO.N,unconnected-(U1A-NC-PadJ1_70)*%
X144200000Y-85660000D03*
%TO.P,U1,J1_71,NC*%
%TO.N,unconnected-(U1A-NC-PadJ1_71)*%
X143800000Y-82580000D03*
%TO.P,U1,J1_72,V-SDCARD*%
%TO.N,+3.3V*%
X143800000Y-85660000D03*
%TO.P,U1,J1_73,~{RESET}*%
%TO.N,/Portenta/nRST*%
X143400000Y-82580000D03*
%TO.P,U1,J1_74,NC*%
%TO.N,unconnected-(U1A-NC-PadJ1_74)*%
X143400000Y-85660000D03*
%TO.P,U1,J1_75,SWDIO*%
%TO.N,/Portenta/SWDIO*%
X143000000Y-82580000D03*
%TO.P,U1,J1_76,NC*%
%TO.N,unconnected-(U1A-NC-PadJ1_76)*%
X143000000Y-85660000D03*
%TO.P,U1,J1_77,SWCK*%
%TO.N,/Portenta/SWCLK*%
X142600000Y-82580000D03*
%TO.P,U1,J1_78,NC*%
%TO.N,unconnected-(U1A-NC-PadJ1_78)*%
X142600000Y-85660000D03*
%TO.P,U1,J1_79,SWO*%
%TO.N,/Portenta/SWO*%
X142200000Y-82580000D03*
%TO.P,U1,J1_80,NC*%
%TO.N,unconnected-(U1A-NC-PadJ1_80)*%
X142200000Y-85660000D03*
%TO.P,U1,J2_1,FORCE_BOOTLOADER*%
%TO.N,unconnected-(U1B-FORCE_BOOTLOADER-PadJ2_1)*%
X142200000Y-128840000D03*
%TO.P,U1,J2_2,CAM_D7*%
%TO.N,/Camera/CAM_D7*%
X142200000Y-125760000D03*
%TO.P,U1,J2_3,BOOT_SOURCE*%
%TO.N,unconnected-(U1B-BOOT_SOURCE-PadJ2_3)*%
X142600000Y-128840000D03*
%TO.P,U1,J2_4,CAM_D6*%
%TO.N,/Camera/CAM_D6*%
X142600000Y-125760000D03*
%TO.P,U1,J2_5,POWER_ON_REQ*%
%TO.N,unconnected-(U1B-POWER_ON_REQ-PadJ2_5)*%
X143000000Y-128840000D03*
%TO.P,U1,J2_6,CAM_D5*%
%TO.N,/Camera/CAM_D5*%
X143000000Y-125760000D03*
%TO.P,U1,J2_7,COINCELL*%
%TO.N,unconnected-(U1B-COINCELL-PadJ2_7)*%
X143400000Y-128840000D03*
%TO.P,U1,J2_8,CAM_D4*%
%TO.N,/Camera/CAM_D4*%
X143400000Y-125760000D03*
%TO.P,U1,J2_9,NC_1*%
%TO.N,unconnected-(U1B-NC_1-PadJ2_9)*%
X143800000Y-128840000D03*
%TO.P,U1,J2_10,CAM_D3*%
%TO.N,/Camera/CAM_D3*%
X143800000Y-125760000D03*
%TO.P,U1,J2_11,NC_1*%
%TO.N,unconnected-(U1B-NC_1-PadJ2_11)*%
X144200000Y-128840000D03*
%TO.P,U1,J2_12,CAM_D2*%
%TO.N,/Camera/CAM_D2*%
X144200000Y-125760000D03*
%TO.P,U1,J2_13,NC_1*%
%TO.N,unconnected-(U1B-NC_1-PadJ2_13)*%
X144600000Y-128840000D03*
%TO.P,U1,J2_14,CAM_D1*%
%TO.N,/Camera/CAM_D1*%
X144600000Y-125760000D03*
%TO.P,U1,J2_15,NC_1*%
%TO.N,unconnected-(U1B-NC_1-PadJ2_15)*%
X145000000Y-128840000D03*
%TO.P,U1,J2_16,CAM_D0*%
%TO.N,/Camera/CAM_D0*%
X145000000Y-125760000D03*
%TO.P,U1,J2_17,NC_1*%
%TO.N,unconnected-(U1B-NC_1-PadJ2_17)*%
X145400000Y-128840000D03*
%TO.P,U1,J2_18,CAM_VS*%
%TO.N,/Camera/CAM_VS*%
X145400000Y-125760000D03*
%TO.P,U1,J2_19,NC_1*%
%TO.N,unconnected-(U1B-NC_1-PadJ2_19)*%
X145800000Y-128840000D03*
%TO.P,U1,J2_20,CAM_CLK*%
%TO.N,/Camera/CAM_CK*%
X145800000Y-125760000D03*
%TO.P,U1,J2_21,NC_1*%
%TO.N,unconnected-(U1B-NC_1-PadJ2_21)*%
X146200000Y-128840000D03*
%TO.P,U1,J2_22,CAM_HS*%
%TO.N,/Camera/CAM_HS*%
X146200000Y-125760000D03*
%TO.P,U1,J2_23,VCC/+3V3*%
%TO.N,+3.3V*%
X146600000Y-128840000D03*
%TO.P,U1,J2_24,GND_1*%
%TO.N,GND*%
X146600000Y-125760000D03*
%TO.P,U1,J2_25,UART3_TX*%
%TO.N,unconnected-(U1B-UART3_TX-PadJ2_25)*%
X147000000Y-128840000D03*
%TO.P,U1,J2_26,UART2_TX*%
%TO.N,/Portenta/RADAR_INT*%
X147000000Y-125760000D03*
%TO.P,U1,J2_27,UART3_RX*%
%TO.N,unconnected-(U1B-UART3_RX-PadJ2_27)*%
X147400000Y-128840000D03*
%TO.P,U1,J2_28,UART2_RX*%
%TO.N,/Portenta/RADAR_nRST*%
X147400000Y-125760000D03*
%TO.P,U1,J2_29,NC_1*%
%TO.N,unconnected-(U1B-NC_1-PadJ2_29)*%
X147800000Y-128840000D03*
%TO.P,U1,J2_30,NC_1*%
%TO.N,unconnected-(U1B-NC_1-PadJ2_30)*%
X147800000Y-125760000D03*
%TO.P,U1,J2_31,NC_1*%
%TO.N,unconnected-(U1B-NC_1-PadJ2_31)*%
X148200000Y-128840000D03*
%TO.P,U1,J2_32,NC_1*%
%TO.N,unconnected-(U1B-NC_1-PadJ2_32)*%
X148200000Y-125760000D03*
%TO.P,U1,J2_33,GND_1*%
%TO.N,GND*%
X148600000Y-128840000D03*
%TO.P,U1,J2_34,VCC*%
%TO.N,+3.3V*%
X148600000Y-125760000D03*
%TO.P,U1,J2_35,NC_1*%
%TO.N,unconnected-(U1B-NC_1-PadJ2_35)*%
X149000000Y-128840000D03*
%TO.P,U1,J2_36,SPI1_CS*%
%TO.N,/Portenta/SPI2_NSS*%
X149000000Y-125760000D03*
%TO.P,U1,J2_37,NC_1*%
%TO.N,unconnected-(U1B-NC_1-PadJ2_37)*%
X149400000Y-128840000D03*
%TO.P,U1,J2_38,SPI1_CK*%
%TO.N,/Portenta/SPI2_SCK*%
X149400000Y-125760000D03*
%TO.P,U1,J2_39,NC_1*%
%TO.N,unconnected-(U1B-NC_1-PadJ2_39)*%
X149800000Y-128840000D03*
%TO.P,U1,J2_40,SPI1_MISO*%
%TO.N,/Portenta/SPI2_MISO*%
X149800000Y-125760000D03*
%TO.P,U1,J2_41,NC_1*%
%TO.N,unconnected-(U1B-NC_1-PadJ2_41)*%
X150200000Y-128840000D03*
%TO.P,U1,J2_42,SPI1_MOSI*%
%TO.N,/Portenta/SPI2_MOSI*%
X150200000Y-125760000D03*
%TO.P,U1,J2_43,VCC/+3V3*%
%TO.N,+3.3V*%
X150600000Y-128840000D03*
%TO.P,U1,J2_44,GND_1*%
%TO.N,GND*%
X150600000Y-125760000D03*
%TO.P,U1,J2_45,I2C2_SDA*%
%TO.N,unconnected-(U1B-I2C2_SDA-PadJ2_45)*%
X151000000Y-128840000D03*
%TO.P,U1,J2_46,GPIO_0*%
%TO.N,unconnected-(U1B-GPIO_0-PadJ2_46)*%
X151000000Y-125760000D03*
%TO.P,U1,J2_47,I2C2_SCL*%
%TO.N,unconnected-(U1B-I2C2_SCL-PadJ2_47)*%
X151400000Y-128840000D03*
%TO.P,U1,J2_48,GPIO_1*%
%TO.N,unconnected-(U1B-GPIO_1-PadJ2_48)*%
X151400000Y-125760000D03*
%TO.P,U1,J2_49,SAI_CK*%
%TO.N,unconnected-(U1B-SAI_CK-PadJ2_49)*%
X151800000Y-128840000D03*
%TO.P,U1,J2_50,GPIO_2*%
%TO.N,unconnected-(U1B-GPIO_2-PadJ2_50)*%
X151800000Y-125760000D03*
%TO.P,U1,J2_51,SAI_FS*%
%TO.N,unconnected-(U1B-SAI_FS-PadJ2_51)*%
X152200000Y-128840000D03*
%TO.P,U1,J2_52,GPIO_3*%
%TO.N,unconnected-(U1B-GPIO_3-PadJ2_52)*%
X152200000Y-125760000D03*
%TO.P,U1,J2_53,SAI_D0*%
%TO.N,unconnected-(U1B-SAI_D0-PadJ2_53)*%
X152600000Y-128840000D03*
%TO.P,U1,J2_54,GPIO_4*%
%TO.N,unconnected-(U1B-GPIO_4-PadJ2_54)*%
X152600000Y-125760000D03*
%TO.P,U1,J2_55,NC_1*%
%TO.N,unconnected-(U1B-NC_1-PadJ2_55)*%
X153000000Y-128840000D03*
%TO.P,U1,J2_56,GPIO_5*%
%TO.N,unconnected-(U1B-GPIO_5-PadJ2_56)*%
X153000000Y-125760000D03*
%TO.P,U1,J2_57,GND_1*%
%TO.N,GND*%
X153400000Y-128840000D03*
%TO.P,U1,J2_58,GPIO_6*%
%TO.N,unconnected-(U1B-GPIO_6-PadJ2_58)*%
X153400000Y-125760000D03*
%TO.P,U1,J2_59,PWM_1*%
%TO.N,unconnected-(U1B-PWM_1-PadJ2_59)*%
X153800000Y-128840000D03*
%TO.P,U1,J2_60,PWM_6*%
%TO.N,unconnected-(U1B-PWM_6-PadJ2_60)*%
X153800000Y-125760000D03*
%TO.P,U1,J2_61,PWM_2*%
%TO.N,unconnected-(U1B-PWM_2-PadJ2_61)*%
X154200000Y-128840000D03*
%TO.P,U1,J2_62,PWM_7*%
%TO.N,unconnected-(U1B-PWM_7-PadJ2_62)*%
X154200000Y-125760000D03*
%TO.P,U1,J2_63,PWM_3*%
%TO.N,/Portenta/nLEDR*%
X154600000Y-128840000D03*
%TO.P,U1,J2_64,PWM_8*%
%TO.N,unconnected-(U1B-PWM_8-PadJ2_64)*%
X154600000Y-125760000D03*
%TO.P,U1,J2_65,PWM_4*%
%TO.N,/Portenta/nLEDG*%
X155000000Y-128840000D03*
%TO.P,U1,J2_66,PWM_9*%
%TO.N,unconnected-(U1B-PWM_9-PadJ2_66)*%
X155000000Y-125760000D03*
%TO.P,U1,J2_67,PWM_5*%
%TO.N,/Portenta/nLEDB*%
X155400000Y-128840000D03*
%TO.P,U1,J2_68,PWM_10*%
%TO.N,unconnected-(U1B-PWM_10-PadJ2_68)*%
X155400000Y-125760000D03*
%TO.P,U1,J2_69,VCC/+3V3*%
%TO.N,+3.3V*%
X155800000Y-128840000D03*
%TO.P,U1,J2_70,GND_1*%
%TO.N,GND*%
X155800000Y-125760000D03*
%TO.P,U1,J2_71,ADC_VREF+*%
%TO.N,unconnected-(U1B-ADC_VREF+-PadJ2_71)*%
X156200000Y-128840000D03*
%TO.P,U1,J2_72,ADC_VREF-*%
%TO.N,unconnected-(U1B-ADC_VREF--PadJ2_72)*%
X156200000Y-125760000D03*
%TO.P,U1,J2_73,ADC_A0*%
%TO.N,unconnected-(U1B-ADC_A0-PadJ2_73)*%
X156600000Y-128840000D03*
%TO.P,U1,J2_74,ADC_A4*%
%TO.N,unconnected-(U1B-ADC_A4-PadJ2_74)*%
X156600000Y-125760000D03*
%TO.P,U1,J2_75,ADC_A1*%
%TO.N,unconnected-(U1B-ADC_A1-PadJ2_75)*%
X157000000Y-128840000D03*
%TO.P,U1,J2_76,ADC_A5*%
%TO.N,unconnected-(U1B-ADC_A5-PadJ2_76)*%
X157000000Y-125760000D03*
%TO.P,U1,J2_77,ADC_A2*%
%TO.N,unconnected-(U1B-ADC_A2-PadJ2_77)*%
X157400000Y-128840000D03*
%TO.P,U1,J2_78,ADC_A6*%
%TO.N,unconnected-(U1B-ADC_A6-PadJ2_78)*%
X157400000Y-125760000D03*
%TO.P,U1,J2_79,ADC_A3*%
%TO.N,unconnected-(U1B-ADC_A3-PadJ2_79)*%
X157800000Y-128840000D03*
%TO.P,U1,J2_80,ADC_A7*%
%TO.N,unconnected-(U1B-ADC_A7-PadJ2_80)*%
X157800000Y-125760000D03*
%TD*%
D29*
%TO.P,C46,1*%
%TO.N,/Camera/5v_tof*%
X149000000Y-113225000D03*
%TO.P,C46,2*%
%TO.N,GND*%
X149000000Y-114775000D03*
%TD*%
D14*
%TO.P,R20,1*%
%TO.N,/Connectors/USB_Shield*%
X160425000Y-69800000D03*
%TO.P,R20,2*%
%TO.N,GND*%
X158775000Y-69800000D03*
%TD*%
D30*
%TO.P,L5,1,1*%
%TO.N,+1V8*%
X160500000Y-102115000D03*
%TO.P,L5,2,2*%
%TO.N,/Radar/VDD_PLL*%
X160500000Y-103085000D03*
%TD*%
D31*
%TO.P,L8,1,1*%
%TO.N,/Camera/LX*%
X141700000Y-112925000D03*
%TO.P,L8,2,2*%
%TO.N,VCAM*%
X141700000Y-115075000D03*
%TD*%
D27*
%TO.P,C19,1*%
%TO.N,/Radar/VDD_RF*%
X157300000Y-106875000D03*
%TO.P,C19,2*%
%TO.N,GND*%
X157300000Y-105325000D03*
%TD*%
D18*
%TO.P,R10,1*%
%TO.N,VCAM*%
X147975000Y-104500000D03*
%TO.P,R10,2*%
%TO.N,/Camera/I2C1_SDA*%
X149625000Y-104500000D03*
%TD*%
D32*
%TO.P,L6,1,1*%
%TO.N,+1V8*%
X154415000Y-106800000D03*
%TO.P,L6,2,2*%
%TO.N,/Radar/VDD_RF*%
X155385000Y-106800000D03*
%TD*%
D15*
%TO.P,R22,1*%
%TO.N,+5V*%
X149000000Y-109975000D03*
%TO.P,R22,2*%
%TO.N,/Camera/5v_tof*%
X149000000Y-111625000D03*
%TD*%
D18*
%TO.P,R21,1*%
%TO.N,/Portenta/SDC_D2*%
X144575000Y-78900000D03*
%TO.P,R21,2*%
%TO.N,Net-(J3-DAT2)*%
X146225000Y-78900000D03*
%TD*%
D12*
%TO.P,C14,1*%
%TO.N,/Radar/VDD_PLL*%
X158925000Y-107700000D03*
%TO.P,C14,2*%
%TO.N,GND*%
X160475000Y-107700000D03*
%TD*%
D18*
%TO.P,R27,1*%
%TO.N,/Portenta/nLEDB*%
X159775000Y-130300000D03*
%TO.P,R27,2*%
%TO.N,/Portenta/CATB*%
X161425000Y-130300000D03*
%TD*%
D33*
%TO.P,JP2,1,A*%
%TO.N,VCAM*%
X140550000Y-109900000D03*
D34*
%TO.P,JP2,2,B*%
%TO.N,+3.3V*%
X141850000Y-109900000D03*
%TD*%
D19*
%TO.P,U12,1,I/O1*%
%TO.N,/Connectors/conn_USB+*%
X157137500Y-75050000D03*
%TO.P,U12,2,GND*%
%TO.N,GND*%
X157137500Y-76000000D03*
%TO.P,U12,3,I/O2*%
%TO.N,/Connectors/conn_USB-*%
X157137500Y-76950000D03*
%TO.P,U12,4,I/O2*%
%TO.N,/Connectors/USB_FS+*%
X154862500Y-76950000D03*
%TO.P,U12,5,VBUS*%
%TO.N,Net-(U12-VBUS)*%
X154862500Y-76000000D03*
%TO.P,U12,6,I/O1*%
%TO.N,/Connectors/USB_FS-*%
X154862500Y-75050000D03*
%TD*%
D18*
%TO.P,R26,1*%
%TO.N,/Portenta/nLEDG*%
X156175000Y-130300000D03*
%TO.P,R26,2*%
%TO.N,/Portenta/CATG*%
X157825000Y-130300000D03*
%TD*%
%TO.P,R23,1*%
%TO.N,+3.3V*%
X159975000Y-98400000D03*
%TO.P,R23,2*%
%TO.N,Vradar*%
X161625000Y-98400000D03*
%TD*%
D35*
%TO.P,R17,1*%
%TO.N,GND*%
X161600000Y-82325000D03*
%TO.P,R17,2*%
%TO.N,Net-(J4-CC2)*%
X161600000Y-80675000D03*
%TD*%
D17*
%TO.P,U3,1,VCCA*%
%TO.N,Vradar*%
X155450000Y-118862500D03*
%TO.P,U3,2,A1*%
%TO.N,unconnected-(U3-A1-Pad2)*%
X154800000Y-118862500D03*
%TO.P,U3,3,A2*%
%TO.N,/Portenta/SPI2_MOSI*%
X154150000Y-118862500D03*
%TO.P,U3,4,A3*%
%TO.N,/Portenta/SPI2_SCK*%
X153500000Y-118862500D03*
%TO.P,U3,5,A4Y*%
%TO.N,/Portenta/RADAR_INT*%
X152850000Y-118862500D03*
%TO.P,U3,6,NC*%
%TO.N,unconnected-(U3-NC-Pad6)*%
X152200000Y-118862500D03*
%TO.P,U3,7,GND*%
%TO.N,GND*%
X151550000Y-118862500D03*
%TO.P,U3,8,OE*%
%TO.N,+1V8*%
X151550000Y-113137500D03*
%TO.P,U3,9,NC*%
%TO.N,unconnected-(U3-NC-Pad9)*%
X152200000Y-113137500D03*
%TO.P,U3,10,B4*%
%TO.N,/Radar/INT_1V8*%
X152850000Y-113137500D03*
%TO.P,U3,11,B3Y*%
%TO.N,/Radar/SCK_1V8*%
X153500000Y-113137500D03*
%TO.P,U3,12,B2Y*%
%TO.N,/Radar/MOSI_1V8*%
X154150000Y-113137500D03*
%TO.P,U3,13,B1Y*%
%TO.N,unconnected-(U3-B1Y-Pad13)*%
X154800000Y-113137500D03*
%TO.P,U3,14,VCCB*%
%TO.N,+1V8*%
X155450000Y-113137500D03*
%TD*%
D18*
%TO.P,R8,1*%
%TO.N,VCAM*%
X147975000Y-102800000D03*
%TO.P,R8,2*%
%TO.N,/Camera/CAM_nRST*%
X149625000Y-102800000D03*
%TD*%
D14*
%TO.P,R19,1*%
%TO.N,/Connectors/ETH_LED1*%
X148225000Y-68800000D03*
%TO.P,R19,2*%
%TO.N,Net-(J5-Pad11)*%
X146575000Y-68800000D03*
%TD*%
D36*
%TO.P,TP1,1,1*%
%TO.N,/Camera/STROBE*%
X142500000Y-118500000D03*
%TD*%
D14*
%TO.P,R7,1*%
%TO.N,/Portenta/TOF_RST*%
X139825000Y-81600000D03*
%TO.P,R7,2*%
%TO.N,GND*%
X138175000Y-81600000D03*
%TD*%
D12*
%TO.P,C2,1*%
%TO.N,/Radar/VDD_LF*%
X158925000Y-109300000D03*
%TO.P,C2,2*%
%TO.N,GND*%
X160475000Y-109300000D03*
%TD*%
D30*
%TO.P,L7,1,1*%
%TO.N,+1V8*%
X158900000Y-102115000D03*
%TO.P,L7,2,2*%
%TO.N,/Radar/VDD_VCO*%
X158900000Y-103085000D03*
%TD*%
D18*
%TO.P,R4,1*%
%TO.N,+3.3V*%
X138175000Y-83300000D03*
%TO.P,R4,2*%
%TO.N,/Portenta/TOF_INT*%
X139825000Y-83300000D03*
%TD*%
D37*
%TO.N,/Camera/CAM_nRST*%
X150200000Y-102800000D03*
X150200000Y-83300000D03*
X140500000Y-120750000D03*
X150200000Y-74900000D03*
%TO.N,+3.3V*%
X150600000Y-128100000D03*
X139850000Y-84150000D03*
X158800000Y-86000000D03*
X143000000Y-95100000D03*
X148600000Y-126500000D03*
X142800000Y-109900000D03*
X138800000Y-102700000D03*
X154100000Y-88100000D03*
X160000000Y-96800000D03*
X148737000Y-96700000D03*
X140600000Y-95100000D03*
X142200000Y-103400000D03*
X147500000Y-88400000D03*
X161500000Y-131850000D03*
X146600000Y-128100000D03*
X144800000Y-103400000D03*
X155800000Y-128100000D03*
X152400000Y-93800000D03*
X143800000Y-84900000D03*
X143400000Y-105000000D03*
%TO.N,Vradar*%
X162000000Y-113000000D03*
X155000000Y-117000000D03*
X162000000Y-109500000D03*
X161000000Y-117000000D03*
X162300000Y-98400000D03*
%TO.N,GND*%
X153900000Y-130400000D03*
X152100000Y-117000000D03*
X141500000Y-106700000D03*
X148600000Y-128100000D03*
X153300000Y-105800000D03*
X138500000Y-72500000D03*
X158800000Y-87200000D03*
X161500000Y-97300000D03*
X153500000Y-104150000D03*
X140200000Y-107950000D03*
X151700000Y-107750000D03*
X158800000Y-91000000D03*
X153800000Y-76900000D03*
X143550000Y-96650000D03*
X144500000Y-107300000D03*
X142700000Y-88362500D03*
X151100000Y-88100000D03*
X155100000Y-112100000D03*
X147800000Y-114000000D03*
X151600000Y-132100000D03*
X156500000Y-111300000D03*
X143000000Y-100400000D03*
X138000000Y-118300000D03*
X146800000Y-118600000D03*
X156500000Y-72500000D03*
X139000000Y-108400000D03*
X151800000Y-83300000D03*
X160450000Y-108500000D03*
X151700000Y-108750000D03*
X144400000Y-109200000D03*
X151500000Y-100500000D03*
X150600000Y-126500000D03*
X143000000Y-103900000D03*
X158200000Y-68100000D03*
X151300000Y-112074500D03*
X144000000Y-114500000D03*
X138000000Y-127900000D03*
X158800000Y-98700000D03*
X149400000Y-115200000D03*
X157250000Y-105800000D03*
X153300000Y-108200000D03*
X137900000Y-113100000D03*
X159730000Y-108950000D03*
X156400000Y-100600000D03*
X151550000Y-117900000D03*
X157550000Y-117900000D03*
X156500000Y-69500000D03*
X147200000Y-101000000D03*
X147302886Y-116102886D03*
X147400000Y-84900000D03*
X146000000Y-74900000D03*
X147300000Y-117700000D03*
X141500000Y-107300000D03*
X138500000Y-69500000D03*
X138000000Y-115400000D03*
X157500000Y-104150000D03*
X138000000Y-125200000D03*
X146800000Y-116900000D03*
X144500000Y-106700000D03*
X155800000Y-126500000D03*
X158100000Y-117000000D03*
X143000000Y-97300000D03*
X157685188Y-114714812D03*
X161600000Y-82900000D03*
X140600000Y-103400000D03*
X158800000Y-88500000D03*
X138000000Y-120800000D03*
X147700000Y-111500000D03*
X140600000Y-125250000D03*
X149900000Y-115600000D03*
X156250000Y-105750000D03*
X153800000Y-86300000D03*
X145800000Y-106050000D03*
X158200000Y-69800000D03*
X155200000Y-131400000D03*
X156000000Y-116800000D03*
X162100000Y-107950000D03*
X154550000Y-110400000D03*
X153400000Y-128100000D03*
X153300000Y-99600000D03*
X146000000Y-97500000D03*
X154600000Y-100600000D03*
X159750000Y-104300000D03*
X146600000Y-126500000D03*
X147300000Y-110100000D03*
X161675000Y-102400000D03*
X146000000Y-72800000D03*
X162100000Y-106750000D03*
X154000000Y-78700000D03*
X156250000Y-108200000D03*
X149749500Y-88100000D03*
X154250000Y-105800000D03*
X151700000Y-106250000D03*
X152100000Y-115000000D03*
X162000000Y-104000000D03*
X159730000Y-105550000D03*
X158102720Y-76002720D03*
X160300000Y-110750000D03*
X149800000Y-84900000D03*
X153300000Y-97800000D03*
X157500000Y-109700000D03*
X153800000Y-75100000D03*
X161200000Y-109300000D03*
X139700000Y-110500000D03*
X158200000Y-71500000D03*
X158100000Y-115200000D03*
X151700000Y-105250000D03*
X139849500Y-80700000D03*
X147000000Y-108400000D03*
X148600000Y-83300000D03*
X140200000Y-106050000D03*
X155250000Y-105800000D03*
%TO.N,/Connectors/USB_Shield*%
X160425000Y-69000000D03*
%TO.N,+1V8*%
X156500000Y-114300000D03*
X161000000Y-115200000D03*
X159700000Y-102100000D03*
X152250000Y-111300000D03*
X153400000Y-106800000D03*
X158100000Y-102087500D03*
X156300000Y-99600000D03*
X155000000Y-115000000D03*
X155450000Y-98700000D03*
%TO.N,/Radar/VDD_LF*%
X158310000Y-109090000D03*
%TO.N,/Radar/VDD_RF*%
X155250000Y-104700000D03*
X158300000Y-106200000D03*
X155750000Y-104700000D03*
%TO.N,Net-(J5-Pad11)*%
X145400000Y-68800000D03*
X153100000Y-90900000D03*
%TO.N,/Portenta/SDC_D2*%
X143900000Y-78900000D03*
X145400000Y-81600000D03*
%TO.N,/Portenta/SDC_D3*%
X145000000Y-83300000D03*
X143400000Y-93500000D03*
%TO.N,/Radar/VDD_PLL*%
X158300000Y-107800000D03*
%TO.N,/Radar/VDD_VCO*%
X158300000Y-105200000D03*
%TO.N,/Portenta/SWDIO*%
X159800000Y-86000000D03*
%TO.N,/Portenta/SWCLK*%
X159800000Y-87200000D03*
%TO.N,/Portenta/SWO*%
X159800000Y-88500000D03*
%TO.N,/Portenta/nRST*%
X159800000Y-91000000D03*
%TO.N,/Portenta/UART4_TX*%
X158800000Y-92300000D03*
%TO.N,/Portenta/UART4_RX*%
X159800000Y-92300000D03*
%TO.N,/Portenta/SDC_CMD*%
X145600000Y-95400000D03*
X146600000Y-83300000D03*
%TO.N,/Connectors/USB_FS+*%
X153100000Y-83900000D03*
X153800000Y-76300000D03*
%TO.N,/Connectors/USB_FS-*%
X152500000Y-83900000D03*
X153800000Y-75700000D03*
%TO.N,/Camera/CAM_D7*%
X142200000Y-123750000D03*
%TO.N,/Camera/CAM_D6*%
X142600000Y-124750000D03*
%TO.N,/Camera/CAM_D5*%
X143000000Y-125100000D03*
%TO.N,/Camera/CAM_D4*%
X143400000Y-126500000D03*
%TO.N,/Camera/CAM_D3*%
X143800000Y-127200000D03*
%TO.N,/Camera/CAM_D2*%
X144600000Y-127500000D03*
%TO.N,/Camera/CAM_D1*%
X145000000Y-127200000D03*
%TO.N,/Camera/CAM_D0*%
X145000000Y-126500000D03*
%TO.N,/Camera/CAM_VS*%
X144000000Y-121250000D03*
%TO.N,/Camera/CAM_CK*%
X145800000Y-126500000D03*
%TO.N,/Camera/CAM_HS*%
X145000000Y-121250000D03*
%TO.N,/Connectors/ETH_A+*%
X157800000Y-81500000D03*
%TO.N,/Connectors/ETH_A-*%
X157400000Y-81900000D03*
%TO.N,VTOF*%
X146400000Y-103400000D03*
X143400000Y-109900000D03*
X139000000Y-106600000D03*
X147000000Y-106600000D03*
X140600000Y-104900000D03*
%TO.N,VCAM*%
X138662500Y-111300000D03*
X148300000Y-123250000D03*
%TO.N,/Connectors/ETH_B+*%
X156999500Y-83300000D03*
%TO.N,/Connectors/ETH_B-*%
X156600000Y-83750000D03*
%TO.N,/Connectors/ETH_LED1*%
X149400000Y-68800000D03*
X154600000Y-81500000D03*
%TO.N,/Connectors/ETH_LED2*%
X154200000Y-81900000D03*
X149400000Y-70800000D03*
%TO.N,/Portenta/TOF_RST*%
X145250000Y-108400000D03*
X141000000Y-81600000D03*
X140300000Y-97300000D03*
X141000000Y-87100000D03*
%TO.N,/Portenta/TOF_LPn*%
X140000000Y-86300000D03*
X139500000Y-101800000D03*
X142250000Y-108400000D03*
%TO.N,/Portenta/TOF_INT*%
X140500000Y-84000000D03*
X140500000Y-86700000D03*
X143750000Y-108400000D03*
X141000000Y-105400000D03*
%TO.N,/Portenta/I2C3_SDA*%
X142000000Y-101800000D03*
X142000000Y-87900000D03*
X143750000Y-105600000D03*
%TO.N,/Portenta/I2C3_SCL*%
X141500000Y-101800000D03*
X141500000Y-87500000D03*
X143000000Y-105600000D03*
%TO.N,/Camera/CAM_PWDN*%
X140500000Y-121750000D03*
X150600000Y-72800000D03*
X150600000Y-83700000D03*
%TO.N,/Camera/STROBE*%
X141000000Y-118500000D03*
%TO.N,/Camera/I2C1_SDA*%
X149400000Y-83300000D03*
X141500000Y-119250000D03*
X149600000Y-105200000D03*
%TO.N,/Camera/I2C1_SCL*%
X149000000Y-83700000D03*
X149200000Y-106200000D03*
X140500000Y-120250000D03*
%TO.N,/Portenta/RADAR_INT*%
X152850000Y-120400000D03*
%TO.N,/Portenta/SPI2_NSS*%
X160150000Y-117900000D03*
X149000000Y-125100000D03*
%TO.N,/Portenta/SPI2_SCK*%
X153500000Y-120359099D03*
%TO.N,/Portenta/SPI2_MISO*%
X149800000Y-125100000D03*
X158853003Y-119903003D03*
%TO.N,/Portenta/SPI2_MOSI*%
X154150000Y-120300000D03*
%TO.N,/Radar/SCK_1V8*%
X153250000Y-110000000D03*
%TO.N,/Radar/INT_1V8*%
X153250497Y-109250000D03*
%TO.N,/Radar/MOSI_1V8*%
X153750000Y-109250000D03*
%TO.N,/Radar/MISO_1V8*%
X154250000Y-108250000D03*
%TO.N,/Radar/RST_1V8*%
X154750497Y-108250000D03*
%TO.N,/Radar/NSS_1V8*%
X155250000Y-108250000D03*
%TO.N,/Portenta/SDC_CLK*%
X147000000Y-83700000D03*
X146000000Y-96000000D03*
%TO.N,/Portenta/SDC_D0*%
X146200000Y-83700000D03*
X145200000Y-98800000D03*
%TO.N,/Portenta/CATR*%
X158500000Y-131850000D03*
%TO.N,+5V*%
X148000000Y-81600000D03*
X148500000Y-108500000D03*
%TO.N,/Portenta/SDC_D1*%
X144800000Y-99200000D03*
X145800000Y-83300000D03*
%TO.N,Net-(J4-CC1)*%
X158600000Y-72500000D03*
%TO.N,Net-(J4-CC2)*%
X160800000Y-80400000D03*
%TO.N,Net-(J5-Pad1)*%
X145400000Y-70800000D03*
%TO.N,/Portenta/RADAR_nRST*%
X159500000Y-119900000D03*
%TO.N,/Portenta/CATG*%
X158500000Y-130950000D03*
%TO.N,/Portenta/CATB*%
X161500000Y-130950000D03*
%TO.N,Net-(J3-DAT2)*%
X146902277Y-78902277D03*
X144400000Y-94300000D03*
%TD*%
D38*
%TO.N,/Camera/CAM_nRST*%
X149625000Y-102800000D02*
X150200000Y-102800000D01*
X150200000Y-74900000D02*
X148175000Y-74900000D01*
X150200000Y-83300000D02*
X150200000Y-82580000D01*
D39*
%TO.N,+3.3V*%
X141562500Y-95125000D02*
X142975000Y-95125000D01*
D40*
X138175000Y-84150000D02*
X139850000Y-84150000D01*
X146600000Y-128840000D02*
X146600000Y-128100000D01*
D39*
X160000000Y-96800000D02*
X159975000Y-96825000D01*
X141850000Y-109900000D02*
X142800000Y-109900000D01*
X159975000Y-96825000D02*
X159975000Y-98400000D01*
X141537500Y-95100000D02*
X141562500Y-95125000D01*
X140600000Y-95100000D02*
X141537500Y-95100000D01*
D40*
X148600000Y-125760000D02*
X148600000Y-126500000D01*
D39*
X139500000Y-102675000D02*
X138825000Y-102675000D01*
D40*
X138175000Y-83300000D02*
X138175000Y-84150000D01*
X150600000Y-128840000D02*
X150600000Y-128100000D01*
D39*
X142975000Y-95125000D02*
X143000000Y-95100000D01*
D40*
X138175000Y-84150000D02*
X138175000Y-85000000D01*
X155800000Y-128840000D02*
X155800000Y-128100000D01*
D39*
X138825000Y-102675000D02*
X138800000Y-102700000D01*
D40*
X143800000Y-85660000D02*
X143800000Y-84900000D01*
D39*
%TO.N,Vradar*%
X155450000Y-117450000D02*
X155000000Y-117000000D01*
X161450000Y-118862500D02*
X161450000Y-117450000D01*
X155450000Y-118862500D02*
X155450000Y-117450000D01*
X162300000Y-98400000D02*
X161625000Y-98400000D01*
X161450000Y-117450000D02*
X161000000Y-117000000D01*
%TO.N,GND*%
X146400000Y-118200000D02*
X146800000Y-118600000D01*
D40*
X155800000Y-125760000D02*
X155800000Y-126500000D01*
D39*
X147200000Y-101000000D02*
X147225000Y-100975000D01*
X161200000Y-109300000D02*
X160475000Y-109300000D01*
D40*
X157137500Y-76000000D02*
X158100000Y-76000000D01*
D39*
X141562500Y-97325000D02*
X142975000Y-97325000D01*
X160280000Y-106100000D02*
X159730000Y-105550000D01*
X142975000Y-97325000D02*
X143000000Y-97300000D01*
X151500000Y-100500000D02*
X150937500Y-100500000D01*
X154500000Y-78700000D02*
X154000000Y-78700000D01*
X149000000Y-114775000D02*
X149000000Y-114800000D01*
D40*
X147400000Y-85660000D02*
X147400000Y-84900000D01*
D39*
X149000000Y-114800000D02*
X149400000Y-115200000D01*
X160475000Y-108525000D02*
X160450000Y-108500000D01*
D40*
X158200000Y-71500000D02*
X158775000Y-71500000D01*
X157550000Y-118862500D02*
X157550000Y-117900000D01*
D39*
X157500000Y-109080000D02*
X157500000Y-109700000D01*
X150937500Y-100500000D02*
X150787500Y-100650000D01*
D40*
X138175000Y-81600000D02*
X138175000Y-80925000D01*
D39*
X142675000Y-100725000D02*
X143000000Y-100400000D01*
X160275000Y-104300000D02*
X160475000Y-104500000D01*
X149937500Y-88288000D02*
X149937500Y-89050000D01*
X160475000Y-109300000D02*
X160475000Y-108525000D01*
D40*
X150600000Y-125760000D02*
X150600000Y-126500000D01*
X158100000Y-76000000D02*
X158102720Y-76002720D01*
D39*
X146500000Y-116600000D02*
X146800000Y-116900000D01*
D40*
X146575000Y-72800000D02*
X146000000Y-72800000D01*
X146625000Y-74900000D02*
X146000000Y-74900000D01*
D39*
X160450000Y-108500000D02*
X160475000Y-108475000D01*
X160475000Y-104500000D02*
X160475000Y-106100000D01*
X141687500Y-100725000D02*
X142675000Y-100725000D01*
X158825000Y-68100000D02*
X158200000Y-68100000D01*
X149749500Y-88100000D02*
X149937500Y-88288000D01*
D40*
X138400000Y-80700000D02*
X139849500Y-80700000D01*
X153400000Y-128840000D02*
X153400000Y-128100000D01*
D39*
X146275000Y-118200000D02*
X146400000Y-118200000D01*
D40*
X138175000Y-80925000D02*
X138400000Y-80700000D01*
X161600000Y-82325000D02*
X161600000Y-82900000D01*
X148600000Y-128840000D02*
X148600000Y-128100000D01*
D39*
X146275000Y-116600000D02*
X146500000Y-116600000D01*
D40*
X153800000Y-85660000D02*
X153800000Y-86300000D01*
X151550000Y-118862500D02*
X151550000Y-117900000D01*
D39*
X159750000Y-104300000D02*
X160275000Y-104300000D01*
X147137500Y-114000000D02*
X147800000Y-114000000D01*
X160475000Y-108475000D02*
X160475000Y-107700000D01*
X147225000Y-100975000D02*
X149287500Y-100975000D01*
D40*
X151800000Y-82580000D02*
X151800000Y-83300000D01*
D39*
X152600000Y-105325000D02*
X151775000Y-105325000D01*
D40*
X142700000Y-88362500D02*
X141687500Y-89375000D01*
X148600000Y-82580000D02*
X148600000Y-83300000D01*
D39*
X151775000Y-105325000D02*
X151700000Y-105250000D01*
D40*
X146600000Y-125760000D02*
X146600000Y-126500000D01*
D39*
X160475000Y-106100000D02*
X160280000Y-106100000D01*
D40*
X149800000Y-85660000D02*
X149800000Y-84900000D01*
D39*
X158775000Y-69800000D02*
X158200000Y-69800000D01*
%TO.N,/Connectors/USB_Shield*%
X160425000Y-69000000D02*
X160425000Y-68150000D01*
X160425000Y-68150000D02*
X160375000Y-68100000D01*
X160425000Y-69800000D02*
X160425000Y-69000000D01*
D40*
%TO.N,+1V8*%
X157550000Y-114050000D02*
X157550000Y-113137500D01*
X161000000Y-115200000D02*
X158700000Y-115200000D01*
X158700000Y-115200000D02*
X157550000Y-114050000D01*
D39*
X153400000Y-106800000D02*
X153325000Y-106875000D01*
D40*
X151550000Y-113137500D02*
X151550000Y-114150000D01*
D39*
X159700000Y-102100000D02*
X159715000Y-102115000D01*
X153325000Y-106875000D02*
X152600000Y-106875000D01*
X161000000Y-114400000D02*
X161000000Y-115200000D01*
X161450000Y-113137500D02*
X161450000Y-113950000D01*
D40*
X151550000Y-114150000D02*
X151900000Y-114500000D01*
X154500000Y-114500000D02*
X155000000Y-115000000D01*
D39*
X155450000Y-114550000D02*
X155000000Y-115000000D01*
X159685000Y-102115000D02*
X158900000Y-102115000D01*
D40*
X151900000Y-114500000D02*
X154500000Y-114500000D01*
D39*
X155450000Y-113137500D02*
X155450000Y-114550000D01*
X159715000Y-102115000D02*
X160500000Y-102115000D01*
X161450000Y-113950000D02*
X161000000Y-114400000D01*
X153400000Y-106800000D02*
X154112500Y-106800000D01*
X159700000Y-102100000D02*
X159685000Y-102115000D01*
%TO.N,/Radar/VDD_LF*%
X158310000Y-109090000D02*
X158715000Y-109090000D01*
X158715000Y-109090000D02*
X158925000Y-109300000D01*
%TO.N,/Radar/VDD_RF*%
X157275000Y-106875000D02*
X157300000Y-106875000D01*
X157500000Y-108120000D02*
X157500000Y-107075000D01*
X156000000Y-106300000D02*
X156700000Y-106300000D01*
X157975000Y-106200000D02*
X157300000Y-106875000D01*
X155750000Y-104700000D02*
X155750000Y-106050000D01*
X158300000Y-106200000D02*
X157975000Y-106200000D01*
X158825000Y-106200000D02*
X158925000Y-106100000D01*
X157500000Y-107075000D02*
X157300000Y-106875000D01*
X155385000Y-106800000D02*
X155460000Y-106875000D01*
X155250000Y-104700000D02*
X155750000Y-104700000D01*
X155750000Y-106050000D02*
X156000000Y-106300000D01*
X156700000Y-106300000D02*
X157275000Y-106875000D01*
X158300000Y-106200000D02*
X158825000Y-106200000D01*
X155460000Y-106875000D02*
X157300000Y-106875000D01*
%TO.N,Net-(U12-VBUS)*%
X155700000Y-76000000D02*
X154862500Y-76000000D01*
X156000000Y-76300000D02*
X155700000Y-76000000D01*
X156000000Y-78725000D02*
X156000000Y-76300000D01*
D38*
%TO.N,Net-(J5-Pad11)*%
X145400000Y-68800000D02*
X146575000Y-68800000D01*
%TO.N,/Portenta/SDC_D2*%
X145400000Y-82580000D02*
X145400000Y-81600000D01*
X143900000Y-78900000D02*
X144575000Y-78900000D01*
%TO.N,/Portenta/SDC_D3*%
X142825000Y-92925000D02*
X141562500Y-92925000D01*
X145000000Y-82580000D02*
X145000000Y-83300000D01*
X143400000Y-93500000D02*
X142825000Y-92925000D01*
D39*
%TO.N,/Radar/VDD_PLL*%
X161100000Y-106900000D02*
X161500000Y-106500000D01*
X161500000Y-104085000D02*
X160500000Y-103085000D01*
X158825000Y-107800000D02*
X158925000Y-107700000D01*
X161500000Y-106500000D02*
X161500000Y-104085000D01*
X158300000Y-107800000D02*
X158825000Y-107800000D01*
X158925000Y-107700000D02*
X159725000Y-106900000D01*
X159725000Y-106900000D02*
X161100000Y-106900000D01*
%TO.N,/Radar/VDD_VCO*%
X158925000Y-104500000D02*
X158925000Y-104575000D01*
X158900000Y-104475000D02*
X158925000Y-104500000D01*
X158900000Y-102987500D02*
X158900000Y-104475000D01*
X158925000Y-104575000D02*
X158300000Y-105200000D01*
D38*
%TO.N,/Portenta/SWDIO*%
X159800000Y-81400000D02*
X159000000Y-80600000D01*
X159800000Y-86000000D02*
X159800000Y-81400000D01*
X159000000Y-80600000D02*
X143800000Y-80600000D01*
X143000000Y-81400000D02*
X143000000Y-82580000D01*
X143800000Y-80600000D02*
X143000000Y-81400000D01*
%TO.N,/Portenta/SWCLK*%
X159200000Y-80200000D02*
X143600000Y-80200000D01*
X142600000Y-81200000D02*
X142600000Y-82580000D01*
X143600000Y-80200000D02*
X142600000Y-81200000D01*
X159800000Y-87200000D02*
X160200000Y-86800000D01*
X160200000Y-86800000D02*
X160200000Y-81200000D01*
X160200000Y-81200000D02*
X159200000Y-80200000D01*
%TO.N,/Portenta/SWO*%
X159400000Y-79800000D02*
X143400000Y-79800000D01*
X143400000Y-79800000D02*
X142200000Y-81000000D01*
X159800000Y-88500000D02*
X160600000Y-87700000D01*
X160600000Y-81000000D02*
X159400000Y-79800000D01*
X142200000Y-81000000D02*
X142200000Y-82580000D01*
X160600000Y-87700000D02*
X160600000Y-81000000D01*
%TO.N,/Portenta/nRST*%
X159400000Y-81600000D02*
X158800000Y-81000000D01*
X144000000Y-81000000D02*
X143400000Y-81600000D01*
X159800000Y-91000000D02*
X159400000Y-90600000D01*
X143400000Y-81600000D02*
X143400000Y-82580000D01*
X158800000Y-81000000D02*
X144000000Y-81000000D01*
X159400000Y-90600000D02*
X159400000Y-81600000D01*
%TO.N,/Portenta/UART4_TX*%
X151400000Y-86205000D02*
X157495000Y-92300000D01*
X157495000Y-92300000D02*
X158800000Y-92300000D01*
X151400000Y-85660000D02*
X151400000Y-86205000D01*
%TO.N,/Portenta/UART4_RX*%
X159400000Y-92700000D02*
X159800000Y-92300000D01*
X157400000Y-92700000D02*
X159400000Y-92700000D01*
X151000000Y-86300000D02*
X157400000Y-92700000D01*
X151000000Y-85660000D02*
X151000000Y-86300000D01*
%TO.N,/Portenta/SDC_CMD*%
X143025000Y-94025000D02*
X141562500Y-94025000D01*
X146600000Y-82580000D02*
X146600000Y-83300000D01*
X144400000Y-95400000D02*
X143025000Y-94025000D01*
X145600000Y-95400000D02*
X144400000Y-95400000D01*
D41*
%TO.N,/Connectors/USB_FS+*%
X153100000Y-83900000D02*
X153000000Y-84000000D01*
X154862500Y-76950000D02*
X154450000Y-76950000D01*
X153000000Y-84000000D02*
X153000000Y-85660000D01*
X154450000Y-76950000D02*
X153800000Y-76300000D01*
%TO.N,/Connectors/USB_FS-*%
X152600000Y-84000000D02*
X152600000Y-85660000D01*
X154862500Y-75050000D02*
X154450000Y-75050000D01*
X152500000Y-83900000D02*
X152600000Y-84000000D01*
X154450000Y-75050000D02*
X153800000Y-75700000D01*
D38*
%TO.N,/Camera/CAM_D7*%
X142200000Y-125760000D02*
X142200000Y-123750000D01*
%TO.N,/Camera/CAM_D6*%
X142600000Y-125760000D02*
X142600000Y-124750000D01*
%TO.N,/Camera/CAM_D5*%
X143000000Y-125760000D02*
X143000000Y-125100000D01*
%TO.N,/Camera/CAM_D4*%
X143400000Y-125760000D02*
X143400000Y-126500000D01*
%TO.N,/Camera/CAM_D3*%
X143800000Y-125760000D02*
X143800000Y-127200000D01*
%TO.N,/Camera/CAM_D2*%
X144200000Y-127100000D02*
X144200000Y-125760000D01*
X144600000Y-127500000D02*
X144200000Y-127100000D01*
%TO.N,/Camera/CAM_D1*%
X145000000Y-127200000D02*
X144600000Y-126800000D01*
X144600000Y-126800000D02*
X144600000Y-125760000D01*
%TO.N,/Camera/CAM_D0*%
X145000000Y-125760000D02*
X145000000Y-126500000D01*
%TO.N,/Camera/CAM_VS*%
X145400000Y-125760000D02*
X145400000Y-122650000D01*
X145400000Y-122650000D02*
X144000000Y-121250000D01*
%TO.N,/Camera/CAM_CK*%
X145800000Y-125760000D02*
X145800000Y-126500000D01*
%TO.N,/Camera/CAM_HS*%
X146200000Y-125760000D02*
X146200000Y-122450000D01*
X146200000Y-122450000D02*
X145000000Y-121250000D01*
D41*
%TO.N,/Connectors/ETH_A+*%
X157800000Y-82580000D02*
X157800000Y-81500000D01*
%TO.N,/Connectors/ETH_A-*%
X157400000Y-82580000D02*
X157400000Y-81900000D01*
D40*
%TO.N,VTOF*%
X147000000Y-104000000D02*
X146400000Y-103400000D01*
X147000000Y-106600000D02*
X147000000Y-104000000D01*
D39*
X143300000Y-107900000D02*
X145700000Y-107900000D01*
X139650000Y-105850000D02*
X140600000Y-104900000D01*
X145700000Y-107900000D02*
X147000000Y-106600000D01*
X141400000Y-107900000D02*
X143300000Y-107900000D01*
X143400000Y-109900000D02*
X143300000Y-109800000D01*
X140600000Y-104600000D02*
X140325000Y-104325000D01*
X139650000Y-106600000D02*
X139650000Y-105850000D01*
X140100000Y-106600000D02*
X141400000Y-107900000D01*
X139000000Y-106600000D02*
X139650000Y-106600000D01*
X140600000Y-104900000D02*
X140600000Y-104600000D01*
X139650000Y-106600000D02*
X140100000Y-106600000D01*
X140325000Y-104325000D02*
X139500000Y-104325000D01*
X143300000Y-109800000D02*
X143300000Y-107900000D01*
%TO.N,VCAM*%
X139700000Y-117400000D02*
X143925000Y-117400000D01*
D40*
X147975000Y-102800000D02*
X147975000Y-104500000D01*
D42*
X138662500Y-111300000D02*
X138662500Y-110437500D01*
D40*
X144862500Y-114950000D02*
X144862500Y-116462500D01*
D39*
X145100000Y-119500000D02*
X147900000Y-119500000D01*
D40*
X150400000Y-122300000D02*
X149450000Y-123250000D01*
D39*
X144725000Y-118200000D02*
X144725000Y-119125000D01*
D40*
X149450000Y-123250000D02*
X148300000Y-123250000D01*
X147975000Y-104500000D02*
X147975000Y-106200000D01*
X150400000Y-108625000D02*
X150400000Y-122300000D01*
X147975000Y-106200000D02*
X150400000Y-108625000D01*
D39*
X138662500Y-111300000D02*
X138662500Y-116362500D01*
X143925000Y-117400000D02*
X144725000Y-116600000D01*
D40*
X144862500Y-116462500D02*
X144725000Y-116600000D01*
D39*
X144725000Y-119125000D02*
X145100000Y-119500000D01*
X148300000Y-119900000D02*
X148300000Y-123250000D01*
X138662500Y-116362500D02*
X139700000Y-117400000D01*
D42*
X139200000Y-109900000D02*
X140550000Y-109900000D01*
X138662500Y-110437500D02*
X139200000Y-109900000D01*
D39*
X147900000Y-119500000D02*
X148300000Y-119900000D01*
D42*
%TO.N,/Camera/5v_tof*%
X147137500Y-113050000D02*
X148500000Y-113050000D01*
D39*
X149000000Y-111625000D02*
X149000000Y-113225000D01*
D42*
X148500000Y-113050000D02*
X148825000Y-113050000D01*
D38*
X147137500Y-114950000D02*
X147950000Y-114950000D01*
X148200000Y-114700000D02*
X148200000Y-114025000D01*
D42*
X148825000Y-113050000D02*
X149000000Y-113225000D01*
D38*
X148200000Y-114025000D02*
X149000000Y-113225000D01*
X147950000Y-114950000D02*
X148200000Y-114700000D01*
D41*
%TO.N,/Connectors/ETH_B+*%
X156999500Y-83300000D02*
X157000000Y-83299500D01*
X157000000Y-83299500D02*
X157000000Y-82580000D01*
%TO.N,/Connectors/ETH_B-*%
X156600000Y-82580000D02*
X156600000Y-83750000D01*
D38*
%TO.N,/Connectors/ETH_LED1*%
X154600000Y-82580000D02*
X154600000Y-81500000D01*
X149400000Y-68800000D02*
X148225000Y-68800000D01*
%TO.N,/Connectors/ETH_LED2*%
X149400000Y-70800000D02*
X148225000Y-70800000D01*
X154200000Y-82580000D02*
X154200000Y-81900000D01*
%TO.N,/Portenta/TOF_RST*%
X146010000Y-87100000D02*
X141000000Y-87100000D01*
X141000000Y-81600000D02*
X139825000Y-81600000D01*
X147000000Y-86110000D02*
X146010000Y-87100000D01*
X147000000Y-85660000D02*
X147000000Y-86110000D01*
%TO.N,/Portenta/TOF_LPn*%
X146200000Y-86110000D02*
X146010000Y-86300000D01*
X140000000Y-85900000D02*
X140000000Y-86300000D01*
X139825000Y-85725000D02*
X140000000Y-85900000D01*
X146010000Y-86300000D02*
X140000000Y-86300000D01*
X139825000Y-85000000D02*
X139825000Y-85725000D01*
X146200000Y-85660000D02*
X146200000Y-86110000D01*
%TO.N,/Portenta/TOF_INT*%
X146600000Y-85660000D02*
X146600000Y-86110000D01*
X146600000Y-86110000D02*
X146010000Y-86700000D01*
X140500000Y-83975000D02*
X139825000Y-83300000D01*
X140500000Y-84000000D02*
X140500000Y-83975000D01*
X146010000Y-86700000D02*
X140500000Y-86700000D01*
%TO.N,/Portenta/I2C3_SDA*%
X149400000Y-86110000D02*
X147610000Y-87900000D01*
X149400000Y-85660000D02*
X149400000Y-86110000D01*
X147610000Y-87900000D02*
X142000000Y-87900000D01*
%TO.N,/Portenta/I2C3_SCL*%
X149000000Y-86110000D02*
X147610000Y-87500000D01*
X147610000Y-87500000D02*
X141500000Y-87500000D01*
X149000000Y-85660000D02*
X149000000Y-86110000D01*
%TO.N,/Camera/CAM_PWDN*%
X150600000Y-82580000D02*
X150600000Y-83700000D01*
X150600000Y-72800000D02*
X148225000Y-72800000D01*
%TO.N,/Camera/STROBE*%
X141000000Y-118500000D02*
X142500000Y-118500000D01*
%TO.N,/Camera/I2C1_SDA*%
X149625000Y-104500000D02*
X149625000Y-105175000D01*
X149625000Y-105175000D02*
X149600000Y-105200000D01*
X149400000Y-83300000D02*
X149400000Y-82580000D01*
%TO.N,/Camera/I2C1_SCL*%
X149625000Y-106200000D02*
X149200000Y-106200000D01*
X149000000Y-82580000D02*
X149000000Y-83700000D01*
%TO.N,/Portenta/RADAR_INT*%
X152850000Y-120475000D02*
X148775000Y-124550000D01*
X152850000Y-120400000D02*
X152850000Y-120475000D01*
X152850000Y-118862500D02*
X152850000Y-120400000D01*
X147450000Y-124550000D02*
X147000000Y-125000000D01*
X148775000Y-124550000D02*
X147450000Y-124550000D01*
X147000000Y-125000000D02*
X147000000Y-125760000D01*
%TO.N,/Portenta/SPI2_NSS*%
X149000000Y-125760000D02*
X149000000Y-125100000D01*
X160150000Y-117900000D02*
X160150000Y-118862500D01*
%TO.N,/Portenta/SPI2_SCK*%
X149400000Y-124459099D02*
X153500000Y-120359099D01*
X149400000Y-125760000D02*
X149400000Y-124459099D01*
X153500000Y-120359099D02*
X153500000Y-118862500D01*
%TO.N,/Portenta/SPI2_MISO*%
X158853003Y-118865503D02*
X158850000Y-118862500D01*
X149800000Y-125760000D02*
X149800000Y-125100000D01*
X158853003Y-119903003D02*
X158853003Y-118865503D01*
%TO.N,/Portenta/SPI2_MOSI*%
X154150000Y-120300000D02*
X150200000Y-124250000D01*
X150200000Y-124250000D02*
X150200000Y-125760000D01*
X154150000Y-118862500D02*
X154150000Y-120300000D01*
%TO.N,/Radar/SCK_1V8*%
X153500000Y-111350000D02*
X153500000Y-113137500D01*
X153250000Y-110000000D02*
X153250000Y-111100000D01*
X153250000Y-111100000D02*
X153500000Y-111350000D01*
%TO.N,/Radar/INT_1V8*%
X153250497Y-109250000D02*
X152850000Y-109650497D01*
X152850000Y-109650497D02*
X152850000Y-113137500D01*
%TO.N,/Radar/MOSI_1V8*%
X153750000Y-109250000D02*
X153750000Y-110800000D01*
X154150000Y-111200000D02*
X154150000Y-113137500D01*
X153750000Y-110800000D02*
X154150000Y-111200000D01*
%TO.N,/Radar/MISO_1V8*%
X154250000Y-108250000D02*
X154250000Y-109575000D01*
X158850000Y-111050000D02*
X158850000Y-113137500D01*
X158600000Y-110800000D02*
X158850000Y-111050000D01*
X155475000Y-110800000D02*
X158600000Y-110800000D01*
X154250000Y-109575000D02*
X155475000Y-110800000D01*
%TO.N,/Radar/RST_1V8*%
X159500000Y-113137500D02*
X159500000Y-111100000D01*
X155850000Y-110500000D02*
X154750497Y-109400497D01*
X154750497Y-109400497D02*
X154750497Y-108250000D01*
X158900000Y-110500000D02*
X155850000Y-110500000D01*
X159500000Y-111100000D02*
X158900000Y-110500000D01*
%TO.N,/Radar/NSS_1V8*%
X155250000Y-109250000D02*
X156200000Y-110200000D01*
X155250000Y-108250000D02*
X155250000Y-109250000D01*
X156200000Y-110200000D02*
X159100000Y-110200000D01*
X159100000Y-110200000D02*
X160150000Y-111250000D01*
X160150000Y-111250000D02*
X160150000Y-113137500D01*
%TO.N,/Portenta/SDC_CLK*%
X147000000Y-82580000D02*
X147000000Y-83700000D01*
X146000000Y-96000000D02*
X145775000Y-96225000D01*
X145775000Y-96225000D02*
X141562500Y-96225000D01*
%TO.N,/Portenta/SDC_D0*%
X146200000Y-82580000D02*
X146200000Y-83700000D01*
X145200000Y-98800000D02*
X144825000Y-98425000D01*
X144825000Y-98425000D02*
X141562500Y-98425000D01*
%TO.N,/Portenta/CATR*%
X157875000Y-131850000D02*
X157825000Y-131900000D01*
X158500000Y-131850000D02*
X157875000Y-131850000D01*
D40*
%TO.N,+5V*%
X153400000Y-82000000D02*
X153400000Y-82580000D01*
D39*
X149000000Y-109000000D02*
X148500000Y-108500000D01*
D40*
X148100000Y-81500000D02*
X152900000Y-81500000D01*
X152900000Y-81500000D02*
X153400000Y-82000000D01*
X148000000Y-81600000D02*
X148100000Y-81500000D01*
D39*
X149000000Y-109975000D02*
X149000000Y-109000000D01*
D38*
%TO.N,/Portenta/SDC_D1*%
X144475000Y-99525000D02*
X141562500Y-99525000D01*
X145800000Y-82580000D02*
X145800000Y-83300000D01*
X144800000Y-99200000D02*
X144475000Y-99525000D01*
%TO.N,/Portenta/SDC_CD*%
X152362500Y-88500000D02*
X152362500Y-89450000D01*
X150600000Y-86737500D02*
X152362500Y-88500000D01*
X150600000Y-85660000D02*
X150600000Y-86737500D01*
%TO.N,Net-(J4-CC1)*%
X159425000Y-72500000D02*
X160425000Y-71500000D01*
X158600000Y-72500000D02*
X159425000Y-72500000D01*
%TO.N,Net-(J4-CC2)*%
X160800000Y-80400000D02*
X161325000Y-80400000D01*
X161325000Y-80400000D02*
X161600000Y-80675000D01*
%TO.N,Net-(J5-Pad1)*%
X145400000Y-70800000D02*
X146575000Y-70800000D01*
%TO.N,/Portenta/RADAR_nRST*%
X147400000Y-125760000D02*
X147400000Y-126800000D01*
X159500000Y-126400000D02*
X159500000Y-119900000D01*
X147400000Y-126800000D02*
X147600000Y-127000000D01*
X147600000Y-127000000D02*
X158900000Y-127000000D01*
X158900000Y-127000000D02*
X159500000Y-126400000D01*
X159500000Y-119900000D02*
X159500000Y-118862500D01*
%TO.N,/Connectors/conn_USB-*%
X158350000Y-76950000D02*
X159325000Y-75975000D01*
X159325000Y-75975000D02*
X160126750Y-75975000D01*
X160126750Y-75975000D02*
X160456750Y-75975000D01*
X157137500Y-76950000D02*
X158350000Y-76950000D01*
X160456750Y-75975000D02*
X160906750Y-76425000D01*
%TO.N,/Connectors/conn_USB+*%
X157137500Y-75050000D02*
X157162500Y-75075000D01*
X161500000Y-75300000D02*
X161275000Y-75075000D01*
X161275000Y-75075000D02*
X160126750Y-75075000D01*
X161500000Y-77100000D02*
X161500000Y-75300000D01*
X160906750Y-77325000D02*
X161275000Y-77325000D01*
X161275000Y-77325000D02*
X161500000Y-77100000D01*
X157162500Y-75075000D02*
X160126750Y-75075000D01*
%TO.N,/Portenta/CATG*%
X158475000Y-130950000D02*
X157825000Y-130300000D01*
X158500000Y-130950000D02*
X158475000Y-130950000D01*
%TO.N,/Portenta/CATB*%
X161500000Y-130950000D02*
X161500000Y-130375000D01*
X161500000Y-130375000D02*
X161425000Y-130300000D01*
%TO.N,Net-(J3-DAT2)*%
X144400000Y-92300000D02*
X143925000Y-91825000D01*
X144400000Y-94300000D02*
X144400000Y-92300000D01*
X143925000Y-91825000D02*
X141562500Y-91825000D01*
X146902277Y-78902277D02*
X146227277Y-78902277D01*
X146227277Y-78902277D02*
X146225000Y-78900000D01*
%TO.N,/Portenta/nLEDR*%
X154600000Y-130250000D02*
X156175000Y-131825000D01*
X154600000Y-128840000D02*
X154600000Y-130250000D01*
X156175000Y-131825000D02*
X156175000Y-131900000D01*
%TO.N,/Portenta/nLEDG*%
X155000000Y-128840000D02*
X155000000Y-129700000D01*
X155600000Y-130300000D02*
X156175000Y-130300000D01*
X155000000Y-129700000D02*
X155600000Y-130300000D01*
%TO.N,/Portenta/nLEDB*%
X159025000Y-129550000D02*
X159775000Y-130300000D01*
X155400000Y-128840000D02*
X155400000Y-129290000D01*
X155660000Y-129550000D02*
X159025000Y-129550000D01*
X155400000Y-129290000D02*
X155660000Y-129550000D01*
%TD*%
%TA.AperFunction,Conductor*%
%TO.N,/Camera/LX*%
G36*
X143433334Y-112201337D02*
G01*
X143448236Y-112203543D01*
X143478591Y-112208037D01*
X143513356Y-112218564D01*
X143554726Y-112238091D01*
X143570580Y-112247053D01*
X144037015Y-112558011D01*
X144037018Y-112558012D01*
X144037019Y-112558013D01*
X144103248Y-112589273D01*
X144175694Y-112600000D01*
X145337789Y-112600000D01*
X145361980Y-112602383D01*
X145421480Y-112614218D01*
X145466175Y-112632730D01*
X145506272Y-112659522D01*
X145540477Y-112693727D01*
X145567267Y-112733822D01*
X145585781Y-112778518D01*
X145597617Y-112838019D01*
X145600000Y-112862211D01*
X145600000Y-113137789D01*
X145597617Y-113161982D01*
X145585781Y-113221482D01*
X145567267Y-113266179D01*
X145540481Y-113306268D01*
X145506269Y-113340479D01*
X145492021Y-113350000D01*
X145466179Y-113367267D01*
X145421482Y-113385781D01*
X145387857Y-113392469D01*
X145361978Y-113397617D01*
X145337789Y-113400000D01*
X144140567Y-113400000D01*
X144100523Y-113403227D01*
X144061516Y-113412827D01*
X143543217Y-113585594D01*
X143533649Y-113588360D01*
X143509181Y-113594383D01*
X143489512Y-113597575D01*
X143465519Y-113599509D01*
X143451917Y-113599293D01*
X143451917Y-113599500D01*
X140259697Y-113599500D01*
X140235507Y-113597117D01*
X140217334Y-113593502D01*
X140178518Y-113585781D01*
X140133822Y-113567267D01*
X140093727Y-113540477D01*
X140059522Y-113506272D01*
X140032730Y-113466175D01*
X140014218Y-113421480D01*
X140009945Y-113400000D01*
X140002383Y-113361980D01*
X140000000Y-113337789D01*
X140000000Y-112462211D01*
X140002381Y-112438028D01*
X140014219Y-112378514D01*
X140032729Y-112333826D01*
X140059524Y-112293724D01*
X140093724Y-112259524D01*
X140133826Y-112232729D01*
X140178514Y-112214219D01*
X140238028Y-112202381D01*
X140262211Y-112200000D01*
X143415173Y-112200000D01*
X143433334Y-112201337D01*
G37*
%TD.AperFunction*%
%TD*%
%TA.AperFunction,Conductor*%
%TO.N,VCAM*%
G36*
X143161980Y-114802383D02*
G01*
X143221480Y-114814218D01*
X143266175Y-114832730D01*
X143306272Y-114859522D01*
X143340477Y-114893727D01*
X143367267Y-114933822D01*
X143385781Y-114978518D01*
X143397617Y-115038019D01*
X143400000Y-115062211D01*
X143400000Y-115350002D01*
X143419029Y-115445670D01*
X143473222Y-115526777D01*
X143554329Y-115580970D01*
X143649998Y-115600000D01*
X143650000Y-115600000D01*
X145037789Y-115600000D01*
X145061980Y-115602383D01*
X145121480Y-115614218D01*
X145166175Y-115632730D01*
X145206272Y-115659522D01*
X145240477Y-115693727D01*
X145267267Y-115733822D01*
X145285781Y-115778518D01*
X145297617Y-115838019D01*
X145300000Y-115862211D01*
X145300000Y-118537789D01*
X145297617Y-118561982D01*
X145285781Y-118621482D01*
X145267267Y-118666179D01*
X145240481Y-118706268D01*
X145206269Y-118740479D01*
X145171975Y-118763394D01*
X145166179Y-118767267D01*
X145121482Y-118785781D01*
X145087857Y-118792469D01*
X145061978Y-118797617D01*
X145037789Y-118800000D01*
X143962211Y-118800000D01*
X143938020Y-118797617D01*
X143923189Y-118794667D01*
X143878518Y-118785781D01*
X143833822Y-118767267D01*
X143793727Y-118740477D01*
X143759522Y-118706272D01*
X143732730Y-118666175D01*
X143714218Y-118621480D01*
X143702383Y-118561980D01*
X143700000Y-118537789D01*
X143700000Y-117049998D01*
X143680970Y-116954329D01*
X143626777Y-116873222D01*
X143545670Y-116819029D01*
X143450002Y-116800000D01*
X143450000Y-116800000D01*
X140262211Y-116800000D01*
X140238020Y-116797617D01*
X140223189Y-116794667D01*
X140178518Y-116785781D01*
X140133822Y-116767267D01*
X140093727Y-116740477D01*
X140059522Y-116706272D01*
X140032730Y-116666175D01*
X140014218Y-116621480D01*
X140002383Y-116561980D01*
X140000000Y-116537789D01*
X140000000Y-115062211D01*
X140002381Y-115038028D01*
X140014219Y-114978514D01*
X140032729Y-114933826D01*
X140059524Y-114893724D01*
X140093724Y-114859524D01*
X140133826Y-114832729D01*
X140178514Y-114814219D01*
X140238028Y-114802381D01*
X140262211Y-114800000D01*
X143137789Y-114800000D01*
X143161980Y-114802383D01*
G37*
%TD.AperFunction*%
%TD*%
M02*
