%TF.GenerationSoftware,KiCad,Pcbnew,7.0.1-3b83917a11~172~ubuntu20.04.1*%
%TF.CreationDate,2023-04-27T15:55:01+02:00*%
%TF.ProjectId,radartof-hardware,72616461-7274-46f6-962d-686172647761,1.4*%
%TF.SameCoordinates,Original*%
%TF.FileFunction,Copper,L6,Bot*%
%TF.FilePolarity,Positive*%
%FSLAX46Y46*%
G04 Gerber Fmt 4.6, Leading zero omitted, Abs format (unit mm)*
G04 Created by KiCad (PCBNEW 7.0.1-3b83917a11~172~ubuntu20.04.1) date 2023-04-27 15:55:01*
%MOMM*%
%LPD*%
G01*
G04 APERTURE LIST*
G04 Aperture macros list*
%AMRoundRect*
0 Rectangle with rounded corners*
0 $1 Rounding radius*
0 $2 $3 $4 $5 $6 $7 $8 $9 X,Y pos of 4 corners*
0 Add a 4 corners polygon primitive as box body*
4,1,4,$2,$3,$4,$5,$6,$7,$8,$9,$2,$3,0*
0 Add four circle primitives for the rounded corners*
1,1,$1+$1,$2,$3*
1,1,$1+$1,$4,$5*
1,1,$1+$1,$6,$7*
1,1,$1+$1,$8,$9*
0 Add four rect primitives between the rounded corners*
20,1,$1+$1,$2,$3,$4,$5,0*
20,1,$1+$1,$4,$5,$6,$7,0*
20,1,$1+$1,$6,$7,$8,$9,0*
20,1,$1+$1,$8,$9,$2,$3,0*%
%AMFreePoly0*
4,1,19,0.500000,-0.750000,0.000000,-0.750000,0.000000,-0.744911,-0.071157,-0.744911,-0.207708,-0.704816,-0.327430,-0.627875,-0.420627,-0.520320,-0.479746,-0.390866,-0.500000,-0.250000,-0.500000,0.250000,-0.479746,0.390866,-0.420627,0.520320,-0.327430,0.627875,-0.207708,0.704816,-0.071157,0.744911,0.000000,0.744911,0.000000,0.750000,0.500000,0.750000,0.500000,-0.750000,0.500000,-0.750000,
$1*%
%AMFreePoly1*
4,1,19,0.000000,0.744911,0.071157,0.744911,0.207708,0.704816,0.327430,0.627875,0.420627,0.520320,0.479746,0.390866,0.500000,0.250000,0.500000,-0.250000,0.479746,-0.390866,0.420627,-0.520320,0.327430,-0.627875,0.207708,-0.704816,0.071157,-0.744911,0.000000,-0.744911,0.000000,-0.750000,-0.500000,-0.750000,-0.500000,0.750000,0.000000,0.750000,0.000000,0.744911,0.000000,0.744911,
$1*%
G04 Aperture macros list end*
%TA.AperFunction,ComponentPad*%
%ADD10C,0.600000*%
%TD*%
%TA.AperFunction,ComponentPad*%
%ADD11O,0.900000X1.900000*%
%TD*%
%TA.AperFunction,SMDPad,CuDef*%
%ADD12RoundRect,0.225000X-0.225000X-0.250000X0.225000X-0.250000X0.225000X0.250000X-0.225000X0.250000X0*%
%TD*%
%TA.AperFunction,SMDPad,CuDef*%
%ADD13RoundRect,0.140000X-0.170000X0.140000X-0.170000X-0.140000X0.170000X-0.140000X0.170000X0.140000X0*%
%TD*%
%TA.AperFunction,SMDPad,CuDef*%
%ADD14RoundRect,0.200000X0.200000X0.275000X-0.200000X0.275000X-0.200000X-0.275000X0.200000X-0.275000X0*%
%TD*%
%TA.AperFunction,SMDPad,CuDef*%
%ADD15RoundRect,0.200000X-0.275000X0.200000X-0.275000X-0.200000X0.275000X-0.200000X0.275000X0.200000X0*%
%TD*%
%TA.AperFunction,SMDPad,CuDef*%
%ADD16RoundRect,0.225000X0.225000X0.250000X-0.225000X0.250000X-0.225000X-0.250000X0.225000X-0.250000X0*%
%TD*%
%TA.AperFunction,SMDPad,CuDef*%
%ADD17RoundRect,0.100000X0.100000X-0.637500X0.100000X0.637500X-0.100000X0.637500X-0.100000X-0.637500X0*%
%TD*%
%TA.AperFunction,SMDPad,CuDef*%
%ADD18RoundRect,0.200000X-0.200000X-0.275000X0.200000X-0.275000X0.200000X0.275000X-0.200000X0.275000X0*%
%TD*%
%TA.AperFunction,SMDPad,CuDef*%
%ADD19RoundRect,0.150000X0.512500X0.150000X-0.512500X0.150000X-0.512500X-0.150000X0.512500X-0.150000X0*%
%TD*%
%TA.AperFunction,SMDPad,CuDef*%
%ADD20R,1.400000X0.800000*%
%TD*%
%TA.AperFunction,SMDPad,CuDef*%
%ADD21R,1.500000X1.500000*%
%TD*%
%TA.AperFunction,SMDPad,CuDef*%
%ADD22R,1.500000X1.300000*%
%TD*%
%TA.AperFunction,SMDPad,CuDef*%
%ADD23R,1.500000X0.800000*%
%TD*%
%TA.AperFunction,SMDPad,CuDef*%
%ADD24R,1.000000X1.450000*%
%TD*%
%TA.AperFunction,SMDPad,CuDef*%
%ADD25R,1.550000X1.000000*%
%TD*%
%TA.AperFunction,SMDPad,CuDef*%
%ADD26R,1.750000X0.700000*%
%TD*%
%TA.AperFunction,SMDPad,CuDef*%
%ADD27RoundRect,0.225000X0.250000X-0.225000X0.250000X0.225000X-0.250000X0.225000X-0.250000X-0.225000X0*%
%TD*%
%TA.AperFunction,SMDPad,CuDef*%
%ADD28R,0.200000X0.700000*%
%TD*%
%TA.AperFunction,SMDPad,CuDef*%
%ADD29RoundRect,0.225000X-0.250000X0.225000X-0.250000X-0.225000X0.250000X-0.225000X0.250000X0.225000X0*%
%TD*%
%TA.AperFunction,SMDPad,CuDef*%
%ADD30RoundRect,0.147500X-0.172500X0.147500X-0.172500X-0.147500X0.172500X-0.147500X0.172500X0.147500X0*%
%TD*%
%TA.AperFunction,SMDPad,CuDef*%
%ADD31R,3.400000X1.350000*%
%TD*%
%TA.AperFunction,SMDPad,CuDef*%
%ADD32RoundRect,0.147500X-0.147500X-0.172500X0.147500X-0.172500X0.147500X0.172500X-0.147500X0.172500X0*%
%TD*%
%TA.AperFunction,SMDPad,CuDef*%
%ADD33FreePoly0,0.000000*%
%TD*%
%TA.AperFunction,SMDPad,CuDef*%
%ADD34FreePoly1,0.000000*%
%TD*%
%TA.AperFunction,SMDPad,CuDef*%
%ADD35RoundRect,0.200000X0.275000X-0.200000X0.275000X0.200000X-0.275000X0.200000X-0.275000X-0.200000X0*%
%TD*%
%TA.AperFunction,SMDPad,CuDef*%
%ADD36C,1.000000*%
%TD*%
%TA.AperFunction,ViaPad*%
%ADD37C,0.400000*%
%TD*%
%TA.AperFunction,Conductor*%
%ADD38C,0.250000*%
%TD*%
%TA.AperFunction,Conductor*%
%ADD39C,0.100000*%
%TD*%
%TA.AperFunction,Conductor*%
%ADD40C,0.150000*%
%TD*%
%TA.AperFunction,Conductor*%
%ADD41C,0.200000*%
%TD*%
%TA.AperFunction,Conductor*%
%ADD42C,0.500000*%
%TD*%
G04 APERTURE END LIST*
D10*
%TO.P,J4,A1,GND*%
%TO.N,GND*%
X160906750Y-73725000D03*
%TO.P,J4,A4,VBUS*%
%TO.N,unconnected-(J4-VBUS-PadA4)*%
X160906750Y-74625000D03*
%TO.P,J4,A5,CC1*%
%TO.N,Net-(J4-CC1)*%
X160906750Y-75525000D03*
%TO.P,J4,A6,D+*%
%TO.N,/Connectors/conn_USB-*%
X160906750Y-76425000D03*
%TO.P,J4,A7,D-*%
%TO.N,/Connectors/conn_USB+*%
X160906750Y-77325000D03*
%TO.P,J4,A9,VBUS*%
%TO.N,unconnected-(J4-VBUS-PadA4)*%
X160906750Y-78225000D03*
%TO.P,J4,A12,GND*%
%TO.N,GND*%
X160906750Y-79125000D03*
%TO.P,J4,B1,GND*%
X160126750Y-78675000D03*
%TO.P,J4,B4,VBUS*%
%TO.N,unconnected-(J4-VBUS-PadA4)*%
X160126750Y-77775000D03*
%TO.P,J4,B5,CC2*%
%TO.N,Net-(J4-CC2)*%
X160126750Y-76875000D03*
%TO.P,J4,B6,D+*%
%TO.N,/Connectors/conn_USB-*%
X160126750Y-75975000D03*
%TO.P,J4,B7,D-*%
%TO.N,/Connectors/conn_USB+*%
X160126750Y-75075000D03*
%TO.P,J4,B9,VBUS*%
%TO.N,unconnected-(J4-VBUS-PadA4)*%
X160126750Y-74175000D03*
%TO.P,J4,B12,GND*%
%TO.N,GND*%
X160126750Y-73275000D03*
D11*
%TO.P,J4,S1,SHIELD*%
%TO.N,/Connectors/USB_Shield*%
X161946750Y-78575000D03*
X161946750Y-73775000D03*
X159086750Y-78575000D03*
X159086750Y-73775000D03*
%TD*%
D12*
%TO.P,C21,1*%
%TO.N,/Radar/VDD_VCO*%
X158925000Y-104500000D03*
%TO.P,C21,2*%
%TO.N,GND*%
X160475000Y-104500000D03*
%TD*%
D13*
%TO.P,C20,1*%
%TO.N,/Radar/VDD_RF*%
X157500000Y-108120000D03*
%TO.P,C20,2*%
%TO.N,GND*%
X157500000Y-109080000D03*
%TD*%
D14*
%TO.P,R9,1*%
%TO.N,/Camera/CAM_PWDN*%
X148225000Y-72800000D03*
%TO.P,R9,2*%
%TO.N,GND*%
X146575000Y-72800000D03*
%TD*%
D15*
%TO.P,R24,1*%
%TO.N,+3.3V*%
X139500000Y-102675000D03*
%TO.P,R24,2*%
%TO.N,VTOF*%
X139500000Y-104325000D03*
%TD*%
D12*
%TO.P,C16,1*%
%TO.N,/Radar/VDD_RF*%
X158925000Y-106100000D03*
%TO.P,C16,2*%
%TO.N,GND*%
X160475000Y-106100000D03*
%TD*%
D16*
%TO.P,C54,1*%
%TO.N,/Connectors/USB_Shield*%
X160375000Y-68100000D03*
%TO.P,C54,2*%
%TO.N,GND*%
X158825000Y-68100000D03*
%TD*%
D14*
%TO.P,R18,1*%
%TO.N,/Connectors/ETH_LED2*%
X148225000Y-70800000D03*
%TO.P,R18,2*%
%TO.N,Net-(J5-Pad1)*%
X146575000Y-70800000D03*
%TD*%
D12*
%TO.P,C48,1*%
%TO.N,VCAM*%
X144725000Y-118200000D03*
%TO.P,C48,2*%
%TO.N,GND*%
X146275000Y-118200000D03*
%TD*%
D17*
%TO.P,U6,1,VCCA*%
%TO.N,Vradar*%
X161450000Y-118862500D03*
%TO.P,U6,2,A1*%
%TO.N,unconnected-(U6-A1-Pad2)*%
X160800000Y-118862500D03*
%TO.P,U6,3,A2*%
%TO.N,/Portenta/SPI2_NSS*%
X160150000Y-118862500D03*
%TO.P,U6,4,A3*%
%TO.N,/Portenta/RADAR_nRST*%
X159500000Y-118862500D03*
%TO.P,U6,5,A4Y*%
%TO.N,/Portenta/SPI2_MISO*%
X158850000Y-118862500D03*
%TO.P,U6,6,NC*%
%TO.N,unconnected-(U6-NC-Pad6)*%
X158200000Y-118862500D03*
%TO.P,U6,7,GND*%
%TO.N,GND*%
X157550000Y-118862500D03*
%TO.P,U6,8,OE*%
%TO.N,+1V8*%
X157550000Y-113137500D03*
%TO.P,U6,9,NC*%
%TO.N,unconnected-(U6-NC-Pad9)*%
X158200000Y-113137500D03*
%TO.P,U6,10,B4*%
%TO.N,/Radar/MISO_1V8*%
X158850000Y-113137500D03*
%TO.P,U6,11,B3Y*%
%TO.N,/Radar/RST_1V8*%
X159500000Y-113137500D03*
%TO.P,U6,12,B2Y*%
%TO.N,/Radar/NSS_1V8*%
X160150000Y-113137500D03*
%TO.P,U6,13,B1Y*%
%TO.N,unconnected-(U6-B1Y-Pad13)*%
X160800000Y-113137500D03*
%TO.P,U6,14,VCCB*%
%TO.N,+1V8*%
X161450000Y-113137500D03*
%TD*%
D18*
%TO.P,R16,1*%
%TO.N,GND*%
X158775000Y-71500000D03*
%TO.P,R16,2*%
%TO.N,Net-(J4-CC1)*%
X160425000Y-71500000D03*
%TD*%
%TO.P,R25,1*%
%TO.N,/Portenta/nLEDR*%
X156175000Y-131900000D03*
%TO.P,R25,2*%
%TO.N,/Portenta/CATR*%
X157825000Y-131900000D03*
%TD*%
D16*
%TO.P,C34,1*%
%TO.N,/Camera/CAM_nRST*%
X148175000Y-74900000D03*
%TO.P,C34,2*%
%TO.N,GND*%
X146625000Y-74900000D03*
%TD*%
%TO.P,C53,1*%
%TO.N,Net-(U12-VBUS)*%
X156075000Y-78700000D03*
%TO.P,C53,2*%
%TO.N,GND*%
X154525000Y-78700000D03*
%TD*%
D19*
%TO.P,U11,1,Vin*%
%TO.N,/Camera/5v_tof*%
X147137500Y-113050000D03*
%TO.P,U11,2,GND*%
%TO.N,GND*%
X147137500Y-114000000D03*
%TO.P,U11,3,EN*%
%TO.N,/Camera/5v_tof*%
X147137500Y-114950000D03*
%TO.P,U11,4,FB*%
%TO.N,VCAM*%
X144862500Y-114950000D03*
%TO.P,U11,5,SW*%
%TO.N,/Camera/LX*%
X144862500Y-113050000D03*
%TD*%
D20*
%TO.P,J3,11,SHIELD*%
%TO.N,GND*%
X149937500Y-89050000D03*
D21*
X141687500Y-89375000D03*
D22*
X141687500Y-100725000D03*
D23*
X149287500Y-100975000D03*
D24*
%TO.P,J3,10,DET_A*%
X150787500Y-100650000D03*
D25*
%TO.P,J3,9,DET_B*%
%TO.N,/Portenta/SDC_CD*%
X152362500Y-89450000D03*
D26*
%TO.P,J3,8,DAT1*%
%TO.N,/Portenta/SDC_D1*%
X141562500Y-99525000D03*
%TO.P,J3,7,DAT0*%
%TO.N,/Portenta/SDC_D0*%
X141562500Y-98425000D03*
%TO.P,J3,6,VSS*%
%TO.N,GND*%
X141562500Y-97325000D03*
%TO.P,J3,5,CLK*%
%TO.N,/Portenta/SDC_CLK*%
X141562500Y-96225000D03*
%TO.P,J3,4,VDD*%
%TO.N,+3.3V*%
X141562500Y-95125000D03*
%TO.P,J3,3,CMD*%
%TO.N,/Portenta/SDC_CMD*%
X141562500Y-94025000D03*
%TO.P,J3,2,DAT3/CD*%
%TO.N,/Portenta/SDC_D3*%
X141562500Y-92925000D03*
%TO.P,J3,1,DAT2*%
%TO.N,Net-(J3-DAT2)*%
X141562500Y-91825000D03*
%TD*%
D27*
%TO.P,C18,1*%
%TO.N,+1V8*%
X152600000Y-106875000D03*
%TO.P,C18,2*%
%TO.N,GND*%
X152600000Y-105325000D03*
%TD*%
D18*
%TO.P,R5,1*%
%TO.N,+3.3V*%
X138175000Y-85000000D03*
%TO.P,R5,2*%
%TO.N,/Portenta/TOF_LPn*%
X139825000Y-85000000D03*
%TD*%
D12*
%TO.P,C47,1*%
%TO.N,VCAM*%
X144725000Y-116600000D03*
%TO.P,C47,2*%
%TO.N,GND*%
X146275000Y-116600000D03*
%TD*%
D18*
%TO.P,R11,1*%
%TO.N,VCAM*%
X147975000Y-106200000D03*
%TO.P,R11,2*%
%TO.N,/Camera/I2C1_SCL*%
X149625000Y-106200000D03*
%TD*%
D28*
%TO.P,U1,J1_1,ETH_A+*%
%TO.N,/Connectors/ETH_A+*%
X157800000Y-82580000D03*
%TO.P,U1,J1_2,NC*%
%TO.N,unconnected-(U1A-NC-PadJ1_2)*%
X157800000Y-85660000D03*
%TO.P,U1,J1_3,ETH_A-*%
%TO.N,/Connectors/ETH_A-*%
X157400000Y-82580000D03*
%TO.P,U1,J1_4,NC*%
%TO.N,unconnected-(U1A-NC-PadJ1_4)*%
X157400000Y-85660000D03*
%TO.P,U1,J1_5,ETH_B+*%
%TO.N,/Connectors/ETH_B+*%
X157000000Y-82580000D03*
%TO.P,U1,J1_6,NC*%
%TO.N,unconnected-(U1A-NC-PadJ1_6)*%
X157000000Y-85660000D03*
%TO.P,U1,J1_7,ETH_B-*%
%TO.N,/Connectors/ETH_B-*%
X156600000Y-82580000D03*
%TO.P,U1,J1_8,NC*%
%TO.N,unconnected-(U1A-NC-PadJ1_8)*%
X156600000Y-85660000D03*
%TO.P,U1,J1_9,NC*%
%TO.N,unconnected-(U1A-NC-PadJ1_9)*%
X156200000Y-82580000D03*
%TO.P,U1,J1_10,DSI_D1+*%
%TO.N,unconnected-(U1A-DSI_D1+-PadJ1_10)*%
X156200000Y-85660000D03*
%TO.P,U1,J1_11,NC*%
%TO.N,unconnected-(U1A-NC-PadJ1_11)*%
X155800000Y-82580000D03*
%TO.P,U1,J1_12,DSI_D1-*%
%TO.N,unconnected-(U1A-DSI_D1--PadJ1_12)*%
X155800000Y-85660000D03*
%TO.P,U1,J1_13,NC*%
%TO.N,unconnected-(U1A-NC-PadJ1_13)*%
X155400000Y-82580000D03*
%TO.P,U1,J1_14,DSI_D0+*%
%TO.N,unconnected-(U1A-DSI_D0+-PadJ1_14)*%
X155400000Y-85660000D03*
%TO.P,U1,J1_15,NC*%
%TO.N,unconnected-(U1A-NC-PadJ1_15)*%
X155000000Y-82580000D03*
%TO.P,U1,J1_16,DSI_D0-*%
%TO.N,unconnected-(U1A-DSI_D0--PadJ1_16)*%
X155000000Y-85660000D03*
%TO.P,U1,J1_17,ETH_L1*%
%TO.N,/Connectors/ETH_LED1*%
X154600000Y-82580000D03*
%TO.P,U1,J1_18,DSI_CK+*%
%TO.N,unconnected-(U1A-DSI_CK+-PadJ1_18)*%
X154600000Y-85660000D03*
%TO.P,U1,J1_19,ETH_L2*%
%TO.N,/Connectors/ETH_LED2*%
X154200000Y-82580000D03*
%TO.P,U1,J1_20,DSI_CK-*%
%TO.N,unconnected-(U1A-DSI_CK--PadJ1_20)*%
X154200000Y-85660000D03*
%TO.P,U1,J1_21,VIN*%
%TO.N,unconnected-(U1A-VIN-PadJ1_21)*%
X153800000Y-82580000D03*
%TO.P,U1,J1_22,GND*%
%TO.N,GND*%
X153800000Y-85660000D03*
%TO.P,U1,J1_23,USB1_VBUS*%
%TO.N,+5V*%
X153400000Y-82580000D03*
%TO.P,U1,J1_24,NC*%
%TO.N,unconnected-(U1A-NC-PadJ1_24)*%
X153400000Y-85660000D03*
%TO.P,U1,J1_25,USB1_D+*%
%TO.N,unconnected-(U1A-USB1_D+-PadJ1_25)*%
X153000000Y-82580000D03*
%TO.P,U1,J1_26,USB0_D+*%
%TO.N,/Connectors/USB_FS+*%
X153000000Y-85660000D03*
%TO.P,U1,J1_27,USB1_D-*%
%TO.N,unconnected-(U1A-USB1_D--PadJ1_27)*%
X152600000Y-82580000D03*
%TO.P,U1,J1_28,USB0_D-*%
%TO.N,/Connectors/USB_FS-*%
X152600000Y-85660000D03*
%TO.P,U1,J1_29,USB1_ID*%
%TO.N,unconnected-(U1A-USB1_ID-PadJ1_29)*%
X152200000Y-82580000D03*
%TO.P,U1,J1_30,NC*%
%TO.N,unconnected-(U1A-NC-PadJ1_30)*%
X152200000Y-85660000D03*
%TO.P,U1,J1_31,GND*%
%TO.N,GND*%
X151800000Y-82580000D03*
%TO.P,U1,J1_32,VIN*%
%TO.N,unconnected-(U1A-VIN-PadJ1_21)*%
X151800000Y-85660000D03*
%TO.P,U1,J1_33,UART1_TX*%
%TO.N,unconnected-(U1A-UART1_TX-PadJ1_33)*%
X151400000Y-82580000D03*
%TO.P,U1,J1_34,UART0_TX*%
%TO.N,/Portenta/UART4_TX*%
X151400000Y-85660000D03*
%TO.P,U1,J1_35,UART1_RX*%
%TO.N,unconnected-(U1A-UART1_RX-PadJ1_35)*%
X151000000Y-82580000D03*
%TO.P,U1,J1_36,UART0_RX*%
%TO.N,/Portenta/UART4_RX*%
X151000000Y-85660000D03*
%TO.P,U1,J1_37,UART1_RTS*%
%TO.N,/Camera/CAM_PWDN*%
X150600000Y-82580000D03*
%TO.P,U1,J1_38,UART0_RTS*%
%TO.N,/Portenta/SDC_CD*%
X150600000Y-85660000D03*
%TO.P,U1,J1_39,UART1_CTS*%
%TO.N,/Camera/CAM_nRST*%
X150200000Y-82580000D03*
%TO.P,U1,J1_40,UART0_CTS*%
%TO.N,unconnected-(U1A-UART0_CTS-PadJ1_40)*%
X150200000Y-85660000D03*
%TO.P,U1,J1_41,VIN*%
%TO.N,unconnected-(U1A-VIN-PadJ1_21)*%
X149800000Y-82580000D03*
%TO.P,U1,J1_42,GND*%
%TO.N,GND*%
X149800000Y-85660000D03*
%TO.P,U1,J1_43,I2C1_SDA*%
%TO.N,/Camera/I2C1_SDA*%
X149400000Y-82580000D03*
%TO.P,U1,J1_44,I2C0_SDA*%
%TO.N,/Portenta/I2C3_SDA*%
X149400000Y-85660000D03*
%TO.P,U1,J1_45,I2C1_SCL*%
%TO.N,/Camera/I2C1_SCL*%
X149000000Y-82580000D03*
%TO.P,U1,J1_46,I2C0_SCL*%
%TO.N,/Portenta/I2C3_SCL*%
X149000000Y-85660000D03*
%TO.P,U1,J1_47,GND*%
%TO.N,GND*%
X148600000Y-82580000D03*
%TO.P,U1,J1_48,VIN*%
%TO.N,unconnected-(U1A-VIN-PadJ1_21)*%
X148600000Y-85660000D03*
%TO.P,U1,J1_49,CAN1_TX*%
%TO.N,unconnected-(U1A-CAN1_TX-PadJ1_49)*%
X148200000Y-82580000D03*
%TO.P,U1,J1_50,NC*%
%TO.N,unconnected-(U1A-NC-PadJ1_50)*%
X148200000Y-85660000D03*
%TO.P,U1,J1_51,CAN1_RX*%
%TO.N,unconnected-(U1A-CAN1_RX-PadJ1_51)*%
X147800000Y-82580000D03*
%TO.P,U1,J1_52,NC*%
%TO.N,unconnected-(U1A-NC-PadJ1_52)*%
X147800000Y-85660000D03*
%TO.P,U1,J1_53,VSYS*%
%TO.N,unconnected-(U1A-VSYS-PadJ1_53)*%
X147400000Y-82580000D03*
%TO.P,U1,J1_54,GND*%
%TO.N,GND*%
X147400000Y-85660000D03*
%TO.P,U1,J1_55,SDC_CLK*%
%TO.N,/Portenta/SDC_CLK*%
X147000000Y-82580000D03*
%TO.P,U1,J1_56,I2S_MCK*%
%TO.N,/Portenta/TOF_RST*%
X147000000Y-85660000D03*
%TO.P,U1,J1_57,SDC_CMD*%
%TO.N,/Portenta/SDC_CMD*%
X146600000Y-82580000D03*
%TO.P,U1,J1_58,I2S_WS*%
%TO.N,/Portenta/TOF_INT*%
X146600000Y-85660000D03*
%TO.P,U1,J1_59,SDC_D0*%
%TO.N,/Portenta/SDC_D0*%
X146200000Y-82580000D03*
%TO.P,U1,J1_60,I2S_DI*%
%TO.N,/Portenta/TOF_LPn*%
X146200000Y-85660000D03*
%TO.P,U1,J1_61,SDC_D1*%
%TO.N,/Portenta/SDC_D1*%
X145800000Y-82580000D03*
%TO.P,U1,J1_62,I2S_DO*%
%TO.N,unconnected-(U1A-I2S_DO-PadJ1_62)*%
X145800000Y-85660000D03*
%TO.P,U1,J1_63,SDC_D2*%
%TO.N,/Portenta/SDC_D2*%
X145400000Y-82580000D03*
%TO.P,U1,J1_64,VSYS*%
%TO.N,unconnected-(U1A-VSYS-PadJ1_53)*%
X145400000Y-85660000D03*
%TO.P,U1,J1_65,SDC_D3*%
%TO.N,/Portenta/SDC_D3*%
X145000000Y-82580000D03*
%TO.P,U1,J1_66,DMIC_CK*%
%TO.N,unconnected-(U1A-DMIC_CK-PadJ1_66)*%
X145000000Y-85660000D03*
%TO.P,U1,J1_67,NC*%
%TO.N,unconnected-(U1A-NC-PadJ1_67)*%
X144600000Y-82580000D03*
%TO.P,U1,J1_68,DMIC_D0*%
%TO.N,unconnected-(U1A-DMIC_D0-PadJ1_68)*%
X144600000Y-85660000D03*
%TO.P,U1,J1_69,NC*%
%TO.N,unconnected-(U1A-NC-PadJ1_69)*%
X144200000Y-82580000D03*
%TO.P,U1,J1_70,NC*%
%TO.N,unconnected-(U1A-NC-PadJ1_70)*%
X144200000Y-85660000D03*
%TO.P,U1,J1_71,NC*%
%TO.N,unconnected-(U1A-NC-PadJ1_71)*%
X143800000Y-82580000D03*
%TO.P,U1,J1_72,V-SDCARD*%
%TO.N,+3.3V*%
X143800000Y-85660000D03*
%TO.P,U1,J1_73,~{RESET}*%
%TO.N,/Portenta/nRST*%
X143400000Y-82580000D03*
%TO.P,U1,J1_74,NC*%
%TO.N,unconnected-(U1A-NC-PadJ1_74)*%
X143400000Y-85660000D03*
%TO.P,U1,J1_75,SWDIO*%
%TO.N,/Portenta/SWDIO*%
X143000000Y-82580000D03*
%TO.P,U1,J1_76,NC*%
%TO.N,unconnected-(U1A-NC-PadJ1_76)*%
X143000000Y-85660000D03*
%TO.P,U1,J1_77,SWCK*%
%TO.N,/Portenta/SWCLK*%
X142600000Y-82580000D03*
%TO.P,U1,J1_78,NC*%
%TO.N,unconnected-(U1A-NC-PadJ1_78)*%
X142600000Y-85660000D03*
%TO.P,U1,J1_79,SWO*%
%TO.N,/Portenta/SWO*%
X142200000Y-82580000D03*
%TO.P,U1,J1_80,NC*%
%TO.N,unconnected-(U1A-NC-PadJ1_80)*%
X142200000Y-85660000D03*
%TO.P,U1,J2_1,FORCE_BOOTLOADER*%
%TO.N,unconnected-(U1B-FORCE_BOOTLOADER-PadJ2_1)*%
X142200000Y-128840000D03*
%TO.P,U1,J2_2,CAM_D7*%
%TO.N,/Camera/CAM_D7*%
X142200000Y-125760000D03*
%TO.P,U1,J2_3,BOOT_SOURCE*%
%TO.N,unconnected-(U1B-BOOT_SOURCE-PadJ2_3)*%
X142600000Y-128840000D03*
%TO.P,U1,J2_4,CAM_D6*%
%TO.N,/Camera/CAM_D6*%
X142600000Y-125760000D03*
%TO.P,U1,J2_5,POWER_ON_REQ*%
%TO.N,unconnected-(U1B-POWER_ON_REQ-PadJ2_5)*%
X143000000Y-128840000D03*
%TO.P,U1,J2_6,CAM_D5*%
%TO.N,/Camera/CAM_D5*%
X143000000Y-125760000D03*
%TO.P,U1,J2_7,COINCELL*%
%TO.N,unconnected-(U1B-COINCELL-PadJ2_7)*%
X143400000Y-128840000D03*
%TO.P,U1,J2_8,CAM_D4*%
%TO.N,/Camera/CAM_D4*%
X143400000Y-125760000D03*
%TO.P,U1,J2_9,NC_1*%
%TO.N,unconnected-(U1B-NC_1-PadJ2_9)*%
X143800000Y-128840000D03*
%TO.P,U1,J2_10,CAM_D3*%
%TO.N,/Camera/CAM_D3*%
X143800000Y-125760000D03*
%TO.P,U1,J2_11,NC_1*%
%TO.N,unconnected-(U1B-NC_1-PadJ2_11)*%
X144200000Y-128840000D03*
%TO.P,U1,J2_12,CAM_D2*%
%TO.N,/Camera/CAM_D2*%
X144200000Y-125760000D03*
%TO.P,U1,J2_13,NC_1*%
%TO.N,unconnected-(U1B-NC_1-PadJ2_13)*%
X144600000Y-128840000D03*
%TO.P,U1,J2_14,CAM_D1*%
%TO.N,/Camera/CAM_D1*%
X144600000Y-125760000D03*
%TO.P,U1,J2_15,NC_1*%
%TO.N,unconnected-(U1B-NC_1-PadJ2_15)*%
X145000000Y-128840000D03*
%TO.P,U1,J2_16,CAM_D0*%
%TO.N,/Camera/CAM_D0*%
X145000000Y-125760000D03*
%TO.P,U1,J2_17,NC_1*%
%TO.N,unconnected-(U1B-NC_1-PadJ2_17)*%
X145400000Y-128840000D03*
%TO.P,U1,J2_18,CAM_VS*%
%TO.N,/Camera/CAM_VS*%
X145400000Y-125760000D03*
%TO.P,U1,J2_19,NC_1*%
%TO.N,unconnected-(U1B-NC_1-PadJ2_19)*%
X145800000Y-128840000D03*
%TO.P,U1,J2_20,CAM_CLK*%
%TO.N,/Camera/CAM_CK*%
X145800000Y-125760000D03*
%TO.P,U1,J2_21,NC_1*%
%TO.N,unconnected-(U1B-NC_1-PadJ2_21)*%
X146200000Y-128840000D03*
%TO.P,U1,J2_22,CAM_HS*%
%TO.N,/Camera/CAM_HS*%
X146200000Y-125760000D03*
%TO.P,U1,J2_23,VCC/+3V3*%
%TO.N,+3.3V*%
X146600000Y-128840000D03*
%TO.P,U1,J2_24,GND_1*%
%TO.N,GND*%
X146600000Y-125760000D03*
%TO.P,U1,J2_25,UART3_TX*%
%TO.N,unconnected-(U1B-UART3_TX-PadJ2_25)*%
X147000000Y-128840000D03*
%TO.P,U1,J2_26,UART2_TX*%
%TO.N,/Portenta/RADAR_INT*%
X147000000Y-125760000D03*
%TO.P,U1,J2_27,UART3_RX*%
%TO.N,unconnected-(U1B-UART3_RX-PadJ2_27)*%
X147400000Y-128840000D03*
%TO.P,U1,J2_28,UART2_RX*%
%TO.N,/Portenta/RADAR_nRST*%
X147400000Y-125760000D03*
%TO.P,U1,J2_29,NC_1*%
%TO.N,unconnected-(U1B-NC_1-PadJ2_29)*%
X147800000Y-128840000D03*
%TO.P,U1,J2_30,NC_1*%
%TO.N,unconnected-(U1B-NC_1-PadJ2_30)*%
X147800000Y-125760000D03*
%TO.P,U1,J2_31,NC_1*%
%TO.N,unconnected-(U1B-NC_1-PadJ2_31)*%
X148200000Y-128840000D03*
%TO.P,U1,J2_32,NC_1*%
%TO.N,unconnected-(U1B-NC_1-PadJ2_32)*%
X148200000Y-125760000D03*
%TO.P,U1,J2_33,GND_1*%
%TO.N,GND*%
X148600000Y-128840000D03*
%TO.P,U1,J2_34,VCC*%
%TO.N,+3.3V*%
X148600000Y-125760000D03*
%TO.P,U1,J2_35,NC_1*%
%TO.N,unconnected-(U1B-NC_1-PadJ2_35)*%
X149000000Y-128840000D03*
%TO.P,U1,J2_36,SPI1_CS*%
%TO.N,/Portenta/SPI2_NSS*%
X149000000Y-125760000D03*
%TO.P,U1,J2_37,NC_1*%
%TO.N,unconnected-(U1B-NC_1-PadJ2_37)*%
X149400000Y-128840000D03*
%TO.P,U1,J2_38,SPI1_CK*%
%TO.N,/Portenta/SPI2_SCK*%
X149400000Y-125760000D03*
%TO.P,U1,J2_39,NC_1*%
%TO.N,unconnected-(U1B-NC_1-PadJ2_39)*%
X149800000Y-128840000D03*
%TO.P,U1,J2_40,SPI1_MISO*%
%TO.N,/Portenta/SPI2_MISO*%
X149800000Y-125760000D03*
%TO.P,U1,J2_41,NC_1*%
%TO.N,unconnected-(U1B-NC_1-PadJ2_41)*%
X150200000Y-128840000D03*
%TO.P,U1,J2_42,SPI1_MOSI*%
%TO.N,/Portenta/SPI2_MOSI*%
X150200000Y-125760000D03*
%TO.P,U1,J2_43,VCC/+3V3*%
%TO.N,+3.3V*%
X150600000Y-128840000D03*
%TO.P,U1,J2_44,GND_1*%
%TO.N,GND*%
X150600000Y-125760000D03*
%TO.P,U1,J2_45,I2C2_SDA*%
%TO.N,unconnected-(U1B-I2C2_SDA-PadJ2_45)*%
X151000000Y-128840000D03*
%TO.P,U1,J2_46,GPIO_0*%
%TO.N,unconnected-(U1B-GPIO_0-PadJ2_46)*%
X151000000Y-125760000D03*
%TO.P,U1,J2_47,I2C2_SCL*%
%TO.N,unconnected-(U1B-I2C2_SCL-PadJ2_47)*%
X151400000Y-128840000D03*
%TO.P,U1,J2_48,GPIO_1*%
%TO.N,unconnected-(U1B-GPIO_1-PadJ2_48)*%
X151400000Y-125760000D03*
%TO.P,U1,J2_49,SAI_CK*%
%TO.N,unconnected-(U1B-SAI_CK-PadJ2_49)*%
X151800000Y-128840000D03*
%TO.P,U1,J2_50,GPIO_2*%
%TO.N,unconnected-(U1B-GPIO_2-PadJ2_50)*%
X151800000Y-125760000D03*
%TO.P,U1,J2_51,SAI_FS*%
%TO.N,unconnected-(U1B-SAI_FS-PadJ2_51)*%
X152200000Y-128840000D03*
%TO.P,U1,J2_52,GPIO_3*%
%TO.N,unconnected-(U1B-GPIO_3-PadJ2_52)*%
X152200000Y-125760000D03*
%TO.P,U1,J2_53,SAI_D0*%
%TO.N,unconnected-(U1B-SAI_D0-PadJ2_53)*%
X152600000Y-128840000D03*
%TO.P,U1,J2_54,GPIO_4*%
%TO.N,unconnected-(U1B-GPIO_4-PadJ2_54)*%
X152600000Y-125760000D03*
%TO.P,U1,J2_55,NC_1*%
%TO.N,unconnected-(U1B-NC_1-PadJ2_55)*%
X153000000Y-128840000D03*
%TO.P,U1,J2_56,GPIO_5*%
%TO.N,unconnected-(U1B-GPIO_5-PadJ2_56)*%
X153000000Y-125760000D03*
%TO.P,U1,J2_57,GND_1*%
%TO.N,GND*%
X153400000Y-128840000D03*
%TO.P,U1,J2_58,GPIO_6*%
%TO.N,unconnected-(U1B-GPIO_6-PadJ2_58)*%
X153400000Y-125760000D03*
%TO.P,U1,J2_59,PWM_1*%
%TO.N,unconnected-(U1B-PWM_1-PadJ2_59)*%
X153800000Y-128840000D03*
%TO.P,U1,J2_60,PWM_6*%
%TO.N,unconnected-(U1B-PWM_6-PadJ2_60)*%
X153800000Y-125760000D03*
%TO.P,U1,J2_61,PWM_2*%
%TO.N,unconnected-(U1B-PWM_2-PadJ2_61)*%
X154200000Y-128840000D03*
%TO.P,U1,J2_62,PWM_7*%
%TO.N,unconnected-(U1B-PWM_7-PadJ2_62)*%
X154200000Y-125760000D03*
%TO.P,U1,J2_63,PWM_3*%
%TO.N,/Portenta/nLEDR*%
X154600000Y-128840000D03*
%TO.P,U1,J2_64,PWM_8*%
%TO.N,unconnected-(U1B-PWM_8-PadJ2_64)*%
X154600000Y-125760000D03*
%TO.P,U1,J2_65,PWM_4*%
%TO.N,/Portenta/nLEDG*%
X155000000Y-128840000D03*
%TO.P,U1,J2_66,PWM_9*%
%TO.N,unconnected-(U1B-PWM_9-PadJ2_66)*%
X155000000Y-125760000D03*
%TO.P,U1,J2_67,PWM_5*%
%TO.N,/Portenta/nLEDB*%
X155400000Y-128840000D03*
%TO.P,U1,J2_68,PWM_10*%
%TO.N,unconnected-(U1B-PWM_10-PadJ2_68)*%
X155400000Y-125760000D03*
%TO.P,U1,J2_69,VCC/+3V3*%
%TO.N,+3.3V*%
X155800000Y-128840000D03*
%TO.P,U1,J2_70,GND_1*%
%TO.N,GND*%
X155800000Y-125760000D03*
%TO.P,U1,J2_71,ADC_VREF+*%
%TO.N,unconnected-(U1B-ADC_VREF+-PadJ2_71)*%
X156200000Y-128840000D03*
%TO.P,U1,J2_72,ADC_VREF-*%
%TO.N,unconnected-(U1B-ADC_VREF--PadJ2_72)*%
X156200000Y-125760000D03*
%TO.P,U1,J2_73,ADC_A0*%
%TO.N,unconnected-(U1B-ADC_A0-PadJ2_73)*%
X156600000Y-128840000D03*
%TO.P,U1,J2_74,ADC_A4*%
%TO.N,unconnected-(U1B-ADC_A4-PadJ2_74)*%
X156600000Y-125760000D03*
%TO.P,U1,J2_75,ADC_A1*%
%TO.N,unconnected-(U1B-ADC_A1-PadJ2_75)*%
X157000000Y-128840000D03*
%TO.P,U1,J2_76,ADC_A5*%
%TO.N,unconnected-(U1B-ADC_A5-PadJ2_76)*%
X157000000Y-125760000D03*
%TO.P,U1,J2_77,ADC_A2*%
%TO.N,unconnected-(U1B-ADC_A2-PadJ2_77)*%
X157400000Y-128840000D03*
%TO.P,U1,J2_78,ADC_A6*%
%TO.N,unconnected-(U1B-ADC_A6-PadJ2_78)*%
X157400000Y-125760000D03*
%TO.P,U1,J2_79,ADC_A3*%
%TO.N,unconnected-(U1B-ADC_A3-PadJ2_79)*%
X157800000Y-128840000D03*
%TO.P,U1,J2_80,ADC_A7*%
%TO.N,unconnected-(U1B-ADC_A7-PadJ2_80)*%
X157800000Y-125760000D03*
%TD*%
D29*
%TO.P,C46,1*%
%TO.N,/Camera/5v_tof*%
X149000000Y-113225000D03*
%TO.P,C46,2*%
%TO.N,GND*%
X149000000Y-114775000D03*
%TD*%
D14*
%TO.P,R20,1*%
%TO.N,/Connectors/USB_Shield*%
X160425000Y-69800000D03*
%TO.P,R20,2*%
%TO.N,GND*%
X158775000Y-69800000D03*
%TD*%
D30*
%TO.P,L5,1,1*%
%TO.N,+1V8*%
X161800000Y-104915000D03*
%TO.P,L5,2,2*%
%TO.N,/Radar/VDD_PLL*%
X161800000Y-105885000D03*
%TD*%
D31*
%TO.P,L8,1,1*%
%TO.N,/Camera/LX*%
X141700000Y-112925000D03*
%TO.P,L8,2,2*%
%TO.N,VCAM*%
X141700000Y-115075000D03*
%TD*%
D27*
%TO.P,C19,1*%
%TO.N,/Radar/VDD_RF*%
X157300000Y-106875000D03*
%TO.P,C19,2*%
%TO.N,GND*%
X157300000Y-105325000D03*
%TD*%
D18*
%TO.P,R10,1*%
%TO.N,VCAM*%
X147975000Y-104500000D03*
%TO.P,R10,2*%
%TO.N,/Camera/I2C1_SDA*%
X149625000Y-104500000D03*
%TD*%
D32*
%TO.P,L6,1,1*%
%TO.N,+1V8*%
X154415000Y-106800000D03*
%TO.P,L6,2,2*%
%TO.N,/Radar/VDD_RF*%
X155385000Y-106800000D03*
%TD*%
D15*
%TO.P,R22,1*%
%TO.N,+5V*%
X149000000Y-109975000D03*
%TO.P,R22,2*%
%TO.N,/Camera/5v_tof*%
X149000000Y-111625000D03*
%TD*%
D18*
%TO.P,R21,1*%
%TO.N,/Portenta/SDC_D2*%
X144575000Y-78900000D03*
%TO.P,R21,2*%
%TO.N,Net-(J3-DAT2)*%
X146225000Y-78900000D03*
%TD*%
D12*
%TO.P,C14,1*%
%TO.N,/Radar/VDD_PLL*%
X158925000Y-107700000D03*
%TO.P,C14,2*%
%TO.N,GND*%
X160475000Y-107700000D03*
%TD*%
D18*
%TO.P,R27,1*%
%TO.N,/Portenta/nLEDB*%
X159775000Y-130300000D03*
%TO.P,R27,2*%
%TO.N,/Portenta/CATB*%
X161425000Y-130300000D03*
%TD*%
D33*
%TO.P,JP2,1,A*%
%TO.N,VCAM*%
X140550000Y-109900000D03*
D34*
%TO.P,JP2,2,B*%
%TO.N,+3.3V*%
X141850000Y-109900000D03*
%TD*%
D19*
%TO.P,U12,1,I/O1*%
%TO.N,/Connectors/conn_USB+*%
X157137500Y-75050000D03*
%TO.P,U12,2,GND*%
%TO.N,GND*%
X157137500Y-76000000D03*
%TO.P,U12,3,I/O2*%
%TO.N,/Connectors/conn_USB-*%
X157137500Y-76950000D03*
%TO.P,U12,4,I/O2*%
%TO.N,/Connectors/USB_FS+*%
X154862500Y-76950000D03*
%TO.P,U12,5,VBUS*%
%TO.N,Net-(U12-VBUS)*%
X154862500Y-76000000D03*
%TO.P,U12,6,I/O1*%
%TO.N,/Connectors/USB_FS-*%
X154862500Y-75050000D03*
%TD*%
D18*
%TO.P,R26,1*%
%TO.N,/Portenta/nLEDG*%
X156175000Y-130300000D03*
%TO.P,R26,2*%
%TO.N,/Portenta/CATG*%
X157825000Y-130300000D03*
%TD*%
%TO.P,R23,1*%
%TO.N,+3.3V*%
X159975000Y-98400000D03*
%TO.P,R23,2*%
%TO.N,Vradar*%
X161625000Y-98400000D03*
%TD*%
D35*
%TO.P,R17,1*%
%TO.N,GND*%
X161600000Y-82325000D03*
%TO.P,R17,2*%
%TO.N,Net-(J4-CC2)*%
X161600000Y-80675000D03*
%TD*%
D17*
%TO.P,U3,1,VCCA*%
%TO.N,Vradar*%
X155450000Y-118862500D03*
%TO.P,U3,2,A1*%
%TO.N,unconnected-(U3-A1-Pad2)*%
X154800000Y-118862500D03*
%TO.P,U3,3,A2*%
%TO.N,/Portenta/SPI2_MOSI*%
X154150000Y-118862500D03*
%TO.P,U3,4,A3*%
%TO.N,/Portenta/SPI2_SCK*%
X153500000Y-118862500D03*
%TO.P,U3,5,A4Y*%
%TO.N,/Portenta/RADAR_INT*%
X152850000Y-118862500D03*
%TO.P,U3,6,NC*%
%TO.N,unconnected-(U3-NC-Pad6)*%
X152200000Y-118862500D03*
%TO.P,U3,7,GND*%
%TO.N,GND*%
X151550000Y-118862500D03*
%TO.P,U3,8,OE*%
%TO.N,+1V8*%
X151550000Y-113137500D03*
%TO.P,U3,9,NC*%
%TO.N,unconnected-(U3-NC-Pad9)*%
X152200000Y-113137500D03*
%TO.P,U3,10,B4*%
%TO.N,/Radar/INT_1V8*%
X152850000Y-113137500D03*
%TO.P,U3,11,B3Y*%
%TO.N,/Radar/SCK_1V8*%
X153500000Y-113137500D03*
%TO.P,U3,12,B2Y*%
%TO.N,/Radar/MOSI_1V8*%
X154150000Y-113137500D03*
%TO.P,U3,13,B1Y*%
%TO.N,unconnected-(U3-B1Y-Pad13)*%
X154800000Y-113137500D03*
%TO.P,U3,14,VCCB*%
%TO.N,+1V8*%
X155450000Y-113137500D03*
%TD*%
D18*
%TO.P,R8,1*%
%TO.N,VCAM*%
X147975000Y-102800000D03*
%TO.P,R8,2*%
%TO.N,/Camera/CAM_nRST*%
X149625000Y-102800000D03*
%TD*%
D14*
%TO.P,R19,1*%
%TO.N,/Connectors/ETH_LED1*%
X148225000Y-68800000D03*
%TO.P,R19,2*%
%TO.N,Net-(J5-Pad11)*%
X146575000Y-68800000D03*
%TD*%
D36*
%TO.P,TP1,1,1*%
%TO.N,/Camera/STROBE*%
X142500000Y-118500000D03*
%TD*%
D14*
%TO.P,R7,1*%
%TO.N,/Portenta/TOF_RST*%
X139825000Y-81600000D03*
%TO.P,R7,2*%
%TO.N,GND*%
X138175000Y-81600000D03*
%TD*%
D12*
%TO.P,C2,1*%
%TO.N,/Radar/VDD_LF*%
X158925000Y-109300000D03*
%TO.P,C2,2*%
%TO.N,GND*%
X160475000Y-109300000D03*
%TD*%
D30*
%TO.P,L7,1,1*%
%TO.N,+1V8*%
X158900000Y-102115000D03*
%TO.P,L7,2,2*%
%TO.N,/Radar/VDD_VCO*%
X158900000Y-103085000D03*
%TD*%
D18*
%TO.P,R4,1*%
%TO.N,+3.3V*%
X138175000Y-83300000D03*
%TO.P,R4,2*%
%TO.N,/Portenta/TOF_INT*%
X139825000Y-83300000D03*
%TD*%
D37*
%TO.N,+1V8*%
X160900000Y-103100000D03*
%TO.N,GND*%
X162000000Y-104000000D03*
X151900000Y-83900000D03*
X161000000Y-123300000D03*
X161000000Y-124300000D03*
X161000000Y-125300000D03*
X161000000Y-127300000D03*
X161000000Y-126300000D03*
X161000000Y-120300000D03*
X161000000Y-121300000D03*
X161000000Y-122300000D03*
X162000000Y-127300000D03*
X162000000Y-126300000D03*
X162000000Y-125300000D03*
X162000000Y-124300000D03*
X162000000Y-123300000D03*
X162000000Y-122300000D03*
X162000000Y-121300000D03*
X162000000Y-120300000D03*
%TO.N,/Camera/CAM_nRST*%
X150200000Y-102800000D03*
X150200000Y-83300000D03*
X140500000Y-120750000D03*
X150200000Y-74900000D03*
%TO.N,+3.3V*%
X150600000Y-128100000D03*
X139850000Y-84150000D03*
X158800000Y-86000000D03*
X143000000Y-95100000D03*
X148600000Y-126500000D03*
X142800000Y-109900000D03*
X138800000Y-102700000D03*
X154100000Y-88100000D03*
X160000000Y-96800000D03*
X148737000Y-96700000D03*
X140600000Y-95100000D03*
X142200000Y-103400000D03*
X147500000Y-88400000D03*
X161500000Y-131850000D03*
X146600000Y-128100000D03*
X144800000Y-103400000D03*
X155800000Y-128300000D03*
X152400000Y-93800000D03*
X143800000Y-84900000D03*
X143400000Y-105000000D03*
%TO.N,Vradar*%
X162000000Y-113000000D03*
X155000000Y-117000000D03*
X162000000Y-109500000D03*
X161000000Y-117000000D03*
X162300000Y-98400000D03*
%TO.N,GND*%
X153900000Y-130400000D03*
X152100000Y-117000000D03*
X141500000Y-106700000D03*
X148600000Y-128100000D03*
X153300000Y-105800000D03*
X138500000Y-72500000D03*
X158800000Y-87200000D03*
X161500000Y-97300000D03*
X153500000Y-104150000D03*
X140200000Y-107950000D03*
X151700000Y-107750000D03*
X158800000Y-91000000D03*
X153800000Y-76900000D03*
X143550000Y-96650000D03*
X144500000Y-107300000D03*
X142700000Y-88362500D03*
X151100000Y-88100000D03*
X155100000Y-112100000D03*
X147800000Y-114000000D03*
X151600000Y-132100000D03*
X156500000Y-111300000D03*
X143000000Y-100400000D03*
X138000000Y-118300000D03*
X146800000Y-118600000D03*
X156500000Y-72500000D03*
X139000000Y-108400000D03*
X151800000Y-83300000D03*
X160450000Y-108500000D03*
X151700000Y-108750000D03*
X144400000Y-109200000D03*
X151500000Y-100500000D03*
X150600000Y-126500000D03*
X143000000Y-103900000D03*
X158200000Y-68100000D03*
X151300000Y-112074500D03*
X144000000Y-114500000D03*
X138000000Y-127900000D03*
X158800000Y-98700000D03*
X149400000Y-115200000D03*
X157250000Y-105800000D03*
X153300000Y-108200000D03*
X137900000Y-113100000D03*
X159730000Y-108950000D03*
X156400000Y-100600000D03*
X151550000Y-117900000D03*
X157550000Y-117900000D03*
X156500000Y-69500000D03*
X147200000Y-101000000D03*
X147302886Y-116102886D03*
X147400000Y-84900000D03*
X146000000Y-74900000D03*
X147300000Y-117700000D03*
X141500000Y-107300000D03*
X138500000Y-69500000D03*
X138000000Y-115400000D03*
X157500000Y-104150000D03*
X138000000Y-125200000D03*
X146800000Y-116900000D03*
X144500000Y-106700000D03*
X155800000Y-126500000D03*
X158100000Y-117000000D03*
X143000000Y-97300000D03*
X157685188Y-114714812D03*
X161600000Y-82900000D03*
X140600000Y-103400000D03*
X158800000Y-88500000D03*
X138000000Y-120800000D03*
X147700000Y-111500000D03*
X140600000Y-125250000D03*
X149900000Y-115600000D03*
X156250000Y-105750000D03*
X153800000Y-86300000D03*
X145800000Y-106050000D03*
X158200000Y-69800000D03*
X155200000Y-131400000D03*
X156000000Y-116800000D03*
X162100000Y-107950000D03*
X154550000Y-110400000D03*
X153400000Y-128300000D03*
X153300000Y-99600000D03*
X146000000Y-97500000D03*
X154600000Y-100600000D03*
X159750000Y-104300000D03*
X146600000Y-126500000D03*
X147300000Y-110100000D03*
X161675000Y-102400000D03*
X146000000Y-72800000D03*
X162100000Y-106750000D03*
X154000000Y-78700000D03*
X156250000Y-108200000D03*
X149749500Y-88100000D03*
X154250000Y-105800000D03*
X151700000Y-106250000D03*
X152100000Y-115000000D03*
X159730000Y-105550000D03*
X158102720Y-76002720D03*
X160300000Y-110750000D03*
X149800000Y-84900000D03*
X153300000Y-97800000D03*
X157500000Y-109700000D03*
X153800000Y-75100000D03*
X161200000Y-109300000D03*
X139700000Y-110500000D03*
X158200000Y-71500000D03*
X158100000Y-115200000D03*
X151700000Y-105250000D03*
X139849500Y-80700000D03*
X147000000Y-108400000D03*
X148600000Y-83300000D03*
X140200000Y-106050000D03*
X155250000Y-105800000D03*
%TO.N,/Connectors/USB_Shield*%
X160425000Y-69000000D03*
%TO.N,+1V8*%
X156500000Y-114300000D03*
X161000000Y-115200000D03*
X159500000Y-102115000D03*
X152250000Y-111300000D03*
X153400000Y-106800000D03*
X158100000Y-102087500D03*
X156300000Y-99600000D03*
X155000000Y-115000000D03*
X155450000Y-98700000D03*
%TO.N,/Radar/VDD_LF*%
X158310000Y-109090000D03*
%TO.N,/Radar/VDD_RF*%
X155250000Y-104700000D03*
X158300000Y-106200000D03*
X155750000Y-104700000D03*
%TO.N,Net-(J5-Pad11)*%
X145400000Y-68800000D03*
X153100000Y-90900000D03*
%TO.N,/Portenta/SDC_D2*%
X143900000Y-78900000D03*
X145400000Y-81600000D03*
%TO.N,/Portenta/SDC_D3*%
X145000000Y-83300000D03*
X143400000Y-93500000D03*
%TO.N,/Radar/VDD_PLL*%
X158385000Y-107965000D03*
%TO.N,/Radar/VDD_VCO*%
X158300000Y-105200000D03*
%TO.N,/Portenta/SWDIO*%
X159800000Y-86000000D03*
%TO.N,/Portenta/SWCLK*%
X159800000Y-87200000D03*
%TO.N,/Portenta/SWO*%
X159800000Y-88500000D03*
%TO.N,/Portenta/nRST*%
X159800000Y-91000000D03*
%TO.N,/Portenta/UART4_TX*%
X158800000Y-92300000D03*
%TO.N,/Portenta/UART4_RX*%
X159800000Y-92300000D03*
%TO.N,/Portenta/SDC_CMD*%
X145600000Y-95400000D03*
X146600000Y-83300000D03*
%TO.N,/Connectors/USB_FS+*%
X153100000Y-83900000D03*
X153800000Y-76300000D03*
%TO.N,/Connectors/USB_FS-*%
X152500000Y-83900000D03*
X153800000Y-75700000D03*
%TO.N,/Camera/CAM_D7*%
X142200000Y-123750000D03*
%TO.N,/Camera/CAM_D6*%
X142600000Y-124750000D03*
%TO.N,/Camera/CAM_D5*%
X143000000Y-125100000D03*
%TO.N,/Camera/CAM_D4*%
X143400000Y-126500000D03*
%TO.N,/Camera/CAM_D3*%
X143800000Y-127200000D03*
%TO.N,/Camera/CAM_D2*%
X144600000Y-127500000D03*
%TO.N,/Camera/CAM_D1*%
X145000000Y-127200000D03*
%TO.N,/Camera/CAM_D0*%
X145000000Y-126500000D03*
%TO.N,/Camera/CAM_VS*%
X144000000Y-121250000D03*
%TO.N,/Camera/CAM_CK*%
X145800000Y-126500000D03*
%TO.N,/Camera/CAM_HS*%
X145000000Y-121250000D03*
%TO.N,/Connectors/ETH_A+*%
X157800000Y-81500000D03*
%TO.N,/Connectors/ETH_A-*%
X157400000Y-81900000D03*
%TO.N,VTOF*%
X146400000Y-103400000D03*
X143400000Y-109900000D03*
X139000000Y-106600000D03*
X147000000Y-106600000D03*
X140600000Y-104900000D03*
%TO.N,VCAM*%
X138662500Y-111300000D03*
X148300000Y-123250000D03*
%TO.N,/Connectors/ETH_B+*%
X156999500Y-83300000D03*
%TO.N,/Connectors/ETH_B-*%
X156600000Y-83750000D03*
%TO.N,/Connectors/ETH_LED1*%
X149400000Y-68800000D03*
X154600000Y-81500000D03*
%TO.N,/Connectors/ETH_LED2*%
X154200000Y-81900000D03*
X149400000Y-70800000D03*
%TO.N,/Portenta/TOF_RST*%
X145250000Y-108400000D03*
X141000000Y-81600000D03*
X140300000Y-97300000D03*
X141000000Y-87100000D03*
%TO.N,/Portenta/TOF_LPn*%
X140000000Y-86300000D03*
X139500000Y-101800000D03*
X142250000Y-108400000D03*
%TO.N,/Portenta/TOF_INT*%
X140500000Y-84000000D03*
X140500000Y-86700000D03*
X143750000Y-108400000D03*
X141000000Y-105400000D03*
%TO.N,/Portenta/I2C3_SDA*%
X142000000Y-101800000D03*
X142000000Y-87900000D03*
X143750000Y-105600000D03*
%TO.N,/Portenta/I2C3_SCL*%
X141500000Y-101800000D03*
X141500000Y-87500000D03*
X143000000Y-105600000D03*
%TO.N,/Camera/CAM_PWDN*%
X140500000Y-121750000D03*
X150600000Y-72800000D03*
X150600000Y-83700000D03*
%TO.N,/Camera/STROBE*%
X141000000Y-118500000D03*
%TO.N,/Camera/I2C1_SDA*%
X149400000Y-83300000D03*
X141500000Y-119250000D03*
X149600000Y-105200000D03*
%TO.N,/Camera/I2C1_SCL*%
X149000000Y-83700000D03*
X149200000Y-106200000D03*
X140500000Y-120250000D03*
%TO.N,/Portenta/RADAR_INT*%
X152850000Y-119700000D03*
%TO.N,/Portenta/SPI2_NSS*%
X160150000Y-117900000D03*
X149000000Y-125100000D03*
%TO.N,/Portenta/SPI2_SCK*%
X153500000Y-119700000D03*
%TO.N,/Portenta/SPI2_MISO*%
X149800000Y-125100000D03*
X158853003Y-119700000D03*
%TO.N,/Portenta/SPI2_MOSI*%
X154150000Y-119700000D03*
%TO.N,/Radar/SCK_1V8*%
X153250000Y-110000000D03*
%TO.N,/Radar/INT_1V8*%
X153250497Y-109250000D03*
%TO.N,/Radar/MOSI_1V8*%
X153750000Y-109250000D03*
%TO.N,/Radar/MISO_1V8*%
X154250000Y-108250000D03*
%TO.N,/Radar/RST_1V8*%
X154750497Y-108250000D03*
%TO.N,/Radar/NSS_1V8*%
X155250000Y-108250000D03*
%TO.N,/Portenta/SDC_CLK*%
X147000000Y-83700000D03*
X146000000Y-96000000D03*
%TO.N,/Portenta/SDC_D0*%
X146200000Y-83700000D03*
X145200000Y-98800000D03*
%TO.N,/Portenta/CATR*%
X158500000Y-131850000D03*
%TO.N,+5V*%
X148000000Y-81600000D03*
X148500000Y-108500000D03*
%TO.N,/Portenta/SDC_D1*%
X144800000Y-99200000D03*
X145800000Y-83300000D03*
%TO.N,Net-(J4-CC1)*%
X158600000Y-72500000D03*
%TO.N,Net-(J4-CC2)*%
X160800000Y-80400000D03*
%TO.N,Net-(J5-Pad1)*%
X139750000Y-76450000D03*
%TO.N,/Portenta/RADAR_nRST*%
X159500000Y-119700000D03*
%TO.N,/Portenta/CATG*%
X158500000Y-130950000D03*
%TO.N,/Portenta/CATB*%
X161500000Y-130950000D03*
%TO.N,Net-(J3-DAT2)*%
X146902277Y-78902277D03*
X144400000Y-94300000D03*
%TD*%
D38*
%TO.N,+1V8*%
X159500000Y-102115000D02*
X158900000Y-102115000D01*
X161575000Y-103775000D02*
X160900000Y-103100000D01*
X161575000Y-104690000D02*
X161575000Y-103775000D01*
X161800000Y-104915000D02*
X161575000Y-104690000D01*
%TO.N,/Radar/VDD_PLL*%
X158925000Y-107700000D02*
X159725000Y-106900000D01*
X161200000Y-106900000D02*
X161800000Y-106300000D01*
X159725000Y-106900000D02*
X161200000Y-106900000D01*
X161800000Y-106300000D02*
X161800000Y-105885000D01*
D39*
%TO.N,Net-(J5-Pad1)*%
X145400000Y-70800000D02*
X146575000Y-70800000D01*
X139750000Y-76450000D02*
X145400000Y-70800000D01*
D40*
%TO.N,GND*%
X153400000Y-128840000D02*
X153400000Y-128300000D01*
%TO.N,+3.3V*%
X155800000Y-128840000D02*
X155800000Y-128300000D01*
D39*
%TO.N,/Portenta/RADAR_INT*%
X152850000Y-119700000D02*
X152850000Y-120475000D01*
X152850000Y-120475000D02*
X148775000Y-124550000D01*
X147000000Y-125000000D02*
X147000000Y-125760000D01*
X148775000Y-124550000D02*
X147450000Y-124550000D01*
X147450000Y-124550000D02*
X147000000Y-125000000D01*
X152850000Y-118862500D02*
X152850000Y-119700000D01*
%TO.N,/Portenta/SPI2_SCK*%
X153500000Y-119700000D02*
X153500000Y-120359099D01*
X153500000Y-120359099D02*
X149400000Y-124459099D01*
X149400000Y-124459099D02*
X149400000Y-125760000D01*
X153500000Y-119700000D02*
X153500000Y-118862500D01*
%TO.N,/Portenta/SPI2_MOSI*%
X154150000Y-119700000D02*
X154150000Y-120300000D01*
X154150000Y-120300000D02*
X150200000Y-124250000D01*
X150200000Y-124250000D02*
X150200000Y-125760000D01*
X154150000Y-118862500D02*
X154150000Y-119700000D01*
%TO.N,/Portenta/SPI2_MISO*%
X158853003Y-119700000D02*
X158853003Y-118865503D01*
X158853003Y-118865503D02*
X158850000Y-118862500D01*
%TO.N,/Portenta/RADAR_nRST*%
X159500000Y-119700000D02*
X159500000Y-126400000D01*
X159500000Y-126400000D02*
X158900000Y-127000000D01*
X147400000Y-126800000D02*
X147400000Y-125760000D01*
X158900000Y-127000000D02*
X147600000Y-127000000D01*
X147600000Y-127000000D02*
X147400000Y-126800000D01*
X159500000Y-119700000D02*
X159500000Y-118862500D01*
%TO.N,/Camera/CAM_nRST*%
X149625000Y-102800000D02*
X150200000Y-102800000D01*
X150200000Y-74900000D02*
X148175000Y-74900000D01*
X150200000Y-83300000D02*
X150200000Y-82580000D01*
D38*
%TO.N,+3.3V*%
X141562500Y-95125000D02*
X142975000Y-95125000D01*
D40*
X138175000Y-84150000D02*
X139850000Y-84150000D01*
X146600000Y-128840000D02*
X146600000Y-128100000D01*
D38*
X160000000Y-96800000D02*
X159975000Y-96825000D01*
X141850000Y-109900000D02*
X142800000Y-109900000D01*
X159975000Y-96825000D02*
X159975000Y-98400000D01*
X141537500Y-95100000D02*
X141562500Y-95125000D01*
X140600000Y-95100000D02*
X141537500Y-95100000D01*
D40*
X148600000Y-125760000D02*
X148600000Y-126500000D01*
D38*
X139500000Y-102675000D02*
X138825000Y-102675000D01*
D40*
X138175000Y-83300000D02*
X138175000Y-84150000D01*
X150600000Y-128840000D02*
X150600000Y-128100000D01*
D38*
X142975000Y-95125000D02*
X143000000Y-95100000D01*
D40*
X138175000Y-84150000D02*
X138175000Y-85000000D01*
D38*
X138825000Y-102675000D02*
X138800000Y-102700000D01*
D40*
X143800000Y-85660000D02*
X143800000Y-84900000D01*
D38*
%TO.N,Vradar*%
X155450000Y-117450000D02*
X155000000Y-117000000D01*
X161450000Y-118862500D02*
X161450000Y-117450000D01*
X155450000Y-118862500D02*
X155450000Y-117450000D01*
X162300000Y-98400000D02*
X161625000Y-98400000D01*
X161450000Y-117450000D02*
X161000000Y-117000000D01*
%TO.N,GND*%
X146400000Y-118200000D02*
X146800000Y-118600000D01*
D40*
X155800000Y-125760000D02*
X155800000Y-126500000D01*
D38*
X147200000Y-101000000D02*
X147225000Y-100975000D01*
X161200000Y-109300000D02*
X160475000Y-109300000D01*
D40*
X157137500Y-76000000D02*
X158100000Y-76000000D01*
D38*
X141562500Y-97325000D02*
X142975000Y-97325000D01*
X160280000Y-106100000D02*
X159730000Y-105550000D01*
X142975000Y-97325000D02*
X143000000Y-97300000D01*
X151500000Y-100500000D02*
X150937500Y-100500000D01*
X154500000Y-78700000D02*
X154000000Y-78700000D01*
X149000000Y-114775000D02*
X149000000Y-114800000D01*
D40*
X147400000Y-85660000D02*
X147400000Y-84900000D01*
D38*
X149000000Y-114800000D02*
X149400000Y-115200000D01*
X160475000Y-108525000D02*
X160450000Y-108500000D01*
D40*
X158200000Y-71500000D02*
X158775000Y-71500000D01*
X157550000Y-118862500D02*
X157550000Y-117900000D01*
D38*
X157500000Y-109080000D02*
X157500000Y-109700000D01*
X150937500Y-100500000D02*
X150787500Y-100650000D01*
D40*
X138175000Y-81600000D02*
X138175000Y-80925000D01*
D38*
X142675000Y-100725000D02*
X143000000Y-100400000D01*
X160275000Y-104300000D02*
X160475000Y-104500000D01*
X149937500Y-88288000D02*
X149937500Y-89050000D01*
X160475000Y-109300000D02*
X160475000Y-108525000D01*
D40*
X150600000Y-125760000D02*
X150600000Y-126500000D01*
X158100000Y-76000000D02*
X158102720Y-76002720D01*
D38*
X146500000Y-116600000D02*
X146800000Y-116900000D01*
D40*
X146575000Y-72800000D02*
X146000000Y-72800000D01*
X146625000Y-74900000D02*
X146000000Y-74900000D01*
D38*
X160450000Y-108500000D02*
X160475000Y-108475000D01*
X160475000Y-104500000D02*
X160475000Y-106100000D01*
X141687500Y-100725000D02*
X142675000Y-100725000D01*
X158825000Y-68100000D02*
X158200000Y-68100000D01*
X149749500Y-88100000D02*
X149937500Y-88288000D01*
D40*
X138400000Y-80700000D02*
X139849500Y-80700000D01*
D38*
X146275000Y-118200000D02*
X146400000Y-118200000D01*
D40*
X138175000Y-80925000D02*
X138400000Y-80700000D01*
X161600000Y-82325000D02*
X161600000Y-82900000D01*
X148600000Y-128840000D02*
X148600000Y-128100000D01*
D38*
X146275000Y-116600000D02*
X146500000Y-116600000D01*
D40*
X153800000Y-85660000D02*
X153800000Y-86300000D01*
X151550000Y-118862500D02*
X151550000Y-117900000D01*
D38*
X159750000Y-104300000D02*
X160275000Y-104300000D01*
X147137500Y-114000000D02*
X147800000Y-114000000D01*
X160475000Y-108475000D02*
X160475000Y-107700000D01*
X147225000Y-100975000D02*
X149287500Y-100975000D01*
D40*
X151800000Y-82580000D02*
X151800000Y-83300000D01*
D38*
X152600000Y-105325000D02*
X151775000Y-105325000D01*
D40*
X142700000Y-88362500D02*
X141687500Y-89375000D01*
X148600000Y-82580000D02*
X148600000Y-83300000D01*
D38*
X151775000Y-105325000D02*
X151700000Y-105250000D01*
D40*
X146600000Y-125760000D02*
X146600000Y-126500000D01*
D38*
X160475000Y-106100000D02*
X160280000Y-106100000D01*
D40*
X149800000Y-85660000D02*
X149800000Y-84900000D01*
D38*
X158775000Y-69800000D02*
X158200000Y-69800000D01*
%TO.N,/Connectors/USB_Shield*%
X160425000Y-69000000D02*
X160425000Y-68150000D01*
X160425000Y-68150000D02*
X160375000Y-68100000D01*
X160425000Y-69800000D02*
X160425000Y-69000000D01*
D40*
%TO.N,+1V8*%
X157550000Y-114050000D02*
X157550000Y-113137500D01*
X161000000Y-115200000D02*
X158700000Y-115200000D01*
X158700000Y-115200000D02*
X157550000Y-114050000D01*
D38*
X153400000Y-106800000D02*
X153325000Y-106875000D01*
D40*
X151550000Y-113137500D02*
X151550000Y-114150000D01*
D38*
X153325000Y-106875000D02*
X152600000Y-106875000D01*
X161000000Y-114400000D02*
X161000000Y-115200000D01*
X161450000Y-113137500D02*
X161450000Y-113950000D01*
D40*
X151550000Y-114150000D02*
X151900000Y-114500000D01*
X154500000Y-114500000D02*
X155000000Y-115000000D01*
D38*
X155450000Y-114550000D02*
X155000000Y-115000000D01*
D40*
X151900000Y-114500000D02*
X154500000Y-114500000D01*
D38*
X155450000Y-113137500D02*
X155450000Y-114550000D01*
X161450000Y-113950000D02*
X161000000Y-114400000D01*
X153400000Y-106800000D02*
X154112500Y-106800000D01*
%TO.N,/Radar/VDD_LF*%
X158310000Y-109090000D02*
X158715000Y-109090000D01*
X158715000Y-109090000D02*
X158925000Y-109300000D01*
%TO.N,/Radar/VDD_RF*%
X157275000Y-106875000D02*
X157300000Y-106875000D01*
X157500000Y-108120000D02*
X157500000Y-107075000D01*
X156000000Y-106300000D02*
X156700000Y-106300000D01*
X157975000Y-106200000D02*
X157300000Y-106875000D01*
X155750000Y-104700000D02*
X155750000Y-106050000D01*
X158300000Y-106200000D02*
X157975000Y-106200000D01*
X158825000Y-106200000D02*
X158925000Y-106100000D01*
X157500000Y-107075000D02*
X157300000Y-106875000D01*
X155385000Y-106800000D02*
X155460000Y-106875000D01*
X155250000Y-104700000D02*
X155750000Y-104700000D01*
X155750000Y-106050000D02*
X156000000Y-106300000D01*
X156700000Y-106300000D02*
X157275000Y-106875000D01*
X158300000Y-106200000D02*
X158825000Y-106200000D01*
X155460000Y-106875000D02*
X157300000Y-106875000D01*
%TO.N,Net-(U12-VBUS)*%
X155700000Y-76000000D02*
X154862500Y-76000000D01*
X156000000Y-76300000D02*
X155700000Y-76000000D01*
X156000000Y-78725000D02*
X156000000Y-76300000D01*
D39*
%TO.N,Net-(J5-Pad11)*%
X145400000Y-68800000D02*
X146575000Y-68800000D01*
%TO.N,/Portenta/SDC_D2*%
X145400000Y-82580000D02*
X145400000Y-81600000D01*
X143900000Y-78900000D02*
X144575000Y-78900000D01*
%TO.N,/Portenta/SDC_D3*%
X142825000Y-92925000D02*
X141562500Y-92925000D01*
X145000000Y-82580000D02*
X145000000Y-83300000D01*
X143400000Y-93500000D02*
X142825000Y-92925000D01*
D38*
%TO.N,/Radar/VDD_PLL*%
X158385000Y-107965000D02*
X158660000Y-107965000D01*
X158660000Y-107965000D02*
X158925000Y-107700000D01*
%TO.N,/Radar/VDD_VCO*%
X158925000Y-104500000D02*
X158925000Y-104575000D01*
X158900000Y-104475000D02*
X158925000Y-104500000D01*
X158900000Y-102987500D02*
X158900000Y-104475000D01*
X158925000Y-104575000D02*
X158300000Y-105200000D01*
D39*
%TO.N,/Portenta/SWDIO*%
X159800000Y-81400000D02*
X159000000Y-80600000D01*
X159800000Y-86000000D02*
X159800000Y-81400000D01*
X159000000Y-80600000D02*
X143800000Y-80600000D01*
X143000000Y-81400000D02*
X143000000Y-82580000D01*
X143800000Y-80600000D02*
X143000000Y-81400000D01*
%TO.N,/Portenta/SWCLK*%
X159200000Y-80200000D02*
X143600000Y-80200000D01*
X142600000Y-81200000D02*
X142600000Y-82580000D01*
X143600000Y-80200000D02*
X142600000Y-81200000D01*
X159800000Y-87200000D02*
X160200000Y-86800000D01*
X160200000Y-86800000D02*
X160200000Y-81200000D01*
X160200000Y-81200000D02*
X159200000Y-80200000D01*
%TO.N,/Portenta/SWO*%
X159400000Y-79800000D02*
X143400000Y-79800000D01*
X143400000Y-79800000D02*
X142200000Y-81000000D01*
X159800000Y-88500000D02*
X160600000Y-87700000D01*
X160600000Y-81000000D02*
X159400000Y-79800000D01*
X142200000Y-81000000D02*
X142200000Y-82580000D01*
X160600000Y-87700000D02*
X160600000Y-81000000D01*
%TO.N,/Portenta/nRST*%
X159400000Y-81600000D02*
X158800000Y-81000000D01*
X144000000Y-81000000D02*
X143400000Y-81600000D01*
X159800000Y-91000000D02*
X159400000Y-90600000D01*
X143400000Y-81600000D02*
X143400000Y-82580000D01*
X158800000Y-81000000D02*
X144000000Y-81000000D01*
X159400000Y-90600000D02*
X159400000Y-81600000D01*
%TO.N,/Portenta/UART4_TX*%
X151400000Y-86205000D02*
X157495000Y-92300000D01*
X157495000Y-92300000D02*
X158800000Y-92300000D01*
X151400000Y-85660000D02*
X151400000Y-86205000D01*
%TO.N,/Portenta/UART4_RX*%
X159400000Y-92700000D02*
X159800000Y-92300000D01*
X157400000Y-92700000D02*
X159400000Y-92700000D01*
X151000000Y-86300000D02*
X157400000Y-92700000D01*
X151000000Y-85660000D02*
X151000000Y-86300000D01*
%TO.N,/Portenta/SDC_CMD*%
X143025000Y-94025000D02*
X141562500Y-94025000D01*
X146600000Y-82580000D02*
X146600000Y-83300000D01*
X144400000Y-95400000D02*
X143025000Y-94025000D01*
X145600000Y-95400000D02*
X144400000Y-95400000D01*
D41*
%TO.N,/Connectors/USB_FS+*%
X153100000Y-83900000D02*
X153000000Y-84000000D01*
X154862500Y-76950000D02*
X154450000Y-76950000D01*
X153000000Y-84000000D02*
X153000000Y-85660000D01*
X154450000Y-76950000D02*
X153800000Y-76300000D01*
%TO.N,/Connectors/USB_FS-*%
X152600000Y-84000000D02*
X152600000Y-85660000D01*
X154862500Y-75050000D02*
X154450000Y-75050000D01*
X152500000Y-83900000D02*
X152600000Y-84000000D01*
X154450000Y-75050000D02*
X153800000Y-75700000D01*
D39*
%TO.N,/Camera/CAM_D7*%
X142200000Y-125760000D02*
X142200000Y-123750000D01*
%TO.N,/Camera/CAM_D6*%
X142600000Y-125760000D02*
X142600000Y-124750000D01*
%TO.N,/Camera/CAM_D5*%
X143000000Y-125760000D02*
X143000000Y-125100000D01*
%TO.N,/Camera/CAM_D4*%
X143400000Y-125760000D02*
X143400000Y-126500000D01*
%TO.N,/Camera/CAM_D3*%
X143800000Y-125760000D02*
X143800000Y-127200000D01*
%TO.N,/Camera/CAM_D2*%
X144200000Y-127100000D02*
X144200000Y-125760000D01*
X144600000Y-127500000D02*
X144200000Y-127100000D01*
%TO.N,/Camera/CAM_D1*%
X145000000Y-127200000D02*
X144600000Y-126800000D01*
X144600000Y-126800000D02*
X144600000Y-125760000D01*
%TO.N,/Camera/CAM_D0*%
X145000000Y-125760000D02*
X145000000Y-126500000D01*
%TO.N,/Camera/CAM_VS*%
X145400000Y-125760000D02*
X145400000Y-122650000D01*
X145400000Y-122650000D02*
X144000000Y-121250000D01*
%TO.N,/Camera/CAM_CK*%
X145800000Y-125760000D02*
X145800000Y-126500000D01*
%TO.N,/Camera/CAM_HS*%
X146200000Y-125760000D02*
X146200000Y-122450000D01*
X146200000Y-122450000D02*
X145000000Y-121250000D01*
D41*
%TO.N,/Connectors/ETH_A+*%
X157800000Y-82580000D02*
X157800000Y-81500000D01*
%TO.N,/Connectors/ETH_A-*%
X157400000Y-82580000D02*
X157400000Y-81900000D01*
D40*
%TO.N,VTOF*%
X147000000Y-104000000D02*
X146400000Y-103400000D01*
X147000000Y-106600000D02*
X147000000Y-104000000D01*
D38*
X143300000Y-107900000D02*
X145700000Y-107900000D01*
X139650000Y-105850000D02*
X140600000Y-104900000D01*
X145700000Y-107900000D02*
X147000000Y-106600000D01*
X141400000Y-107900000D02*
X143300000Y-107900000D01*
X143400000Y-109900000D02*
X143300000Y-109800000D01*
X140600000Y-104600000D02*
X140325000Y-104325000D01*
X139650000Y-106600000D02*
X139650000Y-105850000D01*
X140100000Y-106600000D02*
X141400000Y-107900000D01*
X139000000Y-106600000D02*
X139650000Y-106600000D01*
X140600000Y-104900000D02*
X140600000Y-104600000D01*
X139650000Y-106600000D02*
X140100000Y-106600000D01*
X140325000Y-104325000D02*
X139500000Y-104325000D01*
X143300000Y-109800000D02*
X143300000Y-107900000D01*
%TO.N,VCAM*%
X139700000Y-117400000D02*
X143925000Y-117400000D01*
D40*
X147975000Y-102800000D02*
X147975000Y-104500000D01*
D42*
X138662500Y-111300000D02*
X138662500Y-110437500D01*
D40*
X144862500Y-114950000D02*
X144862500Y-116462500D01*
D38*
X145100000Y-119500000D02*
X147900000Y-119500000D01*
D40*
X150400000Y-122300000D02*
X149450000Y-123250000D01*
D38*
X144725000Y-118200000D02*
X144725000Y-119125000D01*
D40*
X149450000Y-123250000D02*
X148300000Y-123250000D01*
X147975000Y-104500000D02*
X147975000Y-106200000D01*
X150400000Y-108625000D02*
X150400000Y-122300000D01*
X147975000Y-106200000D02*
X150400000Y-108625000D01*
D38*
X138662500Y-111300000D02*
X138662500Y-116362500D01*
X143925000Y-117400000D02*
X144725000Y-116600000D01*
D40*
X144862500Y-116462500D02*
X144725000Y-116600000D01*
D38*
X144725000Y-119125000D02*
X145100000Y-119500000D01*
X148300000Y-119900000D02*
X148300000Y-123250000D01*
X138662500Y-116362500D02*
X139700000Y-117400000D01*
D42*
X139200000Y-109900000D02*
X140550000Y-109900000D01*
X138662500Y-110437500D02*
X139200000Y-109900000D01*
D38*
X147900000Y-119500000D02*
X148300000Y-119900000D01*
D42*
%TO.N,/Camera/5v_tof*%
X147137500Y-113050000D02*
X148500000Y-113050000D01*
D38*
X149000000Y-111625000D02*
X149000000Y-113225000D01*
D42*
X148500000Y-113050000D02*
X148825000Y-113050000D01*
D39*
X147137500Y-114950000D02*
X147950000Y-114950000D01*
X148200000Y-114700000D02*
X148200000Y-114025000D01*
D42*
X148825000Y-113050000D02*
X149000000Y-113225000D01*
D39*
X148200000Y-114025000D02*
X149000000Y-113225000D01*
X147950000Y-114950000D02*
X148200000Y-114700000D01*
D41*
%TO.N,/Connectors/ETH_B+*%
X156999500Y-83300000D02*
X157000000Y-83299500D01*
X157000000Y-83299500D02*
X157000000Y-82580000D01*
%TO.N,/Connectors/ETH_B-*%
X156600000Y-82580000D02*
X156600000Y-83750000D01*
D39*
%TO.N,/Connectors/ETH_LED1*%
X154600000Y-82580000D02*
X154600000Y-81500000D01*
X149400000Y-68800000D02*
X148225000Y-68800000D01*
%TO.N,/Connectors/ETH_LED2*%
X149400000Y-70800000D02*
X148225000Y-70800000D01*
X154200000Y-82580000D02*
X154200000Y-81900000D01*
%TO.N,/Portenta/TOF_RST*%
X146010000Y-87100000D02*
X141000000Y-87100000D01*
X141000000Y-81600000D02*
X139825000Y-81600000D01*
X147000000Y-86110000D02*
X146010000Y-87100000D01*
X147000000Y-85660000D02*
X147000000Y-86110000D01*
%TO.N,/Portenta/TOF_LPn*%
X146200000Y-86110000D02*
X146010000Y-86300000D01*
X140000000Y-85900000D02*
X140000000Y-86300000D01*
X139825000Y-85725000D02*
X140000000Y-85900000D01*
X146010000Y-86300000D02*
X140000000Y-86300000D01*
X139825000Y-85000000D02*
X139825000Y-85725000D01*
X146200000Y-85660000D02*
X146200000Y-86110000D01*
%TO.N,/Portenta/TOF_INT*%
X146600000Y-85660000D02*
X146600000Y-86110000D01*
X146600000Y-86110000D02*
X146010000Y-86700000D01*
X140500000Y-83975000D02*
X139825000Y-83300000D01*
X140500000Y-84000000D02*
X140500000Y-83975000D01*
X146010000Y-86700000D02*
X140500000Y-86700000D01*
%TO.N,/Portenta/I2C3_SDA*%
X149400000Y-86110000D02*
X147610000Y-87900000D01*
X149400000Y-85660000D02*
X149400000Y-86110000D01*
X147610000Y-87900000D02*
X142000000Y-87900000D01*
%TO.N,/Portenta/I2C3_SCL*%
X149000000Y-86110000D02*
X147610000Y-87500000D01*
X147610000Y-87500000D02*
X141500000Y-87500000D01*
X149000000Y-85660000D02*
X149000000Y-86110000D01*
%TO.N,/Camera/CAM_PWDN*%
X150600000Y-82580000D02*
X150600000Y-83700000D01*
X150600000Y-72800000D02*
X148225000Y-72800000D01*
%TO.N,/Camera/STROBE*%
X141000000Y-118500000D02*
X142500000Y-118500000D01*
%TO.N,/Camera/I2C1_SDA*%
X149625000Y-104500000D02*
X149625000Y-105175000D01*
X149625000Y-105175000D02*
X149600000Y-105200000D01*
X149400000Y-83300000D02*
X149400000Y-82580000D01*
%TO.N,/Camera/I2C1_SCL*%
X149625000Y-106200000D02*
X149200000Y-106200000D01*
X149000000Y-82580000D02*
X149000000Y-83700000D01*
%TO.N,/Portenta/SPI2_NSS*%
X149000000Y-125760000D02*
X149000000Y-125100000D01*
X160150000Y-117900000D02*
X160150000Y-118862500D01*
%TO.N,/Portenta/SPI2_MISO*%
X149800000Y-125760000D02*
X149800000Y-125100000D01*
%TO.N,/Radar/SCK_1V8*%
X153500000Y-111350000D02*
X153500000Y-113137500D01*
X153250000Y-110000000D02*
X153250000Y-111100000D01*
X153250000Y-111100000D02*
X153500000Y-111350000D01*
%TO.N,/Radar/INT_1V8*%
X153250497Y-109250000D02*
X152850000Y-109650497D01*
X152850000Y-109650497D02*
X152850000Y-113137500D01*
%TO.N,/Radar/MOSI_1V8*%
X153750000Y-109250000D02*
X153750000Y-110800000D01*
X154150000Y-111200000D02*
X154150000Y-113137500D01*
X153750000Y-110800000D02*
X154150000Y-111200000D01*
%TO.N,/Radar/MISO_1V8*%
X154250000Y-108250000D02*
X154250000Y-109575000D01*
X158850000Y-111050000D02*
X158850000Y-113137500D01*
X158600000Y-110800000D02*
X158850000Y-111050000D01*
X155475000Y-110800000D02*
X158600000Y-110800000D01*
X154250000Y-109575000D02*
X155475000Y-110800000D01*
%TO.N,/Radar/RST_1V8*%
X159500000Y-113137500D02*
X159500000Y-111100000D01*
X155850000Y-110500000D02*
X154750497Y-109400497D01*
X154750497Y-109400497D02*
X154750497Y-108250000D01*
X158900000Y-110500000D02*
X155850000Y-110500000D01*
X159500000Y-111100000D02*
X158900000Y-110500000D01*
%TO.N,/Radar/NSS_1V8*%
X155250000Y-109250000D02*
X156200000Y-110200000D01*
X155250000Y-108250000D02*
X155250000Y-109250000D01*
X156200000Y-110200000D02*
X159100000Y-110200000D01*
X159100000Y-110200000D02*
X160150000Y-111250000D01*
X160150000Y-111250000D02*
X160150000Y-113137500D01*
%TO.N,/Portenta/SDC_CLK*%
X147000000Y-82580000D02*
X147000000Y-83700000D01*
X146000000Y-96000000D02*
X145775000Y-96225000D01*
X145775000Y-96225000D02*
X141562500Y-96225000D01*
%TO.N,/Portenta/SDC_D0*%
X146200000Y-82580000D02*
X146200000Y-83700000D01*
X145200000Y-98800000D02*
X144825000Y-98425000D01*
X144825000Y-98425000D02*
X141562500Y-98425000D01*
%TO.N,/Portenta/CATR*%
X157875000Y-131850000D02*
X157825000Y-131900000D01*
X158500000Y-131850000D02*
X157875000Y-131850000D01*
D40*
%TO.N,+5V*%
X153400000Y-82000000D02*
X153400000Y-82580000D01*
D38*
X149000000Y-109000000D02*
X148500000Y-108500000D01*
D40*
X148100000Y-81500000D02*
X152900000Y-81500000D01*
X152900000Y-81500000D02*
X153400000Y-82000000D01*
X148000000Y-81600000D02*
X148100000Y-81500000D01*
D38*
X149000000Y-109975000D02*
X149000000Y-109000000D01*
D39*
%TO.N,/Portenta/SDC_D1*%
X144475000Y-99525000D02*
X141562500Y-99525000D01*
X145800000Y-82580000D02*
X145800000Y-83300000D01*
X144800000Y-99200000D02*
X144475000Y-99525000D01*
%TO.N,/Portenta/SDC_CD*%
X152362500Y-88500000D02*
X152362500Y-89450000D01*
X150600000Y-86737500D02*
X152362500Y-88500000D01*
X150600000Y-85660000D02*
X150600000Y-86737500D01*
%TO.N,Net-(J4-CC1)*%
X159425000Y-72500000D02*
X160425000Y-71500000D01*
X158600000Y-72500000D02*
X159425000Y-72500000D01*
%TO.N,Net-(J4-CC2)*%
X160800000Y-80400000D02*
X161325000Y-80400000D01*
X161325000Y-80400000D02*
X161600000Y-80675000D01*
%TO.N,/Connectors/conn_USB-*%
X158350000Y-76950000D02*
X159325000Y-75975000D01*
X159325000Y-75975000D02*
X160126750Y-75975000D01*
X160126750Y-75975000D02*
X160456750Y-75975000D01*
X157137500Y-76950000D02*
X158350000Y-76950000D01*
X160456750Y-75975000D02*
X160906750Y-76425000D01*
%TO.N,/Connectors/conn_USB+*%
X160906750Y-77325000D02*
X161375000Y-77325000D01*
X161600000Y-75300000D02*
X161375000Y-75075000D01*
X157137500Y-75050000D02*
X157162500Y-75075000D01*
X161600000Y-77100000D02*
X161600000Y-75300000D01*
X161375000Y-77325000D02*
X161600000Y-77100000D01*
X161375000Y-75075000D02*
X160126750Y-75075000D01*
X157162500Y-75075000D02*
X160126750Y-75075000D01*
%TO.N,/Portenta/CATG*%
X158475000Y-130950000D02*
X157825000Y-130300000D01*
X158500000Y-130950000D02*
X158475000Y-130950000D01*
%TO.N,/Portenta/CATB*%
X161500000Y-130950000D02*
X161500000Y-130375000D01*
X161500000Y-130375000D02*
X161425000Y-130300000D01*
%TO.N,Net-(J3-DAT2)*%
X144400000Y-92300000D02*
X143925000Y-91825000D01*
X144400000Y-94300000D02*
X144400000Y-92300000D01*
X143925000Y-91825000D02*
X141562500Y-91825000D01*
X146902277Y-78902277D02*
X146227277Y-78902277D01*
X146227277Y-78902277D02*
X146225000Y-78900000D01*
%TO.N,/Portenta/nLEDR*%
X154600000Y-130250000D02*
X156175000Y-131825000D01*
X154600000Y-128840000D02*
X154600000Y-130250000D01*
X156175000Y-131825000D02*
X156175000Y-131900000D01*
%TO.N,/Portenta/nLEDG*%
X155000000Y-128840000D02*
X155000000Y-129700000D01*
X155600000Y-130300000D02*
X156175000Y-130300000D01*
X155000000Y-129700000D02*
X155600000Y-130300000D01*
%TO.N,/Portenta/nLEDB*%
X159025000Y-129550000D02*
X159775000Y-130300000D01*
X155400000Y-128840000D02*
X155400000Y-129290000D01*
X155660000Y-129550000D02*
X159025000Y-129550000D01*
X155400000Y-129290000D02*
X155660000Y-129550000D01*
%TD*%
%TA.AperFunction,Conductor*%
%TO.N,/Camera/LX*%
G36*
X143433334Y-112201337D02*
G01*
X143448236Y-112203543D01*
X143478591Y-112208037D01*
X143513356Y-112218564D01*
X143554726Y-112238091D01*
X143570580Y-112247053D01*
X144037015Y-112558011D01*
X144037018Y-112558012D01*
X144037019Y-112558013D01*
X144103248Y-112589273D01*
X144175694Y-112600000D01*
X145337789Y-112600000D01*
X145361980Y-112602383D01*
X145421480Y-112614218D01*
X145466175Y-112632730D01*
X145506272Y-112659522D01*
X145540477Y-112693727D01*
X145567267Y-112733822D01*
X145585781Y-112778518D01*
X145597617Y-112838019D01*
X145600000Y-112862211D01*
X145600000Y-113137789D01*
X145597617Y-113161982D01*
X145585781Y-113221482D01*
X145567267Y-113266179D01*
X145540481Y-113306268D01*
X145506269Y-113340479D01*
X145492021Y-113350000D01*
X145466179Y-113367267D01*
X145421482Y-113385781D01*
X145387857Y-113392469D01*
X145361978Y-113397617D01*
X145337789Y-113400000D01*
X144140567Y-113400000D01*
X144100523Y-113403227D01*
X144061516Y-113412827D01*
X143543217Y-113585594D01*
X143533649Y-113588360D01*
X143509181Y-113594383D01*
X143489512Y-113597575D01*
X143465519Y-113599509D01*
X143451917Y-113599293D01*
X143451917Y-113599500D01*
X140259697Y-113599500D01*
X140235507Y-113597117D01*
X140217334Y-113593502D01*
X140178518Y-113585781D01*
X140133822Y-113567267D01*
X140093727Y-113540477D01*
X140059522Y-113506272D01*
X140032730Y-113466175D01*
X140014218Y-113421480D01*
X140009945Y-113400000D01*
X140002383Y-113361980D01*
X140000000Y-113337789D01*
X140000000Y-112462211D01*
X140002381Y-112438028D01*
X140014219Y-112378514D01*
X140032729Y-112333826D01*
X140059524Y-112293724D01*
X140093724Y-112259524D01*
X140133826Y-112232729D01*
X140178514Y-112214219D01*
X140238028Y-112202381D01*
X140262211Y-112200000D01*
X143415173Y-112200000D01*
X143433334Y-112201337D01*
G37*
%TD.AperFunction*%
%TD*%
%TA.AperFunction,Conductor*%
%TO.N,VCAM*%
G36*
X143161980Y-114802383D02*
G01*
X143221480Y-114814218D01*
X143266175Y-114832730D01*
X143306272Y-114859522D01*
X143340477Y-114893727D01*
X143367267Y-114933822D01*
X143385781Y-114978518D01*
X143397617Y-115038019D01*
X143400000Y-115062211D01*
X143400000Y-115350002D01*
X143419029Y-115445670D01*
X143473222Y-115526777D01*
X143554329Y-115580970D01*
X143649998Y-115600000D01*
X143650000Y-115600000D01*
X145037789Y-115600000D01*
X145061980Y-115602383D01*
X145121480Y-115614218D01*
X145166175Y-115632730D01*
X145206272Y-115659522D01*
X145240477Y-115693727D01*
X145267267Y-115733822D01*
X145285781Y-115778518D01*
X145297617Y-115838019D01*
X145300000Y-115862211D01*
X145300000Y-118537789D01*
X145297617Y-118561982D01*
X145285781Y-118621482D01*
X145267267Y-118666179D01*
X145240481Y-118706268D01*
X145206269Y-118740479D01*
X145171975Y-118763394D01*
X145166179Y-118767267D01*
X145121482Y-118785781D01*
X145087857Y-118792469D01*
X145061978Y-118797617D01*
X145037789Y-118800000D01*
X143962211Y-118800000D01*
X143938020Y-118797617D01*
X143923189Y-118794667D01*
X143878518Y-118785781D01*
X143833822Y-118767267D01*
X143793727Y-118740477D01*
X143759522Y-118706272D01*
X143732730Y-118666175D01*
X143714218Y-118621480D01*
X143702383Y-118561980D01*
X143700000Y-118537789D01*
X143700000Y-117049998D01*
X143680970Y-116954329D01*
X143626777Y-116873222D01*
X143545670Y-116819029D01*
X143450002Y-116800000D01*
X143450000Y-116800000D01*
X140262211Y-116800000D01*
X140238020Y-116797617D01*
X140223189Y-116794667D01*
X140178518Y-116785781D01*
X140133822Y-116767267D01*
X140093727Y-116740477D01*
X140059522Y-116706272D01*
X140032730Y-116666175D01*
X140014218Y-116621480D01*
X140002383Y-116561980D01*
X140000000Y-116537789D01*
X140000000Y-115062211D01*
X140002381Y-115038028D01*
X140014219Y-114978514D01*
X140032729Y-114933826D01*
X140059524Y-114893724D01*
X140093724Y-114859524D01*
X140133826Y-114832729D01*
X140178514Y-114814219D01*
X140238028Y-114802381D01*
X140262211Y-114800000D01*
X143137789Y-114800000D01*
X143161980Y-114802383D01*
G37*
%TD.AperFunction*%
%TD*%
%TA.AperFunction,Conductor*%
%TO.N,GND*%
G36*
X142500000Y-117710698D02*
G01*
X142534455Y-117700000D01*
X143095500Y-117700000D01*
X143145000Y-117713263D01*
X143181237Y-117749500D01*
X143194500Y-117799000D01*
X143194500Y-118127016D01*
X143175972Y-118184681D01*
X143127322Y-118220762D01*
X143066761Y-118221753D01*
X143016958Y-118187283D01*
X142928282Y-118071717D01*
X142802841Y-117975464D01*
X142656761Y-117914955D01*
X142540506Y-117899650D01*
X142521532Y-117897152D01*
X142500000Y-117887226D01*
X142478467Y-117897152D01*
X142461681Y-117899362D01*
X142343238Y-117914955D01*
X142197158Y-117975464D01*
X142071717Y-118071717D01*
X141975464Y-118197157D01*
X141952270Y-118253153D01*
X141937675Y-118288387D01*
X141901214Y-118332815D01*
X141846213Y-118349500D01*
X141317255Y-118349500D01*
X141267756Y-118336237D01*
X141243896Y-118312378D01*
X141233748Y-118303863D01*
X141233748Y-118303862D01*
X141152568Y-118235744D01*
X141052986Y-118199500D01*
X140947014Y-118199500D01*
X140888596Y-118220762D01*
X140847432Y-118235744D01*
X140766252Y-118303862D01*
X140713265Y-118395638D01*
X140694864Y-118499999D01*
X140713265Y-118604361D01*
X140713265Y-118604362D01*
X140713266Y-118604363D01*
X140766252Y-118696138D01*
X140847432Y-118764256D01*
X140947014Y-118800500D01*
X141052985Y-118800500D01*
X141052986Y-118800500D01*
X141152568Y-118764256D01*
X141233748Y-118696138D01*
X141233750Y-118696134D01*
X141243896Y-118687621D01*
X141267756Y-118663763D01*
X141317255Y-118650500D01*
X141846213Y-118650500D01*
X141901214Y-118667185D01*
X141937675Y-118711612D01*
X141938297Y-118713112D01*
X141975464Y-118802842D01*
X142071717Y-118928282D01*
X142148388Y-118987113D01*
X142197159Y-119024536D01*
X142343238Y-119085044D01*
X142500000Y-119105682D01*
X142656762Y-119085044D01*
X142802841Y-119024536D01*
X142928282Y-118928282D01*
X143024536Y-118802841D01*
X143045068Y-118753271D01*
X143083566Y-118707518D01*
X143141389Y-118692277D01*
X143197439Y-118713112D01*
X143231268Y-118762420D01*
X143247191Y-118814914D01*
X143265702Y-118859607D01*
X143312422Y-118947017D01*
X143339214Y-118987113D01*
X143402080Y-119063714D01*
X143436283Y-119097918D01*
X143512893Y-119160790D01*
X143552985Y-119187578D01*
X143640369Y-119234285D01*
X143640373Y-119234287D01*
X143685069Y-119252801D01*
X143779897Y-119281567D01*
X143839399Y-119293403D01*
X143888464Y-119300682D01*
X143912655Y-119303065D01*
X143962211Y-119305500D01*
X144545587Y-119305500D01*
X144583473Y-119313036D01*
X144615590Y-119334496D01*
X144934535Y-119653440D01*
X144938102Y-119657199D01*
X144964493Y-119686509D01*
X144984955Y-119695619D01*
X144998591Y-119703022D01*
X145017382Y-119715226D01*
X145022528Y-119716041D01*
X145047307Y-119723380D01*
X145052068Y-119725500D01*
X145074460Y-119725500D01*
X145089947Y-119726719D01*
X145112064Y-119730222D01*
X145112064Y-119730221D01*
X145112065Y-119730222D01*
X145117099Y-119728873D01*
X145142722Y-119725500D01*
X147765587Y-119725500D01*
X147803473Y-119733036D01*
X147835590Y-119754496D01*
X148045503Y-119964408D01*
X148066964Y-119996526D01*
X148074500Y-120034412D01*
X148074500Y-123013049D01*
X148061237Y-123062549D01*
X148013265Y-123145638D01*
X147994864Y-123250000D01*
X148013265Y-123354361D01*
X148013265Y-123354362D01*
X148013266Y-123354363D01*
X148066252Y-123446138D01*
X148147432Y-123514256D01*
X148234861Y-123546076D01*
X148282096Y-123582322D01*
X148300000Y-123639106D01*
X148300000Y-124240248D01*
X148298098Y-124259562D01*
X148286113Y-124319814D01*
X148267557Y-124360767D01*
X148232802Y-124389290D01*
X148189015Y-124399500D01*
X147409673Y-124399500D01*
X147403193Y-124403241D01*
X147379324Y-124413128D01*
X147372097Y-124415064D01*
X147372094Y-124415066D01*
X147315065Y-124472095D01*
X147315061Y-124472097D01*
X146998190Y-124788970D01*
X146922095Y-124865065D01*
X146922096Y-124865065D01*
X146865065Y-124922095D01*
X146865063Y-124922098D01*
X146863127Y-124929324D01*
X146853241Y-124953192D01*
X146849499Y-124959672D01*
X146849499Y-125051847D01*
X146849500Y-125051856D01*
X146849500Y-125201000D01*
X146836237Y-125250500D01*
X146800000Y-125286737D01*
X146750500Y-125300000D01*
X146449500Y-125300000D01*
X146400000Y-125286737D01*
X146363763Y-125250500D01*
X146350500Y-125201000D01*
X146350500Y-122409675D01*
X146350500Y-122409673D01*
X146346762Y-122403199D01*
X146336869Y-122379314D01*
X146334935Y-122372096D01*
X146311040Y-122348201D01*
X146277905Y-122315065D01*
X146277904Y-122315064D01*
X146266545Y-122303705D01*
X146266545Y-122303706D01*
X145327742Y-121364903D01*
X145303328Y-121324669D01*
X145300250Y-121277708D01*
X145305136Y-121250000D01*
X145286734Y-121145637D01*
X145233748Y-121053862D01*
X145152568Y-120985744D01*
X145052986Y-120949500D01*
X144947014Y-120949500D01*
X144847432Y-120985743D01*
X144847432Y-120985744D01*
X144766252Y-121053862D01*
X144713265Y-121145638D01*
X144694864Y-121249999D01*
X144713265Y-121354361D01*
X144713265Y-121354362D01*
X144713266Y-121354363D01*
X144766252Y-121446138D01*
X144847432Y-121514256D01*
X144947014Y-121550500D01*
X144947015Y-121550500D01*
X145046653Y-121550500D01*
X145084539Y-121558036D01*
X145116657Y-121579496D01*
X146020504Y-122483343D01*
X146041964Y-122515461D01*
X146049500Y-122553347D01*
X146049500Y-125201000D01*
X146036237Y-125250500D01*
X146000000Y-125286737D01*
X145950500Y-125300000D01*
X145649500Y-125300000D01*
X145600000Y-125286737D01*
X145563763Y-125250500D01*
X145550500Y-125201000D01*
X145550500Y-122609675D01*
X145550500Y-122609673D01*
X145546762Y-122603199D01*
X145536869Y-122579314D01*
X145534935Y-122572096D01*
X145466545Y-122503705D01*
X145466545Y-122503706D01*
X144327742Y-121364903D01*
X144303328Y-121324669D01*
X144300250Y-121277708D01*
X144305136Y-121250000D01*
X144286734Y-121145637D01*
X144233748Y-121053862D01*
X144152568Y-120985744D01*
X144052986Y-120949500D01*
X143947014Y-120949500D01*
X143847432Y-120985743D01*
X143847432Y-120985744D01*
X143766252Y-121053862D01*
X143713265Y-121145638D01*
X143694864Y-121249999D01*
X143713265Y-121354361D01*
X143713265Y-121354362D01*
X143713266Y-121354363D01*
X143766252Y-121446138D01*
X143847432Y-121514256D01*
X143947014Y-121550500D01*
X143947015Y-121550500D01*
X144046653Y-121550500D01*
X144084539Y-121558036D01*
X144116657Y-121579496D01*
X145220504Y-122683343D01*
X145241964Y-122715461D01*
X145249500Y-122753347D01*
X145249500Y-125201000D01*
X145236237Y-125250500D01*
X145200000Y-125286737D01*
X145150500Y-125300000D01*
X143387854Y-125300000D01*
X143333453Y-125283713D01*
X143296951Y-125240212D01*
X143290358Y-125183809D01*
X143305136Y-125100000D01*
X143286734Y-124995637D01*
X143233748Y-124903862D01*
X143152568Y-124835744D01*
X143052986Y-124799500D01*
X142996935Y-124799500D01*
X142952504Y-124788970D01*
X142917525Y-124759619D01*
X142899439Y-124717691D01*
X142886734Y-124645638D01*
X142886734Y-124645637D01*
X142833748Y-124553862D01*
X142752568Y-124485744D01*
X142652986Y-124449500D01*
X142547014Y-124449500D01*
X142484931Y-124472096D01*
X142483359Y-124472668D01*
X142436577Y-124477791D01*
X142392716Y-124460734D01*
X142361686Y-124425351D01*
X142350500Y-124379638D01*
X142350500Y-124062156D01*
X142359776Y-124020317D01*
X142385864Y-123986318D01*
X142408673Y-123967177D01*
X142433748Y-123946138D01*
X142486734Y-123854363D01*
X142505136Y-123750000D01*
X142486734Y-123645637D01*
X142433748Y-123553862D01*
X142352568Y-123485744D01*
X142252986Y-123449500D01*
X142147014Y-123449500D01*
X142047431Y-123485744D01*
X142047432Y-123485744D01*
X141966252Y-123553862D01*
X141913265Y-123645638D01*
X141894864Y-123749999D01*
X141913265Y-123854361D01*
X141966253Y-123946139D01*
X142014136Y-123986318D01*
X142040224Y-124020317D01*
X142049500Y-124062156D01*
X142049500Y-125269340D01*
X142037810Y-125316008D01*
X142005501Y-125351655D01*
X141973222Y-125373223D01*
X141973223Y-125373223D01*
X141919030Y-125454328D01*
X141919029Y-125454329D01*
X141919030Y-125454329D01*
X141900000Y-125550000D01*
X141900000Y-129050000D01*
X141919030Y-129145671D01*
X141973223Y-129226777D01*
X142054329Y-129280970D01*
X142059475Y-129284408D01*
X142090094Y-129290499D01*
X142090096Y-129290499D01*
X142090101Y-129290500D01*
X142092488Y-129290499D01*
X142111792Y-129292400D01*
X142150000Y-129300000D01*
X142150002Y-129300000D01*
X148499999Y-129300000D01*
X148700001Y-129300000D01*
X153299999Y-129300000D01*
X153500001Y-129300000D01*
X154350500Y-129300000D01*
X154400000Y-129313263D01*
X154436237Y-129349500D01*
X154449500Y-129399000D01*
X154449500Y-130290329D01*
X154453237Y-130296800D01*
X154463129Y-130320680D01*
X154465064Y-130327903D01*
X154465064Y-130327904D01*
X154536013Y-130398854D01*
X154536020Y-130398859D01*
X155645504Y-131508343D01*
X155666964Y-131540461D01*
X155674500Y-131578347D01*
X155674500Y-132219862D01*
X155677415Y-132244990D01*
X155722793Y-132347764D01*
X155722794Y-132347765D01*
X155802235Y-132427206D01*
X155905009Y-132472585D01*
X155930135Y-132475500D01*
X156419864Y-132475499D01*
X156444991Y-132472585D01*
X156547765Y-132427206D01*
X156627206Y-132347765D01*
X156672585Y-132244991D01*
X156675500Y-132219865D01*
X156675500Y-132219862D01*
X157324500Y-132219862D01*
X157327415Y-132244990D01*
X157372793Y-132347764D01*
X157372794Y-132347765D01*
X157452235Y-132427206D01*
X157555009Y-132472585D01*
X157580135Y-132475500D01*
X158069864Y-132475499D01*
X158094991Y-132472585D01*
X158197765Y-132427206D01*
X158277206Y-132347765D01*
X158322585Y-132244991D01*
X158323702Y-132235355D01*
X158347418Y-132181710D01*
X158397327Y-132150899D01*
X158429558Y-132152460D01*
X158429558Y-132150500D01*
X158552985Y-132150500D01*
X158552986Y-132150500D01*
X158652568Y-132114256D01*
X158733748Y-132046138D01*
X158786734Y-131954363D01*
X158805136Y-131850000D01*
X158805136Y-131849999D01*
X161194864Y-131849999D01*
X161213265Y-131954361D01*
X161213265Y-131954362D01*
X161213266Y-131954363D01*
X161266252Y-132046138D01*
X161347432Y-132114256D01*
X161447014Y-132150500D01*
X161552985Y-132150500D01*
X161552986Y-132150500D01*
X161652568Y-132114256D01*
X161733748Y-132046138D01*
X161786734Y-131954363D01*
X161805136Y-131850000D01*
X161786734Y-131745637D01*
X161733748Y-131653862D01*
X161652568Y-131585744D01*
X161552986Y-131549500D01*
X161447014Y-131549500D01*
X161347431Y-131585744D01*
X161347432Y-131585744D01*
X161266252Y-131653862D01*
X161213265Y-131745638D01*
X161194864Y-131849999D01*
X158805136Y-131849999D01*
X158786734Y-131745637D01*
X158733748Y-131653862D01*
X158652568Y-131585744D01*
X158552986Y-131549500D01*
X158447014Y-131549500D01*
X158447013Y-131549500D01*
X158424735Y-131557608D01*
X158375857Y-131562432D01*
X158330676Y-131543171D01*
X158300312Y-131504565D01*
X158277207Y-131452236D01*
X158197764Y-131372793D01*
X158094989Y-131327414D01*
X158069866Y-131324500D01*
X157580137Y-131324500D01*
X157555009Y-131327415D01*
X157452235Y-131372793D01*
X157372793Y-131452235D01*
X157327414Y-131555010D01*
X157324500Y-131580133D01*
X157324500Y-132219862D01*
X156675500Y-132219862D01*
X156675499Y-131580136D01*
X156672585Y-131555009D01*
X156627206Y-131452235D01*
X156547765Y-131372794D01*
X156547764Y-131372793D01*
X156444989Y-131327414D01*
X156419867Y-131324500D01*
X155928347Y-131324500D01*
X155890461Y-131316964D01*
X155858343Y-131295504D01*
X154779496Y-130216657D01*
X154758036Y-130184539D01*
X154750500Y-130146653D01*
X154750500Y-129902348D01*
X154767185Y-129847347D01*
X154811614Y-129810884D01*
X154868814Y-129805250D01*
X154919504Y-129832344D01*
X154936016Y-129848856D01*
X154936020Y-129848859D01*
X155465065Y-130377903D01*
X155465065Y-130377904D01*
X155522096Y-130434935D01*
X155525743Y-130435912D01*
X155529314Y-130436869D01*
X155553198Y-130446762D01*
X155557858Y-130449452D01*
X155559673Y-130450500D01*
X155575501Y-130450500D01*
X155625001Y-130463763D01*
X155661238Y-130500000D01*
X155674501Y-130549500D01*
X155674501Y-130619864D01*
X155677415Y-130644991D01*
X155678510Y-130647470D01*
X155722793Y-130747764D01*
X155722794Y-130747765D01*
X155802235Y-130827206D01*
X155905009Y-130872585D01*
X155930135Y-130875500D01*
X156419864Y-130875499D01*
X156444991Y-130872585D01*
X156547765Y-130827206D01*
X156627206Y-130747765D01*
X156672585Y-130644991D01*
X156675500Y-130619865D01*
X156675499Y-129980136D01*
X156672585Y-129955009D01*
X156627206Y-129852235D01*
X156621578Y-129839488D01*
X156613466Y-129791504D01*
X156629198Y-129745453D01*
X156664971Y-129712461D01*
X156712143Y-129700500D01*
X157287857Y-129700500D01*
X157335029Y-129712461D01*
X157370802Y-129745453D01*
X157386534Y-129791504D01*
X157378422Y-129839488D01*
X157327414Y-129955010D01*
X157324500Y-129980133D01*
X157324500Y-130619862D01*
X157327032Y-130641693D01*
X157327415Y-130644991D01*
X157328510Y-130647470D01*
X157372793Y-130747764D01*
X157372794Y-130747765D01*
X157452235Y-130827206D01*
X157555009Y-130872585D01*
X157580135Y-130875500D01*
X158069864Y-130875499D01*
X158086787Y-130873536D01*
X158135688Y-130880251D01*
X158175270Y-130909745D01*
X158195690Y-130954685D01*
X158213265Y-131054361D01*
X158213265Y-131054362D01*
X158213266Y-131054363D01*
X158266252Y-131146138D01*
X158347432Y-131214256D01*
X158447014Y-131250500D01*
X158552985Y-131250500D01*
X158552986Y-131250500D01*
X158652568Y-131214256D01*
X158733748Y-131146138D01*
X158786734Y-131054363D01*
X158805136Y-130950000D01*
X158786734Y-130845637D01*
X158733748Y-130753862D01*
X158652568Y-130685744D01*
X158552986Y-130649500D01*
X158447014Y-130649500D01*
X158429559Y-130649500D01*
X158429559Y-130646015D01*
X158407215Y-130647470D01*
X158358666Y-130620827D01*
X158354495Y-130616656D01*
X158333035Y-130584538D01*
X158325499Y-130546652D01*
X158325499Y-129980138D01*
X158325499Y-129980135D01*
X158322585Y-129955009D01*
X158277206Y-129852235D01*
X158271578Y-129839488D01*
X158263466Y-129791504D01*
X158279198Y-129745453D01*
X158314971Y-129712461D01*
X158362143Y-129700500D01*
X158921653Y-129700500D01*
X158959539Y-129708036D01*
X158991657Y-129729496D01*
X159245504Y-129983343D01*
X159266964Y-130015461D01*
X159274500Y-130053347D01*
X159274500Y-130619862D01*
X159277032Y-130641693D01*
X159277415Y-130644991D01*
X159278510Y-130647470D01*
X159322793Y-130747764D01*
X159322794Y-130747765D01*
X159402235Y-130827206D01*
X159505009Y-130872585D01*
X159530135Y-130875500D01*
X160019864Y-130875499D01*
X160044991Y-130872585D01*
X160147765Y-130827206D01*
X160227206Y-130747765D01*
X160272585Y-130644991D01*
X160275500Y-130619865D01*
X160275500Y-130619862D01*
X160924500Y-130619862D01*
X160927032Y-130641693D01*
X160927415Y-130644991D01*
X160928510Y-130647470D01*
X160972793Y-130747764D01*
X160972794Y-130747765D01*
X161052235Y-130827206D01*
X161135094Y-130863791D01*
X161173024Y-130893284D01*
X161192601Y-130937164D01*
X161213265Y-131054361D01*
X161213265Y-131054362D01*
X161213266Y-131054363D01*
X161266252Y-131146138D01*
X161347432Y-131214256D01*
X161447014Y-131250500D01*
X161552985Y-131250500D01*
X161552986Y-131250500D01*
X161652568Y-131214256D01*
X161733748Y-131146138D01*
X161786734Y-131054363D01*
X161805136Y-130950000D01*
X161796248Y-130899595D01*
X161794574Y-130890099D01*
X161797652Y-130843138D01*
X161822067Y-130802904D01*
X161877205Y-130747766D01*
X161877205Y-130747765D01*
X161877206Y-130747765D01*
X161922585Y-130644991D01*
X161925500Y-130619865D01*
X161925499Y-129980136D01*
X161922585Y-129955009D01*
X161877206Y-129852235D01*
X161797765Y-129772794D01*
X161797764Y-129772793D01*
X161694989Y-129727414D01*
X161669866Y-129724500D01*
X161180137Y-129724500D01*
X161155009Y-129727415D01*
X161052235Y-129772793D01*
X160972793Y-129852235D01*
X160927414Y-129955010D01*
X160924500Y-129980133D01*
X160924500Y-130619862D01*
X160275500Y-130619862D01*
X160275499Y-129980136D01*
X160272585Y-129955009D01*
X160227206Y-129852235D01*
X160147765Y-129772794D01*
X160147764Y-129772793D01*
X160044989Y-129727414D01*
X160019866Y-129724500D01*
X159530137Y-129724500D01*
X159505006Y-129727415D01*
X159504777Y-129727517D01*
X159446601Y-129734263D01*
X159394792Y-129706953D01*
X159131332Y-129443493D01*
X159131327Y-129443486D01*
X159117409Y-129429569D01*
X159102904Y-129415065D01*
X159102902Y-129415064D01*
X159097423Y-129413596D01*
X159095676Y-129413128D01*
X159071800Y-129403237D01*
X159065327Y-129399499D01*
X158973152Y-129399499D01*
X158973144Y-129399500D01*
X158094638Y-129399500D01*
X158046265Y-129386877D01*
X158010227Y-129352227D01*
X157995714Y-129304387D01*
X158006428Y-129255555D01*
X158016849Y-129243827D01*
X158015836Y-129243151D01*
X158026777Y-129226777D01*
X158080970Y-129145671D01*
X158100000Y-129050000D01*
X158100000Y-127249500D01*
X158113263Y-127200000D01*
X158149500Y-127163763D01*
X158199000Y-127150500D01*
X158940326Y-127150500D01*
X158940327Y-127150500D01*
X158946800Y-127146761D01*
X158970683Y-127136869D01*
X158977904Y-127134935D01*
X159034935Y-127077905D01*
X159048854Y-127063986D01*
X159048857Y-127063980D01*
X159620430Y-126492409D01*
X159620430Y-126492408D01*
X159634354Y-126478484D01*
X159634356Y-126478486D01*
X159634359Y-126478479D01*
X159634935Y-126477904D01*
X159636868Y-126470686D01*
X159646761Y-126446800D01*
X159650500Y-126440327D01*
X159650501Y-126359674D01*
X159650500Y-126359672D01*
X159650500Y-120099000D01*
X159663763Y-120049500D01*
X159700000Y-120013263D01*
X159749500Y-120000000D01*
X162440248Y-120000000D01*
X162459562Y-120001902D01*
X162519814Y-120013887D01*
X162560767Y-120032443D01*
X162589290Y-120067198D01*
X162599500Y-120110985D01*
X162599500Y-131016760D01*
X162599288Y-131023235D01*
X162583674Y-131261457D01*
X162581984Y-131274296D01*
X162536041Y-131505264D01*
X162532689Y-131517773D01*
X162456993Y-131740764D01*
X162452037Y-131752727D01*
X162347885Y-131963927D01*
X162341411Y-131975142D01*
X162210578Y-132170948D01*
X162202694Y-132181222D01*
X162047427Y-132358270D01*
X162038270Y-132367427D01*
X161861222Y-132522694D01*
X161850948Y-132530578D01*
X161655142Y-132661411D01*
X161643927Y-132667885D01*
X161432727Y-132772037D01*
X161420764Y-132776993D01*
X161197773Y-132852689D01*
X161185264Y-132856041D01*
X160954296Y-132901984D01*
X160941457Y-132903674D01*
X160703235Y-132919288D01*
X160696760Y-132919500D01*
X139303240Y-132919500D01*
X139296765Y-132919288D01*
X139058542Y-132903674D01*
X139045703Y-132901984D01*
X138814735Y-132856041D01*
X138802226Y-132852689D01*
X138579235Y-132776993D01*
X138567272Y-132772037D01*
X138356072Y-132667885D01*
X138344857Y-132661411D01*
X138149051Y-132530578D01*
X138138777Y-132522694D01*
X137961729Y-132367427D01*
X137952572Y-132358270D01*
X137943359Y-132347765D01*
X137797305Y-132181222D01*
X137789421Y-132170948D01*
X137658588Y-131975142D01*
X137652114Y-131963927D01*
X137547962Y-131752727D01*
X137543006Y-131740764D01*
X137480832Y-131557608D01*
X137467308Y-131517768D01*
X137463958Y-131505264D01*
X137449119Y-131430666D01*
X137418014Y-131274291D01*
X137416325Y-131261457D01*
X137413231Y-131214256D01*
X137400711Y-131023234D01*
X137400500Y-131016760D01*
X137400500Y-121750000D01*
X140194864Y-121750000D01*
X140213265Y-121854361D01*
X140213265Y-121854362D01*
X140213266Y-121854363D01*
X140266252Y-121946138D01*
X140347432Y-122014256D01*
X140447014Y-122050500D01*
X140552985Y-122050500D01*
X140552986Y-122050500D01*
X140652568Y-122014256D01*
X140733748Y-121946138D01*
X140786734Y-121854363D01*
X140805136Y-121750000D01*
X140786734Y-121645637D01*
X140733748Y-121553862D01*
X140652568Y-121485744D01*
X140552986Y-121449500D01*
X140447014Y-121449500D01*
X140347432Y-121485743D01*
X140347432Y-121485744D01*
X140266252Y-121553862D01*
X140213265Y-121645638D01*
X140194864Y-121750000D01*
X137400500Y-121750000D01*
X137400500Y-120749999D01*
X140194864Y-120749999D01*
X140213265Y-120854361D01*
X140213265Y-120854362D01*
X140213266Y-120854363D01*
X140266252Y-120946138D01*
X140347432Y-121014256D01*
X140447014Y-121050500D01*
X140552985Y-121050500D01*
X140552986Y-121050500D01*
X140652568Y-121014256D01*
X140733748Y-120946138D01*
X140786734Y-120854363D01*
X140805136Y-120750000D01*
X140786734Y-120645637D01*
X140733748Y-120553862D01*
X140733745Y-120553860D01*
X140731229Y-120549501D01*
X140717965Y-120500000D01*
X140731229Y-120450499D01*
X140733745Y-120446139D01*
X140733748Y-120446138D01*
X140786734Y-120354363D01*
X140805136Y-120250000D01*
X140786734Y-120145637D01*
X140733748Y-120053862D01*
X140652568Y-119985744D01*
X140552986Y-119949500D01*
X140447014Y-119949500D01*
X140347431Y-119985744D01*
X140347432Y-119985744D01*
X140266252Y-120053862D01*
X140213265Y-120145638D01*
X140194864Y-120250000D01*
X140213265Y-120354363D01*
X140268770Y-120450499D01*
X140282034Y-120499999D01*
X140268771Y-120549499D01*
X140213265Y-120645638D01*
X140194864Y-120749999D01*
X137400500Y-120749999D01*
X137400500Y-119250000D01*
X141194864Y-119250000D01*
X141213265Y-119354361D01*
X141213265Y-119354362D01*
X141213266Y-119354363D01*
X141266252Y-119446138D01*
X141347432Y-119514256D01*
X141447014Y-119550500D01*
X141552985Y-119550500D01*
X141552986Y-119550500D01*
X141652568Y-119514256D01*
X141733748Y-119446138D01*
X141786734Y-119354363D01*
X141805136Y-119250000D01*
X141786734Y-119145637D01*
X141733748Y-119053862D01*
X141652568Y-118985744D01*
X141552986Y-118949500D01*
X141447014Y-118949500D01*
X141347431Y-118985744D01*
X141347432Y-118985744D01*
X141266252Y-119053862D01*
X141213265Y-119145638D01*
X141194864Y-119250000D01*
X137400500Y-119250000D01*
X137400500Y-117810985D01*
X137410710Y-117767198D01*
X137439233Y-117732443D01*
X137480186Y-117713887D01*
X137540438Y-117701902D01*
X137559752Y-117700000D01*
X142465545Y-117700000D01*
X142500000Y-117710698D01*
G37*
%TD.AperFunction*%
%TD*%
%TA.AperFunction,Conductor*%
%TO.N,GND*%
G36*
X162459562Y-93601902D02*
G01*
X162519814Y-93613887D01*
X162560767Y-93632443D01*
X162589290Y-93667198D01*
X162599500Y-93710985D01*
X162599500Y-98047837D01*
X162588314Y-98093550D01*
X162557284Y-98128933D01*
X162513422Y-98145990D01*
X162466640Y-98140867D01*
X162452570Y-98135746D01*
X162452568Y-98135744D01*
X162352986Y-98099500D01*
X162247014Y-98099500D01*
X162247012Y-98099500D01*
X162243753Y-98100686D01*
X162194875Y-98105509D01*
X162149695Y-98086247D01*
X162119332Y-98047642D01*
X162077207Y-97952236D01*
X161997764Y-97872793D01*
X161894989Y-97827414D01*
X161869866Y-97824500D01*
X161380137Y-97824500D01*
X161355009Y-97827415D01*
X161252235Y-97872793D01*
X161172793Y-97952235D01*
X161127414Y-98055010D01*
X161124500Y-98080133D01*
X161124500Y-98719862D01*
X161127032Y-98741693D01*
X161127415Y-98744991D01*
X161147451Y-98790369D01*
X161172793Y-98847764D01*
X161172794Y-98847765D01*
X161252235Y-98927206D01*
X161355009Y-98972585D01*
X161380135Y-98975500D01*
X161869864Y-98975499D01*
X161894991Y-98972585D01*
X161997765Y-98927206D01*
X162077206Y-98847765D01*
X162119333Y-98752355D01*
X162149696Y-98713751D01*
X162194878Y-98694490D01*
X162243754Y-98699313D01*
X162247014Y-98700500D01*
X162352985Y-98700500D01*
X162352986Y-98700500D01*
X162452568Y-98664256D01*
X162452570Y-98664253D01*
X162466640Y-98659133D01*
X162513422Y-98654010D01*
X162557284Y-98671067D01*
X162588314Y-98706450D01*
X162599500Y-98752163D01*
X162599500Y-109189015D01*
X162589290Y-109232802D01*
X162560767Y-109267557D01*
X162519814Y-109286113D01*
X162459562Y-109298098D01*
X162440248Y-109300000D01*
X162265178Y-109300000D01*
X162231318Y-109294030D01*
X162201545Y-109276841D01*
X162152568Y-109235744D01*
X162052986Y-109199500D01*
X161947014Y-109199500D01*
X161847432Y-109235744D01*
X161798454Y-109276841D01*
X161768682Y-109294030D01*
X161734822Y-109300000D01*
X161123999Y-109300000D01*
X161074499Y-109286737D01*
X161038262Y-109250500D01*
X161024999Y-109201000D01*
X161024999Y-109011912D01*
X161018769Y-108964585D01*
X160970333Y-108860714D01*
X160889287Y-108779668D01*
X160785412Y-108731230D01*
X160738085Y-108725000D01*
X160575001Y-108725000D01*
X160575000Y-108725001D01*
X160575000Y-109300000D01*
X160375000Y-109300000D01*
X160375000Y-108725002D01*
X160374999Y-108725001D01*
X160211912Y-108725001D01*
X160164585Y-108731230D01*
X160060714Y-108779666D01*
X159979668Y-108860712D01*
X159931230Y-108964587D01*
X159925000Y-109011914D01*
X159925001Y-109200999D01*
X159911738Y-109250500D01*
X159875501Y-109286736D01*
X159826001Y-109300000D01*
X159574499Y-109300000D01*
X159524999Y-109286737D01*
X159488762Y-109250500D01*
X159475499Y-109201000D01*
X159475499Y-109011858D01*
X159469259Y-108964454D01*
X159420748Y-108860423D01*
X159420747Y-108860422D01*
X159420747Y-108860421D01*
X159339579Y-108779253D01*
X159339577Y-108779252D01*
X159339576Y-108779251D01*
X159235546Y-108730741D01*
X159188139Y-108724500D01*
X158661858Y-108724500D01*
X158614454Y-108730740D01*
X158510420Y-108779252D01*
X158508160Y-108781513D01*
X158459585Y-108808161D01*
X158404301Y-108804537D01*
X158362986Y-108789500D01*
X158257014Y-108789500D01*
X158157432Y-108825744D01*
X158076252Y-108893862D01*
X158076251Y-108893862D01*
X158062880Y-108905083D01*
X158061659Y-108903628D01*
X158037381Y-108925997D01*
X157978926Y-108934179D01*
X157926205Y-108907640D01*
X157897956Y-108855815D01*
X157896074Y-108846356D01*
X157843030Y-108766969D01*
X157763643Y-108713925D01*
X157693637Y-108700000D01*
X157600001Y-108700000D01*
X157600000Y-108700001D01*
X157600000Y-109081000D01*
X157586737Y-109130500D01*
X157550500Y-109166737D01*
X157501000Y-109180000D01*
X157090001Y-109180000D01*
X157090000Y-109180001D01*
X157090000Y-109201000D01*
X157076737Y-109250500D01*
X157040500Y-109286737D01*
X156991000Y-109300000D01*
X155553847Y-109300000D01*
X155515961Y-109292464D01*
X155483843Y-109271004D01*
X155429496Y-109216657D01*
X155408036Y-109184539D01*
X155400500Y-109146653D01*
X155400500Y-108979999D01*
X157090000Y-108979999D01*
X157090001Y-108980000D01*
X157399999Y-108980000D01*
X157400000Y-108979999D01*
X157400000Y-108700001D01*
X157399999Y-108700000D01*
X157306363Y-108700000D01*
X157236356Y-108713925D01*
X157156969Y-108766969D01*
X157103925Y-108846356D01*
X157090000Y-108916363D01*
X157090000Y-108979999D01*
X155400500Y-108979999D01*
X155400500Y-108562156D01*
X155409776Y-108520317D01*
X155435864Y-108486318D01*
X155461038Y-108465194D01*
X155483748Y-108446138D01*
X155536734Y-108354363D01*
X155555136Y-108250000D01*
X155536734Y-108145637D01*
X155483748Y-108053862D01*
X155402568Y-107985744D01*
X155302986Y-107949500D01*
X155197014Y-107949500D01*
X155141338Y-107969764D01*
X155097432Y-107985744D01*
X155063883Y-108013895D01*
X155023078Y-108034387D01*
X154977417Y-108034386D01*
X154936613Y-108013894D01*
X154903066Y-107985745D01*
X154903065Y-107985744D01*
X154803483Y-107949500D01*
X154697511Y-107949500D01*
X154641835Y-107969764D01*
X154597929Y-107985744D01*
X154563883Y-108014312D01*
X154523078Y-108034804D01*
X154477417Y-108034803D01*
X154436613Y-108014311D01*
X154402569Y-107985745D01*
X154402568Y-107985744D01*
X154302986Y-107949500D01*
X154197014Y-107949500D01*
X154141338Y-107969764D01*
X154097432Y-107985744D01*
X154016252Y-108053862D01*
X153963265Y-108145638D01*
X153944864Y-108250000D01*
X153963265Y-108354361D01*
X153963265Y-108354362D01*
X153963266Y-108354363D01*
X153999751Y-108417558D01*
X154016253Y-108446139D01*
X154064136Y-108486318D01*
X154090224Y-108520317D01*
X154099500Y-108562156D01*
X154099500Y-108938684D01*
X154083996Y-108991877D01*
X154042339Y-109028408D01*
X153987578Y-109036837D01*
X153936864Y-109014522D01*
X153933689Y-109011858D01*
X153902568Y-108985744D01*
X153802986Y-108949500D01*
X153697014Y-108949500D01*
X153597432Y-108985744D01*
X153566311Y-109011858D01*
X153563883Y-109013895D01*
X153523078Y-109034387D01*
X153477417Y-109034386D01*
X153436613Y-109013894D01*
X153403066Y-108985745D01*
X153403065Y-108985744D01*
X153303483Y-108949500D01*
X153197511Y-108949500D01*
X153156059Y-108964587D01*
X153097929Y-108985744D01*
X153016749Y-109053862D01*
X152963762Y-109145638D01*
X152950970Y-109218191D01*
X152932884Y-109260118D01*
X152897905Y-109289470D01*
X152853474Y-109300000D01*
X151659752Y-109300000D01*
X151640438Y-109298098D01*
X151612114Y-109292464D01*
X151573641Y-109284811D01*
X151537954Y-109270028D01*
X151489596Y-109237716D01*
X151462283Y-109210403D01*
X151429971Y-109162045D01*
X151415188Y-109126356D01*
X151401902Y-109059561D01*
X151400000Y-109040248D01*
X151400000Y-107138141D01*
X152024500Y-107138141D01*
X152030740Y-107185545D01*
X152079251Y-107289576D01*
X152079252Y-107289577D01*
X152079253Y-107289579D01*
X152160421Y-107370747D01*
X152264455Y-107419259D01*
X152311861Y-107425500D01*
X152888138Y-107425499D01*
X152888141Y-107425499D01*
X152935545Y-107419259D01*
X152951412Y-107411860D01*
X153039579Y-107370747D01*
X153120747Y-107289579D01*
X153169259Y-107185545D01*
X153169259Y-107185544D01*
X153170855Y-107182122D01*
X153186180Y-107142715D01*
X153221563Y-107111686D01*
X153267276Y-107100500D01*
X153316499Y-107100500D01*
X153321679Y-107100635D01*
X153331758Y-107101164D01*
X153370582Y-107103199D01*
X153385145Y-107100500D01*
X153452985Y-107100500D01*
X153452986Y-107100500D01*
X153552568Y-107064256D01*
X153571156Y-107048658D01*
X153600930Y-107031470D01*
X153634789Y-107025500D01*
X153951729Y-107025500D01*
X153998397Y-107037190D01*
X154034044Y-107069498D01*
X154084158Y-107144498D01*
X154088702Y-107151298D01*
X154170735Y-107206111D01*
X154243072Y-107220500D01*
X154586927Y-107220500D01*
X154586928Y-107220500D01*
X154659265Y-107206111D01*
X154741298Y-107151298D01*
X154796111Y-107069265D01*
X154802902Y-107035123D01*
X154827302Y-106987237D01*
X154873127Y-106959155D01*
X154926873Y-106959155D01*
X154972698Y-106987237D01*
X154997098Y-107035124D01*
X155003889Y-107069265D01*
X155058701Y-107151298D01*
X155104833Y-107182122D01*
X155140735Y-107206111D01*
X155213072Y-107220500D01*
X155556927Y-107220500D01*
X155556928Y-107220500D01*
X155629265Y-107206111D01*
X155711298Y-107151298D01*
X155715840Y-107144498D01*
X155751489Y-107112190D01*
X155798157Y-107100500D01*
X156632724Y-107100500D01*
X156678439Y-107111687D01*
X156713822Y-107142719D01*
X156729140Y-107182113D01*
X156779251Y-107289576D01*
X156779252Y-107289577D01*
X156779253Y-107289579D01*
X156860421Y-107370747D01*
X156964455Y-107419259D01*
X157004672Y-107424553D01*
X157011860Y-107425500D01*
X157011861Y-107425500D01*
X157175500Y-107425500D01*
X157225000Y-107438763D01*
X157261237Y-107475000D01*
X157274500Y-107524500D01*
X157274500Y-107674920D01*
X157262810Y-107721588D01*
X157230502Y-107757235D01*
X157156608Y-107806608D01*
X157103454Y-107886160D01*
X157103453Y-107886161D01*
X157103454Y-107886161D01*
X157092276Y-107942359D01*
X157089500Y-107956313D01*
X157089500Y-108283687D01*
X157103454Y-108353839D01*
X157156608Y-108433391D01*
X157209762Y-108468907D01*
X157236161Y-108486546D01*
X157306312Y-108500500D01*
X157693687Y-108500500D01*
X157693688Y-108500500D01*
X157763839Y-108486546D01*
X157843391Y-108433391D01*
X157896546Y-108353839D01*
X157910500Y-108283688D01*
X157910500Y-108113616D01*
X157923763Y-108064116D01*
X157960000Y-108027879D01*
X158009500Y-108014616D01*
X158059000Y-108027880D01*
X158095237Y-108064116D01*
X158098265Y-108069362D01*
X158098266Y-108069363D01*
X158151252Y-108161138D01*
X158232432Y-108229256D01*
X158332014Y-108265500D01*
X158437986Y-108265500D01*
X158437987Y-108265500D01*
X158494035Y-108245100D01*
X158532214Y-108239223D01*
X158569731Y-108248404D01*
X158614455Y-108269259D01*
X158661861Y-108275500D01*
X159188138Y-108275499D01*
X159188141Y-108275499D01*
X159235545Y-108269259D01*
X159299957Y-108239223D01*
X159339579Y-108220747D01*
X159420747Y-108139579D01*
X159469259Y-108035545D01*
X159475500Y-107988139D01*
X159475500Y-107988088D01*
X159925001Y-107988088D01*
X159931230Y-108035414D01*
X159979666Y-108139285D01*
X160060712Y-108220331D01*
X160164587Y-108268769D01*
X160211915Y-108275000D01*
X160374999Y-108275000D01*
X160375000Y-108274999D01*
X160375000Y-108274998D01*
X160575000Y-108274998D01*
X160575001Y-108274999D01*
X160738088Y-108274999D01*
X160785414Y-108268769D01*
X160889285Y-108220333D01*
X160970331Y-108139287D01*
X161018769Y-108035412D01*
X161025000Y-107988085D01*
X161025000Y-107800001D01*
X161024999Y-107800000D01*
X160575001Y-107800000D01*
X160575000Y-107800001D01*
X160575000Y-108274998D01*
X160375000Y-108274998D01*
X160375000Y-107800001D01*
X160374999Y-107800000D01*
X159925002Y-107800000D01*
X159925001Y-107800001D01*
X159925001Y-107988088D01*
X159475500Y-107988088D01*
X159475499Y-107509412D01*
X159483035Y-107471527D01*
X159504496Y-107439409D01*
X159789410Y-107154496D01*
X159821527Y-107133036D01*
X159859413Y-107125500D01*
X159887320Y-107125500D01*
X159934938Y-107137704D01*
X159970816Y-107171307D01*
X159986108Y-107218025D01*
X159977044Y-107266339D01*
X159931231Y-107364584D01*
X159925000Y-107411915D01*
X159925000Y-107599999D01*
X159925001Y-107600000D01*
X161024998Y-107600000D01*
X161024999Y-107599999D01*
X161024999Y-107411912D01*
X161018769Y-107364587D01*
X160972956Y-107266340D01*
X160963892Y-107218025D01*
X160979184Y-107171307D01*
X161015062Y-107137704D01*
X161062680Y-107125500D01*
X161191499Y-107125500D01*
X161196679Y-107125635D01*
X161206034Y-107126126D01*
X161236061Y-107127700D01*
X161236061Y-107127699D01*
X161236064Y-107127700D01*
X161256983Y-107119669D01*
X161271855Y-107115264D01*
X161293768Y-107110607D01*
X161297978Y-107107547D01*
X161320690Y-107095214D01*
X161325560Y-107093346D01*
X161341399Y-107077505D01*
X161353206Y-107067422D01*
X161371323Y-107054260D01*
X161373924Y-107049753D01*
X161389656Y-107029248D01*
X161953466Y-106465437D01*
X161957187Y-106461907D01*
X161986509Y-106435507D01*
X161995617Y-106415047D01*
X162003024Y-106401405D01*
X162015226Y-106382618D01*
X162016041Y-106377470D01*
X162023380Y-106352692D01*
X162025500Y-106347932D01*
X162025500Y-106347929D01*
X162025694Y-106347493D01*
X162037190Y-106301602D01*
X162069497Y-106265955D01*
X162151298Y-106211298D01*
X162206111Y-106129265D01*
X162220500Y-106056928D01*
X162220500Y-105713072D01*
X162206111Y-105640735D01*
X162187922Y-105613513D01*
X162151298Y-105558701D01*
X162069265Y-105503889D01*
X162069264Y-105503888D01*
X162035123Y-105497097D01*
X161987237Y-105472698D01*
X161959155Y-105426873D01*
X161959155Y-105373127D01*
X161987237Y-105327302D01*
X162035123Y-105302902D01*
X162069265Y-105296111D01*
X162151298Y-105241298D01*
X162206111Y-105159265D01*
X162220500Y-105086928D01*
X162220500Y-104743072D01*
X162206111Y-104670735D01*
X162158848Y-104600001D01*
X162151298Y-104588701D01*
X162069265Y-104533889D01*
X162069264Y-104533888D01*
X161996928Y-104519500D01*
X161996927Y-104519500D01*
X161899500Y-104519500D01*
X161850000Y-104506237D01*
X161813763Y-104470000D01*
X161800500Y-104420500D01*
X161800500Y-103783501D01*
X161800636Y-103778319D01*
X161802700Y-103738936D01*
X161794674Y-103718027D01*
X161790262Y-103703132D01*
X161789824Y-103701074D01*
X161785607Y-103681232D01*
X161782545Y-103677017D01*
X161770213Y-103654306D01*
X161768346Y-103649440D01*
X161768344Y-103649438D01*
X161752507Y-103633600D01*
X161742420Y-103621790D01*
X161729259Y-103603676D01*
X161724750Y-103601073D01*
X161704249Y-103585342D01*
X161224260Y-103105354D01*
X161196767Y-103052540D01*
X161186734Y-102995638D01*
X161186734Y-102995637D01*
X161133748Y-102903862D01*
X161052568Y-102835744D01*
X160952986Y-102799500D01*
X160847014Y-102799500D01*
X160747431Y-102835744D01*
X160747432Y-102835744D01*
X160666252Y-102903862D01*
X160613265Y-102995638D01*
X160594864Y-103100000D01*
X160613265Y-103204361D01*
X160613265Y-103204362D01*
X160613266Y-103204363D01*
X160666252Y-103296138D01*
X160747432Y-103364256D01*
X160847014Y-103400500D01*
X160847017Y-103400500D01*
X160854762Y-103403319D01*
X160878473Y-103408036D01*
X160910590Y-103429496D01*
X161320503Y-103839408D01*
X161341964Y-103871526D01*
X161349500Y-103909412D01*
X161349500Y-104681498D01*
X161349364Y-104686680D01*
X161347299Y-104726062D01*
X161347299Y-104726064D01*
X161347300Y-104726064D01*
X161355328Y-104746979D01*
X161359737Y-104761866D01*
X161368366Y-104802462D01*
X161379500Y-104836728D01*
X161379500Y-105086928D01*
X161393889Y-105159265D01*
X161448701Y-105241298D01*
X161503514Y-105277922D01*
X161530735Y-105296111D01*
X161564876Y-105302902D01*
X161612763Y-105327302D01*
X161640844Y-105373128D01*
X161640844Y-105426872D01*
X161612763Y-105472698D01*
X161564876Y-105497097D01*
X161547868Y-105500480D01*
X161530734Y-105503889D01*
X161448701Y-105558701D01*
X161393889Y-105640734D01*
X161393888Y-105640735D01*
X161393889Y-105640735D01*
X161379500Y-105713072D01*
X161379500Y-106056928D01*
X161383417Y-106076619D01*
X161393889Y-106129265D01*
X161452066Y-106216333D01*
X161467904Y-106258413D01*
X161463497Y-106303157D01*
X161439755Y-106341338D01*
X161135592Y-106645503D01*
X161103474Y-106666964D01*
X161065588Y-106674500D01*
X161062680Y-106674500D01*
X161015062Y-106662296D01*
X160979184Y-106628693D01*
X160963892Y-106581975D01*
X160972956Y-106533661D01*
X161018768Y-106435415D01*
X161025000Y-106388085D01*
X161025000Y-106200001D01*
X161024999Y-106200000D01*
X159925002Y-106200000D01*
X159925001Y-106200001D01*
X159925001Y-106388088D01*
X159931230Y-106435412D01*
X159977044Y-106533660D01*
X159986108Y-106581975D01*
X159970816Y-106628693D01*
X159934938Y-106662296D01*
X159887320Y-106674500D01*
X159733502Y-106674500D01*
X159728320Y-106674364D01*
X159688935Y-106672299D01*
X159668024Y-106680326D01*
X159653134Y-106684737D01*
X159631229Y-106689393D01*
X159627011Y-106692458D01*
X159604315Y-106704781D01*
X159599442Y-106706651D01*
X159583605Y-106722489D01*
X159571796Y-106732575D01*
X159553676Y-106745739D01*
X159551071Y-106750253D01*
X159535341Y-106770752D01*
X159210589Y-107095504D01*
X159178471Y-107116964D01*
X159140585Y-107124500D01*
X158661858Y-107124500D01*
X158614454Y-107130740D01*
X158510423Y-107179251D01*
X158429251Y-107260423D01*
X158380741Y-107364453D01*
X158374500Y-107411860D01*
X158374500Y-107579716D01*
X158356596Y-107636500D01*
X158309360Y-107672745D01*
X158232432Y-107700744D01*
X158178703Y-107745828D01*
X158151252Y-107768862D01*
X158098265Y-107860638D01*
X158092730Y-107892032D01*
X158069094Y-107940763D01*
X158023352Y-107969764D01*
X157969194Y-107970355D01*
X157922830Y-107942359D01*
X157898136Y-107894155D01*
X157897714Y-107892032D01*
X157896546Y-107886161D01*
X157878907Y-107859763D01*
X157843391Y-107806608D01*
X157769498Y-107757235D01*
X157737190Y-107721588D01*
X157725500Y-107674920D01*
X157725500Y-107425833D01*
X157733036Y-107387947D01*
X157754493Y-107355832D01*
X157820747Y-107289579D01*
X157869259Y-107185545D01*
X157875500Y-107138139D01*
X157875499Y-106659412D01*
X157883035Y-106621527D01*
X157904492Y-106589412D01*
X158019243Y-106474661D01*
X158060849Y-106449827D01*
X158109260Y-106447711D01*
X158131329Y-106458394D01*
X158147429Y-106464254D01*
X158147432Y-106464256D01*
X158247014Y-106500500D01*
X158247015Y-106500500D01*
X158349167Y-106500500D01*
X158387053Y-106508036D01*
X158419171Y-106529496D01*
X158429252Y-106539577D01*
X158429253Y-106539579D01*
X158510421Y-106620747D01*
X158614455Y-106669259D01*
X158661861Y-106675500D01*
X159188138Y-106675499D01*
X159188141Y-106675499D01*
X159235545Y-106669259D01*
X159277918Y-106649500D01*
X159339579Y-106620747D01*
X159420747Y-106539579D01*
X159469259Y-106435545D01*
X159475500Y-106388139D01*
X159475499Y-105999999D01*
X159925000Y-105999999D01*
X159925001Y-106000000D01*
X160374999Y-106000000D01*
X160375000Y-105999999D01*
X160575000Y-105999999D01*
X160575001Y-106000000D01*
X161024998Y-106000000D01*
X161024999Y-105999999D01*
X161024999Y-105811912D01*
X161018769Y-105764585D01*
X160970333Y-105660714D01*
X160889287Y-105579668D01*
X160785412Y-105531230D01*
X160738085Y-105525000D01*
X160575001Y-105525000D01*
X160575000Y-105525001D01*
X160575000Y-105999999D01*
X160375000Y-105999999D01*
X160375000Y-105525002D01*
X160374999Y-105525001D01*
X160211912Y-105525001D01*
X160164585Y-105531230D01*
X160060714Y-105579666D01*
X159979668Y-105660712D01*
X159931230Y-105764587D01*
X159925000Y-105811915D01*
X159925000Y-105999999D01*
X159475499Y-105999999D01*
X159475499Y-105811862D01*
X159475499Y-105811861D01*
X159475499Y-105811858D01*
X159469259Y-105764454D01*
X159420748Y-105660423D01*
X159420747Y-105660422D01*
X159420747Y-105660421D01*
X159339579Y-105579253D01*
X159339577Y-105579252D01*
X159339576Y-105579251D01*
X159235546Y-105530741D01*
X159188139Y-105524500D01*
X158661863Y-105524500D01*
X158642032Y-105527111D01*
X158588253Y-105519131D01*
X158546797Y-105483956D01*
X158530167Y-105432194D01*
X158543377Y-105379459D01*
X158586734Y-105304363D01*
X158596767Y-105247456D01*
X158624257Y-105194646D01*
X158714409Y-105104494D01*
X158746527Y-105083035D01*
X158784412Y-105075499D01*
X159188142Y-105075499D01*
X159235545Y-105069259D01*
X159252692Y-105061263D01*
X159339579Y-105020747D01*
X159420747Y-104939579D01*
X159469259Y-104835545D01*
X159475500Y-104788139D01*
X159475500Y-104788088D01*
X159925001Y-104788088D01*
X159931230Y-104835414D01*
X159979666Y-104939285D01*
X160060712Y-105020331D01*
X160164587Y-105068769D01*
X160211915Y-105075000D01*
X160374999Y-105075000D01*
X160375000Y-105074999D01*
X160375000Y-105074998D01*
X160575000Y-105074998D01*
X160575001Y-105074999D01*
X160738088Y-105074999D01*
X160785414Y-105068769D01*
X160889285Y-105020333D01*
X160970331Y-104939287D01*
X161018769Y-104835412D01*
X161025000Y-104788085D01*
X161025000Y-104600001D01*
X161024999Y-104600000D01*
X160575001Y-104600000D01*
X160575000Y-104600001D01*
X160575000Y-105074998D01*
X160375000Y-105074998D01*
X160375000Y-104600001D01*
X160374999Y-104600000D01*
X159925002Y-104600000D01*
X159925001Y-104600001D01*
X159925001Y-104788088D01*
X159475500Y-104788088D01*
X159475499Y-104399999D01*
X159925000Y-104399999D01*
X159925001Y-104400000D01*
X160374999Y-104400000D01*
X160375000Y-104399999D01*
X160575000Y-104399999D01*
X160575001Y-104400000D01*
X161024998Y-104400000D01*
X161024999Y-104399999D01*
X161024999Y-104211912D01*
X161018769Y-104164585D01*
X160970333Y-104060714D01*
X160889287Y-103979668D01*
X160785412Y-103931230D01*
X160738085Y-103925000D01*
X160575001Y-103925000D01*
X160575000Y-103925001D01*
X160575000Y-104399999D01*
X160375000Y-104399999D01*
X160375000Y-103925002D01*
X160374999Y-103925001D01*
X160211912Y-103925001D01*
X160164585Y-103931230D01*
X160060714Y-103979666D01*
X159979668Y-104060712D01*
X159931230Y-104164587D01*
X159925000Y-104211915D01*
X159925000Y-104399999D01*
X159475499Y-104399999D01*
X159475499Y-104211862D01*
X159475499Y-104211860D01*
X159475499Y-104211858D01*
X159469259Y-104164454D01*
X159420748Y-104060423D01*
X159420747Y-104060422D01*
X159420747Y-104060421D01*
X159339579Y-103979253D01*
X159339577Y-103979252D01*
X159339576Y-103979251D01*
X159235546Y-103930741D01*
X159225321Y-103929395D01*
X159211577Y-103927585D01*
X159167716Y-103910529D01*
X159136686Y-103875146D01*
X159125500Y-103829433D01*
X159125500Y-103548271D01*
X159137190Y-103501603D01*
X159169498Y-103465956D01*
X159224063Y-103429496D01*
X159251298Y-103411298D01*
X159306111Y-103329265D01*
X159320500Y-103256928D01*
X159320500Y-102913072D01*
X159306111Y-102840735D01*
X159278559Y-102799500D01*
X159251298Y-102758701D01*
X159169265Y-102703889D01*
X159169264Y-102703888D01*
X159135123Y-102697097D01*
X159087237Y-102672698D01*
X159059155Y-102626873D01*
X159059155Y-102573127D01*
X159087237Y-102527302D01*
X159135123Y-102502902D01*
X159169265Y-102496111D01*
X159251298Y-102441298D01*
X159260284Y-102427848D01*
X159291856Y-102397843D01*
X159333252Y-102384292D01*
X159376456Y-102389819D01*
X159447014Y-102415500D01*
X159552985Y-102415500D01*
X159552986Y-102415500D01*
X159652568Y-102379256D01*
X159733748Y-102311138D01*
X159786734Y-102219363D01*
X159805136Y-102115000D01*
X159786734Y-102010637D01*
X159733748Y-101918862D01*
X159652568Y-101850744D01*
X159552986Y-101814500D01*
X159447014Y-101814500D01*
X159376458Y-101840179D01*
X159333252Y-101845707D01*
X159291856Y-101832156D01*
X159260284Y-101802151D01*
X159251298Y-101788702D01*
X159169265Y-101733889D01*
X159096928Y-101719500D01*
X158703072Y-101719500D01*
X158666903Y-101726694D01*
X158630734Y-101733889D01*
X158548701Y-101788702D01*
X158488880Y-101878230D01*
X158447094Y-101913552D01*
X158392929Y-101921284D01*
X158342929Y-101899066D01*
X158309165Y-101870735D01*
X158252568Y-101823244D01*
X158152986Y-101787000D01*
X158047014Y-101787000D01*
X157971457Y-101814500D01*
X157947432Y-101823244D01*
X157866252Y-101891362D01*
X157813265Y-101983138D01*
X157794864Y-102087500D01*
X157813265Y-102191861D01*
X157813265Y-102191862D01*
X157813266Y-102191863D01*
X157866252Y-102283638D01*
X157947432Y-102351756D01*
X158047014Y-102388000D01*
X158152985Y-102388000D01*
X158152986Y-102388000D01*
X158252568Y-102351756D01*
X158329986Y-102286794D01*
X158375896Y-102265233D01*
X158426461Y-102269240D01*
X158468405Y-102297765D01*
X158490716Y-102343319D01*
X158493887Y-102359263D01*
X158548701Y-102441298D01*
X158603513Y-102477922D01*
X158630735Y-102496111D01*
X158664876Y-102502902D01*
X158712763Y-102527302D01*
X158740844Y-102573128D01*
X158740844Y-102626872D01*
X158712763Y-102672698D01*
X158664876Y-102697097D01*
X158647868Y-102700480D01*
X158630734Y-102703889D01*
X158548701Y-102758701D01*
X158493889Y-102840734D01*
X158479500Y-102913073D01*
X158479500Y-103256927D01*
X158493889Y-103329265D01*
X158548702Y-103411298D01*
X158630502Y-103465956D01*
X158662810Y-103501603D01*
X158674500Y-103548271D01*
X158674500Y-103839671D01*
X158658996Y-103892863D01*
X158617340Y-103929395D01*
X158510423Y-103979251D01*
X158429251Y-104060423D01*
X158380741Y-104164453D01*
X158374500Y-104211860D01*
X158374500Y-104765586D01*
X158366965Y-104803470D01*
X158345505Y-104835588D01*
X158310590Y-104870504D01*
X158278475Y-104891964D01*
X158254760Y-104896680D01*
X158147432Y-104935744D01*
X158066251Y-105003863D01*
X158049326Y-105033178D01*
X158011207Y-105070473D01*
X157959271Y-105082583D01*
X157908588Y-105065992D01*
X157873865Y-105025516D01*
X157820331Y-104910712D01*
X157739287Y-104829668D01*
X157635412Y-104781230D01*
X157588085Y-104775000D01*
X157400001Y-104775000D01*
X157400000Y-104775001D01*
X157400000Y-105874998D01*
X157400001Y-105874999D01*
X157588088Y-105874999D01*
X157635414Y-105868769D01*
X157739285Y-105820333D01*
X157820331Y-105739287D01*
X157868769Y-105635412D01*
X157874999Y-105588085D01*
X157874999Y-105434353D01*
X157888262Y-105384853D01*
X157924498Y-105348616D01*
X157973998Y-105335352D01*
X158023498Y-105348615D01*
X158059734Y-105384849D01*
X158066252Y-105396138D01*
X158147432Y-105464256D01*
X158247014Y-105500500D01*
X158247015Y-105500500D01*
X158350167Y-105500500D01*
X158405168Y-105517185D01*
X158441631Y-105561614D01*
X158447265Y-105618814D01*
X158434110Y-105643425D01*
X158436630Y-105644600D01*
X158380741Y-105764453D01*
X158374294Y-105813423D01*
X158357237Y-105857284D01*
X158321854Y-105888314D01*
X158276141Y-105899500D01*
X158247014Y-105899500D01*
X158147432Y-105935744D01*
X158128843Y-105951341D01*
X158099070Y-105968530D01*
X158065211Y-105974500D01*
X157983502Y-105974500D01*
X157978320Y-105974364D01*
X157938935Y-105972299D01*
X157918022Y-105980326D01*
X157903136Y-105984736D01*
X157881231Y-105989393D01*
X157877014Y-105992457D01*
X157854310Y-106004784D01*
X157853231Y-106005198D01*
X157849438Y-106006654D01*
X157833600Y-106022492D01*
X157821793Y-106032576D01*
X157803676Y-106045739D01*
X157801069Y-106050255D01*
X157785340Y-106070752D01*
X157560591Y-106295503D01*
X157528473Y-106316964D01*
X157490587Y-106324500D01*
X157084413Y-106324500D01*
X157046527Y-106316964D01*
X157014409Y-106295504D01*
X156865455Y-106146550D01*
X156861906Y-106142810D01*
X156835507Y-106113491D01*
X156835506Y-106113490D01*
X156815048Y-106104382D01*
X156801396Y-106096969D01*
X156782616Y-106084773D01*
X156777460Y-106083956D01*
X156752693Y-106076619D01*
X156747933Y-106074500D01*
X156747932Y-106074500D01*
X156725540Y-106074500D01*
X156710053Y-106073281D01*
X156687935Y-106069777D01*
X156682900Y-106071127D01*
X156657278Y-106074500D01*
X156134413Y-106074500D01*
X156096527Y-106066964D01*
X156064409Y-106045504D01*
X156004496Y-105985591D01*
X155983036Y-105953473D01*
X155975500Y-105915587D01*
X155975500Y-105588088D01*
X156725001Y-105588088D01*
X156731230Y-105635414D01*
X156779666Y-105739285D01*
X156860712Y-105820331D01*
X156964587Y-105868769D01*
X157011915Y-105875000D01*
X157199999Y-105875000D01*
X157200000Y-105874999D01*
X157200000Y-105425001D01*
X157199999Y-105425000D01*
X156725002Y-105425000D01*
X156725001Y-105425001D01*
X156725001Y-105588088D01*
X155975500Y-105588088D01*
X155975500Y-105224999D01*
X156725000Y-105224999D01*
X156725001Y-105225000D01*
X157199999Y-105225000D01*
X157200000Y-105224999D01*
X157200000Y-104775002D01*
X157199999Y-104775001D01*
X157011912Y-104775001D01*
X156964585Y-104781230D01*
X156860714Y-104829666D01*
X156779668Y-104910712D01*
X156731230Y-105014587D01*
X156725000Y-105061915D01*
X156725000Y-105224999D01*
X155975500Y-105224999D01*
X155975500Y-104936951D01*
X155988763Y-104887451D01*
X156036734Y-104804363D01*
X156055136Y-104700000D01*
X156036734Y-104595637D01*
X155983748Y-104503862D01*
X155902568Y-104435744D01*
X155802986Y-104399500D01*
X155697014Y-104399500D01*
X155597432Y-104435744D01*
X155578843Y-104451341D01*
X155549070Y-104468530D01*
X155515211Y-104474500D01*
X155484789Y-104474500D01*
X155450930Y-104468530D01*
X155421156Y-104451341D01*
X155402568Y-104435744D01*
X155302986Y-104399500D01*
X155197014Y-104399500D01*
X155139316Y-104420500D01*
X155097432Y-104435744D01*
X155016252Y-104503862D01*
X154963265Y-104595638D01*
X154944864Y-104699999D01*
X154963265Y-104804361D01*
X154963265Y-104804362D01*
X154963266Y-104804363D01*
X155016252Y-104896138D01*
X155097432Y-104964256D01*
X155197014Y-105000500D01*
X155302986Y-105000500D01*
X155391641Y-104968233D01*
X155438423Y-104963110D01*
X155482284Y-104980167D01*
X155513314Y-105015550D01*
X155524500Y-105061263D01*
X155524500Y-106041498D01*
X155524364Y-106046680D01*
X155522299Y-106086062D01*
X155522299Y-106086064D01*
X155522300Y-106086064D01*
X155530328Y-106106979D01*
X155534737Y-106121866D01*
X155539392Y-106143767D01*
X155542453Y-106147980D01*
X155554785Y-106170691D01*
X155556654Y-106175560D01*
X155572494Y-106191401D01*
X155582581Y-106203212D01*
X155596456Y-106222309D01*
X155615059Y-106272732D01*
X155604574Y-106325445D01*
X155568092Y-106364911D01*
X155516364Y-106379500D01*
X155213072Y-106379500D01*
X155176903Y-106386694D01*
X155140734Y-106393889D01*
X155058701Y-106448701D01*
X155003889Y-106530734D01*
X154997098Y-106564876D01*
X154972698Y-106612763D01*
X154926872Y-106640844D01*
X154873128Y-106640844D01*
X154827302Y-106612763D01*
X154802902Y-106564876D01*
X154802491Y-106562810D01*
X154796111Y-106530735D01*
X154766560Y-106486509D01*
X154741298Y-106448701D01*
X154659265Y-106393889D01*
X154630102Y-106388088D01*
X154586928Y-106379500D01*
X154243072Y-106379500D01*
X154206903Y-106386694D01*
X154170734Y-106393889D01*
X154088701Y-106448702D01*
X154034044Y-106530502D01*
X153998397Y-106562810D01*
X153951729Y-106574500D01*
X153634789Y-106574500D01*
X153600930Y-106568530D01*
X153571156Y-106551341D01*
X153552568Y-106535744D01*
X153452986Y-106499500D01*
X153347014Y-106499500D01*
X153261195Y-106530735D01*
X153254400Y-106533208D01*
X153206192Y-106538133D01*
X153161421Y-106519587D01*
X153130818Y-106482018D01*
X153120747Y-106460421D01*
X153039579Y-106379253D01*
X153039577Y-106379252D01*
X153039576Y-106379251D01*
X152935546Y-106330741D01*
X152888139Y-106324500D01*
X152311858Y-106324500D01*
X152264454Y-106330740D01*
X152160423Y-106379251D01*
X152079251Y-106460423D01*
X152030741Y-106564453D01*
X152024500Y-106611860D01*
X152024500Y-107138141D01*
X151400000Y-107138141D01*
X151400000Y-105588088D01*
X152025001Y-105588088D01*
X152031230Y-105635414D01*
X152079666Y-105739285D01*
X152160712Y-105820331D01*
X152264587Y-105868769D01*
X152311915Y-105875000D01*
X152499999Y-105875000D01*
X152500000Y-105874999D01*
X152500000Y-105874998D01*
X152700000Y-105874998D01*
X152700001Y-105874999D01*
X152888088Y-105874999D01*
X152935414Y-105868769D01*
X153039285Y-105820333D01*
X153120331Y-105739287D01*
X153168769Y-105635412D01*
X153175000Y-105588085D01*
X153175000Y-105425001D01*
X153174999Y-105425000D01*
X152700001Y-105425000D01*
X152700000Y-105425001D01*
X152700000Y-105874998D01*
X152500000Y-105874998D01*
X152500000Y-105425001D01*
X152499999Y-105425000D01*
X152025002Y-105425000D01*
X152025001Y-105425001D01*
X152025001Y-105588088D01*
X151400000Y-105588088D01*
X151400000Y-105224999D01*
X152025000Y-105224999D01*
X152025001Y-105225000D01*
X152499999Y-105225000D01*
X152500000Y-105224999D01*
X152700000Y-105224999D01*
X152700001Y-105225000D01*
X153174998Y-105225000D01*
X153174999Y-105224999D01*
X153174999Y-105061912D01*
X153168769Y-105014585D01*
X153120333Y-104910714D01*
X153039287Y-104829668D01*
X152935412Y-104781230D01*
X152888085Y-104775000D01*
X152700001Y-104775000D01*
X152700000Y-104775001D01*
X152700000Y-105224999D01*
X152500000Y-105224999D01*
X152500000Y-104775002D01*
X152499999Y-104775001D01*
X152311912Y-104775001D01*
X152264585Y-104781230D01*
X152160714Y-104829666D01*
X152079668Y-104910712D01*
X152031230Y-105014587D01*
X152025000Y-105061915D01*
X152025000Y-105224999D01*
X151400000Y-105224999D01*
X151400000Y-102059752D01*
X151401902Y-102040439D01*
X151408212Y-102008711D01*
X151415188Y-101973641D01*
X151429971Y-101937954D01*
X151462283Y-101889596D01*
X151489596Y-101862283D01*
X151534684Y-101832156D01*
X151537955Y-101829970D01*
X151573641Y-101815188D01*
X151608711Y-101808212D01*
X151640439Y-101801902D01*
X151659752Y-101800000D01*
X152549999Y-101800000D01*
X152550000Y-101800000D01*
X152645671Y-101780970D01*
X152726777Y-101726777D01*
X152780970Y-101645671D01*
X152800000Y-101550000D01*
X152800000Y-99599999D01*
X155994864Y-99599999D01*
X156013265Y-99704361D01*
X156013265Y-99704362D01*
X156013266Y-99704363D01*
X156066252Y-99796138D01*
X156147432Y-99864256D01*
X156247014Y-99900500D01*
X156352985Y-99900500D01*
X156352986Y-99900500D01*
X156452568Y-99864256D01*
X156533748Y-99796138D01*
X156586734Y-99704363D01*
X156605136Y-99600000D01*
X156586734Y-99495637D01*
X156533748Y-99403862D01*
X156452568Y-99335744D01*
X156352986Y-99299500D01*
X156247014Y-99299500D01*
X156147431Y-99335744D01*
X156147432Y-99335744D01*
X156066252Y-99403862D01*
X156013265Y-99495638D01*
X155994864Y-99599999D01*
X152800000Y-99599999D01*
X152800000Y-98699999D01*
X155144864Y-98699999D01*
X155163265Y-98804361D01*
X155163265Y-98804362D01*
X155163266Y-98804363D01*
X155216252Y-98896138D01*
X155297432Y-98964256D01*
X155397014Y-99000500D01*
X155502985Y-99000500D01*
X155502986Y-99000500D01*
X155602568Y-98964256D01*
X155683748Y-98896138D01*
X155736734Y-98804363D01*
X155751634Y-98719862D01*
X159474500Y-98719862D01*
X159477032Y-98741693D01*
X159477415Y-98744991D01*
X159497451Y-98790369D01*
X159522793Y-98847764D01*
X159522794Y-98847765D01*
X159602235Y-98927206D01*
X159705009Y-98972585D01*
X159730135Y-98975500D01*
X160219864Y-98975499D01*
X160244991Y-98972585D01*
X160347765Y-98927206D01*
X160427206Y-98847765D01*
X160472585Y-98744991D01*
X160475500Y-98719865D01*
X160475499Y-98080136D01*
X160472585Y-98055009D01*
X160427206Y-97952235D01*
X160347765Y-97872794D01*
X160347765Y-97872793D01*
X160347764Y-97872793D01*
X160294904Y-97849453D01*
X160259511Y-97833826D01*
X160216555Y-97797309D01*
X160200500Y-97743262D01*
X160200500Y-97070201D01*
X160209775Y-97028362D01*
X160231454Y-97000109D01*
X160233745Y-96996140D01*
X160233748Y-96996138D01*
X160286734Y-96904363D01*
X160305136Y-96800000D01*
X160286734Y-96695637D01*
X160233748Y-96603862D01*
X160152568Y-96535744D01*
X160052986Y-96499500D01*
X159947014Y-96499500D01*
X159847432Y-96535743D01*
X159847432Y-96535744D01*
X159766252Y-96603862D01*
X159713265Y-96695638D01*
X159694864Y-96799999D01*
X159713265Y-96904361D01*
X159736237Y-96944150D01*
X159749500Y-96993650D01*
X159749500Y-97743262D01*
X159733445Y-97797309D01*
X159690488Y-97833826D01*
X159666469Y-97844431D01*
X159602235Y-97872793D01*
X159522793Y-97952235D01*
X159477414Y-98055010D01*
X159474500Y-98080133D01*
X159474500Y-98719862D01*
X155751634Y-98719862D01*
X155755136Y-98700000D01*
X155736734Y-98595637D01*
X155683748Y-98503862D01*
X155602568Y-98435744D01*
X155502986Y-98399500D01*
X155397014Y-98399500D01*
X155297431Y-98435744D01*
X155297432Y-98435744D01*
X155216252Y-98503862D01*
X155163265Y-98595638D01*
X155144864Y-98699999D01*
X152800000Y-98699999D01*
X152800000Y-93859752D01*
X152801902Y-93840439D01*
X152815188Y-93773643D01*
X152829971Y-93737954D01*
X152862283Y-93689596D01*
X152889596Y-93662283D01*
X152893148Y-93659909D01*
X152937955Y-93629970D01*
X152973641Y-93615188D01*
X153008711Y-93608212D01*
X153040439Y-93601902D01*
X153059752Y-93600000D01*
X162440248Y-93600000D01*
X162459562Y-93601902D01*
G37*
%TD.AperFunction*%
%TD*%
%TA.AperFunction,Conductor*%
%TO.N,GND*%
G36*
X157825391Y-67092189D02*
G01*
X157861035Y-67124494D01*
X157870030Y-67137956D01*
X157884811Y-67173640D01*
X157898098Y-67240438D01*
X157900000Y-67259752D01*
X157900000Y-74040248D01*
X157898098Y-74059563D01*
X157884811Y-74126358D01*
X157870028Y-74162045D01*
X157837716Y-74210403D01*
X157810403Y-74237716D01*
X157762045Y-74270028D01*
X157726358Y-74284811D01*
X157675997Y-74294828D01*
X157659561Y-74298098D01*
X157640248Y-74300000D01*
X152250000Y-74300000D01*
X152202164Y-74309515D01*
X152154328Y-74319030D01*
X152073223Y-74373223D01*
X152019030Y-74454328D01*
X152000000Y-74550001D01*
X152000000Y-79540248D01*
X151998098Y-79559560D01*
X151996059Y-79569812D01*
X151977504Y-79610766D01*
X151942748Y-79639290D01*
X151898961Y-79649500D01*
X146563628Y-79649500D01*
X146512291Y-79635149D01*
X146475837Y-79596258D01*
X146464835Y-79544101D01*
X146482474Y-79493799D01*
X146523639Y-79459935D01*
X146597765Y-79427206D01*
X146677206Y-79347765D01*
X146718782Y-79253603D01*
X146749145Y-79214999D01*
X146794326Y-79195738D01*
X146843205Y-79200562D01*
X146849291Y-79202777D01*
X146955262Y-79202777D01*
X146955263Y-79202777D01*
X147054845Y-79166533D01*
X147136025Y-79098415D01*
X147189011Y-79006640D01*
X147207413Y-78902277D01*
X147189011Y-78797914D01*
X147136025Y-78706139D01*
X147054845Y-78638021D01*
X146955263Y-78601777D01*
X146849291Y-78601777D01*
X146849289Y-78601777D01*
X146844934Y-78603362D01*
X146796057Y-78608185D01*
X146750876Y-78588923D01*
X146720514Y-78550320D01*
X146677206Y-78452235D01*
X146597765Y-78372794D01*
X146597764Y-78372793D01*
X146494989Y-78327414D01*
X146469866Y-78324500D01*
X145980137Y-78324500D01*
X145955009Y-78327415D01*
X145852235Y-78372793D01*
X145772793Y-78452235D01*
X145727414Y-78555010D01*
X145724500Y-78580133D01*
X145724500Y-79219862D01*
X145724603Y-79220747D01*
X145727415Y-79244991D01*
X145740886Y-79275499D01*
X145772793Y-79347764D01*
X145772794Y-79347764D01*
X145772794Y-79347765D01*
X145852235Y-79427206D01*
X145926360Y-79459935D01*
X145967526Y-79493799D01*
X145985165Y-79544101D01*
X145974163Y-79596258D01*
X145937709Y-79635149D01*
X145886372Y-79649500D01*
X144913628Y-79649500D01*
X144862291Y-79635149D01*
X144825837Y-79596258D01*
X144814835Y-79544101D01*
X144832474Y-79493799D01*
X144873639Y-79459935D01*
X144947765Y-79427206D01*
X145027206Y-79347765D01*
X145072585Y-79244991D01*
X145075500Y-79219865D01*
X145075499Y-78580136D01*
X145072585Y-78555009D01*
X145027206Y-78452235D01*
X144947765Y-78372794D01*
X144947764Y-78372793D01*
X144844989Y-78327414D01*
X144819866Y-78324500D01*
X144330137Y-78324500D01*
X144305009Y-78327415D01*
X144202235Y-78372793D01*
X144122793Y-78452235D01*
X144080667Y-78547643D01*
X144050303Y-78586248D01*
X144005122Y-78605509D01*
X143956245Y-78600686D01*
X143952986Y-78599500D01*
X143847014Y-78599500D01*
X143823152Y-78608185D01*
X143747432Y-78635744D01*
X143666252Y-78703862D01*
X143613265Y-78795638D01*
X143612864Y-78797915D01*
X143594864Y-78900000D01*
X143598803Y-78922340D01*
X143613265Y-79004361D01*
X143613265Y-79004362D01*
X143613266Y-79004363D01*
X143666252Y-79096138D01*
X143747432Y-79164256D01*
X143847014Y-79200500D01*
X143952985Y-79200500D01*
X143952986Y-79200500D01*
X143956242Y-79199314D01*
X144005119Y-79194490D01*
X144050302Y-79213750D01*
X144080667Y-79252356D01*
X144122793Y-79347764D01*
X144122794Y-79347764D01*
X144122794Y-79347765D01*
X144202235Y-79427206D01*
X144276360Y-79459935D01*
X144317526Y-79493799D01*
X144335165Y-79544101D01*
X144324163Y-79596258D01*
X144287709Y-79635149D01*
X144236372Y-79649500D01*
X143359673Y-79649500D01*
X143353193Y-79653241D01*
X143329324Y-79663128D01*
X143322097Y-79665064D01*
X143322094Y-79665066D01*
X143265065Y-79722094D01*
X143265065Y-79722095D01*
X143265064Y-79722096D01*
X142122096Y-80865065D01*
X142065065Y-80922095D01*
X142065063Y-80922098D01*
X142063127Y-80929324D01*
X142053241Y-80953192D01*
X142049499Y-80959672D01*
X142049499Y-81060014D01*
X142049500Y-81060019D01*
X142049500Y-82024169D01*
X142040224Y-82066008D01*
X142014136Y-82100008D01*
X141976124Y-82119794D01*
X141975000Y-82120096D01*
X141920096Y-82175000D01*
X141900000Y-82250000D01*
X141900000Y-82250002D01*
X141900000Y-85540248D01*
X141898098Y-85559563D01*
X141884811Y-85626358D01*
X141870028Y-85662045D01*
X141837716Y-85710403D01*
X141810403Y-85737716D01*
X141762045Y-85770028D01*
X141726358Y-85784811D01*
X141687886Y-85792464D01*
X141659561Y-85798098D01*
X141640248Y-85800000D01*
X140153847Y-85800000D01*
X140115961Y-85792464D01*
X140083845Y-85771005D01*
X140077905Y-85765065D01*
X140077903Y-85765064D01*
X140051806Y-85738967D01*
X140027240Y-85698247D01*
X140024496Y-85650771D01*
X140044206Y-85607492D01*
X140081823Y-85578398D01*
X140094987Y-85572585D01*
X140094991Y-85572585D01*
X140197765Y-85527206D01*
X140277206Y-85447765D01*
X140322585Y-85344991D01*
X140325500Y-85319865D01*
X140325499Y-84680136D01*
X140322585Y-84655009D01*
X140277206Y-84552235D01*
X140197765Y-84472794D01*
X140197764Y-84472793D01*
X140149533Y-84451497D01*
X140107560Y-84416460D01*
X140090585Y-84364489D01*
X140103782Y-84311436D01*
X140136734Y-84254363D01*
X140136734Y-84254359D01*
X140142655Y-84244105D01*
X140183961Y-84205136D01*
X140239885Y-84195274D01*
X140292027Y-84217766D01*
X140347432Y-84264256D01*
X140447014Y-84300500D01*
X140552985Y-84300500D01*
X140552986Y-84300500D01*
X140652568Y-84264256D01*
X140733748Y-84196138D01*
X140786734Y-84104363D01*
X140805136Y-84000000D01*
X140786734Y-83895637D01*
X140733748Y-83803862D01*
X140652568Y-83735744D01*
X140552986Y-83699500D01*
X140478347Y-83699500D01*
X140440461Y-83691964D01*
X140408343Y-83670504D01*
X140354495Y-83616656D01*
X140333035Y-83584538D01*
X140325499Y-83546652D01*
X140325499Y-82980138D01*
X140325499Y-82980135D01*
X140322585Y-82955009D01*
X140277206Y-82852235D01*
X140197765Y-82772794D01*
X140197764Y-82772793D01*
X140094989Y-82727414D01*
X140069866Y-82724500D01*
X139580137Y-82724500D01*
X139555009Y-82727415D01*
X139452235Y-82772793D01*
X139372793Y-82852235D01*
X139327414Y-82955010D01*
X139324500Y-82980133D01*
X139324500Y-83619862D01*
X139327032Y-83641693D01*
X139327415Y-83644991D01*
X139338680Y-83670504D01*
X139372793Y-83747764D01*
X139430525Y-83805496D01*
X139457619Y-83856186D01*
X139451985Y-83913386D01*
X139415522Y-83957815D01*
X139360521Y-83974500D01*
X138639479Y-83974500D01*
X138584478Y-83957815D01*
X138548015Y-83913386D01*
X138542381Y-83856186D01*
X138569475Y-83805496D01*
X138579334Y-83795637D01*
X138627206Y-83747765D01*
X138672585Y-83644991D01*
X138675500Y-83619865D01*
X138675499Y-82980136D01*
X138672585Y-82955009D01*
X138627206Y-82852235D01*
X138547765Y-82772794D01*
X138547764Y-82772793D01*
X138444989Y-82727414D01*
X138419866Y-82724500D01*
X137930137Y-82724500D01*
X137905009Y-82727415D01*
X137802235Y-82772793D01*
X137722793Y-82852235D01*
X137677414Y-82955010D01*
X137674500Y-82980133D01*
X137674500Y-83619862D01*
X137677032Y-83641693D01*
X137677415Y-83644991D01*
X137688680Y-83670504D01*
X137722793Y-83747764D01*
X137722794Y-83747765D01*
X137802235Y-83827206D01*
X137905009Y-83872585D01*
X137907125Y-83872830D01*
X137911911Y-83873386D01*
X137956449Y-83890052D01*
X137988079Y-83925563D01*
X137999500Y-83971726D01*
X137999500Y-84099698D01*
X137996473Y-84116213D01*
X137997015Y-84116279D01*
X137995565Y-84128213D01*
X137998778Y-84154667D01*
X137999500Y-84166600D01*
X137999500Y-84328275D01*
X137988077Y-84374440D01*
X137956445Y-84409952D01*
X137911904Y-84426615D01*
X137906299Y-84427265D01*
X137905008Y-84427415D01*
X137802235Y-84472793D01*
X137722793Y-84552235D01*
X137677414Y-84655010D01*
X137674500Y-84680133D01*
X137674500Y-85319862D01*
X137677415Y-85344990D01*
X137722793Y-85447764D01*
X137722794Y-85447765D01*
X137802235Y-85527206D01*
X137905009Y-85572585D01*
X137930135Y-85575500D01*
X138419864Y-85575499D01*
X138444991Y-85572585D01*
X138547765Y-85527206D01*
X138627206Y-85447765D01*
X138672585Y-85344991D01*
X138675500Y-85319865D01*
X138675499Y-84680136D01*
X138672585Y-84655009D01*
X138627206Y-84552235D01*
X138569475Y-84494504D01*
X138542381Y-84443814D01*
X138548015Y-84386614D01*
X138584478Y-84342185D01*
X138639479Y-84325500D01*
X139360521Y-84325500D01*
X139415522Y-84342185D01*
X139451985Y-84386614D01*
X139457619Y-84443814D01*
X139430525Y-84494504D01*
X139372793Y-84552235D01*
X139327414Y-84655010D01*
X139324500Y-84680133D01*
X139324500Y-85319862D01*
X139327415Y-85344990D01*
X139372793Y-85447764D01*
X139372794Y-85447765D01*
X139452235Y-85527206D01*
X139555009Y-85572585D01*
X139562898Y-85573500D01*
X139585821Y-85576160D01*
X139585584Y-85578201D01*
X139625000Y-85588763D01*
X139661237Y-85625000D01*
X139674500Y-85674500D01*
X139674500Y-85701000D01*
X139661237Y-85750500D01*
X139625000Y-85786737D01*
X139575500Y-85800000D01*
X137559752Y-85800000D01*
X137540438Y-85798098D01*
X137480186Y-85786113D01*
X137439233Y-85767557D01*
X137410710Y-85732802D01*
X137400500Y-85689015D01*
X137400500Y-81919790D01*
X137675001Y-81919790D01*
X137677910Y-81944874D01*
X137723212Y-82047476D01*
X137802523Y-82126787D01*
X137905126Y-82172090D01*
X137930205Y-82175000D01*
X138074999Y-82175000D01*
X138075000Y-82174999D01*
X138075000Y-82174998D01*
X138275000Y-82174998D01*
X138275001Y-82174999D01*
X138419790Y-82174999D01*
X138444874Y-82172089D01*
X138547476Y-82126787D01*
X138626787Y-82047476D01*
X138672090Y-81944873D01*
X138674992Y-81919862D01*
X139324500Y-81919862D01*
X139324501Y-81919868D01*
X139327401Y-81944874D01*
X139327415Y-81944990D01*
X139372793Y-82047764D01*
X139372794Y-82047765D01*
X139452235Y-82127206D01*
X139555009Y-82172585D01*
X139580135Y-82175500D01*
X140069864Y-82175499D01*
X140094991Y-82172585D01*
X140197765Y-82127206D01*
X140277206Y-82047765D01*
X140322585Y-81944991D01*
X140325500Y-81919865D01*
X140325500Y-81849500D01*
X140338763Y-81800000D01*
X140375000Y-81763763D01*
X140424500Y-81750500D01*
X140682745Y-81750500D01*
X140732244Y-81763763D01*
X140756103Y-81787621D01*
X140766250Y-81796136D01*
X140766252Y-81796138D01*
X140847432Y-81864256D01*
X140947014Y-81900500D01*
X141052985Y-81900500D01*
X141052986Y-81900500D01*
X141152568Y-81864256D01*
X141233748Y-81796138D01*
X141286734Y-81704363D01*
X141305136Y-81600000D01*
X141286734Y-81495637D01*
X141233748Y-81403862D01*
X141152568Y-81335744D01*
X141052986Y-81299500D01*
X140947014Y-81299500D01*
X140871198Y-81327094D01*
X140847432Y-81335744D01*
X140756103Y-81412378D01*
X140732244Y-81436237D01*
X140682745Y-81449500D01*
X140424499Y-81449500D01*
X140374999Y-81436237D01*
X140338762Y-81400000D01*
X140325499Y-81350500D01*
X140325499Y-81280138D01*
X140325499Y-81280135D01*
X140322585Y-81255009D01*
X140277206Y-81152235D01*
X140197765Y-81072794D01*
X140197764Y-81072793D01*
X140094989Y-81027414D01*
X140069866Y-81024500D01*
X139580137Y-81024500D01*
X139555009Y-81027415D01*
X139452235Y-81072793D01*
X139372793Y-81152235D01*
X139327414Y-81255010D01*
X139324500Y-81280133D01*
X139324500Y-81919862D01*
X138674992Y-81919862D01*
X138675000Y-81919795D01*
X138675000Y-81700001D01*
X138674999Y-81700000D01*
X138275001Y-81700000D01*
X138275000Y-81700001D01*
X138275000Y-82174998D01*
X138075000Y-82174998D01*
X138075000Y-81700001D01*
X138074999Y-81700000D01*
X137675002Y-81700000D01*
X137675001Y-81700001D01*
X137675001Y-81919790D01*
X137400500Y-81919790D01*
X137400500Y-81499999D01*
X137675000Y-81499999D01*
X137675001Y-81500000D01*
X138074999Y-81500000D01*
X138075000Y-81499999D01*
X138275000Y-81499999D01*
X138275001Y-81500000D01*
X138674998Y-81500000D01*
X138674999Y-81499999D01*
X138674999Y-81280210D01*
X138672089Y-81255125D01*
X138626787Y-81152523D01*
X138547476Y-81073212D01*
X138444873Y-81027909D01*
X138419795Y-81025000D01*
X138275001Y-81025000D01*
X138275000Y-81025001D01*
X138275000Y-81499999D01*
X138075000Y-81499999D01*
X138075000Y-81025002D01*
X138074999Y-81025001D01*
X137930210Y-81025001D01*
X137905125Y-81027910D01*
X137802523Y-81073212D01*
X137723212Y-81152523D01*
X137677909Y-81255126D01*
X137675000Y-81280205D01*
X137675000Y-81499999D01*
X137400500Y-81499999D01*
X137400500Y-76450000D01*
X139444864Y-76450000D01*
X139463265Y-76554361D01*
X139463265Y-76554362D01*
X139463266Y-76554363D01*
X139516252Y-76646138D01*
X139597432Y-76714256D01*
X139697014Y-76750500D01*
X139802985Y-76750500D01*
X139802986Y-76750500D01*
X139902568Y-76714256D01*
X139983748Y-76646138D01*
X140036734Y-76554363D01*
X140055136Y-76450000D01*
X140050250Y-76422289D01*
X140053328Y-76375329D01*
X140077740Y-76335097D01*
X141224749Y-75188088D01*
X146075001Y-75188088D01*
X146081230Y-75235414D01*
X146129666Y-75339285D01*
X146210712Y-75420331D01*
X146314587Y-75468769D01*
X146361915Y-75475000D01*
X146524999Y-75475000D01*
X146525000Y-75474999D01*
X146525000Y-75474998D01*
X146725000Y-75474998D01*
X146725001Y-75474999D01*
X146888088Y-75474999D01*
X146935414Y-75468769D01*
X147039285Y-75420333D01*
X147120331Y-75339287D01*
X147168769Y-75235412D01*
X147174993Y-75188141D01*
X147624500Y-75188141D01*
X147630740Y-75235545D01*
X147679251Y-75339576D01*
X147679252Y-75339577D01*
X147679253Y-75339579D01*
X147760421Y-75420747D01*
X147864455Y-75469259D01*
X147911861Y-75475500D01*
X148438138Y-75475499D01*
X148438141Y-75475499D01*
X148485545Y-75469259D01*
X148486596Y-75468769D01*
X148589579Y-75420747D01*
X148670747Y-75339579D01*
X148719259Y-75235545D01*
X148725500Y-75188139D01*
X148725500Y-75149500D01*
X148738763Y-75100000D01*
X148775000Y-75063763D01*
X148824500Y-75050500D01*
X149882745Y-75050500D01*
X149932244Y-75063763D01*
X149956103Y-75087621D01*
X149966250Y-75096136D01*
X149966252Y-75096138D01*
X150047432Y-75164256D01*
X150147014Y-75200500D01*
X150252985Y-75200500D01*
X150252986Y-75200500D01*
X150352568Y-75164256D01*
X150433748Y-75096138D01*
X150486734Y-75004363D01*
X150505136Y-74900000D01*
X150486734Y-74795637D01*
X150433748Y-74703862D01*
X150352568Y-74635744D01*
X150252986Y-74599500D01*
X150147014Y-74599500D01*
X150047431Y-74635744D01*
X150047432Y-74635744D01*
X149956103Y-74712378D01*
X149932244Y-74736237D01*
X149882745Y-74749500D01*
X148824499Y-74749500D01*
X148774999Y-74736237D01*
X148738762Y-74700000D01*
X148725499Y-74650500D01*
X148725499Y-74611858D01*
X148719259Y-74564454D01*
X148670748Y-74460423D01*
X148670747Y-74460422D01*
X148670747Y-74460421D01*
X148589579Y-74379253D01*
X148589577Y-74379252D01*
X148589576Y-74379251D01*
X148485546Y-74330741D01*
X148438139Y-74324500D01*
X147911858Y-74324500D01*
X147864454Y-74330740D01*
X147760423Y-74379251D01*
X147679251Y-74460423D01*
X147630741Y-74564453D01*
X147624500Y-74611860D01*
X147624500Y-75188141D01*
X147174993Y-75188141D01*
X147175000Y-75188085D01*
X147175000Y-75000001D01*
X147174999Y-75000000D01*
X146725001Y-75000000D01*
X146725000Y-75000001D01*
X146725000Y-75474998D01*
X146525000Y-75474998D01*
X146525000Y-75000001D01*
X146524999Y-75000000D01*
X146075002Y-75000000D01*
X146075001Y-75000001D01*
X146075001Y-75188088D01*
X141224749Y-75188088D01*
X141612838Y-74799999D01*
X146075000Y-74799999D01*
X146075001Y-74800000D01*
X146524999Y-74800000D01*
X146525000Y-74799999D01*
X146725000Y-74799999D01*
X146725001Y-74800000D01*
X147174998Y-74800000D01*
X147174999Y-74799999D01*
X147174999Y-74611912D01*
X147168769Y-74564585D01*
X147120333Y-74460714D01*
X147039287Y-74379668D01*
X146935412Y-74331230D01*
X146888085Y-74325000D01*
X146725001Y-74325000D01*
X146725000Y-74325001D01*
X146725000Y-74799999D01*
X146525000Y-74799999D01*
X146525000Y-74325002D01*
X146524999Y-74325001D01*
X146361912Y-74325001D01*
X146314585Y-74331230D01*
X146210714Y-74379666D01*
X146129668Y-74460712D01*
X146081230Y-74564587D01*
X146075000Y-74611915D01*
X146075000Y-74799999D01*
X141612838Y-74799999D01*
X143293048Y-73119790D01*
X146075001Y-73119790D01*
X146077910Y-73144874D01*
X146123212Y-73247476D01*
X146202523Y-73326787D01*
X146305126Y-73372090D01*
X146330205Y-73375000D01*
X146474999Y-73375000D01*
X146475000Y-73374999D01*
X146475000Y-73374998D01*
X146675000Y-73374998D01*
X146675001Y-73374999D01*
X146819790Y-73374999D01*
X146844874Y-73372089D01*
X146947476Y-73326787D01*
X147026787Y-73247476D01*
X147072090Y-73144873D01*
X147074992Y-73119862D01*
X147724500Y-73119862D01*
X147727032Y-73141693D01*
X147727401Y-73144874D01*
X147727415Y-73144990D01*
X147772793Y-73247764D01*
X147772794Y-73247765D01*
X147852235Y-73327206D01*
X147955009Y-73372585D01*
X147980135Y-73375500D01*
X148469864Y-73375499D01*
X148494991Y-73372585D01*
X148597765Y-73327206D01*
X148677206Y-73247765D01*
X148722585Y-73144991D01*
X148725500Y-73119865D01*
X148725500Y-73049500D01*
X148738763Y-73000000D01*
X148775000Y-72963763D01*
X148824500Y-72950500D01*
X150282745Y-72950500D01*
X150332244Y-72963763D01*
X150356103Y-72987621D01*
X150366250Y-72996136D01*
X150366252Y-72996138D01*
X150447432Y-73064256D01*
X150547014Y-73100500D01*
X150652985Y-73100500D01*
X150652986Y-73100500D01*
X150752568Y-73064256D01*
X150833748Y-72996138D01*
X150886734Y-72904363D01*
X150905136Y-72800000D01*
X150886734Y-72695637D01*
X150833748Y-72603862D01*
X150752568Y-72535744D01*
X150652986Y-72499500D01*
X150547014Y-72499500D01*
X150447431Y-72535744D01*
X150447432Y-72535744D01*
X150356103Y-72612378D01*
X150332244Y-72636237D01*
X150282745Y-72649500D01*
X148824499Y-72649500D01*
X148774999Y-72636237D01*
X148738762Y-72600000D01*
X148725499Y-72550500D01*
X148725499Y-72480138D01*
X148725499Y-72480135D01*
X148722585Y-72455009D01*
X148677206Y-72352235D01*
X148597765Y-72272794D01*
X148597764Y-72272793D01*
X148494989Y-72227414D01*
X148469866Y-72224500D01*
X147980137Y-72224500D01*
X147955009Y-72227415D01*
X147852235Y-72272793D01*
X147772793Y-72352235D01*
X147727414Y-72455010D01*
X147724500Y-72480133D01*
X147724500Y-73119862D01*
X147074992Y-73119862D01*
X147075000Y-73119795D01*
X147075000Y-72900001D01*
X147074999Y-72900000D01*
X146675001Y-72900000D01*
X146675000Y-72900001D01*
X146675000Y-73374998D01*
X146475000Y-73374998D01*
X146475000Y-72900001D01*
X146474999Y-72900000D01*
X146075002Y-72900000D01*
X146075001Y-72900001D01*
X146075001Y-73119790D01*
X143293048Y-73119790D01*
X143712839Y-72699999D01*
X146075000Y-72699999D01*
X146075001Y-72700000D01*
X146474999Y-72700000D01*
X146475000Y-72699999D01*
X146675000Y-72699999D01*
X146675001Y-72700000D01*
X147074998Y-72700000D01*
X147074999Y-72699999D01*
X147074999Y-72480210D01*
X147072089Y-72455125D01*
X147026787Y-72352523D01*
X146947476Y-72273212D01*
X146844873Y-72227909D01*
X146819795Y-72225000D01*
X146675001Y-72225000D01*
X146675000Y-72225001D01*
X146675000Y-72699999D01*
X146475000Y-72699999D01*
X146475000Y-72225002D01*
X146474999Y-72225001D01*
X146330210Y-72225001D01*
X146305125Y-72227910D01*
X146202523Y-72273212D01*
X146123212Y-72352523D01*
X146077909Y-72455126D01*
X146075000Y-72480205D01*
X146075000Y-72699999D01*
X143712839Y-72699999D01*
X145433342Y-70979496D01*
X145465461Y-70958036D01*
X145503347Y-70950500D01*
X145975501Y-70950500D01*
X146025001Y-70963763D01*
X146061238Y-71000000D01*
X146074501Y-71049500D01*
X146074501Y-71119864D01*
X146075814Y-71131182D01*
X146077415Y-71144990D01*
X146122793Y-71247764D01*
X146122794Y-71247765D01*
X146202235Y-71327206D01*
X146305009Y-71372585D01*
X146330135Y-71375500D01*
X146819864Y-71375499D01*
X146844991Y-71372585D01*
X146947765Y-71327206D01*
X147027206Y-71247765D01*
X147072585Y-71144991D01*
X147075500Y-71119865D01*
X147075500Y-71119862D01*
X147724500Y-71119862D01*
X147727415Y-71144990D01*
X147772793Y-71247764D01*
X147772794Y-71247765D01*
X147852235Y-71327206D01*
X147955009Y-71372585D01*
X147980135Y-71375500D01*
X148469864Y-71375499D01*
X148494991Y-71372585D01*
X148597765Y-71327206D01*
X148677206Y-71247765D01*
X148722585Y-71144991D01*
X148724187Y-71131182D01*
X152099500Y-71131182D01*
X152138604Y-71390615D01*
X152215937Y-71641323D01*
X152329772Y-71877704D01*
X152477567Y-72094479D01*
X152477570Y-72094482D01*
X152656020Y-72286807D01*
X152861137Y-72450382D01*
X152861140Y-72450384D01*
X152861143Y-72450386D01*
X153088357Y-72581568D01*
X153088358Y-72581568D01*
X153088361Y-72581570D01*
X153224334Y-72634935D01*
X153332584Y-72677420D01*
X153588370Y-72735802D01*
X153686438Y-72743151D01*
X153784504Y-72750500D01*
X153784506Y-72750500D01*
X153915494Y-72750500D01*
X153915496Y-72750500D01*
X153993948Y-72744620D01*
X154111630Y-72735802D01*
X154367416Y-72677420D01*
X154611643Y-72581568D01*
X154838857Y-72450386D01*
X154945846Y-72365065D01*
X155043979Y-72286807D01*
X155056982Y-72272793D01*
X155222433Y-72094479D01*
X155370228Y-71877704D01*
X155484063Y-71641323D01*
X155561396Y-71390615D01*
X155600500Y-71131182D01*
X155600500Y-70868818D01*
X155561396Y-70609385D01*
X155484063Y-70358677D01*
X155370228Y-70122296D01*
X155222433Y-69905521D01*
X155174401Y-69853755D01*
X155043979Y-69713192D01*
X154838862Y-69549617D01*
X154611638Y-69418429D01*
X154367420Y-69322581D01*
X154111627Y-69264197D01*
X153915496Y-69249500D01*
X153915494Y-69249500D01*
X153784506Y-69249500D01*
X153784504Y-69249500D01*
X153588372Y-69264197D01*
X153332579Y-69322581D01*
X153088361Y-69418429D01*
X152861137Y-69549617D01*
X152656020Y-69713192D01*
X152477570Y-69905517D01*
X152329770Y-70122299D01*
X152215937Y-70358675D01*
X152178471Y-70480138D01*
X152138604Y-70609385D01*
X152099500Y-70868818D01*
X152099500Y-71131182D01*
X148724187Y-71131182D01*
X148725500Y-71119865D01*
X148725500Y-71049500D01*
X148738763Y-71000000D01*
X148775000Y-70963763D01*
X148824500Y-70950500D01*
X149082745Y-70950500D01*
X149132244Y-70963763D01*
X149156103Y-70987621D01*
X149166250Y-70996136D01*
X149166252Y-70996138D01*
X149247432Y-71064256D01*
X149347014Y-71100500D01*
X149452985Y-71100500D01*
X149452986Y-71100500D01*
X149552568Y-71064256D01*
X149633748Y-70996138D01*
X149686734Y-70904363D01*
X149705136Y-70800000D01*
X149686734Y-70695637D01*
X149633748Y-70603862D01*
X149552568Y-70535744D01*
X149452986Y-70499500D01*
X149347014Y-70499500D01*
X149247432Y-70535743D01*
X149247432Y-70535744D01*
X149156103Y-70612378D01*
X149132244Y-70636237D01*
X149082745Y-70649500D01*
X148824499Y-70649500D01*
X148774999Y-70636237D01*
X148738762Y-70600000D01*
X148725499Y-70550500D01*
X148725499Y-70480138D01*
X148725499Y-70480135D01*
X148722585Y-70455009D01*
X148677206Y-70352235D01*
X148597765Y-70272794D01*
X148597764Y-70272793D01*
X148494989Y-70227414D01*
X148469866Y-70224500D01*
X147980137Y-70224500D01*
X147955009Y-70227415D01*
X147852235Y-70272793D01*
X147772793Y-70352235D01*
X147727414Y-70455010D01*
X147724500Y-70480133D01*
X147724500Y-71119862D01*
X147075500Y-71119862D01*
X147075499Y-70480136D01*
X147072585Y-70455009D01*
X147027206Y-70352235D01*
X146947765Y-70272794D01*
X146947764Y-70272793D01*
X146844989Y-70227414D01*
X146819866Y-70224500D01*
X146330137Y-70224500D01*
X146305009Y-70227415D01*
X146202235Y-70272793D01*
X146122793Y-70352235D01*
X146077414Y-70455010D01*
X146074500Y-70480132D01*
X146074500Y-70550500D01*
X146061237Y-70600000D01*
X146025000Y-70636237D01*
X145975500Y-70649500D01*
X145359673Y-70649500D01*
X145353193Y-70653241D01*
X145329324Y-70663128D01*
X145322097Y-70665064D01*
X145322094Y-70665066D01*
X139866656Y-76120504D01*
X139834538Y-76141964D01*
X139796652Y-76149500D01*
X139697014Y-76149500D01*
X139597432Y-76185743D01*
X139597432Y-76185744D01*
X139516252Y-76253862D01*
X139463265Y-76345638D01*
X139444864Y-76450000D01*
X137400500Y-76450000D01*
X137400500Y-71131182D01*
X139399500Y-71131182D01*
X139438604Y-71390615D01*
X139515937Y-71641323D01*
X139629772Y-71877704D01*
X139777567Y-72094479D01*
X139777570Y-72094482D01*
X139956020Y-72286807D01*
X140161137Y-72450382D01*
X140161140Y-72450384D01*
X140161143Y-72450386D01*
X140388357Y-72581568D01*
X140388358Y-72581568D01*
X140388361Y-72581570D01*
X140524334Y-72634935D01*
X140632584Y-72677420D01*
X140888370Y-72735802D01*
X140986438Y-72743151D01*
X141084504Y-72750500D01*
X141084506Y-72750500D01*
X141215494Y-72750500D01*
X141215496Y-72750500D01*
X141293948Y-72744620D01*
X141411630Y-72735802D01*
X141667416Y-72677420D01*
X141911643Y-72581568D01*
X142138857Y-72450386D01*
X142245846Y-72365065D01*
X142343979Y-72286807D01*
X142356982Y-72272793D01*
X142522433Y-72094479D01*
X142670228Y-71877704D01*
X142784063Y-71641323D01*
X142861396Y-71390615D01*
X142900500Y-71131182D01*
X142900500Y-70868818D01*
X142861396Y-70609385D01*
X142784063Y-70358677D01*
X142670228Y-70122296D01*
X142522433Y-69905521D01*
X142474401Y-69853755D01*
X142343979Y-69713192D01*
X142138862Y-69549617D01*
X141911638Y-69418429D01*
X141667420Y-69322581D01*
X141411627Y-69264197D01*
X141215496Y-69249500D01*
X141215494Y-69249500D01*
X141084506Y-69249500D01*
X141084504Y-69249500D01*
X140888372Y-69264197D01*
X140632579Y-69322581D01*
X140388361Y-69418429D01*
X140161137Y-69549617D01*
X139956020Y-69713192D01*
X139777570Y-69905517D01*
X139629770Y-70122299D01*
X139515937Y-70358675D01*
X139478471Y-70480138D01*
X139438604Y-70609385D01*
X139399500Y-70868818D01*
X139399500Y-71131182D01*
X137400500Y-71131182D01*
X137400500Y-68983240D01*
X137400712Y-68976765D01*
X137412297Y-68800000D01*
X145094864Y-68800000D01*
X145113265Y-68904361D01*
X145113265Y-68904362D01*
X145113266Y-68904363D01*
X145166252Y-68996138D01*
X145247432Y-69064256D01*
X145347014Y-69100500D01*
X145452985Y-69100500D01*
X145452986Y-69100500D01*
X145552568Y-69064256D01*
X145633748Y-68996138D01*
X145633750Y-68996134D01*
X145643896Y-68987621D01*
X145667756Y-68963763D01*
X145717255Y-68950500D01*
X145975501Y-68950500D01*
X146025001Y-68963763D01*
X146061238Y-69000000D01*
X146074501Y-69049500D01*
X146074501Y-69119864D01*
X146077415Y-69144989D01*
X146077415Y-69144990D01*
X146122793Y-69247764D01*
X146122794Y-69247765D01*
X146202235Y-69327206D01*
X146305009Y-69372585D01*
X146330135Y-69375500D01*
X146819864Y-69375499D01*
X146844991Y-69372585D01*
X146947765Y-69327206D01*
X147027206Y-69247765D01*
X147072585Y-69144991D01*
X147075500Y-69119865D01*
X147075500Y-69119862D01*
X147724500Y-69119862D01*
X147727415Y-69144990D01*
X147772793Y-69247764D01*
X147772794Y-69247765D01*
X147852235Y-69327206D01*
X147955009Y-69372585D01*
X147980135Y-69375500D01*
X148469864Y-69375499D01*
X148494991Y-69372585D01*
X148597765Y-69327206D01*
X148677206Y-69247765D01*
X148722585Y-69144991D01*
X148725500Y-69119865D01*
X148725500Y-69049500D01*
X148738763Y-69000000D01*
X148775000Y-68963763D01*
X148824500Y-68950500D01*
X149082745Y-68950500D01*
X149132244Y-68963763D01*
X149156103Y-68987621D01*
X149166250Y-68996136D01*
X149166252Y-68996138D01*
X149247432Y-69064256D01*
X149347014Y-69100500D01*
X149452985Y-69100500D01*
X149452986Y-69100500D01*
X149552568Y-69064256D01*
X149633748Y-68996138D01*
X149686734Y-68904363D01*
X149705136Y-68800000D01*
X149686734Y-68695637D01*
X149633748Y-68603862D01*
X149552568Y-68535744D01*
X149452986Y-68499500D01*
X149347014Y-68499500D01*
X149247432Y-68535743D01*
X149247432Y-68535744D01*
X149156103Y-68612378D01*
X149132244Y-68636237D01*
X149082745Y-68649500D01*
X148824499Y-68649500D01*
X148774999Y-68636237D01*
X148738762Y-68600000D01*
X148725499Y-68550500D01*
X148725499Y-68480138D01*
X148725499Y-68480135D01*
X148722585Y-68455009D01*
X148677206Y-68352235D01*
X148597765Y-68272794D01*
X148597765Y-68272793D01*
X148597764Y-68272793D01*
X148494989Y-68227414D01*
X148469866Y-68224500D01*
X147980137Y-68224500D01*
X147955009Y-68227415D01*
X147852235Y-68272793D01*
X147772793Y-68352235D01*
X147727414Y-68455010D01*
X147724500Y-68480133D01*
X147724500Y-69119862D01*
X147075500Y-69119862D01*
X147075499Y-68480136D01*
X147072585Y-68455009D01*
X147027206Y-68352235D01*
X146947765Y-68272794D01*
X146947765Y-68272793D01*
X146947764Y-68272793D01*
X146844989Y-68227414D01*
X146819866Y-68224500D01*
X146330137Y-68224500D01*
X146305009Y-68227415D01*
X146202235Y-68272793D01*
X146122793Y-68352235D01*
X146077414Y-68455010D01*
X146074500Y-68480132D01*
X146074500Y-68550500D01*
X146061237Y-68600000D01*
X146025000Y-68636237D01*
X145975500Y-68649500D01*
X145717255Y-68649500D01*
X145667756Y-68636237D01*
X145643896Y-68612378D01*
X145633748Y-68603863D01*
X145633748Y-68603862D01*
X145552568Y-68535744D01*
X145452986Y-68499500D01*
X145347014Y-68499500D01*
X145247432Y-68535743D01*
X145247432Y-68535744D01*
X145166252Y-68603862D01*
X145113265Y-68695638D01*
X145094864Y-68800000D01*
X137412297Y-68800000D01*
X137416325Y-68738534D01*
X137418015Y-68725703D01*
X137463959Y-68494727D01*
X137467307Y-68482234D01*
X137543006Y-68259234D01*
X137547962Y-68247272D01*
X137652114Y-68036072D01*
X137658588Y-68024857D01*
X137789425Y-67829045D01*
X137797301Y-67818781D01*
X137952580Y-67641720D01*
X137961720Y-67632580D01*
X138138781Y-67477301D01*
X138149045Y-67469425D01*
X138344862Y-67338584D01*
X138356072Y-67332114D01*
X138567272Y-67227962D01*
X138579235Y-67223006D01*
X138802234Y-67147307D01*
X138814727Y-67143959D01*
X139045710Y-67098014D01*
X139058534Y-67096325D01*
X139296765Y-67080711D01*
X139303240Y-67080500D01*
X157778723Y-67080500D01*
X157825391Y-67092189D01*
G37*
%TD.AperFunction*%
%TD*%
M02*
