M48
; DRILL file {KiCad 7.0.1} date Wed Apr 26 14:08:54 2023
; FORMAT={-:-/ absolute / inch / decimal}
; #@! TF.CreationDate,2023-04-26T14:08:54+02:00
; #@! TF.GenerationSoftware,Kicad,Pcbnew,7.0.1
; #@! TF.FileFunction,Plated,1,6,PTH
FMAT,2
INCH
; #@! TA.AperFunction,Plated,PTH,ViaDrill
T1C0.0079
; #@! TA.AperFunction,Plated,PTH,ComponentDrill
T2C0.0157
; #@! TA.AperFunction,Plated,PTH,ComponentDrill
T3C0.0236
%
G90
G05
T1
X5.4291Y-4.4528
X5.4331Y-4.5433
X5.4331Y-4.6575
X5.4331Y-4.7559
X5.4331Y-4.9291
X5.4331Y-5.0354
X5.4528Y-2.7362
X5.4528Y-2.8543
X5.4592Y-4.3819
X5.4646Y-4.0433
X5.4724Y-4.1969
X5.4724Y-4.2677
X5.4921Y-4.0079
X5.5Y-4.3504
X5.5059Y-3.1772
X5.5059Y-3.313
X5.5118Y-3.3976
X5.5197Y-4.1752
X5.5197Y-4.25
X5.5236Y-3.8307
X5.5315Y-3.3071
X5.5315Y-3.4134
X5.5315Y-4.7343
X5.5315Y-4.7539
X5.5315Y-4.7933
X5.5354Y-3.7441
X5.5354Y-4.0709
X5.5354Y-4.1299
X5.5354Y-4.9311
X5.5512Y-3.2126
X5.5512Y-3.4291
X5.5512Y-4.1496
X5.5512Y-4.6654
X5.5709Y-3.4449
X5.5709Y-4.0079
X5.5709Y-4.2008
X5.5709Y-4.2244
X5.5709Y-4.6949
X5.5906Y-3.4606
X5.5906Y-4.0079
X5.5984Y-4.0709
X5.5984Y-4.872
X5.6004Y-4.2677
X5.6142Y-4.9114
X5.6181Y-3.4788
X5.622Y-4.3268
X5.6299Y-3.7441
X5.6299Y-3.8307
X5.6299Y-3.9528
X5.6299Y-4.0906
X5.6299Y-4.1575
X5.6299Y-4.9252
X5.6457Y-3.6811
X5.6457Y-4.1339
X5.6457Y-4.3268
X5.6457Y-4.9803
X5.6516Y-3.8051
X5.6594Y-4.1575
X5.6594Y-4.2677
X5.6614Y-3.3425
X5.6614Y-5.0079
X5.6654Y-3.1063
X5.6693Y-4.5079
X5.6693Y-4.7736
X5.685Y-3.7126
X5.685Y-4.2992
X5.689Y-4.2008
X5.689Y-4.2244
X5.6929Y-5.0197
X5.7008Y-3.9055
X5.7008Y-4.0709
X5.7087Y-3.2795
X5.7087Y-4.7736
X5.7087Y-4.9803
X5.7087Y-5.0079
X5.7165Y-3.8898
X5.7185Y-4.2677
X5.7244Y-2.7087
X5.7244Y-2.7874
X5.7244Y-3.2126
X5.7323Y-3.7559
X5.7402Y-3.2795
X5.7402Y-4.1752
X5.7402Y-4.9803
X5.748Y-2.8661
X5.748Y-2.9488
X5.748Y-3.7795
X5.748Y-3.8386
X5.7559Y-3.2953
X5.7638Y-4.0709
X5.7717Y-3.2795
X5.7717Y-4.9803
X5.7717Y-5.0433
X5.7795Y-4.6024
X5.7795Y-4.6693
X5.7836Y-3.1064
X5.7874Y-3.2953
X5.7874Y-4.1969
X5.7874Y-4.2677
X5.7953Y-3.9764
X5.7992Y-4.3346
X5.7992Y-4.6339
X5.7993Y-4.571
X5.8031Y-3.3425
X5.8071Y-3.4803
X5.815Y-4.3898
X5.8189Y-4.4882
X5.8268Y-3.2126
X5.8386Y-4.8524
X5.8465Y-4.2717
X5.8504Y-3.2795
X5.8504Y-4.9803
X5.8504Y-5.0433
X5.8558Y-3.8071
X5.8661Y-3.2953
X5.8661Y-4.9252
X5.874Y-4.1811
X5.8819Y-2.7087
X5.8819Y-2.7874
X5.8819Y-3.2795
X5.8819Y-4.5354
X5.8898Y-4.1417
X5.8956Y-3.4685
X5.8976Y-3.3425
X5.8976Y-4.9252
X5.9016Y-4.5512
X5.9134Y-2.9488
X5.9134Y-3.2795
X5.9134Y-4.0472
X5.9291Y-2.8661
X5.9291Y-3.2953
X5.9291Y-4.9803
X5.9291Y-5.0433
X5.9488Y-3.4685
X5.9567Y-4.4124
X5.9646Y-3.9567
X5.9665Y-4.6417
X5.9685Y-5.2008
X5.9724Y-4.1437
X5.9724Y-4.1831
X5.9724Y-4.2421
X5.9724Y-4.2815
X5.9764Y-3.2795
X5.9882Y-4.5276
X5.9882Y-4.6063
X5.9941Y-4.3819
X6.0Y-3.6929
X6.0039Y-3.3031
X6.0177Y-4.7402
X6.0276Y-3.3031
X6.0276Y-3.5787
X6.0335Y-4.3307
X6.0335Y-4.3012
X6.0354Y-3.8504
X6.0354Y-3.9213
X6.0354Y-4.1654
X6.0354Y-4.2598
X6.0394Y-4.2047
X6.0394Y-5.0433
X6.0433Y-4.1004
X6.0433Y-4.7385
X6.0531Y-4.3012
X6.0551Y-2.9567
X6.0551Y-2.9803
X6.0551Y-3.0039
X6.0551Y-3.0276
X6.0551Y-3.3976
X6.0591Y-5.1339
X6.063Y-3.0984
X6.0669Y-3.4685
X6.0689Y-4.7362
X6.0709Y-3.2244
X6.0728Y-4.1654
X6.0728Y-4.2618
X6.0846Y-4.3465
X6.0866Y-3.2087
X6.0866Y-3.9606
X6.0925Y-4.2618
X6.1024Y-4.5276
X6.1024Y-4.6063
X6.1063Y-4.4134
X6.1102Y-5.1732
X6.1122Y-4.122
X6.1122Y-4.1654
X6.1122Y-4.2618
X6.1201Y-3.8858
X6.1319Y-4.122
X6.1339Y-4.9803
X6.1339Y-5.0433
X6.1417Y-4.5984
X6.1516Y-4.1634
X6.1516Y-4.2598
X6.1535Y-3.9213
X6.1575Y-3.9606
X6.1614Y-2.7362
X6.1614Y-2.8543
X6.1614Y-4.3819
X6.1614Y-4.5
X6.1654Y-3.2972
X6.1811Y-3.2795
X6.1909Y-4.1654
X6.1969Y-3.2244
X6.2008Y-4.1004
X6.2008Y-4.3189
X6.2028Y-4.6417
X6.2081Y-4.5163
X6.2126Y-3.2087
X6.2244Y-4.0192
X6.2244Y-4.5354
X6.2244Y-4.6063
X6.2245Y-2.9922
X6.2283Y-2.6811
X6.2283Y-2.748
X6.2283Y-2.815
X6.2323Y-4.1417
X6.2323Y-4.1811
X6.2323Y-4.2441
X6.2327Y-4.2949
X6.2402Y-5.1555
X6.2402Y-5.1909
X6.2441Y-2.8543
X6.252Y-3.3858
X6.252Y-3.4331
X6.252Y-3.4843
X6.252Y-3.5827
X6.252Y-3.6339
X6.252Y-3.8858
X6.2541Y-4.7206
X6.2795Y-4.7205
X6.2874Y-4.0197
X6.2886Y-4.1555
X6.2886Y-4.2894
X6.2894Y-4.1063
X6.2913Y-3.3858
X6.2913Y-3.4331
X6.2913Y-3.4843
X6.2913Y-3.5827
X6.2913Y-3.6339
X6.2992Y-3.811
X6.3051Y-4.6417
X6.311Y-4.3602
X6.3159Y-2.7165
X6.3169Y-4.2717
X6.3307Y-3.1654
X6.3386Y-4.5354
X6.3386Y-4.6063
X6.3465Y-4.3031
X6.3583Y-3.8307
X6.3583Y-5.1555
X6.3583Y-5.1909
X6.3622Y-3.2638
X6.3652Y-4.0315
X6.378Y-4.0945
X6.378Y-4.311
X6.378Y-4.4488
X6.3819Y-4.2028
X6.3819Y-4.25
X6.3898Y-3.874
T2
X6.3042Y-2.8848
X6.3042Y-2.9203
X6.3042Y-2.9557
X6.3042Y-2.9911
X6.3042Y-3.0266
X6.3042Y-3.062
X6.3042Y-3.0974
X6.3349Y-2.9026
X6.3349Y-2.938
X6.3349Y-2.9734
X6.3349Y-3.0089
X6.3349Y-3.0443
X6.3349Y-3.0797
X6.3349Y-3.1152
T3
G00X6.2633Y-2.9242
M15
G01X6.2633Y-2.8848
M16
G05
G00X6.2633Y-3.1132
M15
G01X6.2633Y-3.0738
M16
G05
G00X6.3759Y-2.9242
M15
G01X6.3759Y-2.8848
M16
G05
G00X6.3759Y-3.1132
M15
G01X6.3759Y-3.0738
M16
G05
T0
M30
